M48
; DRILL file {KiCad 9.0.0} date 2025-07-31T15:34:38+0200
; FORMAT={-:-/ absolute / inch / decimal}
; #@! TF.CreationDate,2025-07-31T15:34:38+02:00
; #@! TF.GenerationSoftware,Kicad,Pcbnew,9.0.0
; #@! TF.FileFunction,Plated,1,2,PTH
FMAT,2
INCH
; #@! TA.AperFunction,Plated,PTH,ComponentDrill
T1C0.0394
; #@! TA.AperFunction,Plated,PTH,ComponentDrill
T2C0.1280
%
G90
G05
T1
X4.0118Y-2.437
X4.0118Y-2.7362
X4.0118Y-2.9803
X4.0118Y-3.2795
X4.0118Y-3.5236
X4.0118Y-3.8228
X4.0118Y-4.0669
X4.0118Y-4.3661
X4.0118Y-4.6102
X4.0118Y-4.9094
X4.0118Y-5.1535
X4.0118Y-5.4528
X4.0118Y-5.6969
X4.0118Y-5.9961
X4.1118Y-2.437
X4.1118Y-2.7362
X4.1118Y-2.9803
X4.1118Y-3.2795
X4.1118Y-3.5236
X4.1118Y-3.8228
X4.1118Y-4.0669
X4.1118Y-4.3661
X4.1118Y-4.6102
X4.1118Y-4.9094
X4.1118Y-5.1535
X4.1118Y-5.4528
X4.1118Y-5.6969
X4.1118Y-5.9961
X5.7677Y-2.437
X5.7677Y-2.7362
X5.7677Y-2.9803
X5.7677Y-3.2795
X5.7677Y-3.5236
X5.7677Y-3.8228
X5.7677Y-4.0669
X5.7677Y-4.3661
X5.7677Y-4.6102
X5.7677Y-4.9094
X5.7677Y-5.1535
X5.7677Y-5.4528
X5.7677Y-5.6969
X5.7677Y-5.9961
X5.8677Y-2.437
X5.8677Y-2.7362
X5.8677Y-2.9803
X5.8677Y-3.2795
X5.8677Y-3.5236
X5.8677Y-3.8228
X5.8677Y-4.0669
X5.8677Y-4.3661
X5.8677Y-4.6102
X5.8677Y-4.9094
X5.8677Y-5.1535
X5.8677Y-5.4528
X5.8677Y-5.6969
X5.8677Y-5.9961
X6.1142Y-2.4394
X6.1142Y-2.5394
X6.1142Y-4.1953
X6.1142Y-4.2953
X6.4134Y-2.4394
X6.4134Y-2.5394
X6.4134Y-4.1953
X6.4134Y-4.2953
X6.6575Y-2.4394
X6.6575Y-2.5394
X6.6575Y-4.1953
X6.6575Y-4.2953
X6.9567Y-2.4394
X6.9567Y-2.5394
X6.9567Y-4.1953
X6.9567Y-4.2953
X7.2008Y-2.4394
X7.2008Y-2.5394
X7.2008Y-4.1953
X7.2008Y-4.2953
X7.5Y-2.4394
X7.5Y-2.5394
X7.5Y-4.1953
X7.5Y-4.2953
T2
X6.5827Y-4.8563
X6.5827Y-6.1811
X7.5787Y-6.1811
X7.5827Y-4.8563
M30
