M48
; DRILL file {KiCad 9.0.0} date 2025-07-31T15:34:38+0200
; FORMAT={-:-/ absolute / inch / decimal}
; #@! TF.CreationDate,2025-07-31T15:34:38+02:00
; #@! TF.GenerationSoftware,Kicad,Pcbnew,9.0.0
; #@! TF.FileFunction,NonPlated,1,2,NPTH
FMAT,2
INCH
; #@! TA.AperFunction,NonPlated,NPTH,ComponentDrill
T1C0.0197
%
G90
G05
T1
X4.9213Y-2.8228
X4.9213Y-2.8937
X4.9213Y-3.3661
X4.9213Y-3.437
X4.9213Y-3.9094
X4.9213Y-3.9803
X4.9213Y-4.4528
X4.9213Y-4.5236
X4.9213Y-4.9961
X4.9213Y-5.0669
X4.9213Y-5.5394
X4.9213Y-5.6102
X4.9213Y-6.0827
X4.9213Y-6.1535
X4.9528Y-2.8228
X4.9528Y-2.8937
X4.9528Y-3.3661
X4.9528Y-3.437
X4.9528Y-3.9094
X4.9528Y-3.9803
X4.9528Y-4.4528
X4.9528Y-4.5236
X4.9528Y-4.9961
X4.9528Y-5.0669
X4.9528Y-5.5394
X4.9528Y-5.6102
X4.9528Y-6.0827
X4.9528Y-6.1535
X4.9843Y-2.8228
X4.9843Y-2.8937
X4.9843Y-3.3661
X4.9843Y-3.437
X4.9843Y-3.9094
X4.9843Y-3.9803
X4.9843Y-4.4528
X4.9843Y-4.5236
X4.9843Y-4.9961
X4.9843Y-5.0669
X4.9843Y-5.5394
X4.9843Y-5.6102
X4.9843Y-6.0827
X4.9843Y-6.1535
X5.9567Y-2.5512
X5.9567Y-2.5827
X5.9567Y-2.6142
X5.9567Y-3.0945
X5.9567Y-3.126
X5.9567Y-3.1575
X5.9567Y-3.6378
X5.9567Y-3.6693
X5.9567Y-3.7008
X5.9567Y-4.7244
X5.9567Y-4.7559
X5.9567Y-4.7874
X5.9567Y-5.2677
X5.9567Y-5.2992
X5.9567Y-5.3307
X5.9567Y-5.811
X5.9567Y-5.8425
X5.9567Y-5.874
X6.0276Y-2.5512
X6.0276Y-2.5827
X6.0276Y-2.6142
X6.0276Y-3.0945
X6.0276Y-3.126
X6.0276Y-3.1575
X6.0276Y-3.6378
X6.0276Y-3.6693
X6.0276Y-3.7008
X6.0276Y-4.7244
X6.0276Y-4.7559
X6.0276Y-4.7874
X6.0276Y-5.2677
X6.0276Y-5.2992
X6.0276Y-5.3307
X6.0276Y-5.811
X6.0276Y-5.8425
X6.0276Y-5.874
X6.2047Y-5.5315
X6.2047Y-5.563
X6.2047Y-5.5945
X6.2756Y-5.5315
X6.2756Y-5.563
X6.2756Y-5.5945
X6.5Y-3.3228
X6.5Y-3.3543
X6.5Y-3.3858
X6.5709Y-3.3228
X6.5709Y-3.3543
X6.5709Y-3.3858
X7.0433Y-3.3228
X7.0433Y-3.3543
X7.0433Y-3.3858
X7.0669Y-4.6555
X7.0669Y-4.7264
X7.0984Y-4.6555
X7.0984Y-4.7264
X7.1142Y-3.3228
X7.1142Y-3.3543
X7.1142Y-3.3858
X7.1299Y-4.6555
X7.1299Y-4.7264
X7.5866Y-3.3228
X7.5866Y-3.3543
X7.5866Y-3.3858
X7.6575Y-3.3228
X7.6575Y-3.3543
X7.6575Y-3.3858
M30
