%TF.GenerationSoftware,KiCad,Pcbnew,9.0.0*%
%TF.CreationDate,2025-07-31T15:34:44+02:00*%
%TF.ProjectId,Label_SM,4c616265-6c5f-4534-9d2e-6b696361645f,rev?*%
%TF.SameCoordinates,Original*%
%TF.FileFunction,Copper,L1,Top*%
%TF.FilePolarity,Positive*%
%FSLAX46Y46*%
G04 Gerber Fmt 4.6, Leading zero omitted, Abs format (unit mm)*
G04 Created by KiCad (PCBNEW 9.0.0) date 2025-07-31 15:34:44*
%MOMM*%
%LPD*%
G01*
G04 APERTURE LIST*
%TA.AperFunction,ComponentPad*%
%ADD10C,4.250000*%
%TD*%
%TA.AperFunction,ComponentPad*%
%ADD11R,1.700000X1.700000*%
%TD*%
%TA.AperFunction,ComponentPad*%
%ADD12O,1.700000X1.700000*%
%TD*%
G04 APERTURE END LIST*
D10*
%TO.P,,*%
%TO.N,*%
X192500000Y-157000000D03*
%TD*%
%TO.P,,*%
%TO.N,*%
X192600000Y-123350000D03*
%TD*%
%TO.P,REF\u002A\u002A,*%
%TO.N,*%
X167200000Y-123350000D03*
%TD*%
%TO.P,,*%
%TO.N,*%
X167200000Y-157000000D03*
%TD*%
D11*
%TO.P,J52,1,Pin_1*%
%TO.N,unconnected-(J52-Pin_1-Pad1)*%
X190500000Y-64500000D03*
D12*
%TO.P,J52,2,Pin_2*%
%TO.N,unconnected-(J52-Pin_2-Pad2)*%
X190500000Y-61960000D03*
%TD*%
D11*
%TO.P,J50,1,Pin_1*%
%TO.N,unconnected-(J50-Pin_1-Pad1)*%
X190500000Y-109100000D03*
D12*
%TO.P,J50,2,Pin_2*%
%TO.N,unconnected-(J50-Pin_2-Pad2)*%
X190500000Y-106560000D03*
%TD*%
D11*
%TO.P,J51,1,Pin_1*%
%TO.N,unconnected-(J51-Pin_1-Pad1)*%
X182900000Y-64500000D03*
D12*
%TO.P,J51,2,Pin_2*%
%TO.N,unconnected-(J51-Pin_2-Pad2)*%
X182900000Y-61960000D03*
%TD*%
D11*
%TO.P,J49,1,Pin_1*%
%TO.N,unconnected-(J49-Pin_1-Pad1)*%
X182900000Y-109100000D03*
D12*
%TO.P,J49,2,Pin_2*%
%TO.N,unconnected-(J49-Pin_2-Pad2)*%
X182900000Y-106560000D03*
%TD*%
D11*
%TO.P,J52,1,Pin_1*%
%TO.N,unconnected-(J52-Pin_1-Pad1)*%
X176700000Y-64500000D03*
D12*
%TO.P,J52,2,Pin_2*%
%TO.N,unconnected-(J52-Pin_2-Pad2)*%
X176700000Y-61960000D03*
%TD*%
D11*
%TO.P,J50,1,Pin_1*%
%TO.N,unconnected-(J50-Pin_1-Pad1)*%
X176700000Y-109100000D03*
D12*
%TO.P,J50,2,Pin_2*%
%TO.N,unconnected-(J50-Pin_2-Pad2)*%
X176700000Y-106560000D03*
%TD*%
D11*
%TO.P,J49,1,Pin_1*%
%TO.N,unconnected-(J49-Pin_1-Pad1)*%
X169100000Y-109100000D03*
D12*
%TO.P,J49,2,Pin_2*%
%TO.N,unconnected-(J49-Pin_2-Pad2)*%
X169100000Y-106560000D03*
%TD*%
D11*
%TO.P,J51,1,Pin_1*%
%TO.N,unconnected-(J51-Pin_1-Pad1)*%
X169100000Y-64500000D03*
D12*
%TO.P,J51,2,Pin_2*%
%TO.N,unconnected-(J51-Pin_2-Pad2)*%
X169100000Y-61960000D03*
%TD*%
D11*
%TO.P,J50,1,Pin_1*%
%TO.N,unconnected-(J50-Pin_1-Pad1)*%
X162900000Y-109100000D03*
D12*
%TO.P,J50,2,Pin_2*%
%TO.N,unconnected-(J50-Pin_2-Pad2)*%
X162900000Y-106560000D03*
%TD*%
D11*
%TO.P,J52,1,Pin_1*%
%TO.N,unconnected-(J52-Pin_1-Pad1)*%
X162900000Y-64500000D03*
D12*
%TO.P,J52,2,Pin_2*%
%TO.N,unconnected-(J52-Pin_2-Pad2)*%
X162900000Y-61960000D03*
%TD*%
D11*
%TO.P,J49,1,Pin_1*%
%TO.N,unconnected-(J49-Pin_1-Pad1)*%
X155300000Y-109100000D03*
D12*
%TO.P,J49,2,Pin_2*%
%TO.N,unconnected-(J49-Pin_2-Pad2)*%
X155300000Y-106560000D03*
%TD*%
D11*
%TO.P,J51,1,Pin_1*%
%TO.N,unconnected-(J51-Pin_1-Pad1)*%
X155300000Y-64500000D03*
D12*
%TO.P,J51,2,Pin_2*%
%TO.N,unconnected-(J51-Pin_2-Pad2)*%
X155300000Y-61960000D03*
%TD*%
D11*
%TO.P,J52,1,Pin_1*%
%TO.N,unconnected-(J52-Pin_1-Pad1)*%
X146500000Y-152300000D03*
D12*
%TO.P,J52,2,Pin_2*%
%TO.N,unconnected-(J52-Pin_2-Pad2)*%
X149040000Y-152300000D03*
%TD*%
D11*
%TO.P,J50,1,Pin_1*%
%TO.N,unconnected-(J50-Pin_1-Pad1)*%
X101900000Y-152300000D03*
D12*
%TO.P,J50,2,Pin_2*%
%TO.N,unconnected-(J50-Pin_2-Pad2)*%
X104440000Y-152300000D03*
%TD*%
D11*
%TO.P,J49,1,Pin_1*%
%TO.N,unconnected-(J49-Pin_1-Pad1)*%
X101900000Y-144700000D03*
D12*
%TO.P,J49,2,Pin_2*%
%TO.N,unconnected-(J49-Pin_2-Pad2)*%
X104440000Y-144700000D03*
%TD*%
D11*
%TO.P,J51,1,Pin_1*%
%TO.N,unconnected-(J51-Pin_1-Pad1)*%
X146500000Y-144700000D03*
D12*
%TO.P,J51,2,Pin_2*%
%TO.N,unconnected-(J51-Pin_2-Pad2)*%
X149040000Y-144700000D03*
%TD*%
D11*
%TO.P,J52,1,Pin_1*%
%TO.N,unconnected-(J52-Pin_1-Pad1)*%
X146500000Y-138500000D03*
D12*
%TO.P,J52,2,Pin_2*%
%TO.N,unconnected-(J52-Pin_2-Pad2)*%
X149040000Y-138500000D03*
%TD*%
D11*
%TO.P,J50,1,Pin_1*%
%TO.N,unconnected-(J50-Pin_1-Pad1)*%
X101900000Y-138500000D03*
D12*
%TO.P,J50,2,Pin_2*%
%TO.N,unconnected-(J50-Pin_2-Pad2)*%
X104440000Y-138500000D03*
%TD*%
D11*
%TO.P,J49,1,Pin_1*%
%TO.N,unconnected-(J49-Pin_1-Pad1)*%
X101900000Y-130900000D03*
D12*
%TO.P,J49,2,Pin_2*%
%TO.N,unconnected-(J49-Pin_2-Pad2)*%
X104440000Y-130900000D03*
%TD*%
D11*
%TO.P,J51,1,Pin_1*%
%TO.N,unconnected-(J51-Pin_1-Pad1)*%
X146500000Y-130900000D03*
D12*
%TO.P,J51,2,Pin_2*%
%TO.N,unconnected-(J51-Pin_2-Pad2)*%
X149040000Y-130900000D03*
%TD*%
D11*
%TO.P,J52,1,Pin_1*%
%TO.N,unconnected-(J52-Pin_1-Pad1)*%
X146500000Y-124700000D03*
D12*
%TO.P,J52,2,Pin_2*%
%TO.N,unconnected-(J52-Pin_2-Pad2)*%
X149040000Y-124700000D03*
%TD*%
D11*
%TO.P,J50,1,Pin_1*%
%TO.N,unconnected-(J50-Pin_1-Pad1)*%
X101900000Y-124700000D03*
D12*
%TO.P,J50,2,Pin_2*%
%TO.N,unconnected-(J50-Pin_2-Pad2)*%
X104440000Y-124700000D03*
%TD*%
D11*
%TO.P,J49,1,Pin_1*%
%TO.N,unconnected-(J49-Pin_1-Pad1)*%
X101900000Y-117100000D03*
D12*
%TO.P,J49,2,Pin_2*%
%TO.N,unconnected-(J49-Pin_2-Pad2)*%
X104440000Y-117100000D03*
%TD*%
D11*
%TO.P,J51,1,Pin_1*%
%TO.N,unconnected-(J51-Pin_1-Pad1)*%
X146500000Y-117100000D03*
D12*
%TO.P,J51,2,Pin_2*%
%TO.N,unconnected-(J51-Pin_2-Pad2)*%
X149040000Y-117100000D03*
%TD*%
D11*
%TO.P,J52,1,Pin_1*%
%TO.N,unconnected-(J52-Pin_1-Pad1)*%
X146500000Y-110900000D03*
D12*
%TO.P,J52,2,Pin_2*%
%TO.N,unconnected-(J52-Pin_2-Pad2)*%
X149040000Y-110900000D03*
%TD*%
D11*
%TO.P,J50,1,Pin_1*%
%TO.N,unconnected-(J50-Pin_1-Pad1)*%
X101900000Y-110900000D03*
D12*
%TO.P,J50,2,Pin_2*%
%TO.N,unconnected-(J50-Pin_2-Pad2)*%
X104440000Y-110900000D03*
%TD*%
D11*
%TO.P,J49,1,Pin_1*%
%TO.N,unconnected-(J49-Pin_1-Pad1)*%
X101900000Y-103300000D03*
D12*
%TO.P,J49,2,Pin_2*%
%TO.N,unconnected-(J49-Pin_2-Pad2)*%
X104440000Y-103300000D03*
%TD*%
D11*
%TO.P,J51,1,Pin_1*%
%TO.N,unconnected-(J51-Pin_1-Pad1)*%
X146500000Y-103300000D03*
D12*
%TO.P,J51,2,Pin_2*%
%TO.N,unconnected-(J51-Pin_2-Pad2)*%
X149040000Y-103300000D03*
%TD*%
D11*
%TO.P,J52,1,Pin_1*%
%TO.N,unconnected-(J52-Pin_1-Pad1)*%
X146500000Y-97100000D03*
D12*
%TO.P,J52,2,Pin_2*%
%TO.N,unconnected-(J52-Pin_2-Pad2)*%
X149040000Y-97100000D03*
%TD*%
D11*
%TO.P,J50,1,Pin_1*%
%TO.N,unconnected-(J50-Pin_1-Pad1)*%
X101900000Y-97100000D03*
D12*
%TO.P,J50,2,Pin_2*%
%TO.N,unconnected-(J50-Pin_2-Pad2)*%
X104440000Y-97100000D03*
%TD*%
D11*
%TO.P,J49,1,Pin_1*%
%TO.N,unconnected-(J49-Pin_1-Pad1)*%
X101900000Y-89500000D03*
D12*
%TO.P,J49,2,Pin_2*%
%TO.N,unconnected-(J49-Pin_2-Pad2)*%
X104440000Y-89500000D03*
%TD*%
D11*
%TO.P,J51,1,Pin_1*%
%TO.N,unconnected-(J51-Pin_1-Pad1)*%
X146500000Y-89500000D03*
D12*
%TO.P,J51,2,Pin_2*%
%TO.N,unconnected-(J51-Pin_2-Pad2)*%
X149040000Y-89500000D03*
%TD*%
%TO.P,J52,2,Pin_2*%
%TO.N,unconnected-(J52-Pin_2-Pad2)*%
X149040000Y-69500000D03*
D11*
%TO.P,J52,1,Pin_1*%
%TO.N,unconnected-(J52-Pin_1-Pad1)*%
X146500000Y-69500000D03*
%TD*%
D12*
%TO.P,J50,2,Pin_2*%
%TO.N,unconnected-(J50-Pin_2-Pad2)*%
X104440000Y-69500000D03*
D11*
%TO.P,J50,1,Pin_1*%
%TO.N,unconnected-(J50-Pin_1-Pad1)*%
X101900000Y-69500000D03*
%TD*%
D12*
%TO.P,J49,2,Pin_2*%
%TO.N,unconnected-(J49-Pin_2-Pad2)*%
X104440000Y-61900000D03*
D11*
%TO.P,J49,1,Pin_1*%
%TO.N,unconnected-(J49-Pin_1-Pad1)*%
X101900000Y-61900000D03*
%TD*%
D12*
%TO.P,J51,2,Pin_2*%
%TO.N,unconnected-(J51-Pin_2-Pad2)*%
X149040000Y-61900000D03*
D11*
%TO.P,J51,1,Pin_1*%
%TO.N,unconnected-(J51-Pin_1-Pad1)*%
X146500000Y-61900000D03*
%TD*%
%TO.P,J52,1,Pin_1*%
%TO.N,unconnected-(J52-Pin_1-Pad1)*%
X146500000Y-83300000D03*
D12*
%TO.P,J52,2,Pin_2*%
%TO.N,unconnected-(J52-Pin_2-Pad2)*%
X149040000Y-83300000D03*
%TD*%
D11*
%TO.P,J49,1,Pin_1*%
%TO.N,unconnected-(J49-Pin_1-Pad1)*%
X101900000Y-75700000D03*
D12*
%TO.P,J49,2,Pin_2*%
%TO.N,unconnected-(J49-Pin_2-Pad2)*%
X104440000Y-75700000D03*
%TD*%
D11*
%TO.P,J50,1,Pin_1*%
%TO.N,unconnected-(J50-Pin_1-Pad1)*%
X101900000Y-83300000D03*
D12*
%TO.P,J50,2,Pin_2*%
%TO.N,unconnected-(J50-Pin_2-Pad2)*%
X104440000Y-83300000D03*
%TD*%
D11*
%TO.P,J51,1,Pin_1*%
%TO.N,unconnected-(J51-Pin_1-Pad1)*%
X146500000Y-75700000D03*
D12*
%TO.P,J51,2,Pin_2*%
%TO.N,unconnected-(J51-Pin_2-Pad2)*%
X149040000Y-75700000D03*
%TD*%
%TA.AperFunction,NonConductor*%
G36*
X148203735Y-74300726D02*
G01*
X148216574Y-74301502D01*
X148292405Y-74306089D01*
X148358133Y-74329785D01*
X148400617Y-74385255D01*
X148406367Y-74454888D01*
X148373558Y-74516575D01*
X148341217Y-74540346D01*
X148332180Y-74544950D01*
X148160215Y-74669889D01*
X148046673Y-74783431D01*
X147985350Y-74816915D01*
X147915658Y-74811931D01*
X147859725Y-74770059D01*
X147842810Y-74739082D01*
X147793797Y-74607671D01*
X147793793Y-74607664D01*
X147712305Y-74498811D01*
X147687887Y-74433347D01*
X147702738Y-74365074D01*
X147752143Y-74315668D01*
X147811571Y-74300500D01*
X148134108Y-74300500D01*
X148196249Y-74300500D01*
X148203735Y-74300726D01*
G37*
%TD.AperFunction*%
%TA.AperFunction,NonConductor*%
G36*
X103762484Y-74320185D02*
G01*
X103808239Y-74372989D01*
X103818183Y-74442147D01*
X103789158Y-74505703D01*
X103751739Y-74534985D01*
X103732182Y-74544949D01*
X103560215Y-74669889D01*
X103446673Y-74783431D01*
X103385350Y-74816915D01*
X103315658Y-74811931D01*
X103259725Y-74770059D01*
X103242810Y-74739082D01*
X103193797Y-74607671D01*
X103193793Y-74607664D01*
X103112305Y-74498811D01*
X103087887Y-74433347D01*
X103102738Y-74365074D01*
X103152143Y-74315668D01*
X103211571Y-74300500D01*
X103695445Y-74300500D01*
X103762484Y-74320185D01*
G37*
%TD.AperFunction*%
%TA.AperFunction,NonConductor*%
G36*
X147963578Y-84183488D02*
G01*
X148018418Y-84195417D01*
X148046673Y-84216569D01*
X148160213Y-84330109D01*
X148332181Y-84455050D01*
X148341210Y-84459650D01*
X148343058Y-84461395D01*
X148345536Y-84461963D01*
X148368318Y-84485251D01*
X148392007Y-84507623D01*
X148392618Y-84510090D01*
X148394396Y-84511908D01*
X148400972Y-84543821D01*
X148408804Y-84575444D01*
X148407984Y-84577850D01*
X148408497Y-84580339D01*
X148396778Y-84610735D01*
X148386268Y-84641579D01*
X148384277Y-84643159D01*
X148383363Y-84645532D01*
X148357063Y-84664772D01*
X148331554Y-84685032D01*
X148328391Y-84685749D01*
X148326973Y-84686787D01*
X148292406Y-84693910D01*
X148212299Y-84698756D01*
X148203735Y-84699274D01*
X148196249Y-84699500D01*
X147811571Y-84699500D01*
X147744532Y-84679815D01*
X147698777Y-84627011D01*
X147688833Y-84557853D01*
X147712305Y-84501189D01*
X147793793Y-84392335D01*
X147793792Y-84392335D01*
X147793796Y-84392331D01*
X147842811Y-84260914D01*
X147884682Y-84204983D01*
X147941652Y-84183734D01*
X147950145Y-84180566D01*
X147950146Y-84180566D01*
X147963578Y-84183488D01*
G37*
%TD.AperFunction*%
%TA.AperFunction,NonConductor*%
G36*
X103418418Y-84195417D02*
G01*
X103446673Y-84216569D01*
X103560213Y-84330109D01*
X103732182Y-84455050D01*
X103751739Y-84465015D01*
X103802536Y-84512989D01*
X103819331Y-84580810D01*
X103796794Y-84646945D01*
X103742079Y-84690397D01*
X103695445Y-84699500D01*
X103211571Y-84699500D01*
X103144532Y-84679815D01*
X103098777Y-84627011D01*
X103088833Y-84557853D01*
X103112305Y-84501189D01*
X103193793Y-84392335D01*
X103193792Y-84392335D01*
X103193796Y-84392331D01*
X103242810Y-84260916D01*
X103284681Y-84204984D01*
X103350145Y-84180566D01*
X103418418Y-84195417D01*
G37*
%TD.AperFunction*%
%TA.AperFunction,NonConductor*%
G36*
X126243334Y-73866994D02*
G01*
X126287681Y-73895495D01*
X126292686Y-73900500D01*
X126391521Y-73957563D01*
X126406810Y-73966390D01*
X126406814Y-73966392D01*
X126534108Y-74000500D01*
X126534110Y-74000500D01*
X126665890Y-74000500D01*
X126665892Y-74000500D01*
X126793186Y-73966392D01*
X126793190Y-73966390D01*
X126821255Y-73950186D01*
X126829798Y-73945253D01*
X126897697Y-73928780D01*
X126961648Y-73950185D01*
X127147366Y-74076805D01*
X127147371Y-74076807D01*
X127147372Y-74076808D01*
X127147373Y-74076809D01*
X127269328Y-74135538D01*
X127376992Y-74187387D01*
X127376993Y-74187387D01*
X127376996Y-74187389D01*
X127620542Y-74262513D01*
X127872565Y-74300500D01*
X127934108Y-74300500D01*
X145188429Y-74300500D01*
X145255468Y-74320185D01*
X145301223Y-74372989D01*
X145311167Y-74442147D01*
X145287695Y-74498811D01*
X145206206Y-74607664D01*
X145206202Y-74607671D01*
X145155908Y-74742517D01*
X145149501Y-74802116D01*
X145149500Y-74802135D01*
X145149500Y-76597870D01*
X145149501Y-76597876D01*
X145155908Y-76657483D01*
X145206202Y-76792328D01*
X145206206Y-76792335D01*
X145292452Y-76907544D01*
X145292455Y-76907547D01*
X145407664Y-76993793D01*
X145407671Y-76993797D01*
X145542517Y-77044091D01*
X145542516Y-77044091D01*
X145549444Y-77044835D01*
X145602127Y-77050500D01*
X147397872Y-77050499D01*
X147457483Y-77044091D01*
X147592331Y-76993796D01*
X147707546Y-76907546D01*
X147793796Y-76792331D01*
X147842810Y-76660916D01*
X147884681Y-76604984D01*
X147950145Y-76580566D01*
X148018418Y-76595417D01*
X148046673Y-76616569D01*
X148160213Y-76730109D01*
X148332179Y-76855048D01*
X148332181Y-76855049D01*
X148332184Y-76855051D01*
X148521588Y-76951557D01*
X148723757Y-77017246D01*
X148933713Y-77050500D01*
X148933714Y-77050500D01*
X149146286Y-77050500D01*
X149146287Y-77050500D01*
X149356243Y-77017246D01*
X149558412Y-76951557D01*
X149747816Y-76855051D01*
X149834138Y-76792335D01*
X149919786Y-76730109D01*
X149919788Y-76730106D01*
X149919792Y-76730104D01*
X150070104Y-76579792D01*
X150070106Y-76579788D01*
X150070109Y-76579786D01*
X150195048Y-76407820D01*
X150195047Y-76407820D01*
X150195051Y-76407816D01*
X150250040Y-76299892D01*
X150251784Y-76298045D01*
X150252352Y-76295569D01*
X150275636Y-76272790D01*
X150298014Y-76249097D01*
X150300481Y-76248485D01*
X150302297Y-76246710D01*
X150334197Y-76240136D01*
X150365835Y-76232302D01*
X150368240Y-76233121D01*
X150370729Y-76232609D01*
X150401126Y-76244328D01*
X150431970Y-76254839D01*
X150433550Y-76256829D01*
X150435921Y-76257743D01*
X150455158Y-76284038D01*
X150475422Y-76309554D01*
X150476138Y-76312715D01*
X150477176Y-76314133D01*
X150484299Y-76348701D01*
X150499274Y-76596263D01*
X150499500Y-76603750D01*
X150499500Y-77327440D01*
X150503753Y-77355653D01*
X150537487Y-77579458D01*
X150537488Y-77579460D01*
X150537489Y-77579466D01*
X150612612Y-77823007D01*
X150723190Y-78052626D01*
X150723195Y-78052634D01*
X150849813Y-78238349D01*
X150871313Y-78304828D01*
X150854747Y-78370198D01*
X150833610Y-78406809D01*
X150833608Y-78406814D01*
X150799500Y-78534108D01*
X150799500Y-78665891D01*
X150833608Y-78793187D01*
X150860174Y-78839199D01*
X150899500Y-78907314D01*
X150899502Y-78907316D01*
X150904505Y-78912319D01*
X150937990Y-78973642D01*
X150933006Y-79043334D01*
X150904505Y-79087681D01*
X150899502Y-79092683D01*
X150899500Y-79092686D01*
X150833608Y-79206812D01*
X150799500Y-79334108D01*
X150799500Y-79465891D01*
X150833608Y-79593187D01*
X150866554Y-79650250D01*
X150899500Y-79707314D01*
X150899502Y-79707316D01*
X150904505Y-79712319D01*
X150937990Y-79773642D01*
X150933006Y-79843334D01*
X150904505Y-79887681D01*
X150899502Y-79892683D01*
X150899500Y-79892686D01*
X150833608Y-80006812D01*
X150799500Y-80134108D01*
X150799500Y-80265891D01*
X150833608Y-80393185D01*
X150833608Y-80393186D01*
X150854747Y-80429800D01*
X150871218Y-80497700D01*
X150849813Y-80561650D01*
X150723195Y-80747365D01*
X150723190Y-80747373D01*
X150612612Y-80976992D01*
X150537489Y-81220533D01*
X150537488Y-81220538D01*
X150537487Y-81220542D01*
X150526038Y-81296498D01*
X150499500Y-81472559D01*
X150499500Y-82396249D01*
X150499274Y-82403736D01*
X150484299Y-82651298D01*
X150460602Y-82717027D01*
X150405132Y-82759510D01*
X150335499Y-82765259D01*
X150273812Y-82732450D01*
X150250040Y-82700106D01*
X150225171Y-82651298D01*
X150195051Y-82592184D01*
X150181093Y-82572972D01*
X150070109Y-82420213D01*
X149919786Y-82269890D01*
X149747820Y-82144951D01*
X149558414Y-82048444D01*
X149558413Y-82048443D01*
X149558412Y-82048443D01*
X149356243Y-81982754D01*
X149356241Y-81982753D01*
X149356240Y-81982753D01*
X149194957Y-81957208D01*
X149146287Y-81949500D01*
X148933713Y-81949500D01*
X148885042Y-81957208D01*
X148723760Y-81982753D01*
X148521585Y-82048444D01*
X148332179Y-82144951D01*
X148160215Y-82269889D01*
X148046673Y-82383431D01*
X147985350Y-82416915D01*
X147915658Y-82411931D01*
X147859725Y-82370059D01*
X147842810Y-82339082D01*
X147793797Y-82207671D01*
X147793793Y-82207664D01*
X147707547Y-82092455D01*
X147707544Y-82092452D01*
X147592335Y-82006206D01*
X147592328Y-82006202D01*
X147457482Y-81955908D01*
X147457483Y-81955908D01*
X147397883Y-81949501D01*
X147397881Y-81949500D01*
X147397873Y-81949500D01*
X147397864Y-81949500D01*
X145602129Y-81949500D01*
X145602123Y-81949501D01*
X145542516Y-81955908D01*
X145407671Y-82006202D01*
X145407664Y-82006206D01*
X145292455Y-82092452D01*
X145292452Y-82092455D01*
X145206206Y-82207664D01*
X145206202Y-82207671D01*
X145155908Y-82342517D01*
X145149501Y-82402116D01*
X145149500Y-82402135D01*
X145149500Y-84197870D01*
X145149501Y-84197876D01*
X145155908Y-84257483D01*
X145206202Y-84392328D01*
X145206206Y-84392335D01*
X145287695Y-84501189D01*
X145312113Y-84566653D01*
X145297262Y-84634926D01*
X145247857Y-84684332D01*
X145188429Y-84699500D01*
X127872559Y-84699500D01*
X127715609Y-84723157D01*
X127620542Y-84737487D01*
X127620539Y-84737488D01*
X127620533Y-84737489D01*
X127376992Y-84812612D01*
X127147373Y-84923190D01*
X127147365Y-84923195D01*
X126961650Y-85049813D01*
X126895171Y-85071313D01*
X126829800Y-85054747D01*
X126793186Y-85033608D01*
X126665892Y-84999500D01*
X126534108Y-84999500D01*
X126406812Y-85033608D01*
X126292686Y-85099500D01*
X126292683Y-85099502D01*
X126287681Y-85104505D01*
X126226358Y-85137990D01*
X126156666Y-85133006D01*
X126112319Y-85104505D01*
X126107316Y-85099502D01*
X126107314Y-85099500D01*
X126021254Y-85049813D01*
X125993187Y-85033608D01*
X125929539Y-85016554D01*
X125865892Y-84999500D01*
X125734108Y-84999500D01*
X125606812Y-85033608D01*
X125492686Y-85099500D01*
X125492683Y-85099502D01*
X125487681Y-85104505D01*
X125426358Y-85137990D01*
X125356666Y-85133006D01*
X125312319Y-85104505D01*
X125307316Y-85099502D01*
X125307314Y-85099500D01*
X125221254Y-85049813D01*
X125193187Y-85033608D01*
X125129539Y-85016554D01*
X125065892Y-84999500D01*
X124934108Y-84999500D01*
X124806814Y-85033608D01*
X124806809Y-85033610D01*
X124770198Y-85054747D01*
X124702298Y-85071218D01*
X124638349Y-85049813D01*
X124452634Y-84923195D01*
X124452626Y-84923190D01*
X124223006Y-84812612D01*
X124223008Y-84812612D01*
X123979466Y-84737489D01*
X123979462Y-84737488D01*
X123979458Y-84737487D01*
X123858231Y-84719214D01*
X123727440Y-84699500D01*
X123727435Y-84699500D01*
X123665892Y-84699500D01*
X105184555Y-84699500D01*
X105117516Y-84679815D01*
X105071761Y-84627011D01*
X105061817Y-84557853D01*
X105090842Y-84494297D01*
X105128261Y-84465015D01*
X105138790Y-84459650D01*
X105147816Y-84455051D01*
X105234138Y-84392335D01*
X105319786Y-84330109D01*
X105319788Y-84330106D01*
X105319792Y-84330104D01*
X105470104Y-84179792D01*
X105470106Y-84179788D01*
X105470109Y-84179786D01*
X105595048Y-84007820D01*
X105595047Y-84007820D01*
X105595051Y-84007816D01*
X105691557Y-83818412D01*
X105757246Y-83616243D01*
X105790500Y-83406287D01*
X105790500Y-83193713D01*
X105757246Y-82983757D01*
X105691557Y-82781588D01*
X105595051Y-82592184D01*
X105595049Y-82592181D01*
X105595048Y-82592179D01*
X105470109Y-82420213D01*
X105319786Y-82269890D01*
X105147820Y-82144951D01*
X104958414Y-82048444D01*
X104958413Y-82048443D01*
X104958412Y-82048443D01*
X104756243Y-81982754D01*
X104756241Y-81982753D01*
X104756240Y-81982753D01*
X104594957Y-81957208D01*
X104546287Y-81949500D01*
X104333713Y-81949500D01*
X104285042Y-81957208D01*
X104123760Y-81982753D01*
X103921585Y-82048444D01*
X103732179Y-82144951D01*
X103560215Y-82269889D01*
X103446673Y-82383431D01*
X103385350Y-82416915D01*
X103315658Y-82411931D01*
X103259725Y-82370059D01*
X103242810Y-82339082D01*
X103193797Y-82207671D01*
X103193793Y-82207664D01*
X103107547Y-82092455D01*
X103107544Y-82092452D01*
X102992335Y-82006206D01*
X102992328Y-82006202D01*
X102857482Y-81955908D01*
X102857483Y-81955908D01*
X102797883Y-81949501D01*
X102797881Y-81949500D01*
X102797873Y-81949500D01*
X102797864Y-81949500D01*
X101002129Y-81949500D01*
X101002123Y-81949501D01*
X100942516Y-81955908D01*
X100807671Y-82006202D01*
X100807669Y-82006204D01*
X100698811Y-82087695D01*
X100633347Y-82112112D01*
X100565074Y-82097260D01*
X100515668Y-82047855D01*
X100500500Y-81988428D01*
X100500500Y-77011571D01*
X100520185Y-76944532D01*
X100572989Y-76898777D01*
X100642147Y-76888833D01*
X100698811Y-76912305D01*
X100807664Y-76993793D01*
X100807671Y-76993797D01*
X100942517Y-77044091D01*
X100942516Y-77044091D01*
X100949444Y-77044835D01*
X101002127Y-77050500D01*
X102797872Y-77050499D01*
X102857483Y-77044091D01*
X102992331Y-76993796D01*
X103107546Y-76907546D01*
X103193796Y-76792331D01*
X103242810Y-76660916D01*
X103284681Y-76604984D01*
X103350145Y-76580566D01*
X103418418Y-76595417D01*
X103446673Y-76616569D01*
X103560213Y-76730109D01*
X103732179Y-76855048D01*
X103732181Y-76855049D01*
X103732184Y-76855051D01*
X103921588Y-76951557D01*
X104123757Y-77017246D01*
X104333713Y-77050500D01*
X104333714Y-77050500D01*
X104546286Y-77050500D01*
X104546287Y-77050500D01*
X104756243Y-77017246D01*
X104958412Y-76951557D01*
X105147816Y-76855051D01*
X105234138Y-76792335D01*
X105319786Y-76730109D01*
X105319788Y-76730106D01*
X105319792Y-76730104D01*
X105470104Y-76579792D01*
X105470106Y-76579788D01*
X105470109Y-76579786D01*
X105595048Y-76407820D01*
X105595047Y-76407820D01*
X105595051Y-76407816D01*
X105691557Y-76218412D01*
X105757246Y-76016243D01*
X105790500Y-75806287D01*
X105790500Y-75593713D01*
X105757246Y-75383757D01*
X105691557Y-75181588D01*
X105595051Y-74992184D01*
X105595049Y-74992181D01*
X105595048Y-74992179D01*
X105470109Y-74820213D01*
X105319786Y-74669890D01*
X105147817Y-74544949D01*
X105128261Y-74534985D01*
X105077464Y-74487011D01*
X105060669Y-74419190D01*
X105083206Y-74353055D01*
X105137921Y-74309603D01*
X105184555Y-74300500D01*
X123727435Y-74300500D01*
X123979458Y-74262513D01*
X124223004Y-74187389D01*
X124452634Y-74076805D01*
X124638351Y-73950184D01*
X124704827Y-73928686D01*
X124770200Y-73945253D01*
X124806814Y-73966392D01*
X124934108Y-74000500D01*
X124934110Y-74000500D01*
X125065890Y-74000500D01*
X125065892Y-74000500D01*
X125193186Y-73966392D01*
X125307314Y-73900500D01*
X125312319Y-73895495D01*
X125373642Y-73862010D01*
X125443334Y-73866994D01*
X125487681Y-73895495D01*
X125492686Y-73900500D01*
X125591521Y-73957563D01*
X125606810Y-73966390D01*
X125606814Y-73966392D01*
X125734108Y-74000500D01*
X125734110Y-74000500D01*
X125865890Y-74000500D01*
X125865892Y-74000500D01*
X125993186Y-73966392D01*
X126107314Y-73900500D01*
X126112319Y-73895495D01*
X126173642Y-73862010D01*
X126243334Y-73866994D01*
G37*
%TD.AperFunction*%
%TA.AperFunction,NonConductor*%
G36*
X148203735Y-60500726D02*
G01*
X148216574Y-60501502D01*
X148292405Y-60506089D01*
X148358133Y-60529785D01*
X148400617Y-60585255D01*
X148406367Y-60654888D01*
X148373558Y-60716575D01*
X148341217Y-60740346D01*
X148332180Y-60744950D01*
X148160215Y-60869889D01*
X148046673Y-60983431D01*
X147985350Y-61016915D01*
X147915658Y-61011931D01*
X147859725Y-60970059D01*
X147842810Y-60939082D01*
X147793797Y-60807671D01*
X147793793Y-60807664D01*
X147712305Y-60698811D01*
X147687887Y-60633347D01*
X147702738Y-60565074D01*
X147752143Y-60515668D01*
X147811571Y-60500500D01*
X148134108Y-60500500D01*
X148196249Y-60500500D01*
X148203735Y-60500726D01*
G37*
%TD.AperFunction*%
%TA.AperFunction,NonConductor*%
G36*
X103762484Y-60520185D02*
G01*
X103808239Y-60572989D01*
X103818183Y-60642147D01*
X103789158Y-60705703D01*
X103751739Y-60734985D01*
X103732182Y-60744949D01*
X103560215Y-60869889D01*
X103446673Y-60983431D01*
X103385350Y-61016915D01*
X103315658Y-61011931D01*
X103259725Y-60970059D01*
X103242810Y-60939082D01*
X103193797Y-60807671D01*
X103193793Y-60807664D01*
X103112305Y-60698811D01*
X103087887Y-60633347D01*
X103102738Y-60565074D01*
X103152143Y-60515668D01*
X103211571Y-60500500D01*
X103695445Y-60500500D01*
X103762484Y-60520185D01*
G37*
%TD.AperFunction*%
%TA.AperFunction,NonConductor*%
G36*
X147963578Y-70383488D02*
G01*
X148018418Y-70395417D01*
X148046673Y-70416569D01*
X148160213Y-70530109D01*
X148332181Y-70655050D01*
X148341210Y-70659650D01*
X148343058Y-70661395D01*
X148345536Y-70661963D01*
X148368318Y-70685251D01*
X148392007Y-70707623D01*
X148392618Y-70710090D01*
X148394396Y-70711908D01*
X148400972Y-70743821D01*
X148408804Y-70775444D01*
X148407984Y-70777850D01*
X148408497Y-70780339D01*
X148396778Y-70810735D01*
X148386268Y-70841579D01*
X148384277Y-70843159D01*
X148383363Y-70845532D01*
X148357063Y-70864772D01*
X148331554Y-70885032D01*
X148328391Y-70885749D01*
X148326973Y-70886787D01*
X148292406Y-70893910D01*
X148212299Y-70898756D01*
X148203735Y-70899274D01*
X148196249Y-70899500D01*
X147811571Y-70899500D01*
X147744532Y-70879815D01*
X147698777Y-70827011D01*
X147688833Y-70757853D01*
X147712305Y-70701189D01*
X147793793Y-70592335D01*
X147793792Y-70592335D01*
X147793796Y-70592331D01*
X147842811Y-70460914D01*
X147884682Y-70404983D01*
X147941652Y-70383734D01*
X147950145Y-70380566D01*
X147950146Y-70380566D01*
X147963578Y-70383488D01*
G37*
%TD.AperFunction*%
%TA.AperFunction,NonConductor*%
G36*
X103418418Y-70395417D02*
G01*
X103446673Y-70416569D01*
X103560213Y-70530109D01*
X103732182Y-70655050D01*
X103751739Y-70665015D01*
X103802536Y-70712989D01*
X103819331Y-70780810D01*
X103796794Y-70846945D01*
X103742079Y-70890397D01*
X103695445Y-70899500D01*
X103211571Y-70899500D01*
X103144532Y-70879815D01*
X103098777Y-70827011D01*
X103088833Y-70757853D01*
X103112305Y-70701189D01*
X103193793Y-70592335D01*
X103193792Y-70592335D01*
X103193796Y-70592331D01*
X103242810Y-70460916D01*
X103284681Y-70404984D01*
X103350145Y-70380566D01*
X103418418Y-70395417D01*
G37*
%TD.AperFunction*%
%TA.AperFunction,NonConductor*%
G36*
X145255468Y-60520185D02*
G01*
X145301223Y-60572989D01*
X145311167Y-60642147D01*
X145287695Y-60698811D01*
X145206206Y-60807664D01*
X145206202Y-60807671D01*
X145155908Y-60942517D01*
X145149501Y-61002116D01*
X145149500Y-61002135D01*
X145149500Y-62797870D01*
X145149501Y-62797876D01*
X145155908Y-62857483D01*
X145206202Y-62992328D01*
X145206206Y-62992335D01*
X145292452Y-63107544D01*
X145292455Y-63107547D01*
X145407664Y-63193793D01*
X145407671Y-63193797D01*
X145542517Y-63244091D01*
X145542516Y-63244091D01*
X145549444Y-63244835D01*
X145602127Y-63250500D01*
X147397872Y-63250499D01*
X147457483Y-63244091D01*
X147592331Y-63193796D01*
X147707546Y-63107546D01*
X147793796Y-62992331D01*
X147842810Y-62860916D01*
X147884681Y-62804984D01*
X147950145Y-62780566D01*
X148018418Y-62795417D01*
X148046673Y-62816569D01*
X148160213Y-62930109D01*
X148332179Y-63055048D01*
X148332181Y-63055049D01*
X148332184Y-63055051D01*
X148521588Y-63151557D01*
X148723757Y-63217246D01*
X148933713Y-63250500D01*
X148933714Y-63250500D01*
X149146286Y-63250500D01*
X149146287Y-63250500D01*
X149356243Y-63217246D01*
X149558412Y-63151557D01*
X149747816Y-63055051D01*
X149834138Y-62992335D01*
X149919786Y-62930109D01*
X149919788Y-62930106D01*
X149919792Y-62930104D01*
X150070104Y-62779792D01*
X150070106Y-62779788D01*
X150070109Y-62779786D01*
X150195048Y-62607820D01*
X150195047Y-62607820D01*
X150195051Y-62607816D01*
X150250040Y-62499892D01*
X150251784Y-62498045D01*
X150252352Y-62495569D01*
X150275636Y-62472790D01*
X150298014Y-62449097D01*
X150300481Y-62448485D01*
X150302297Y-62446710D01*
X150334197Y-62440136D01*
X150365835Y-62432302D01*
X150368240Y-62433121D01*
X150370729Y-62432609D01*
X150401126Y-62444328D01*
X150431970Y-62454839D01*
X150433550Y-62456829D01*
X150435921Y-62457743D01*
X150455158Y-62484038D01*
X150475422Y-62509554D01*
X150476138Y-62512715D01*
X150477176Y-62514133D01*
X150484299Y-62548701D01*
X150499274Y-62796263D01*
X150499500Y-62803750D01*
X150499500Y-63527440D01*
X150503753Y-63555653D01*
X150537487Y-63779458D01*
X150537488Y-63779460D01*
X150537489Y-63779466D01*
X150612612Y-64023007D01*
X150723190Y-64252626D01*
X150723195Y-64252634D01*
X150849813Y-64438349D01*
X150871313Y-64504828D01*
X150854747Y-64570198D01*
X150833610Y-64606809D01*
X150833608Y-64606814D01*
X150799500Y-64734108D01*
X150799500Y-64865891D01*
X150833608Y-64993187D01*
X150860174Y-65039199D01*
X150899500Y-65107314D01*
X150899502Y-65107316D01*
X150904505Y-65112319D01*
X150937990Y-65173642D01*
X150933006Y-65243334D01*
X150904505Y-65287681D01*
X150899502Y-65292683D01*
X150899500Y-65292686D01*
X150833608Y-65406812D01*
X150799500Y-65534108D01*
X150799500Y-65665891D01*
X150833608Y-65793187D01*
X150866554Y-65850250D01*
X150899500Y-65907314D01*
X150899502Y-65907316D01*
X150904505Y-65912319D01*
X150937990Y-65973642D01*
X150933006Y-66043334D01*
X150904505Y-66087681D01*
X150899502Y-66092683D01*
X150899500Y-66092686D01*
X150833608Y-66206812D01*
X150799500Y-66334108D01*
X150799500Y-66465891D01*
X150833608Y-66593185D01*
X150833608Y-66593186D01*
X150854747Y-66629800D01*
X150871218Y-66697700D01*
X150849813Y-66761650D01*
X150723195Y-66947365D01*
X150723190Y-66947373D01*
X150612612Y-67176992D01*
X150537489Y-67420533D01*
X150537488Y-67420538D01*
X150537487Y-67420542D01*
X150526038Y-67496498D01*
X150499500Y-67672559D01*
X150499500Y-68596249D01*
X150499274Y-68603736D01*
X150484299Y-68851298D01*
X150460602Y-68917027D01*
X150405132Y-68959510D01*
X150335499Y-68965259D01*
X150273812Y-68932450D01*
X150250040Y-68900106D01*
X150225171Y-68851298D01*
X150195051Y-68792184D01*
X150181093Y-68772972D01*
X150070109Y-68620213D01*
X149919786Y-68469890D01*
X149747820Y-68344951D01*
X149558414Y-68248444D01*
X149558413Y-68248443D01*
X149558412Y-68248443D01*
X149356243Y-68182754D01*
X149356241Y-68182753D01*
X149356240Y-68182753D01*
X149194957Y-68157208D01*
X149146287Y-68149500D01*
X148933713Y-68149500D01*
X148885042Y-68157208D01*
X148723760Y-68182753D01*
X148521585Y-68248444D01*
X148332179Y-68344951D01*
X148160215Y-68469889D01*
X148046673Y-68583431D01*
X147985350Y-68616915D01*
X147915658Y-68611931D01*
X147859725Y-68570059D01*
X147842810Y-68539082D01*
X147793797Y-68407671D01*
X147793793Y-68407664D01*
X147707547Y-68292455D01*
X147707544Y-68292452D01*
X147592335Y-68206206D01*
X147592328Y-68206202D01*
X147457482Y-68155908D01*
X147457483Y-68155908D01*
X147397883Y-68149501D01*
X147397881Y-68149500D01*
X147397873Y-68149500D01*
X147397864Y-68149500D01*
X145602129Y-68149500D01*
X145602123Y-68149501D01*
X145542516Y-68155908D01*
X145407671Y-68206202D01*
X145407664Y-68206206D01*
X145292455Y-68292452D01*
X145292452Y-68292455D01*
X145206206Y-68407664D01*
X145206202Y-68407671D01*
X145155908Y-68542517D01*
X145149501Y-68602116D01*
X145149500Y-68602135D01*
X145149500Y-70397870D01*
X145149501Y-70397876D01*
X145155908Y-70457483D01*
X145206202Y-70592328D01*
X145206206Y-70592335D01*
X145287695Y-70701189D01*
X145312113Y-70766653D01*
X145297262Y-70834926D01*
X145247857Y-70884332D01*
X145188429Y-70899500D01*
X127872559Y-70899500D01*
X127715609Y-70923157D01*
X127620542Y-70937487D01*
X127620539Y-70937488D01*
X127620533Y-70937489D01*
X127376992Y-71012612D01*
X127147373Y-71123190D01*
X127147365Y-71123195D01*
X126961650Y-71249813D01*
X126895171Y-71271313D01*
X126829800Y-71254747D01*
X126793186Y-71233608D01*
X126665892Y-71199500D01*
X126534108Y-71199500D01*
X126406812Y-71233608D01*
X126292686Y-71299500D01*
X126292683Y-71299502D01*
X126287681Y-71304505D01*
X126226358Y-71337990D01*
X126156666Y-71333006D01*
X126112319Y-71304505D01*
X126107316Y-71299502D01*
X126107314Y-71299500D01*
X126021254Y-71249813D01*
X125993187Y-71233608D01*
X125929539Y-71216554D01*
X125865892Y-71199500D01*
X125734108Y-71199500D01*
X125606812Y-71233608D01*
X125492686Y-71299500D01*
X125492683Y-71299502D01*
X125487681Y-71304505D01*
X125426358Y-71337990D01*
X125356666Y-71333006D01*
X125312319Y-71304505D01*
X125307316Y-71299502D01*
X125307314Y-71299500D01*
X125221254Y-71249813D01*
X125193187Y-71233608D01*
X125129539Y-71216554D01*
X125065892Y-71199500D01*
X124934108Y-71199500D01*
X124806814Y-71233608D01*
X124806809Y-71233610D01*
X124770198Y-71254747D01*
X124702298Y-71271218D01*
X124638349Y-71249813D01*
X124452634Y-71123195D01*
X124452626Y-71123190D01*
X124223006Y-71012612D01*
X124223008Y-71012612D01*
X123979466Y-70937489D01*
X123979462Y-70937488D01*
X123979458Y-70937487D01*
X123858231Y-70919214D01*
X123727440Y-70899500D01*
X123727435Y-70899500D01*
X123665892Y-70899500D01*
X105184555Y-70899500D01*
X105117516Y-70879815D01*
X105071761Y-70827011D01*
X105061817Y-70757853D01*
X105090842Y-70694297D01*
X105128261Y-70665015D01*
X105138790Y-70659650D01*
X105147816Y-70655051D01*
X105234138Y-70592335D01*
X105319786Y-70530109D01*
X105319788Y-70530106D01*
X105319792Y-70530104D01*
X105470104Y-70379792D01*
X105470106Y-70379788D01*
X105470109Y-70379786D01*
X105595048Y-70207820D01*
X105595047Y-70207820D01*
X105595051Y-70207816D01*
X105691557Y-70018412D01*
X105757246Y-69816243D01*
X105790500Y-69606287D01*
X105790500Y-69393713D01*
X105757246Y-69183757D01*
X105691557Y-68981588D01*
X105595051Y-68792184D01*
X105595049Y-68792181D01*
X105595048Y-68792179D01*
X105470109Y-68620213D01*
X105319786Y-68469890D01*
X105147820Y-68344951D01*
X104958414Y-68248444D01*
X104958413Y-68248443D01*
X104958412Y-68248443D01*
X104756243Y-68182754D01*
X104756241Y-68182753D01*
X104756240Y-68182753D01*
X104594957Y-68157208D01*
X104546287Y-68149500D01*
X104333713Y-68149500D01*
X104285042Y-68157208D01*
X104123760Y-68182753D01*
X103921585Y-68248444D01*
X103732179Y-68344951D01*
X103560215Y-68469889D01*
X103446673Y-68583431D01*
X103385350Y-68616915D01*
X103315658Y-68611931D01*
X103259725Y-68570059D01*
X103242810Y-68539082D01*
X103193797Y-68407671D01*
X103193793Y-68407664D01*
X103107547Y-68292455D01*
X103107544Y-68292452D01*
X102992335Y-68206206D01*
X102992328Y-68206202D01*
X102857482Y-68155908D01*
X102857483Y-68155908D01*
X102797883Y-68149501D01*
X102797881Y-68149500D01*
X102797873Y-68149500D01*
X102797864Y-68149500D01*
X101002129Y-68149500D01*
X101002123Y-68149501D01*
X100942516Y-68155908D01*
X100807671Y-68206202D01*
X100807669Y-68206204D01*
X100698811Y-68287695D01*
X100633347Y-68312112D01*
X100565074Y-68297260D01*
X100515668Y-68247855D01*
X100500500Y-68188428D01*
X100500500Y-63211571D01*
X100520185Y-63144532D01*
X100572989Y-63098777D01*
X100642147Y-63088833D01*
X100698811Y-63112305D01*
X100807664Y-63193793D01*
X100807671Y-63193797D01*
X100942517Y-63244091D01*
X100942516Y-63244091D01*
X100949444Y-63244835D01*
X101002127Y-63250500D01*
X102797872Y-63250499D01*
X102857483Y-63244091D01*
X102992331Y-63193796D01*
X103107546Y-63107546D01*
X103193796Y-62992331D01*
X103242810Y-62860916D01*
X103284681Y-62804984D01*
X103350145Y-62780566D01*
X103418418Y-62795417D01*
X103446673Y-62816569D01*
X103560213Y-62930109D01*
X103732179Y-63055048D01*
X103732181Y-63055049D01*
X103732184Y-63055051D01*
X103921588Y-63151557D01*
X104123757Y-63217246D01*
X104333713Y-63250500D01*
X104333714Y-63250500D01*
X104546286Y-63250500D01*
X104546287Y-63250500D01*
X104756243Y-63217246D01*
X104958412Y-63151557D01*
X105147816Y-63055051D01*
X105234138Y-62992335D01*
X105319786Y-62930109D01*
X105319788Y-62930106D01*
X105319792Y-62930104D01*
X105470104Y-62779792D01*
X105470106Y-62779788D01*
X105470109Y-62779786D01*
X105595048Y-62607820D01*
X105595047Y-62607820D01*
X105595051Y-62607816D01*
X105691557Y-62418412D01*
X105757246Y-62216243D01*
X105790500Y-62006287D01*
X105790500Y-61793713D01*
X105757246Y-61583757D01*
X105691557Y-61381588D01*
X105595051Y-61192184D01*
X105595049Y-61192181D01*
X105595048Y-61192179D01*
X105470109Y-61020213D01*
X105319786Y-60869890D01*
X105147817Y-60744949D01*
X105128261Y-60734985D01*
X105077464Y-60687011D01*
X105060669Y-60619190D01*
X105083206Y-60553055D01*
X105137921Y-60509603D01*
X105184555Y-60500500D01*
X145188429Y-60500500D01*
X145255468Y-60520185D01*
G37*
%TD.AperFunction*%
%TA.AperFunction,NonConductor*%
G36*
X148203735Y-88100726D02*
G01*
X148216574Y-88101502D01*
X148292405Y-88106089D01*
X148358133Y-88129785D01*
X148400617Y-88185255D01*
X148406367Y-88254888D01*
X148373558Y-88316575D01*
X148341217Y-88340346D01*
X148332180Y-88344950D01*
X148160215Y-88469889D01*
X148046673Y-88583431D01*
X147985350Y-88616915D01*
X147915658Y-88611931D01*
X147859725Y-88570059D01*
X147842810Y-88539082D01*
X147793797Y-88407671D01*
X147793793Y-88407664D01*
X147712305Y-88298811D01*
X147687887Y-88233347D01*
X147702738Y-88165074D01*
X147752143Y-88115668D01*
X147811571Y-88100500D01*
X148134108Y-88100500D01*
X148196249Y-88100500D01*
X148203735Y-88100726D01*
G37*
%TD.AperFunction*%
%TA.AperFunction,NonConductor*%
G36*
X103762484Y-88120185D02*
G01*
X103808239Y-88172989D01*
X103818183Y-88242147D01*
X103789158Y-88305703D01*
X103751739Y-88334985D01*
X103732182Y-88344949D01*
X103560215Y-88469889D01*
X103446673Y-88583431D01*
X103385350Y-88616915D01*
X103315658Y-88611931D01*
X103259725Y-88570059D01*
X103242810Y-88539082D01*
X103193797Y-88407671D01*
X103193793Y-88407664D01*
X103112305Y-88298811D01*
X103087887Y-88233347D01*
X103102738Y-88165074D01*
X103152143Y-88115668D01*
X103211571Y-88100500D01*
X103695445Y-88100500D01*
X103762484Y-88120185D01*
G37*
%TD.AperFunction*%
%TA.AperFunction,NonConductor*%
G36*
X147963578Y-97983488D02*
G01*
X148018418Y-97995417D01*
X148046673Y-98016569D01*
X148160213Y-98130109D01*
X148332181Y-98255050D01*
X148341210Y-98259650D01*
X148343058Y-98261395D01*
X148345536Y-98261963D01*
X148368318Y-98285251D01*
X148392007Y-98307623D01*
X148392618Y-98310090D01*
X148394396Y-98311908D01*
X148400972Y-98343821D01*
X148408804Y-98375444D01*
X148407984Y-98377850D01*
X148408497Y-98380339D01*
X148396778Y-98410735D01*
X148386268Y-98441579D01*
X148384277Y-98443159D01*
X148383363Y-98445532D01*
X148357063Y-98464772D01*
X148331554Y-98485032D01*
X148328391Y-98485749D01*
X148326973Y-98486787D01*
X148292406Y-98493910D01*
X148212299Y-98498756D01*
X148203735Y-98499274D01*
X148196249Y-98499500D01*
X147811571Y-98499500D01*
X147744532Y-98479815D01*
X147698777Y-98427011D01*
X147688833Y-98357853D01*
X147712305Y-98301189D01*
X147793793Y-98192335D01*
X147793792Y-98192335D01*
X147793796Y-98192331D01*
X147842811Y-98060914D01*
X147884682Y-98004983D01*
X147941652Y-97983734D01*
X147950145Y-97980566D01*
X147950146Y-97980566D01*
X147963578Y-97983488D01*
G37*
%TD.AperFunction*%
%TA.AperFunction,NonConductor*%
G36*
X103418418Y-97995417D02*
G01*
X103446673Y-98016569D01*
X103560213Y-98130109D01*
X103732182Y-98255050D01*
X103751739Y-98265015D01*
X103802536Y-98312989D01*
X103819331Y-98380810D01*
X103796794Y-98446945D01*
X103742079Y-98490397D01*
X103695445Y-98499500D01*
X103211571Y-98499500D01*
X103144532Y-98479815D01*
X103098777Y-98427011D01*
X103088833Y-98357853D01*
X103112305Y-98301189D01*
X103193793Y-98192335D01*
X103193792Y-98192335D01*
X103193796Y-98192331D01*
X103242810Y-98060916D01*
X103284681Y-98004984D01*
X103350145Y-97980566D01*
X103418418Y-97995417D01*
G37*
%TD.AperFunction*%
%TA.AperFunction,NonConductor*%
G36*
X126243334Y-87666994D02*
G01*
X126287681Y-87695495D01*
X126292686Y-87700500D01*
X126391521Y-87757563D01*
X126406810Y-87766390D01*
X126406814Y-87766392D01*
X126534108Y-87800500D01*
X126534110Y-87800500D01*
X126665890Y-87800500D01*
X126665892Y-87800500D01*
X126793186Y-87766392D01*
X126793190Y-87766390D01*
X126821255Y-87750186D01*
X126829798Y-87745253D01*
X126897697Y-87728780D01*
X126961648Y-87750185D01*
X127147366Y-87876805D01*
X127147371Y-87876807D01*
X127147372Y-87876808D01*
X127147373Y-87876809D01*
X127269328Y-87935538D01*
X127376992Y-87987387D01*
X127376993Y-87987387D01*
X127376996Y-87987389D01*
X127620542Y-88062513D01*
X127872565Y-88100500D01*
X127934108Y-88100500D01*
X145188429Y-88100500D01*
X145255468Y-88120185D01*
X145301223Y-88172989D01*
X145311167Y-88242147D01*
X145287695Y-88298811D01*
X145206206Y-88407664D01*
X145206202Y-88407671D01*
X145155908Y-88542517D01*
X145149501Y-88602116D01*
X145149500Y-88602135D01*
X145149500Y-90397870D01*
X145149501Y-90397876D01*
X145155908Y-90457483D01*
X145206202Y-90592328D01*
X145206206Y-90592335D01*
X145292452Y-90707544D01*
X145292455Y-90707547D01*
X145407664Y-90793793D01*
X145407671Y-90793797D01*
X145542517Y-90844091D01*
X145542516Y-90844091D01*
X145549444Y-90844835D01*
X145602127Y-90850500D01*
X147397872Y-90850499D01*
X147457483Y-90844091D01*
X147592331Y-90793796D01*
X147707546Y-90707546D01*
X147793796Y-90592331D01*
X147842810Y-90460916D01*
X147884681Y-90404984D01*
X147950145Y-90380566D01*
X148018418Y-90395417D01*
X148046673Y-90416569D01*
X148160213Y-90530109D01*
X148332179Y-90655048D01*
X148332181Y-90655049D01*
X148332184Y-90655051D01*
X148521588Y-90751557D01*
X148723757Y-90817246D01*
X148933713Y-90850500D01*
X148933714Y-90850500D01*
X149146286Y-90850500D01*
X149146287Y-90850500D01*
X149356243Y-90817246D01*
X149558412Y-90751557D01*
X149747816Y-90655051D01*
X149834138Y-90592335D01*
X149919786Y-90530109D01*
X149919788Y-90530106D01*
X149919792Y-90530104D01*
X150070104Y-90379792D01*
X150070106Y-90379788D01*
X150070109Y-90379786D01*
X150195048Y-90207820D01*
X150195047Y-90207820D01*
X150195051Y-90207816D01*
X150250040Y-90099892D01*
X150251784Y-90098045D01*
X150252352Y-90095569D01*
X150275636Y-90072790D01*
X150298014Y-90049097D01*
X150300481Y-90048485D01*
X150302297Y-90046710D01*
X150334197Y-90040136D01*
X150365835Y-90032302D01*
X150368240Y-90033121D01*
X150370729Y-90032609D01*
X150401126Y-90044328D01*
X150431970Y-90054839D01*
X150433550Y-90056829D01*
X150435921Y-90057743D01*
X150455158Y-90084038D01*
X150475422Y-90109554D01*
X150476138Y-90112715D01*
X150477176Y-90114133D01*
X150484299Y-90148701D01*
X150499274Y-90396263D01*
X150499500Y-90403750D01*
X150499500Y-91127440D01*
X150503753Y-91155653D01*
X150537487Y-91379458D01*
X150537488Y-91379460D01*
X150537489Y-91379466D01*
X150612612Y-91623007D01*
X150723190Y-91852626D01*
X150723195Y-91852634D01*
X150849813Y-92038349D01*
X150871313Y-92104828D01*
X150854747Y-92170198D01*
X150833610Y-92206809D01*
X150833608Y-92206814D01*
X150799500Y-92334108D01*
X150799500Y-92465891D01*
X150833608Y-92593187D01*
X150860174Y-92639199D01*
X150899500Y-92707314D01*
X150899502Y-92707316D01*
X150904505Y-92712319D01*
X150937990Y-92773642D01*
X150933006Y-92843334D01*
X150904505Y-92887681D01*
X150899502Y-92892683D01*
X150899500Y-92892686D01*
X150833608Y-93006812D01*
X150799500Y-93134108D01*
X150799500Y-93265891D01*
X150833608Y-93393187D01*
X150866554Y-93450250D01*
X150899500Y-93507314D01*
X150899502Y-93507316D01*
X150904505Y-93512319D01*
X150937990Y-93573642D01*
X150933006Y-93643334D01*
X150904505Y-93687681D01*
X150899502Y-93692683D01*
X150899500Y-93692686D01*
X150833608Y-93806812D01*
X150799500Y-93934108D01*
X150799500Y-94065891D01*
X150833608Y-94193185D01*
X150833608Y-94193186D01*
X150854747Y-94229800D01*
X150871218Y-94297700D01*
X150849813Y-94361650D01*
X150723195Y-94547365D01*
X150723190Y-94547373D01*
X150612612Y-94776992D01*
X150537489Y-95020533D01*
X150537488Y-95020538D01*
X150537487Y-95020542D01*
X150526038Y-95096498D01*
X150499500Y-95272559D01*
X150499500Y-96196249D01*
X150499274Y-96203736D01*
X150484299Y-96451298D01*
X150460602Y-96517027D01*
X150405132Y-96559510D01*
X150335499Y-96565259D01*
X150273812Y-96532450D01*
X150250040Y-96500106D01*
X150225171Y-96451298D01*
X150195051Y-96392184D01*
X150181093Y-96372972D01*
X150070109Y-96220213D01*
X149919786Y-96069890D01*
X149747820Y-95944951D01*
X149558414Y-95848444D01*
X149558413Y-95848443D01*
X149558412Y-95848443D01*
X149356243Y-95782754D01*
X149356241Y-95782753D01*
X149356240Y-95782753D01*
X149194957Y-95757208D01*
X149146287Y-95749500D01*
X148933713Y-95749500D01*
X148885042Y-95757208D01*
X148723760Y-95782753D01*
X148521585Y-95848444D01*
X148332179Y-95944951D01*
X148160215Y-96069889D01*
X148046673Y-96183431D01*
X147985350Y-96216915D01*
X147915658Y-96211931D01*
X147859725Y-96170059D01*
X147842810Y-96139082D01*
X147793797Y-96007671D01*
X147793793Y-96007664D01*
X147707547Y-95892455D01*
X147707544Y-95892452D01*
X147592335Y-95806206D01*
X147592328Y-95806202D01*
X147457482Y-95755908D01*
X147457483Y-95755908D01*
X147397883Y-95749501D01*
X147397881Y-95749500D01*
X147397873Y-95749500D01*
X147397864Y-95749500D01*
X145602129Y-95749500D01*
X145602123Y-95749501D01*
X145542516Y-95755908D01*
X145407671Y-95806202D01*
X145407664Y-95806206D01*
X145292455Y-95892452D01*
X145292452Y-95892455D01*
X145206206Y-96007664D01*
X145206202Y-96007671D01*
X145155908Y-96142517D01*
X145149501Y-96202116D01*
X145149500Y-96202135D01*
X145149500Y-97997870D01*
X145149501Y-97997876D01*
X145155908Y-98057483D01*
X145206202Y-98192328D01*
X145206206Y-98192335D01*
X145287695Y-98301189D01*
X145312113Y-98366653D01*
X145297262Y-98434926D01*
X145247857Y-98484332D01*
X145188429Y-98499500D01*
X127872559Y-98499500D01*
X127715609Y-98523157D01*
X127620542Y-98537487D01*
X127620539Y-98537488D01*
X127620533Y-98537489D01*
X127376992Y-98612612D01*
X127147373Y-98723190D01*
X127147365Y-98723195D01*
X126961650Y-98849813D01*
X126895171Y-98871313D01*
X126829800Y-98854747D01*
X126793186Y-98833608D01*
X126665892Y-98799500D01*
X126534108Y-98799500D01*
X126406812Y-98833608D01*
X126292686Y-98899500D01*
X126292683Y-98899502D01*
X126287681Y-98904505D01*
X126226358Y-98937990D01*
X126156666Y-98933006D01*
X126112319Y-98904505D01*
X126107316Y-98899502D01*
X126107314Y-98899500D01*
X126021254Y-98849813D01*
X125993187Y-98833608D01*
X125929539Y-98816554D01*
X125865892Y-98799500D01*
X125734108Y-98799500D01*
X125606812Y-98833608D01*
X125492686Y-98899500D01*
X125492683Y-98899502D01*
X125487681Y-98904505D01*
X125426358Y-98937990D01*
X125356666Y-98933006D01*
X125312319Y-98904505D01*
X125307316Y-98899502D01*
X125307314Y-98899500D01*
X125221254Y-98849813D01*
X125193187Y-98833608D01*
X125129539Y-98816554D01*
X125065892Y-98799500D01*
X124934108Y-98799500D01*
X124806814Y-98833608D01*
X124806809Y-98833610D01*
X124770198Y-98854747D01*
X124702298Y-98871218D01*
X124638349Y-98849813D01*
X124452634Y-98723195D01*
X124452626Y-98723190D01*
X124223006Y-98612612D01*
X124223008Y-98612612D01*
X123979466Y-98537489D01*
X123979462Y-98537488D01*
X123979458Y-98537487D01*
X123858231Y-98519214D01*
X123727440Y-98499500D01*
X123727435Y-98499500D01*
X123665892Y-98499500D01*
X105184555Y-98499500D01*
X105117516Y-98479815D01*
X105071761Y-98427011D01*
X105061817Y-98357853D01*
X105090842Y-98294297D01*
X105128261Y-98265015D01*
X105138790Y-98259650D01*
X105147816Y-98255051D01*
X105234138Y-98192335D01*
X105319786Y-98130109D01*
X105319788Y-98130106D01*
X105319792Y-98130104D01*
X105470104Y-97979792D01*
X105470106Y-97979788D01*
X105470109Y-97979786D01*
X105595048Y-97807820D01*
X105595047Y-97807820D01*
X105595051Y-97807816D01*
X105691557Y-97618412D01*
X105757246Y-97416243D01*
X105790500Y-97206287D01*
X105790500Y-96993713D01*
X105757246Y-96783757D01*
X105691557Y-96581588D01*
X105595051Y-96392184D01*
X105595049Y-96392181D01*
X105595048Y-96392179D01*
X105470109Y-96220213D01*
X105319786Y-96069890D01*
X105147820Y-95944951D01*
X104958414Y-95848444D01*
X104958413Y-95848443D01*
X104958412Y-95848443D01*
X104756243Y-95782754D01*
X104756241Y-95782753D01*
X104756240Y-95782753D01*
X104594957Y-95757208D01*
X104546287Y-95749500D01*
X104333713Y-95749500D01*
X104285042Y-95757208D01*
X104123760Y-95782753D01*
X103921585Y-95848444D01*
X103732179Y-95944951D01*
X103560215Y-96069889D01*
X103446673Y-96183431D01*
X103385350Y-96216915D01*
X103315658Y-96211931D01*
X103259725Y-96170059D01*
X103242810Y-96139082D01*
X103193797Y-96007671D01*
X103193793Y-96007664D01*
X103107547Y-95892455D01*
X103107544Y-95892452D01*
X102992335Y-95806206D01*
X102992328Y-95806202D01*
X102857482Y-95755908D01*
X102857483Y-95755908D01*
X102797883Y-95749501D01*
X102797881Y-95749500D01*
X102797873Y-95749500D01*
X102797864Y-95749500D01*
X101002129Y-95749500D01*
X101002123Y-95749501D01*
X100942516Y-95755908D01*
X100807671Y-95806202D01*
X100807669Y-95806204D01*
X100698811Y-95887695D01*
X100633347Y-95912112D01*
X100565074Y-95897260D01*
X100515668Y-95847855D01*
X100500500Y-95788428D01*
X100500500Y-90811571D01*
X100520185Y-90744532D01*
X100572989Y-90698777D01*
X100642147Y-90688833D01*
X100698811Y-90712305D01*
X100807664Y-90793793D01*
X100807671Y-90793797D01*
X100942517Y-90844091D01*
X100942516Y-90844091D01*
X100949444Y-90844835D01*
X101002127Y-90850500D01*
X102797872Y-90850499D01*
X102857483Y-90844091D01*
X102992331Y-90793796D01*
X103107546Y-90707546D01*
X103193796Y-90592331D01*
X103242810Y-90460916D01*
X103284681Y-90404984D01*
X103350145Y-90380566D01*
X103418418Y-90395417D01*
X103446673Y-90416569D01*
X103560213Y-90530109D01*
X103732179Y-90655048D01*
X103732181Y-90655049D01*
X103732184Y-90655051D01*
X103921588Y-90751557D01*
X104123757Y-90817246D01*
X104333713Y-90850500D01*
X104333714Y-90850500D01*
X104546286Y-90850500D01*
X104546287Y-90850500D01*
X104756243Y-90817246D01*
X104958412Y-90751557D01*
X105147816Y-90655051D01*
X105234138Y-90592335D01*
X105319786Y-90530109D01*
X105319788Y-90530106D01*
X105319792Y-90530104D01*
X105470104Y-90379792D01*
X105470106Y-90379788D01*
X105470109Y-90379786D01*
X105595048Y-90207820D01*
X105595047Y-90207820D01*
X105595051Y-90207816D01*
X105691557Y-90018412D01*
X105757246Y-89816243D01*
X105790500Y-89606287D01*
X105790500Y-89393713D01*
X105757246Y-89183757D01*
X105691557Y-88981588D01*
X105595051Y-88792184D01*
X105595049Y-88792181D01*
X105595048Y-88792179D01*
X105470109Y-88620213D01*
X105319786Y-88469890D01*
X105147817Y-88344949D01*
X105128261Y-88334985D01*
X105077464Y-88287011D01*
X105060669Y-88219190D01*
X105083206Y-88153055D01*
X105137921Y-88109603D01*
X105184555Y-88100500D01*
X123727435Y-88100500D01*
X123979458Y-88062513D01*
X124223004Y-87987389D01*
X124452634Y-87876805D01*
X124638351Y-87750184D01*
X124704827Y-87728686D01*
X124770200Y-87745253D01*
X124806814Y-87766392D01*
X124934108Y-87800500D01*
X124934110Y-87800500D01*
X125065890Y-87800500D01*
X125065892Y-87800500D01*
X125193186Y-87766392D01*
X125307314Y-87700500D01*
X125312319Y-87695495D01*
X125373642Y-87662010D01*
X125443334Y-87666994D01*
X125487681Y-87695495D01*
X125492686Y-87700500D01*
X125591521Y-87757563D01*
X125606810Y-87766390D01*
X125606814Y-87766392D01*
X125734108Y-87800500D01*
X125734110Y-87800500D01*
X125865890Y-87800500D01*
X125865892Y-87800500D01*
X125993186Y-87766392D01*
X126107314Y-87700500D01*
X126112319Y-87695495D01*
X126173642Y-87662010D01*
X126243334Y-87666994D01*
G37*
%TD.AperFunction*%
%TA.AperFunction,NonConductor*%
G36*
X148203735Y-101900726D02*
G01*
X148216574Y-101901502D01*
X148292405Y-101906089D01*
X148358133Y-101929785D01*
X148400617Y-101985255D01*
X148406367Y-102054888D01*
X148373558Y-102116575D01*
X148341217Y-102140346D01*
X148332180Y-102144950D01*
X148160215Y-102269889D01*
X148046673Y-102383431D01*
X147985350Y-102416915D01*
X147915658Y-102411931D01*
X147859725Y-102370059D01*
X147842810Y-102339082D01*
X147793797Y-102207671D01*
X147793793Y-102207664D01*
X147712305Y-102098811D01*
X147687887Y-102033347D01*
X147702738Y-101965074D01*
X147752143Y-101915668D01*
X147811571Y-101900500D01*
X148134108Y-101900500D01*
X148196249Y-101900500D01*
X148203735Y-101900726D01*
G37*
%TD.AperFunction*%
%TA.AperFunction,NonConductor*%
G36*
X103762484Y-101920185D02*
G01*
X103808239Y-101972989D01*
X103818183Y-102042147D01*
X103789158Y-102105703D01*
X103751739Y-102134985D01*
X103732182Y-102144949D01*
X103560215Y-102269889D01*
X103446673Y-102383431D01*
X103385350Y-102416915D01*
X103315658Y-102411931D01*
X103259725Y-102370059D01*
X103242810Y-102339082D01*
X103193797Y-102207671D01*
X103193793Y-102207664D01*
X103112305Y-102098811D01*
X103087887Y-102033347D01*
X103102738Y-101965074D01*
X103152143Y-101915668D01*
X103211571Y-101900500D01*
X103695445Y-101900500D01*
X103762484Y-101920185D01*
G37*
%TD.AperFunction*%
%TA.AperFunction,NonConductor*%
G36*
X147963578Y-111783488D02*
G01*
X148018418Y-111795417D01*
X148046673Y-111816569D01*
X148160213Y-111930109D01*
X148332181Y-112055050D01*
X148341210Y-112059650D01*
X148343058Y-112061395D01*
X148345536Y-112061963D01*
X148368318Y-112085251D01*
X148392007Y-112107623D01*
X148392618Y-112110090D01*
X148394396Y-112111908D01*
X148400972Y-112143821D01*
X148408804Y-112175444D01*
X148407984Y-112177850D01*
X148408497Y-112180339D01*
X148396778Y-112210735D01*
X148386268Y-112241579D01*
X148384277Y-112243159D01*
X148383363Y-112245532D01*
X148357063Y-112264772D01*
X148331554Y-112285032D01*
X148328391Y-112285749D01*
X148326973Y-112286787D01*
X148292406Y-112293910D01*
X148212299Y-112298756D01*
X148203735Y-112299274D01*
X148196249Y-112299500D01*
X147811571Y-112299500D01*
X147744532Y-112279815D01*
X147698777Y-112227011D01*
X147688833Y-112157853D01*
X147712305Y-112101189D01*
X147793793Y-111992335D01*
X147793792Y-111992335D01*
X147793796Y-111992331D01*
X147842811Y-111860914D01*
X147884682Y-111804983D01*
X147941652Y-111783734D01*
X147950145Y-111780566D01*
X147950146Y-111780566D01*
X147963578Y-111783488D01*
G37*
%TD.AperFunction*%
%TA.AperFunction,NonConductor*%
G36*
X103418418Y-111795417D02*
G01*
X103446673Y-111816569D01*
X103560213Y-111930109D01*
X103732182Y-112055050D01*
X103751739Y-112065015D01*
X103802536Y-112112989D01*
X103819331Y-112180810D01*
X103796794Y-112246945D01*
X103742079Y-112290397D01*
X103695445Y-112299500D01*
X103211571Y-112299500D01*
X103144532Y-112279815D01*
X103098777Y-112227011D01*
X103088833Y-112157853D01*
X103112305Y-112101189D01*
X103193793Y-111992335D01*
X103193792Y-111992335D01*
X103193796Y-111992331D01*
X103242810Y-111860916D01*
X103284681Y-111804984D01*
X103350145Y-111780566D01*
X103418418Y-111795417D01*
G37*
%TD.AperFunction*%
%TA.AperFunction,NonConductor*%
G36*
X126243334Y-101466994D02*
G01*
X126287681Y-101495495D01*
X126292686Y-101500500D01*
X126391521Y-101557563D01*
X126406810Y-101566390D01*
X126406814Y-101566392D01*
X126534108Y-101600500D01*
X126534110Y-101600500D01*
X126665890Y-101600500D01*
X126665892Y-101600500D01*
X126793186Y-101566392D01*
X126793190Y-101566390D01*
X126821255Y-101550186D01*
X126829798Y-101545253D01*
X126897697Y-101528780D01*
X126961648Y-101550185D01*
X127147366Y-101676805D01*
X127147371Y-101676807D01*
X127147372Y-101676808D01*
X127147373Y-101676809D01*
X127269328Y-101735538D01*
X127376992Y-101787387D01*
X127376993Y-101787387D01*
X127376996Y-101787389D01*
X127620542Y-101862513D01*
X127872565Y-101900500D01*
X127934108Y-101900500D01*
X145188429Y-101900500D01*
X145255468Y-101920185D01*
X145301223Y-101972989D01*
X145311167Y-102042147D01*
X145287695Y-102098811D01*
X145206206Y-102207664D01*
X145206202Y-102207671D01*
X145155908Y-102342517D01*
X145149501Y-102402116D01*
X145149500Y-102402135D01*
X145149500Y-104197870D01*
X145149501Y-104197876D01*
X145155908Y-104257483D01*
X145206202Y-104392328D01*
X145206206Y-104392335D01*
X145292452Y-104507544D01*
X145292455Y-104507547D01*
X145407664Y-104593793D01*
X145407671Y-104593797D01*
X145542517Y-104644091D01*
X145542516Y-104644091D01*
X145549444Y-104644835D01*
X145602127Y-104650500D01*
X147397872Y-104650499D01*
X147457483Y-104644091D01*
X147592331Y-104593796D01*
X147707546Y-104507546D01*
X147793796Y-104392331D01*
X147842810Y-104260916D01*
X147884681Y-104204984D01*
X147950145Y-104180566D01*
X148018418Y-104195417D01*
X148046673Y-104216569D01*
X148160213Y-104330109D01*
X148332179Y-104455048D01*
X148332181Y-104455049D01*
X148332184Y-104455051D01*
X148521588Y-104551557D01*
X148723757Y-104617246D01*
X148933713Y-104650500D01*
X148933714Y-104650500D01*
X149146286Y-104650500D01*
X149146287Y-104650500D01*
X149356243Y-104617246D01*
X149558412Y-104551557D01*
X149747816Y-104455051D01*
X149834138Y-104392335D01*
X149919786Y-104330109D01*
X149919788Y-104330106D01*
X149919792Y-104330104D01*
X150070104Y-104179792D01*
X150070106Y-104179788D01*
X150070109Y-104179786D01*
X150195048Y-104007820D01*
X150195047Y-104007820D01*
X150195051Y-104007816D01*
X150250040Y-103899892D01*
X150251784Y-103898045D01*
X150252352Y-103895569D01*
X150275636Y-103872790D01*
X150298014Y-103849097D01*
X150300481Y-103848485D01*
X150302297Y-103846710D01*
X150334197Y-103840136D01*
X150365835Y-103832302D01*
X150368240Y-103833121D01*
X150370729Y-103832609D01*
X150401126Y-103844328D01*
X150431970Y-103854839D01*
X150433550Y-103856829D01*
X150435921Y-103857743D01*
X150455158Y-103884038D01*
X150475422Y-103909554D01*
X150476138Y-103912715D01*
X150477176Y-103914133D01*
X150484299Y-103948701D01*
X150499274Y-104196263D01*
X150499500Y-104203750D01*
X150499500Y-109996249D01*
X150499274Y-110003736D01*
X150484299Y-110251298D01*
X150460602Y-110317027D01*
X150405132Y-110359510D01*
X150335499Y-110365259D01*
X150273812Y-110332450D01*
X150250040Y-110300106D01*
X150225171Y-110251298D01*
X150195051Y-110192184D01*
X150181093Y-110172972D01*
X150070109Y-110020213D01*
X149919786Y-109869890D01*
X149747820Y-109744951D01*
X149558414Y-109648444D01*
X149558413Y-109648443D01*
X149558412Y-109648443D01*
X149356243Y-109582754D01*
X149356241Y-109582753D01*
X149356240Y-109582753D01*
X149194957Y-109557208D01*
X149146287Y-109549500D01*
X148933713Y-109549500D01*
X148885042Y-109557208D01*
X148723760Y-109582753D01*
X148521585Y-109648444D01*
X148332179Y-109744951D01*
X148160215Y-109869889D01*
X148046673Y-109983431D01*
X147985350Y-110016915D01*
X147915658Y-110011931D01*
X147859725Y-109970059D01*
X147842810Y-109939082D01*
X147793797Y-109807671D01*
X147793793Y-109807664D01*
X147707547Y-109692455D01*
X147707544Y-109692452D01*
X147592335Y-109606206D01*
X147592328Y-109606202D01*
X147457482Y-109555908D01*
X147457483Y-109555908D01*
X147397883Y-109549501D01*
X147397881Y-109549500D01*
X147397873Y-109549500D01*
X147397864Y-109549500D01*
X145602129Y-109549500D01*
X145602123Y-109549501D01*
X145542516Y-109555908D01*
X145407671Y-109606202D01*
X145407664Y-109606206D01*
X145292455Y-109692452D01*
X145292452Y-109692455D01*
X145206206Y-109807664D01*
X145206202Y-109807671D01*
X145155908Y-109942517D01*
X145149501Y-110002116D01*
X145149500Y-110002135D01*
X145149500Y-111797870D01*
X145149501Y-111797876D01*
X145155908Y-111857483D01*
X145206202Y-111992328D01*
X145206206Y-111992335D01*
X145287695Y-112101189D01*
X145312113Y-112166653D01*
X145297262Y-112234926D01*
X145247857Y-112284332D01*
X145188429Y-112299500D01*
X127872559Y-112299500D01*
X127715609Y-112323157D01*
X127620542Y-112337487D01*
X127620539Y-112337488D01*
X127620533Y-112337489D01*
X127376992Y-112412612D01*
X127147373Y-112523190D01*
X127147365Y-112523195D01*
X126961650Y-112649813D01*
X126895171Y-112671313D01*
X126829800Y-112654747D01*
X126793186Y-112633608D01*
X126665892Y-112599500D01*
X126534108Y-112599500D01*
X126406812Y-112633608D01*
X126292686Y-112699500D01*
X126292683Y-112699502D01*
X126287681Y-112704505D01*
X126226358Y-112737990D01*
X126156666Y-112733006D01*
X126112319Y-112704505D01*
X126107316Y-112699502D01*
X126107314Y-112699500D01*
X126021254Y-112649813D01*
X125993187Y-112633608D01*
X125929539Y-112616554D01*
X125865892Y-112599500D01*
X125734108Y-112599500D01*
X125606812Y-112633608D01*
X125492686Y-112699500D01*
X125492683Y-112699502D01*
X125487681Y-112704505D01*
X125426358Y-112737990D01*
X125356666Y-112733006D01*
X125312319Y-112704505D01*
X125307316Y-112699502D01*
X125307314Y-112699500D01*
X125221254Y-112649813D01*
X125193187Y-112633608D01*
X125129539Y-112616554D01*
X125065892Y-112599500D01*
X124934108Y-112599500D01*
X124806814Y-112633608D01*
X124806809Y-112633610D01*
X124770198Y-112654747D01*
X124702298Y-112671218D01*
X124638349Y-112649813D01*
X124452634Y-112523195D01*
X124452626Y-112523190D01*
X124223006Y-112412612D01*
X124223008Y-112412612D01*
X123979466Y-112337489D01*
X123979462Y-112337488D01*
X123979458Y-112337487D01*
X123858231Y-112319214D01*
X123727440Y-112299500D01*
X123727435Y-112299500D01*
X123665892Y-112299500D01*
X105184555Y-112299500D01*
X105117516Y-112279815D01*
X105071761Y-112227011D01*
X105061817Y-112157853D01*
X105090842Y-112094297D01*
X105128261Y-112065015D01*
X105138790Y-112059650D01*
X105147816Y-112055051D01*
X105234138Y-111992335D01*
X105319786Y-111930109D01*
X105319788Y-111930106D01*
X105319792Y-111930104D01*
X105470104Y-111779792D01*
X105470106Y-111779788D01*
X105470109Y-111779786D01*
X105595048Y-111607820D01*
X105595047Y-111607820D01*
X105595051Y-111607816D01*
X105691557Y-111418412D01*
X105757246Y-111216243D01*
X105790500Y-111006287D01*
X105790500Y-110793713D01*
X105757246Y-110583757D01*
X105691557Y-110381588D01*
X105595051Y-110192184D01*
X105595049Y-110192181D01*
X105595048Y-110192179D01*
X105470109Y-110020213D01*
X105319786Y-109869890D01*
X105147820Y-109744951D01*
X104958414Y-109648444D01*
X104958413Y-109648443D01*
X104958412Y-109648443D01*
X104756243Y-109582754D01*
X104756241Y-109582753D01*
X104756240Y-109582753D01*
X104594957Y-109557208D01*
X104546287Y-109549500D01*
X104333713Y-109549500D01*
X104285042Y-109557208D01*
X104123760Y-109582753D01*
X103921585Y-109648444D01*
X103732179Y-109744951D01*
X103560215Y-109869889D01*
X103446673Y-109983431D01*
X103385350Y-110016915D01*
X103315658Y-110011931D01*
X103259725Y-109970059D01*
X103242810Y-109939082D01*
X103193797Y-109807671D01*
X103193793Y-109807664D01*
X103107547Y-109692455D01*
X103107544Y-109692452D01*
X102992335Y-109606206D01*
X102992328Y-109606202D01*
X102857482Y-109555908D01*
X102857483Y-109555908D01*
X102797883Y-109549501D01*
X102797881Y-109549500D01*
X102797873Y-109549500D01*
X102797864Y-109549500D01*
X101002129Y-109549500D01*
X101002123Y-109549501D01*
X100942516Y-109555908D01*
X100807671Y-109606202D01*
X100807669Y-109606204D01*
X100698811Y-109687695D01*
X100633347Y-109712112D01*
X100565074Y-109697260D01*
X100515668Y-109647855D01*
X100500500Y-109588428D01*
X100500500Y-104611571D01*
X100520185Y-104544532D01*
X100572989Y-104498777D01*
X100642147Y-104488833D01*
X100698811Y-104512305D01*
X100807664Y-104593793D01*
X100807671Y-104593797D01*
X100942517Y-104644091D01*
X100942516Y-104644091D01*
X100949444Y-104644835D01*
X101002127Y-104650500D01*
X102797872Y-104650499D01*
X102857483Y-104644091D01*
X102992331Y-104593796D01*
X103107546Y-104507546D01*
X103193796Y-104392331D01*
X103242810Y-104260916D01*
X103284681Y-104204984D01*
X103350145Y-104180566D01*
X103418418Y-104195417D01*
X103446673Y-104216569D01*
X103560213Y-104330109D01*
X103732179Y-104455048D01*
X103732181Y-104455049D01*
X103732184Y-104455051D01*
X103921588Y-104551557D01*
X104123757Y-104617246D01*
X104333713Y-104650500D01*
X104333714Y-104650500D01*
X104546286Y-104650500D01*
X104546287Y-104650500D01*
X104756243Y-104617246D01*
X104958412Y-104551557D01*
X105147816Y-104455051D01*
X105234138Y-104392335D01*
X105319786Y-104330109D01*
X105319788Y-104330106D01*
X105319792Y-104330104D01*
X105470104Y-104179792D01*
X105470106Y-104179788D01*
X105470109Y-104179786D01*
X105595048Y-104007820D01*
X105595047Y-104007820D01*
X105595051Y-104007816D01*
X105691557Y-103818412D01*
X105757246Y-103616243D01*
X105790500Y-103406287D01*
X105790500Y-103193713D01*
X105757246Y-102983757D01*
X105691557Y-102781588D01*
X105595051Y-102592184D01*
X105595049Y-102592181D01*
X105595048Y-102592179D01*
X105470109Y-102420213D01*
X105319786Y-102269890D01*
X105147817Y-102144949D01*
X105128261Y-102134985D01*
X105077464Y-102087011D01*
X105060669Y-102019190D01*
X105083206Y-101953055D01*
X105137921Y-101909603D01*
X105184555Y-101900500D01*
X123727435Y-101900500D01*
X123979458Y-101862513D01*
X124223004Y-101787389D01*
X124452634Y-101676805D01*
X124638351Y-101550184D01*
X124704827Y-101528686D01*
X124770200Y-101545253D01*
X124806814Y-101566392D01*
X124934108Y-101600500D01*
X124934110Y-101600500D01*
X125065890Y-101600500D01*
X125065892Y-101600500D01*
X125193186Y-101566392D01*
X125307314Y-101500500D01*
X125312319Y-101495495D01*
X125373642Y-101462010D01*
X125443334Y-101466994D01*
X125487681Y-101495495D01*
X125492686Y-101500500D01*
X125591521Y-101557563D01*
X125606810Y-101566390D01*
X125606814Y-101566392D01*
X125734108Y-101600500D01*
X125734110Y-101600500D01*
X125865890Y-101600500D01*
X125865892Y-101600500D01*
X125993186Y-101566392D01*
X126107314Y-101500500D01*
X126112319Y-101495495D01*
X126173642Y-101462010D01*
X126243334Y-101466994D01*
G37*
%TD.AperFunction*%
%TA.AperFunction,NonConductor*%
G36*
X148203735Y-115700726D02*
G01*
X148216574Y-115701502D01*
X148292405Y-115706089D01*
X148358133Y-115729785D01*
X148400617Y-115785255D01*
X148406367Y-115854888D01*
X148373558Y-115916575D01*
X148341217Y-115940346D01*
X148332180Y-115944950D01*
X148160215Y-116069889D01*
X148046673Y-116183431D01*
X147985350Y-116216915D01*
X147915658Y-116211931D01*
X147859725Y-116170059D01*
X147842810Y-116139082D01*
X147793797Y-116007671D01*
X147793793Y-116007664D01*
X147712305Y-115898811D01*
X147687887Y-115833347D01*
X147702738Y-115765074D01*
X147752143Y-115715668D01*
X147811571Y-115700500D01*
X148134108Y-115700500D01*
X148196249Y-115700500D01*
X148203735Y-115700726D01*
G37*
%TD.AperFunction*%
%TA.AperFunction,NonConductor*%
G36*
X103762484Y-115720185D02*
G01*
X103808239Y-115772989D01*
X103818183Y-115842147D01*
X103789158Y-115905703D01*
X103751739Y-115934985D01*
X103732182Y-115944949D01*
X103560215Y-116069889D01*
X103446673Y-116183431D01*
X103385350Y-116216915D01*
X103315658Y-116211931D01*
X103259725Y-116170059D01*
X103242810Y-116139082D01*
X103193797Y-116007671D01*
X103193793Y-116007664D01*
X103112305Y-115898811D01*
X103087887Y-115833347D01*
X103102738Y-115765074D01*
X103152143Y-115715668D01*
X103211571Y-115700500D01*
X103695445Y-115700500D01*
X103762484Y-115720185D01*
G37*
%TD.AperFunction*%
%TA.AperFunction,NonConductor*%
G36*
X147963578Y-125583488D02*
G01*
X148018418Y-125595417D01*
X148046673Y-125616569D01*
X148160213Y-125730109D01*
X148332181Y-125855050D01*
X148341210Y-125859650D01*
X148343058Y-125861395D01*
X148345536Y-125861963D01*
X148368318Y-125885251D01*
X148392007Y-125907623D01*
X148392618Y-125910090D01*
X148394396Y-125911908D01*
X148400972Y-125943821D01*
X148408804Y-125975444D01*
X148407984Y-125977850D01*
X148408497Y-125980339D01*
X148396778Y-126010735D01*
X148386268Y-126041579D01*
X148384277Y-126043159D01*
X148383363Y-126045532D01*
X148357063Y-126064772D01*
X148331554Y-126085032D01*
X148328391Y-126085749D01*
X148326973Y-126086787D01*
X148292406Y-126093910D01*
X148212299Y-126098756D01*
X148203735Y-126099274D01*
X148196249Y-126099500D01*
X147811571Y-126099500D01*
X147744532Y-126079815D01*
X147698777Y-126027011D01*
X147688833Y-125957853D01*
X147712305Y-125901189D01*
X147793793Y-125792335D01*
X147793792Y-125792335D01*
X147793796Y-125792331D01*
X147842811Y-125660914D01*
X147884682Y-125604983D01*
X147941652Y-125583734D01*
X147950145Y-125580566D01*
X147950146Y-125580566D01*
X147963578Y-125583488D01*
G37*
%TD.AperFunction*%
%TA.AperFunction,NonConductor*%
G36*
X103418418Y-125595417D02*
G01*
X103446673Y-125616569D01*
X103560213Y-125730109D01*
X103732182Y-125855050D01*
X103751739Y-125865015D01*
X103802536Y-125912989D01*
X103819331Y-125980810D01*
X103796794Y-126046945D01*
X103742079Y-126090397D01*
X103695445Y-126099500D01*
X103211571Y-126099500D01*
X103144532Y-126079815D01*
X103098777Y-126027011D01*
X103088833Y-125957853D01*
X103112305Y-125901189D01*
X103193793Y-125792335D01*
X103193792Y-125792335D01*
X103193796Y-125792331D01*
X103242810Y-125660916D01*
X103284681Y-125604984D01*
X103350145Y-125580566D01*
X103418418Y-125595417D01*
G37*
%TD.AperFunction*%
%TA.AperFunction,NonConductor*%
G36*
X126243334Y-115266994D02*
G01*
X126287681Y-115295495D01*
X126292686Y-115300500D01*
X126391521Y-115357563D01*
X126406810Y-115366390D01*
X126406814Y-115366392D01*
X126534108Y-115400500D01*
X126534110Y-115400500D01*
X126665890Y-115400500D01*
X126665892Y-115400500D01*
X126793186Y-115366392D01*
X126793190Y-115366390D01*
X126821255Y-115350186D01*
X126829798Y-115345253D01*
X126897697Y-115328780D01*
X126961648Y-115350185D01*
X127147366Y-115476805D01*
X127147371Y-115476807D01*
X127147372Y-115476808D01*
X127147373Y-115476809D01*
X127269328Y-115535538D01*
X127376992Y-115587387D01*
X127376993Y-115587387D01*
X127376996Y-115587389D01*
X127620542Y-115662513D01*
X127872565Y-115700500D01*
X127934108Y-115700500D01*
X145188429Y-115700500D01*
X145255468Y-115720185D01*
X145301223Y-115772989D01*
X145311167Y-115842147D01*
X145287695Y-115898811D01*
X145206206Y-116007664D01*
X145206202Y-116007671D01*
X145155908Y-116142517D01*
X145149501Y-116202116D01*
X145149500Y-116202135D01*
X145149500Y-117997870D01*
X145149501Y-117997876D01*
X145155908Y-118057483D01*
X145206202Y-118192328D01*
X145206206Y-118192335D01*
X145292452Y-118307544D01*
X145292455Y-118307547D01*
X145407664Y-118393793D01*
X145407671Y-118393797D01*
X145542517Y-118444091D01*
X145542516Y-118444091D01*
X145549444Y-118444835D01*
X145602127Y-118450500D01*
X147397872Y-118450499D01*
X147457483Y-118444091D01*
X147592331Y-118393796D01*
X147707546Y-118307546D01*
X147793796Y-118192331D01*
X147842810Y-118060916D01*
X147884681Y-118004984D01*
X147950145Y-117980566D01*
X148018418Y-117995417D01*
X148046673Y-118016569D01*
X148160213Y-118130109D01*
X148332179Y-118255048D01*
X148332181Y-118255049D01*
X148332184Y-118255051D01*
X148521588Y-118351557D01*
X148723757Y-118417246D01*
X148933713Y-118450500D01*
X148933714Y-118450500D01*
X149146286Y-118450500D01*
X149146287Y-118450500D01*
X149356243Y-118417246D01*
X149558412Y-118351557D01*
X149747816Y-118255051D01*
X149834138Y-118192335D01*
X149919786Y-118130109D01*
X149919788Y-118130106D01*
X149919792Y-118130104D01*
X150070104Y-117979792D01*
X150070106Y-117979788D01*
X150070109Y-117979786D01*
X150195048Y-117807820D01*
X150195047Y-117807820D01*
X150195051Y-117807816D01*
X150250040Y-117699892D01*
X150251784Y-117698045D01*
X150252352Y-117695569D01*
X150275636Y-117672790D01*
X150298014Y-117649097D01*
X150300481Y-117648485D01*
X150302297Y-117646710D01*
X150334197Y-117640136D01*
X150365835Y-117632302D01*
X150368240Y-117633121D01*
X150370729Y-117632609D01*
X150401126Y-117644328D01*
X150431970Y-117654839D01*
X150433550Y-117656829D01*
X150435921Y-117657743D01*
X150455158Y-117684038D01*
X150475422Y-117709554D01*
X150476138Y-117712715D01*
X150477176Y-117714133D01*
X150484299Y-117748701D01*
X150499274Y-117996263D01*
X150499500Y-118003750D01*
X150499500Y-118727440D01*
X150503753Y-118755653D01*
X150537487Y-118979458D01*
X150537488Y-118979460D01*
X150537489Y-118979466D01*
X150612612Y-119223007D01*
X150723190Y-119452626D01*
X150723195Y-119452634D01*
X150849813Y-119638349D01*
X150871313Y-119704828D01*
X150854747Y-119770198D01*
X150833610Y-119806809D01*
X150833608Y-119806814D01*
X150799500Y-119934108D01*
X150799500Y-120065891D01*
X150833608Y-120193187D01*
X150860174Y-120239199D01*
X150899500Y-120307314D01*
X150899502Y-120307316D01*
X150904505Y-120312319D01*
X150937990Y-120373642D01*
X150933006Y-120443334D01*
X150904505Y-120487681D01*
X150899502Y-120492683D01*
X150899500Y-120492686D01*
X150833608Y-120606812D01*
X150799500Y-120734108D01*
X150799500Y-120865891D01*
X150833608Y-120993187D01*
X150866554Y-121050250D01*
X150899500Y-121107314D01*
X150899502Y-121107316D01*
X150904505Y-121112319D01*
X150937990Y-121173642D01*
X150933006Y-121243334D01*
X150904505Y-121287681D01*
X150899502Y-121292683D01*
X150899500Y-121292686D01*
X150833608Y-121406812D01*
X150799500Y-121534108D01*
X150799500Y-121665891D01*
X150833608Y-121793185D01*
X150833608Y-121793186D01*
X150854747Y-121829800D01*
X150871218Y-121897700D01*
X150849813Y-121961650D01*
X150723195Y-122147365D01*
X150723190Y-122147373D01*
X150612612Y-122376992D01*
X150537489Y-122620533D01*
X150537488Y-122620538D01*
X150537487Y-122620542D01*
X150526038Y-122696498D01*
X150499500Y-122872559D01*
X150499500Y-123796249D01*
X150499274Y-123803736D01*
X150484299Y-124051298D01*
X150460602Y-124117027D01*
X150405132Y-124159510D01*
X150335499Y-124165259D01*
X150273812Y-124132450D01*
X150250040Y-124100106D01*
X150225171Y-124051298D01*
X150195051Y-123992184D01*
X150181093Y-123972972D01*
X150070109Y-123820213D01*
X149919786Y-123669890D01*
X149747820Y-123544951D01*
X149558414Y-123448444D01*
X149558413Y-123448443D01*
X149558412Y-123448443D01*
X149356243Y-123382754D01*
X149356241Y-123382753D01*
X149356240Y-123382753D01*
X149194957Y-123357208D01*
X149146287Y-123349500D01*
X148933713Y-123349500D01*
X148885042Y-123357208D01*
X148723760Y-123382753D01*
X148521585Y-123448444D01*
X148332179Y-123544951D01*
X148160215Y-123669889D01*
X148046673Y-123783431D01*
X147985350Y-123816915D01*
X147915658Y-123811931D01*
X147859725Y-123770059D01*
X147842810Y-123739082D01*
X147793797Y-123607671D01*
X147793793Y-123607664D01*
X147707547Y-123492455D01*
X147707544Y-123492452D01*
X147592335Y-123406206D01*
X147592328Y-123406202D01*
X147457482Y-123355908D01*
X147457483Y-123355908D01*
X147397883Y-123349501D01*
X147397881Y-123349500D01*
X147397873Y-123349500D01*
X147397864Y-123349500D01*
X145602129Y-123349500D01*
X145602123Y-123349501D01*
X145542516Y-123355908D01*
X145407671Y-123406202D01*
X145407664Y-123406206D01*
X145292455Y-123492452D01*
X145292452Y-123492455D01*
X145206206Y-123607664D01*
X145206202Y-123607671D01*
X145155908Y-123742517D01*
X145149501Y-123802116D01*
X145149500Y-123802135D01*
X145149500Y-125597870D01*
X145149501Y-125597876D01*
X145155908Y-125657483D01*
X145206202Y-125792328D01*
X145206206Y-125792335D01*
X145287695Y-125901189D01*
X145312113Y-125966653D01*
X145297262Y-126034926D01*
X145247857Y-126084332D01*
X145188429Y-126099500D01*
X127872559Y-126099500D01*
X127715609Y-126123157D01*
X127620542Y-126137487D01*
X127620539Y-126137488D01*
X127620533Y-126137489D01*
X127376992Y-126212612D01*
X127147373Y-126323190D01*
X127147365Y-126323195D01*
X126961650Y-126449813D01*
X126895171Y-126471313D01*
X126829800Y-126454747D01*
X126793186Y-126433608D01*
X126665892Y-126399500D01*
X126534108Y-126399500D01*
X126406812Y-126433608D01*
X126292686Y-126499500D01*
X126292683Y-126499502D01*
X126287681Y-126504505D01*
X126226358Y-126537990D01*
X126156666Y-126533006D01*
X126112319Y-126504505D01*
X126107316Y-126499502D01*
X126107314Y-126499500D01*
X126021254Y-126449813D01*
X125993187Y-126433608D01*
X125929539Y-126416554D01*
X125865892Y-126399500D01*
X125734108Y-126399500D01*
X125606812Y-126433608D01*
X125492686Y-126499500D01*
X125492683Y-126499502D01*
X125487681Y-126504505D01*
X125426358Y-126537990D01*
X125356666Y-126533006D01*
X125312319Y-126504505D01*
X125307316Y-126499502D01*
X125307314Y-126499500D01*
X125221254Y-126449813D01*
X125193187Y-126433608D01*
X125129539Y-126416554D01*
X125065892Y-126399500D01*
X124934108Y-126399500D01*
X124806814Y-126433608D01*
X124806809Y-126433610D01*
X124770198Y-126454747D01*
X124702298Y-126471218D01*
X124638349Y-126449813D01*
X124452634Y-126323195D01*
X124452626Y-126323190D01*
X124223006Y-126212612D01*
X124223008Y-126212612D01*
X123979466Y-126137489D01*
X123979462Y-126137488D01*
X123979458Y-126137487D01*
X123858231Y-126119214D01*
X123727440Y-126099500D01*
X123727435Y-126099500D01*
X123665892Y-126099500D01*
X105184555Y-126099500D01*
X105117516Y-126079815D01*
X105071761Y-126027011D01*
X105061817Y-125957853D01*
X105090842Y-125894297D01*
X105128261Y-125865015D01*
X105138790Y-125859650D01*
X105147816Y-125855051D01*
X105234138Y-125792335D01*
X105319786Y-125730109D01*
X105319788Y-125730106D01*
X105319792Y-125730104D01*
X105470104Y-125579792D01*
X105470106Y-125579788D01*
X105470109Y-125579786D01*
X105595048Y-125407820D01*
X105595047Y-125407820D01*
X105595051Y-125407816D01*
X105691557Y-125218412D01*
X105757246Y-125016243D01*
X105790500Y-124806287D01*
X105790500Y-124593713D01*
X105757246Y-124383757D01*
X105691557Y-124181588D01*
X105595051Y-123992184D01*
X105595049Y-123992181D01*
X105595048Y-123992179D01*
X105470109Y-123820213D01*
X105319786Y-123669890D01*
X105147820Y-123544951D01*
X104958414Y-123448444D01*
X104958413Y-123448443D01*
X104958412Y-123448443D01*
X104756243Y-123382754D01*
X104756241Y-123382753D01*
X104756240Y-123382753D01*
X104594957Y-123357208D01*
X104546287Y-123349500D01*
X104333713Y-123349500D01*
X104285042Y-123357208D01*
X104123760Y-123382753D01*
X103921585Y-123448444D01*
X103732179Y-123544951D01*
X103560215Y-123669889D01*
X103446673Y-123783431D01*
X103385350Y-123816915D01*
X103315658Y-123811931D01*
X103259725Y-123770059D01*
X103242810Y-123739082D01*
X103193797Y-123607671D01*
X103193793Y-123607664D01*
X103107547Y-123492455D01*
X103107544Y-123492452D01*
X102992335Y-123406206D01*
X102992328Y-123406202D01*
X102857482Y-123355908D01*
X102857483Y-123355908D01*
X102797883Y-123349501D01*
X102797881Y-123349500D01*
X102797873Y-123349500D01*
X102797864Y-123349500D01*
X101002129Y-123349500D01*
X101002123Y-123349501D01*
X100942516Y-123355908D01*
X100807671Y-123406202D01*
X100807669Y-123406204D01*
X100698811Y-123487695D01*
X100633347Y-123512112D01*
X100565074Y-123497260D01*
X100515668Y-123447855D01*
X100500500Y-123388428D01*
X100500500Y-118411571D01*
X100520185Y-118344532D01*
X100572989Y-118298777D01*
X100642147Y-118288833D01*
X100698811Y-118312305D01*
X100807664Y-118393793D01*
X100807671Y-118393797D01*
X100942517Y-118444091D01*
X100942516Y-118444091D01*
X100949444Y-118444835D01*
X101002127Y-118450500D01*
X102797872Y-118450499D01*
X102857483Y-118444091D01*
X102992331Y-118393796D01*
X103107546Y-118307546D01*
X103193796Y-118192331D01*
X103242810Y-118060916D01*
X103284681Y-118004984D01*
X103350145Y-117980566D01*
X103418418Y-117995417D01*
X103446673Y-118016569D01*
X103560213Y-118130109D01*
X103732179Y-118255048D01*
X103732181Y-118255049D01*
X103732184Y-118255051D01*
X103921588Y-118351557D01*
X104123757Y-118417246D01*
X104333713Y-118450500D01*
X104333714Y-118450500D01*
X104546286Y-118450500D01*
X104546287Y-118450500D01*
X104756243Y-118417246D01*
X104958412Y-118351557D01*
X105147816Y-118255051D01*
X105234138Y-118192335D01*
X105319786Y-118130109D01*
X105319788Y-118130106D01*
X105319792Y-118130104D01*
X105470104Y-117979792D01*
X105470106Y-117979788D01*
X105470109Y-117979786D01*
X105595048Y-117807820D01*
X105595047Y-117807820D01*
X105595051Y-117807816D01*
X105691557Y-117618412D01*
X105757246Y-117416243D01*
X105790500Y-117206287D01*
X105790500Y-116993713D01*
X105757246Y-116783757D01*
X105691557Y-116581588D01*
X105595051Y-116392184D01*
X105595049Y-116392181D01*
X105595048Y-116392179D01*
X105470109Y-116220213D01*
X105319786Y-116069890D01*
X105147817Y-115944949D01*
X105128261Y-115934985D01*
X105077464Y-115887011D01*
X105060669Y-115819190D01*
X105083206Y-115753055D01*
X105137921Y-115709603D01*
X105184555Y-115700500D01*
X123727435Y-115700500D01*
X123979458Y-115662513D01*
X124223004Y-115587389D01*
X124452634Y-115476805D01*
X124638351Y-115350184D01*
X124704827Y-115328686D01*
X124770200Y-115345253D01*
X124806814Y-115366392D01*
X124934108Y-115400500D01*
X124934110Y-115400500D01*
X125065890Y-115400500D01*
X125065892Y-115400500D01*
X125193186Y-115366392D01*
X125307314Y-115300500D01*
X125312319Y-115295495D01*
X125373642Y-115262010D01*
X125443334Y-115266994D01*
X125487681Y-115295495D01*
X125492686Y-115300500D01*
X125591521Y-115357563D01*
X125606810Y-115366390D01*
X125606814Y-115366392D01*
X125734108Y-115400500D01*
X125734110Y-115400500D01*
X125865890Y-115400500D01*
X125865892Y-115400500D01*
X125993186Y-115366392D01*
X126107314Y-115300500D01*
X126112319Y-115295495D01*
X126173642Y-115262010D01*
X126243334Y-115266994D01*
G37*
%TD.AperFunction*%
%TA.AperFunction,NonConductor*%
G36*
X148203735Y-129500726D02*
G01*
X148216574Y-129501502D01*
X148292405Y-129506089D01*
X148358133Y-129529785D01*
X148400617Y-129585255D01*
X148406367Y-129654888D01*
X148373558Y-129716575D01*
X148341217Y-129740346D01*
X148332180Y-129744950D01*
X148160215Y-129869889D01*
X148046673Y-129983431D01*
X147985350Y-130016915D01*
X147915658Y-130011931D01*
X147859725Y-129970059D01*
X147842810Y-129939082D01*
X147793797Y-129807671D01*
X147793793Y-129807664D01*
X147712305Y-129698811D01*
X147687887Y-129633347D01*
X147702738Y-129565074D01*
X147752143Y-129515668D01*
X147811571Y-129500500D01*
X148134108Y-129500500D01*
X148196249Y-129500500D01*
X148203735Y-129500726D01*
G37*
%TD.AperFunction*%
%TA.AperFunction,NonConductor*%
G36*
X103762484Y-129520185D02*
G01*
X103808239Y-129572989D01*
X103818183Y-129642147D01*
X103789158Y-129705703D01*
X103751739Y-129734985D01*
X103732182Y-129744949D01*
X103560215Y-129869889D01*
X103446673Y-129983431D01*
X103385350Y-130016915D01*
X103315658Y-130011931D01*
X103259725Y-129970059D01*
X103242810Y-129939082D01*
X103193797Y-129807671D01*
X103193793Y-129807664D01*
X103112305Y-129698811D01*
X103087887Y-129633347D01*
X103102738Y-129565074D01*
X103152143Y-129515668D01*
X103211571Y-129500500D01*
X103695445Y-129500500D01*
X103762484Y-129520185D01*
G37*
%TD.AperFunction*%
%TA.AperFunction,NonConductor*%
G36*
X147963578Y-139383488D02*
G01*
X148018418Y-139395417D01*
X148046673Y-139416569D01*
X148160213Y-139530109D01*
X148332181Y-139655050D01*
X148341210Y-139659650D01*
X148343058Y-139661395D01*
X148345536Y-139661963D01*
X148368318Y-139685251D01*
X148392007Y-139707623D01*
X148392618Y-139710090D01*
X148394396Y-139711908D01*
X148400972Y-139743821D01*
X148408804Y-139775444D01*
X148407984Y-139777850D01*
X148408497Y-139780339D01*
X148396778Y-139810735D01*
X148386268Y-139841579D01*
X148384277Y-139843159D01*
X148383363Y-139845532D01*
X148357063Y-139864772D01*
X148331554Y-139885032D01*
X148328391Y-139885749D01*
X148326973Y-139886787D01*
X148292406Y-139893910D01*
X148212299Y-139898756D01*
X148203735Y-139899274D01*
X148196249Y-139899500D01*
X147811571Y-139899500D01*
X147744532Y-139879815D01*
X147698777Y-139827011D01*
X147688833Y-139757853D01*
X147712305Y-139701189D01*
X147793793Y-139592335D01*
X147793792Y-139592335D01*
X147793796Y-139592331D01*
X147842811Y-139460914D01*
X147884682Y-139404983D01*
X147941652Y-139383734D01*
X147950145Y-139380566D01*
X147950146Y-139380566D01*
X147963578Y-139383488D01*
G37*
%TD.AperFunction*%
%TA.AperFunction,NonConductor*%
G36*
X103418418Y-139395417D02*
G01*
X103446673Y-139416569D01*
X103560213Y-139530109D01*
X103732182Y-139655050D01*
X103751739Y-139665015D01*
X103802536Y-139712989D01*
X103819331Y-139780810D01*
X103796794Y-139846945D01*
X103742079Y-139890397D01*
X103695445Y-139899500D01*
X103211571Y-139899500D01*
X103144532Y-139879815D01*
X103098777Y-139827011D01*
X103088833Y-139757853D01*
X103112305Y-139701189D01*
X103193793Y-139592335D01*
X103193792Y-139592335D01*
X103193796Y-139592331D01*
X103242810Y-139460916D01*
X103284681Y-139404984D01*
X103350145Y-139380566D01*
X103418418Y-139395417D01*
G37*
%TD.AperFunction*%
%TA.AperFunction,NonConductor*%
G36*
X126243334Y-129066994D02*
G01*
X126287681Y-129095495D01*
X126292686Y-129100500D01*
X126391521Y-129157563D01*
X126406810Y-129166390D01*
X126406814Y-129166392D01*
X126534108Y-129200500D01*
X126534110Y-129200500D01*
X126665890Y-129200500D01*
X126665892Y-129200500D01*
X126793186Y-129166392D01*
X126793190Y-129166390D01*
X126821255Y-129150186D01*
X126829798Y-129145253D01*
X126897697Y-129128780D01*
X126961648Y-129150185D01*
X127147366Y-129276805D01*
X127147371Y-129276807D01*
X127147372Y-129276808D01*
X127147373Y-129276809D01*
X127269328Y-129335538D01*
X127376992Y-129387387D01*
X127376993Y-129387387D01*
X127376996Y-129387389D01*
X127620542Y-129462513D01*
X127872565Y-129500500D01*
X127934108Y-129500500D01*
X145188429Y-129500500D01*
X145255468Y-129520185D01*
X145301223Y-129572989D01*
X145311167Y-129642147D01*
X145287695Y-129698811D01*
X145206206Y-129807664D01*
X145206202Y-129807671D01*
X145155908Y-129942517D01*
X145149501Y-130002116D01*
X145149500Y-130002135D01*
X145149500Y-131797870D01*
X145149501Y-131797876D01*
X145155908Y-131857483D01*
X145206202Y-131992328D01*
X145206206Y-131992335D01*
X145292452Y-132107544D01*
X145292455Y-132107547D01*
X145407664Y-132193793D01*
X145407671Y-132193797D01*
X145542517Y-132244091D01*
X145542516Y-132244091D01*
X145549444Y-132244835D01*
X145602127Y-132250500D01*
X147397872Y-132250499D01*
X147457483Y-132244091D01*
X147592331Y-132193796D01*
X147707546Y-132107546D01*
X147793796Y-131992331D01*
X147842810Y-131860916D01*
X147884681Y-131804984D01*
X147950145Y-131780566D01*
X148018418Y-131795417D01*
X148046673Y-131816569D01*
X148160213Y-131930109D01*
X148332179Y-132055048D01*
X148332181Y-132055049D01*
X148332184Y-132055051D01*
X148521588Y-132151557D01*
X148723757Y-132217246D01*
X148933713Y-132250500D01*
X148933714Y-132250500D01*
X149146286Y-132250500D01*
X149146287Y-132250500D01*
X149356243Y-132217246D01*
X149558412Y-132151557D01*
X149747816Y-132055051D01*
X149834138Y-131992335D01*
X149919786Y-131930109D01*
X149919788Y-131930106D01*
X149919792Y-131930104D01*
X150070104Y-131779792D01*
X150070106Y-131779788D01*
X150070109Y-131779786D01*
X150195048Y-131607820D01*
X150195047Y-131607820D01*
X150195051Y-131607816D01*
X150250040Y-131499892D01*
X150251784Y-131498045D01*
X150252352Y-131495569D01*
X150275636Y-131472790D01*
X150298014Y-131449097D01*
X150300481Y-131448485D01*
X150302297Y-131446710D01*
X150334197Y-131440136D01*
X150365835Y-131432302D01*
X150368240Y-131433121D01*
X150370729Y-131432609D01*
X150401126Y-131444328D01*
X150431970Y-131454839D01*
X150433550Y-131456829D01*
X150435921Y-131457743D01*
X150455158Y-131484038D01*
X150475422Y-131509554D01*
X150476138Y-131512715D01*
X150477176Y-131514133D01*
X150484299Y-131548701D01*
X150499274Y-131796263D01*
X150499500Y-131803750D01*
X150499500Y-132527440D01*
X150503753Y-132555653D01*
X150537487Y-132779458D01*
X150537488Y-132779460D01*
X150537489Y-132779466D01*
X150612612Y-133023007D01*
X150723190Y-133252626D01*
X150723195Y-133252634D01*
X150849813Y-133438349D01*
X150871313Y-133504828D01*
X150854747Y-133570198D01*
X150833610Y-133606809D01*
X150833608Y-133606814D01*
X150799500Y-133734108D01*
X150799500Y-133865891D01*
X150833608Y-133993187D01*
X150860174Y-134039199D01*
X150899500Y-134107314D01*
X150899502Y-134107316D01*
X150904505Y-134112319D01*
X150937990Y-134173642D01*
X150933006Y-134243334D01*
X150904505Y-134287681D01*
X150899502Y-134292683D01*
X150899500Y-134292686D01*
X150833608Y-134406812D01*
X150799500Y-134534108D01*
X150799500Y-134665891D01*
X150833608Y-134793187D01*
X150866554Y-134850250D01*
X150899500Y-134907314D01*
X150899502Y-134907316D01*
X150904505Y-134912319D01*
X150937990Y-134973642D01*
X150933006Y-135043334D01*
X150904505Y-135087681D01*
X150899502Y-135092683D01*
X150899500Y-135092686D01*
X150833608Y-135206812D01*
X150799500Y-135334108D01*
X150799500Y-135465891D01*
X150833608Y-135593185D01*
X150833608Y-135593186D01*
X150854747Y-135629800D01*
X150871218Y-135697700D01*
X150849813Y-135761650D01*
X150723195Y-135947365D01*
X150723190Y-135947373D01*
X150612612Y-136176992D01*
X150537489Y-136420533D01*
X150537488Y-136420538D01*
X150537487Y-136420542D01*
X150526038Y-136496498D01*
X150499500Y-136672559D01*
X150499500Y-137596249D01*
X150499274Y-137603736D01*
X150484299Y-137851298D01*
X150460602Y-137917027D01*
X150405132Y-137959510D01*
X150335499Y-137965259D01*
X150273812Y-137932450D01*
X150250040Y-137900106D01*
X150225171Y-137851298D01*
X150195051Y-137792184D01*
X150181093Y-137772972D01*
X150070109Y-137620213D01*
X149919786Y-137469890D01*
X149747820Y-137344951D01*
X149558414Y-137248444D01*
X149558413Y-137248443D01*
X149558412Y-137248443D01*
X149356243Y-137182754D01*
X149356241Y-137182753D01*
X149356240Y-137182753D01*
X149194957Y-137157208D01*
X149146287Y-137149500D01*
X148933713Y-137149500D01*
X148885042Y-137157208D01*
X148723760Y-137182753D01*
X148521585Y-137248444D01*
X148332179Y-137344951D01*
X148160215Y-137469889D01*
X148046673Y-137583431D01*
X147985350Y-137616915D01*
X147915658Y-137611931D01*
X147859725Y-137570059D01*
X147842810Y-137539082D01*
X147793797Y-137407671D01*
X147793793Y-137407664D01*
X147707547Y-137292455D01*
X147707544Y-137292452D01*
X147592335Y-137206206D01*
X147592328Y-137206202D01*
X147457482Y-137155908D01*
X147457483Y-137155908D01*
X147397883Y-137149501D01*
X147397881Y-137149500D01*
X147397873Y-137149500D01*
X147397864Y-137149500D01*
X145602129Y-137149500D01*
X145602123Y-137149501D01*
X145542516Y-137155908D01*
X145407671Y-137206202D01*
X145407664Y-137206206D01*
X145292455Y-137292452D01*
X145292452Y-137292455D01*
X145206206Y-137407664D01*
X145206202Y-137407671D01*
X145155908Y-137542517D01*
X145149501Y-137602116D01*
X145149500Y-137602135D01*
X145149500Y-139397870D01*
X145149501Y-139397876D01*
X145155908Y-139457483D01*
X145206202Y-139592328D01*
X145206206Y-139592335D01*
X145287695Y-139701189D01*
X145312113Y-139766653D01*
X145297262Y-139834926D01*
X145247857Y-139884332D01*
X145188429Y-139899500D01*
X127872559Y-139899500D01*
X127715609Y-139923157D01*
X127620542Y-139937487D01*
X127620539Y-139937488D01*
X127620533Y-139937489D01*
X127376992Y-140012612D01*
X127147373Y-140123190D01*
X127147365Y-140123195D01*
X126961650Y-140249813D01*
X126895171Y-140271313D01*
X126829800Y-140254747D01*
X126793186Y-140233608D01*
X126665892Y-140199500D01*
X126534108Y-140199500D01*
X126406812Y-140233608D01*
X126292686Y-140299500D01*
X126292683Y-140299502D01*
X126287681Y-140304505D01*
X126226358Y-140337990D01*
X126156666Y-140333006D01*
X126112319Y-140304505D01*
X126107316Y-140299502D01*
X126107314Y-140299500D01*
X126021254Y-140249813D01*
X125993187Y-140233608D01*
X125929539Y-140216554D01*
X125865892Y-140199500D01*
X125734108Y-140199500D01*
X125606812Y-140233608D01*
X125492686Y-140299500D01*
X125492683Y-140299502D01*
X125487681Y-140304505D01*
X125426358Y-140337990D01*
X125356666Y-140333006D01*
X125312319Y-140304505D01*
X125307316Y-140299502D01*
X125307314Y-140299500D01*
X125221254Y-140249813D01*
X125193187Y-140233608D01*
X125129539Y-140216554D01*
X125065892Y-140199500D01*
X124934108Y-140199500D01*
X124806814Y-140233608D01*
X124806809Y-140233610D01*
X124770198Y-140254747D01*
X124702298Y-140271218D01*
X124638349Y-140249813D01*
X124452634Y-140123195D01*
X124452626Y-140123190D01*
X124223006Y-140012612D01*
X124223008Y-140012612D01*
X123979466Y-139937489D01*
X123979462Y-139937488D01*
X123979458Y-139937487D01*
X123858231Y-139919214D01*
X123727440Y-139899500D01*
X123727435Y-139899500D01*
X123665892Y-139899500D01*
X105184555Y-139899500D01*
X105117516Y-139879815D01*
X105071761Y-139827011D01*
X105061817Y-139757853D01*
X105090842Y-139694297D01*
X105128261Y-139665015D01*
X105138790Y-139659650D01*
X105147816Y-139655051D01*
X105234138Y-139592335D01*
X105319786Y-139530109D01*
X105319788Y-139530106D01*
X105319792Y-139530104D01*
X105470104Y-139379792D01*
X105470106Y-139379788D01*
X105470109Y-139379786D01*
X105595048Y-139207820D01*
X105595047Y-139207820D01*
X105595051Y-139207816D01*
X105691557Y-139018412D01*
X105757246Y-138816243D01*
X105790500Y-138606287D01*
X105790500Y-138393713D01*
X105757246Y-138183757D01*
X105691557Y-137981588D01*
X105595051Y-137792184D01*
X105595049Y-137792181D01*
X105595048Y-137792179D01*
X105470109Y-137620213D01*
X105319786Y-137469890D01*
X105147820Y-137344951D01*
X104958414Y-137248444D01*
X104958413Y-137248443D01*
X104958412Y-137248443D01*
X104756243Y-137182754D01*
X104756241Y-137182753D01*
X104756240Y-137182753D01*
X104594957Y-137157208D01*
X104546287Y-137149500D01*
X104333713Y-137149500D01*
X104285042Y-137157208D01*
X104123760Y-137182753D01*
X103921585Y-137248444D01*
X103732179Y-137344951D01*
X103560215Y-137469889D01*
X103446673Y-137583431D01*
X103385350Y-137616915D01*
X103315658Y-137611931D01*
X103259725Y-137570059D01*
X103242810Y-137539082D01*
X103193797Y-137407671D01*
X103193793Y-137407664D01*
X103107547Y-137292455D01*
X103107544Y-137292452D01*
X102992335Y-137206206D01*
X102992328Y-137206202D01*
X102857482Y-137155908D01*
X102857483Y-137155908D01*
X102797883Y-137149501D01*
X102797881Y-137149500D01*
X102797873Y-137149500D01*
X102797864Y-137149500D01*
X101002129Y-137149500D01*
X101002123Y-137149501D01*
X100942516Y-137155908D01*
X100807671Y-137206202D01*
X100807669Y-137206204D01*
X100698811Y-137287695D01*
X100633347Y-137312112D01*
X100565074Y-137297260D01*
X100515668Y-137247855D01*
X100500500Y-137188428D01*
X100500500Y-132211571D01*
X100520185Y-132144532D01*
X100572989Y-132098777D01*
X100642147Y-132088833D01*
X100698811Y-132112305D01*
X100807664Y-132193793D01*
X100807671Y-132193797D01*
X100942517Y-132244091D01*
X100942516Y-132244091D01*
X100949444Y-132244835D01*
X101002127Y-132250500D01*
X102797872Y-132250499D01*
X102857483Y-132244091D01*
X102992331Y-132193796D01*
X103107546Y-132107546D01*
X103193796Y-131992331D01*
X103242810Y-131860916D01*
X103284681Y-131804984D01*
X103350145Y-131780566D01*
X103418418Y-131795417D01*
X103446673Y-131816569D01*
X103560213Y-131930109D01*
X103732179Y-132055048D01*
X103732181Y-132055049D01*
X103732184Y-132055051D01*
X103921588Y-132151557D01*
X104123757Y-132217246D01*
X104333713Y-132250500D01*
X104333714Y-132250500D01*
X104546286Y-132250500D01*
X104546287Y-132250500D01*
X104756243Y-132217246D01*
X104958412Y-132151557D01*
X105147816Y-132055051D01*
X105234138Y-131992335D01*
X105319786Y-131930109D01*
X105319788Y-131930106D01*
X105319792Y-131930104D01*
X105470104Y-131779792D01*
X105470106Y-131779788D01*
X105470109Y-131779786D01*
X105595048Y-131607820D01*
X105595047Y-131607820D01*
X105595051Y-131607816D01*
X105691557Y-131418412D01*
X105757246Y-131216243D01*
X105790500Y-131006287D01*
X105790500Y-130793713D01*
X105757246Y-130583757D01*
X105691557Y-130381588D01*
X105595051Y-130192184D01*
X105595049Y-130192181D01*
X105595048Y-130192179D01*
X105470109Y-130020213D01*
X105319786Y-129869890D01*
X105147817Y-129744949D01*
X105128261Y-129734985D01*
X105077464Y-129687011D01*
X105060669Y-129619190D01*
X105083206Y-129553055D01*
X105137921Y-129509603D01*
X105184555Y-129500500D01*
X123727435Y-129500500D01*
X123979458Y-129462513D01*
X124223004Y-129387389D01*
X124452634Y-129276805D01*
X124638351Y-129150184D01*
X124704827Y-129128686D01*
X124770200Y-129145253D01*
X124806814Y-129166392D01*
X124934108Y-129200500D01*
X124934110Y-129200500D01*
X125065890Y-129200500D01*
X125065892Y-129200500D01*
X125193186Y-129166392D01*
X125307314Y-129100500D01*
X125312319Y-129095495D01*
X125373642Y-129062010D01*
X125443334Y-129066994D01*
X125487681Y-129095495D01*
X125492686Y-129100500D01*
X125591521Y-129157563D01*
X125606810Y-129166390D01*
X125606814Y-129166392D01*
X125734108Y-129200500D01*
X125734110Y-129200500D01*
X125865890Y-129200500D01*
X125865892Y-129200500D01*
X125993186Y-129166392D01*
X126107314Y-129100500D01*
X126112319Y-129095495D01*
X126173642Y-129062010D01*
X126243334Y-129066994D01*
G37*
%TD.AperFunction*%
%TA.AperFunction,NonConductor*%
G36*
X148203735Y-143300726D02*
G01*
X148216574Y-143301502D01*
X148292405Y-143306089D01*
X148358133Y-143329785D01*
X148400617Y-143385255D01*
X148406367Y-143454888D01*
X148373558Y-143516575D01*
X148341217Y-143540346D01*
X148332180Y-143544950D01*
X148160215Y-143669889D01*
X148046673Y-143783431D01*
X147985350Y-143816915D01*
X147915658Y-143811931D01*
X147859725Y-143770059D01*
X147842810Y-143739082D01*
X147793797Y-143607671D01*
X147793793Y-143607664D01*
X147712305Y-143498811D01*
X147687887Y-143433347D01*
X147702738Y-143365074D01*
X147752143Y-143315668D01*
X147811571Y-143300500D01*
X148134108Y-143300500D01*
X148196249Y-143300500D01*
X148203735Y-143300726D01*
G37*
%TD.AperFunction*%
%TA.AperFunction,NonConductor*%
G36*
X103762484Y-143320185D02*
G01*
X103808239Y-143372989D01*
X103818183Y-143442147D01*
X103789158Y-143505703D01*
X103751739Y-143534985D01*
X103732182Y-143544949D01*
X103560215Y-143669889D01*
X103446673Y-143783431D01*
X103385350Y-143816915D01*
X103315658Y-143811931D01*
X103259725Y-143770059D01*
X103242810Y-143739082D01*
X103193797Y-143607671D01*
X103193793Y-143607664D01*
X103112305Y-143498811D01*
X103087887Y-143433347D01*
X103102738Y-143365074D01*
X103152143Y-143315668D01*
X103211571Y-143300500D01*
X103695445Y-143300500D01*
X103762484Y-143320185D01*
G37*
%TD.AperFunction*%
%TA.AperFunction,NonConductor*%
G36*
X147963578Y-153183488D02*
G01*
X148018418Y-153195417D01*
X148046673Y-153216569D01*
X148160213Y-153330109D01*
X148332181Y-153455050D01*
X148341210Y-153459650D01*
X148343058Y-153461395D01*
X148345536Y-153461963D01*
X148368318Y-153485251D01*
X148392007Y-153507623D01*
X148392618Y-153510090D01*
X148394396Y-153511908D01*
X148400972Y-153543821D01*
X148408804Y-153575444D01*
X148407984Y-153577850D01*
X148408497Y-153580339D01*
X148396778Y-153610735D01*
X148386268Y-153641579D01*
X148384277Y-153643159D01*
X148383363Y-153645532D01*
X148357063Y-153664772D01*
X148331554Y-153685032D01*
X148328391Y-153685749D01*
X148326973Y-153686787D01*
X148292406Y-153693910D01*
X148212299Y-153698756D01*
X148203735Y-153699274D01*
X148196249Y-153699500D01*
X147811571Y-153699500D01*
X147744532Y-153679815D01*
X147698777Y-153627011D01*
X147688833Y-153557853D01*
X147712305Y-153501189D01*
X147793793Y-153392335D01*
X147793792Y-153392335D01*
X147793796Y-153392331D01*
X147842811Y-153260914D01*
X147884682Y-153204983D01*
X147941652Y-153183734D01*
X147950145Y-153180566D01*
X147950146Y-153180566D01*
X147963578Y-153183488D01*
G37*
%TD.AperFunction*%
%TA.AperFunction,NonConductor*%
G36*
X103418418Y-153195417D02*
G01*
X103446673Y-153216569D01*
X103560213Y-153330109D01*
X103732182Y-153455050D01*
X103751739Y-153465015D01*
X103802536Y-153512989D01*
X103819331Y-153580810D01*
X103796794Y-153646945D01*
X103742079Y-153690397D01*
X103695445Y-153699500D01*
X103211571Y-153699500D01*
X103144532Y-153679815D01*
X103098777Y-153627011D01*
X103088833Y-153557853D01*
X103112305Y-153501189D01*
X103193793Y-153392335D01*
X103193792Y-153392335D01*
X103193796Y-153392331D01*
X103242810Y-153260916D01*
X103284681Y-153204984D01*
X103350145Y-153180566D01*
X103418418Y-153195417D01*
G37*
%TD.AperFunction*%
%TA.AperFunction,NonConductor*%
G36*
X126243334Y-142866994D02*
G01*
X126287681Y-142895495D01*
X126292686Y-142900500D01*
X126391521Y-142957563D01*
X126406810Y-142966390D01*
X126406814Y-142966392D01*
X126534108Y-143000500D01*
X126534110Y-143000500D01*
X126665890Y-143000500D01*
X126665892Y-143000500D01*
X126793186Y-142966392D01*
X126793190Y-142966390D01*
X126821255Y-142950186D01*
X126829798Y-142945253D01*
X126897697Y-142928780D01*
X126961648Y-142950185D01*
X127147366Y-143076805D01*
X127147371Y-143076807D01*
X127147372Y-143076808D01*
X127147373Y-143076809D01*
X127269328Y-143135538D01*
X127376992Y-143187387D01*
X127376993Y-143187387D01*
X127376996Y-143187389D01*
X127620542Y-143262513D01*
X127872565Y-143300500D01*
X127934108Y-143300500D01*
X145188429Y-143300500D01*
X145255468Y-143320185D01*
X145301223Y-143372989D01*
X145311167Y-143442147D01*
X145287695Y-143498811D01*
X145206206Y-143607664D01*
X145206202Y-143607671D01*
X145155908Y-143742517D01*
X145149501Y-143802116D01*
X145149500Y-143802135D01*
X145149500Y-145597870D01*
X145149501Y-145597876D01*
X145155908Y-145657483D01*
X145206202Y-145792328D01*
X145206206Y-145792335D01*
X145292452Y-145907544D01*
X145292455Y-145907547D01*
X145407664Y-145993793D01*
X145407671Y-145993797D01*
X145542517Y-146044091D01*
X145542516Y-146044091D01*
X145549444Y-146044835D01*
X145602127Y-146050500D01*
X147397872Y-146050499D01*
X147457483Y-146044091D01*
X147592331Y-145993796D01*
X147707546Y-145907546D01*
X147793796Y-145792331D01*
X147842810Y-145660916D01*
X147884681Y-145604984D01*
X147950145Y-145580566D01*
X148018418Y-145595417D01*
X148046673Y-145616569D01*
X148160213Y-145730109D01*
X148332179Y-145855048D01*
X148332181Y-145855049D01*
X148332184Y-145855051D01*
X148521588Y-145951557D01*
X148723757Y-146017246D01*
X148933713Y-146050500D01*
X148933714Y-146050500D01*
X149146286Y-146050500D01*
X149146287Y-146050500D01*
X149356243Y-146017246D01*
X149558412Y-145951557D01*
X149747816Y-145855051D01*
X149834138Y-145792335D01*
X149919786Y-145730109D01*
X149919788Y-145730106D01*
X149919792Y-145730104D01*
X150070104Y-145579792D01*
X150070106Y-145579788D01*
X150070109Y-145579786D01*
X150195048Y-145407820D01*
X150195047Y-145407820D01*
X150195051Y-145407816D01*
X150250040Y-145299892D01*
X150251784Y-145298045D01*
X150252352Y-145295569D01*
X150275636Y-145272790D01*
X150298014Y-145249097D01*
X150300481Y-145248485D01*
X150302297Y-145246710D01*
X150334197Y-145240136D01*
X150365835Y-145232302D01*
X150368240Y-145233121D01*
X150370729Y-145232609D01*
X150401126Y-145244328D01*
X150431970Y-145254839D01*
X150433550Y-145256829D01*
X150435921Y-145257743D01*
X150455158Y-145284038D01*
X150475422Y-145309554D01*
X150476138Y-145312715D01*
X150477176Y-145314133D01*
X150484299Y-145348701D01*
X150499274Y-145596263D01*
X150499500Y-145603750D01*
X150499500Y-146327440D01*
X150503753Y-146355653D01*
X150537487Y-146579458D01*
X150537488Y-146579460D01*
X150537489Y-146579466D01*
X150612612Y-146823007D01*
X150723190Y-147052626D01*
X150723195Y-147052634D01*
X150849813Y-147238349D01*
X150871313Y-147304828D01*
X150854747Y-147370198D01*
X150833610Y-147406809D01*
X150833608Y-147406814D01*
X150799500Y-147534108D01*
X150799500Y-147665891D01*
X150833608Y-147793187D01*
X150860174Y-147839199D01*
X150899500Y-147907314D01*
X150899502Y-147907316D01*
X150904505Y-147912319D01*
X150937990Y-147973642D01*
X150933006Y-148043334D01*
X150904505Y-148087681D01*
X150899502Y-148092683D01*
X150899500Y-148092686D01*
X150833608Y-148206812D01*
X150799500Y-148334108D01*
X150799500Y-148465891D01*
X150833608Y-148593187D01*
X150866554Y-148650250D01*
X150899500Y-148707314D01*
X150899502Y-148707316D01*
X150904505Y-148712319D01*
X150937990Y-148773642D01*
X150933006Y-148843334D01*
X150904505Y-148887681D01*
X150899502Y-148892683D01*
X150899500Y-148892686D01*
X150833608Y-149006812D01*
X150799500Y-149134108D01*
X150799500Y-149265891D01*
X150833608Y-149393185D01*
X150833608Y-149393186D01*
X150854747Y-149429800D01*
X150871218Y-149497700D01*
X150849813Y-149561650D01*
X150723195Y-149747365D01*
X150723190Y-149747373D01*
X150612612Y-149976992D01*
X150537489Y-150220533D01*
X150537488Y-150220538D01*
X150537487Y-150220542D01*
X150526038Y-150296498D01*
X150499500Y-150472559D01*
X150499500Y-151396249D01*
X150499274Y-151403736D01*
X150484299Y-151651298D01*
X150460602Y-151717027D01*
X150405132Y-151759510D01*
X150335499Y-151765259D01*
X150273812Y-151732450D01*
X150250040Y-151700106D01*
X150225171Y-151651298D01*
X150195051Y-151592184D01*
X150181093Y-151572972D01*
X150070109Y-151420213D01*
X149919786Y-151269890D01*
X149747820Y-151144951D01*
X149558414Y-151048444D01*
X149558413Y-151048443D01*
X149558412Y-151048443D01*
X149356243Y-150982754D01*
X149356241Y-150982753D01*
X149356240Y-150982753D01*
X149194957Y-150957208D01*
X149146287Y-150949500D01*
X148933713Y-150949500D01*
X148885042Y-150957208D01*
X148723760Y-150982753D01*
X148521585Y-151048444D01*
X148332179Y-151144951D01*
X148160215Y-151269889D01*
X148046673Y-151383431D01*
X147985350Y-151416915D01*
X147915658Y-151411931D01*
X147859725Y-151370059D01*
X147842810Y-151339082D01*
X147793797Y-151207671D01*
X147793793Y-151207664D01*
X147707547Y-151092455D01*
X147707544Y-151092452D01*
X147592335Y-151006206D01*
X147592328Y-151006202D01*
X147457482Y-150955908D01*
X147457483Y-150955908D01*
X147397883Y-150949501D01*
X147397881Y-150949500D01*
X147397873Y-150949500D01*
X147397864Y-150949500D01*
X145602129Y-150949500D01*
X145602123Y-150949501D01*
X145542516Y-150955908D01*
X145407671Y-151006202D01*
X145407664Y-151006206D01*
X145292455Y-151092452D01*
X145292452Y-151092455D01*
X145206206Y-151207664D01*
X145206202Y-151207671D01*
X145155908Y-151342517D01*
X145149501Y-151402116D01*
X145149500Y-151402135D01*
X145149500Y-153197870D01*
X145149501Y-153197876D01*
X145155908Y-153257483D01*
X145206202Y-153392328D01*
X145206206Y-153392335D01*
X145287695Y-153501189D01*
X145312113Y-153566653D01*
X145297262Y-153634926D01*
X145247857Y-153684332D01*
X145188429Y-153699500D01*
X127872559Y-153699500D01*
X127715609Y-153723157D01*
X127620542Y-153737487D01*
X127620539Y-153737488D01*
X127620533Y-153737489D01*
X127376992Y-153812612D01*
X127147373Y-153923190D01*
X127147365Y-153923195D01*
X126961650Y-154049813D01*
X126895171Y-154071313D01*
X126829800Y-154054747D01*
X126793186Y-154033608D01*
X126665892Y-153999500D01*
X126534108Y-153999500D01*
X126406812Y-154033608D01*
X126292686Y-154099500D01*
X126292683Y-154099502D01*
X126287681Y-154104505D01*
X126226358Y-154137990D01*
X126156666Y-154133006D01*
X126112319Y-154104505D01*
X126107316Y-154099502D01*
X126107314Y-154099500D01*
X126021254Y-154049813D01*
X125993187Y-154033608D01*
X125929539Y-154016554D01*
X125865892Y-153999500D01*
X125734108Y-153999500D01*
X125606812Y-154033608D01*
X125492686Y-154099500D01*
X125492683Y-154099502D01*
X125487681Y-154104505D01*
X125426358Y-154137990D01*
X125356666Y-154133006D01*
X125312319Y-154104505D01*
X125307316Y-154099502D01*
X125307314Y-154099500D01*
X125221254Y-154049813D01*
X125193187Y-154033608D01*
X125129539Y-154016554D01*
X125065892Y-153999500D01*
X124934108Y-153999500D01*
X124806814Y-154033608D01*
X124806809Y-154033610D01*
X124770198Y-154054747D01*
X124702298Y-154071218D01*
X124638349Y-154049813D01*
X124452634Y-153923195D01*
X124452626Y-153923190D01*
X124223006Y-153812612D01*
X124223008Y-153812612D01*
X123979466Y-153737489D01*
X123979462Y-153737488D01*
X123979458Y-153737487D01*
X123858231Y-153719214D01*
X123727440Y-153699500D01*
X123727435Y-153699500D01*
X123665892Y-153699500D01*
X105184555Y-153699500D01*
X105117516Y-153679815D01*
X105071761Y-153627011D01*
X105061817Y-153557853D01*
X105090842Y-153494297D01*
X105128261Y-153465015D01*
X105138790Y-153459650D01*
X105147816Y-153455051D01*
X105234138Y-153392335D01*
X105319786Y-153330109D01*
X105319788Y-153330106D01*
X105319792Y-153330104D01*
X105470104Y-153179792D01*
X105470106Y-153179788D01*
X105470109Y-153179786D01*
X105595048Y-153007820D01*
X105595047Y-153007820D01*
X105595051Y-153007816D01*
X105691557Y-152818412D01*
X105757246Y-152616243D01*
X105790500Y-152406287D01*
X105790500Y-152193713D01*
X105757246Y-151983757D01*
X105691557Y-151781588D01*
X105595051Y-151592184D01*
X105595049Y-151592181D01*
X105595048Y-151592179D01*
X105470109Y-151420213D01*
X105319786Y-151269890D01*
X105147820Y-151144951D01*
X104958414Y-151048444D01*
X104958413Y-151048443D01*
X104958412Y-151048443D01*
X104756243Y-150982754D01*
X104756241Y-150982753D01*
X104756240Y-150982753D01*
X104594957Y-150957208D01*
X104546287Y-150949500D01*
X104333713Y-150949500D01*
X104285042Y-150957208D01*
X104123760Y-150982753D01*
X103921585Y-151048444D01*
X103732179Y-151144951D01*
X103560215Y-151269889D01*
X103446673Y-151383431D01*
X103385350Y-151416915D01*
X103315658Y-151411931D01*
X103259725Y-151370059D01*
X103242810Y-151339082D01*
X103193797Y-151207671D01*
X103193793Y-151207664D01*
X103107547Y-151092455D01*
X103107544Y-151092452D01*
X102992335Y-151006206D01*
X102992328Y-151006202D01*
X102857482Y-150955908D01*
X102857483Y-150955908D01*
X102797883Y-150949501D01*
X102797881Y-150949500D01*
X102797873Y-150949500D01*
X102797864Y-150949500D01*
X101002129Y-150949500D01*
X101002123Y-150949501D01*
X100942516Y-150955908D01*
X100807671Y-151006202D01*
X100807669Y-151006204D01*
X100698811Y-151087695D01*
X100633347Y-151112112D01*
X100565074Y-151097260D01*
X100515668Y-151047855D01*
X100500500Y-150988428D01*
X100500500Y-146011571D01*
X100520185Y-145944532D01*
X100572989Y-145898777D01*
X100642147Y-145888833D01*
X100698811Y-145912305D01*
X100807664Y-145993793D01*
X100807671Y-145993797D01*
X100942517Y-146044091D01*
X100942516Y-146044091D01*
X100949444Y-146044835D01*
X101002127Y-146050500D01*
X102797872Y-146050499D01*
X102857483Y-146044091D01*
X102992331Y-145993796D01*
X103107546Y-145907546D01*
X103193796Y-145792331D01*
X103242810Y-145660916D01*
X103284681Y-145604984D01*
X103350145Y-145580566D01*
X103418418Y-145595417D01*
X103446673Y-145616569D01*
X103560213Y-145730109D01*
X103732179Y-145855048D01*
X103732181Y-145855049D01*
X103732184Y-145855051D01*
X103921588Y-145951557D01*
X104123757Y-146017246D01*
X104333713Y-146050500D01*
X104333714Y-146050500D01*
X104546286Y-146050500D01*
X104546287Y-146050500D01*
X104756243Y-146017246D01*
X104958412Y-145951557D01*
X105147816Y-145855051D01*
X105234138Y-145792335D01*
X105319786Y-145730109D01*
X105319788Y-145730106D01*
X105319792Y-145730104D01*
X105470104Y-145579792D01*
X105470106Y-145579788D01*
X105470109Y-145579786D01*
X105595048Y-145407820D01*
X105595047Y-145407820D01*
X105595051Y-145407816D01*
X105691557Y-145218412D01*
X105757246Y-145016243D01*
X105790500Y-144806287D01*
X105790500Y-144593713D01*
X105757246Y-144383757D01*
X105691557Y-144181588D01*
X105595051Y-143992184D01*
X105595049Y-143992181D01*
X105595048Y-143992179D01*
X105470109Y-143820213D01*
X105319786Y-143669890D01*
X105147817Y-143544949D01*
X105128261Y-143534985D01*
X105077464Y-143487011D01*
X105060669Y-143419190D01*
X105083206Y-143353055D01*
X105137921Y-143309603D01*
X105184555Y-143300500D01*
X123727435Y-143300500D01*
X123979458Y-143262513D01*
X124223004Y-143187389D01*
X124452634Y-143076805D01*
X124638351Y-142950184D01*
X124704827Y-142928686D01*
X124770200Y-142945253D01*
X124806814Y-142966392D01*
X124934108Y-143000500D01*
X124934110Y-143000500D01*
X125065890Y-143000500D01*
X125065892Y-143000500D01*
X125193186Y-142966392D01*
X125307314Y-142900500D01*
X125312319Y-142895495D01*
X125373642Y-142862010D01*
X125443334Y-142866994D01*
X125487681Y-142895495D01*
X125492686Y-142900500D01*
X125591521Y-142957563D01*
X125606810Y-142966390D01*
X125606814Y-142966392D01*
X125734108Y-143000500D01*
X125734110Y-143000500D01*
X125865890Y-143000500D01*
X125865892Y-143000500D01*
X125993186Y-142966392D01*
X126107314Y-142900500D01*
X126112319Y-142895495D01*
X126173642Y-142862010D01*
X126243334Y-142866994D01*
G37*
%TD.AperFunction*%
%TA.AperFunction,NonConductor*%
G36*
X164241576Y-62613729D02*
G01*
X164285031Y-62668442D01*
X164293910Y-62707593D01*
X164299274Y-62796262D01*
X164299500Y-62803750D01*
X164299500Y-63188428D01*
X164279815Y-63255467D01*
X164227011Y-63301222D01*
X164157853Y-63311166D01*
X164101189Y-63287695D01*
X164047969Y-63247855D01*
X163992331Y-63206204D01*
X163992329Y-63206203D01*
X163992328Y-63206202D01*
X163860917Y-63157189D01*
X163804983Y-63115318D01*
X163780566Y-63049853D01*
X163795418Y-62981580D01*
X163816563Y-62953332D01*
X163930104Y-62839792D01*
X163956290Y-62803750D01*
X164055048Y-62667821D01*
X164055051Y-62667816D01*
X164059650Y-62658789D01*
X164107620Y-62607993D01*
X164175440Y-62591194D01*
X164241576Y-62613729D01*
G37*
%TD.AperFunction*%
%TA.AperFunction,NonConductor*%
G36*
X154057132Y-62594825D02*
G01*
X154059669Y-62594717D01*
X154087794Y-62611133D01*
X154116575Y-62626441D01*
X154118495Y-62629053D01*
X154120012Y-62629939D01*
X154140347Y-62658785D01*
X154144949Y-62667817D01*
X154269890Y-62839786D01*
X154383430Y-62953326D01*
X154416915Y-63014649D01*
X154411931Y-63084341D01*
X154370059Y-63140274D01*
X154339083Y-63157189D01*
X154207669Y-63206203D01*
X154207669Y-63206204D01*
X154098811Y-63287695D01*
X154033347Y-63312112D01*
X153965074Y-63297260D01*
X153915668Y-63247855D01*
X153900500Y-63188428D01*
X153900500Y-62803750D01*
X153900726Y-62796264D01*
X153900861Y-62794021D01*
X153906089Y-62707593D01*
X153906950Y-62705204D01*
X153906482Y-62702708D01*
X153918731Y-62672526D01*
X153929785Y-62641866D01*
X153931802Y-62640320D01*
X153932758Y-62637967D01*
X153959382Y-62619197D01*
X153985255Y-62599382D01*
X153987787Y-62599172D01*
X153989864Y-62597709D01*
X154022407Y-62596314D01*
X154054888Y-62593632D01*
X154057132Y-62594825D01*
G37*
%TD.AperFunction*%
%TA.AperFunction,NonConductor*%
G36*
X164246945Y-107203206D02*
G01*
X164290397Y-107257921D01*
X164299500Y-107304555D01*
X164299500Y-107788428D01*
X164279815Y-107855467D01*
X164227011Y-107901222D01*
X164157853Y-107911166D01*
X164101189Y-107887695D01*
X164047969Y-107847855D01*
X163992331Y-107806204D01*
X163992329Y-107806203D01*
X163992328Y-107806202D01*
X163860917Y-107757189D01*
X163804983Y-107715318D01*
X163780566Y-107649853D01*
X163795418Y-107581580D01*
X163816563Y-107553332D01*
X163930104Y-107439792D01*
X164055051Y-107267816D01*
X164065015Y-107248261D01*
X164112989Y-107197464D01*
X164180810Y-107180669D01*
X164246945Y-107203206D01*
G37*
%TD.AperFunction*%
%TA.AperFunction,NonConductor*%
G36*
X154105703Y-107210842D02*
G01*
X154134985Y-107248261D01*
X154144949Y-107267817D01*
X154269890Y-107439786D01*
X154383430Y-107553326D01*
X154416915Y-107614649D01*
X154411931Y-107684341D01*
X154370059Y-107740274D01*
X154339083Y-107757189D01*
X154207669Y-107806203D01*
X154207669Y-107806204D01*
X154098811Y-107887695D01*
X154033347Y-107912112D01*
X153965074Y-107897260D01*
X153915668Y-107847855D01*
X153900500Y-107788428D01*
X153900500Y-107304555D01*
X153920185Y-107237516D01*
X153972989Y-107191761D01*
X154042147Y-107181817D01*
X154105703Y-107210842D01*
G37*
%TD.AperFunction*%
%TA.AperFunction,NonConductor*%
G36*
X162003736Y-60500726D02*
G01*
X162251300Y-60515700D01*
X162317026Y-60539396D01*
X162359510Y-60594867D01*
X162365260Y-60664499D01*
X162332450Y-60726187D01*
X162300107Y-60749958D01*
X162192182Y-60804949D01*
X162020213Y-60929890D01*
X161869890Y-61080213D01*
X161744951Y-61252179D01*
X161648444Y-61441585D01*
X161582753Y-61643760D01*
X161549500Y-61853713D01*
X161549500Y-62066286D01*
X161582753Y-62276239D01*
X161648444Y-62478414D01*
X161744951Y-62667820D01*
X161869890Y-62839786D01*
X161983430Y-62953326D01*
X162016915Y-63014649D01*
X162011931Y-63084341D01*
X161970059Y-63140274D01*
X161939083Y-63157189D01*
X161807669Y-63206203D01*
X161807664Y-63206206D01*
X161692455Y-63292452D01*
X161692452Y-63292455D01*
X161606206Y-63407664D01*
X161606202Y-63407671D01*
X161555908Y-63542517D01*
X161549501Y-63602116D01*
X161549501Y-63602123D01*
X161549500Y-63602135D01*
X161549500Y-65397870D01*
X161549501Y-65397876D01*
X161555908Y-65457483D01*
X161606202Y-65592328D01*
X161606206Y-65592335D01*
X161692452Y-65707544D01*
X161692455Y-65707547D01*
X161807664Y-65793793D01*
X161807671Y-65793797D01*
X161942517Y-65844091D01*
X161942516Y-65844091D01*
X161949444Y-65844835D01*
X162002127Y-65850500D01*
X163797872Y-65850499D01*
X163857483Y-65844091D01*
X163992331Y-65793796D01*
X164101189Y-65712305D01*
X164166653Y-65687887D01*
X164234926Y-65702738D01*
X164284332Y-65752143D01*
X164299500Y-65811571D01*
X164299500Y-83127440D01*
X164303753Y-83155653D01*
X164337487Y-83379458D01*
X164337488Y-83379460D01*
X164337489Y-83379466D01*
X164412612Y-83623007D01*
X164523190Y-83852626D01*
X164523195Y-83852634D01*
X164649813Y-84038349D01*
X164671313Y-84104828D01*
X164654747Y-84170198D01*
X164633610Y-84206809D01*
X164633608Y-84206814D01*
X164599500Y-84334108D01*
X164599500Y-84465891D01*
X164633608Y-84593187D01*
X164660174Y-84639199D01*
X164699500Y-84707314D01*
X164699502Y-84707316D01*
X164704505Y-84712319D01*
X164737990Y-84773642D01*
X164733006Y-84843334D01*
X164704505Y-84887681D01*
X164699502Y-84892683D01*
X164699500Y-84892686D01*
X164633608Y-85006812D01*
X164599500Y-85134108D01*
X164599500Y-85265891D01*
X164633608Y-85393187D01*
X164666554Y-85450250D01*
X164699500Y-85507314D01*
X164699502Y-85507316D01*
X164704505Y-85512319D01*
X164737990Y-85573642D01*
X164733006Y-85643334D01*
X164704505Y-85687681D01*
X164699502Y-85692683D01*
X164699500Y-85692686D01*
X164633608Y-85806812D01*
X164599500Y-85934108D01*
X164599500Y-86065891D01*
X164633608Y-86193185D01*
X164633608Y-86193186D01*
X164654747Y-86229800D01*
X164671218Y-86297700D01*
X164649813Y-86361650D01*
X164523195Y-86547365D01*
X164523190Y-86547373D01*
X164412612Y-86776992D01*
X164337489Y-87020533D01*
X164337488Y-87020538D01*
X164337487Y-87020542D01*
X164326038Y-87096498D01*
X164299500Y-87272559D01*
X164299500Y-105815444D01*
X164279815Y-105882483D01*
X164227011Y-105928238D01*
X164157853Y-105938182D01*
X164094297Y-105909157D01*
X164065016Y-105871740D01*
X164055050Y-105852182D01*
X163930109Y-105680213D01*
X163779786Y-105529890D01*
X163607820Y-105404951D01*
X163418414Y-105308444D01*
X163418413Y-105308443D01*
X163418412Y-105308443D01*
X163216243Y-105242754D01*
X163216241Y-105242753D01*
X163216240Y-105242753D01*
X163054957Y-105217208D01*
X163006287Y-105209500D01*
X162793713Y-105209500D01*
X162745042Y-105217208D01*
X162583760Y-105242753D01*
X162381585Y-105308444D01*
X162192179Y-105404951D01*
X162020213Y-105529890D01*
X161869890Y-105680213D01*
X161744951Y-105852179D01*
X161648444Y-106041585D01*
X161582753Y-106243760D01*
X161549500Y-106453713D01*
X161549500Y-106666286D01*
X161582753Y-106876239D01*
X161648444Y-107078414D01*
X161744951Y-107267820D01*
X161869890Y-107439786D01*
X161983430Y-107553326D01*
X162016915Y-107614649D01*
X162011931Y-107684341D01*
X161970059Y-107740274D01*
X161939083Y-107757189D01*
X161807669Y-107806203D01*
X161807664Y-107806206D01*
X161692455Y-107892452D01*
X161692452Y-107892455D01*
X161606206Y-108007664D01*
X161606202Y-108007671D01*
X161555908Y-108142517D01*
X161549501Y-108202116D01*
X161549501Y-108202123D01*
X161549500Y-108202135D01*
X161549500Y-109997870D01*
X161549501Y-109997876D01*
X161555908Y-110057483D01*
X161606202Y-110192328D01*
X161606206Y-110192335D01*
X161687695Y-110301189D01*
X161712113Y-110366653D01*
X161697262Y-110434926D01*
X161647857Y-110484332D01*
X161588429Y-110499500D01*
X156611571Y-110499500D01*
X156544532Y-110479815D01*
X156498777Y-110427011D01*
X156488833Y-110357853D01*
X156512305Y-110301189D01*
X156593793Y-110192335D01*
X156593792Y-110192335D01*
X156593796Y-110192331D01*
X156644091Y-110057483D01*
X156650500Y-109997873D01*
X156650499Y-108202128D01*
X156644091Y-108142517D01*
X156593796Y-108007669D01*
X156593795Y-108007668D01*
X156593793Y-108007664D01*
X156507547Y-107892455D01*
X156507544Y-107892452D01*
X156392335Y-107806206D01*
X156392328Y-107806202D01*
X156260917Y-107757189D01*
X156204983Y-107715318D01*
X156180566Y-107649853D01*
X156195418Y-107581580D01*
X156216563Y-107553332D01*
X156330104Y-107439792D01*
X156455051Y-107267816D01*
X156551557Y-107078412D01*
X156617246Y-106876243D01*
X156650500Y-106666287D01*
X156650500Y-106453713D01*
X156617246Y-106243757D01*
X156551557Y-106041588D01*
X156455051Y-105852184D01*
X156455049Y-105852181D01*
X156455048Y-105852179D01*
X156330109Y-105680213D01*
X156179786Y-105529890D01*
X156007820Y-105404951D01*
X155818414Y-105308444D01*
X155818413Y-105308443D01*
X155818412Y-105308443D01*
X155616243Y-105242754D01*
X155616241Y-105242753D01*
X155616240Y-105242753D01*
X155454957Y-105217208D01*
X155406287Y-105209500D01*
X155193713Y-105209500D01*
X155145042Y-105217208D01*
X154983760Y-105242753D01*
X154781585Y-105308444D01*
X154592179Y-105404951D01*
X154420213Y-105529890D01*
X154269890Y-105680213D01*
X154144949Y-105852182D01*
X154134984Y-105871740D01*
X154087009Y-105922536D01*
X154019188Y-105939330D01*
X153953053Y-105916792D01*
X153909602Y-105862076D01*
X153900500Y-105815444D01*
X153900500Y-95272564D01*
X153900499Y-95272559D01*
X153862513Y-95020542D01*
X153787389Y-94776996D01*
X153758996Y-94718038D01*
X153676809Y-94547373D01*
X153676808Y-94547372D01*
X153676807Y-94547371D01*
X153676805Y-94547366D01*
X153550185Y-94361649D01*
X153528686Y-94295171D01*
X153545254Y-94229797D01*
X153566391Y-94193188D01*
X153566392Y-94193186D01*
X153600500Y-94065892D01*
X153600500Y-93934108D01*
X153566392Y-93806814D01*
X153500500Y-93692686D01*
X153495495Y-93687681D01*
X153462010Y-93626358D01*
X153466994Y-93556666D01*
X153495495Y-93512319D01*
X153500500Y-93507314D01*
X153566392Y-93393186D01*
X153600500Y-93265892D01*
X153600500Y-93134108D01*
X153566392Y-93006814D01*
X153500500Y-92892686D01*
X153495495Y-92887681D01*
X153462010Y-92826358D01*
X153466994Y-92756666D01*
X153495495Y-92712319D01*
X153500500Y-92707314D01*
X153566392Y-92593186D01*
X153600500Y-92465892D01*
X153600500Y-92334108D01*
X153566392Y-92206814D01*
X153545253Y-92170200D01*
X153528780Y-92102300D01*
X153550184Y-92038352D01*
X153676805Y-91852634D01*
X153787389Y-91623004D01*
X153862513Y-91379458D01*
X153900500Y-91127435D01*
X153900500Y-91000000D01*
X153900500Y-90934108D01*
X153900500Y-81534108D01*
X153900500Y-81472565D01*
X153862513Y-81220542D01*
X153787389Y-80976996D01*
X153758996Y-80918038D01*
X153676809Y-80747373D01*
X153676808Y-80747372D01*
X153676807Y-80747371D01*
X153676805Y-80747366D01*
X153550185Y-80561649D01*
X153528686Y-80495171D01*
X153545254Y-80429797D01*
X153566391Y-80393188D01*
X153566392Y-80393186D01*
X153600500Y-80265892D01*
X153600500Y-80134108D01*
X153566392Y-80006814D01*
X153500500Y-79892686D01*
X153495495Y-79887681D01*
X153462010Y-79826358D01*
X153466994Y-79756666D01*
X153495495Y-79712319D01*
X153500500Y-79707314D01*
X153566392Y-79593186D01*
X153600500Y-79465892D01*
X153600500Y-79334108D01*
X153566392Y-79206814D01*
X153500500Y-79092686D01*
X153495495Y-79087681D01*
X153462010Y-79026358D01*
X153466994Y-78956666D01*
X153495495Y-78912319D01*
X153500500Y-78907314D01*
X153566392Y-78793186D01*
X153600500Y-78665892D01*
X153600500Y-78534108D01*
X153566392Y-78406814D01*
X153545253Y-78370200D01*
X153528780Y-78302300D01*
X153550184Y-78238352D01*
X153676805Y-78052634D01*
X153787389Y-77823004D01*
X153862513Y-77579458D01*
X153900500Y-77327435D01*
X153900500Y-77200000D01*
X153900500Y-77134108D01*
X153900500Y-67734108D01*
X153900500Y-67672565D01*
X153862513Y-67420542D01*
X153787389Y-67176996D01*
X153758996Y-67118038D01*
X153676809Y-66947373D01*
X153676808Y-66947372D01*
X153676807Y-66947371D01*
X153676805Y-66947366D01*
X153550185Y-66761649D01*
X153528686Y-66695171D01*
X153545254Y-66629797D01*
X153566391Y-66593188D01*
X153566392Y-66593186D01*
X153600500Y-66465892D01*
X153600500Y-66334108D01*
X153566392Y-66206814D01*
X153500500Y-66092686D01*
X153495495Y-66087681D01*
X153462010Y-66026358D01*
X153466994Y-65956666D01*
X153495495Y-65912319D01*
X153500500Y-65907314D01*
X153566392Y-65793186D01*
X153600500Y-65665892D01*
X153600500Y-65534108D01*
X153566392Y-65406814D01*
X153500500Y-65292686D01*
X153495495Y-65287681D01*
X153462010Y-65226358D01*
X153466994Y-65156666D01*
X153495495Y-65112319D01*
X153500500Y-65107314D01*
X153566392Y-64993186D01*
X153600500Y-64865892D01*
X153600500Y-64734108D01*
X153566392Y-64606814D01*
X153545253Y-64570200D01*
X153528780Y-64502300D01*
X153550184Y-64438352D01*
X153676805Y-64252634D01*
X153713781Y-64175850D01*
X153760602Y-64123994D01*
X153828028Y-64105681D01*
X153894653Y-64126728D01*
X153939321Y-64180454D01*
X153949500Y-64229655D01*
X153949500Y-65397870D01*
X153949501Y-65397876D01*
X153955908Y-65457483D01*
X154006202Y-65592328D01*
X154006206Y-65592335D01*
X154092452Y-65707544D01*
X154092455Y-65707547D01*
X154207664Y-65793793D01*
X154207671Y-65793797D01*
X154342517Y-65844091D01*
X154342516Y-65844091D01*
X154349444Y-65844835D01*
X154402127Y-65850500D01*
X156197872Y-65850499D01*
X156257483Y-65844091D01*
X156392331Y-65793796D01*
X156507546Y-65707546D01*
X156593796Y-65592331D01*
X156644091Y-65457483D01*
X156650500Y-65397873D01*
X156650499Y-63602128D01*
X156644091Y-63542517D01*
X156593796Y-63407669D01*
X156593795Y-63407668D01*
X156593793Y-63407664D01*
X156507547Y-63292455D01*
X156507544Y-63292452D01*
X156392335Y-63206206D01*
X156392328Y-63206202D01*
X156260917Y-63157189D01*
X156204983Y-63115318D01*
X156180566Y-63049853D01*
X156195418Y-62981580D01*
X156216563Y-62953332D01*
X156330104Y-62839792D01*
X156455051Y-62667816D01*
X156551557Y-62478412D01*
X156617246Y-62276243D01*
X156650500Y-62066287D01*
X156650500Y-61853713D01*
X156617246Y-61643757D01*
X156551557Y-61441588D01*
X156455051Y-61252184D01*
X156455049Y-61252181D01*
X156455048Y-61252179D01*
X156330109Y-61080213D01*
X156179786Y-60929890D01*
X156007819Y-60804951D01*
X156007818Y-60804950D01*
X156007816Y-60804949D01*
X155959200Y-60780178D01*
X155899893Y-60749959D01*
X155898045Y-60748214D01*
X155895569Y-60747647D01*
X155872783Y-60724355D01*
X155849097Y-60701984D01*
X155848486Y-60699517D01*
X155846709Y-60697701D01*
X155840133Y-60665787D01*
X155832302Y-60634163D01*
X155833121Y-60631757D01*
X155832609Y-60629269D01*
X155844332Y-60598859D01*
X155854840Y-60568028D01*
X155856828Y-60566448D01*
X155857743Y-60564077D01*
X155884046Y-60544833D01*
X155909555Y-60524577D01*
X155912716Y-60523860D01*
X155914134Y-60522823D01*
X155948695Y-60515701D01*
X156196264Y-60500726D01*
X156203751Y-60500500D01*
X156265892Y-60500500D01*
X156734108Y-60500500D01*
X161134108Y-60500500D01*
X161934108Y-60500500D01*
X161996249Y-60500500D01*
X162003736Y-60500726D01*
G37*
%TD.AperFunction*%
%TA.AperFunction,NonConductor*%
G36*
X178041576Y-62613729D02*
G01*
X178085031Y-62668442D01*
X178093910Y-62707593D01*
X178099274Y-62796262D01*
X178099500Y-62803750D01*
X178099500Y-63188428D01*
X178079815Y-63255467D01*
X178027011Y-63301222D01*
X177957853Y-63311166D01*
X177901189Y-63287695D01*
X177847969Y-63247855D01*
X177792331Y-63206204D01*
X177792329Y-63206203D01*
X177792328Y-63206202D01*
X177660917Y-63157189D01*
X177604983Y-63115318D01*
X177580566Y-63049853D01*
X177595418Y-62981580D01*
X177616563Y-62953332D01*
X177730104Y-62839792D01*
X177756290Y-62803750D01*
X177855048Y-62667821D01*
X177855051Y-62667816D01*
X177859650Y-62658789D01*
X177907620Y-62607993D01*
X177975440Y-62591194D01*
X178041576Y-62613729D01*
G37*
%TD.AperFunction*%
%TA.AperFunction,NonConductor*%
G36*
X167857132Y-62594825D02*
G01*
X167859669Y-62594717D01*
X167887794Y-62611133D01*
X167916575Y-62626441D01*
X167918495Y-62629053D01*
X167920012Y-62629939D01*
X167940347Y-62658785D01*
X167944949Y-62667817D01*
X168069890Y-62839786D01*
X168183430Y-62953326D01*
X168216915Y-63014649D01*
X168211931Y-63084341D01*
X168170059Y-63140274D01*
X168139083Y-63157189D01*
X168007669Y-63206203D01*
X168007669Y-63206204D01*
X167898811Y-63287695D01*
X167833347Y-63312112D01*
X167765074Y-63297260D01*
X167715668Y-63247855D01*
X167700500Y-63188428D01*
X167700500Y-62803750D01*
X167700726Y-62796264D01*
X167700861Y-62794021D01*
X167706089Y-62707593D01*
X167706950Y-62705204D01*
X167706482Y-62702708D01*
X167718731Y-62672526D01*
X167729785Y-62641866D01*
X167731802Y-62640320D01*
X167732758Y-62637967D01*
X167759382Y-62619197D01*
X167785255Y-62599382D01*
X167787787Y-62599172D01*
X167789864Y-62597709D01*
X167822407Y-62596314D01*
X167854888Y-62593632D01*
X167857132Y-62594825D01*
G37*
%TD.AperFunction*%
%TA.AperFunction,NonConductor*%
G36*
X178046945Y-107203206D02*
G01*
X178090397Y-107257921D01*
X178099500Y-107304555D01*
X178099500Y-107788428D01*
X178079815Y-107855467D01*
X178027011Y-107901222D01*
X177957853Y-107911166D01*
X177901189Y-107887695D01*
X177847969Y-107847855D01*
X177792331Y-107806204D01*
X177792329Y-107806203D01*
X177792328Y-107806202D01*
X177660917Y-107757189D01*
X177604983Y-107715318D01*
X177580566Y-107649853D01*
X177595418Y-107581580D01*
X177616563Y-107553332D01*
X177730104Y-107439792D01*
X177855051Y-107267816D01*
X177865015Y-107248261D01*
X177912989Y-107197464D01*
X177980810Y-107180669D01*
X178046945Y-107203206D01*
G37*
%TD.AperFunction*%
%TA.AperFunction,NonConductor*%
G36*
X167905703Y-107210842D02*
G01*
X167934985Y-107248261D01*
X167944949Y-107267817D01*
X168069890Y-107439786D01*
X168183430Y-107553326D01*
X168216915Y-107614649D01*
X168211931Y-107684341D01*
X168170059Y-107740274D01*
X168139083Y-107757189D01*
X168007669Y-107806203D01*
X168007669Y-107806204D01*
X167898811Y-107887695D01*
X167833347Y-107912112D01*
X167765074Y-107897260D01*
X167715668Y-107847855D01*
X167700500Y-107788428D01*
X167700500Y-107304555D01*
X167720185Y-107237516D01*
X167772989Y-107191761D01*
X167842147Y-107181817D01*
X167905703Y-107210842D01*
G37*
%TD.AperFunction*%
%TA.AperFunction,NonConductor*%
G36*
X175803736Y-60500726D02*
G01*
X176051300Y-60515700D01*
X176117026Y-60539396D01*
X176159510Y-60594867D01*
X176165260Y-60664499D01*
X176132450Y-60726187D01*
X176100107Y-60749958D01*
X175992182Y-60804949D01*
X175820213Y-60929890D01*
X175669890Y-61080213D01*
X175544951Y-61252179D01*
X175448444Y-61441585D01*
X175382753Y-61643760D01*
X175349500Y-61853713D01*
X175349500Y-62066286D01*
X175382753Y-62276239D01*
X175448444Y-62478414D01*
X175544951Y-62667820D01*
X175669890Y-62839786D01*
X175783430Y-62953326D01*
X175816915Y-63014649D01*
X175811931Y-63084341D01*
X175770059Y-63140274D01*
X175739083Y-63157189D01*
X175607669Y-63206203D01*
X175607664Y-63206206D01*
X175492455Y-63292452D01*
X175492452Y-63292455D01*
X175406206Y-63407664D01*
X175406202Y-63407671D01*
X175355908Y-63542517D01*
X175349501Y-63602116D01*
X175349501Y-63602123D01*
X175349500Y-63602135D01*
X175349500Y-65397870D01*
X175349501Y-65397876D01*
X175355908Y-65457483D01*
X175406202Y-65592328D01*
X175406206Y-65592335D01*
X175492452Y-65707544D01*
X175492455Y-65707547D01*
X175607664Y-65793793D01*
X175607671Y-65793797D01*
X175742517Y-65844091D01*
X175742516Y-65844091D01*
X175749444Y-65844835D01*
X175802127Y-65850500D01*
X177597872Y-65850499D01*
X177657483Y-65844091D01*
X177792331Y-65793796D01*
X177901189Y-65712305D01*
X177966653Y-65687887D01*
X178034926Y-65702738D01*
X178084332Y-65752143D01*
X178099500Y-65811571D01*
X178099500Y-83127440D01*
X178103753Y-83155653D01*
X178137487Y-83379458D01*
X178137488Y-83379460D01*
X178137489Y-83379466D01*
X178212612Y-83623007D01*
X178323190Y-83852626D01*
X178323195Y-83852634D01*
X178449813Y-84038349D01*
X178471313Y-84104828D01*
X178454747Y-84170198D01*
X178433610Y-84206809D01*
X178433608Y-84206814D01*
X178399500Y-84334108D01*
X178399500Y-84465891D01*
X178433608Y-84593187D01*
X178460174Y-84639199D01*
X178499500Y-84707314D01*
X178499502Y-84707316D01*
X178504505Y-84712319D01*
X178537990Y-84773642D01*
X178533006Y-84843334D01*
X178504505Y-84887681D01*
X178499502Y-84892683D01*
X178499500Y-84892686D01*
X178433608Y-85006812D01*
X178399500Y-85134108D01*
X178399500Y-85265891D01*
X178433608Y-85393187D01*
X178466554Y-85450250D01*
X178499500Y-85507314D01*
X178499502Y-85507316D01*
X178504505Y-85512319D01*
X178537990Y-85573642D01*
X178533006Y-85643334D01*
X178504505Y-85687681D01*
X178499502Y-85692683D01*
X178499500Y-85692686D01*
X178433608Y-85806812D01*
X178399500Y-85934108D01*
X178399500Y-86065891D01*
X178433608Y-86193185D01*
X178433608Y-86193186D01*
X178454747Y-86229800D01*
X178471218Y-86297700D01*
X178449813Y-86361650D01*
X178323195Y-86547365D01*
X178323190Y-86547373D01*
X178212612Y-86776992D01*
X178137489Y-87020533D01*
X178137488Y-87020538D01*
X178137487Y-87020542D01*
X178126038Y-87096498D01*
X178099500Y-87272559D01*
X178099500Y-105815444D01*
X178079815Y-105882483D01*
X178027011Y-105928238D01*
X177957853Y-105938182D01*
X177894297Y-105909157D01*
X177865016Y-105871740D01*
X177855050Y-105852182D01*
X177730109Y-105680213D01*
X177579786Y-105529890D01*
X177407820Y-105404951D01*
X177218414Y-105308444D01*
X177218413Y-105308443D01*
X177218412Y-105308443D01*
X177016243Y-105242754D01*
X177016241Y-105242753D01*
X177016240Y-105242753D01*
X176854957Y-105217208D01*
X176806287Y-105209500D01*
X176593713Y-105209500D01*
X176545042Y-105217208D01*
X176383760Y-105242753D01*
X176181585Y-105308444D01*
X175992179Y-105404951D01*
X175820213Y-105529890D01*
X175669890Y-105680213D01*
X175544951Y-105852179D01*
X175448444Y-106041585D01*
X175382753Y-106243760D01*
X175349500Y-106453713D01*
X175349500Y-106666286D01*
X175382753Y-106876239D01*
X175448444Y-107078414D01*
X175544951Y-107267820D01*
X175669890Y-107439786D01*
X175783430Y-107553326D01*
X175816915Y-107614649D01*
X175811931Y-107684341D01*
X175770059Y-107740274D01*
X175739083Y-107757189D01*
X175607669Y-107806203D01*
X175607664Y-107806206D01*
X175492455Y-107892452D01*
X175492452Y-107892455D01*
X175406206Y-108007664D01*
X175406202Y-108007671D01*
X175355908Y-108142517D01*
X175349501Y-108202116D01*
X175349501Y-108202123D01*
X175349500Y-108202135D01*
X175349500Y-109997870D01*
X175349501Y-109997876D01*
X175355908Y-110057483D01*
X175406202Y-110192328D01*
X175406206Y-110192335D01*
X175487695Y-110301189D01*
X175512113Y-110366653D01*
X175497262Y-110434926D01*
X175447857Y-110484332D01*
X175388429Y-110499500D01*
X170411571Y-110499500D01*
X170344532Y-110479815D01*
X170298777Y-110427011D01*
X170288833Y-110357853D01*
X170312305Y-110301189D01*
X170393793Y-110192335D01*
X170393792Y-110192335D01*
X170393796Y-110192331D01*
X170444091Y-110057483D01*
X170450500Y-109997873D01*
X170450499Y-108202128D01*
X170444091Y-108142517D01*
X170393796Y-108007669D01*
X170393795Y-108007668D01*
X170393793Y-108007664D01*
X170307547Y-107892455D01*
X170307544Y-107892452D01*
X170192335Y-107806206D01*
X170192328Y-107806202D01*
X170060917Y-107757189D01*
X170004983Y-107715318D01*
X169980566Y-107649853D01*
X169995418Y-107581580D01*
X170016563Y-107553332D01*
X170130104Y-107439792D01*
X170255051Y-107267816D01*
X170351557Y-107078412D01*
X170417246Y-106876243D01*
X170450500Y-106666287D01*
X170450500Y-106453713D01*
X170417246Y-106243757D01*
X170351557Y-106041588D01*
X170255051Y-105852184D01*
X170255049Y-105852181D01*
X170255048Y-105852179D01*
X170130109Y-105680213D01*
X169979786Y-105529890D01*
X169807820Y-105404951D01*
X169618414Y-105308444D01*
X169618413Y-105308443D01*
X169618412Y-105308443D01*
X169416243Y-105242754D01*
X169416241Y-105242753D01*
X169416240Y-105242753D01*
X169254957Y-105217208D01*
X169206287Y-105209500D01*
X168993713Y-105209500D01*
X168945042Y-105217208D01*
X168783760Y-105242753D01*
X168581585Y-105308444D01*
X168392179Y-105404951D01*
X168220213Y-105529890D01*
X168069890Y-105680213D01*
X167944949Y-105852182D01*
X167934984Y-105871740D01*
X167887009Y-105922536D01*
X167819188Y-105939330D01*
X167753053Y-105916792D01*
X167709602Y-105862076D01*
X167700500Y-105815444D01*
X167700500Y-87272564D01*
X167700499Y-87272559D01*
X167662513Y-87020542D01*
X167587389Y-86776996D01*
X167558996Y-86718038D01*
X167476809Y-86547373D01*
X167476808Y-86547372D01*
X167476807Y-86547371D01*
X167476805Y-86547366D01*
X167350185Y-86361649D01*
X167328686Y-86295171D01*
X167345254Y-86229797D01*
X167366391Y-86193188D01*
X167366392Y-86193185D01*
X167400500Y-86065892D01*
X167400500Y-85934108D01*
X167366392Y-85806814D01*
X167300500Y-85692686D01*
X167295495Y-85687681D01*
X167262010Y-85626358D01*
X167266994Y-85556666D01*
X167295495Y-85512319D01*
X167300500Y-85507314D01*
X167366392Y-85393186D01*
X167400500Y-85265892D01*
X167400500Y-85134108D01*
X167366392Y-85006814D01*
X167300500Y-84892686D01*
X167295495Y-84887681D01*
X167262010Y-84826358D01*
X167266994Y-84756666D01*
X167295495Y-84712319D01*
X167300500Y-84707314D01*
X167366392Y-84593186D01*
X167400500Y-84465892D01*
X167400500Y-84334108D01*
X167366392Y-84206814D01*
X167345253Y-84170200D01*
X167328780Y-84102300D01*
X167350184Y-84038352D01*
X167476805Y-83852634D01*
X167587389Y-83623004D01*
X167662513Y-83379458D01*
X167700500Y-83127435D01*
X167700500Y-83000000D01*
X167700500Y-82934108D01*
X167700500Y-65811571D01*
X167720185Y-65744532D01*
X167772989Y-65698777D01*
X167842147Y-65688833D01*
X167898811Y-65712305D01*
X168007664Y-65793793D01*
X168007671Y-65793797D01*
X168142517Y-65844091D01*
X168142516Y-65844091D01*
X168149444Y-65844835D01*
X168202127Y-65850500D01*
X169997872Y-65850499D01*
X170057483Y-65844091D01*
X170192331Y-65793796D01*
X170307546Y-65707546D01*
X170393796Y-65592331D01*
X170444091Y-65457483D01*
X170450500Y-65397873D01*
X170450499Y-63602128D01*
X170444091Y-63542517D01*
X170393796Y-63407669D01*
X170393795Y-63407668D01*
X170393793Y-63407664D01*
X170307547Y-63292455D01*
X170307544Y-63292452D01*
X170192335Y-63206206D01*
X170192328Y-63206202D01*
X170060917Y-63157189D01*
X170004983Y-63115318D01*
X169980566Y-63049853D01*
X169995418Y-62981580D01*
X170016563Y-62953332D01*
X170130104Y-62839792D01*
X170255051Y-62667816D01*
X170351557Y-62478412D01*
X170417246Y-62276243D01*
X170450500Y-62066287D01*
X170450500Y-61853713D01*
X170417246Y-61643757D01*
X170351557Y-61441588D01*
X170255051Y-61252184D01*
X170255049Y-61252181D01*
X170255048Y-61252179D01*
X170130109Y-61080213D01*
X169979786Y-60929890D01*
X169807819Y-60804951D01*
X169807818Y-60804950D01*
X169807816Y-60804949D01*
X169759200Y-60780178D01*
X169699893Y-60749959D01*
X169698045Y-60748214D01*
X169695569Y-60747647D01*
X169672783Y-60724355D01*
X169649097Y-60701984D01*
X169648486Y-60699517D01*
X169646709Y-60697701D01*
X169640133Y-60665787D01*
X169632302Y-60634163D01*
X169633121Y-60631757D01*
X169632609Y-60629269D01*
X169644332Y-60598859D01*
X169654840Y-60568028D01*
X169656828Y-60566448D01*
X169657743Y-60564077D01*
X169684046Y-60544833D01*
X169709555Y-60524577D01*
X169712716Y-60523860D01*
X169714134Y-60522823D01*
X169748695Y-60515701D01*
X169996264Y-60500726D01*
X170003751Y-60500500D01*
X170065892Y-60500500D01*
X170534108Y-60500500D01*
X174934108Y-60500500D01*
X175734108Y-60500500D01*
X175796249Y-60500500D01*
X175803736Y-60500726D01*
G37*
%TD.AperFunction*%
%TA.AperFunction,NonConductor*%
G36*
X191841576Y-62613729D02*
G01*
X191885031Y-62668442D01*
X191893910Y-62707593D01*
X191899274Y-62796262D01*
X191899500Y-62803750D01*
X191899500Y-63188428D01*
X191879815Y-63255467D01*
X191827011Y-63301222D01*
X191757853Y-63311166D01*
X191701189Y-63287695D01*
X191647969Y-63247855D01*
X191592331Y-63206204D01*
X191592329Y-63206203D01*
X191592328Y-63206202D01*
X191460917Y-63157189D01*
X191404983Y-63115318D01*
X191380566Y-63049853D01*
X191395418Y-62981580D01*
X191416563Y-62953332D01*
X191530104Y-62839792D01*
X191556290Y-62803750D01*
X191655048Y-62667821D01*
X191655051Y-62667816D01*
X191659650Y-62658789D01*
X191707620Y-62607993D01*
X191775440Y-62591194D01*
X191841576Y-62613729D01*
G37*
%TD.AperFunction*%
%TA.AperFunction,NonConductor*%
G36*
X181657132Y-62594825D02*
G01*
X181659669Y-62594717D01*
X181687794Y-62611133D01*
X181716575Y-62626441D01*
X181718495Y-62629053D01*
X181720012Y-62629939D01*
X181740347Y-62658785D01*
X181744949Y-62667817D01*
X181869890Y-62839786D01*
X181983430Y-62953326D01*
X182016915Y-63014649D01*
X182011931Y-63084341D01*
X181970059Y-63140274D01*
X181939083Y-63157189D01*
X181807669Y-63206203D01*
X181807669Y-63206204D01*
X181698811Y-63287695D01*
X181633347Y-63312112D01*
X181565074Y-63297260D01*
X181515668Y-63247855D01*
X181500500Y-63188428D01*
X181500500Y-62803750D01*
X181500726Y-62796264D01*
X181500861Y-62794021D01*
X181506089Y-62707593D01*
X181506950Y-62705204D01*
X181506482Y-62702708D01*
X181518731Y-62672526D01*
X181529785Y-62641866D01*
X181531802Y-62640320D01*
X181532758Y-62637967D01*
X181559382Y-62619197D01*
X181585255Y-62599382D01*
X181587787Y-62599172D01*
X181589864Y-62597709D01*
X181622407Y-62596314D01*
X181654888Y-62593632D01*
X181657132Y-62594825D01*
G37*
%TD.AperFunction*%
%TA.AperFunction,NonConductor*%
G36*
X191846945Y-107203206D02*
G01*
X191890397Y-107257921D01*
X191899500Y-107304555D01*
X191899500Y-107788428D01*
X191879815Y-107855467D01*
X191827011Y-107901222D01*
X191757853Y-107911166D01*
X191701189Y-107887695D01*
X191647969Y-107847855D01*
X191592331Y-107806204D01*
X191592329Y-107806203D01*
X191592328Y-107806202D01*
X191460917Y-107757189D01*
X191404983Y-107715318D01*
X191380566Y-107649853D01*
X191395418Y-107581580D01*
X191416563Y-107553332D01*
X191530104Y-107439792D01*
X191655051Y-107267816D01*
X191665015Y-107248261D01*
X191712989Y-107197464D01*
X191780810Y-107180669D01*
X191846945Y-107203206D01*
G37*
%TD.AperFunction*%
%TA.AperFunction,NonConductor*%
G36*
X181705703Y-107210842D02*
G01*
X181734985Y-107248261D01*
X181744949Y-107267817D01*
X181869890Y-107439786D01*
X181983430Y-107553326D01*
X182016915Y-107614649D01*
X182011931Y-107684341D01*
X181970059Y-107740274D01*
X181939083Y-107757189D01*
X181807669Y-107806203D01*
X181807669Y-107806204D01*
X181698811Y-107887695D01*
X181633347Y-107912112D01*
X181565074Y-107897260D01*
X181515668Y-107847855D01*
X181500500Y-107788428D01*
X181500500Y-107304555D01*
X181520185Y-107237516D01*
X181572989Y-107191761D01*
X181642147Y-107181817D01*
X181705703Y-107210842D01*
G37*
%TD.AperFunction*%
%TA.AperFunction,NonConductor*%
G36*
X189603736Y-60500726D02*
G01*
X189851300Y-60515700D01*
X189917026Y-60539396D01*
X189959510Y-60594867D01*
X189965260Y-60664499D01*
X189932450Y-60726187D01*
X189900107Y-60749958D01*
X189792182Y-60804949D01*
X189620213Y-60929890D01*
X189469890Y-61080213D01*
X189344951Y-61252179D01*
X189248444Y-61441585D01*
X189182753Y-61643760D01*
X189149500Y-61853713D01*
X189149500Y-62066286D01*
X189182753Y-62276239D01*
X189248444Y-62478414D01*
X189344951Y-62667820D01*
X189469890Y-62839786D01*
X189583430Y-62953326D01*
X189616915Y-63014649D01*
X189611931Y-63084341D01*
X189570059Y-63140274D01*
X189539083Y-63157189D01*
X189407669Y-63206203D01*
X189407664Y-63206206D01*
X189292455Y-63292452D01*
X189292452Y-63292455D01*
X189206206Y-63407664D01*
X189206202Y-63407671D01*
X189155908Y-63542517D01*
X189149501Y-63602116D01*
X189149501Y-63602123D01*
X189149500Y-63602135D01*
X189149500Y-65397870D01*
X189149501Y-65397876D01*
X189155908Y-65457483D01*
X189206202Y-65592328D01*
X189206206Y-65592335D01*
X189292452Y-65707544D01*
X189292455Y-65707547D01*
X189407664Y-65793793D01*
X189407671Y-65793797D01*
X189542517Y-65844091D01*
X189542516Y-65844091D01*
X189549444Y-65844835D01*
X189602127Y-65850500D01*
X191397872Y-65850499D01*
X191457483Y-65844091D01*
X191592331Y-65793796D01*
X191701189Y-65712305D01*
X191766653Y-65687887D01*
X191834926Y-65702738D01*
X191884332Y-65752143D01*
X191899500Y-65811571D01*
X191899500Y-83127440D01*
X191903753Y-83155653D01*
X191937487Y-83379458D01*
X191937488Y-83379460D01*
X191937489Y-83379466D01*
X192012612Y-83623007D01*
X192123190Y-83852626D01*
X192123195Y-83852634D01*
X192249813Y-84038349D01*
X192271313Y-84104828D01*
X192254747Y-84170198D01*
X192233610Y-84206809D01*
X192233608Y-84206814D01*
X192199500Y-84334108D01*
X192199500Y-84465891D01*
X192233608Y-84593187D01*
X192260174Y-84639199D01*
X192299500Y-84707314D01*
X192299502Y-84707316D01*
X192304505Y-84712319D01*
X192337990Y-84773642D01*
X192333006Y-84843334D01*
X192304505Y-84887681D01*
X192299502Y-84892683D01*
X192299500Y-84892686D01*
X192233608Y-85006812D01*
X192199500Y-85134108D01*
X192199500Y-85265891D01*
X192233608Y-85393187D01*
X192266554Y-85450250D01*
X192299500Y-85507314D01*
X192299502Y-85507316D01*
X192304505Y-85512319D01*
X192337990Y-85573642D01*
X192333006Y-85643334D01*
X192304505Y-85687681D01*
X192299502Y-85692683D01*
X192299500Y-85692686D01*
X192233608Y-85806812D01*
X192199500Y-85934108D01*
X192199500Y-86065891D01*
X192233608Y-86193185D01*
X192233608Y-86193186D01*
X192254747Y-86229800D01*
X192271218Y-86297700D01*
X192249813Y-86361650D01*
X192123195Y-86547365D01*
X192123190Y-86547373D01*
X192012612Y-86776992D01*
X191937489Y-87020533D01*
X191937488Y-87020538D01*
X191937487Y-87020542D01*
X191926038Y-87096498D01*
X191899500Y-87272559D01*
X191899500Y-105815444D01*
X191879815Y-105882483D01*
X191827011Y-105928238D01*
X191757853Y-105938182D01*
X191694297Y-105909157D01*
X191665016Y-105871740D01*
X191655050Y-105852182D01*
X191530109Y-105680213D01*
X191379786Y-105529890D01*
X191207820Y-105404951D01*
X191018414Y-105308444D01*
X191018413Y-105308443D01*
X191018412Y-105308443D01*
X190816243Y-105242754D01*
X190816241Y-105242753D01*
X190816240Y-105242753D01*
X190654957Y-105217208D01*
X190606287Y-105209500D01*
X190393713Y-105209500D01*
X190345042Y-105217208D01*
X190183760Y-105242753D01*
X189981585Y-105308444D01*
X189792179Y-105404951D01*
X189620213Y-105529890D01*
X189469890Y-105680213D01*
X189344951Y-105852179D01*
X189248444Y-106041585D01*
X189182753Y-106243760D01*
X189149500Y-106453713D01*
X189149500Y-106666286D01*
X189182753Y-106876239D01*
X189248444Y-107078414D01*
X189344951Y-107267820D01*
X189469890Y-107439786D01*
X189583430Y-107553326D01*
X189616915Y-107614649D01*
X189611931Y-107684341D01*
X189570059Y-107740274D01*
X189539083Y-107757189D01*
X189407669Y-107806203D01*
X189407664Y-107806206D01*
X189292455Y-107892452D01*
X189292452Y-107892455D01*
X189206206Y-108007664D01*
X189206202Y-108007671D01*
X189155908Y-108142517D01*
X189149501Y-108202116D01*
X189149501Y-108202123D01*
X189149500Y-108202135D01*
X189149500Y-109997870D01*
X189149501Y-109997876D01*
X189155908Y-110057483D01*
X189206202Y-110192328D01*
X189206206Y-110192335D01*
X189287695Y-110301189D01*
X189312113Y-110366653D01*
X189297262Y-110434926D01*
X189247857Y-110484332D01*
X189188429Y-110499500D01*
X184211571Y-110499500D01*
X184144532Y-110479815D01*
X184098777Y-110427011D01*
X184088833Y-110357853D01*
X184112305Y-110301189D01*
X184193793Y-110192335D01*
X184193792Y-110192335D01*
X184193796Y-110192331D01*
X184244091Y-110057483D01*
X184250500Y-109997873D01*
X184250499Y-108202128D01*
X184244091Y-108142517D01*
X184193796Y-108007669D01*
X184193795Y-108007668D01*
X184193793Y-108007664D01*
X184107547Y-107892455D01*
X184107544Y-107892452D01*
X183992335Y-107806206D01*
X183992328Y-107806202D01*
X183860917Y-107757189D01*
X183804983Y-107715318D01*
X183780566Y-107649853D01*
X183795418Y-107581580D01*
X183816563Y-107553332D01*
X183930104Y-107439792D01*
X184055051Y-107267816D01*
X184151557Y-107078412D01*
X184217246Y-106876243D01*
X184250500Y-106666287D01*
X184250500Y-106453713D01*
X184217246Y-106243757D01*
X184151557Y-106041588D01*
X184055051Y-105852184D01*
X184055049Y-105852181D01*
X184055048Y-105852179D01*
X183930109Y-105680213D01*
X183779786Y-105529890D01*
X183607820Y-105404951D01*
X183418414Y-105308444D01*
X183418413Y-105308443D01*
X183418412Y-105308443D01*
X183216243Y-105242754D01*
X183216241Y-105242753D01*
X183216240Y-105242753D01*
X183054957Y-105217208D01*
X183006287Y-105209500D01*
X182793713Y-105209500D01*
X182745042Y-105217208D01*
X182583760Y-105242753D01*
X182381585Y-105308444D01*
X182192179Y-105404951D01*
X182020213Y-105529890D01*
X181869890Y-105680213D01*
X181744949Y-105852182D01*
X181734984Y-105871740D01*
X181687009Y-105922536D01*
X181619188Y-105939330D01*
X181553053Y-105916792D01*
X181509602Y-105862076D01*
X181500500Y-105815444D01*
X181500500Y-87272564D01*
X181500499Y-87272559D01*
X181462513Y-87020542D01*
X181387389Y-86776996D01*
X181358996Y-86718038D01*
X181276809Y-86547373D01*
X181276808Y-86547372D01*
X181276807Y-86547371D01*
X181276805Y-86547366D01*
X181150185Y-86361649D01*
X181128686Y-86295171D01*
X181145254Y-86229797D01*
X181166391Y-86193188D01*
X181166392Y-86193185D01*
X181200500Y-86065892D01*
X181200500Y-85934108D01*
X181166392Y-85806814D01*
X181100500Y-85692686D01*
X181095495Y-85687681D01*
X181062010Y-85626358D01*
X181066994Y-85556666D01*
X181095495Y-85512319D01*
X181100500Y-85507314D01*
X181166392Y-85393186D01*
X181200500Y-85265892D01*
X181200500Y-85134108D01*
X181166392Y-85006814D01*
X181100500Y-84892686D01*
X181095495Y-84887681D01*
X181062010Y-84826358D01*
X181066994Y-84756666D01*
X181095495Y-84712319D01*
X181100500Y-84707314D01*
X181166392Y-84593186D01*
X181200500Y-84465892D01*
X181200500Y-84334108D01*
X181166392Y-84206814D01*
X181145253Y-84170200D01*
X181128780Y-84102300D01*
X181150184Y-84038352D01*
X181276805Y-83852634D01*
X181387389Y-83623004D01*
X181462513Y-83379458D01*
X181500500Y-83127435D01*
X181500500Y-83000000D01*
X181500500Y-82934108D01*
X181500500Y-65811571D01*
X181520185Y-65744532D01*
X181572989Y-65698777D01*
X181642147Y-65688833D01*
X181698811Y-65712305D01*
X181807664Y-65793793D01*
X181807671Y-65793797D01*
X181942517Y-65844091D01*
X181942516Y-65844091D01*
X181949444Y-65844835D01*
X182002127Y-65850500D01*
X183797872Y-65850499D01*
X183857483Y-65844091D01*
X183992331Y-65793796D01*
X184107546Y-65707546D01*
X184193796Y-65592331D01*
X184244091Y-65457483D01*
X184250500Y-65397873D01*
X184250499Y-63602128D01*
X184244091Y-63542517D01*
X184193796Y-63407669D01*
X184193795Y-63407668D01*
X184193793Y-63407664D01*
X184107547Y-63292455D01*
X184107544Y-63292452D01*
X183992335Y-63206206D01*
X183992328Y-63206202D01*
X183860917Y-63157189D01*
X183804983Y-63115318D01*
X183780566Y-63049853D01*
X183795418Y-62981580D01*
X183816563Y-62953332D01*
X183930104Y-62839792D01*
X184055051Y-62667816D01*
X184151557Y-62478412D01*
X184217246Y-62276243D01*
X184250500Y-62066287D01*
X184250500Y-61853713D01*
X184217246Y-61643757D01*
X184151557Y-61441588D01*
X184055051Y-61252184D01*
X184055049Y-61252181D01*
X184055048Y-61252179D01*
X183930109Y-61080213D01*
X183779786Y-60929890D01*
X183607819Y-60804951D01*
X183607818Y-60804950D01*
X183607816Y-60804949D01*
X183559200Y-60780178D01*
X183499893Y-60749959D01*
X183498045Y-60748214D01*
X183495569Y-60747647D01*
X183472783Y-60724355D01*
X183449097Y-60701984D01*
X183448486Y-60699517D01*
X183446709Y-60697701D01*
X183440133Y-60665787D01*
X183432302Y-60634163D01*
X183433121Y-60631757D01*
X183432609Y-60629269D01*
X183444332Y-60598859D01*
X183454840Y-60568028D01*
X183456828Y-60566448D01*
X183457743Y-60564077D01*
X183484046Y-60544833D01*
X183509555Y-60524577D01*
X183512716Y-60523860D01*
X183514134Y-60522823D01*
X183548695Y-60515701D01*
X183796264Y-60500726D01*
X183803751Y-60500500D01*
X183865892Y-60500500D01*
X184334108Y-60500500D01*
X188734108Y-60500500D01*
X189534108Y-60500500D01*
X189596249Y-60500500D01*
X189603736Y-60500726D01*
G37*
%TD.AperFunction*%
%TA.AperFunction,NonConductor*%
G36*
X191506553Y-159105628D02*
G01*
X191508713Y-159106499D01*
X191716708Y-159192653D01*
X191750889Y-159206811D01*
X191933441Y-159255725D01*
X191993100Y-159292090D01*
X192023629Y-159354937D01*
X192015334Y-159424313D01*
X191970849Y-159478191D01*
X191904297Y-159499465D01*
X191901346Y-159499500D01*
X191424917Y-159499500D01*
X191357878Y-159479815D01*
X191312123Y-159427011D01*
X191302179Y-159357853D01*
X191304214Y-159347096D01*
X191325716Y-159255725D01*
X191340558Y-159192653D01*
X191375075Y-159131908D01*
X191436955Y-159099465D01*
X191506553Y-159105628D01*
G37*
%TD.AperFunction*%
%TA.AperFunction,NonConductor*%
G36*
X180743328Y-120416992D02*
G01*
X180787681Y-120445495D01*
X180792686Y-120450500D01*
X180891521Y-120507563D01*
X180906810Y-120516390D01*
X180906814Y-120516392D01*
X181034108Y-120550500D01*
X181034110Y-120550500D01*
X181165890Y-120550500D01*
X181165892Y-120550500D01*
X181293186Y-120516392D01*
X181293190Y-120516390D01*
X181321255Y-120500186D01*
X181329798Y-120495253D01*
X181397697Y-120478780D01*
X181461648Y-120500185D01*
X181647366Y-120626805D01*
X181647371Y-120626807D01*
X181647372Y-120626808D01*
X181647373Y-120626809D01*
X181769328Y-120685538D01*
X181876992Y-120737387D01*
X181876993Y-120737387D01*
X181876996Y-120737389D01*
X182120542Y-120812513D01*
X182372565Y-120850500D01*
X182434108Y-120850500D01*
X192001346Y-120850500D01*
X192068385Y-120870185D01*
X192114140Y-120922989D01*
X192124084Y-120992147D01*
X192095059Y-121055703D01*
X192036281Y-121093477D01*
X192033471Y-121094266D01*
X191934079Y-121120898D01*
X191850884Y-121143190D01*
X191569257Y-121259844D01*
X191569247Y-121259848D01*
X191305249Y-121412267D01*
X191063402Y-121597843D01*
X191063395Y-121597849D01*
X190847849Y-121813395D01*
X190847843Y-121813402D01*
X190662267Y-122055249D01*
X190509848Y-122319247D01*
X190509844Y-122319257D01*
X190393189Y-122600886D01*
X190314289Y-122895345D01*
X190274501Y-123197569D01*
X190274500Y-123197585D01*
X190274500Y-123502414D01*
X190274501Y-123502430D01*
X190314289Y-123804654D01*
X190393189Y-124099113D01*
X190509844Y-124380742D01*
X190509848Y-124380752D01*
X190662267Y-124644750D01*
X190847843Y-124886597D01*
X190847849Y-124886604D01*
X191063395Y-125102150D01*
X191063402Y-125102156D01*
X191305249Y-125287732D01*
X191569247Y-125440151D01*
X191569248Y-125440151D01*
X191569251Y-125440153D01*
X191757009Y-125517925D01*
X191850886Y-125556810D01*
X191850887Y-125556810D01*
X191850889Y-125556811D01*
X192145344Y-125635710D01*
X192447579Y-125675500D01*
X192447586Y-125675500D01*
X192752414Y-125675500D01*
X192752421Y-125675500D01*
X193054656Y-125635710D01*
X193349111Y-125556811D01*
X193630749Y-125440153D01*
X193894751Y-125287732D01*
X194136599Y-125102155D01*
X194352155Y-124886599D01*
X194537732Y-124644751D01*
X194690153Y-124380749D01*
X194806811Y-124099111D01*
X194885710Y-123804656D01*
X194925500Y-123502421D01*
X194925500Y-123197579D01*
X194885710Y-122895344D01*
X194806811Y-122600889D01*
X194690153Y-122319251D01*
X194537732Y-122055249D01*
X194352155Y-121813401D01*
X194352150Y-121813395D01*
X194136604Y-121597849D01*
X194136597Y-121597843D01*
X193894750Y-121412267D01*
X193630752Y-121259848D01*
X193630742Y-121259844D01*
X193349115Y-121143190D01*
X193321669Y-121135836D01*
X193166558Y-121094274D01*
X193106900Y-121057910D01*
X193076371Y-120995063D01*
X193084666Y-120925687D01*
X193129151Y-120871809D01*
X193195703Y-120850535D01*
X193198654Y-120850500D01*
X199375500Y-120850500D01*
X199442539Y-120870185D01*
X199488294Y-120922989D01*
X199499500Y-120974500D01*
X199499500Y-159375500D01*
X199479815Y-159442539D01*
X199427011Y-159488294D01*
X199375500Y-159499500D01*
X193098654Y-159499500D01*
X193031615Y-159479815D01*
X192985860Y-159427011D01*
X192975916Y-159357853D01*
X193004941Y-159294297D01*
X193063719Y-159256523D01*
X193066528Y-159255733D01*
X193249111Y-159206811D01*
X193530749Y-159090153D01*
X193794751Y-158937732D01*
X194036599Y-158752155D01*
X194252155Y-158536599D01*
X194437732Y-158294751D01*
X194590153Y-158030749D01*
X194706811Y-157749111D01*
X194785710Y-157454656D01*
X194825500Y-157152421D01*
X194825500Y-156847579D01*
X194785710Y-156545344D01*
X194706811Y-156250889D01*
X194590153Y-155969251D01*
X194533483Y-155871096D01*
X194437732Y-155705249D01*
X194252156Y-155463402D01*
X194252150Y-155463395D01*
X194036604Y-155247849D01*
X194036597Y-155247843D01*
X193794750Y-155062267D01*
X193530752Y-154909848D01*
X193530742Y-154909844D01*
X193249113Y-154793189D01*
X192954654Y-154714289D01*
X192652430Y-154674501D01*
X192652427Y-154674500D01*
X192652421Y-154674500D01*
X192347579Y-154674500D01*
X192347573Y-154674500D01*
X192347569Y-154674501D01*
X192045345Y-154714289D01*
X191750886Y-154793189D01*
X191469257Y-154909844D01*
X191469247Y-154909848D01*
X191205249Y-155062267D01*
X190963402Y-155247843D01*
X190963395Y-155247849D01*
X190747849Y-155463395D01*
X190747843Y-155463402D01*
X190562274Y-155705240D01*
X190562268Y-155705249D01*
X190505001Y-155804438D01*
X190454433Y-155852653D01*
X190385826Y-155865875D01*
X190320962Y-155839907D01*
X190300359Y-155819363D01*
X188726658Y-153829785D01*
X188707358Y-153795180D01*
X188700346Y-153775869D01*
X187298260Y-149914404D01*
X187298259Y-149914403D01*
X186981076Y-149772113D01*
X186723022Y-149656349D01*
X186723021Y-149656349D01*
X186363138Y-150428055D01*
X186276310Y-150614243D01*
X187346071Y-152031468D01*
X187370749Y-152096833D01*
X187371092Y-152107676D01*
X187356184Y-153336812D01*
X187341122Y-153394557D01*
X186655305Y-154655422D01*
X186605980Y-154704908D01*
X186537732Y-154719871D01*
X186480510Y-154701233D01*
X185651377Y-154181388D01*
X185613294Y-154143929D01*
X185430499Y-153862807D01*
X185000000Y-153200739D01*
X184999999Y-153200739D01*
X184999999Y-153200738D01*
X184429168Y-153675728D01*
X184365045Y-153703477D01*
X184362244Y-153703791D01*
X183038384Y-153836726D01*
X182969713Y-153823838D01*
X182918912Y-153775869D01*
X182902108Y-153708050D01*
X182922529Y-153645004D01*
X183066189Y-153427520D01*
X183664247Y-152228726D01*
X183685927Y-152031744D01*
X183685924Y-152031744D01*
X183685925Y-152031743D01*
X183293242Y-152193967D01*
X183223766Y-152201370D01*
X183161316Y-152170036D01*
X183125720Y-152109914D01*
X183122202Y-152070671D01*
X183142881Y-151776326D01*
X183189687Y-150481899D01*
X183211781Y-150415615D01*
X183232321Y-150392738D01*
X183800000Y-149900000D01*
X183799999Y-149899999D01*
X183650000Y-149800000D01*
X183500000Y-149700000D01*
X183307136Y-149650510D01*
X183247094Y-149614781D01*
X183215900Y-149552262D01*
X183223458Y-149482802D01*
X183249024Y-149443992D01*
X183793862Y-148883280D01*
X183854698Y-148848919D01*
X183882793Y-148845694D01*
X184199996Y-148845694D01*
X184200000Y-148845694D01*
X184800000Y-148700000D01*
X185017394Y-147900000D01*
X185017392Y-147899999D01*
X185017393Y-147899999D01*
X184897523Y-147844860D01*
X184844845Y-147798961D01*
X184825343Y-147731868D01*
X184830429Y-147697057D01*
X184992878Y-147147488D01*
X185030758Y-147088781D01*
X185049800Y-147075250D01*
X185700000Y-146700000D01*
X185412215Y-146174375D01*
X185338636Y-146039986D01*
X185323707Y-145971730D01*
X185348050Y-145906238D01*
X185403936Y-145864303D01*
X185416564Y-145860332D01*
X187600000Y-145300000D01*
X188896543Y-143447316D01*
X188903921Y-143437796D01*
X191500000Y-140405668D01*
X191796643Y-139411250D01*
X191805410Y-139389579D01*
X193617149Y-135900000D01*
X194430202Y-133906884D01*
X194436622Y-133893501D01*
X195240183Y-132447545D01*
X195289953Y-132398510D01*
X195293418Y-132396720D01*
X196495774Y-131800000D01*
X197087569Y-131264600D01*
X197114974Y-131245811D01*
X198000000Y-130800000D01*
X197900000Y-130400000D01*
X197708683Y-130208683D01*
X197693190Y-130189785D01*
X197520826Y-129931239D01*
X197500018Y-129864540D01*
X197500000Y-129862456D01*
X197500000Y-128324106D01*
X197509033Y-128277647D01*
X197781374Y-127603719D01*
X197800000Y-127557627D01*
X197702994Y-127200000D01*
X197702993Y-127200000D01*
X195717126Y-127831008D01*
X195647273Y-127832549D01*
X195587676Y-127796080D01*
X195557256Y-127733180D01*
X195559943Y-127680205D01*
X195800000Y-126800000D01*
X195653806Y-126041733D01*
X195653805Y-126041733D01*
X195653805Y-126041732D01*
X195339317Y-126106692D01*
X194501331Y-127601344D01*
X194498567Y-127606030D01*
X193510591Y-129199995D01*
X193510588Y-129200003D01*
X193104918Y-130682032D01*
X193090020Y-130715728D01*
X189603684Y-136210331D01*
X189595698Y-136221499D01*
X185816976Y-140930921D01*
X185781031Y-140961406D01*
X183848540Y-142047933D01*
X183804319Y-142062737D01*
X181821287Y-142329797D01*
X181335858Y-142395171D01*
X181308235Y-142398891D01*
X181291685Y-142400000D01*
X180410126Y-142400000D01*
X180343087Y-142380315D01*
X180297332Y-142327511D01*
X180287388Y-142258353D01*
X180301577Y-142216057D01*
X180329280Y-142165890D01*
X181174830Y-140634709D01*
X181224468Y-140585541D01*
X181229723Y-140582864D01*
X182100000Y-140165430D01*
X183500000Y-138700000D01*
X184426153Y-137000000D01*
X184865580Y-135400000D01*
X185094315Y-134580358D01*
X185131294Y-134521081D01*
X185132070Y-134520397D01*
X185500000Y-134200000D01*
X184500000Y-132800000D01*
X184499998Y-132799999D01*
X184100000Y-132740642D01*
X183366613Y-133161750D01*
X183298674Y-133178061D01*
X183236085Y-133157390D01*
X181800000Y-132199999D01*
X180513092Y-132694964D01*
X180486115Y-132701983D01*
X179099999Y-132900000D01*
X178600052Y-135399740D01*
X178600000Y-135400000D01*
X178870657Y-135851095D01*
X178888269Y-135918708D01*
X178881965Y-135954104D01*
X178607212Y-136778363D01*
X178604204Y-136783820D01*
X178603790Y-136787431D01*
X178585562Y-136817653D01*
X178458195Y-136973388D01*
X178404072Y-137011606D01*
X177600000Y-137300000D01*
X177899058Y-138097488D01*
X177900829Y-138102539D01*
X178058162Y-138584399D01*
X178064116Y-138616387D01*
X178098570Y-139272768D01*
X178089871Y-139325320D01*
X177903518Y-139791204D01*
X177895186Y-139808159D01*
X177743496Y-140065279D01*
X177692478Y-140113017D01*
X177686028Y-140116037D01*
X177013596Y-140407616D01*
X176985400Y-140416037D01*
X176631054Y-140477330D01*
X176561640Y-140469359D01*
X176507555Y-140425127D01*
X176486554Y-140367679D01*
X176439032Y-139900000D01*
X176439031Y-139900000D01*
X176439031Y-139899999D01*
X175200000Y-140127902D01*
X173200000Y-141499999D01*
X173200000Y-141500000D01*
X173621771Y-142461651D01*
X174484938Y-144429700D01*
X174490757Y-144445961D01*
X175200000Y-146970036D01*
X175698156Y-147996201D01*
X175701573Y-148003893D01*
X176565532Y-150141751D01*
X176572400Y-150211282D01*
X176540586Y-150273489D01*
X176480191Y-150308621D01*
X176459218Y-150311910D01*
X175199999Y-150399999D01*
X174643965Y-150993727D01*
X174583772Y-151029204D01*
X174513954Y-151026505D01*
X174456679Y-150986489D01*
X174435431Y-150946985D01*
X172403542Y-144638582D01*
X170883668Y-142233214D01*
X170883667Y-142233213D01*
X169466406Y-143799997D01*
X169466406Y-143799998D01*
X169099999Y-145399999D01*
X169100000Y-145399999D01*
X169100000Y-145400000D01*
X170090961Y-145593655D01*
X170148417Y-145621672D01*
X170637399Y-146045713D01*
X170648201Y-146062536D01*
X170662830Y-146076168D01*
X170666694Y-146091335D01*
X170675151Y-146104506D01*
X170675142Y-146124499D01*
X170680079Y-146143875D01*
X170675124Y-146171267D01*
X170675123Y-146174375D01*
X170673797Y-146178605D01*
X170628263Y-146315211D01*
X170588389Y-146372586D01*
X170523826Y-146399295D01*
X170510626Y-146400000D01*
X169100000Y-146400000D01*
X170199999Y-151352738D01*
X170199999Y-151352737D01*
X170200000Y-151352739D01*
X171070746Y-151302583D01*
X171138804Y-151318380D01*
X171151695Y-151326746D01*
X172600000Y-152400000D01*
X173078391Y-152300000D01*
X173457080Y-152136570D01*
X173526429Y-152128080D01*
X173544462Y-152132468D01*
X174500000Y-152442387D01*
X175217016Y-152647623D01*
X175276048Y-152684995D01*
X175305506Y-152748352D01*
X175296034Y-152817576D01*
X175278151Y-152846218D01*
X174899999Y-153300000D01*
X174200000Y-154200000D01*
X174569249Y-154909635D01*
X174582731Y-154978192D01*
X174567698Y-155026996D01*
X174100292Y-155870084D01*
X174099725Y-155871096D01*
X173893407Y-156235170D01*
X173843228Y-156283790D01*
X173774730Y-156297563D01*
X173709658Y-156272117D01*
X173686327Y-156248436D01*
X173364522Y-155819363D01*
X173213232Y-155617642D01*
X173193662Y-155578873D01*
X172900000Y-154599999D01*
X172899999Y-154599999D01*
X171800000Y-155452166D01*
X171800000Y-155452167D01*
X172800000Y-157900000D01*
X172800001Y-157900001D01*
X173894297Y-158447149D01*
X173945456Y-158494736D01*
X173962766Y-158562428D01*
X173952289Y-158608119D01*
X173651977Y-159288678D01*
X173606903Y-159342064D01*
X173540121Y-159362607D01*
X173490623Y-159352989D01*
X173476554Y-159347096D01*
X172886654Y-159100000D01*
X172858984Y-159387384D01*
X172832965Y-159452228D01*
X172776019Y-159492712D01*
X172735555Y-159499500D01*
X167798654Y-159499500D01*
X167731615Y-159479815D01*
X167685860Y-159427011D01*
X167675916Y-159357853D01*
X167704941Y-159294297D01*
X167763719Y-159256523D01*
X167766528Y-159255733D01*
X167949111Y-159206811D01*
X168230749Y-159090153D01*
X168494751Y-158937732D01*
X168736599Y-158752155D01*
X168952155Y-158536599D01*
X169137732Y-158294751D01*
X169290153Y-158030749D01*
X169406811Y-157749111D01*
X169485710Y-157454656D01*
X169525500Y-157152421D01*
X169525500Y-156847579D01*
X169485710Y-156545344D01*
X169406811Y-156250889D01*
X169290153Y-155969251D01*
X169233483Y-155871096D01*
X169137732Y-155705249D01*
X168952156Y-155463402D01*
X168952150Y-155463395D01*
X168736604Y-155247849D01*
X168736597Y-155247843D01*
X168494750Y-155062267D01*
X168230752Y-154909848D01*
X168230742Y-154909844D01*
X167949113Y-154793189D01*
X167654654Y-154714289D01*
X167352430Y-154674501D01*
X167352427Y-154674500D01*
X167352421Y-154674500D01*
X167047579Y-154674500D01*
X167047573Y-154674500D01*
X167047569Y-154674501D01*
X166745345Y-154714289D01*
X166450886Y-154793189D01*
X166169257Y-154909844D01*
X166169247Y-154909848D01*
X165905249Y-155062267D01*
X165663402Y-155247843D01*
X165663395Y-155247849D01*
X165447849Y-155463395D01*
X165447843Y-155463402D01*
X165262267Y-155705249D01*
X165109848Y-155969247D01*
X165109844Y-155969257D01*
X164993189Y-156250886D01*
X164914289Y-156545345D01*
X164874501Y-156847569D01*
X164874500Y-156847585D01*
X164874500Y-157152414D01*
X164874501Y-157152430D01*
X164914289Y-157454654D01*
X164993189Y-157749113D01*
X165109844Y-158030742D01*
X165109848Y-158030752D01*
X165262267Y-158294750D01*
X165447843Y-158536597D01*
X165447849Y-158536604D01*
X165663395Y-158752150D01*
X165663402Y-158752156D01*
X165905249Y-158937732D01*
X166169247Y-159090151D01*
X166169248Y-159090151D01*
X166169251Y-159090153D01*
X166450889Y-159206811D01*
X166633441Y-159255725D01*
X166693100Y-159292090D01*
X166723629Y-159354937D01*
X166715334Y-159424313D01*
X166670849Y-159478191D01*
X166604297Y-159499465D01*
X166601346Y-159499500D01*
X160324500Y-159499500D01*
X160257461Y-159479815D01*
X160211706Y-159427011D01*
X160200500Y-159375500D01*
X160200500Y-143372564D01*
X160200499Y-143372559D01*
X160162513Y-143120542D01*
X160087389Y-142876996D01*
X160058996Y-142818038D01*
X159976809Y-142647373D01*
X159976808Y-142647372D01*
X159976807Y-142647371D01*
X159976805Y-142647366D01*
X159850185Y-142461649D01*
X159828686Y-142395171D01*
X159845254Y-142329797D01*
X159866391Y-142293188D01*
X159875725Y-142258353D01*
X159900500Y-142165892D01*
X159900500Y-142034108D01*
X159866392Y-141906814D01*
X159800500Y-141792686D01*
X159795495Y-141787681D01*
X159762010Y-141726358D01*
X159766994Y-141656666D01*
X159795499Y-141612315D01*
X159800498Y-141607316D01*
X159800500Y-141607314D01*
X159866392Y-141493186D01*
X159900500Y-141365892D01*
X159900500Y-141234108D01*
X159866392Y-141106814D01*
X159800500Y-140992686D01*
X159795495Y-140987681D01*
X159762010Y-140926358D01*
X159766994Y-140856666D01*
X159795499Y-140812315D01*
X159800498Y-140807316D01*
X159800500Y-140807314D01*
X159866392Y-140693186D01*
X159900500Y-140565892D01*
X159900500Y-140434108D01*
X159866392Y-140306814D01*
X159845253Y-140270200D01*
X159828780Y-140202300D01*
X159850184Y-140138352D01*
X159976805Y-139952634D01*
X160087389Y-139723004D01*
X160162513Y-139479458D01*
X160200500Y-139227435D01*
X160200500Y-139100000D01*
X160200500Y-139034108D01*
X160200500Y-120974500D01*
X160220185Y-120907461D01*
X160272989Y-120861706D01*
X160324500Y-120850500D01*
X166601346Y-120850500D01*
X166668385Y-120870185D01*
X166714140Y-120922989D01*
X166724084Y-120992147D01*
X166695059Y-121055703D01*
X166636281Y-121093477D01*
X166633471Y-121094266D01*
X166534079Y-121120898D01*
X166450884Y-121143190D01*
X166169257Y-121259844D01*
X166169247Y-121259848D01*
X165905249Y-121412267D01*
X165663402Y-121597843D01*
X165663395Y-121597849D01*
X165447849Y-121813395D01*
X165447843Y-121813402D01*
X165262267Y-122055249D01*
X165109848Y-122319247D01*
X165109844Y-122319257D01*
X164993189Y-122600886D01*
X164914289Y-122895345D01*
X164874501Y-123197569D01*
X164874500Y-123197585D01*
X164874500Y-123502414D01*
X164874501Y-123502430D01*
X164914289Y-123804654D01*
X164993189Y-124099113D01*
X165109844Y-124380742D01*
X165109848Y-124380752D01*
X165262267Y-124644750D01*
X165447843Y-124886597D01*
X165447849Y-124886604D01*
X165663395Y-125102150D01*
X165663402Y-125102156D01*
X165905249Y-125287732D01*
X166169247Y-125440151D01*
X166169248Y-125440151D01*
X166169251Y-125440153D01*
X166357009Y-125517925D01*
X166450886Y-125556810D01*
X166450887Y-125556810D01*
X166450889Y-125556811D01*
X166745344Y-125635710D01*
X167047579Y-125675500D01*
X167047586Y-125675500D01*
X167352414Y-125675500D01*
X167352421Y-125675500D01*
X167654656Y-125635710D01*
X167949111Y-125556811D01*
X168230749Y-125440153D01*
X168494751Y-125287732D01*
X168736599Y-125102155D01*
X168952155Y-124886599D01*
X169137732Y-124644751D01*
X169290153Y-124380749D01*
X169406811Y-124099111D01*
X169485710Y-123804656D01*
X169525500Y-123502421D01*
X169525500Y-123197579D01*
X169485710Y-122895344D01*
X169406811Y-122600889D01*
X169290153Y-122319251D01*
X169137732Y-122055249D01*
X168952155Y-121813401D01*
X168952150Y-121813395D01*
X168736604Y-121597849D01*
X168736597Y-121597843D01*
X168494750Y-121412267D01*
X168230752Y-121259848D01*
X168230742Y-121259844D01*
X167949115Y-121143190D01*
X167921669Y-121135836D01*
X167766558Y-121094274D01*
X167706900Y-121057910D01*
X167676371Y-120995063D01*
X167684666Y-120925687D01*
X167729151Y-120871809D01*
X167795703Y-120850535D01*
X167798654Y-120850500D01*
X178227435Y-120850500D01*
X178479458Y-120812513D01*
X178723004Y-120737389D01*
X178952634Y-120626805D01*
X179138351Y-120500184D01*
X179204827Y-120478686D01*
X179270200Y-120495253D01*
X179306814Y-120516392D01*
X179434108Y-120550500D01*
X179434110Y-120550500D01*
X179565890Y-120550500D01*
X179565892Y-120550500D01*
X179693186Y-120516392D01*
X179807314Y-120450500D01*
X179812315Y-120445499D01*
X179873636Y-120412011D01*
X179943328Y-120416992D01*
X179987681Y-120445495D01*
X179992686Y-120450500D01*
X180091521Y-120507563D01*
X180106810Y-120516390D01*
X180106814Y-120516392D01*
X180234108Y-120550500D01*
X180234110Y-120550500D01*
X180365890Y-120550500D01*
X180365892Y-120550500D01*
X180493186Y-120516392D01*
X180607314Y-120450500D01*
X180612315Y-120445499D01*
X180673636Y-120412011D01*
X180743328Y-120416992D01*
G37*
%TD.AperFunction*%
%TA.AperFunction,NonConductor*%
G36*
X186002681Y-156251912D02*
G01*
X186037041Y-156284854D01*
X186096491Y-156369318D01*
X188162137Y-159304129D01*
X188184626Y-159370281D01*
X188167781Y-159438089D01*
X188116949Y-159486026D01*
X188060736Y-159499500D01*
X184358398Y-159499500D01*
X184291359Y-159479815D01*
X184245604Y-159427011D01*
X184235091Y-159388591D01*
X183914554Y-156369318D01*
X183927051Y-156300575D01*
X183974730Y-156249501D01*
X184037861Y-156232227D01*
X185935642Y-156232227D01*
X186002681Y-156251912D01*
G37*
%TD.AperFunction*%
%TA.AperFunction,NonConductor*%
G36*
X177329366Y-150409778D02*
G01*
X177396212Y-150430098D01*
X177435443Y-150471550D01*
X177800000Y-151100000D01*
X178751603Y-151003273D01*
X178813495Y-151012881D01*
X178915592Y-151057174D01*
X179139913Y-151154494D01*
X179193578Y-151199233D01*
X179214537Y-151265885D01*
X179207938Y-151308230D01*
X179100000Y-151625115D01*
X179627920Y-151938723D01*
X179675503Y-151989885D01*
X179687872Y-152058651D01*
X179661100Y-152123188D01*
X179603687Y-152163006D01*
X179590543Y-152166585D01*
X178499998Y-152400000D01*
X177758460Y-152999998D01*
X177758459Y-153000001D01*
X178199997Y-154299994D01*
X178200003Y-154300007D01*
X180492533Y-159283768D01*
X180492546Y-159283814D01*
X180492562Y-159283832D01*
X180502579Y-159317674D01*
X180508406Y-159357586D01*
X180498613Y-159426766D01*
X180452973Y-159479670D01*
X180385976Y-159499500D01*
X177439351Y-159499500D01*
X177372312Y-159479815D01*
X177326557Y-159427011D01*
X177316613Y-159357853D01*
X177321979Y-159335503D01*
X177600000Y-158519649D01*
X177599999Y-158519648D01*
X177600000Y-158519648D01*
X176501778Y-156090184D01*
X175900001Y-154758942D01*
X174876407Y-153773555D01*
X174841762Y-153712879D01*
X174845420Y-153643105D01*
X174860817Y-153613117D01*
X175500000Y-152700000D01*
X175499998Y-152699999D01*
X175499999Y-152699999D01*
X175209944Y-152602744D01*
X175194039Y-152596151D01*
X174637062Y-152318477D01*
X174585848Y-152270949D01*
X174581478Y-152262957D01*
X174500175Y-152100351D01*
X174330441Y-151760882D01*
X174318066Y-151692117D01*
X174335021Y-151641631D01*
X174344931Y-151625115D01*
X174594578Y-151209035D01*
X174606867Y-151192011D01*
X175169008Y-150538097D01*
X175227635Y-150500094D01*
X175251791Y-150495444D01*
X176293807Y-150400563D01*
X176306223Y-150400059D01*
X177329366Y-150409778D01*
G37*
%TD.AperFunction*%
%TA.AperFunction,NonConductor*%
G36*
X174180173Y-158610136D02*
G01*
X175288425Y-158750257D01*
X175311101Y-158755319D01*
X176105579Y-159012841D01*
X176860504Y-159257542D01*
X176918207Y-159296939D01*
X176945451Y-159361278D01*
X176933585Y-159430133D01*
X176886377Y-159481642D01*
X176822269Y-159499500D01*
X174287291Y-159499500D01*
X174220252Y-159479815D01*
X174203869Y-159467243D01*
X174016580Y-159296939D01*
X173875200Y-159168380D01*
X173838844Y-159108716D01*
X173840516Y-159038867D01*
X173852289Y-159012850D01*
X174058379Y-158669367D01*
X174109748Y-158622012D01*
X174178568Y-158609945D01*
X174180173Y-158610136D01*
G37*
%TD.AperFunction*%
M02*
