%TF.GenerationSoftware,KiCad,Pcbnew,9.0.0*%
%TF.CreationDate,2025-07-31T15:34:44+02:00*%
%TF.ProjectId,Label_SM,4c616265-6c5f-4534-9d2e-6b696361645f,rev?*%
%TF.SameCoordinates,Original*%
%TF.FileFunction,Copper,L2,Bot*%
%TF.FilePolarity,Positive*%
%FSLAX46Y46*%
G04 Gerber Fmt 4.6, Leading zero omitted, Abs format (unit mm)*
G04 Created by KiCad (PCBNEW 9.0.0) date 2025-07-31 15:34:44*
%MOMM*%
%LPD*%
G01*
G04 APERTURE LIST*
%TA.AperFunction,NonConductor*%
%ADD10C,0.400000*%
%TD*%
%TA.AperFunction,ComponentPad*%
%ADD11C,4.250000*%
%TD*%
%TA.AperFunction,ComponentPad*%
%ADD12R,1.700000X1.700000*%
%TD*%
%TA.AperFunction,ComponentPad*%
%ADD13O,1.700000X1.700000*%
%TD*%
G04 APERTURE END LIST*
D10*
X200000000Y-127200000D02*
X159700000Y-127200000D01*
X200000000Y-120350000D02*
X159700000Y-120350000D01*
X200000000Y-153150000D02*
X159700000Y-153150000D01*
X200000000Y-120350000D02*
X200000000Y-160000000D01*
X159700000Y-120350000D02*
X159700000Y-160000000D01*
X200000000Y-160000000D02*
X159700000Y-160000000D01*
D11*
%TO.P,,*%
%TO.N,*%
X192500000Y-157000000D03*
%TD*%
%TO.P,,*%
%TO.N,*%
X192600000Y-123350000D03*
%TD*%
%TO.P,REF\u002A\u002A,*%
%TO.N,*%
X167200000Y-123350000D03*
%TD*%
%TO.P,,*%
%TO.N,*%
X167200000Y-157000000D03*
%TD*%
D12*
%TO.P,J52,1,Pin_1*%
%TO.N,unconnected-(J52-Pin_1-Pad1)*%
X190500000Y-64500000D03*
D13*
%TO.P,J52,2,Pin_2*%
%TO.N,unconnected-(J52-Pin_2-Pad2)*%
X190500000Y-61960000D03*
%TD*%
D12*
%TO.P,J50,1,Pin_1*%
%TO.N,unconnected-(J50-Pin_1-Pad1)*%
X190500000Y-109100000D03*
D13*
%TO.P,J50,2,Pin_2*%
%TO.N,unconnected-(J50-Pin_2-Pad2)*%
X190500000Y-106560000D03*
%TD*%
D12*
%TO.P,J51,1,Pin_1*%
%TO.N,unconnected-(J51-Pin_1-Pad1)*%
X182900000Y-64500000D03*
D13*
%TO.P,J51,2,Pin_2*%
%TO.N,unconnected-(J51-Pin_2-Pad2)*%
X182900000Y-61960000D03*
%TD*%
D12*
%TO.P,J49,1,Pin_1*%
%TO.N,unconnected-(J49-Pin_1-Pad1)*%
X182900000Y-109100000D03*
D13*
%TO.P,J49,2,Pin_2*%
%TO.N,unconnected-(J49-Pin_2-Pad2)*%
X182900000Y-106560000D03*
%TD*%
D12*
%TO.P,J52,1,Pin_1*%
%TO.N,unconnected-(J52-Pin_1-Pad1)*%
X176700000Y-64500000D03*
D13*
%TO.P,J52,2,Pin_2*%
%TO.N,unconnected-(J52-Pin_2-Pad2)*%
X176700000Y-61960000D03*
%TD*%
D12*
%TO.P,J50,1,Pin_1*%
%TO.N,unconnected-(J50-Pin_1-Pad1)*%
X176700000Y-109100000D03*
D13*
%TO.P,J50,2,Pin_2*%
%TO.N,unconnected-(J50-Pin_2-Pad2)*%
X176700000Y-106560000D03*
%TD*%
D12*
%TO.P,J49,1,Pin_1*%
%TO.N,unconnected-(J49-Pin_1-Pad1)*%
X169100000Y-109100000D03*
D13*
%TO.P,J49,2,Pin_2*%
%TO.N,unconnected-(J49-Pin_2-Pad2)*%
X169100000Y-106560000D03*
%TD*%
D12*
%TO.P,J51,1,Pin_1*%
%TO.N,unconnected-(J51-Pin_1-Pad1)*%
X169100000Y-64500000D03*
D13*
%TO.P,J51,2,Pin_2*%
%TO.N,unconnected-(J51-Pin_2-Pad2)*%
X169100000Y-61960000D03*
%TD*%
D12*
%TO.P,J50,1,Pin_1*%
%TO.N,unconnected-(J50-Pin_1-Pad1)*%
X162900000Y-109100000D03*
D13*
%TO.P,J50,2,Pin_2*%
%TO.N,unconnected-(J50-Pin_2-Pad2)*%
X162900000Y-106560000D03*
%TD*%
D12*
%TO.P,J52,1,Pin_1*%
%TO.N,unconnected-(J52-Pin_1-Pad1)*%
X162900000Y-64500000D03*
D13*
%TO.P,J52,2,Pin_2*%
%TO.N,unconnected-(J52-Pin_2-Pad2)*%
X162900000Y-61960000D03*
%TD*%
D12*
%TO.P,J49,1,Pin_1*%
%TO.N,unconnected-(J49-Pin_1-Pad1)*%
X155300000Y-109100000D03*
D13*
%TO.P,J49,2,Pin_2*%
%TO.N,unconnected-(J49-Pin_2-Pad2)*%
X155300000Y-106560000D03*
%TD*%
D12*
%TO.P,J51,1,Pin_1*%
%TO.N,unconnected-(J51-Pin_1-Pad1)*%
X155300000Y-64500000D03*
D13*
%TO.P,J51,2,Pin_2*%
%TO.N,unconnected-(J51-Pin_2-Pad2)*%
X155300000Y-61960000D03*
%TD*%
D12*
%TO.P,J52,1,Pin_1*%
%TO.N,unconnected-(J52-Pin_1-Pad1)*%
X146500000Y-152300000D03*
D13*
%TO.P,J52,2,Pin_2*%
%TO.N,unconnected-(J52-Pin_2-Pad2)*%
X149040000Y-152300000D03*
%TD*%
D12*
%TO.P,J50,1,Pin_1*%
%TO.N,unconnected-(J50-Pin_1-Pad1)*%
X101900000Y-152300000D03*
D13*
%TO.P,J50,2,Pin_2*%
%TO.N,unconnected-(J50-Pin_2-Pad2)*%
X104440000Y-152300000D03*
%TD*%
D12*
%TO.P,J49,1,Pin_1*%
%TO.N,unconnected-(J49-Pin_1-Pad1)*%
X101900000Y-144700000D03*
D13*
%TO.P,J49,2,Pin_2*%
%TO.N,unconnected-(J49-Pin_2-Pad2)*%
X104440000Y-144700000D03*
%TD*%
D12*
%TO.P,J51,1,Pin_1*%
%TO.N,unconnected-(J51-Pin_1-Pad1)*%
X146500000Y-144700000D03*
D13*
%TO.P,J51,2,Pin_2*%
%TO.N,unconnected-(J51-Pin_2-Pad2)*%
X149040000Y-144700000D03*
%TD*%
D12*
%TO.P,J52,1,Pin_1*%
%TO.N,unconnected-(J52-Pin_1-Pad1)*%
X146500000Y-138500000D03*
D13*
%TO.P,J52,2,Pin_2*%
%TO.N,unconnected-(J52-Pin_2-Pad2)*%
X149040000Y-138500000D03*
%TD*%
D12*
%TO.P,J50,1,Pin_1*%
%TO.N,unconnected-(J50-Pin_1-Pad1)*%
X101900000Y-138500000D03*
D13*
%TO.P,J50,2,Pin_2*%
%TO.N,unconnected-(J50-Pin_2-Pad2)*%
X104440000Y-138500000D03*
%TD*%
D12*
%TO.P,J49,1,Pin_1*%
%TO.N,unconnected-(J49-Pin_1-Pad1)*%
X101900000Y-130900000D03*
D13*
%TO.P,J49,2,Pin_2*%
%TO.N,unconnected-(J49-Pin_2-Pad2)*%
X104440000Y-130900000D03*
%TD*%
D12*
%TO.P,J51,1,Pin_1*%
%TO.N,unconnected-(J51-Pin_1-Pad1)*%
X146500000Y-130900000D03*
D13*
%TO.P,J51,2,Pin_2*%
%TO.N,unconnected-(J51-Pin_2-Pad2)*%
X149040000Y-130900000D03*
%TD*%
D12*
%TO.P,J52,1,Pin_1*%
%TO.N,unconnected-(J52-Pin_1-Pad1)*%
X146500000Y-124700000D03*
D13*
%TO.P,J52,2,Pin_2*%
%TO.N,unconnected-(J52-Pin_2-Pad2)*%
X149040000Y-124700000D03*
%TD*%
D12*
%TO.P,J50,1,Pin_1*%
%TO.N,unconnected-(J50-Pin_1-Pad1)*%
X101900000Y-124700000D03*
D13*
%TO.P,J50,2,Pin_2*%
%TO.N,unconnected-(J50-Pin_2-Pad2)*%
X104440000Y-124700000D03*
%TD*%
D12*
%TO.P,J49,1,Pin_1*%
%TO.N,unconnected-(J49-Pin_1-Pad1)*%
X101900000Y-117100000D03*
D13*
%TO.P,J49,2,Pin_2*%
%TO.N,unconnected-(J49-Pin_2-Pad2)*%
X104440000Y-117100000D03*
%TD*%
D12*
%TO.P,J51,1,Pin_1*%
%TO.N,unconnected-(J51-Pin_1-Pad1)*%
X146500000Y-117100000D03*
D13*
%TO.P,J51,2,Pin_2*%
%TO.N,unconnected-(J51-Pin_2-Pad2)*%
X149040000Y-117100000D03*
%TD*%
D12*
%TO.P,J52,1,Pin_1*%
%TO.N,unconnected-(J52-Pin_1-Pad1)*%
X146500000Y-110900000D03*
D13*
%TO.P,J52,2,Pin_2*%
%TO.N,unconnected-(J52-Pin_2-Pad2)*%
X149040000Y-110900000D03*
%TD*%
D12*
%TO.P,J50,1,Pin_1*%
%TO.N,unconnected-(J50-Pin_1-Pad1)*%
X101900000Y-110900000D03*
D13*
%TO.P,J50,2,Pin_2*%
%TO.N,unconnected-(J50-Pin_2-Pad2)*%
X104440000Y-110900000D03*
%TD*%
D12*
%TO.P,J49,1,Pin_1*%
%TO.N,unconnected-(J49-Pin_1-Pad1)*%
X101900000Y-103300000D03*
D13*
%TO.P,J49,2,Pin_2*%
%TO.N,unconnected-(J49-Pin_2-Pad2)*%
X104440000Y-103300000D03*
%TD*%
D12*
%TO.P,J51,1,Pin_1*%
%TO.N,unconnected-(J51-Pin_1-Pad1)*%
X146500000Y-103300000D03*
D13*
%TO.P,J51,2,Pin_2*%
%TO.N,unconnected-(J51-Pin_2-Pad2)*%
X149040000Y-103300000D03*
%TD*%
D12*
%TO.P,J52,1,Pin_1*%
%TO.N,unconnected-(J52-Pin_1-Pad1)*%
X146500000Y-97100000D03*
D13*
%TO.P,J52,2,Pin_2*%
%TO.N,unconnected-(J52-Pin_2-Pad2)*%
X149040000Y-97100000D03*
%TD*%
D12*
%TO.P,J50,1,Pin_1*%
%TO.N,unconnected-(J50-Pin_1-Pad1)*%
X101900000Y-97100000D03*
D13*
%TO.P,J50,2,Pin_2*%
%TO.N,unconnected-(J50-Pin_2-Pad2)*%
X104440000Y-97100000D03*
%TD*%
D12*
%TO.P,J49,1,Pin_1*%
%TO.N,unconnected-(J49-Pin_1-Pad1)*%
X101900000Y-89500000D03*
D13*
%TO.P,J49,2,Pin_2*%
%TO.N,unconnected-(J49-Pin_2-Pad2)*%
X104440000Y-89500000D03*
%TD*%
D12*
%TO.P,J51,1,Pin_1*%
%TO.N,unconnected-(J51-Pin_1-Pad1)*%
X146500000Y-89500000D03*
D13*
%TO.P,J51,2,Pin_2*%
%TO.N,unconnected-(J51-Pin_2-Pad2)*%
X149040000Y-89500000D03*
%TD*%
%TO.P,J52,2,Pin_2*%
%TO.N,unconnected-(J52-Pin_2-Pad2)*%
X149040000Y-69500000D03*
D12*
%TO.P,J52,1,Pin_1*%
%TO.N,unconnected-(J52-Pin_1-Pad1)*%
X146500000Y-69500000D03*
%TD*%
D13*
%TO.P,J50,2,Pin_2*%
%TO.N,unconnected-(J50-Pin_2-Pad2)*%
X104440000Y-69500000D03*
D12*
%TO.P,J50,1,Pin_1*%
%TO.N,unconnected-(J50-Pin_1-Pad1)*%
X101900000Y-69500000D03*
%TD*%
D13*
%TO.P,J49,2,Pin_2*%
%TO.N,unconnected-(J49-Pin_2-Pad2)*%
X104440000Y-61900000D03*
D12*
%TO.P,J49,1,Pin_1*%
%TO.N,unconnected-(J49-Pin_1-Pad1)*%
X101900000Y-61900000D03*
%TD*%
D13*
%TO.P,J51,2,Pin_2*%
%TO.N,unconnected-(J51-Pin_2-Pad2)*%
X149040000Y-61900000D03*
D12*
%TO.P,J51,1,Pin_1*%
%TO.N,unconnected-(J51-Pin_1-Pad1)*%
X146500000Y-61900000D03*
%TD*%
%TO.P,J52,1,Pin_1*%
%TO.N,unconnected-(J52-Pin_1-Pad1)*%
X146500000Y-83300000D03*
D13*
%TO.P,J52,2,Pin_2*%
%TO.N,unconnected-(J52-Pin_2-Pad2)*%
X149040000Y-83300000D03*
%TD*%
D12*
%TO.P,J49,1,Pin_1*%
%TO.N,unconnected-(J49-Pin_1-Pad1)*%
X101900000Y-75700000D03*
D13*
%TO.P,J49,2,Pin_2*%
%TO.N,unconnected-(J49-Pin_2-Pad2)*%
X104440000Y-75700000D03*
%TD*%
D12*
%TO.P,J50,1,Pin_1*%
%TO.N,unconnected-(J50-Pin_1-Pad1)*%
X101900000Y-83300000D03*
D13*
%TO.P,J50,2,Pin_2*%
%TO.N,unconnected-(J50-Pin_2-Pad2)*%
X104440000Y-83300000D03*
%TD*%
D12*
%TO.P,J51,1,Pin_1*%
%TO.N,unconnected-(J51-Pin_1-Pad1)*%
X146500000Y-75700000D03*
D13*
%TO.P,J51,2,Pin_2*%
%TO.N,unconnected-(J51-Pin_2-Pad2)*%
X149040000Y-75700000D03*
%TD*%
%TA.AperFunction,NonConductor*%
G36*
X165585174Y-121070185D02*
G01*
X165630929Y-121122989D01*
X165640873Y-121192147D01*
X165611848Y-121255703D01*
X165595448Y-121271447D01*
X165447750Y-121389231D01*
X165239231Y-121597750D01*
X165055370Y-121828306D01*
X164898478Y-122077997D01*
X164770533Y-122343677D01*
X164673139Y-122622011D01*
X164673135Y-122622023D01*
X164607517Y-122909515D01*
X164607514Y-122909533D01*
X164574500Y-123202548D01*
X164574500Y-123497451D01*
X164607514Y-123790466D01*
X164607517Y-123790484D01*
X164673135Y-124077976D01*
X164673139Y-124077988D01*
X164770533Y-124356322D01*
X164898478Y-124622002D01*
X164898480Y-124622005D01*
X165055371Y-124871695D01*
X165239232Y-125102250D01*
X165447750Y-125310768D01*
X165678305Y-125494629D01*
X165927995Y-125651520D01*
X166193681Y-125779468D01*
X166402723Y-125852615D01*
X166472011Y-125876860D01*
X166472023Y-125876864D01*
X166759519Y-125942483D01*
X166759525Y-125942483D01*
X166759533Y-125942485D01*
X166954876Y-125964494D01*
X167052549Y-125975499D01*
X167052552Y-125975500D01*
X167052555Y-125975500D01*
X167347448Y-125975500D01*
X167347449Y-125975499D01*
X167497205Y-125958626D01*
X167640466Y-125942485D01*
X167640471Y-125942484D01*
X167640481Y-125942483D01*
X167927977Y-125876864D01*
X168206319Y-125779468D01*
X168472005Y-125651520D01*
X168721695Y-125494629D01*
X168952250Y-125310768D01*
X169160768Y-125102250D01*
X169344629Y-124871695D01*
X169501520Y-124622005D01*
X169629468Y-124356319D01*
X169726864Y-124077977D01*
X169792483Y-123790481D01*
X169825500Y-123497445D01*
X169825500Y-123202555D01*
X169792483Y-122909519D01*
X169726864Y-122622023D01*
X169629468Y-122343681D01*
X169501520Y-122077995D01*
X169344629Y-121828305D01*
X169160768Y-121597750D01*
X168952250Y-121389232D01*
X168804552Y-121271447D01*
X168764412Y-121214259D01*
X168761562Y-121144447D01*
X168796907Y-121084177D01*
X168859226Y-121052584D01*
X168881865Y-121050500D01*
X190918135Y-121050500D01*
X190985174Y-121070185D01*
X191030929Y-121122989D01*
X191040873Y-121192147D01*
X191011848Y-121255703D01*
X190995448Y-121271447D01*
X190847750Y-121389231D01*
X190639231Y-121597750D01*
X190455370Y-121828306D01*
X190298478Y-122077997D01*
X190170533Y-122343677D01*
X190073139Y-122622011D01*
X190073135Y-122622023D01*
X190007517Y-122909515D01*
X190007514Y-122909533D01*
X189974500Y-123202548D01*
X189974500Y-123497451D01*
X190007514Y-123790466D01*
X190007517Y-123790484D01*
X190073135Y-124077976D01*
X190073139Y-124077988D01*
X190170533Y-124356322D01*
X190298478Y-124622002D01*
X190298480Y-124622005D01*
X190455371Y-124871695D01*
X190639232Y-125102250D01*
X190847750Y-125310768D01*
X191078305Y-125494629D01*
X191327995Y-125651520D01*
X191593681Y-125779468D01*
X191802723Y-125852615D01*
X191872011Y-125876860D01*
X191872023Y-125876864D01*
X192159519Y-125942483D01*
X192159525Y-125942483D01*
X192159533Y-125942485D01*
X192354876Y-125964494D01*
X192452549Y-125975499D01*
X192452552Y-125975500D01*
X192452555Y-125975500D01*
X192747448Y-125975500D01*
X192747449Y-125975499D01*
X192897205Y-125958626D01*
X193040466Y-125942485D01*
X193040471Y-125942484D01*
X193040481Y-125942483D01*
X193327977Y-125876864D01*
X193606319Y-125779468D01*
X193872005Y-125651520D01*
X194121695Y-125494629D01*
X194352250Y-125310768D01*
X194560768Y-125102250D01*
X194744629Y-124871695D01*
X194901520Y-124622005D01*
X195029468Y-124356319D01*
X195126864Y-124077977D01*
X195192483Y-123790481D01*
X195225500Y-123497445D01*
X195225500Y-123202555D01*
X195192483Y-122909519D01*
X195126864Y-122622023D01*
X195029468Y-122343681D01*
X194901520Y-122077995D01*
X194744629Y-121828305D01*
X194560768Y-121597750D01*
X194352250Y-121389232D01*
X194204552Y-121271447D01*
X194164412Y-121214259D01*
X194161562Y-121144447D01*
X194196907Y-121084177D01*
X194259226Y-121052584D01*
X194281865Y-121050500D01*
X199175500Y-121050500D01*
X199242539Y-121070185D01*
X199288294Y-121122989D01*
X199299500Y-121174500D01*
X199299500Y-126375500D01*
X199279815Y-126442539D01*
X199227011Y-126488294D01*
X199175500Y-126499500D01*
X160524500Y-126499500D01*
X160457461Y-126479815D01*
X160411706Y-126427011D01*
X160400500Y-126375500D01*
X160400500Y-121174500D01*
X160420185Y-121107461D01*
X160472989Y-121061706D01*
X160524500Y-121050500D01*
X165518135Y-121050500D01*
X165585174Y-121070185D01*
G37*
%TD.AperFunction*%
%TA.AperFunction,NonConductor*%
G36*
X199242539Y-127920185D02*
G01*
X199288294Y-127972989D01*
X199299500Y-128024500D01*
X199299500Y-152325500D01*
X199279815Y-152392539D01*
X199227011Y-152438294D01*
X199175500Y-152449500D01*
X160524500Y-152449500D01*
X160457461Y-152429815D01*
X160411706Y-152377011D01*
X160400500Y-152325500D01*
X160400500Y-128024500D01*
X160420185Y-127957461D01*
X160472989Y-127911706D01*
X160524500Y-127900500D01*
X199175500Y-127900500D01*
X199242539Y-127920185D01*
G37*
%TD.AperFunction*%
%TA.AperFunction,NonConductor*%
G36*
X199242539Y-153870185D02*
G01*
X199288294Y-153922989D01*
X199299500Y-153974500D01*
X199299500Y-159175500D01*
X199279815Y-159242539D01*
X199227011Y-159288294D01*
X199175500Y-159299500D01*
X194181865Y-159299500D01*
X194114826Y-159279815D01*
X194069071Y-159227011D01*
X194059127Y-159157853D01*
X194088152Y-159094297D01*
X194104552Y-159078553D01*
X194118185Y-159067680D01*
X194252250Y-158960768D01*
X194460768Y-158752250D01*
X194644629Y-158521695D01*
X194801520Y-158272005D01*
X194929468Y-158006319D01*
X195026864Y-157727977D01*
X195092483Y-157440481D01*
X195125500Y-157147445D01*
X195125500Y-156852555D01*
X195092483Y-156559519D01*
X195026864Y-156272023D01*
X194929468Y-155993681D01*
X194801520Y-155727995D01*
X194644629Y-155478305D01*
X194460768Y-155247750D01*
X194252250Y-155039232D01*
X194021695Y-154855371D01*
X193772005Y-154698480D01*
X193772002Y-154698478D01*
X193506322Y-154570533D01*
X193227988Y-154473139D01*
X193227976Y-154473135D01*
X192940484Y-154407517D01*
X192940466Y-154407514D01*
X192647451Y-154374500D01*
X192647445Y-154374500D01*
X192352555Y-154374500D01*
X192352548Y-154374500D01*
X192059533Y-154407514D01*
X192059515Y-154407517D01*
X191772023Y-154473135D01*
X191772011Y-154473139D01*
X191493677Y-154570533D01*
X191227997Y-154698478D01*
X190978306Y-154855370D01*
X190747750Y-155039231D01*
X190539231Y-155247750D01*
X190355370Y-155478306D01*
X190198478Y-155727997D01*
X190070533Y-155993677D01*
X189973139Y-156272011D01*
X189973135Y-156272023D01*
X189907517Y-156559515D01*
X189907514Y-156559533D01*
X189874500Y-156852548D01*
X189874500Y-157147451D01*
X189907514Y-157440466D01*
X189907517Y-157440484D01*
X189973135Y-157727976D01*
X189973139Y-157727988D01*
X190070533Y-158006322D01*
X190198478Y-158272002D01*
X190198480Y-158272005D01*
X190355371Y-158521695D01*
X190492537Y-158693696D01*
X190539231Y-158752249D01*
X190747750Y-158960768D01*
X190895448Y-159078553D01*
X190935588Y-159135741D01*
X190938438Y-159205553D01*
X190903093Y-159265823D01*
X190840774Y-159297416D01*
X190818135Y-159299500D01*
X168881865Y-159299500D01*
X168814826Y-159279815D01*
X168769071Y-159227011D01*
X168759127Y-159157853D01*
X168788152Y-159094297D01*
X168804552Y-159078553D01*
X168818185Y-159067680D01*
X168952250Y-158960768D01*
X169160768Y-158752250D01*
X169344629Y-158521695D01*
X169501520Y-158272005D01*
X169629468Y-158006319D01*
X169726864Y-157727977D01*
X169792483Y-157440481D01*
X169825500Y-157147445D01*
X169825500Y-156852555D01*
X169792483Y-156559519D01*
X169726864Y-156272023D01*
X169629468Y-155993681D01*
X169501520Y-155727995D01*
X169344629Y-155478305D01*
X169160768Y-155247750D01*
X168952250Y-155039232D01*
X168721695Y-154855371D01*
X168472005Y-154698480D01*
X168472002Y-154698478D01*
X168206322Y-154570533D01*
X167927988Y-154473139D01*
X167927976Y-154473135D01*
X167640484Y-154407517D01*
X167640466Y-154407514D01*
X167347451Y-154374500D01*
X167347445Y-154374500D01*
X167052555Y-154374500D01*
X167052548Y-154374500D01*
X166759533Y-154407514D01*
X166759515Y-154407517D01*
X166472023Y-154473135D01*
X166472011Y-154473139D01*
X166193677Y-154570533D01*
X165927997Y-154698478D01*
X165678306Y-154855370D01*
X165447750Y-155039231D01*
X165239231Y-155247750D01*
X165055370Y-155478306D01*
X164898478Y-155727997D01*
X164770533Y-155993677D01*
X164673139Y-156272011D01*
X164673135Y-156272023D01*
X164607517Y-156559515D01*
X164607514Y-156559533D01*
X164574500Y-156852548D01*
X164574500Y-157147451D01*
X164607514Y-157440466D01*
X164607517Y-157440484D01*
X164673135Y-157727976D01*
X164673139Y-157727988D01*
X164770533Y-158006322D01*
X164898478Y-158272002D01*
X164898480Y-158272005D01*
X165055371Y-158521695D01*
X165192537Y-158693696D01*
X165239231Y-158752249D01*
X165447750Y-158960768D01*
X165595448Y-159078553D01*
X165635588Y-159135741D01*
X165638438Y-159205553D01*
X165603093Y-159265823D01*
X165540774Y-159297416D01*
X165518135Y-159299500D01*
X160524500Y-159299500D01*
X160457461Y-159279815D01*
X160411706Y-159227011D01*
X160400500Y-159175500D01*
X160400500Y-153974500D01*
X160420185Y-153907461D01*
X160472989Y-153861706D01*
X160524500Y-153850500D01*
X199175500Y-153850500D01*
X199242539Y-153870185D01*
G37*
%TD.AperFunction*%
M02*
