M48
; DRILL file {KiCad 8.0.0} date 2024-04-26T11:12:44+0200
; FORMAT={-:-/ absolute / inch / decimal}
; #@! TF.CreationDate,2024-04-26T11:12:44+02:00
; #@! TF.GenerationSoftware,Kicad,Pcbnew,8.0.0
; #@! TF.FileFunction,Plated,1,2,PTH
FMAT,2
INCH
; #@! TA.AperFunction,Plated,PTH,ViaDrill
T1C0.0157
; #@! TA.AperFunction,Plated,PTH,ComponentDrill
T2C0.0354
; #@! TA.AperFunction,Plated,PTH,ComponentDrill
T3C0.0394
; #@! TA.AperFunction,Plated,PTH,ComponentDrill
T4C0.0787
%
G90
G05
T1
X-0.1181Y-2.7165
X1.4567Y-1.0236
X1.8504Y-1.0236
X1.9291Y-0.6299
X1.9291Y-0.7087
X2.0866Y-1.378
X2.126Y-0.7087
X2.4803Y-1.378
X3.7402Y-1.6929
X4.5669Y0.3937
X5.9449Y-1.6929
T2
X2.3071Y-0.7059
X2.3071Y-0.8059
X2.5433Y-0.7059
X2.5433Y-0.8059
X2.7795Y-0.7059
X2.7795Y-0.8059
T3
X0.9929Y-0.6677
X0.9929Y-0.7677
X1.0929Y-0.6677
X1.0929Y-0.7677
X1.1929Y-0.6677
X1.1929Y-0.7677
X1.2929Y-0.6677
X1.2929Y-0.7677
X1.3929Y-0.6677
X1.3929Y-0.7677
X1.4929Y-0.6677
X1.4929Y-0.7677
X1.5929Y-0.6677
X1.5929Y-0.7677
X1.6929Y-0.6677
X1.6929Y-0.7677
T4
G00X0.7598Y-1.6339
M15
G01X0.7598Y-1.752
M16
G05
G00X0.9449Y-1.6339
M15
G01X0.9449Y-1.752
M16
G05
G00X2.5236Y-1.6339
M15
G01X2.5236Y-1.752
M16
G05
G00X2.7087Y-1.6339
M15
G01X2.7087Y-1.752
M16
G05
G00X2.8858Y-1.6339
M15
G01X2.8858Y-1.752
M16
G05
G00X3.0709Y-1.6339
M15
G01X3.0709Y-1.752
M16
G05
G00X4.6496Y-1.6339
M15
G01X4.6496Y-1.752
M16
G05
G00X4.8346Y-1.6339
M15
G01X4.8346Y-1.752
M16
G05
G00X5.0118Y-1.6339
M15
G01X5.0118Y-1.752
M16
G05
G00X5.1969Y-1.6339
M15
G01X5.1969Y-1.752
M16
G05
G00X6.7756Y-1.6339
M15
G01X6.7756Y-1.752
M16
G05
G00X6.9606Y-1.6339
M15
G01X6.9606Y-1.752
M16
G05
G00X7.1378Y-1.6339
M15
G01X7.1378Y-1.752
M16
G05
G00X7.3228Y-1.6339
M15
G01X7.3228Y-1.752
M16
G05
G00X8.9016Y-1.6339
M15
G01X8.9016Y-1.752
M16
G05
G00X9.0866Y-1.6339
M15
G01X9.0866Y-1.752
M16
G05
M30
