%TF.GenerationSoftware,KiCad,Pcbnew,8.0.0*%
%TF.CreationDate,2024-04-26T11:12:47+02:00*%
%TF.ProjectId,Vollkornbrot,566f6c6c-6b6f-4726-9e62-726f742e6b69,rev?*%
%TF.SameCoordinates,Original*%
%TF.FileFunction,Copper,L1,Top*%
%TF.FilePolarity,Positive*%
%FSLAX46Y46*%
G04 Gerber Fmt 4.6, Leading zero omitted, Abs format (unit mm)*
G04 Created by KiCad (PCBNEW 8.0.0) date 2024-04-26 11:12:47*
%MOMM*%
%LPD*%
G01*
G04 APERTURE LIST*
G04 Aperture macros list*
%AMRoundRect*
0 Rectangle with rounded corners*
0 $1 Rounding radius*
0 $2 $3 $4 $5 $6 $7 $8 $9 X,Y pos of 4 corners*
0 Add a 4 corners polygon primitive as box body*
4,1,4,$2,$3,$4,$5,$6,$7,$8,$9,$2,$3,0*
0 Add four circle primitives for the rounded corners*
1,1,$1+$1,$2,$3*
1,1,$1+$1,$4,$5*
1,1,$1+$1,$6,$7*
1,1,$1+$1,$8,$9*
0 Add four rect primitives between the rounded corners*
20,1,$1+$1,$2,$3,$4,$5,0*
20,1,$1+$1,$4,$5,$6,$7,0*
20,1,$1+$1,$6,$7,$8,$9,0*
20,1,$1+$1,$8,$9,$2,$3,0*%
G04 Aperture macros list end*
%TA.AperFunction,SMDPad,CuDef*%
%ADD10RoundRect,0.250000X-0.650000X0.412500X-0.650000X-0.412500X0.650000X-0.412500X0.650000X0.412500X0*%
%TD*%
%TA.AperFunction,ComponentPad*%
%ADD11O,2.400000X9.000000*%
%TD*%
%TA.AperFunction,SMDPad,CuDef*%
%ADD12RoundRect,0.300000X0.300000X-0.350000X0.300000X0.350000X-0.300000X0.350000X-0.300000X-0.350000X0*%
%TD*%
%TA.AperFunction,SMDPad,CuDef*%
%ADD13RoundRect,0.300000X-0.300000X0.350000X-0.300000X-0.350000X0.300000X-0.350000X0.300000X0.350000X0*%
%TD*%
%TA.AperFunction,SMDPad,CuDef*%
%ADD14RoundRect,0.250000X-0.350000X-0.450000X0.350000X-0.450000X0.350000X0.450000X-0.350000X0.450000X0*%
%TD*%
%TA.AperFunction,SMDPad,CuDef*%
%ADD15RoundRect,0.250000X-0.475000X0.337500X-0.475000X-0.337500X0.475000X-0.337500X0.475000X0.337500X0*%
%TD*%
%TA.AperFunction,ComponentPad*%
%ADD16R,1.800000X1.800000*%
%TD*%
%TA.AperFunction,ComponentPad*%
%ADD17C,1.800000*%
%TD*%
%TA.AperFunction,ComponentPad*%
%ADD18RoundRect,0.250000X0.600000X-0.600000X0.600000X0.600000X-0.600000X0.600000X-0.600000X-0.600000X0*%
%TD*%
%TA.AperFunction,ComponentPad*%
%ADD19C,1.700000*%
%TD*%
%TA.AperFunction,ViaPad*%
%ADD20C,0.800000*%
%TD*%
%TA.AperFunction,Conductor*%
%ADD21C,0.400000*%
%TD*%
G04 APERTURE END LIST*
D10*
%TO.P,C1,1*%
%TO.N,GND*%
X56600000Y-23637500D03*
%TO.P,C1,2*%
%TO.N,+5V*%
X56600000Y-26762500D03*
%TD*%
%TO.P,C2,1*%
%TO.N,GND*%
X45800000Y-23637500D03*
%TO.P,C2,2*%
%TO.N,+12V*%
X45800000Y-26762500D03*
%TD*%
%TO.P,C3,1*%
%TO.N,GND*%
X35400000Y-23637500D03*
%TO.P,C3,2*%
%TO.N,-12V*%
X35400000Y-26762500D03*
%TD*%
D11*
%TO.P,JP1,1,+L*%
%TO.N,+5V*%
X19300000Y-43000000D03*
%TO.P,JP1,2,-L*%
%TO.N,-12V*%
X24000000Y-43000000D03*
%TO.P,JP1,3,+R*%
%TO.N,+12V*%
X64100000Y-43000000D03*
%TO.P,JP1,4,-R*%
%TO.N,GND*%
X68800000Y-43000000D03*
%TD*%
D12*
%TO.P,D1,1,K*%
%TO.N,+5V*%
X49400000Y-27050000D03*
%TO.P,D1,2,A*%
%TO.N,Net-(D1-A)*%
X49400000Y-23350000D03*
%TD*%
D13*
%TO.P,D3,1,K*%
%TO.N,Net-(D3-K)*%
X28600000Y-23350000D03*
%TO.P,D3,2,A*%
%TO.N,-12V*%
X28600000Y-27050000D03*
%TD*%
D14*
%TO.P,R2,1*%
%TO.N,+12V*%
X50000000Y-18000000D03*
%TO.P,R2,2*%
%TO.N,Net-(D5-A)*%
X52000000Y-18000000D03*
%TD*%
D15*
%TO.P,C4,1*%
%TO.N,GND*%
X53000000Y-24162500D03*
%TO.P,C4,2*%
%TO.N,+5V*%
X53000000Y-26237500D03*
%TD*%
D14*
%TO.P,R1,1*%
%TO.N,+5V*%
X50000000Y-20500000D03*
%TO.P,R1,2*%
%TO.N,Net-(D4-A)*%
X52000000Y-20500000D03*
%TD*%
D11*
%TO.P,JP4,1,+L*%
%TO.N,+5V*%
X181300000Y-43000000D03*
%TO.P,JP4,2,-L*%
%TO.N,-12V*%
X186000000Y-43000000D03*
%TO.P,JP4,3,+R*%
%TO.N,+12V*%
X226100000Y-43000000D03*
%TO.P,JP4,4,-R*%
%TO.N,GND*%
X230800000Y-43000000D03*
%TD*%
D16*
%TO.P,D5,1,K*%
%TO.N,GND*%
X64600000Y-17930000D03*
D17*
%TO.P,D5,2,A*%
%TO.N,Net-(D5-A)*%
X64600000Y-20470000D03*
%TD*%
D16*
%TO.P,D6,1,K*%
%TO.N,Net-(D6-K)*%
X58600000Y-17930000D03*
D17*
%TO.P,D6,2,A*%
%TO.N,GND*%
X58600000Y-20470000D03*
%TD*%
D12*
%TO.P,D2,1,K*%
%TO.N,+12V*%
X39000000Y-27100000D03*
%TO.P,D2,2,A*%
%TO.N,Net-(D2-A)*%
X39000000Y-23400000D03*
%TD*%
D11*
%TO.P,JP2,1,+L*%
%TO.N,+5V*%
X73300000Y-43000000D03*
%TO.P,JP2,2,-L*%
%TO.N,-12V*%
X78000000Y-43000000D03*
%TO.P,JP2,3,+R*%
%TO.N,+12V*%
X118100000Y-43000000D03*
%TO.P,JP2,4,-R*%
%TO.N,GND*%
X122800000Y-43000000D03*
%TD*%
D14*
%TO.P,R3,1*%
%TO.N,-12V*%
X50000000Y-15500000D03*
%TO.P,R3,2*%
%TO.N,Net-(D6-K)*%
X52000000Y-15500000D03*
%TD*%
D15*
%TO.P,C5,1*%
%TO.N,GND*%
X42400000Y-24162500D03*
%TO.P,C5,2*%
%TO.N,+12V*%
X42400000Y-26237500D03*
%TD*%
D11*
%TO.P,JP3,1,+L*%
%TO.N,+5V*%
X127300000Y-43000000D03*
%TO.P,JP3,2,-L*%
%TO.N,-12V*%
X132000000Y-43000000D03*
%TO.P,JP3,3,+R*%
%TO.N,+12V*%
X172100000Y-43000000D03*
%TO.P,JP3,4,-R*%
%TO.N,GND*%
X176800000Y-43000000D03*
%TD*%
D15*
%TO.P,C6,1*%
%TO.N,GND*%
X32000000Y-24162500D03*
%TO.P,C6,2*%
%TO.N,-12V*%
X32000000Y-26237500D03*
%TD*%
D16*
%TO.P,D4,1,K*%
%TO.N,GND*%
X70600000Y-17930000D03*
D17*
%TO.P,D4,2,A*%
%TO.N,Net-(D4-A)*%
X70600000Y-20470000D03*
%TD*%
D18*
%TO.P,JP5,1,-12V*%
%TO.N,Net-(D3-K)*%
X25220000Y-19500000D03*
D19*
%TO.P,JP5,2*%
X25220000Y-16960000D03*
%TO.P,JP5,3*%
%TO.N,GND*%
X27760000Y-19500000D03*
%TO.P,JP5,4*%
X27760000Y-16960000D03*
%TO.P,JP5,5,Gnd*%
X30300000Y-19500000D03*
%TO.P,JP5,6*%
X30300000Y-16960000D03*
%TO.P,JP5,7*%
X32840000Y-19500000D03*
%TO.P,JP5,8*%
X32840000Y-16960000D03*
%TO.P,JP5,9,+12V*%
%TO.N,Net-(D2-A)*%
X35380000Y-19500000D03*
%TO.P,JP5,10*%
X35380000Y-16960000D03*
%TO.P,JP5,11,+5V*%
%TO.N,Net-(D1-A)*%
X37920000Y-19500000D03*
%TO.P,JP5,12*%
X37920000Y-16960000D03*
%TO.P,JP5,13,CV*%
%TO.N,unconnected-(JP5-CV-Pad13)*%
X40460000Y-19500000D03*
%TO.P,JP5,14*%
%TO.N,unconnected-(JP5-Pad14)*%
X40460000Y-16960000D03*
%TO.P,JP5,15,GATE*%
%TO.N,unconnected-(JP5-GATE-Pad15)*%
X43000000Y-19500000D03*
%TO.P,JP5,16*%
%TO.N,unconnected-(JP5-Pad16)*%
X43000000Y-16960000D03*
%TD*%
D20*
%TO.N,*%
X-3000000Y-69000000D03*
X116000000Y10000000D03*
%TO.N,GND*%
X95000000Y-43000000D03*
X151000000Y-43000000D03*
%TO.N,+5V*%
X63000000Y-35000000D03*
%TO.N,+12V*%
X53000000Y-35000000D03*
X49000000Y-18000000D03*
X47000000Y-26000000D03*
%TO.N,-12V*%
X49000000Y-16000000D03*
X37000000Y-26000000D03*
%TO.N,Net-(D5-A)*%
X54000000Y-18000000D03*
%TD*%
D21*
%TO.N,+5V*%
X50212500Y-26237500D02*
X49400000Y-27050000D01*
X56600000Y-28600000D02*
X63000000Y-35000000D01*
X53000000Y-26237500D02*
X50212500Y-26237500D01*
X53000000Y-26237500D02*
X51000000Y-24237500D01*
X56600000Y-26762500D02*
X53525000Y-26762500D01*
X51000000Y-21500000D02*
X50000000Y-20500000D01*
X53525000Y-26762500D02*
X53000000Y-26237500D01*
X56600000Y-26762500D02*
X56600000Y-28600000D01*
X51000000Y-24237500D02*
X51000000Y-21500000D01*
%TO.N,+12V*%
X167100000Y-48000000D02*
X172100000Y-43000000D01*
X119800000Y-48000000D02*
X167100000Y-48000000D01*
X113200000Y-47900000D02*
X118100000Y-43000000D01*
X221100000Y-48000000D02*
X226100000Y-43000000D01*
X49000000Y-18000000D02*
X50000000Y-18000000D01*
X45800000Y-26762500D02*
X42925000Y-26762500D01*
X176237258Y-48000000D02*
X221100000Y-48000000D01*
X41537500Y-27100000D02*
X42400000Y-26237500D01*
X45800000Y-26762500D02*
X45800000Y-27800000D01*
X64100000Y-43000000D02*
X64100000Y-46300000D01*
X172100000Y-43862742D02*
X176237258Y-48000000D01*
X46237500Y-26762500D02*
X47000000Y-26000000D01*
X118100000Y-43000000D02*
X118100000Y-46300000D01*
X172100000Y-43000000D02*
X172100000Y-43862742D01*
X45800000Y-26762500D02*
X46237500Y-26762500D01*
X64100000Y-46300000D02*
X65700000Y-47900000D01*
X118100000Y-46300000D02*
X119800000Y-48000000D01*
X39000000Y-27100000D02*
X41537500Y-27100000D01*
X45800000Y-27800000D02*
X53000000Y-35000000D01*
X65700000Y-47900000D02*
X113200000Y-47900000D01*
X42925000Y-26762500D02*
X42400000Y-26237500D01*
%TO.N,-12V*%
X36237500Y-26762500D02*
X37000000Y-26000000D01*
X24000000Y-37000000D02*
X24000000Y-43000000D01*
X28600000Y-32400000D02*
X24000000Y-37000000D01*
X35400000Y-26762500D02*
X36237500Y-26762500D01*
X32525000Y-26762500D02*
X32000000Y-26237500D01*
X132000000Y-43000000D02*
X136900000Y-38100000D01*
X28600000Y-27050000D02*
X31187500Y-27050000D01*
X28900000Y-38100000D02*
X76400000Y-38100000D01*
X78000000Y-39700000D02*
X78000000Y-43000000D01*
X35400000Y-26762500D02*
X32525000Y-26762500D01*
X24000000Y-43000000D02*
X28900000Y-38100000D01*
X130400000Y-38100000D02*
X132000000Y-39700000D01*
X136900000Y-38100000D02*
X184400000Y-38100000D01*
X78000000Y-43000000D02*
X82900000Y-38100000D01*
X76400000Y-38100000D02*
X78000000Y-39700000D01*
X184400000Y-38100000D02*
X186000000Y-39700000D01*
X49000000Y-16000000D02*
X49500000Y-16000000D01*
X28600000Y-27050000D02*
X28600000Y-32400000D01*
X186000000Y-39700000D02*
X186000000Y-43000000D01*
X31187500Y-27050000D02*
X32000000Y-26237500D01*
X49500000Y-16000000D02*
X50000000Y-15500000D01*
X82900000Y-38100000D02*
X130400000Y-38100000D01*
X132000000Y-39700000D02*
X132000000Y-43000000D01*
%TO.N,Net-(D1-A)*%
X47050000Y-21000000D02*
X39420000Y-21000000D01*
X39420000Y-21000000D02*
X37920000Y-19500000D01*
X49400000Y-23350000D02*
X47050000Y-21000000D01*
%TO.N,Net-(D2-A)*%
X39000000Y-23120000D02*
X35380000Y-19500000D01*
X39000000Y-23400000D02*
X39000000Y-23120000D01*
%TO.N,Net-(D3-K)*%
X28600000Y-23350000D02*
X25220000Y-19970000D01*
X25220000Y-19970000D02*
X25220000Y-19500000D01*
%TO.N,Net-(D4-A)*%
X52000000Y-20500000D02*
X53270000Y-21770000D01*
X53270000Y-21770000D02*
X69300000Y-21770000D01*
X69300000Y-21770000D02*
X70600000Y-20470000D01*
%TO.N,Net-(D5-A)*%
X54000000Y-18000000D02*
X52000000Y-18000000D01*
%TO.N,Net-(D6-K)*%
X52000000Y-15500000D02*
X56170000Y-15500000D01*
X56170000Y-15500000D02*
X58600000Y-17930000D01*
%TD*%
%TA.AperFunction,Conductor*%
%TO.N,GND*%
G36*
X121213979Y-38820185D02*
G01*
X121259734Y-38872989D01*
X121269678Y-38942147D01*
X121261501Y-38971953D01*
X121186763Y-39152381D01*
X121129088Y-39367632D01*
X121129085Y-39367645D01*
X121100000Y-39588575D01*
X121100000Y-42750000D01*
X121800000Y-42750000D01*
X121800000Y-43250000D01*
X121100000Y-43250000D01*
X121100000Y-46411424D01*
X121129085Y-46632354D01*
X121129088Y-46632367D01*
X121186763Y-46847618D01*
X121272045Y-47053502D01*
X121272048Y-47053509D01*
X121306684Y-47113501D01*
X121323156Y-47181401D01*
X121300303Y-47247428D01*
X121245381Y-47290618D01*
X121199296Y-47299500D01*
X120141519Y-47299500D01*
X120074480Y-47279815D01*
X120053838Y-47263181D01*
X119748425Y-46957768D01*
X119714940Y-46896445D01*
X119716330Y-46837999D01*
X119771404Y-46632463D01*
X119800500Y-46411457D01*
X119800500Y-39588543D01*
X119771404Y-39367537D01*
X119713710Y-39152219D01*
X119713706Y-39152209D01*
X119639042Y-38971953D01*
X119631573Y-38902483D01*
X119662848Y-38840004D01*
X119722937Y-38804352D01*
X119753603Y-38800500D01*
X121146940Y-38800500D01*
X121213979Y-38820185D01*
G37*
%TD.AperFunction*%
%TA.AperFunction,Conductor*%
G36*
X125713436Y-38820185D02*
G01*
X125759191Y-38872989D01*
X125769135Y-38942147D01*
X125760958Y-38971953D01*
X125686293Y-39152209D01*
X125686290Y-39152219D01*
X125628597Y-39367534D01*
X125628594Y-39367547D01*
X125599501Y-39588533D01*
X125599500Y-39588549D01*
X125599500Y-46411450D01*
X125599501Y-46411466D01*
X125628594Y-46632452D01*
X125628595Y-46632457D01*
X125628596Y-46632463D01*
X125686290Y-46847780D01*
X125686293Y-46847790D01*
X125771593Y-47053722D01*
X125771598Y-47053733D01*
X125806105Y-47113500D01*
X125822578Y-47181400D01*
X125799725Y-47247427D01*
X125744804Y-47290618D01*
X125698718Y-47299500D01*
X124400704Y-47299500D01*
X124333665Y-47279815D01*
X124287910Y-47227011D01*
X124277966Y-47157853D01*
X124293316Y-47113501D01*
X124327951Y-47053509D01*
X124327954Y-47053502D01*
X124413236Y-46847618D01*
X124470911Y-46632367D01*
X124470914Y-46632354D01*
X124500000Y-46411424D01*
X124500000Y-43250000D01*
X123800000Y-43250000D01*
X123800000Y-42750000D01*
X124500000Y-42750000D01*
X124500000Y-39588575D01*
X124470914Y-39367645D01*
X124470911Y-39367632D01*
X124413236Y-39152381D01*
X124338499Y-38971953D01*
X124331030Y-38902484D01*
X124362305Y-38840005D01*
X124422393Y-38804352D01*
X124453060Y-38800500D01*
X125646397Y-38800500D01*
X125713436Y-38820185D01*
G37*
%TD.AperFunction*%
%TA.AperFunction,Conductor*%
G36*
X170513436Y-38820185D02*
G01*
X170559191Y-38872989D01*
X170569135Y-38942147D01*
X170560958Y-38971953D01*
X170486293Y-39152209D01*
X170486290Y-39152219D01*
X170428597Y-39367534D01*
X170428594Y-39367547D01*
X170399501Y-39588533D01*
X170399500Y-39588549D01*
X170399500Y-43658481D01*
X170379815Y-43725520D01*
X170363181Y-43746162D01*
X166846162Y-47263181D01*
X166784839Y-47296666D01*
X166758481Y-47299500D01*
X133601282Y-47299500D01*
X133534243Y-47279815D01*
X133488488Y-47227011D01*
X133478544Y-47157853D01*
X133493895Y-47113500D01*
X133528401Y-47053733D01*
X133528401Y-47053732D01*
X133528405Y-47053726D01*
X133613710Y-46847781D01*
X133671404Y-46632463D01*
X133700500Y-46411457D01*
X133700500Y-42341518D01*
X133720185Y-42274479D01*
X133736819Y-42253837D01*
X137153837Y-38836819D01*
X137215160Y-38803334D01*
X137241518Y-38800500D01*
X170446397Y-38800500D01*
X170513436Y-38820185D01*
G37*
%TD.AperFunction*%
%TA.AperFunction,Conductor*%
G36*
X179713436Y-38820185D02*
G01*
X179759191Y-38872989D01*
X179769135Y-38942147D01*
X179760958Y-38971953D01*
X179686293Y-39152209D01*
X179686290Y-39152219D01*
X179628597Y-39367534D01*
X179628594Y-39367547D01*
X179599501Y-39588533D01*
X179599500Y-39588549D01*
X179599500Y-46411450D01*
X179599501Y-46411466D01*
X179628594Y-46632452D01*
X179628595Y-46632457D01*
X179628596Y-46632463D01*
X179686290Y-46847780D01*
X179686293Y-46847790D01*
X179771593Y-47053722D01*
X179771598Y-47053733D01*
X179806105Y-47113500D01*
X179822578Y-47181400D01*
X179799725Y-47247427D01*
X179744804Y-47290618D01*
X179698718Y-47299500D01*
X178400704Y-47299500D01*
X178333665Y-47279815D01*
X178287910Y-47227011D01*
X178277966Y-47157853D01*
X178293316Y-47113501D01*
X178327951Y-47053509D01*
X178327954Y-47053502D01*
X178413236Y-46847618D01*
X178470911Y-46632367D01*
X178470914Y-46632354D01*
X178500000Y-46411424D01*
X178500000Y-43250000D01*
X177800000Y-43250000D01*
X177800000Y-42750000D01*
X178500000Y-42750000D01*
X178500000Y-39588575D01*
X178470914Y-39367645D01*
X178470911Y-39367632D01*
X178413236Y-39152381D01*
X178338499Y-38971953D01*
X178331030Y-38902484D01*
X178362305Y-38840005D01*
X178422393Y-38804352D01*
X178453060Y-38800500D01*
X179646397Y-38800500D01*
X179713436Y-38820185D01*
G37*
%TD.AperFunction*%
%TA.AperFunction,Conductor*%
G36*
X67213979Y-38820185D02*
G01*
X67259734Y-38872989D01*
X67269678Y-38942147D01*
X67261501Y-38971953D01*
X67186763Y-39152381D01*
X67129088Y-39367632D01*
X67129085Y-39367645D01*
X67100000Y-39588575D01*
X67100000Y-42750000D01*
X67800000Y-42750000D01*
X67800000Y-43250000D01*
X67100000Y-43250000D01*
X67100000Y-46411424D01*
X67129085Y-46632354D01*
X67129088Y-46632367D01*
X67186763Y-46847618D01*
X67261501Y-47028047D01*
X67268970Y-47097516D01*
X67237695Y-47159995D01*
X67177607Y-47195648D01*
X67146940Y-47199500D01*
X66041519Y-47199500D01*
X65974480Y-47179815D01*
X65953838Y-47163181D01*
X65748425Y-46957768D01*
X65714940Y-46896445D01*
X65716330Y-46837999D01*
X65771404Y-46632463D01*
X65800500Y-46411457D01*
X65800500Y-39588543D01*
X65771404Y-39367537D01*
X65713710Y-39152219D01*
X65713706Y-39152209D01*
X65639042Y-38971953D01*
X65631573Y-38902483D01*
X65662848Y-38840004D01*
X65722937Y-38804352D01*
X65753603Y-38800500D01*
X67146940Y-38800500D01*
X67213979Y-38820185D01*
G37*
%TD.AperFunction*%
%TA.AperFunction,Conductor*%
G36*
X71713436Y-38820185D02*
G01*
X71759191Y-38872989D01*
X71769135Y-38942147D01*
X71760958Y-38971953D01*
X71686293Y-39152209D01*
X71686290Y-39152219D01*
X71628597Y-39367534D01*
X71628594Y-39367547D01*
X71599501Y-39588533D01*
X71599500Y-39588549D01*
X71599500Y-46411450D01*
X71599501Y-46411466D01*
X71628594Y-46632452D01*
X71628595Y-46632457D01*
X71628596Y-46632463D01*
X71686290Y-46847780D01*
X71686293Y-46847790D01*
X71760958Y-47028047D01*
X71768427Y-47097517D01*
X71737152Y-47159996D01*
X71677063Y-47195648D01*
X71646397Y-47199500D01*
X70453060Y-47199500D01*
X70386021Y-47179815D01*
X70340266Y-47127011D01*
X70330322Y-47057853D01*
X70338499Y-47028047D01*
X70413236Y-46847618D01*
X70470911Y-46632367D01*
X70470914Y-46632354D01*
X70500000Y-46411424D01*
X70500000Y-43250000D01*
X69800000Y-43250000D01*
X69800000Y-42750000D01*
X70500000Y-42750000D01*
X70500000Y-39588575D01*
X70470914Y-39367645D01*
X70470911Y-39367632D01*
X70413236Y-39152381D01*
X70338499Y-38971953D01*
X70331030Y-38902484D01*
X70362305Y-38840005D01*
X70422393Y-38804352D01*
X70453060Y-38800500D01*
X71646397Y-38800500D01*
X71713436Y-38820185D01*
G37*
%TD.AperFunction*%
%TA.AperFunction,Conductor*%
G36*
X116513436Y-38820185D02*
G01*
X116559191Y-38872989D01*
X116569135Y-38942147D01*
X116560958Y-38971953D01*
X116486293Y-39152209D01*
X116486290Y-39152219D01*
X116428597Y-39367534D01*
X116428594Y-39367547D01*
X116399501Y-39588533D01*
X116399500Y-39588549D01*
X116399500Y-43658481D01*
X116379815Y-43725520D01*
X116363181Y-43746162D01*
X112946162Y-47163181D01*
X112884839Y-47196666D01*
X112858481Y-47199500D01*
X79653603Y-47199500D01*
X79586564Y-47179815D01*
X79540809Y-47127011D01*
X79530865Y-47057853D01*
X79539042Y-47028047D01*
X79585031Y-46917017D01*
X79613710Y-46847781D01*
X79671404Y-46632463D01*
X79700500Y-46411457D01*
X79700500Y-42341518D01*
X79720185Y-42274479D01*
X79736819Y-42253837D01*
X83153837Y-38836819D01*
X83215160Y-38803334D01*
X83241518Y-38800500D01*
X116446397Y-38800500D01*
X116513436Y-38820185D01*
G37*
%TD.AperFunction*%
%TA.AperFunction,Conductor*%
G36*
X175213979Y-38820185D02*
G01*
X175259734Y-38872989D01*
X175269678Y-38942147D01*
X175261501Y-38971953D01*
X175186763Y-39152381D01*
X175129088Y-39367632D01*
X175129085Y-39367645D01*
X175100000Y-39588575D01*
X175100000Y-42750000D01*
X175800000Y-42750000D01*
X175800000Y-43250000D01*
X175100000Y-43250000D01*
X175100000Y-45572723D01*
X175080315Y-45639762D01*
X175027511Y-45685517D01*
X174958353Y-45695461D01*
X174894797Y-45666436D01*
X174888319Y-45660404D01*
X173836819Y-44608904D01*
X173803334Y-44547581D01*
X173800500Y-44521223D01*
X173800500Y-39588549D01*
X173800500Y-39588543D01*
X173771404Y-39367537D01*
X173713710Y-39152219D01*
X173713706Y-39152209D01*
X173639042Y-38971953D01*
X173631573Y-38902483D01*
X173662848Y-38840004D01*
X173722937Y-38804352D01*
X173753603Y-38800500D01*
X175146940Y-38800500D01*
X175213979Y-38820185D01*
G37*
%TD.AperFunction*%
%TA.AperFunction,Conductor*%
G36*
X55895520Y-16220185D02*
G01*
X55916162Y-16236819D01*
X57163181Y-17483838D01*
X57196666Y-17545161D01*
X57199500Y-17571519D01*
X57199500Y-18877870D01*
X57199501Y-18877876D01*
X57205908Y-18937483D01*
X57256202Y-19072328D01*
X57256206Y-19072335D01*
X57342452Y-19187544D01*
X57342455Y-19187547D01*
X57457664Y-19273793D01*
X57457671Y-19273797D01*
X57502618Y-19290561D01*
X57592517Y-19324091D01*
X57652127Y-19330500D01*
X57762693Y-19330499D01*
X57829730Y-19350183D01*
X57850372Y-19366818D01*
X58511415Y-20027861D01*
X58426306Y-20050667D01*
X58323694Y-20109910D01*
X58239910Y-20193694D01*
X58180667Y-20296306D01*
X58157861Y-20381415D01*
X57448811Y-19672365D01*
X57364516Y-19801390D01*
X57271317Y-20013864D01*
X57214361Y-20238781D01*
X57195202Y-20469994D01*
X57195202Y-20470005D01*
X57214361Y-20701218D01*
X57268513Y-20915060D01*
X57265888Y-20984880D01*
X57225932Y-21042198D01*
X57161330Y-21068814D01*
X57148307Y-21069500D01*
X53611519Y-21069500D01*
X53544480Y-21049815D01*
X53523838Y-21033181D01*
X53136818Y-20646161D01*
X53103333Y-20584838D01*
X53100499Y-20558480D01*
X53100499Y-19999998D01*
X53100498Y-19999981D01*
X53089999Y-19897203D01*
X53089998Y-19897200D01*
X53060111Y-19807007D01*
X53034814Y-19730666D01*
X52942712Y-19581344D01*
X52818656Y-19457288D01*
X52669334Y-19365186D01*
X52669330Y-19365184D01*
X52663325Y-19362385D01*
X52610884Y-19316215D01*
X52591728Y-19249023D01*
X52611940Y-19182141D01*
X52663325Y-19137615D01*
X52669322Y-19134817D01*
X52669334Y-19134814D01*
X52818656Y-19042712D01*
X52942712Y-18918656D01*
X53034814Y-18769334D01*
X53034814Y-18769332D01*
X53038605Y-18763187D01*
X53040399Y-18764293D01*
X53079687Y-18719663D01*
X53145908Y-18700500D01*
X53391844Y-18700500D01*
X53458883Y-18720185D01*
X53464729Y-18724182D01*
X53547265Y-18784148D01*
X53547270Y-18784151D01*
X53720192Y-18861142D01*
X53720197Y-18861144D01*
X53905354Y-18900500D01*
X53905355Y-18900500D01*
X54094644Y-18900500D01*
X54094646Y-18900500D01*
X54279803Y-18861144D01*
X54452730Y-18784151D01*
X54605871Y-18672888D01*
X54732533Y-18532216D01*
X54827179Y-18368284D01*
X54885674Y-18188256D01*
X54905460Y-18000000D01*
X54885674Y-17811744D01*
X54827179Y-17631716D01*
X54732533Y-17467784D01*
X54605871Y-17327112D01*
X54587209Y-17313553D01*
X54452734Y-17215851D01*
X54452729Y-17215848D01*
X54279807Y-17138857D01*
X54279802Y-17138855D01*
X54134001Y-17107865D01*
X54094646Y-17099500D01*
X53905354Y-17099500D01*
X53872897Y-17106398D01*
X53720197Y-17138855D01*
X53720192Y-17138857D01*
X53547270Y-17215848D01*
X53547265Y-17215851D01*
X53464729Y-17275818D01*
X53398923Y-17299298D01*
X53391844Y-17299500D01*
X53145908Y-17299500D01*
X53078869Y-17279815D01*
X53040363Y-17235728D01*
X53038605Y-17236813D01*
X53025676Y-17215851D01*
X52942712Y-17081344D01*
X52818656Y-16957288D01*
X52669334Y-16865186D01*
X52669330Y-16865184D01*
X52663325Y-16862385D01*
X52610884Y-16816215D01*
X52591728Y-16749023D01*
X52611940Y-16682141D01*
X52663325Y-16637615D01*
X52669322Y-16634817D01*
X52669334Y-16634814D01*
X52818656Y-16542712D01*
X52942712Y-16418656D01*
X53034814Y-16269334D01*
X53034814Y-16269332D01*
X53038605Y-16263187D01*
X53040399Y-16264293D01*
X53079687Y-16219663D01*
X53145908Y-16200500D01*
X55828481Y-16200500D01*
X55895520Y-16220185D01*
G37*
%TD.AperFunction*%
%TA.AperFunction,Conductor*%
G36*
X27294075Y-17152993D02*
G01*
X27359901Y-17267007D01*
X27452993Y-17360099D01*
X27567007Y-17425925D01*
X27630590Y-17442962D01*
X26998625Y-18074925D01*
X27075031Y-18128425D01*
X27118655Y-18183002D01*
X27125848Y-18252501D01*
X27094326Y-18314855D01*
X27075029Y-18331576D01*
X26998625Y-18385072D01*
X27630590Y-19017037D01*
X27567007Y-19034075D01*
X27452993Y-19099901D01*
X27359901Y-19192993D01*
X27294075Y-19307007D01*
X27277037Y-19370590D01*
X26640655Y-18734208D01*
X26588806Y-18723788D01*
X26538623Y-18675173D01*
X26528793Y-18653031D01*
X26520697Y-18628599D01*
X26504814Y-18580666D01*
X26412712Y-18431344D01*
X26288656Y-18307288D01*
X26195888Y-18250069D01*
X26139336Y-18215187D01*
X26139331Y-18215185D01*
X26139215Y-18215146D01*
X26130733Y-18212336D01*
X26073290Y-18172564D01*
X26046467Y-18108048D01*
X26058782Y-18039272D01*
X26087767Y-18002517D01*
X26087573Y-18002323D01*
X26089219Y-18000676D01*
X26090040Y-17999636D01*
X26091388Y-17998504D01*
X26091401Y-17998495D01*
X26258495Y-17831401D01*
X26388732Y-17645403D01*
X26443307Y-17601780D01*
X26512805Y-17594586D01*
X26575160Y-17626109D01*
X26591880Y-17645405D01*
X26645073Y-17721373D01*
X27277037Y-17089409D01*
X27294075Y-17152993D01*
G37*
%TD.AperFunction*%
%TA.AperFunction,Conductor*%
G36*
X29834075Y-17152993D02*
G01*
X29899901Y-17267007D01*
X29992993Y-17360099D01*
X30107007Y-17425925D01*
X30170590Y-17442962D01*
X29538625Y-18074925D01*
X29615031Y-18128425D01*
X29658655Y-18183002D01*
X29665848Y-18252501D01*
X29634326Y-18314855D01*
X29615029Y-18331576D01*
X29538625Y-18385072D01*
X30170590Y-19017037D01*
X30107007Y-19034075D01*
X29992993Y-19099901D01*
X29899901Y-19192993D01*
X29834075Y-19307007D01*
X29817037Y-19370590D01*
X29185072Y-18738625D01*
X29185072Y-18738626D01*
X29131574Y-18815030D01*
X29076998Y-18858655D01*
X29007499Y-18865849D01*
X28945144Y-18834326D01*
X28928424Y-18815030D01*
X28874925Y-18738626D01*
X28874925Y-18738625D01*
X28242962Y-19370589D01*
X28225925Y-19307007D01*
X28160099Y-19192993D01*
X28067007Y-19099901D01*
X27952993Y-19034075D01*
X27889410Y-19017037D01*
X28521373Y-18385073D01*
X28444969Y-18331576D01*
X28401344Y-18276999D01*
X28394150Y-18207501D01*
X28425672Y-18145146D01*
X28444968Y-18128425D01*
X28521373Y-18074925D01*
X27889409Y-17442962D01*
X27952993Y-17425925D01*
X28067007Y-17360099D01*
X28160099Y-17267007D01*
X28225925Y-17152993D01*
X28242962Y-17089410D01*
X28874925Y-17721373D01*
X28928425Y-17644968D01*
X28983002Y-17601344D01*
X29052501Y-17594151D01*
X29114855Y-17625673D01*
X29131576Y-17644969D01*
X29185073Y-17721372D01*
X29817037Y-17089409D01*
X29834075Y-17152993D01*
G37*
%TD.AperFunction*%
%TA.AperFunction,Conductor*%
G36*
X32374075Y-17152993D02*
G01*
X32439901Y-17267007D01*
X32532993Y-17360099D01*
X32647007Y-17425925D01*
X32710590Y-17442962D01*
X32078625Y-18074925D01*
X32155031Y-18128425D01*
X32198655Y-18183002D01*
X32205848Y-18252501D01*
X32174326Y-18314855D01*
X32155029Y-18331576D01*
X32078625Y-18385072D01*
X32710590Y-19017037D01*
X32647007Y-19034075D01*
X32532993Y-19099901D01*
X32439901Y-19192993D01*
X32374075Y-19307007D01*
X32357037Y-19370590D01*
X31725072Y-18738625D01*
X31725072Y-18738626D01*
X31671574Y-18815030D01*
X31616998Y-18858655D01*
X31547499Y-18865849D01*
X31485144Y-18834326D01*
X31468424Y-18815030D01*
X31414925Y-18738626D01*
X31414925Y-18738625D01*
X30782962Y-19370589D01*
X30765925Y-19307007D01*
X30700099Y-19192993D01*
X30607007Y-19099901D01*
X30492993Y-19034075D01*
X30429410Y-19017037D01*
X31061373Y-18385073D01*
X30984969Y-18331576D01*
X30941344Y-18276999D01*
X30934150Y-18207501D01*
X30965672Y-18145146D01*
X30984968Y-18128425D01*
X31061373Y-18074925D01*
X30429409Y-17442962D01*
X30492993Y-17425925D01*
X30607007Y-17360099D01*
X30700099Y-17267007D01*
X30765925Y-17152993D01*
X30782962Y-17089410D01*
X31414925Y-17721373D01*
X31468425Y-17644968D01*
X31523002Y-17601344D01*
X31592501Y-17594151D01*
X31654855Y-17625673D01*
X31671576Y-17644969D01*
X31725073Y-17721372D01*
X32357037Y-17089409D01*
X32374075Y-17152993D01*
G37*
%TD.AperFunction*%
%TA.AperFunction,Conductor*%
G36*
X33954925Y-17721373D02*
G01*
X34008119Y-17645405D01*
X34062696Y-17601781D01*
X34132195Y-17594588D01*
X34194549Y-17626110D01*
X34211269Y-17645405D01*
X34341505Y-17831401D01*
X34341506Y-17831402D01*
X34508597Y-17998493D01*
X34508603Y-17998498D01*
X34694158Y-18128425D01*
X34737783Y-18183002D01*
X34744977Y-18252500D01*
X34713454Y-18314855D01*
X34694158Y-18331575D01*
X34508597Y-18461505D01*
X34341505Y-18628597D01*
X34211269Y-18814595D01*
X34156692Y-18858220D01*
X34087194Y-18865414D01*
X34024839Y-18833891D01*
X34008119Y-18814595D01*
X33954925Y-18738626D01*
X33954925Y-18738625D01*
X33322962Y-19370589D01*
X33305925Y-19307007D01*
X33240099Y-19192993D01*
X33147007Y-19099901D01*
X33032993Y-19034075D01*
X32969410Y-19017037D01*
X33601373Y-18385073D01*
X33524969Y-18331576D01*
X33481344Y-18276999D01*
X33474150Y-18207501D01*
X33505672Y-18145146D01*
X33524968Y-18128425D01*
X33601373Y-18074925D01*
X32969409Y-17442962D01*
X33032993Y-17425925D01*
X33147007Y-17360099D01*
X33240099Y-17267007D01*
X33305925Y-17152993D01*
X33322962Y-17089410D01*
X33954925Y-17721373D01*
G37*
%TD.AperFunction*%
%TA.AperFunction,Conductor*%
G36*
X229000678Y-12000007D02*
G01*
X229243587Y-12002516D01*
X229252511Y-12002932D01*
X229737370Y-12043108D01*
X229747506Y-12044370D01*
X230226772Y-12124347D01*
X230236774Y-12126444D01*
X230707792Y-12245721D01*
X230717597Y-12248641D01*
X231177139Y-12406402D01*
X231186661Y-12410117D01*
X231631623Y-12605295D01*
X231640793Y-12609778D01*
X232068126Y-12841039D01*
X232076902Y-12846268D01*
X232356990Y-13029259D01*
X232483668Y-13112022D01*
X232491997Y-13117969D01*
X232875425Y-13416403D01*
X232883207Y-13422994D01*
X233167332Y-13684550D01*
X233240680Y-13752072D01*
X233247927Y-13759319D01*
X233577003Y-14116790D01*
X233583598Y-14124576D01*
X233842559Y-14457289D01*
X233882022Y-14507991D01*
X233887977Y-14516331D01*
X234153725Y-14923088D01*
X234158964Y-14931880D01*
X234390216Y-15359196D01*
X234394710Y-15368390D01*
X234589877Y-15813326D01*
X234593602Y-15822873D01*
X234751355Y-16282393D01*
X234754280Y-16292216D01*
X234873552Y-16763211D01*
X234875655Y-16773241D01*
X234955626Y-17252476D01*
X234956893Y-17262646D01*
X234997066Y-17747470D01*
X234997483Y-17756429D01*
X234999993Y-17999322D01*
X235000000Y-18000603D01*
X235000000Y-49376000D01*
X234980315Y-49443039D01*
X234927511Y-49488794D01*
X234876000Y-49500000D01*
X15124000Y-49500000D01*
X15056961Y-49480315D01*
X15011206Y-49427511D01*
X15000000Y-49376000D01*
X15000000Y-46411450D01*
X17599500Y-46411450D01*
X17599501Y-46411466D01*
X17628594Y-46632452D01*
X17628595Y-46632457D01*
X17628596Y-46632463D01*
X17686290Y-46847780D01*
X17686293Y-46847790D01*
X17771593Y-47053722D01*
X17771595Y-47053726D01*
X17883052Y-47246774D01*
X17883057Y-47246780D01*
X17883058Y-47246782D01*
X18018751Y-47423622D01*
X18018757Y-47423629D01*
X18176370Y-47581242D01*
X18176376Y-47581247D01*
X18353226Y-47716948D01*
X18546274Y-47828405D01*
X18752219Y-47913710D01*
X18967537Y-47971404D01*
X19188543Y-48000500D01*
X19188550Y-48000500D01*
X19411450Y-48000500D01*
X19411457Y-48000500D01*
X19632463Y-47971404D01*
X19847781Y-47913710D01*
X20053726Y-47828405D01*
X20246774Y-47716948D01*
X20423624Y-47581247D01*
X20581247Y-47423624D01*
X20716948Y-47246774D01*
X20828405Y-47053726D01*
X20913710Y-46847781D01*
X20971404Y-46632463D01*
X21000500Y-46411457D01*
X21000500Y-46411450D01*
X22299500Y-46411450D01*
X22299501Y-46411466D01*
X22328594Y-46632452D01*
X22328595Y-46632457D01*
X22328596Y-46632463D01*
X22386290Y-46847780D01*
X22386293Y-46847790D01*
X22471593Y-47053722D01*
X22471595Y-47053726D01*
X22583052Y-47246774D01*
X22583057Y-47246780D01*
X22583058Y-47246782D01*
X22718751Y-47423622D01*
X22718757Y-47423629D01*
X22876370Y-47581242D01*
X22876376Y-47581247D01*
X23053226Y-47716948D01*
X23246274Y-47828405D01*
X23452219Y-47913710D01*
X23667537Y-47971404D01*
X23888543Y-48000500D01*
X23888550Y-48000500D01*
X24111450Y-48000500D01*
X24111457Y-48000500D01*
X24332463Y-47971404D01*
X24547781Y-47913710D01*
X24753726Y-47828405D01*
X24946774Y-47716948D01*
X25123624Y-47581247D01*
X25281247Y-47423624D01*
X25416948Y-47246774D01*
X25528405Y-47053726D01*
X25613710Y-46847781D01*
X25671404Y-46632463D01*
X25700500Y-46411457D01*
X25700500Y-42341518D01*
X25720185Y-42274479D01*
X25736819Y-42253837D01*
X29153837Y-38836819D01*
X29215160Y-38803334D01*
X29241518Y-38800500D01*
X62446397Y-38800500D01*
X62513436Y-38820185D01*
X62559191Y-38872989D01*
X62569135Y-38942147D01*
X62560958Y-38971953D01*
X62486293Y-39152209D01*
X62486290Y-39152219D01*
X62428597Y-39367534D01*
X62428594Y-39367547D01*
X62399501Y-39588533D01*
X62399500Y-39588549D01*
X62399500Y-46411450D01*
X62399501Y-46411466D01*
X62428594Y-46632452D01*
X62428595Y-46632457D01*
X62428596Y-46632463D01*
X62486290Y-46847780D01*
X62486293Y-46847790D01*
X62571593Y-47053722D01*
X62571595Y-47053726D01*
X62683052Y-47246774D01*
X62683057Y-47246780D01*
X62683058Y-47246782D01*
X62818751Y-47423622D01*
X62818757Y-47423629D01*
X62976370Y-47581242D01*
X62976376Y-47581247D01*
X63153226Y-47716948D01*
X63346274Y-47828405D01*
X63552219Y-47913710D01*
X63767537Y-47971404D01*
X63988543Y-48000500D01*
X63988550Y-48000500D01*
X64211450Y-48000500D01*
X64211457Y-48000500D01*
X64432463Y-47971404D01*
X64637995Y-47916332D01*
X64707844Y-47917995D01*
X64757768Y-47948426D01*
X65253454Y-48444112D01*
X65368192Y-48520777D01*
X65495667Y-48573578D01*
X65495672Y-48573580D01*
X65495676Y-48573580D01*
X65495677Y-48573581D01*
X65631003Y-48600500D01*
X65631006Y-48600500D01*
X113268996Y-48600500D01*
X113360040Y-48582389D01*
X113404328Y-48573580D01*
X113475463Y-48544115D01*
X113531807Y-48520777D01*
X113531808Y-48520776D01*
X113531811Y-48520775D01*
X113646543Y-48444114D01*
X116187819Y-45902836D01*
X116249142Y-45869352D01*
X116318834Y-45874336D01*
X116374767Y-45916208D01*
X116399184Y-45981672D01*
X116399500Y-45990518D01*
X116399500Y-46411450D01*
X116399501Y-46411466D01*
X116428594Y-46632452D01*
X116428595Y-46632457D01*
X116428596Y-46632463D01*
X116486290Y-46847780D01*
X116486293Y-46847790D01*
X116571593Y-47053722D01*
X116571595Y-47053726D01*
X116683052Y-47246774D01*
X116683057Y-47246780D01*
X116683058Y-47246782D01*
X116818751Y-47423622D01*
X116818757Y-47423629D01*
X116976370Y-47581242D01*
X116976376Y-47581247D01*
X117153226Y-47716948D01*
X117346274Y-47828405D01*
X117552219Y-47913710D01*
X117767537Y-47971404D01*
X117988543Y-48000500D01*
X117988550Y-48000500D01*
X118211450Y-48000500D01*
X118211457Y-48000500D01*
X118432463Y-47971404D01*
X118637995Y-47916332D01*
X118707844Y-47917995D01*
X118757768Y-47948426D01*
X119353454Y-48544112D01*
X119468192Y-48620777D01*
X119595667Y-48673578D01*
X119595672Y-48673580D01*
X119595676Y-48673580D01*
X119595677Y-48673581D01*
X119731003Y-48700500D01*
X119731006Y-48700500D01*
X167168996Y-48700500D01*
X167277457Y-48678925D01*
X167304328Y-48673580D01*
X167368069Y-48647177D01*
X167431807Y-48620777D01*
X167431808Y-48620776D01*
X167431811Y-48620775D01*
X167546543Y-48544114D01*
X170187819Y-45902838D01*
X170249142Y-45869353D01*
X170318834Y-45874337D01*
X170374767Y-45916209D01*
X170399184Y-45981673D01*
X170399500Y-45990519D01*
X170399500Y-46411450D01*
X170399501Y-46411466D01*
X170428594Y-46632452D01*
X170428595Y-46632457D01*
X170428596Y-46632463D01*
X170486290Y-46847780D01*
X170486293Y-46847790D01*
X170571593Y-47053722D01*
X170571595Y-47053726D01*
X170683052Y-47246774D01*
X170683057Y-47246780D01*
X170683058Y-47246782D01*
X170818751Y-47423622D01*
X170818757Y-47423629D01*
X170976370Y-47581242D01*
X170976376Y-47581247D01*
X171153226Y-47716948D01*
X171346274Y-47828405D01*
X171552219Y-47913710D01*
X171767537Y-47971404D01*
X171988543Y-48000500D01*
X171988550Y-48000500D01*
X172211450Y-48000500D01*
X172211457Y-48000500D01*
X172432463Y-47971404D01*
X172647781Y-47913710D01*
X172853726Y-47828405D01*
X173046774Y-47716948D01*
X173223624Y-47581247D01*
X173381247Y-47423624D01*
X173516948Y-47246774D01*
X173628405Y-47053726D01*
X173713710Y-46847781D01*
X173738568Y-46755007D01*
X173774932Y-46695349D01*
X173837778Y-46664820D01*
X173907154Y-46673114D01*
X173946023Y-46699422D01*
X175693144Y-48446542D01*
X175767377Y-48520775D01*
X175790717Y-48544115D01*
X175905440Y-48620771D01*
X175905444Y-48620773D01*
X175905447Y-48620775D01*
X175980124Y-48651707D01*
X175980125Y-48651707D01*
X175980127Y-48651709D01*
X176032924Y-48673578D01*
X176032929Y-48673580D01*
X176032938Y-48673581D01*
X176032939Y-48673582D01*
X176059803Y-48678925D01*
X176059809Y-48678926D01*
X176059849Y-48678934D01*
X176150195Y-48696905D01*
X176168264Y-48700500D01*
X176168265Y-48700500D01*
X221168996Y-48700500D01*
X221277457Y-48678925D01*
X221304328Y-48673580D01*
X221368069Y-48647177D01*
X221431807Y-48620777D01*
X221431808Y-48620776D01*
X221431811Y-48620775D01*
X221546543Y-48544114D01*
X224187819Y-45902838D01*
X224249142Y-45869353D01*
X224318834Y-45874337D01*
X224374767Y-45916209D01*
X224399184Y-45981673D01*
X224399500Y-45990519D01*
X224399500Y-46411450D01*
X224399501Y-46411466D01*
X224428594Y-46632452D01*
X224428595Y-46632457D01*
X224428596Y-46632463D01*
X224486290Y-46847780D01*
X224486293Y-46847790D01*
X224571593Y-47053722D01*
X224571595Y-47053726D01*
X224683052Y-47246774D01*
X224683057Y-47246780D01*
X224683058Y-47246782D01*
X224818751Y-47423622D01*
X224818757Y-47423629D01*
X224976370Y-47581242D01*
X224976376Y-47581247D01*
X225153226Y-47716948D01*
X225346274Y-47828405D01*
X225552219Y-47913710D01*
X225767537Y-47971404D01*
X225988543Y-48000500D01*
X225988550Y-48000500D01*
X226211450Y-48000500D01*
X226211457Y-48000500D01*
X226432463Y-47971404D01*
X226647781Y-47913710D01*
X226853726Y-47828405D01*
X227046774Y-47716948D01*
X227223624Y-47581247D01*
X227381247Y-47423624D01*
X227516948Y-47246774D01*
X227628405Y-47053726D01*
X227713710Y-46847781D01*
X227771404Y-46632463D01*
X227800500Y-46411457D01*
X227800500Y-46411424D01*
X229100000Y-46411424D01*
X229129085Y-46632354D01*
X229129088Y-46632367D01*
X229186763Y-46847618D01*
X229272045Y-47053502D01*
X229272054Y-47053520D01*
X229383464Y-47246491D01*
X229383466Y-47246495D01*
X229519130Y-47423293D01*
X229519138Y-47423302D01*
X229676698Y-47580862D01*
X229676706Y-47580869D01*
X229853504Y-47716533D01*
X229853508Y-47716535D01*
X230046479Y-47827945D01*
X230046497Y-47827954D01*
X230252379Y-47913235D01*
X230467632Y-47970912D01*
X230549999Y-47981755D01*
X230550000Y-47981755D01*
X230550000Y-45469863D01*
X230701509Y-45500000D01*
X230898491Y-45500000D01*
X231050000Y-45469863D01*
X231050000Y-47981755D01*
X231132367Y-47970912D01*
X231347620Y-47913235D01*
X231553502Y-47827954D01*
X231553520Y-47827945D01*
X231746491Y-47716535D01*
X231746495Y-47716533D01*
X231923293Y-47580869D01*
X231923302Y-47580862D01*
X232080862Y-47423302D01*
X232080869Y-47423293D01*
X232216533Y-47246495D01*
X232216535Y-47246491D01*
X232327945Y-47053520D01*
X232327954Y-47053502D01*
X232413236Y-46847618D01*
X232470911Y-46632367D01*
X232470914Y-46632354D01*
X232500000Y-46411424D01*
X232500000Y-43250000D01*
X231800000Y-43250000D01*
X231800000Y-42750000D01*
X232500000Y-42750000D01*
X232500000Y-39588575D01*
X232470914Y-39367645D01*
X232470911Y-39367632D01*
X232413236Y-39152381D01*
X232327954Y-38946497D01*
X232327945Y-38946479D01*
X232216535Y-38753508D01*
X232216533Y-38753504D01*
X232080869Y-38576706D01*
X232080862Y-38576698D01*
X231923302Y-38419138D01*
X231923293Y-38419130D01*
X231746495Y-38283466D01*
X231746491Y-38283464D01*
X231553520Y-38172054D01*
X231553502Y-38172045D01*
X231347618Y-38086763D01*
X231132363Y-38029087D01*
X231050000Y-38018242D01*
X231050000Y-40530136D01*
X230898491Y-40500000D01*
X230701509Y-40500000D01*
X230550000Y-40530136D01*
X230550000Y-38018242D01*
X230549999Y-38018242D01*
X230467636Y-38029087D01*
X230252381Y-38086763D01*
X230046497Y-38172045D01*
X230046479Y-38172054D01*
X229853508Y-38283464D01*
X229853504Y-38283466D01*
X229676706Y-38419130D01*
X229519130Y-38576706D01*
X229383466Y-38753504D01*
X229383464Y-38753508D01*
X229272054Y-38946479D01*
X229272045Y-38946497D01*
X229186763Y-39152381D01*
X229129088Y-39367632D01*
X229129085Y-39367645D01*
X229100000Y-39588575D01*
X229100000Y-42750000D01*
X229800000Y-42750000D01*
X229800000Y-43250000D01*
X229100000Y-43250000D01*
X229100000Y-46411424D01*
X227800500Y-46411424D01*
X227800500Y-39588543D01*
X227771404Y-39367537D01*
X227713710Y-39152219D01*
X227628405Y-38946274D01*
X227516948Y-38753226D01*
X227381247Y-38576376D01*
X227381242Y-38576370D01*
X227223629Y-38418757D01*
X227223622Y-38418751D01*
X227046782Y-38283058D01*
X227046780Y-38283057D01*
X227046774Y-38283052D01*
X226853726Y-38171595D01*
X226853722Y-38171593D01*
X226647790Y-38086293D01*
X226647783Y-38086291D01*
X226647781Y-38086290D01*
X226432463Y-38028596D01*
X226432457Y-38028595D01*
X226432452Y-38028594D01*
X226211466Y-37999501D01*
X226211463Y-37999500D01*
X226211457Y-37999500D01*
X225988543Y-37999500D01*
X225988537Y-37999500D01*
X225988533Y-37999501D01*
X225767547Y-38028594D01*
X225767540Y-38028595D01*
X225767537Y-38028596D01*
X225552219Y-38086290D01*
X225552209Y-38086293D01*
X225346277Y-38171593D01*
X225346273Y-38171595D01*
X225153226Y-38283052D01*
X225153217Y-38283058D01*
X224976377Y-38418751D01*
X224976370Y-38418757D01*
X224818757Y-38576370D01*
X224818751Y-38576377D01*
X224683058Y-38753217D01*
X224683052Y-38753226D01*
X224571595Y-38946273D01*
X224571593Y-38946277D01*
X224486293Y-39152209D01*
X224486290Y-39152219D01*
X224428597Y-39367534D01*
X224428594Y-39367547D01*
X224399501Y-39588533D01*
X224399500Y-39588549D01*
X224399500Y-43658481D01*
X224379815Y-43725520D01*
X224363181Y-43746162D01*
X220846162Y-47263181D01*
X220784839Y-47296666D01*
X220758481Y-47299500D01*
X187601282Y-47299500D01*
X187534243Y-47279815D01*
X187488488Y-47227011D01*
X187478544Y-47157853D01*
X187493895Y-47113500D01*
X187528401Y-47053733D01*
X187528401Y-47053732D01*
X187528405Y-47053726D01*
X187613710Y-46847781D01*
X187671404Y-46632463D01*
X187700500Y-46411457D01*
X187700500Y-39588543D01*
X187671404Y-39367537D01*
X187613710Y-39152219D01*
X187528405Y-38946274D01*
X187416948Y-38753226D01*
X187281247Y-38576376D01*
X187281242Y-38576370D01*
X187123629Y-38418757D01*
X187123622Y-38418751D01*
X186946782Y-38283058D01*
X186946780Y-38283057D01*
X186946774Y-38283052D01*
X186753726Y-38171595D01*
X186753722Y-38171593D01*
X186547790Y-38086293D01*
X186547783Y-38086291D01*
X186547781Y-38086290D01*
X186332463Y-38028596D01*
X186332457Y-38028595D01*
X186332452Y-38028594D01*
X186111466Y-37999501D01*
X186111463Y-37999500D01*
X186111457Y-37999500D01*
X185888543Y-37999500D01*
X185888537Y-37999500D01*
X185888533Y-37999501D01*
X185667547Y-38028594D01*
X185667540Y-38028595D01*
X185667537Y-38028596D01*
X185462004Y-38083667D01*
X185392155Y-38082005D01*
X185342231Y-38051574D01*
X184846546Y-37555888D01*
X184846545Y-37555887D01*
X184731807Y-37479222D01*
X184604332Y-37426421D01*
X184604322Y-37426418D01*
X184468996Y-37399500D01*
X184468994Y-37399500D01*
X184468993Y-37399500D01*
X136831007Y-37399500D01*
X136831003Y-37399500D01*
X136722590Y-37421065D01*
X136722589Y-37421065D01*
X136706379Y-37424289D01*
X136695669Y-37426420D01*
X136647090Y-37446543D01*
X136647089Y-37446543D01*
X136568191Y-37479223D01*
X136565628Y-37480936D01*
X136565624Y-37480939D01*
X136453457Y-37555886D01*
X136453453Y-37555889D01*
X133912181Y-40097162D01*
X133850858Y-40130647D01*
X133781166Y-40125663D01*
X133725233Y-40083791D01*
X133700816Y-40018327D01*
X133700500Y-40009481D01*
X133700500Y-39588549D01*
X133700500Y-39588543D01*
X133671404Y-39367537D01*
X133613710Y-39152219D01*
X133528405Y-38946274D01*
X133416948Y-38753226D01*
X133281247Y-38576376D01*
X133281242Y-38576370D01*
X133123629Y-38418757D01*
X133123622Y-38418751D01*
X132946782Y-38283058D01*
X132946780Y-38283057D01*
X132946774Y-38283052D01*
X132753726Y-38171595D01*
X132753722Y-38171593D01*
X132547790Y-38086293D01*
X132547783Y-38086291D01*
X132547781Y-38086290D01*
X132332463Y-38028596D01*
X132332457Y-38028595D01*
X132332452Y-38028594D01*
X132111466Y-37999501D01*
X132111463Y-37999500D01*
X132111457Y-37999500D01*
X131888543Y-37999500D01*
X131888537Y-37999500D01*
X131888533Y-37999501D01*
X131667547Y-38028594D01*
X131667540Y-38028595D01*
X131667537Y-38028596D01*
X131462004Y-38083667D01*
X131392155Y-38082005D01*
X131342231Y-38051574D01*
X130846546Y-37555888D01*
X130846545Y-37555887D01*
X130731807Y-37479222D01*
X130604332Y-37426421D01*
X130604322Y-37426418D01*
X130468996Y-37399500D01*
X130468994Y-37399500D01*
X130468993Y-37399500D01*
X82831007Y-37399500D01*
X82831003Y-37399500D01*
X82722590Y-37421065D01*
X82722589Y-37421065D01*
X82706379Y-37424289D01*
X82695669Y-37426420D01*
X82647090Y-37446543D01*
X82647089Y-37446543D01*
X82568191Y-37479223D01*
X82565628Y-37480936D01*
X82565624Y-37480939D01*
X82453457Y-37555886D01*
X82453453Y-37555889D01*
X79912181Y-40097162D01*
X79850858Y-40130647D01*
X79781166Y-40125663D01*
X79725233Y-40083791D01*
X79700816Y-40018327D01*
X79700500Y-40009481D01*
X79700500Y-39588549D01*
X79700500Y-39588543D01*
X79671404Y-39367537D01*
X79613710Y-39152219D01*
X79528405Y-38946274D01*
X79416948Y-38753226D01*
X79281247Y-38576376D01*
X79281242Y-38576370D01*
X79123629Y-38418757D01*
X79123622Y-38418751D01*
X78946782Y-38283058D01*
X78946780Y-38283057D01*
X78946774Y-38283052D01*
X78753726Y-38171595D01*
X78753722Y-38171593D01*
X78547790Y-38086293D01*
X78547783Y-38086291D01*
X78547781Y-38086290D01*
X78332463Y-38028596D01*
X78332457Y-38028595D01*
X78332452Y-38028594D01*
X78111466Y-37999501D01*
X78111463Y-37999500D01*
X78111457Y-37999500D01*
X77888543Y-37999500D01*
X77888537Y-37999500D01*
X77888533Y-37999501D01*
X77667547Y-38028594D01*
X77667540Y-38028595D01*
X77667537Y-38028596D01*
X77462004Y-38083667D01*
X77392155Y-38082005D01*
X77342231Y-38051574D01*
X76846546Y-37555888D01*
X76846545Y-37555887D01*
X76731807Y-37479222D01*
X76604332Y-37426421D01*
X76604322Y-37426418D01*
X76468996Y-37399500D01*
X76468994Y-37399500D01*
X76468993Y-37399500D01*
X28831007Y-37399500D01*
X28831003Y-37399500D01*
X28722590Y-37421065D01*
X28722589Y-37421065D01*
X28706379Y-37424289D01*
X28695669Y-37426420D01*
X28647090Y-37446543D01*
X28647089Y-37446543D01*
X28568191Y-37479223D01*
X28565628Y-37480936D01*
X28565624Y-37480939D01*
X28453457Y-37555886D01*
X28453453Y-37555889D01*
X25912181Y-40097162D01*
X25850858Y-40130647D01*
X25781166Y-40125663D01*
X25725233Y-40083791D01*
X25700816Y-40018327D01*
X25700500Y-40009481D01*
X25700500Y-39588549D01*
X25700500Y-39588543D01*
X25671404Y-39367537D01*
X25613710Y-39152219D01*
X25528405Y-38946274D01*
X25416948Y-38753226D01*
X25281247Y-38576376D01*
X25281242Y-38576370D01*
X25123629Y-38418757D01*
X25123622Y-38418751D01*
X24946782Y-38283058D01*
X24946780Y-38283057D01*
X24946774Y-38283052D01*
X24762499Y-38176660D01*
X24714284Y-38126092D01*
X24700500Y-38069273D01*
X24700500Y-37341518D01*
X24720185Y-37274479D01*
X24736819Y-37253837D01*
X27490651Y-34500005D01*
X42822498Y-34500005D01*
X42842420Y-34708639D01*
X42842423Y-34708656D01*
X42901470Y-34909755D01*
X42997518Y-35096062D01*
X43127079Y-35260810D01*
X43127083Y-35260814D01*
X43285481Y-35398068D01*
X43285492Y-35398076D01*
X43467002Y-35502870D01*
X43467004Y-35502871D01*
X43665075Y-35571424D01*
X43872541Y-35601253D01*
X44081902Y-35591280D01*
X44285593Y-35541865D01*
X44476251Y-35454795D01*
X44646985Y-35333215D01*
X44791625Y-35181522D01*
X44904943Y-35005196D01*
X44982843Y-34810611D01*
X45022510Y-34604799D01*
X45025000Y-34500000D01*
X45022510Y-34395201D01*
X44982843Y-34189389D01*
X44904943Y-33994804D01*
X44791625Y-33818478D01*
X44716019Y-33739185D01*
X44646987Y-33666786D01*
X44646984Y-33666784D01*
X44476253Y-33545206D01*
X44468935Y-33541864D01*
X44285593Y-33458135D01*
X44081902Y-33408720D01*
X43892489Y-33399697D01*
X43872543Y-33398747D01*
X43872542Y-33398747D01*
X43872541Y-33398747D01*
X43665075Y-33428576D01*
X43665074Y-33428576D01*
X43665069Y-33428577D01*
X43467002Y-33497129D01*
X43285492Y-33601923D01*
X43285481Y-33601931D01*
X43127083Y-33739185D01*
X43127079Y-33739189D01*
X42997518Y-33903937D01*
X42901470Y-34090244D01*
X42842423Y-34291343D01*
X42842420Y-34291360D01*
X42822498Y-34499994D01*
X42822498Y-34500005D01*
X27490651Y-34500005D01*
X29144113Y-32846543D01*
X29220774Y-32731812D01*
X29220775Y-32731811D01*
X29273580Y-32604328D01*
X29282389Y-32560041D01*
X29300500Y-32468995D01*
X29300500Y-28162289D01*
X29320185Y-28095250D01*
X29358529Y-28057295D01*
X29402262Y-28029816D01*
X29529816Y-27902262D01*
X29588713Y-27808528D01*
X29641048Y-27762237D01*
X29693707Y-27750500D01*
X31256496Y-27750500D01*
X31347540Y-27732389D01*
X31391828Y-27723580D01*
X31455569Y-27697177D01*
X31519307Y-27670777D01*
X31519308Y-27670776D01*
X31519311Y-27670775D01*
X31634043Y-27594114D01*
X31866339Y-27361816D01*
X31927660Y-27328333D01*
X31954019Y-27325499D01*
X32069106Y-27325499D01*
X32136145Y-27345184D01*
X32137996Y-27346396D01*
X32148563Y-27353457D01*
X32193189Y-27383275D01*
X32320672Y-27436080D01*
X32320676Y-27436080D01*
X32320677Y-27436081D01*
X32456004Y-27463000D01*
X32456007Y-27463000D01*
X33976652Y-27463000D01*
X34043691Y-27482685D01*
X34082189Y-27521901D01*
X34157288Y-27643656D01*
X34281344Y-27767712D01*
X34430666Y-27859814D01*
X34597203Y-27914999D01*
X34699991Y-27925500D01*
X36100008Y-27925499D01*
X36100498Y-27925449D01*
X36117895Y-27923671D01*
X36202797Y-27914999D01*
X36369334Y-27859814D01*
X36518656Y-27767712D01*
X36642712Y-27643656D01*
X36734814Y-27494334D01*
X36789999Y-27327797D01*
X36799982Y-27230073D01*
X36826378Y-27165383D01*
X36835649Y-27155006D01*
X37062976Y-26927680D01*
X37124295Y-26894198D01*
X37124304Y-26894195D01*
X37279803Y-26861144D01*
X37279807Y-26861142D01*
X37279808Y-26861142D01*
X37338058Y-26835206D01*
X37452730Y-26784151D01*
X37605871Y-26672888D01*
X37686992Y-26582793D01*
X37746476Y-26546147D01*
X37816333Y-26547476D01*
X37874381Y-26586363D01*
X37902191Y-26650459D01*
X37902361Y-26679647D01*
X37899500Y-26705046D01*
X37899500Y-27494960D01*
X37914630Y-27629249D01*
X37914631Y-27629254D01*
X37974211Y-27799523D01*
X38048264Y-27917377D01*
X38070184Y-27952262D01*
X38197738Y-28079816D01*
X38350478Y-28175789D01*
X38421098Y-28200500D01*
X38520745Y-28235368D01*
X38520750Y-28235369D01*
X38611246Y-28245565D01*
X38655040Y-28250499D01*
X38655043Y-28250500D01*
X38655046Y-28250500D01*
X39344957Y-28250500D01*
X39344958Y-28250499D01*
X39412104Y-28242934D01*
X39479249Y-28235369D01*
X39479252Y-28235368D01*
X39479255Y-28235368D01*
X39649522Y-28175789D01*
X39802262Y-28079816D01*
X39929816Y-27952262D01*
X39988713Y-27858528D01*
X40041048Y-27812237D01*
X40093707Y-27800500D01*
X41606496Y-27800500D01*
X41697540Y-27782389D01*
X41741828Y-27773580D01*
X41862537Y-27723581D01*
X41869307Y-27720777D01*
X41869308Y-27720776D01*
X41869311Y-27720775D01*
X41984043Y-27644114D01*
X42266339Y-27361816D01*
X42327660Y-27328333D01*
X42354019Y-27325499D01*
X42469106Y-27325499D01*
X42536145Y-27345184D01*
X42537996Y-27346396D01*
X42548563Y-27353457D01*
X42593189Y-27383275D01*
X42720672Y-27436080D01*
X42720676Y-27436080D01*
X42720677Y-27436081D01*
X42856004Y-27463000D01*
X42856007Y-27463000D01*
X44376652Y-27463000D01*
X44443691Y-27482685D01*
X44482189Y-27521901D01*
X44557288Y-27643656D01*
X44681344Y-27767712D01*
X44830666Y-27859814D01*
X44997203Y-27914999D01*
X45020485Y-27917377D01*
X45085176Y-27943771D01*
X45123825Y-27998810D01*
X45124089Y-27998701D01*
X45124577Y-27999881D01*
X45125329Y-28000951D01*
X45126389Y-28004255D01*
X45179222Y-28131807D01*
X45255887Y-28246545D01*
X45255888Y-28246546D01*
X52073495Y-35064152D01*
X52106980Y-35125475D01*
X52109134Y-35138869D01*
X52114325Y-35188249D01*
X52114327Y-35188260D01*
X52172818Y-35368277D01*
X52172821Y-35368284D01*
X52267467Y-35532216D01*
X52394129Y-35672888D01*
X52547265Y-35784148D01*
X52547270Y-35784151D01*
X52720192Y-35861142D01*
X52720197Y-35861144D01*
X52905354Y-35900500D01*
X52905355Y-35900500D01*
X53094644Y-35900500D01*
X53094646Y-35900500D01*
X53279803Y-35861144D01*
X53452730Y-35784151D01*
X53605871Y-35672888D01*
X53732533Y-35532216D01*
X53827179Y-35368284D01*
X53885674Y-35188256D01*
X53905460Y-35000000D01*
X53885674Y-34811744D01*
X53827179Y-34631716D01*
X53732533Y-34467784D01*
X53605871Y-34327112D01*
X53605870Y-34327111D01*
X53452734Y-34215851D01*
X53452729Y-34215848D01*
X53279807Y-34138857D01*
X53279802Y-34138855D01*
X53143490Y-34109882D01*
X53124872Y-34105924D01*
X53063391Y-34072733D01*
X53062973Y-34072316D01*
X46926193Y-27935536D01*
X46892708Y-27874213D01*
X46897692Y-27804521D01*
X46926189Y-27760178D01*
X47042712Y-27643656D01*
X47134814Y-27494334D01*
X47189999Y-27327797D01*
X47200500Y-27225009D01*
X47200499Y-26976978D01*
X47220183Y-26909940D01*
X47272987Y-26864185D01*
X47274063Y-26863700D01*
X47353468Y-26828345D01*
X47452730Y-26784151D01*
X47605871Y-26672888D01*
X47732533Y-26532216D01*
X47827179Y-26368284D01*
X47885674Y-26188256D01*
X47905460Y-26000000D01*
X47885674Y-25811744D01*
X47827179Y-25631716D01*
X47732533Y-25467784D01*
X47605871Y-25327112D01*
X47605870Y-25327111D01*
X47452734Y-25215851D01*
X47452729Y-25215848D01*
X47279807Y-25138857D01*
X47279802Y-25138855D01*
X47134001Y-25107865D01*
X47094646Y-25099500D01*
X46905354Y-25099500D01*
X46872897Y-25106398D01*
X46720197Y-25138855D01*
X46720192Y-25138857D01*
X46547270Y-25215848D01*
X46547265Y-25215851D01*
X46394129Y-25327111D01*
X46267465Y-25467785D01*
X46267463Y-25467788D01*
X46227214Y-25537501D01*
X46176647Y-25585716D01*
X46119828Y-25599500D01*
X45099998Y-25599500D01*
X45099980Y-25599501D01*
X44997203Y-25610000D01*
X44997200Y-25610001D01*
X44830668Y-25665185D01*
X44830663Y-25665187D01*
X44681342Y-25757289D01*
X44557289Y-25881342D01*
X44536756Y-25914632D01*
X44484102Y-25999999D01*
X44482191Y-26003097D01*
X44430243Y-26049821D01*
X44376652Y-26062000D01*
X43749499Y-26062000D01*
X43682460Y-26042315D01*
X43636705Y-25989511D01*
X43625499Y-25938000D01*
X43625499Y-25849998D01*
X43625498Y-25849981D01*
X43614999Y-25747203D01*
X43614998Y-25747200D01*
X43597166Y-25693386D01*
X43559814Y-25580666D01*
X43467712Y-25431344D01*
X43343656Y-25307288D01*
X43340342Y-25305243D01*
X43338546Y-25303248D01*
X43337989Y-25302807D01*
X43338064Y-25302711D01*
X43293618Y-25253297D01*
X43282397Y-25184334D01*
X43310240Y-25120252D01*
X43340348Y-25094165D01*
X43343342Y-25092318D01*
X43467315Y-24968345D01*
X43559356Y-24819124D01*
X43559358Y-24819119D01*
X43614505Y-24652697D01*
X43614506Y-24652690D01*
X43624999Y-24549986D01*
X43625000Y-24549973D01*
X43625000Y-24412500D01*
X41175001Y-24412500D01*
X41175001Y-24549986D01*
X41185494Y-24652697D01*
X41240641Y-24819119D01*
X41240643Y-24819124D01*
X41332684Y-24968345D01*
X41456655Y-25092316D01*
X41456659Y-25092319D01*
X41459656Y-25094168D01*
X41461279Y-25095972D01*
X41462323Y-25096798D01*
X41462181Y-25096976D01*
X41506381Y-25146116D01*
X41517602Y-25215079D01*
X41489759Y-25279161D01*
X41459661Y-25305241D01*
X41456349Y-25307283D01*
X41456343Y-25307288D01*
X41332289Y-25431342D01*
X41240187Y-25580663D01*
X41240185Y-25580668D01*
X41230465Y-25610001D01*
X41185001Y-25747203D01*
X41185001Y-25747204D01*
X41185000Y-25747204D01*
X41174500Y-25849983D01*
X41174500Y-25849991D01*
X41174500Y-26120184D01*
X41174501Y-26275500D01*
X41154817Y-26342539D01*
X41102013Y-26388294D01*
X41050501Y-26399500D01*
X40093707Y-26399500D01*
X40026668Y-26379815D01*
X39988713Y-26341472D01*
X39929815Y-26247737D01*
X39802262Y-26120184D01*
X39649523Y-26024211D01*
X39479254Y-25964631D01*
X39479249Y-25964630D01*
X39344960Y-25949500D01*
X39344954Y-25949500D01*
X38655046Y-25949500D01*
X38655039Y-25949500D01*
X38520750Y-25964630D01*
X38520745Y-25964631D01*
X38350476Y-26024211D01*
X38197739Y-26120183D01*
X38104620Y-26213302D01*
X38043296Y-26246786D01*
X37973605Y-26241802D01*
X37917672Y-26199930D01*
X37893255Y-26134465D01*
X37893617Y-26112674D01*
X37905460Y-26000000D01*
X37885674Y-25811744D01*
X37827179Y-25631716D01*
X37732533Y-25467784D01*
X37605871Y-25327112D01*
X37605870Y-25327111D01*
X37452734Y-25215851D01*
X37452729Y-25215848D01*
X37279807Y-25138857D01*
X37279802Y-25138855D01*
X37134001Y-25107865D01*
X37094646Y-25099500D01*
X36905354Y-25099500D01*
X36872897Y-25106398D01*
X36720197Y-25138855D01*
X36720192Y-25138857D01*
X36547270Y-25215848D01*
X36547265Y-25215851D01*
X36394129Y-25327111D01*
X36267465Y-25467785D01*
X36267463Y-25467788D01*
X36226462Y-25538803D01*
X36175895Y-25587018D01*
X36107287Y-25600240D01*
X36106478Y-25600160D01*
X36100027Y-25599501D01*
X36100013Y-25599500D01*
X36100009Y-25599500D01*
X36100002Y-25599500D01*
X34699998Y-25599500D01*
X34699981Y-25599501D01*
X34597203Y-25610000D01*
X34597200Y-25610001D01*
X34430668Y-25665185D01*
X34430663Y-25665187D01*
X34281342Y-25757289D01*
X34157289Y-25881342D01*
X34136756Y-25914632D01*
X34084102Y-25999999D01*
X34082191Y-26003097D01*
X34030243Y-26049821D01*
X33976652Y-26062000D01*
X33349499Y-26062000D01*
X33282460Y-26042315D01*
X33236705Y-25989511D01*
X33225499Y-25938000D01*
X33225499Y-25849998D01*
X33225498Y-25849981D01*
X33214999Y-25747203D01*
X33214998Y-25747200D01*
X33197166Y-25693386D01*
X33159814Y-25580666D01*
X33067712Y-25431344D01*
X32943656Y-25307288D01*
X32940342Y-25305243D01*
X32938546Y-25303248D01*
X32937989Y-25302807D01*
X32938064Y-25302711D01*
X32893618Y-25253297D01*
X32882397Y-25184334D01*
X32910240Y-25120252D01*
X32940348Y-25094165D01*
X32943342Y-25092318D01*
X33067315Y-24968345D01*
X33159356Y-24819124D01*
X33159358Y-24819119D01*
X33214505Y-24652697D01*
X33214506Y-24652690D01*
X33224999Y-24549986D01*
X33225000Y-24549973D01*
X33225000Y-24412500D01*
X30775001Y-24412500D01*
X30775001Y-24549986D01*
X30785494Y-24652697D01*
X30840641Y-24819119D01*
X30840643Y-24819124D01*
X30932684Y-24968345D01*
X31056655Y-25092316D01*
X31056659Y-25092319D01*
X31059656Y-25094168D01*
X31061279Y-25095972D01*
X31062323Y-25096798D01*
X31062181Y-25096976D01*
X31106381Y-25146116D01*
X31117602Y-25215079D01*
X31089759Y-25279161D01*
X31059661Y-25305241D01*
X31056349Y-25307283D01*
X31056343Y-25307288D01*
X30932289Y-25431342D01*
X30840187Y-25580663D01*
X30840185Y-25580668D01*
X30830465Y-25610001D01*
X30785001Y-25747203D01*
X30785001Y-25747204D01*
X30785000Y-25747204D01*
X30774500Y-25849983D01*
X30774500Y-25849991D01*
X30774500Y-26070184D01*
X30774501Y-26225500D01*
X30754817Y-26292539D01*
X30702013Y-26338294D01*
X30650501Y-26349500D01*
X29693707Y-26349500D01*
X29626668Y-26329815D01*
X29588713Y-26291472D01*
X29529815Y-26197737D01*
X29402262Y-26070184D01*
X29249523Y-25974211D01*
X29079254Y-25914631D01*
X29079249Y-25914630D01*
X28944960Y-25899500D01*
X28944954Y-25899500D01*
X28255046Y-25899500D01*
X28255039Y-25899500D01*
X28120750Y-25914630D01*
X28120745Y-25914631D01*
X27950476Y-25974211D01*
X27797737Y-26070184D01*
X27670184Y-26197737D01*
X27574211Y-26350476D01*
X27514631Y-26520745D01*
X27514630Y-26520750D01*
X27499500Y-26655039D01*
X27499500Y-27444960D01*
X27514630Y-27579249D01*
X27514631Y-27579254D01*
X27574211Y-27749523D01*
X27608769Y-27804521D01*
X27670184Y-27902262D01*
X27797738Y-28029816D01*
X27841471Y-28057295D01*
X27887763Y-28109629D01*
X27899500Y-28162289D01*
X27899500Y-32058480D01*
X27879815Y-32125519D01*
X27863181Y-32146161D01*
X23455888Y-36553453D01*
X23455887Y-36553454D01*
X23379222Y-36668192D01*
X23326421Y-36795667D01*
X23326418Y-36795677D01*
X23299500Y-36931004D01*
X23299500Y-38069273D01*
X23279815Y-38136312D01*
X23237501Y-38176660D01*
X23053226Y-38283052D01*
X23053217Y-38283058D01*
X22876377Y-38418751D01*
X22876370Y-38418757D01*
X22718757Y-38576370D01*
X22718751Y-38576377D01*
X22583058Y-38753217D01*
X22583052Y-38753226D01*
X22471595Y-38946273D01*
X22471593Y-38946277D01*
X22386293Y-39152209D01*
X22386290Y-39152219D01*
X22328597Y-39367534D01*
X22328594Y-39367547D01*
X22299501Y-39588533D01*
X22299500Y-39588549D01*
X22299500Y-46411450D01*
X21000500Y-46411450D01*
X21000500Y-39588543D01*
X20971404Y-39367537D01*
X20913710Y-39152219D01*
X20828405Y-38946274D01*
X20716948Y-38753226D01*
X20581247Y-38576376D01*
X20581242Y-38576370D01*
X20423629Y-38418757D01*
X20423622Y-38418751D01*
X20246782Y-38283058D01*
X20246780Y-38283057D01*
X20246774Y-38283052D01*
X20053726Y-38171595D01*
X20053722Y-38171593D01*
X19847790Y-38086293D01*
X19847783Y-38086291D01*
X19847781Y-38086290D01*
X19632463Y-38028596D01*
X19632457Y-38028595D01*
X19632452Y-38028594D01*
X19411466Y-37999501D01*
X19411463Y-37999500D01*
X19411457Y-37999500D01*
X19188543Y-37999500D01*
X19188537Y-37999500D01*
X19188533Y-37999501D01*
X18967547Y-38028594D01*
X18967540Y-38028595D01*
X18967537Y-38028596D01*
X18752219Y-38086290D01*
X18752209Y-38086293D01*
X18546277Y-38171593D01*
X18546273Y-38171595D01*
X18353226Y-38283052D01*
X18353217Y-38283058D01*
X18176377Y-38418751D01*
X18176370Y-38418757D01*
X18018757Y-38576370D01*
X18018751Y-38576377D01*
X17883058Y-38753217D01*
X17883052Y-38753226D01*
X17771595Y-38946273D01*
X17771593Y-38946277D01*
X17686293Y-39152209D01*
X17686290Y-39152219D01*
X17628597Y-39367534D01*
X17628594Y-39367547D01*
X17599501Y-39588533D01*
X17599500Y-39588549D01*
X17599500Y-46411450D01*
X15000000Y-46411450D01*
X15000000Y-32500005D01*
X20247498Y-32500005D01*
X20267420Y-32708639D01*
X20267423Y-32708656D01*
X20326470Y-32909755D01*
X20422518Y-33096062D01*
X20552079Y-33260810D01*
X20552083Y-33260814D01*
X20710481Y-33398068D01*
X20710492Y-33398076D01*
X20892002Y-33502870D01*
X20892004Y-33502871D01*
X21090075Y-33571424D01*
X21297541Y-33601253D01*
X21506902Y-33591280D01*
X21710593Y-33541865D01*
X21901251Y-33454795D01*
X22071985Y-33333215D01*
X22216625Y-33181522D01*
X22329943Y-33005196D01*
X22407843Y-32810611D01*
X22447510Y-32604799D01*
X22450000Y-32500000D01*
X22447510Y-32395201D01*
X22407843Y-32189389D01*
X22329943Y-31994804D01*
X22216625Y-31818478D01*
X22141019Y-31739185D01*
X22071987Y-31666786D01*
X22071984Y-31666784D01*
X21901253Y-31545206D01*
X21901251Y-31545205D01*
X21710593Y-31458135D01*
X21506902Y-31408720D01*
X21317489Y-31399697D01*
X21297543Y-31398747D01*
X21297542Y-31398747D01*
X21297541Y-31398747D01*
X21090075Y-31428576D01*
X21090074Y-31428576D01*
X21090069Y-31428577D01*
X20892002Y-31497129D01*
X20710492Y-31601923D01*
X20710481Y-31601931D01*
X20552083Y-31739185D01*
X20552079Y-31739189D01*
X20422518Y-31903937D01*
X20326470Y-32090244D01*
X20267423Y-32291343D01*
X20267420Y-32291360D01*
X20247498Y-32499994D01*
X20247498Y-32500005D01*
X15000000Y-32500005D01*
X15000000Y-18000603D01*
X15000007Y-17999322D01*
X15002066Y-17800000D01*
X15002516Y-17756410D01*
X15002932Y-17747489D01*
X15043108Y-17262626D01*
X15044370Y-17252496D01*
X15093179Y-16960000D01*
X23864341Y-16960000D01*
X23884936Y-17195403D01*
X23884938Y-17195413D01*
X23946094Y-17423655D01*
X23946096Y-17423659D01*
X23946097Y-17423663D01*
X23986668Y-17510667D01*
X24045965Y-17637830D01*
X24045967Y-17637834D01*
X24122736Y-17747470D01*
X24181505Y-17831401D01*
X24348599Y-17998495D01*
X24348604Y-17998499D01*
X24349968Y-17999643D01*
X24350407Y-18000303D01*
X24352427Y-18002323D01*
X24352021Y-18002728D01*
X24388669Y-18057815D01*
X24389776Y-18127676D01*
X24352937Y-18187046D01*
X24309267Y-18212336D01*
X24300669Y-18215184D01*
X24300663Y-18215187D01*
X24151342Y-18307289D01*
X24027289Y-18431342D01*
X23935187Y-18580663D01*
X23935185Y-18580668D01*
X23911207Y-18653031D01*
X23880001Y-18747203D01*
X23880001Y-18747204D01*
X23880000Y-18747204D01*
X23869500Y-18849983D01*
X23869500Y-20150001D01*
X23869501Y-20150018D01*
X23880000Y-20252796D01*
X23880001Y-20252799D01*
X23935185Y-20419331D01*
X23935187Y-20419336D01*
X23962463Y-20463558D01*
X24027288Y-20568656D01*
X24151344Y-20692712D01*
X24300666Y-20784814D01*
X24467203Y-20839999D01*
X24569991Y-20850500D01*
X25058480Y-20850499D01*
X25125519Y-20870183D01*
X25146161Y-20886818D01*
X27463181Y-23203838D01*
X27496666Y-23265161D01*
X27499500Y-23291519D01*
X27499500Y-23744960D01*
X27514630Y-23879249D01*
X27514631Y-23879254D01*
X27574211Y-24049523D01*
X27641916Y-24157274D01*
X27670184Y-24202262D01*
X27797738Y-24329816D01*
X27888080Y-24386582D01*
X27929328Y-24412500D01*
X27950478Y-24425789D01*
X27996315Y-24441828D01*
X28120745Y-24485368D01*
X28120750Y-24485369D01*
X28211246Y-24495565D01*
X28255040Y-24500499D01*
X28255043Y-24500500D01*
X28255046Y-24500500D01*
X28944957Y-24500500D01*
X28944958Y-24500499D01*
X29012104Y-24492934D01*
X29079249Y-24485369D01*
X29079252Y-24485368D01*
X29079255Y-24485368D01*
X29249522Y-24425789D01*
X29402262Y-24329816D01*
X29529816Y-24202262D01*
X29625789Y-24049522D01*
X29673735Y-23912500D01*
X30775000Y-23912500D01*
X31750000Y-23912500D01*
X31750000Y-23075000D01*
X32250000Y-23075000D01*
X32250000Y-23912500D01*
X33224999Y-23912500D01*
X33224999Y-23887500D01*
X34000001Y-23887500D01*
X34000001Y-24099986D01*
X34010494Y-24202697D01*
X34065641Y-24369119D01*
X34065643Y-24369124D01*
X34157684Y-24518345D01*
X34281654Y-24642315D01*
X34430875Y-24734356D01*
X34430880Y-24734358D01*
X34597302Y-24789505D01*
X34597309Y-24789506D01*
X34700019Y-24799999D01*
X35149999Y-24799999D01*
X35150000Y-24799998D01*
X35150000Y-23887500D01*
X35650000Y-23887500D01*
X35650000Y-24799999D01*
X36099972Y-24799999D01*
X36099986Y-24799998D01*
X36202697Y-24789505D01*
X36369119Y-24734358D01*
X36369124Y-24734356D01*
X36518345Y-24642315D01*
X36642315Y-24518345D01*
X36734356Y-24369124D01*
X36734358Y-24369119D01*
X36789505Y-24202697D01*
X36789506Y-24202690D01*
X36799999Y-24099986D01*
X36800000Y-24099973D01*
X36800000Y-23887500D01*
X35650000Y-23887500D01*
X35150000Y-23887500D01*
X34000001Y-23887500D01*
X33224999Y-23887500D01*
X33224999Y-23775028D01*
X33224998Y-23775013D01*
X33214505Y-23672302D01*
X33159358Y-23505880D01*
X33159356Y-23505875D01*
X33086341Y-23387500D01*
X34000000Y-23387500D01*
X35150000Y-23387500D01*
X35150000Y-22475000D01*
X35650000Y-22475000D01*
X35650000Y-23387500D01*
X36799999Y-23387500D01*
X36799999Y-23175028D01*
X36799998Y-23175013D01*
X36789505Y-23072302D01*
X36734358Y-22905880D01*
X36734356Y-22905875D01*
X36642315Y-22756654D01*
X36518345Y-22632684D01*
X36369124Y-22540643D01*
X36369119Y-22540641D01*
X36202697Y-22485494D01*
X36202690Y-22485493D01*
X36099986Y-22475000D01*
X35650000Y-22475000D01*
X35150000Y-22475000D01*
X34700028Y-22475000D01*
X34700012Y-22475001D01*
X34597302Y-22485494D01*
X34430880Y-22540641D01*
X34430875Y-22540643D01*
X34281654Y-22632684D01*
X34157684Y-22756654D01*
X34065643Y-22905875D01*
X34065641Y-22905880D01*
X34010494Y-23072302D01*
X34010493Y-23072309D01*
X34000000Y-23175013D01*
X34000000Y-23387500D01*
X33086341Y-23387500D01*
X33067315Y-23356654D01*
X32943345Y-23232684D01*
X32794124Y-23140643D01*
X32794119Y-23140641D01*
X32627697Y-23085494D01*
X32627690Y-23085493D01*
X32524986Y-23075000D01*
X32250000Y-23075000D01*
X31750000Y-23075000D01*
X31475029Y-23075000D01*
X31475012Y-23075001D01*
X31372302Y-23085494D01*
X31205880Y-23140641D01*
X31205875Y-23140643D01*
X31056654Y-23232684D01*
X30932684Y-23356654D01*
X30840643Y-23505875D01*
X30840641Y-23505880D01*
X30785494Y-23672302D01*
X30785493Y-23672309D01*
X30775000Y-23775013D01*
X30775000Y-23912500D01*
X29673735Y-23912500D01*
X29685368Y-23879255D01*
X29700500Y-23744954D01*
X29700500Y-22955046D01*
X29685368Y-22820745D01*
X29625789Y-22650478D01*
X29529816Y-22497738D01*
X29402262Y-22370184D01*
X29337767Y-22329659D01*
X29249523Y-22274211D01*
X29079254Y-22214631D01*
X29079249Y-22214630D01*
X28944960Y-22199500D01*
X28944954Y-22199500D01*
X28491519Y-22199500D01*
X28424480Y-22179815D01*
X28403838Y-22163181D01*
X27237945Y-20997288D01*
X27204460Y-20935965D01*
X27209444Y-20866273D01*
X27251316Y-20810340D01*
X27316780Y-20785923D01*
X27357720Y-20789832D01*
X27524677Y-20834568D01*
X27524684Y-20834569D01*
X27759998Y-20855157D01*
X27760002Y-20855157D01*
X27995315Y-20834569D01*
X27995326Y-20834567D01*
X28223483Y-20773433D01*
X28223492Y-20773429D01*
X28437578Y-20673600D01*
X28437582Y-20673598D01*
X28521373Y-20614926D01*
X28521373Y-20614925D01*
X27889409Y-19982962D01*
X27952993Y-19965925D01*
X28067007Y-19900099D01*
X28160099Y-19807007D01*
X28225925Y-19692993D01*
X28242962Y-19629410D01*
X28874925Y-20261373D01*
X28928425Y-20184968D01*
X28983002Y-20141344D01*
X29052501Y-20134151D01*
X29114855Y-20165673D01*
X29131576Y-20184969D01*
X29185073Y-20261372D01*
X29817037Y-19629409D01*
X29834075Y-19692993D01*
X29899901Y-19807007D01*
X29992993Y-19900099D01*
X30107007Y-19965925D01*
X30170590Y-19982962D01*
X29538625Y-20614925D01*
X29622421Y-20673599D01*
X29836507Y-20773429D01*
X29836516Y-20773433D01*
X30064673Y-20834567D01*
X30064684Y-20834569D01*
X30299998Y-20855157D01*
X30300002Y-20855157D01*
X30535315Y-20834569D01*
X30535326Y-20834567D01*
X30763483Y-20773433D01*
X30763492Y-20773429D01*
X30977578Y-20673600D01*
X30977582Y-20673598D01*
X31061373Y-20614926D01*
X31061373Y-20614925D01*
X30429409Y-19982962D01*
X30492993Y-19965925D01*
X30607007Y-19900099D01*
X30700099Y-19807007D01*
X30765925Y-19692993D01*
X30782962Y-19629410D01*
X31414925Y-20261373D01*
X31468425Y-20184968D01*
X31523002Y-20141344D01*
X31592501Y-20134151D01*
X31654855Y-20165673D01*
X31671576Y-20184969D01*
X31725073Y-20261372D01*
X32357037Y-19629409D01*
X32374075Y-19692993D01*
X32439901Y-19807007D01*
X32532993Y-19900099D01*
X32647007Y-19965925D01*
X32710590Y-19982962D01*
X32078625Y-20614925D01*
X32162421Y-20673599D01*
X32376507Y-20773429D01*
X32376516Y-20773433D01*
X32604673Y-20834567D01*
X32604684Y-20834569D01*
X32839998Y-20855157D01*
X32840002Y-20855157D01*
X33075315Y-20834569D01*
X33075326Y-20834567D01*
X33303483Y-20773433D01*
X33303492Y-20773429D01*
X33517578Y-20673600D01*
X33517582Y-20673598D01*
X33601373Y-20614926D01*
X33601373Y-20614925D01*
X32969409Y-19982962D01*
X33032993Y-19965925D01*
X33147007Y-19900099D01*
X33240099Y-19807007D01*
X33305925Y-19692993D01*
X33322962Y-19629410D01*
X33954925Y-20261373D01*
X34008119Y-20185405D01*
X34062696Y-20141781D01*
X34132195Y-20134588D01*
X34194549Y-20166110D01*
X34211269Y-20185405D01*
X34341505Y-20371401D01*
X34508599Y-20538495D01*
X34551675Y-20568657D01*
X34702165Y-20674032D01*
X34702167Y-20674033D01*
X34702170Y-20674035D01*
X34916337Y-20773903D01*
X35144592Y-20835063D01*
X35321034Y-20850500D01*
X35379999Y-20855659D01*
X35380000Y-20855659D01*
X35380001Y-20855659D01*
X35438966Y-20850500D01*
X35615408Y-20835063D01*
X35632216Y-20830559D01*
X35702064Y-20832218D01*
X35751994Y-20862651D01*
X37863181Y-22973838D01*
X37896666Y-23035161D01*
X37899500Y-23061519D01*
X37899500Y-23794960D01*
X37914630Y-23929249D01*
X37914631Y-23929254D01*
X37974211Y-24099523D01*
X38038767Y-24202262D01*
X38070184Y-24252262D01*
X38197738Y-24379816D01*
X38350478Y-24475789D01*
X38421098Y-24500500D01*
X38520745Y-24535368D01*
X38520750Y-24535369D01*
X38611246Y-24545565D01*
X38655040Y-24550499D01*
X38655043Y-24550500D01*
X38655046Y-24550500D01*
X39344957Y-24550500D01*
X39344958Y-24550499D01*
X39412104Y-24542934D01*
X39479249Y-24535369D01*
X39479252Y-24535368D01*
X39479255Y-24535368D01*
X39649522Y-24475789D01*
X39802262Y-24379816D01*
X39929816Y-24252262D01*
X40025789Y-24099522D01*
X40085368Y-23929255D01*
X40087256Y-23912500D01*
X41175000Y-23912500D01*
X42150000Y-23912500D01*
X42150000Y-23075000D01*
X42650000Y-23075000D01*
X42650000Y-23912500D01*
X43624999Y-23912500D01*
X43624999Y-23887500D01*
X44400001Y-23887500D01*
X44400001Y-24099986D01*
X44410494Y-24202697D01*
X44465641Y-24369119D01*
X44465643Y-24369124D01*
X44557684Y-24518345D01*
X44681654Y-24642315D01*
X44830875Y-24734356D01*
X44830880Y-24734358D01*
X44997302Y-24789505D01*
X44997309Y-24789506D01*
X45100019Y-24799999D01*
X45549999Y-24799999D01*
X45550000Y-24799998D01*
X45550000Y-23887500D01*
X46050000Y-23887500D01*
X46050000Y-24799999D01*
X46499972Y-24799999D01*
X46499986Y-24799998D01*
X46602697Y-24789505D01*
X46769119Y-24734358D01*
X46769124Y-24734356D01*
X46918345Y-24642315D01*
X47042315Y-24518345D01*
X47134356Y-24369124D01*
X47134358Y-24369119D01*
X47189505Y-24202697D01*
X47189506Y-24202690D01*
X47199999Y-24099986D01*
X47200000Y-24099973D01*
X47200000Y-23887500D01*
X46050000Y-23887500D01*
X45550000Y-23887500D01*
X44400001Y-23887500D01*
X43624999Y-23887500D01*
X43624999Y-23775028D01*
X43624998Y-23775013D01*
X43614505Y-23672302D01*
X43559358Y-23505880D01*
X43559356Y-23505875D01*
X43486341Y-23387500D01*
X44400000Y-23387500D01*
X45550000Y-23387500D01*
X45550000Y-22475000D01*
X46050000Y-22475000D01*
X46050000Y-23387500D01*
X47199999Y-23387500D01*
X47199999Y-23175028D01*
X47199998Y-23175013D01*
X47189505Y-23072302D01*
X47134358Y-22905880D01*
X47134356Y-22905875D01*
X47042315Y-22756654D01*
X46918345Y-22632684D01*
X46769124Y-22540643D01*
X46769119Y-22540641D01*
X46602697Y-22485494D01*
X46602690Y-22485493D01*
X46499986Y-22475000D01*
X46050000Y-22475000D01*
X45550000Y-22475000D01*
X45100028Y-22475000D01*
X45100012Y-22475001D01*
X44997302Y-22485494D01*
X44830880Y-22540641D01*
X44830875Y-22540643D01*
X44681654Y-22632684D01*
X44557684Y-22756654D01*
X44465643Y-22905875D01*
X44465641Y-22905880D01*
X44410494Y-23072302D01*
X44410493Y-23072309D01*
X44400000Y-23175013D01*
X44400000Y-23387500D01*
X43486341Y-23387500D01*
X43467315Y-23356654D01*
X43343345Y-23232684D01*
X43194124Y-23140643D01*
X43194119Y-23140641D01*
X43027697Y-23085494D01*
X43027690Y-23085493D01*
X42924986Y-23075000D01*
X42650000Y-23075000D01*
X42150000Y-23075000D01*
X41875029Y-23075000D01*
X41875012Y-23075001D01*
X41772302Y-23085494D01*
X41605880Y-23140641D01*
X41605875Y-23140643D01*
X41456654Y-23232684D01*
X41332684Y-23356654D01*
X41240643Y-23505875D01*
X41240641Y-23505880D01*
X41185494Y-23672302D01*
X41185493Y-23672309D01*
X41175000Y-23775013D01*
X41175000Y-23912500D01*
X40087256Y-23912500D01*
X40100500Y-23794954D01*
X40100500Y-23005046D01*
X40085368Y-22870745D01*
X40025789Y-22700478D01*
X39929816Y-22547738D01*
X39802262Y-22420184D01*
X39755461Y-22390777D01*
X39649523Y-22324211D01*
X39479254Y-22264631D01*
X39479249Y-22264630D01*
X39344960Y-22249500D01*
X39344954Y-22249500D01*
X39171519Y-22249500D01*
X39104480Y-22229815D01*
X39083838Y-22213181D01*
X37929930Y-21059273D01*
X37896445Y-20997950D01*
X37901429Y-20928258D01*
X37943301Y-20872325D01*
X38006802Y-20848064D01*
X38155408Y-20835063D01*
X38172220Y-20830558D01*
X38242066Y-20832219D01*
X38291992Y-20862649D01*
X38875886Y-21446542D01*
X38933257Y-21503913D01*
X38973459Y-21544115D01*
X39088182Y-21620771D01*
X39088186Y-21620773D01*
X39088189Y-21620775D01*
X39162866Y-21651707D01*
X39162867Y-21651707D01*
X39162869Y-21651709D01*
X39215666Y-21673578D01*
X39215671Y-21673580D01*
X39215680Y-21673581D01*
X39215681Y-21673582D01*
X39242545Y-21678925D01*
X39242551Y-21678926D01*
X39242591Y-21678934D01*
X39332937Y-21696905D01*
X39351006Y-21700500D01*
X39351007Y-21700500D01*
X46708481Y-21700500D01*
X46775520Y-21720185D01*
X46796162Y-21736819D01*
X48263181Y-23203838D01*
X48296666Y-23265161D01*
X48299500Y-23291519D01*
X48299500Y-23744960D01*
X48314630Y-23879249D01*
X48314631Y-23879254D01*
X48374211Y-24049523D01*
X48441916Y-24157274D01*
X48470184Y-24202262D01*
X48597738Y-24329816D01*
X48688080Y-24386582D01*
X48729328Y-24412500D01*
X48750478Y-24425789D01*
X48796315Y-24441828D01*
X48920745Y-24485368D01*
X48920750Y-24485369D01*
X49011246Y-24495565D01*
X49055040Y-24500499D01*
X49055043Y-24500500D01*
X49055046Y-24500500D01*
X49744957Y-24500500D01*
X49744958Y-24500499D01*
X49812104Y-24492934D01*
X49879249Y-24485369D01*
X49879252Y-24485368D01*
X49879255Y-24485368D01*
X50049522Y-24425789D01*
X50140509Y-24368617D01*
X50207745Y-24349617D01*
X50274580Y-24369984D01*
X50319794Y-24423252D01*
X50325139Y-24437607D01*
X50326419Y-24441828D01*
X50379222Y-24569307D01*
X50455887Y-24684045D01*
X50455888Y-24684046D01*
X51097162Y-25325319D01*
X51130647Y-25386642D01*
X51125663Y-25456333D01*
X51083792Y-25512267D01*
X51018327Y-25536684D01*
X51009481Y-25537000D01*
X50143505Y-25537000D01*
X50008177Y-25563918D01*
X50008167Y-25563921D01*
X49880692Y-25616722D01*
X49765954Y-25693387D01*
X49765953Y-25693388D01*
X49596162Y-25863181D01*
X49534839Y-25896666D01*
X49508481Y-25899500D01*
X49055039Y-25899500D01*
X48920750Y-25914630D01*
X48920745Y-25914631D01*
X48750476Y-25974211D01*
X48597737Y-26070184D01*
X48470184Y-26197737D01*
X48374211Y-26350476D01*
X48314631Y-26520745D01*
X48314630Y-26520750D01*
X48299500Y-26655039D01*
X48299500Y-27444960D01*
X48314630Y-27579249D01*
X48314631Y-27579254D01*
X48374211Y-27749523D01*
X48408769Y-27804521D01*
X48470184Y-27902262D01*
X48597738Y-28029816D01*
X48688080Y-28086582D01*
X48724759Y-28109629D01*
X48750478Y-28125789D01*
X48854789Y-28162289D01*
X48920745Y-28185368D01*
X48920750Y-28185369D01*
X49011246Y-28195565D01*
X49055040Y-28200499D01*
X49055043Y-28200500D01*
X49055046Y-28200500D01*
X49744957Y-28200500D01*
X49744958Y-28200499D01*
X49812104Y-28192934D01*
X49879249Y-28185369D01*
X49879252Y-28185368D01*
X49879255Y-28185368D01*
X50049522Y-28125789D01*
X50202262Y-28029816D01*
X50329816Y-27902262D01*
X50425789Y-27749522D01*
X50485368Y-27579255D01*
X50500500Y-27444954D01*
X50500500Y-27062000D01*
X50520185Y-26994961D01*
X50572989Y-26949206D01*
X50624500Y-26938000D01*
X51797912Y-26938000D01*
X51864951Y-26957685D01*
X51903449Y-26996901D01*
X51932288Y-27043656D01*
X52056344Y-27167712D01*
X52205666Y-27259814D01*
X52372203Y-27314999D01*
X52474991Y-27325500D01*
X53069106Y-27325499D01*
X53136145Y-27345183D01*
X53137996Y-27346396D01*
X53148563Y-27353457D01*
X53193189Y-27383275D01*
X53320672Y-27436080D01*
X53320676Y-27436080D01*
X53320677Y-27436081D01*
X53456004Y-27463000D01*
X53456007Y-27463000D01*
X55176652Y-27463000D01*
X55243691Y-27482685D01*
X55282189Y-27521901D01*
X55357288Y-27643656D01*
X55481344Y-27767712D01*
X55630666Y-27859814D01*
X55797203Y-27914999D01*
X55797209Y-27914999D01*
X55801448Y-27915907D01*
X55862884Y-27949185D01*
X55896576Y-28010394D01*
X55899500Y-28037162D01*
X55899500Y-28531006D01*
X55899500Y-28668994D01*
X55899500Y-28668996D01*
X55899499Y-28668996D01*
X55926418Y-28804322D01*
X55926421Y-28804332D01*
X55979222Y-28931807D01*
X56055887Y-29046545D01*
X56055888Y-29046546D01*
X62073495Y-35064152D01*
X62106980Y-35125475D01*
X62109134Y-35138869D01*
X62114325Y-35188249D01*
X62114327Y-35188260D01*
X62172818Y-35368277D01*
X62172821Y-35368284D01*
X62267467Y-35532216D01*
X62394129Y-35672888D01*
X62547265Y-35784148D01*
X62547270Y-35784151D01*
X62720192Y-35861142D01*
X62720197Y-35861144D01*
X62905354Y-35900500D01*
X62905355Y-35900500D01*
X63094644Y-35900500D01*
X63094646Y-35900500D01*
X63279803Y-35861144D01*
X63452730Y-35784151D01*
X63605871Y-35672888D01*
X63732533Y-35532216D01*
X63827179Y-35368284D01*
X63885674Y-35188256D01*
X63905460Y-35000000D01*
X63885674Y-34811744D01*
X63827179Y-34631716D01*
X63751136Y-34500005D01*
X96822498Y-34500005D01*
X96842420Y-34708639D01*
X96842423Y-34708656D01*
X96901470Y-34909755D01*
X96997518Y-35096062D01*
X97127079Y-35260810D01*
X97127083Y-35260814D01*
X97285481Y-35398068D01*
X97285492Y-35398076D01*
X97467002Y-35502870D01*
X97467004Y-35502871D01*
X97665075Y-35571424D01*
X97872541Y-35601253D01*
X98081902Y-35591280D01*
X98285593Y-35541865D01*
X98476251Y-35454795D01*
X98646985Y-35333215D01*
X98791625Y-35181522D01*
X98904943Y-35005196D01*
X98982843Y-34810611D01*
X99022510Y-34604799D01*
X99025000Y-34500005D01*
X150822498Y-34500005D01*
X150842420Y-34708639D01*
X150842423Y-34708656D01*
X150901470Y-34909755D01*
X150997518Y-35096062D01*
X151127079Y-35260810D01*
X151127083Y-35260814D01*
X151285481Y-35398068D01*
X151285492Y-35398076D01*
X151467002Y-35502870D01*
X151467004Y-35502871D01*
X151665075Y-35571424D01*
X151872541Y-35601253D01*
X152081902Y-35591280D01*
X152285593Y-35541865D01*
X152476251Y-35454795D01*
X152646985Y-35333215D01*
X152791625Y-35181522D01*
X152904943Y-35005196D01*
X152982843Y-34810611D01*
X153022510Y-34604799D01*
X153025000Y-34500005D01*
X204822498Y-34500005D01*
X204842420Y-34708639D01*
X204842423Y-34708656D01*
X204901470Y-34909755D01*
X204997518Y-35096062D01*
X205127079Y-35260810D01*
X205127083Y-35260814D01*
X205285481Y-35398068D01*
X205285492Y-35398076D01*
X205467002Y-35502870D01*
X205467004Y-35502871D01*
X205665075Y-35571424D01*
X205872541Y-35601253D01*
X206081902Y-35591280D01*
X206285593Y-35541865D01*
X206476251Y-35454795D01*
X206646985Y-35333215D01*
X206791625Y-35181522D01*
X206904943Y-35005196D01*
X206982843Y-34810611D01*
X207022510Y-34604799D01*
X207025000Y-34500000D01*
X207022510Y-34395201D01*
X206982843Y-34189389D01*
X206904943Y-33994804D01*
X206791625Y-33818478D01*
X206716019Y-33739185D01*
X206646987Y-33666786D01*
X206646984Y-33666784D01*
X206476253Y-33545206D01*
X206468935Y-33541864D01*
X206285593Y-33458135D01*
X206081902Y-33408720D01*
X205892489Y-33399697D01*
X205872543Y-33398747D01*
X205872542Y-33398747D01*
X205872541Y-33398747D01*
X205665075Y-33428576D01*
X205665074Y-33428576D01*
X205665069Y-33428577D01*
X205467002Y-33497129D01*
X205285492Y-33601923D01*
X205285481Y-33601931D01*
X205127083Y-33739185D01*
X205127079Y-33739189D01*
X204997518Y-33903937D01*
X204901470Y-34090244D01*
X204842423Y-34291343D01*
X204842420Y-34291360D01*
X204822498Y-34499994D01*
X204822498Y-34500005D01*
X153025000Y-34500005D01*
X153025000Y-34500000D01*
X153022510Y-34395201D01*
X152982843Y-34189389D01*
X152904943Y-33994804D01*
X152791625Y-33818478D01*
X152716019Y-33739185D01*
X152646987Y-33666786D01*
X152646984Y-33666784D01*
X152476253Y-33545206D01*
X152468935Y-33541864D01*
X152285593Y-33458135D01*
X152081902Y-33408720D01*
X151892489Y-33399697D01*
X151872543Y-33398747D01*
X151872542Y-33398747D01*
X151872541Y-33398747D01*
X151665075Y-33428576D01*
X151665074Y-33428576D01*
X151665069Y-33428577D01*
X151467002Y-33497129D01*
X151285492Y-33601923D01*
X151285481Y-33601931D01*
X151127083Y-33739185D01*
X151127079Y-33739189D01*
X150997518Y-33903937D01*
X150901470Y-34090244D01*
X150842423Y-34291343D01*
X150842420Y-34291360D01*
X150822498Y-34499994D01*
X150822498Y-34500005D01*
X99025000Y-34500005D01*
X99025000Y-34500000D01*
X99022510Y-34395201D01*
X98982843Y-34189389D01*
X98904943Y-33994804D01*
X98791625Y-33818478D01*
X98716019Y-33739185D01*
X98646987Y-33666786D01*
X98646984Y-33666784D01*
X98476253Y-33545206D01*
X98468935Y-33541864D01*
X98285593Y-33458135D01*
X98081902Y-33408720D01*
X97892489Y-33399697D01*
X97872543Y-33398747D01*
X97872542Y-33398747D01*
X97872541Y-33398747D01*
X97665075Y-33428576D01*
X97665074Y-33428576D01*
X97665069Y-33428577D01*
X97467002Y-33497129D01*
X97285492Y-33601923D01*
X97285481Y-33601931D01*
X97127083Y-33739185D01*
X97127079Y-33739189D01*
X96997518Y-33903937D01*
X96901470Y-34090244D01*
X96842423Y-34291343D01*
X96842420Y-34291360D01*
X96822498Y-34499994D01*
X96822498Y-34500005D01*
X63751136Y-34500005D01*
X63732533Y-34467784D01*
X63605871Y-34327112D01*
X63605870Y-34327111D01*
X63452734Y-34215851D01*
X63452729Y-34215848D01*
X63279807Y-34138857D01*
X63279802Y-34138855D01*
X63143490Y-34109882D01*
X63124872Y-34105924D01*
X63063391Y-34072733D01*
X63062973Y-34072316D01*
X61490662Y-32500005D01*
X65397498Y-32500005D01*
X65417420Y-32708639D01*
X65417423Y-32708656D01*
X65476470Y-32909755D01*
X65572518Y-33096062D01*
X65702079Y-33260810D01*
X65702083Y-33260814D01*
X65860481Y-33398068D01*
X65860492Y-33398076D01*
X66042002Y-33502870D01*
X66042004Y-33502871D01*
X66240075Y-33571424D01*
X66447541Y-33601253D01*
X66656902Y-33591280D01*
X66860593Y-33541865D01*
X67051251Y-33454795D01*
X67221985Y-33333215D01*
X67366625Y-33181522D01*
X67479943Y-33005196D01*
X67557843Y-32810611D01*
X67597510Y-32604799D01*
X67600000Y-32500005D01*
X74247498Y-32500005D01*
X74267420Y-32708639D01*
X74267423Y-32708656D01*
X74326470Y-32909755D01*
X74422518Y-33096062D01*
X74552079Y-33260810D01*
X74552083Y-33260814D01*
X74710481Y-33398068D01*
X74710492Y-33398076D01*
X74892002Y-33502870D01*
X74892004Y-33502871D01*
X75090075Y-33571424D01*
X75297541Y-33601253D01*
X75506902Y-33591280D01*
X75710593Y-33541865D01*
X75901251Y-33454795D01*
X76071985Y-33333215D01*
X76216625Y-33181522D01*
X76329943Y-33005196D01*
X76407843Y-32810611D01*
X76447510Y-32604799D01*
X76450000Y-32500005D01*
X119397498Y-32500005D01*
X119417420Y-32708639D01*
X119417423Y-32708656D01*
X119476470Y-32909755D01*
X119572518Y-33096062D01*
X119702079Y-33260810D01*
X119702083Y-33260814D01*
X119860481Y-33398068D01*
X119860492Y-33398076D01*
X120042002Y-33502870D01*
X120042004Y-33502871D01*
X120240075Y-33571424D01*
X120447541Y-33601253D01*
X120656902Y-33591280D01*
X120860593Y-33541865D01*
X121051251Y-33454795D01*
X121221985Y-33333215D01*
X121366625Y-33181522D01*
X121479943Y-33005196D01*
X121557843Y-32810611D01*
X121597510Y-32604799D01*
X121600000Y-32500005D01*
X128247498Y-32500005D01*
X128267420Y-32708639D01*
X128267423Y-32708656D01*
X128326470Y-32909755D01*
X128422518Y-33096062D01*
X128552079Y-33260810D01*
X128552083Y-33260814D01*
X128710481Y-33398068D01*
X128710492Y-33398076D01*
X128892002Y-33502870D01*
X128892004Y-33502871D01*
X129090075Y-33571424D01*
X129297541Y-33601253D01*
X129506902Y-33591280D01*
X129710593Y-33541865D01*
X129901251Y-33454795D01*
X130071985Y-33333215D01*
X130216625Y-33181522D01*
X130329943Y-33005196D01*
X130407843Y-32810611D01*
X130447510Y-32604799D01*
X130450000Y-32500005D01*
X173397498Y-32500005D01*
X173417420Y-32708639D01*
X173417423Y-32708656D01*
X173476470Y-32909755D01*
X173572518Y-33096062D01*
X173702079Y-33260810D01*
X173702083Y-33260814D01*
X173860481Y-33398068D01*
X173860492Y-33398076D01*
X174042002Y-33502870D01*
X174042004Y-33502871D01*
X174240075Y-33571424D01*
X174447541Y-33601253D01*
X174656902Y-33591280D01*
X174860593Y-33541865D01*
X175051251Y-33454795D01*
X175221985Y-33333215D01*
X175366625Y-33181522D01*
X175479943Y-33005196D01*
X175557843Y-32810611D01*
X175597510Y-32604799D01*
X175600000Y-32500005D01*
X182247498Y-32500005D01*
X182267420Y-32708639D01*
X182267423Y-32708656D01*
X182326470Y-32909755D01*
X182422518Y-33096062D01*
X182552079Y-33260810D01*
X182552083Y-33260814D01*
X182710481Y-33398068D01*
X182710492Y-33398076D01*
X182892002Y-33502870D01*
X182892004Y-33502871D01*
X183090075Y-33571424D01*
X183297541Y-33601253D01*
X183506902Y-33591280D01*
X183710593Y-33541865D01*
X183901251Y-33454795D01*
X184071985Y-33333215D01*
X184216625Y-33181522D01*
X184329943Y-33005196D01*
X184407843Y-32810611D01*
X184447510Y-32604799D01*
X184450000Y-32500005D01*
X227397498Y-32500005D01*
X227417420Y-32708639D01*
X227417423Y-32708656D01*
X227476470Y-32909755D01*
X227572518Y-33096062D01*
X227702079Y-33260810D01*
X227702083Y-33260814D01*
X227860481Y-33398068D01*
X227860492Y-33398076D01*
X228042002Y-33502870D01*
X228042004Y-33502871D01*
X228240075Y-33571424D01*
X228447541Y-33601253D01*
X228656902Y-33591280D01*
X228860593Y-33541865D01*
X229051251Y-33454795D01*
X229221985Y-33333215D01*
X229366625Y-33181522D01*
X229479943Y-33005196D01*
X229557843Y-32810611D01*
X229597510Y-32604799D01*
X229600000Y-32500000D01*
X229597510Y-32395201D01*
X229557843Y-32189389D01*
X229479943Y-31994804D01*
X229366625Y-31818478D01*
X229291019Y-31739185D01*
X229221987Y-31666786D01*
X229221984Y-31666784D01*
X229051253Y-31545206D01*
X229051251Y-31545205D01*
X228860593Y-31458135D01*
X228656902Y-31408720D01*
X228467489Y-31399697D01*
X228447543Y-31398747D01*
X228447542Y-31398747D01*
X228447541Y-31398747D01*
X228240075Y-31428576D01*
X228240074Y-31428576D01*
X228240069Y-31428577D01*
X228042002Y-31497129D01*
X227860492Y-31601923D01*
X227860481Y-31601931D01*
X227702083Y-31739185D01*
X227702079Y-31739189D01*
X227572518Y-31903937D01*
X227476470Y-32090244D01*
X227417423Y-32291343D01*
X227417420Y-32291360D01*
X227397498Y-32499994D01*
X227397498Y-32500005D01*
X184450000Y-32500005D01*
X184450000Y-32500000D01*
X184447510Y-32395201D01*
X184407843Y-32189389D01*
X184329943Y-31994804D01*
X184216625Y-31818478D01*
X184141019Y-31739185D01*
X184071987Y-31666786D01*
X184071984Y-31666784D01*
X183901253Y-31545206D01*
X183901251Y-31545205D01*
X183710593Y-31458135D01*
X183506902Y-31408720D01*
X183317489Y-31399697D01*
X183297543Y-31398747D01*
X183297542Y-31398747D01*
X183297541Y-31398747D01*
X183090075Y-31428576D01*
X183090074Y-31428576D01*
X183090069Y-31428577D01*
X182892002Y-31497129D01*
X182710492Y-31601923D01*
X182710481Y-31601931D01*
X182552083Y-31739185D01*
X182552079Y-31739189D01*
X182422518Y-31903937D01*
X182326470Y-32090244D01*
X182267423Y-32291343D01*
X182267420Y-32291360D01*
X182247498Y-32499994D01*
X182247498Y-32500005D01*
X175600000Y-32500005D01*
X175600000Y-32500000D01*
X175597510Y-32395201D01*
X175557843Y-32189389D01*
X175479943Y-31994804D01*
X175366625Y-31818478D01*
X175291019Y-31739185D01*
X175221987Y-31666786D01*
X175221984Y-31666784D01*
X175051253Y-31545206D01*
X175051251Y-31545205D01*
X174860593Y-31458135D01*
X174656902Y-31408720D01*
X174467489Y-31399697D01*
X174447543Y-31398747D01*
X174447542Y-31398747D01*
X174447541Y-31398747D01*
X174240075Y-31428576D01*
X174240074Y-31428576D01*
X174240069Y-31428577D01*
X174042002Y-31497129D01*
X173860492Y-31601923D01*
X173860481Y-31601931D01*
X173702083Y-31739185D01*
X173702079Y-31739189D01*
X173572518Y-31903937D01*
X173476470Y-32090244D01*
X173417423Y-32291343D01*
X173417420Y-32291360D01*
X173397498Y-32499994D01*
X173397498Y-32500005D01*
X130450000Y-32500005D01*
X130450000Y-32500000D01*
X130447510Y-32395201D01*
X130407843Y-32189389D01*
X130329943Y-31994804D01*
X130216625Y-31818478D01*
X130141019Y-31739185D01*
X130071987Y-31666786D01*
X130071984Y-31666784D01*
X129901253Y-31545206D01*
X129901251Y-31545205D01*
X129710593Y-31458135D01*
X129506902Y-31408720D01*
X129317489Y-31399697D01*
X129297543Y-31398747D01*
X129297542Y-31398747D01*
X129297541Y-31398747D01*
X129090075Y-31428576D01*
X129090074Y-31428576D01*
X129090069Y-31428577D01*
X128892002Y-31497129D01*
X128710492Y-31601923D01*
X128710481Y-31601931D01*
X128552083Y-31739185D01*
X128552079Y-31739189D01*
X128422518Y-31903937D01*
X128326470Y-32090244D01*
X128267423Y-32291343D01*
X128267420Y-32291360D01*
X128247498Y-32499994D01*
X128247498Y-32500005D01*
X121600000Y-32500005D01*
X121600000Y-32500000D01*
X121597510Y-32395201D01*
X121557843Y-32189389D01*
X121479943Y-31994804D01*
X121366625Y-31818478D01*
X121291019Y-31739185D01*
X121221987Y-31666786D01*
X121221984Y-31666784D01*
X121051253Y-31545206D01*
X121051251Y-31545205D01*
X120860593Y-31458135D01*
X120656902Y-31408720D01*
X120467489Y-31399697D01*
X120447543Y-31398747D01*
X120447542Y-31398747D01*
X120447541Y-31398747D01*
X120240075Y-31428576D01*
X120240074Y-31428576D01*
X120240069Y-31428577D01*
X120042002Y-31497129D01*
X119860492Y-31601923D01*
X119860481Y-31601931D01*
X119702083Y-31739185D01*
X119702079Y-31739189D01*
X119572518Y-31903937D01*
X119476470Y-32090244D01*
X119417423Y-32291343D01*
X119417420Y-32291360D01*
X119397498Y-32499994D01*
X119397498Y-32500005D01*
X76450000Y-32500005D01*
X76450000Y-32500000D01*
X76447510Y-32395201D01*
X76407843Y-32189389D01*
X76329943Y-31994804D01*
X76216625Y-31818478D01*
X76141019Y-31739185D01*
X76071987Y-31666786D01*
X76071984Y-31666784D01*
X75901253Y-31545206D01*
X75901251Y-31545205D01*
X75710593Y-31458135D01*
X75506902Y-31408720D01*
X75317489Y-31399697D01*
X75297543Y-31398747D01*
X75297542Y-31398747D01*
X75297541Y-31398747D01*
X75090075Y-31428576D01*
X75090074Y-31428576D01*
X75090069Y-31428577D01*
X74892002Y-31497129D01*
X74710492Y-31601923D01*
X74710481Y-31601931D01*
X74552083Y-31739185D01*
X74552079Y-31739189D01*
X74422518Y-31903937D01*
X74326470Y-32090244D01*
X74267423Y-32291343D01*
X74267420Y-32291360D01*
X74247498Y-32499994D01*
X74247498Y-32500005D01*
X67600000Y-32500005D01*
X67600000Y-32500000D01*
X67597510Y-32395201D01*
X67557843Y-32189389D01*
X67479943Y-31994804D01*
X67366625Y-31818478D01*
X67291019Y-31739185D01*
X67221987Y-31666786D01*
X67221984Y-31666784D01*
X67051253Y-31545206D01*
X67051251Y-31545205D01*
X66860593Y-31458135D01*
X66656902Y-31408720D01*
X66467489Y-31399697D01*
X66447543Y-31398747D01*
X66447542Y-31398747D01*
X66447541Y-31398747D01*
X66240075Y-31428576D01*
X66240074Y-31428576D01*
X66240069Y-31428577D01*
X66042002Y-31497129D01*
X65860492Y-31601923D01*
X65860481Y-31601931D01*
X65702083Y-31739185D01*
X65702079Y-31739189D01*
X65572518Y-31903937D01*
X65476470Y-32090244D01*
X65417423Y-32291343D01*
X65417420Y-32291360D01*
X65397498Y-32499994D01*
X65397498Y-32500005D01*
X61490662Y-32500005D01*
X57336819Y-28346162D01*
X57303334Y-28284839D01*
X57300500Y-28258481D01*
X57300500Y-28037162D01*
X57320185Y-27970123D01*
X57372989Y-27924368D01*
X57398552Y-27915907D01*
X57402788Y-27914999D01*
X57402797Y-27914999D01*
X57569334Y-27859814D01*
X57718656Y-27767712D01*
X57842712Y-27643656D01*
X57934814Y-27494334D01*
X57989999Y-27327797D01*
X58000500Y-27225009D01*
X58000499Y-26299992D01*
X57989999Y-26197203D01*
X57934814Y-26030666D01*
X57842712Y-25881344D01*
X57718656Y-25757288D01*
X57569334Y-25665186D01*
X57402797Y-25610001D01*
X57402795Y-25610000D01*
X57300010Y-25599500D01*
X55899998Y-25599500D01*
X55899981Y-25599501D01*
X55797203Y-25610000D01*
X55797200Y-25610001D01*
X55630668Y-25665185D01*
X55630663Y-25665187D01*
X55481342Y-25757289D01*
X55357289Y-25881342D01*
X55336756Y-25914632D01*
X55284102Y-25999999D01*
X55282191Y-26003097D01*
X55230243Y-26049821D01*
X55176652Y-26062000D01*
X54349499Y-26062000D01*
X54282460Y-26042315D01*
X54236705Y-25989511D01*
X54225499Y-25938000D01*
X54225499Y-25849998D01*
X54225498Y-25849981D01*
X54214999Y-25747203D01*
X54214998Y-25747200D01*
X54197166Y-25693386D01*
X54159814Y-25580666D01*
X54067712Y-25431344D01*
X53943656Y-25307288D01*
X53940342Y-25305243D01*
X53938546Y-25303248D01*
X53937989Y-25302807D01*
X53938064Y-25302711D01*
X53893618Y-25253297D01*
X53882397Y-25184334D01*
X53910240Y-25120252D01*
X53940348Y-25094165D01*
X53943342Y-25092318D01*
X54067315Y-24968345D01*
X54159356Y-24819124D01*
X54159358Y-24819119D01*
X54214505Y-24652697D01*
X54214506Y-24652690D01*
X54224999Y-24549986D01*
X54225000Y-24549973D01*
X54225000Y-24412500D01*
X52874000Y-24412500D01*
X52806961Y-24392815D01*
X52761206Y-24340011D01*
X52750000Y-24288500D01*
X52750000Y-23075000D01*
X53250000Y-23075000D01*
X53250000Y-23912500D01*
X54224999Y-23912500D01*
X54224999Y-23887500D01*
X55200001Y-23887500D01*
X55200001Y-24099986D01*
X55210494Y-24202697D01*
X55265641Y-24369119D01*
X55265643Y-24369124D01*
X55357684Y-24518345D01*
X55481654Y-24642315D01*
X55630875Y-24734356D01*
X55630880Y-24734358D01*
X55797302Y-24789505D01*
X55797309Y-24789506D01*
X55900019Y-24799999D01*
X56349999Y-24799999D01*
X56350000Y-24799998D01*
X56350000Y-23887500D01*
X56850000Y-23887500D01*
X56850000Y-24799999D01*
X57299972Y-24799999D01*
X57299986Y-24799998D01*
X57402697Y-24789505D01*
X57569119Y-24734358D01*
X57569124Y-24734356D01*
X57718345Y-24642315D01*
X57842315Y-24518345D01*
X57934356Y-24369124D01*
X57934358Y-24369119D01*
X57989505Y-24202697D01*
X57989506Y-24202690D01*
X57999999Y-24099986D01*
X58000000Y-24099973D01*
X58000000Y-23887500D01*
X56850000Y-23887500D01*
X56350000Y-23887500D01*
X55200001Y-23887500D01*
X54224999Y-23887500D01*
X54224999Y-23775028D01*
X54224998Y-23775013D01*
X54214505Y-23672302D01*
X54159358Y-23505880D01*
X54159356Y-23505875D01*
X54067315Y-23356654D01*
X53943345Y-23232684D01*
X53794124Y-23140643D01*
X53794119Y-23140641D01*
X53627697Y-23085494D01*
X53627690Y-23085493D01*
X53524986Y-23075000D01*
X53250000Y-23075000D01*
X52750000Y-23075000D01*
X52475029Y-23075000D01*
X52475012Y-23075001D01*
X52372302Y-23085494D01*
X52205880Y-23140641D01*
X52205875Y-23140643D01*
X52056654Y-23232684D01*
X51932684Y-23356654D01*
X51930038Y-23360945D01*
X51878089Y-23407668D01*
X51809126Y-23418889D01*
X51745044Y-23391045D01*
X51706189Y-23332975D01*
X51700500Y-23295846D01*
X51700500Y-21824499D01*
X51720185Y-21757460D01*
X51772989Y-21711705D01*
X51824500Y-21700499D01*
X52158480Y-21700499D01*
X52225519Y-21720184D01*
X52246161Y-21736818D01*
X52823453Y-22314111D01*
X52823454Y-22314112D01*
X52938190Y-22390776D01*
X53009188Y-22420184D01*
X53065671Y-22443580D01*
X53065672Y-22443580D01*
X53065677Y-22443582D01*
X53092545Y-22448925D01*
X53092551Y-22448926D01*
X53092591Y-22448934D01*
X53182937Y-22466905D01*
X53201006Y-22470500D01*
X55344477Y-22470500D01*
X55411516Y-22490185D01*
X55457271Y-22542989D01*
X55467215Y-22612147D01*
X55438190Y-22675703D01*
X55432158Y-22682181D01*
X55357684Y-22756654D01*
X55265643Y-22905875D01*
X55265641Y-22905880D01*
X55210494Y-23072302D01*
X55210493Y-23072309D01*
X55200000Y-23175013D01*
X55200000Y-23387500D01*
X57999999Y-23387500D01*
X57999999Y-23175028D01*
X57999998Y-23175013D01*
X57989505Y-23072302D01*
X57934358Y-22905880D01*
X57934356Y-22905875D01*
X57842315Y-22756654D01*
X57767842Y-22682181D01*
X57734357Y-22620858D01*
X57739341Y-22551166D01*
X57781213Y-22495233D01*
X57846677Y-22470816D01*
X57855523Y-22470500D01*
X69368996Y-22470500D01*
X69477457Y-22448925D01*
X69504328Y-22443580D01*
X69568069Y-22417177D01*
X69631807Y-22390777D01*
X69631808Y-22390776D01*
X69631811Y-22390775D01*
X69746543Y-22314114D01*
X70187037Y-21873618D01*
X70248360Y-21840134D01*
X70295128Y-21838991D01*
X70483951Y-21870500D01*
X70483952Y-21870500D01*
X70716048Y-21870500D01*
X70716049Y-21870500D01*
X70944981Y-21832298D01*
X71164503Y-21756936D01*
X71368626Y-21646470D01*
X71551784Y-21503913D01*
X71708979Y-21333153D01*
X71809318Y-21179573D01*
X112202517Y-21179573D01*
X112242724Y-21536427D01*
X112242726Y-21536439D01*
X112242727Y-21536442D01*
X112261975Y-21620771D01*
X112322642Y-21886575D01*
X112322645Y-21886583D01*
X112441257Y-22225555D01*
X112597077Y-22549117D01*
X112636681Y-22612147D01*
X112788149Y-22853207D01*
X112884349Y-22973838D01*
X112973391Y-23085494D01*
X113012065Y-23133989D01*
X113266011Y-23387935D01*
X113546793Y-23611851D01*
X113850880Y-23802921D01*
X114174448Y-23958744D01*
X114429035Y-24047827D01*
X114513416Y-24077354D01*
X114513424Y-24077357D01*
X114513427Y-24077357D01*
X114513428Y-24077358D01*
X114863558Y-24157273D01*
X114863567Y-24157274D01*
X114863572Y-24157275D01*
X115039081Y-24177049D01*
X115220433Y-24197483D01*
X115400000Y-24200000D01*
X134399987Y-24200000D01*
X134400000Y-24200000D01*
X134579567Y-24197483D01*
X134788287Y-24173965D01*
X134936427Y-24157275D01*
X134936430Y-24157274D01*
X134936442Y-24157273D01*
X135286572Y-24077358D01*
X135625552Y-23958744D01*
X135949120Y-23802921D01*
X136253207Y-23611851D01*
X136533989Y-23387935D01*
X136787935Y-23133989D01*
X137011851Y-22853207D01*
X137202921Y-22549120D01*
X137358744Y-22225552D01*
X137477358Y-21886572D01*
X137557273Y-21536442D01*
X137597483Y-21179567D01*
X137597483Y-20820433D01*
X137558000Y-20470006D01*
X137557275Y-20463572D01*
X137557274Y-20463567D01*
X137557273Y-20463558D01*
X137477358Y-20113428D01*
X137358744Y-19774448D01*
X137202921Y-19450880D01*
X137011851Y-19146793D01*
X136787935Y-18866011D01*
X136533989Y-18612065D01*
X136253207Y-18388149D01*
X135973403Y-18212337D01*
X135949117Y-18197077D01*
X135625555Y-18041257D01*
X135286583Y-17922645D01*
X135286575Y-17922642D01*
X135023974Y-17862705D01*
X134936442Y-17842727D01*
X134936439Y-17842726D01*
X134936427Y-17842724D01*
X134579571Y-17802517D01*
X134579572Y-17802517D01*
X134529687Y-17801817D01*
X134400000Y-17800000D01*
X134399987Y-17800000D01*
X128222274Y-17800000D01*
X128155235Y-17780315D01*
X128109480Y-17727511D01*
X128098286Y-17677738D01*
X128097839Y-17645842D01*
X128097483Y-17620433D01*
X128059105Y-17279815D01*
X128057275Y-17263572D01*
X128057274Y-17263567D01*
X128057273Y-17263558D01*
X127977358Y-16913428D01*
X127858744Y-16574448D01*
X127723424Y-16293454D01*
X127702922Y-16250882D01*
X127671265Y-16200500D01*
X127511851Y-15946793D01*
X127287935Y-15666011D01*
X127033989Y-15412065D01*
X126753207Y-15188149D01*
X126543192Y-15056188D01*
X126449117Y-14997077D01*
X126125555Y-14841257D01*
X125786583Y-14722645D01*
X125786575Y-14722642D01*
X125523974Y-14662705D01*
X125436442Y-14642727D01*
X125436439Y-14642726D01*
X125436427Y-14642724D01*
X125079573Y-14602517D01*
X125079567Y-14602517D01*
X124720433Y-14602517D01*
X124720426Y-14602517D01*
X124363572Y-14642724D01*
X124363558Y-14642727D01*
X124013424Y-14722642D01*
X124013416Y-14722645D01*
X123674444Y-14841257D01*
X123350882Y-14997077D01*
X123046794Y-15188148D01*
X122766011Y-15412064D01*
X122512064Y-15666011D01*
X122288148Y-15946794D01*
X122097077Y-16250882D01*
X121941257Y-16574444D01*
X121822645Y-16913416D01*
X121822642Y-16913424D01*
X121742727Y-17263558D01*
X121742724Y-17263572D01*
X121702517Y-17620427D01*
X121701714Y-17677738D01*
X121681091Y-17744495D01*
X121627651Y-17789505D01*
X121577726Y-17800000D01*
X115400000Y-17800000D01*
X115277138Y-17801722D01*
X115220427Y-17802517D01*
X114863572Y-17842724D01*
X114863558Y-17842727D01*
X114513424Y-17922642D01*
X114513416Y-17922645D01*
X114174444Y-18041257D01*
X113850882Y-18197077D01*
X113546794Y-18388148D01*
X113266011Y-18612064D01*
X113012064Y-18866011D01*
X112788148Y-19146794D01*
X112597077Y-19450882D01*
X112441257Y-19774444D01*
X112322645Y-20113416D01*
X112322642Y-20113424D01*
X112242727Y-20463558D01*
X112242724Y-20463572D01*
X112202517Y-20820426D01*
X112202517Y-21179573D01*
X71809318Y-21179573D01*
X71835924Y-21138849D01*
X71929157Y-20926300D01*
X71986134Y-20701305D01*
X71986135Y-20701297D01*
X72005300Y-20470006D01*
X72005300Y-20469993D01*
X71986135Y-20238702D01*
X71986133Y-20238691D01*
X71929157Y-20013699D01*
X71835924Y-19801151D01*
X71708981Y-19606849D01*
X71613832Y-19503489D01*
X71582910Y-19440835D01*
X71590770Y-19371409D01*
X71634918Y-19317253D01*
X71661730Y-19303325D01*
X71742084Y-19273355D01*
X71742093Y-19273350D01*
X71857187Y-19187190D01*
X71857190Y-19187187D01*
X71943350Y-19072093D01*
X71943354Y-19072086D01*
X71993596Y-18937379D01*
X71993598Y-18937372D01*
X71999999Y-18877844D01*
X72000000Y-18877827D01*
X72000000Y-18180000D01*
X70975278Y-18180000D01*
X71019333Y-18103694D01*
X71050000Y-17989244D01*
X71050000Y-17870756D01*
X71019333Y-17756306D01*
X70975278Y-17680000D01*
X72000000Y-17680000D01*
X72000000Y-16982172D01*
X71999999Y-16982155D01*
X71993598Y-16922627D01*
X71993596Y-16922620D01*
X71943354Y-16787913D01*
X71943350Y-16787906D01*
X71857190Y-16672812D01*
X71857187Y-16672809D01*
X71742093Y-16586649D01*
X71742086Y-16586645D01*
X71607379Y-16536403D01*
X71607372Y-16536401D01*
X71547844Y-16530000D01*
X70850000Y-16530000D01*
X70850000Y-17554722D01*
X70773694Y-17510667D01*
X70659244Y-17480000D01*
X70540756Y-17480000D01*
X70426306Y-17510667D01*
X70350000Y-17554722D01*
X70350000Y-16530000D01*
X69652155Y-16530000D01*
X69592627Y-16536401D01*
X69592620Y-16536403D01*
X69457913Y-16586645D01*
X69457906Y-16586649D01*
X69342812Y-16672809D01*
X69342809Y-16672812D01*
X69256649Y-16787906D01*
X69256645Y-16787913D01*
X69206403Y-16922620D01*
X69206401Y-16922627D01*
X69200000Y-16982155D01*
X69200000Y-17680000D01*
X70224722Y-17680000D01*
X70180667Y-17756306D01*
X70150000Y-17870756D01*
X70150000Y-17989244D01*
X70180667Y-18103694D01*
X70224722Y-18180000D01*
X69200000Y-18180000D01*
X69200000Y-18877844D01*
X69206401Y-18937372D01*
X69206403Y-18937379D01*
X69256645Y-19072086D01*
X69256649Y-19072093D01*
X69342809Y-19187187D01*
X69342812Y-19187190D01*
X69457906Y-19273350D01*
X69457913Y-19273354D01*
X69538270Y-19303325D01*
X69594204Y-19345196D01*
X69618621Y-19410660D01*
X69603770Y-19478933D01*
X69586168Y-19503489D01*
X69491021Y-19606847D01*
X69491019Y-19606848D01*
X69491016Y-19606853D01*
X69364075Y-19801151D01*
X69270842Y-20013699D01*
X69213866Y-20238691D01*
X69213864Y-20238702D01*
X69194700Y-20469993D01*
X69194700Y-20470006D01*
X69213865Y-20701301D01*
X69229743Y-20764002D01*
X69227118Y-20833822D01*
X69197218Y-20882123D01*
X69046160Y-21033182D01*
X68984840Y-21066666D01*
X68958481Y-21069500D01*
X66052209Y-21069500D01*
X65985170Y-21049815D01*
X65939415Y-20997011D01*
X65929471Y-20927853D01*
X65932004Y-20915059D01*
X65986131Y-20701317D01*
X65986133Y-20701308D01*
X65986134Y-20701305D01*
X65986135Y-20701297D01*
X66005300Y-20470006D01*
X66005300Y-20469993D01*
X65986135Y-20238702D01*
X65986133Y-20238691D01*
X65929157Y-20013699D01*
X65835924Y-19801151D01*
X65708981Y-19606849D01*
X65613832Y-19503489D01*
X65582910Y-19440835D01*
X65590770Y-19371409D01*
X65634918Y-19317253D01*
X65661730Y-19303325D01*
X65742084Y-19273355D01*
X65742093Y-19273350D01*
X65857187Y-19187190D01*
X65857190Y-19187187D01*
X65943350Y-19072093D01*
X65943354Y-19072086D01*
X65993596Y-18937379D01*
X65993598Y-18937372D01*
X65999999Y-18877844D01*
X66000000Y-18877827D01*
X66000000Y-18180000D01*
X64975278Y-18180000D01*
X65019333Y-18103694D01*
X65050000Y-17989244D01*
X65050000Y-17870756D01*
X65019333Y-17756306D01*
X64975278Y-17680000D01*
X66000000Y-17680000D01*
X66000000Y-16982172D01*
X65999999Y-16982155D01*
X65993598Y-16922627D01*
X65993596Y-16922620D01*
X65943354Y-16787913D01*
X65943350Y-16787906D01*
X65857190Y-16672812D01*
X65857187Y-16672809D01*
X65742093Y-16586649D01*
X65742086Y-16586645D01*
X65607379Y-16536403D01*
X65607372Y-16536401D01*
X65547844Y-16530000D01*
X64850000Y-16530000D01*
X64850000Y-17554722D01*
X64773694Y-17510667D01*
X64659244Y-17480000D01*
X64540756Y-17480000D01*
X64426306Y-17510667D01*
X64350000Y-17554722D01*
X64350000Y-16530000D01*
X63652155Y-16530000D01*
X63592627Y-16536401D01*
X63592620Y-16536403D01*
X63457913Y-16586645D01*
X63457906Y-16586649D01*
X63342812Y-16672809D01*
X63342809Y-16672812D01*
X63256649Y-16787906D01*
X63256645Y-16787913D01*
X63206403Y-16922620D01*
X63206401Y-16922627D01*
X63200000Y-16982155D01*
X63200000Y-17680000D01*
X64224722Y-17680000D01*
X64180667Y-17756306D01*
X64150000Y-17870756D01*
X64150000Y-17989244D01*
X64180667Y-18103694D01*
X64224722Y-18180000D01*
X63200000Y-18180000D01*
X63200000Y-18877844D01*
X63206401Y-18937372D01*
X63206403Y-18937379D01*
X63256645Y-19072086D01*
X63256649Y-19072093D01*
X63342809Y-19187187D01*
X63342812Y-19187190D01*
X63457906Y-19273350D01*
X63457913Y-19273354D01*
X63538270Y-19303325D01*
X63594204Y-19345196D01*
X63618621Y-19410660D01*
X63603770Y-19478933D01*
X63586168Y-19503489D01*
X63491021Y-19606847D01*
X63491019Y-19606848D01*
X63491016Y-19606853D01*
X63364075Y-19801151D01*
X63270842Y-20013699D01*
X63213866Y-20238691D01*
X63213864Y-20238702D01*
X63194700Y-20469993D01*
X63194700Y-20470006D01*
X63213864Y-20701297D01*
X63213868Y-20701317D01*
X63267996Y-20915059D01*
X63265372Y-20984880D01*
X63225416Y-21042197D01*
X63160815Y-21068814D01*
X63147791Y-21069500D01*
X60051693Y-21069500D01*
X59984654Y-21049815D01*
X59938899Y-20997011D01*
X59928955Y-20927853D01*
X59931487Y-20915060D01*
X59985638Y-20701218D01*
X60004798Y-20470005D01*
X60004798Y-20469994D01*
X59985638Y-20238781D01*
X59928682Y-20013864D01*
X59835484Y-19801393D01*
X59751186Y-19672365D01*
X59042137Y-20381413D01*
X59019333Y-20296306D01*
X58960090Y-20193694D01*
X58876306Y-20109910D01*
X58773694Y-20050667D01*
X58688584Y-20027861D01*
X59349627Y-19366818D01*
X59410950Y-19333333D01*
X59437307Y-19330499D01*
X59547872Y-19330499D01*
X59607483Y-19324091D01*
X59742331Y-19273796D01*
X59857546Y-19187546D01*
X59943796Y-19072331D01*
X59994091Y-18937483D01*
X60000500Y-18877873D01*
X60000499Y-16982128D01*
X59994091Y-16922517D01*
X59985879Y-16900500D01*
X59943797Y-16787671D01*
X59943793Y-16787664D01*
X59857547Y-16672455D01*
X59857544Y-16672452D01*
X59742335Y-16586206D01*
X59742328Y-16586202D01*
X59607482Y-16535908D01*
X59607483Y-16535908D01*
X59547883Y-16529501D01*
X59547881Y-16529500D01*
X59547873Y-16529500D01*
X59547865Y-16529500D01*
X58241519Y-16529500D01*
X58174480Y-16509815D01*
X58153838Y-16493181D01*
X56616546Y-14955888D01*
X56616545Y-14955887D01*
X56501807Y-14879222D01*
X56374332Y-14826421D01*
X56374322Y-14826418D01*
X56238996Y-14799500D01*
X56238994Y-14799500D01*
X56238993Y-14799500D01*
X53145908Y-14799500D01*
X53078869Y-14779815D01*
X53040363Y-14735728D01*
X53038605Y-14736813D01*
X53034812Y-14730663D01*
X52942712Y-14581344D01*
X52818656Y-14457288D01*
X52669334Y-14365186D01*
X52502797Y-14310001D01*
X52502795Y-14310000D01*
X52400010Y-14299500D01*
X51599998Y-14299500D01*
X51599980Y-14299501D01*
X51497203Y-14310000D01*
X51497200Y-14310001D01*
X51330668Y-14365185D01*
X51330663Y-14365187D01*
X51181342Y-14457289D01*
X51087681Y-14550951D01*
X51026358Y-14584436D01*
X50956666Y-14579452D01*
X50912319Y-14550951D01*
X50818657Y-14457289D01*
X50818656Y-14457288D01*
X50669334Y-14365186D01*
X50502797Y-14310001D01*
X50502795Y-14310000D01*
X50400010Y-14299500D01*
X49599998Y-14299500D01*
X49599980Y-14299501D01*
X49497203Y-14310000D01*
X49497200Y-14310001D01*
X49330668Y-14365185D01*
X49330663Y-14365187D01*
X49181342Y-14457289D01*
X49057289Y-14581342D01*
X48965187Y-14730663D01*
X48965185Y-14730668D01*
X48942377Y-14799500D01*
X48910001Y-14897203D01*
X48910001Y-14897204D01*
X48910000Y-14897204D01*
X48899500Y-14999983D01*
X48899500Y-15000330D01*
X48899479Y-15000399D01*
X48899340Y-15003139D01*
X48899179Y-15003130D01*
X48899179Y-15003132D01*
X48899155Y-15003129D01*
X48898684Y-15003105D01*
X48879815Y-15067369D01*
X48827011Y-15113124D01*
X48801282Y-15121620D01*
X48720196Y-15138856D01*
X48720192Y-15138857D01*
X48547270Y-15215848D01*
X48547265Y-15215851D01*
X48394129Y-15327111D01*
X48267466Y-15467785D01*
X48172821Y-15631715D01*
X48172818Y-15631722D01*
X48122560Y-15786401D01*
X48114326Y-15811744D01*
X48094540Y-16000000D01*
X48114326Y-16188256D01*
X48114327Y-16188259D01*
X48172818Y-16368277D01*
X48172821Y-16368284D01*
X48267467Y-16532216D01*
X48393736Y-16672452D01*
X48394129Y-16672888D01*
X48547265Y-16784148D01*
X48547270Y-16784151D01*
X48720192Y-16861142D01*
X48720197Y-16861144D01*
X48802839Y-16878710D01*
X48864321Y-16911902D01*
X48898097Y-16973065D01*
X48893445Y-17042780D01*
X48851840Y-17098912D01*
X48802839Y-17121290D01*
X48720197Y-17138855D01*
X48720192Y-17138857D01*
X48547270Y-17215848D01*
X48547265Y-17215851D01*
X48394129Y-17327111D01*
X48267466Y-17467785D01*
X48172821Y-17631715D01*
X48172818Y-17631722D01*
X48132305Y-17756410D01*
X48114326Y-17811744D01*
X48094540Y-18000000D01*
X48114326Y-18188256D01*
X48114327Y-18188259D01*
X48172818Y-18368277D01*
X48172821Y-18368284D01*
X48267467Y-18532216D01*
X48311092Y-18580666D01*
X48394129Y-18672888D01*
X48547265Y-18784148D01*
X48547270Y-18784151D01*
X48720192Y-18861142D01*
X48720197Y-18861144D01*
X48905354Y-18900500D01*
X48987769Y-18900500D01*
X49054808Y-18920185D01*
X49075450Y-18936818D01*
X49181344Y-19042712D01*
X49330666Y-19134814D01*
X49330667Y-19134814D01*
X49330670Y-19134816D01*
X49336677Y-19137617D01*
X49389117Y-19183788D01*
X49408271Y-19250981D01*
X49388057Y-19317862D01*
X49336677Y-19362383D01*
X49330670Y-19365183D01*
X49181342Y-19457289D01*
X49057289Y-19581342D01*
X48965187Y-19730663D01*
X48965185Y-19730668D01*
X48941750Y-19801390D01*
X48910001Y-19897203D01*
X48910001Y-19897204D01*
X48910000Y-19897204D01*
X48899500Y-19999983D01*
X48899500Y-21000001D01*
X48899501Y-21000019D01*
X48910000Y-21102796D01*
X48910001Y-21102799D01*
X48921947Y-21138848D01*
X48965186Y-21269334D01*
X49057288Y-21418656D01*
X49181344Y-21542712D01*
X49330666Y-21634814D01*
X49497203Y-21689999D01*
X49599991Y-21700500D01*
X50158480Y-21700499D01*
X50225519Y-21720183D01*
X50246161Y-21736818D01*
X50263181Y-21753838D01*
X50296666Y-21815161D01*
X50299500Y-21841519D01*
X50299500Y-22206921D01*
X50279815Y-22273960D01*
X50227011Y-22319715D01*
X50157853Y-22329659D01*
X50109528Y-22311915D01*
X50049523Y-22274211D01*
X49879254Y-22214631D01*
X49879249Y-22214630D01*
X49744960Y-22199500D01*
X49744954Y-22199500D01*
X49291519Y-22199500D01*
X49224480Y-22179815D01*
X49203838Y-22163181D01*
X47496546Y-20455888D01*
X47496545Y-20455887D01*
X47381807Y-20379222D01*
X47254332Y-20326421D01*
X47254322Y-20326418D01*
X47118996Y-20299500D01*
X47118994Y-20299500D01*
X47118993Y-20299500D01*
X44311940Y-20299500D01*
X44244901Y-20279815D01*
X44199146Y-20227011D01*
X44189202Y-20157853D01*
X44199558Y-20123095D01*
X44273903Y-19963663D01*
X44335063Y-19735408D01*
X44355659Y-19500000D01*
X44335063Y-19264592D01*
X44273903Y-19036337D01*
X44174035Y-18822171D01*
X44168731Y-18814595D01*
X44038494Y-18628597D01*
X43871402Y-18461506D01*
X43871396Y-18461501D01*
X43685842Y-18331575D01*
X43642217Y-18276998D01*
X43635023Y-18207500D01*
X43666546Y-18145145D01*
X43685842Y-18128425D01*
X43786683Y-18057815D01*
X43871401Y-17998495D01*
X44038495Y-17831401D01*
X44174035Y-17637830D01*
X44273903Y-17423663D01*
X44335063Y-17195408D01*
X44355659Y-16960000D01*
X44335063Y-16724592D01*
X44273903Y-16496337D01*
X44174035Y-16282171D01*
X44168731Y-16274595D01*
X44038494Y-16088597D01*
X43871402Y-15921506D01*
X43871395Y-15921501D01*
X43677834Y-15785967D01*
X43677830Y-15785965D01*
X43677828Y-15785964D01*
X43463663Y-15686097D01*
X43463659Y-15686096D01*
X43463655Y-15686094D01*
X43235413Y-15624938D01*
X43235403Y-15624936D01*
X43000001Y-15604341D01*
X42999999Y-15604341D01*
X42764596Y-15624936D01*
X42764586Y-15624938D01*
X42536344Y-15686094D01*
X42536335Y-15686098D01*
X42322171Y-15785964D01*
X42322169Y-15785965D01*
X42128597Y-15921505D01*
X41961505Y-16088597D01*
X41831575Y-16274158D01*
X41776998Y-16317783D01*
X41707500Y-16324977D01*
X41645145Y-16293454D01*
X41628425Y-16274158D01*
X41498494Y-16088597D01*
X41331402Y-15921506D01*
X41331395Y-15921501D01*
X41137834Y-15785967D01*
X41137830Y-15785965D01*
X41137828Y-15785964D01*
X40923663Y-15686097D01*
X40923659Y-15686096D01*
X40923655Y-15686094D01*
X40695413Y-15624938D01*
X40695403Y-15624936D01*
X40460001Y-15604341D01*
X40459999Y-15604341D01*
X40224596Y-15624936D01*
X40224586Y-15624938D01*
X39996344Y-15686094D01*
X39996335Y-15686098D01*
X39782171Y-15785964D01*
X39782169Y-15785965D01*
X39588597Y-15921505D01*
X39421505Y-16088597D01*
X39291575Y-16274158D01*
X39236998Y-16317783D01*
X39167500Y-16324977D01*
X39105145Y-16293454D01*
X39088425Y-16274158D01*
X38958494Y-16088597D01*
X38791402Y-15921506D01*
X38791395Y-15921501D01*
X38597834Y-15785967D01*
X38597830Y-15785965D01*
X38597828Y-15785964D01*
X38383663Y-15686097D01*
X38383659Y-15686096D01*
X38383655Y-15686094D01*
X38155413Y-15624938D01*
X38155403Y-15624936D01*
X37920001Y-15604341D01*
X37919999Y-15604341D01*
X37684596Y-15624936D01*
X37684586Y-15624938D01*
X37456344Y-15686094D01*
X37456335Y-15686098D01*
X37242171Y-15785964D01*
X37242169Y-15785965D01*
X37048597Y-15921505D01*
X36881505Y-16088597D01*
X36751575Y-16274158D01*
X36696998Y-16317783D01*
X36627500Y-16324977D01*
X36565145Y-16293454D01*
X36548425Y-16274158D01*
X36418494Y-16088597D01*
X36251402Y-15921506D01*
X36251395Y-15921501D01*
X36057834Y-15785967D01*
X36057830Y-15785965D01*
X36057828Y-15785964D01*
X35843663Y-15686097D01*
X35843659Y-15686096D01*
X35843655Y-15686094D01*
X35615413Y-15624938D01*
X35615403Y-15624936D01*
X35380001Y-15604341D01*
X35379999Y-15604341D01*
X35144596Y-15624936D01*
X35144586Y-15624938D01*
X34916344Y-15686094D01*
X34916335Y-15686098D01*
X34702171Y-15785964D01*
X34702169Y-15785965D01*
X34508597Y-15921505D01*
X34341505Y-16088597D01*
X34211269Y-16274595D01*
X34156692Y-16318220D01*
X34087194Y-16325414D01*
X34024839Y-16293891D01*
X34008119Y-16274595D01*
X33954925Y-16198626D01*
X33954925Y-16198625D01*
X33322962Y-16830589D01*
X33305925Y-16767007D01*
X33240099Y-16652993D01*
X33147007Y-16559901D01*
X33032993Y-16494075D01*
X32969410Y-16477037D01*
X33601373Y-15845073D01*
X33601373Y-15845072D01*
X33517583Y-15786402D01*
X33517579Y-15786400D01*
X33303492Y-15686570D01*
X33303483Y-15686566D01*
X33075326Y-15625432D01*
X33075315Y-15625430D01*
X32840002Y-15604843D01*
X32839998Y-15604843D01*
X32604684Y-15625430D01*
X32604673Y-15625432D01*
X32376516Y-15686566D01*
X32376507Y-15686570D01*
X32162419Y-15786401D01*
X32078625Y-15845072D01*
X32710590Y-16477037D01*
X32647007Y-16494075D01*
X32532993Y-16559901D01*
X32439901Y-16652993D01*
X32374075Y-16767007D01*
X32357037Y-16830590D01*
X31725072Y-16198625D01*
X31725072Y-16198626D01*
X31671574Y-16275030D01*
X31616998Y-16318655D01*
X31547499Y-16325849D01*
X31485144Y-16294326D01*
X31468424Y-16275030D01*
X31414925Y-16198626D01*
X31414925Y-16198625D01*
X30782962Y-16830589D01*
X30765925Y-16767007D01*
X30700099Y-16652993D01*
X30607007Y-16559901D01*
X30492993Y-16494075D01*
X30429410Y-16477037D01*
X31061373Y-15845073D01*
X31061373Y-15845072D01*
X30977583Y-15786402D01*
X30977579Y-15786400D01*
X30763492Y-15686570D01*
X30763483Y-15686566D01*
X30535326Y-15625432D01*
X30535315Y-15625430D01*
X30300002Y-15604843D01*
X30299998Y-15604843D01*
X30064684Y-15625430D01*
X30064673Y-15625432D01*
X29836516Y-15686566D01*
X29836507Y-15686570D01*
X29622419Y-15786401D01*
X29538625Y-15845072D01*
X30170590Y-16477037D01*
X30107007Y-16494075D01*
X29992993Y-16559901D01*
X29899901Y-16652993D01*
X29834075Y-16767007D01*
X29817037Y-16830590D01*
X29185072Y-16198625D01*
X29185072Y-16198626D01*
X29131574Y-16275030D01*
X29076998Y-16318655D01*
X29007499Y-16325849D01*
X28945144Y-16294326D01*
X28928424Y-16275030D01*
X28874925Y-16198626D01*
X28874925Y-16198625D01*
X28242962Y-16830589D01*
X28225925Y-16767007D01*
X28160099Y-16652993D01*
X28067007Y-16559901D01*
X27952993Y-16494075D01*
X27889410Y-16477037D01*
X28521373Y-15845073D01*
X28521373Y-15845072D01*
X28437583Y-15786402D01*
X28437579Y-15786400D01*
X28223492Y-15686570D01*
X28223483Y-15686566D01*
X27995326Y-15625432D01*
X27995315Y-15625430D01*
X27760002Y-15604843D01*
X27759998Y-15604843D01*
X27524684Y-15625430D01*
X27524673Y-15625432D01*
X27296516Y-15686566D01*
X27296507Y-15686570D01*
X27082419Y-15786401D01*
X26998625Y-15845072D01*
X27630590Y-16477037D01*
X27567007Y-16494075D01*
X27452993Y-16559901D01*
X27359901Y-16652993D01*
X27294075Y-16767007D01*
X27277037Y-16830590D01*
X26645073Y-16198626D01*
X26591881Y-16274594D01*
X26537304Y-16318219D01*
X26467806Y-16325413D01*
X26405451Y-16293891D01*
X26388730Y-16274594D01*
X26258494Y-16088597D01*
X26091402Y-15921506D01*
X26091395Y-15921501D01*
X25897834Y-15785967D01*
X25897830Y-15785965D01*
X25897828Y-15785964D01*
X25683663Y-15686097D01*
X25683659Y-15686096D01*
X25683655Y-15686094D01*
X25455413Y-15624938D01*
X25455403Y-15624936D01*
X25220001Y-15604341D01*
X25219999Y-15604341D01*
X24984596Y-15624936D01*
X24984586Y-15624938D01*
X24756344Y-15686094D01*
X24756335Y-15686098D01*
X24542171Y-15785964D01*
X24542169Y-15785965D01*
X24348597Y-15921505D01*
X24181505Y-16088597D01*
X24045965Y-16282169D01*
X24045964Y-16282171D01*
X23946098Y-16496335D01*
X23946094Y-16496344D01*
X23884938Y-16724586D01*
X23884936Y-16724596D01*
X23864341Y-16959999D01*
X23864341Y-16960000D01*
X15093179Y-16960000D01*
X15124347Y-16773222D01*
X15126443Y-16763229D01*
X15245723Y-16292200D01*
X15248639Y-16282409D01*
X15406405Y-15822852D01*
X15410114Y-15813346D01*
X15605300Y-15368367D01*
X15609773Y-15359215D01*
X15841045Y-14931862D01*
X15846262Y-14923107D01*
X16112027Y-14516323D01*
X16117960Y-14508013D01*
X16416412Y-14124562D01*
X16422983Y-14116804D01*
X16752080Y-13759310D01*
X16759310Y-13752080D01*
X17116804Y-13422983D01*
X17124562Y-13416412D01*
X17508013Y-13117960D01*
X17516323Y-13112027D01*
X17923107Y-12846262D01*
X17931862Y-12841045D01*
X18359215Y-12609773D01*
X18368367Y-12605300D01*
X18813346Y-12410114D01*
X18822852Y-12406405D01*
X19282409Y-12248639D01*
X19292200Y-12245723D01*
X19763229Y-12126443D01*
X19773222Y-12124347D01*
X20252496Y-12044370D01*
X20262626Y-12043108D01*
X20747489Y-12002932D01*
X20756410Y-12002516D01*
X20999323Y-12000007D01*
X21000604Y-12000000D01*
X228999396Y-12000000D01*
X229000678Y-12000007D01*
G37*
%TD.AperFunction*%
%TD*%
%TA.AperFunction,NonConductor*%
G36*
X234943039Y-50019685D02*
G01*
X234988794Y-50072489D01*
X235000000Y-50124000D01*
X235000000Y-198999396D01*
X234999993Y-199000677D01*
X234997483Y-199243570D01*
X234997066Y-199252529D01*
X234956893Y-199737353D01*
X234955626Y-199747523D01*
X234875655Y-200226758D01*
X234873552Y-200236788D01*
X234754280Y-200707783D01*
X234751355Y-200717606D01*
X234593602Y-201177126D01*
X234589877Y-201186673D01*
X234394710Y-201631609D01*
X234390209Y-201640817D01*
X234158971Y-202068107D01*
X234153725Y-202076911D01*
X233887977Y-202483668D01*
X233882022Y-202492008D01*
X233583608Y-202875410D01*
X233576995Y-202883219D01*
X233247927Y-203240680D01*
X233240680Y-203247927D01*
X232883219Y-203576995D01*
X232875410Y-203583608D01*
X232593416Y-203803093D01*
X232492008Y-203882022D01*
X232483668Y-203887977D01*
X232076911Y-204153725D01*
X232068107Y-204158971D01*
X231640817Y-204390209D01*
X231631609Y-204394710D01*
X231186673Y-204589877D01*
X231177126Y-204593602D01*
X230717606Y-204751355D01*
X230707783Y-204754280D01*
X230236788Y-204873552D01*
X230226758Y-204875655D01*
X229747523Y-204955626D01*
X229737353Y-204956893D01*
X229252529Y-204997066D01*
X229243570Y-204997483D01*
X229000677Y-204999993D01*
X228999396Y-205000000D01*
X21000604Y-205000000D01*
X20999323Y-204999993D01*
X20756429Y-204997483D01*
X20747470Y-204997066D01*
X20262646Y-204956893D01*
X20252476Y-204955626D01*
X19773241Y-204875655D01*
X19763211Y-204873552D01*
X19292216Y-204754280D01*
X19282393Y-204751355D01*
X18822873Y-204593602D01*
X18813326Y-204589877D01*
X18368390Y-204394710D01*
X18359196Y-204390216D01*
X17931880Y-204158964D01*
X17923088Y-204153725D01*
X17516331Y-203887977D01*
X17507998Y-203882027D01*
X17124576Y-203583598D01*
X17116790Y-203577003D01*
X16759319Y-203247927D01*
X16752072Y-203240680D01*
X16684550Y-203167332D01*
X16422994Y-202883207D01*
X16416403Y-202875425D01*
X16117969Y-202491997D01*
X16112022Y-202483668D01*
X15846274Y-202076911D01*
X15841039Y-202068126D01*
X15609778Y-201640793D01*
X15605295Y-201631623D01*
X15410117Y-201186661D01*
X15406402Y-201177139D01*
X15248641Y-200717597D01*
X15245719Y-200707783D01*
X15126444Y-200236774D01*
X15124347Y-200226772D01*
X15044370Y-199747506D01*
X15043108Y-199737370D01*
X15002932Y-199252511D01*
X15002516Y-199243587D01*
X15000007Y-199000677D01*
X15000000Y-198999396D01*
X15000000Y-189100005D01*
X20247498Y-189100005D01*
X20267420Y-189308639D01*
X20267423Y-189308656D01*
X20326470Y-189509755D01*
X20422518Y-189696062D01*
X20552079Y-189860810D01*
X20552083Y-189860814D01*
X20710481Y-189998068D01*
X20710492Y-189998076D01*
X20892002Y-190102870D01*
X20892004Y-190102871D01*
X21090075Y-190171424D01*
X21297541Y-190201253D01*
X21506902Y-190191280D01*
X21710593Y-190141865D01*
X21901251Y-190054795D01*
X22071985Y-189933215D01*
X22216625Y-189781522D01*
X22329943Y-189605196D01*
X22407843Y-189410611D01*
X22447510Y-189204799D01*
X22450000Y-189100005D01*
X65397498Y-189100005D01*
X65417420Y-189308639D01*
X65417423Y-189308656D01*
X65476470Y-189509755D01*
X65572518Y-189696062D01*
X65702079Y-189860810D01*
X65702083Y-189860814D01*
X65860481Y-189998068D01*
X65860492Y-189998076D01*
X66042002Y-190102870D01*
X66042004Y-190102871D01*
X66240075Y-190171424D01*
X66447541Y-190201253D01*
X66656902Y-190191280D01*
X66860593Y-190141865D01*
X67051251Y-190054795D01*
X67221985Y-189933215D01*
X67366625Y-189781522D01*
X67479943Y-189605196D01*
X67557843Y-189410611D01*
X67597510Y-189204799D01*
X67600000Y-189100005D01*
X74247498Y-189100005D01*
X74267420Y-189308639D01*
X74267423Y-189308656D01*
X74326470Y-189509755D01*
X74422518Y-189696062D01*
X74552079Y-189860810D01*
X74552083Y-189860814D01*
X74710481Y-189998068D01*
X74710492Y-189998076D01*
X74892002Y-190102870D01*
X74892004Y-190102871D01*
X75090075Y-190171424D01*
X75297541Y-190201253D01*
X75506902Y-190191280D01*
X75710593Y-190141865D01*
X75901251Y-190054795D01*
X76071985Y-189933215D01*
X76216625Y-189781522D01*
X76329943Y-189605196D01*
X76407843Y-189410611D01*
X76447510Y-189204799D01*
X76450000Y-189100005D01*
X119397498Y-189100005D01*
X119417420Y-189308639D01*
X119417423Y-189308656D01*
X119476470Y-189509755D01*
X119572518Y-189696062D01*
X119702079Y-189860810D01*
X119702083Y-189860814D01*
X119860481Y-189998068D01*
X119860492Y-189998076D01*
X120042002Y-190102870D01*
X120042004Y-190102871D01*
X120240075Y-190171424D01*
X120447541Y-190201253D01*
X120656902Y-190191280D01*
X120860593Y-190141865D01*
X121051251Y-190054795D01*
X121221985Y-189933215D01*
X121366625Y-189781522D01*
X121479943Y-189605196D01*
X121557843Y-189410611D01*
X121597510Y-189204799D01*
X121600000Y-189100005D01*
X128247498Y-189100005D01*
X128267420Y-189308639D01*
X128267423Y-189308656D01*
X128326470Y-189509755D01*
X128422518Y-189696062D01*
X128552079Y-189860810D01*
X128552083Y-189860814D01*
X128710481Y-189998068D01*
X128710492Y-189998076D01*
X128892002Y-190102870D01*
X128892004Y-190102871D01*
X129090075Y-190171424D01*
X129297541Y-190201253D01*
X129506902Y-190191280D01*
X129710593Y-190141865D01*
X129901251Y-190054795D01*
X130071985Y-189933215D01*
X130216625Y-189781522D01*
X130329943Y-189605196D01*
X130407843Y-189410611D01*
X130447510Y-189204799D01*
X130450000Y-189100005D01*
X173397498Y-189100005D01*
X173417420Y-189308639D01*
X173417423Y-189308656D01*
X173476470Y-189509755D01*
X173572518Y-189696062D01*
X173702079Y-189860810D01*
X173702083Y-189860814D01*
X173860481Y-189998068D01*
X173860492Y-189998076D01*
X174042002Y-190102870D01*
X174042004Y-190102871D01*
X174240075Y-190171424D01*
X174447541Y-190201253D01*
X174656902Y-190191280D01*
X174860593Y-190141865D01*
X175051251Y-190054795D01*
X175221985Y-189933215D01*
X175366625Y-189781522D01*
X175479943Y-189605196D01*
X175557843Y-189410611D01*
X175597510Y-189204799D01*
X175600000Y-189100005D01*
X182247498Y-189100005D01*
X182267420Y-189308639D01*
X182267423Y-189308656D01*
X182326470Y-189509755D01*
X182422518Y-189696062D01*
X182552079Y-189860810D01*
X182552083Y-189860814D01*
X182710481Y-189998068D01*
X182710492Y-189998076D01*
X182892002Y-190102870D01*
X182892004Y-190102871D01*
X183090075Y-190171424D01*
X183297541Y-190201253D01*
X183506902Y-190191280D01*
X183710593Y-190141865D01*
X183901251Y-190054795D01*
X184071985Y-189933215D01*
X184216625Y-189781522D01*
X184329943Y-189605196D01*
X184407843Y-189410611D01*
X184447510Y-189204799D01*
X184450000Y-189100005D01*
X227397498Y-189100005D01*
X227417420Y-189308639D01*
X227417423Y-189308656D01*
X227476470Y-189509755D01*
X227572518Y-189696062D01*
X227702079Y-189860810D01*
X227702083Y-189860814D01*
X227860481Y-189998068D01*
X227860492Y-189998076D01*
X228042002Y-190102870D01*
X228042004Y-190102871D01*
X228240075Y-190171424D01*
X228447541Y-190201253D01*
X228656902Y-190191280D01*
X228860593Y-190141865D01*
X229051251Y-190054795D01*
X229221985Y-189933215D01*
X229366625Y-189781522D01*
X229479943Y-189605196D01*
X229557843Y-189410611D01*
X229597510Y-189204799D01*
X229600000Y-189100000D01*
X229597510Y-188995201D01*
X229557843Y-188789389D01*
X229479943Y-188594804D01*
X229366625Y-188418478D01*
X229345251Y-188396062D01*
X229221987Y-188266786D01*
X229221984Y-188266784D01*
X229051253Y-188145206D01*
X229051251Y-188145205D01*
X228860593Y-188058135D01*
X228656902Y-188008720D01*
X228467489Y-187999697D01*
X228447543Y-187998747D01*
X228447542Y-187998747D01*
X228447541Y-187998747D01*
X228240075Y-188028576D01*
X228240074Y-188028576D01*
X228240069Y-188028577D01*
X228042002Y-188097129D01*
X227860492Y-188201923D01*
X227860481Y-188201931D01*
X227702083Y-188339185D01*
X227702079Y-188339189D01*
X227572518Y-188503937D01*
X227476470Y-188690244D01*
X227417423Y-188891343D01*
X227417420Y-188891360D01*
X227397498Y-189099994D01*
X227397498Y-189100005D01*
X184450000Y-189100005D01*
X184450000Y-189100000D01*
X184447510Y-188995201D01*
X184407843Y-188789389D01*
X184329943Y-188594804D01*
X184216625Y-188418478D01*
X184195251Y-188396062D01*
X184071987Y-188266786D01*
X184071984Y-188266784D01*
X183901253Y-188145206D01*
X183901251Y-188145205D01*
X183710593Y-188058135D01*
X183506902Y-188008720D01*
X183317489Y-187999697D01*
X183297543Y-187998747D01*
X183297542Y-187998747D01*
X183297541Y-187998747D01*
X183090075Y-188028576D01*
X183090074Y-188028576D01*
X183090069Y-188028577D01*
X182892002Y-188097129D01*
X182710492Y-188201923D01*
X182710481Y-188201931D01*
X182552083Y-188339185D01*
X182552079Y-188339189D01*
X182422518Y-188503937D01*
X182326470Y-188690244D01*
X182267423Y-188891343D01*
X182267420Y-188891360D01*
X182247498Y-189099994D01*
X182247498Y-189100005D01*
X175600000Y-189100005D01*
X175600000Y-189100000D01*
X175597510Y-188995201D01*
X175557843Y-188789389D01*
X175479943Y-188594804D01*
X175366625Y-188418478D01*
X175345251Y-188396062D01*
X175221987Y-188266786D01*
X175221984Y-188266784D01*
X175051253Y-188145206D01*
X175051251Y-188145205D01*
X174860593Y-188058135D01*
X174656902Y-188008720D01*
X174467489Y-187999697D01*
X174447543Y-187998747D01*
X174447542Y-187998747D01*
X174447541Y-187998747D01*
X174240075Y-188028576D01*
X174240074Y-188028576D01*
X174240069Y-188028577D01*
X174042002Y-188097129D01*
X173860492Y-188201923D01*
X173860481Y-188201931D01*
X173702083Y-188339185D01*
X173702079Y-188339189D01*
X173572518Y-188503937D01*
X173476470Y-188690244D01*
X173417423Y-188891343D01*
X173417420Y-188891360D01*
X173397498Y-189099994D01*
X173397498Y-189100005D01*
X130450000Y-189100005D01*
X130450000Y-189100000D01*
X130447510Y-188995201D01*
X130407843Y-188789389D01*
X130329943Y-188594804D01*
X130216625Y-188418478D01*
X130195251Y-188396062D01*
X130071987Y-188266786D01*
X130071984Y-188266784D01*
X129901253Y-188145206D01*
X129901251Y-188145205D01*
X129710593Y-188058135D01*
X129506902Y-188008720D01*
X129317489Y-187999697D01*
X129297543Y-187998747D01*
X129297542Y-187998747D01*
X129297541Y-187998747D01*
X129090075Y-188028576D01*
X129090074Y-188028576D01*
X129090069Y-188028577D01*
X128892002Y-188097129D01*
X128710492Y-188201923D01*
X128710481Y-188201931D01*
X128552083Y-188339185D01*
X128552079Y-188339189D01*
X128422518Y-188503937D01*
X128326470Y-188690244D01*
X128267423Y-188891343D01*
X128267420Y-188891360D01*
X128247498Y-189099994D01*
X128247498Y-189100005D01*
X121600000Y-189100005D01*
X121600000Y-189100000D01*
X121597510Y-188995201D01*
X121557843Y-188789389D01*
X121479943Y-188594804D01*
X121366625Y-188418478D01*
X121345251Y-188396062D01*
X121221987Y-188266786D01*
X121221984Y-188266784D01*
X121051253Y-188145206D01*
X121051251Y-188145205D01*
X120860593Y-188058135D01*
X120656902Y-188008720D01*
X120467489Y-187999697D01*
X120447543Y-187998747D01*
X120447542Y-187998747D01*
X120447541Y-187998747D01*
X120240075Y-188028576D01*
X120240074Y-188028576D01*
X120240069Y-188028577D01*
X120042002Y-188097129D01*
X119860492Y-188201923D01*
X119860481Y-188201931D01*
X119702083Y-188339185D01*
X119702079Y-188339189D01*
X119572518Y-188503937D01*
X119476470Y-188690244D01*
X119417423Y-188891343D01*
X119417420Y-188891360D01*
X119397498Y-189099994D01*
X119397498Y-189100005D01*
X76450000Y-189100005D01*
X76450000Y-189100000D01*
X76447510Y-188995201D01*
X76407843Y-188789389D01*
X76329943Y-188594804D01*
X76216625Y-188418478D01*
X76195251Y-188396062D01*
X76071987Y-188266786D01*
X76071984Y-188266784D01*
X75901253Y-188145206D01*
X75901251Y-188145205D01*
X75710593Y-188058135D01*
X75506902Y-188008720D01*
X75317489Y-187999697D01*
X75297543Y-187998747D01*
X75297542Y-187998747D01*
X75297541Y-187998747D01*
X75090075Y-188028576D01*
X75090074Y-188028576D01*
X75090069Y-188028577D01*
X74892002Y-188097129D01*
X74710492Y-188201923D01*
X74710481Y-188201931D01*
X74552083Y-188339185D01*
X74552079Y-188339189D01*
X74422518Y-188503937D01*
X74326470Y-188690244D01*
X74267423Y-188891343D01*
X74267420Y-188891360D01*
X74247498Y-189099994D01*
X74247498Y-189100005D01*
X67600000Y-189100005D01*
X67600000Y-189100000D01*
X67597510Y-188995201D01*
X67557843Y-188789389D01*
X67479943Y-188594804D01*
X67366625Y-188418478D01*
X67345251Y-188396062D01*
X67221987Y-188266786D01*
X67221984Y-188266784D01*
X67051253Y-188145206D01*
X67051251Y-188145205D01*
X66860593Y-188058135D01*
X66656902Y-188008720D01*
X66467489Y-187999697D01*
X66447543Y-187998747D01*
X66447542Y-187998747D01*
X66447541Y-187998747D01*
X66240075Y-188028576D01*
X66240074Y-188028576D01*
X66240069Y-188028577D01*
X66042002Y-188097129D01*
X65860492Y-188201923D01*
X65860481Y-188201931D01*
X65702083Y-188339185D01*
X65702079Y-188339189D01*
X65572518Y-188503937D01*
X65476470Y-188690244D01*
X65417423Y-188891343D01*
X65417420Y-188891360D01*
X65397498Y-189099994D01*
X65397498Y-189100005D01*
X22450000Y-189100005D01*
X22450000Y-189100000D01*
X22447510Y-188995201D01*
X22407843Y-188789389D01*
X22329943Y-188594804D01*
X22216625Y-188418478D01*
X22195251Y-188396062D01*
X22071987Y-188266786D01*
X22071984Y-188266784D01*
X21901253Y-188145206D01*
X21901251Y-188145205D01*
X21710593Y-188058135D01*
X21506902Y-188008720D01*
X21317489Y-187999697D01*
X21297543Y-187998747D01*
X21297542Y-187998747D01*
X21297541Y-187998747D01*
X21090075Y-188028576D01*
X21090074Y-188028576D01*
X21090069Y-188028577D01*
X20892002Y-188097129D01*
X20710492Y-188201923D01*
X20710481Y-188201931D01*
X20552083Y-188339185D01*
X20552079Y-188339189D01*
X20422518Y-188503937D01*
X20326470Y-188690244D01*
X20267423Y-188891343D01*
X20267420Y-188891360D01*
X20247498Y-189099994D01*
X20247498Y-189100005D01*
X15000000Y-189100005D01*
X15000000Y-187800005D01*
X42822498Y-187800005D01*
X42842420Y-188008639D01*
X42842423Y-188008656D01*
X42901470Y-188209755D01*
X42901471Y-188209758D01*
X42901472Y-188209759D01*
X42930871Y-188266785D01*
X42997518Y-188396062D01*
X43127079Y-188560810D01*
X43127083Y-188560814D01*
X43285481Y-188698068D01*
X43285492Y-188698076D01*
X43443652Y-188789389D01*
X43467004Y-188802871D01*
X43665075Y-188871424D01*
X43872541Y-188901253D01*
X44081902Y-188891280D01*
X44285593Y-188841865D01*
X44476251Y-188754795D01*
X44646985Y-188633215D01*
X44791625Y-188481522D01*
X44904943Y-188305196D01*
X44982843Y-188110611D01*
X45022510Y-187904799D01*
X45025000Y-187800005D01*
X96822498Y-187800005D01*
X96842420Y-188008639D01*
X96842423Y-188008656D01*
X96901470Y-188209755D01*
X96901471Y-188209758D01*
X96901472Y-188209759D01*
X96930871Y-188266785D01*
X96997518Y-188396062D01*
X97127079Y-188560810D01*
X97127083Y-188560814D01*
X97285481Y-188698068D01*
X97285492Y-188698076D01*
X97443652Y-188789389D01*
X97467004Y-188802871D01*
X97665075Y-188871424D01*
X97872541Y-188901253D01*
X98081902Y-188891280D01*
X98285593Y-188841865D01*
X98476251Y-188754795D01*
X98646985Y-188633215D01*
X98791625Y-188481522D01*
X98904943Y-188305196D01*
X98982843Y-188110611D01*
X99022510Y-187904799D01*
X99025000Y-187800005D01*
X150822498Y-187800005D01*
X150842420Y-188008639D01*
X150842423Y-188008656D01*
X150901470Y-188209755D01*
X150901471Y-188209758D01*
X150901472Y-188209759D01*
X150930871Y-188266785D01*
X150997518Y-188396062D01*
X151127079Y-188560810D01*
X151127083Y-188560814D01*
X151285481Y-188698068D01*
X151285492Y-188698076D01*
X151443652Y-188789389D01*
X151467004Y-188802871D01*
X151665075Y-188871424D01*
X151872541Y-188901253D01*
X152081902Y-188891280D01*
X152285593Y-188841865D01*
X152476251Y-188754795D01*
X152646985Y-188633215D01*
X152791625Y-188481522D01*
X152904943Y-188305196D01*
X152982843Y-188110611D01*
X153022510Y-187904799D01*
X153025000Y-187800005D01*
X204822498Y-187800005D01*
X204842420Y-188008639D01*
X204842423Y-188008656D01*
X204901470Y-188209755D01*
X204901471Y-188209758D01*
X204901472Y-188209759D01*
X204930871Y-188266785D01*
X204997518Y-188396062D01*
X205127079Y-188560810D01*
X205127083Y-188560814D01*
X205285481Y-188698068D01*
X205285492Y-188698076D01*
X205443652Y-188789389D01*
X205467004Y-188802871D01*
X205665075Y-188871424D01*
X205872541Y-188901253D01*
X206081902Y-188891280D01*
X206285593Y-188841865D01*
X206476251Y-188754795D01*
X206646985Y-188633215D01*
X206791625Y-188481522D01*
X206904943Y-188305196D01*
X206982843Y-188110611D01*
X207022510Y-187904799D01*
X207025000Y-187800000D01*
X207022510Y-187695201D01*
X206982843Y-187489389D01*
X206904943Y-187294804D01*
X206791625Y-187118478D01*
X206716019Y-187039185D01*
X206646987Y-186966786D01*
X206646984Y-186966784D01*
X206476253Y-186845206D01*
X206476251Y-186845205D01*
X206285593Y-186758135D01*
X206081902Y-186708720D01*
X205892489Y-186699697D01*
X205872543Y-186698747D01*
X205872542Y-186698747D01*
X205872541Y-186698747D01*
X205665075Y-186728576D01*
X205665074Y-186728576D01*
X205665069Y-186728577D01*
X205467002Y-186797129D01*
X205285492Y-186901923D01*
X205285481Y-186901931D01*
X205127083Y-187039185D01*
X205127079Y-187039189D01*
X204997518Y-187203937D01*
X204901470Y-187390244D01*
X204842423Y-187591343D01*
X204842420Y-187591360D01*
X204822498Y-187799994D01*
X204822498Y-187800005D01*
X153025000Y-187800005D01*
X153025000Y-187800000D01*
X153022510Y-187695201D01*
X152982843Y-187489389D01*
X152904943Y-187294804D01*
X152791625Y-187118478D01*
X152716019Y-187039185D01*
X152646987Y-186966786D01*
X152646984Y-186966784D01*
X152476253Y-186845206D01*
X152476251Y-186845205D01*
X152285593Y-186758135D01*
X152081902Y-186708720D01*
X151892489Y-186699697D01*
X151872543Y-186698747D01*
X151872542Y-186698747D01*
X151872541Y-186698747D01*
X151665075Y-186728576D01*
X151665074Y-186728576D01*
X151665069Y-186728577D01*
X151467002Y-186797129D01*
X151285492Y-186901923D01*
X151285481Y-186901931D01*
X151127083Y-187039185D01*
X151127079Y-187039189D01*
X150997518Y-187203937D01*
X150901470Y-187390244D01*
X150842423Y-187591343D01*
X150842420Y-187591360D01*
X150822498Y-187799994D01*
X150822498Y-187800005D01*
X99025000Y-187800005D01*
X99025000Y-187800000D01*
X99022510Y-187695201D01*
X98982843Y-187489389D01*
X98904943Y-187294804D01*
X98791625Y-187118478D01*
X98716019Y-187039185D01*
X98646987Y-186966786D01*
X98646984Y-186966784D01*
X98476253Y-186845206D01*
X98476251Y-186845205D01*
X98285593Y-186758135D01*
X98081902Y-186708720D01*
X97892489Y-186699697D01*
X97872543Y-186698747D01*
X97872542Y-186698747D01*
X97872541Y-186698747D01*
X97665075Y-186728576D01*
X97665074Y-186728576D01*
X97665069Y-186728577D01*
X97467002Y-186797129D01*
X97285492Y-186901923D01*
X97285481Y-186901931D01*
X97127083Y-187039185D01*
X97127079Y-187039189D01*
X96997518Y-187203937D01*
X96901470Y-187390244D01*
X96842423Y-187591343D01*
X96842420Y-187591360D01*
X96822498Y-187799994D01*
X96822498Y-187800005D01*
X45025000Y-187800005D01*
X45025000Y-187800000D01*
X45022510Y-187695201D01*
X44982843Y-187489389D01*
X44904943Y-187294804D01*
X44791625Y-187118478D01*
X44716019Y-187039185D01*
X44646987Y-186966786D01*
X44646984Y-186966784D01*
X44476253Y-186845206D01*
X44476251Y-186845205D01*
X44285593Y-186758135D01*
X44081902Y-186708720D01*
X43892489Y-186699697D01*
X43872543Y-186698747D01*
X43872542Y-186698747D01*
X43872541Y-186698747D01*
X43665075Y-186728576D01*
X43665074Y-186728576D01*
X43665069Y-186728577D01*
X43467002Y-186797129D01*
X43285492Y-186901923D01*
X43285481Y-186901931D01*
X43127083Y-187039185D01*
X43127079Y-187039189D01*
X42997518Y-187203937D01*
X42901470Y-187390244D01*
X42842423Y-187591343D01*
X42842420Y-187591360D01*
X42822498Y-187799994D01*
X42822498Y-187800005D01*
X15000000Y-187800005D01*
X15000000Y-50124000D01*
X15019685Y-50056961D01*
X15072489Y-50011206D01*
X15124000Y-50000000D01*
X234876000Y-50000000D01*
X234943039Y-50019685D01*
G37*
%TD.AperFunction*%
M02*
