%TF.GenerationSoftware,KiCad,Pcbnew,8.0.0*%
%TF.CreationDate,2024-04-26T11:12:47+02:00*%
%TF.ProjectId,Vollkornbrot,566f6c6c-6b6f-4726-9e62-726f742e6b69,rev?*%
%TF.SameCoordinates,Original*%
%TF.FileFunction,Copper,L2,Bot*%
%TF.FilePolarity,Positive*%
%FSLAX46Y46*%
G04 Gerber Fmt 4.6, Leading zero omitted, Abs format (unit mm)*
G04 Created by KiCad (PCBNEW 8.0.0) date 2024-04-26 11:12:47*
%MOMM*%
%LPD*%
G01*
G04 APERTURE LIST*
G04 Aperture macros list*
%AMRoundRect*
0 Rectangle with rounded corners*
0 $1 Rounding radius*
0 $2 $3 $4 $5 $6 $7 $8 $9 X,Y pos of 4 corners*
0 Add a 4 corners polygon primitive as box body*
4,1,4,$2,$3,$4,$5,$6,$7,$8,$9,$2,$3,0*
0 Add four circle primitives for the rounded corners*
1,1,$1+$1,$2,$3*
1,1,$1+$1,$4,$5*
1,1,$1+$1,$6,$7*
1,1,$1+$1,$8,$9*
0 Add four rect primitives between the rounded corners*
20,1,$1+$1,$2,$3,$4,$5,0*
20,1,$1+$1,$4,$5,$6,$7,0*
20,1,$1+$1,$6,$7,$8,$9,0*
20,1,$1+$1,$8,$9,$2,$3,0*%
G04 Aperture macros list end*
%TA.AperFunction,ComponentPad*%
%ADD10O,2.400000X9.000000*%
%TD*%
%TA.AperFunction,ComponentPad*%
%ADD11R,1.800000X1.800000*%
%TD*%
%TA.AperFunction,ComponentPad*%
%ADD12C,1.800000*%
%TD*%
%TA.AperFunction,ComponentPad*%
%ADD13RoundRect,0.250000X0.600000X-0.600000X0.600000X0.600000X-0.600000X0.600000X-0.600000X-0.600000X0*%
%TD*%
%TA.AperFunction,ComponentPad*%
%ADD14C,1.700000*%
%TD*%
%TA.AperFunction,ViaPad*%
%ADD15C,0.800000*%
%TD*%
%TA.AperFunction,Conductor*%
%ADD16C,0.400000*%
%TD*%
G04 APERTURE END LIST*
D10*
%TO.P,JP1,1,+L*%
%TO.N,+5V*%
X19300000Y-43000000D03*
%TO.P,JP1,2,-L*%
%TO.N,-12V*%
X24000000Y-43000000D03*
%TO.P,JP1,3,+R*%
%TO.N,+12V*%
X64100000Y-43000000D03*
%TO.P,JP1,4,-R*%
%TO.N,GND*%
X68800000Y-43000000D03*
%TD*%
%TO.P,JP4,1,+L*%
%TO.N,+5V*%
X181300000Y-43000000D03*
%TO.P,JP4,2,-L*%
%TO.N,-12V*%
X186000000Y-43000000D03*
%TO.P,JP4,3,+R*%
%TO.N,+12V*%
X226100000Y-43000000D03*
%TO.P,JP4,4,-R*%
%TO.N,GND*%
X230800000Y-43000000D03*
%TD*%
D11*
%TO.P,D5,1,K*%
%TO.N,GND*%
X64600000Y-17930000D03*
D12*
%TO.P,D5,2,A*%
%TO.N,Net-(D5-A)*%
X64600000Y-20470000D03*
%TD*%
D11*
%TO.P,D6,1,K*%
%TO.N,Net-(D6-K)*%
X58600000Y-17930000D03*
D12*
%TO.P,D6,2,A*%
%TO.N,GND*%
X58600000Y-20470000D03*
%TD*%
D10*
%TO.P,JP2,1,+L*%
%TO.N,+5V*%
X73300000Y-43000000D03*
%TO.P,JP2,2,-L*%
%TO.N,-12V*%
X78000000Y-43000000D03*
%TO.P,JP2,3,+R*%
%TO.N,+12V*%
X118100000Y-43000000D03*
%TO.P,JP2,4,-R*%
%TO.N,GND*%
X122800000Y-43000000D03*
%TD*%
%TO.P,JP3,1,+L*%
%TO.N,+5V*%
X127300000Y-43000000D03*
%TO.P,JP3,2,-L*%
%TO.N,-12V*%
X132000000Y-43000000D03*
%TO.P,JP3,3,+R*%
%TO.N,+12V*%
X172100000Y-43000000D03*
%TO.P,JP3,4,-R*%
%TO.N,GND*%
X176800000Y-43000000D03*
%TD*%
D11*
%TO.P,D4,1,K*%
%TO.N,GND*%
X70600000Y-17930000D03*
D12*
%TO.P,D4,2,A*%
%TO.N,Net-(D4-A)*%
X70600000Y-20470000D03*
%TD*%
D13*
%TO.P,JP5,1,-12V*%
%TO.N,Net-(D3-K)*%
X25220000Y-19500000D03*
D14*
%TO.P,JP5,2*%
X25220000Y-16960000D03*
%TO.P,JP5,3*%
%TO.N,GND*%
X27760000Y-19500000D03*
%TO.P,JP5,4*%
X27760000Y-16960000D03*
%TO.P,JP5,5,Gnd*%
X30300000Y-19500000D03*
%TO.P,JP5,6*%
X30300000Y-16960000D03*
%TO.P,JP5,7*%
X32840000Y-19500000D03*
%TO.P,JP5,8*%
X32840000Y-16960000D03*
%TO.P,JP5,9,+12V*%
%TO.N,Net-(D2-A)*%
X35380000Y-19500000D03*
%TO.P,JP5,10*%
X35380000Y-16960000D03*
%TO.P,JP5,11,+5V*%
%TO.N,Net-(D1-A)*%
X37920000Y-19500000D03*
%TO.P,JP5,12*%
X37920000Y-16960000D03*
%TO.P,JP5,13,CV*%
%TO.N,unconnected-(JP5-CV-Pad13)*%
X40460000Y-19500000D03*
%TO.P,JP5,14*%
%TO.N,unconnected-(JP5-Pad14)*%
X40460000Y-16960000D03*
%TO.P,JP5,15,GATE*%
%TO.N,unconnected-(JP5-GATE-Pad15)*%
X43000000Y-19500000D03*
%TO.P,JP5,16*%
%TO.N,unconnected-(JP5-Pad16)*%
X43000000Y-16960000D03*
%TD*%
D15*
%TO.N,*%
X-3000000Y-69000000D03*
X116000000Y10000000D03*
%TO.N,GND*%
X95000000Y-43000000D03*
X151000000Y-43000000D03*
%TO.N,+5V*%
X63000000Y-35000000D03*
%TO.N,+12V*%
X53000000Y-35000000D03*
X49000000Y-18000000D03*
X47000000Y-26000000D03*
%TO.N,-12V*%
X49000000Y-16000000D03*
X37000000Y-26000000D03*
%TO.N,Net-(D5-A)*%
X54000000Y-18000000D03*
%TD*%
D16*
%TO.N,+5V*%
X73300000Y-43000000D02*
X73300000Y-46300000D01*
X71700000Y-47900000D02*
X22900000Y-47900000D01*
X177462742Y-47900000D02*
X181300000Y-44062742D01*
X123462742Y-47900000D02*
X127300000Y-44062742D01*
X19300000Y-44300000D02*
X19300000Y-43000000D01*
X127300000Y-43000000D02*
X127300000Y-46300000D01*
X73300000Y-46300000D02*
X71700000Y-47900000D01*
X127300000Y-46300000D02*
X128900000Y-47900000D01*
X22900000Y-47900000D02*
X19300000Y-44300000D01*
X127300000Y-44062742D02*
X127300000Y-43000000D01*
X73300000Y-41937258D02*
X73300000Y-43000000D01*
X181300000Y-44062742D02*
X181300000Y-43000000D01*
X73300000Y-46300000D02*
X74900000Y-47900000D01*
X128900000Y-47900000D02*
X177462742Y-47900000D01*
X74900000Y-47900000D02*
X123462742Y-47900000D01*
X63000000Y-35000000D02*
X66362742Y-35000000D01*
X66362742Y-35000000D02*
X73300000Y-41937258D01*
%TO.N,+12V*%
X53000000Y-36000000D02*
X60000000Y-43000000D01*
X47000000Y-20000000D02*
X49000000Y-18000000D01*
X53000000Y-35000000D02*
X53000000Y-36000000D01*
X60000000Y-43000000D02*
X64100000Y-43000000D01*
X47000000Y-26000000D02*
X47000000Y-20000000D01*
%TO.N,-12V*%
X39000000Y-26000000D02*
X49000000Y-16000000D01*
X37000000Y-26000000D02*
X39000000Y-26000000D01*
%TO.N,Net-(D1-A)*%
X37920000Y-16960000D02*
X37920000Y-19500000D01*
%TO.N,Net-(D2-A)*%
X35380000Y-16960000D02*
X35380000Y-19500000D01*
%TO.N,Net-(D3-K)*%
X25220000Y-16960000D02*
X25220000Y-19500000D01*
%TO.N,Net-(D5-A)*%
X64600000Y-20470000D02*
X60130000Y-16000000D01*
X56000000Y-16000000D02*
X54000000Y-18000000D01*
X59000000Y-16000000D02*
X56000000Y-16000000D01*
X60130000Y-16000000D02*
X59000000Y-16000000D01*
%TD*%
%TA.AperFunction,Conductor*%
%TO.N,GND*%
G36*
X70705203Y-40333563D02*
G01*
X70711681Y-40339595D01*
X71563181Y-41191095D01*
X71596666Y-41252418D01*
X71599500Y-41278776D01*
X71599500Y-46411450D01*
X71599501Y-46411466D01*
X71628594Y-46632452D01*
X71628595Y-46632457D01*
X71628596Y-46632463D01*
X71683668Y-46837994D01*
X71682005Y-46907844D01*
X71651574Y-46957768D01*
X71446162Y-47163181D01*
X71384839Y-47196666D01*
X71358481Y-47199500D01*
X70453060Y-47199500D01*
X70386021Y-47179815D01*
X70340266Y-47127011D01*
X70330322Y-47057853D01*
X70338499Y-47028047D01*
X70413236Y-46847618D01*
X70470911Y-46632367D01*
X70470914Y-46632354D01*
X70500000Y-46411424D01*
X70500000Y-43250000D01*
X69800000Y-43250000D01*
X69800000Y-42750000D01*
X70500000Y-42750000D01*
X70500000Y-40427276D01*
X70519685Y-40360237D01*
X70572489Y-40314482D01*
X70641647Y-40304538D01*
X70705203Y-40333563D01*
G37*
%TD.AperFunction*%
%TA.AperFunction,Conductor*%
G36*
X27294075Y-17152993D02*
G01*
X27359901Y-17267007D01*
X27452993Y-17360099D01*
X27567007Y-17425925D01*
X27630590Y-17442962D01*
X26998625Y-18074925D01*
X27075031Y-18128425D01*
X27118655Y-18183002D01*
X27125848Y-18252501D01*
X27094326Y-18314855D01*
X27075029Y-18331576D01*
X26998625Y-18385072D01*
X27630590Y-19017037D01*
X27567007Y-19034075D01*
X27452993Y-19099901D01*
X27359901Y-19192993D01*
X27294075Y-19307007D01*
X27277037Y-19370590D01*
X26640655Y-18734208D01*
X26588806Y-18723788D01*
X26538623Y-18675173D01*
X26528793Y-18653031D01*
X26520697Y-18628599D01*
X26504814Y-18580666D01*
X26412712Y-18431344D01*
X26288656Y-18307288D01*
X26195888Y-18250069D01*
X26139336Y-18215187D01*
X26139330Y-18215184D01*
X26130733Y-18212336D01*
X26073289Y-18172562D01*
X26046468Y-18108046D01*
X26058784Y-18039270D01*
X26087767Y-18002518D01*
X26087573Y-18002324D01*
X26089221Y-18000675D01*
X26090042Y-17999635D01*
X26091394Y-17998499D01*
X26091401Y-17998495D01*
X26258495Y-17831401D01*
X26388732Y-17645403D01*
X26443307Y-17601780D01*
X26512805Y-17594586D01*
X26575160Y-17626109D01*
X26591880Y-17645405D01*
X26645073Y-17721373D01*
X27277037Y-17089409D01*
X27294075Y-17152993D01*
G37*
%TD.AperFunction*%
%TA.AperFunction,Conductor*%
G36*
X29834075Y-17152993D02*
G01*
X29899901Y-17267007D01*
X29992993Y-17360099D01*
X30107007Y-17425925D01*
X30170590Y-17442962D01*
X29538625Y-18074925D01*
X29615031Y-18128425D01*
X29658655Y-18183002D01*
X29665848Y-18252501D01*
X29634326Y-18314855D01*
X29615029Y-18331576D01*
X29538625Y-18385072D01*
X30170590Y-19017037D01*
X30107007Y-19034075D01*
X29992993Y-19099901D01*
X29899901Y-19192993D01*
X29834075Y-19307007D01*
X29817037Y-19370590D01*
X29185072Y-18738625D01*
X29185072Y-18738626D01*
X29131574Y-18815030D01*
X29076998Y-18858655D01*
X29007499Y-18865849D01*
X28945144Y-18834326D01*
X28928424Y-18815030D01*
X28874925Y-18738626D01*
X28874925Y-18738625D01*
X28242962Y-19370589D01*
X28225925Y-19307007D01*
X28160099Y-19192993D01*
X28067007Y-19099901D01*
X27952993Y-19034075D01*
X27889410Y-19017037D01*
X28521373Y-18385073D01*
X28444969Y-18331576D01*
X28401344Y-18276999D01*
X28394150Y-18207501D01*
X28425672Y-18145146D01*
X28444968Y-18128425D01*
X28521373Y-18074925D01*
X27889409Y-17442962D01*
X27952993Y-17425925D01*
X28067007Y-17360099D01*
X28160099Y-17267007D01*
X28225925Y-17152993D01*
X28242962Y-17089410D01*
X28874925Y-17721373D01*
X28928425Y-17644968D01*
X28983002Y-17601344D01*
X29052501Y-17594151D01*
X29114855Y-17625673D01*
X29131576Y-17644969D01*
X29185073Y-17721372D01*
X29817037Y-17089409D01*
X29834075Y-17152993D01*
G37*
%TD.AperFunction*%
%TA.AperFunction,Conductor*%
G36*
X32374075Y-17152993D02*
G01*
X32439901Y-17267007D01*
X32532993Y-17360099D01*
X32647007Y-17425925D01*
X32710590Y-17442962D01*
X32078625Y-18074925D01*
X32155031Y-18128425D01*
X32198655Y-18183002D01*
X32205848Y-18252501D01*
X32174326Y-18314855D01*
X32155029Y-18331576D01*
X32078625Y-18385072D01*
X32710590Y-19017037D01*
X32647007Y-19034075D01*
X32532993Y-19099901D01*
X32439901Y-19192993D01*
X32374075Y-19307007D01*
X32357037Y-19370590D01*
X31725072Y-18738625D01*
X31725072Y-18738626D01*
X31671574Y-18815030D01*
X31616998Y-18858655D01*
X31547499Y-18865849D01*
X31485144Y-18834326D01*
X31468424Y-18815030D01*
X31414925Y-18738626D01*
X31414925Y-18738625D01*
X30782962Y-19370589D01*
X30765925Y-19307007D01*
X30700099Y-19192993D01*
X30607007Y-19099901D01*
X30492993Y-19034075D01*
X30429410Y-19017037D01*
X31061373Y-18385073D01*
X30984969Y-18331576D01*
X30941344Y-18276999D01*
X30934150Y-18207501D01*
X30965672Y-18145146D01*
X30984968Y-18128425D01*
X31061373Y-18074925D01*
X30429409Y-17442962D01*
X30492993Y-17425925D01*
X30607007Y-17360099D01*
X30700099Y-17267007D01*
X30765925Y-17152993D01*
X30782962Y-17089410D01*
X31414925Y-17721373D01*
X31468425Y-17644968D01*
X31523002Y-17601344D01*
X31592501Y-17594151D01*
X31654855Y-17625673D01*
X31671576Y-17644969D01*
X31725073Y-17721372D01*
X32357037Y-17089409D01*
X32374075Y-17152993D01*
G37*
%TD.AperFunction*%
%TA.AperFunction,Conductor*%
G36*
X33954925Y-17721373D02*
G01*
X34008119Y-17645405D01*
X34062696Y-17601781D01*
X34132195Y-17594588D01*
X34194549Y-17626110D01*
X34211269Y-17645405D01*
X34341505Y-17831401D01*
X34341506Y-17831402D01*
X34508597Y-17998494D01*
X34626623Y-18081136D01*
X34670248Y-18135713D01*
X34679500Y-18182711D01*
X34679500Y-18277288D01*
X34659815Y-18344327D01*
X34626624Y-18378863D01*
X34508594Y-18461508D01*
X34341505Y-18628597D01*
X34211269Y-18814595D01*
X34156692Y-18858220D01*
X34087194Y-18865414D01*
X34024839Y-18833891D01*
X34008119Y-18814595D01*
X33954925Y-18738626D01*
X33954925Y-18738625D01*
X33322962Y-19370589D01*
X33305925Y-19307007D01*
X33240099Y-19192993D01*
X33147007Y-19099901D01*
X33032993Y-19034075D01*
X32969410Y-19017037D01*
X33601373Y-18385073D01*
X33524969Y-18331576D01*
X33481344Y-18276999D01*
X33474150Y-18207501D01*
X33505672Y-18145146D01*
X33524968Y-18128425D01*
X33601373Y-18074925D01*
X32969409Y-17442962D01*
X33032993Y-17425925D01*
X33147007Y-17360099D01*
X33240099Y-17267007D01*
X33305925Y-17152993D01*
X33322962Y-17089410D01*
X33954925Y-17721373D01*
G37*
%TD.AperFunction*%
%TA.AperFunction,Conductor*%
G36*
X229000678Y-12000007D02*
G01*
X229243587Y-12002516D01*
X229252511Y-12002932D01*
X229737370Y-12043108D01*
X229747506Y-12044370D01*
X230226772Y-12124347D01*
X230236774Y-12126444D01*
X230707792Y-12245721D01*
X230717597Y-12248641D01*
X231177139Y-12406402D01*
X231186661Y-12410117D01*
X231631623Y-12605295D01*
X231640793Y-12609778D01*
X232068126Y-12841039D01*
X232076902Y-12846268D01*
X232356990Y-13029259D01*
X232483668Y-13112022D01*
X232491997Y-13117969D01*
X232875425Y-13416403D01*
X232883207Y-13422994D01*
X233167332Y-13684550D01*
X233240680Y-13752072D01*
X233247927Y-13759319D01*
X233577003Y-14116790D01*
X233583598Y-14124576D01*
X233882022Y-14507991D01*
X233887977Y-14516331D01*
X234153725Y-14923088D01*
X234158964Y-14931880D01*
X234390216Y-15359196D01*
X234394710Y-15368390D01*
X234589877Y-15813326D01*
X234593602Y-15822873D01*
X234751355Y-16282393D01*
X234754280Y-16292216D01*
X234873552Y-16763211D01*
X234875655Y-16773241D01*
X234955626Y-17252476D01*
X234956893Y-17262646D01*
X234997066Y-17747470D01*
X234997483Y-17756429D01*
X234999993Y-17999322D01*
X235000000Y-18000603D01*
X235000000Y-49376000D01*
X234980315Y-49443039D01*
X234927511Y-49488794D01*
X234876000Y-49500000D01*
X15124000Y-49500000D01*
X15056961Y-49480315D01*
X15011206Y-49427511D01*
X15000000Y-49376000D01*
X15000000Y-46411450D01*
X17599500Y-46411450D01*
X17599501Y-46411466D01*
X17628594Y-46632452D01*
X17628595Y-46632457D01*
X17628596Y-46632463D01*
X17686290Y-46847780D01*
X17686293Y-46847790D01*
X17771593Y-47053721D01*
X17771595Y-47053726D01*
X17883052Y-47246774D01*
X17883057Y-47246780D01*
X17883058Y-47246782D01*
X18018751Y-47423622D01*
X18018757Y-47423629D01*
X18176370Y-47581242D01*
X18176376Y-47581247D01*
X18353226Y-47716948D01*
X18546274Y-47828405D01*
X18752219Y-47913710D01*
X18967537Y-47971404D01*
X19188543Y-48000500D01*
X19188550Y-48000500D01*
X19411450Y-48000500D01*
X19411457Y-48000500D01*
X19632463Y-47971404D01*
X19847781Y-47913710D01*
X20053726Y-47828405D01*
X20246774Y-47716948D01*
X20423624Y-47581247D01*
X20581247Y-47423624D01*
X20716948Y-47246774D01*
X20828405Y-47053726D01*
X20828410Y-47053713D01*
X20829369Y-47051770D01*
X20829813Y-47051287D01*
X20830435Y-47050210D01*
X20830675Y-47050349D01*
X20876670Y-47000347D01*
X20944264Y-46982660D01*
X21010690Y-47004324D01*
X21028267Y-47018924D01*
X22453453Y-48444111D01*
X22453454Y-48444112D01*
X22568192Y-48520777D01*
X22695667Y-48573578D01*
X22695672Y-48573580D01*
X22695676Y-48573580D01*
X22695677Y-48573581D01*
X22831003Y-48600500D01*
X22831006Y-48600500D01*
X71768996Y-48600500D01*
X71860040Y-48582389D01*
X71904328Y-48573580D01*
X71968069Y-48547177D01*
X72031807Y-48520777D01*
X72031808Y-48520776D01*
X72031811Y-48520775D01*
X72146543Y-48444114D01*
X72642233Y-47948422D01*
X72703553Y-47914940D01*
X72762000Y-47916330D01*
X72967537Y-47971404D01*
X73188543Y-48000500D01*
X73188550Y-48000500D01*
X73411450Y-48000500D01*
X73411457Y-48000500D01*
X73632463Y-47971404D01*
X73837995Y-47916332D01*
X73907844Y-47917995D01*
X73957768Y-47948426D01*
X74453454Y-48444112D01*
X74568192Y-48520777D01*
X74695667Y-48573578D01*
X74695672Y-48573580D01*
X74695676Y-48573580D01*
X74695677Y-48573581D01*
X74831003Y-48600500D01*
X74831006Y-48600500D01*
X123531738Y-48600500D01*
X123622782Y-48582389D01*
X123667070Y-48573580D01*
X123730811Y-48547177D01*
X123794549Y-48520777D01*
X123794550Y-48520776D01*
X123794553Y-48520775D01*
X123909285Y-48444114D01*
X125502149Y-46851248D01*
X125563470Y-46817765D01*
X125633161Y-46822749D01*
X125689095Y-46864620D01*
X125704389Y-46891478D01*
X125760958Y-47028047D01*
X125771595Y-47053726D01*
X125883052Y-47246774D01*
X125883057Y-47246780D01*
X125883058Y-47246782D01*
X126018751Y-47423622D01*
X126018757Y-47423629D01*
X126176370Y-47581242D01*
X126176376Y-47581247D01*
X126353226Y-47716948D01*
X126546274Y-47828405D01*
X126752219Y-47913710D01*
X126967537Y-47971404D01*
X127188543Y-48000500D01*
X127188550Y-48000500D01*
X127411450Y-48000500D01*
X127411457Y-48000500D01*
X127632463Y-47971404D01*
X127837995Y-47916332D01*
X127907844Y-47917995D01*
X127957768Y-47948426D01*
X128453454Y-48444112D01*
X128568192Y-48520777D01*
X128695667Y-48573578D01*
X128695672Y-48573580D01*
X128695676Y-48573580D01*
X128695677Y-48573581D01*
X128831003Y-48600500D01*
X128831006Y-48600500D01*
X177531738Y-48600500D01*
X177622782Y-48582389D01*
X177667070Y-48573580D01*
X177730811Y-48547177D01*
X177794549Y-48520777D01*
X177794550Y-48520776D01*
X177794553Y-48520775D01*
X177909285Y-48444114D01*
X179502149Y-46851248D01*
X179563470Y-46817765D01*
X179633161Y-46822749D01*
X179689095Y-46864620D01*
X179704389Y-46891478D01*
X179760958Y-47028047D01*
X179771595Y-47053726D01*
X179883052Y-47246774D01*
X179883057Y-47246780D01*
X179883058Y-47246782D01*
X180018751Y-47423622D01*
X180018757Y-47423629D01*
X180176370Y-47581242D01*
X180176376Y-47581247D01*
X180353226Y-47716948D01*
X180546274Y-47828405D01*
X180752219Y-47913710D01*
X180967537Y-47971404D01*
X181188543Y-48000500D01*
X181188550Y-48000500D01*
X181411450Y-48000500D01*
X181411457Y-48000500D01*
X181632463Y-47971404D01*
X181847781Y-47913710D01*
X182053726Y-47828405D01*
X182246774Y-47716948D01*
X182423624Y-47581247D01*
X182581247Y-47423624D01*
X182716948Y-47246774D01*
X182828405Y-47053726D01*
X182913710Y-46847781D01*
X182971404Y-46632463D01*
X183000500Y-46411457D01*
X183000500Y-46411450D01*
X184299500Y-46411450D01*
X184299501Y-46411466D01*
X184328594Y-46632452D01*
X184328595Y-46632457D01*
X184328596Y-46632463D01*
X184386290Y-46847780D01*
X184386293Y-46847790D01*
X184471593Y-47053721D01*
X184471595Y-47053726D01*
X184583052Y-47246774D01*
X184583057Y-47246780D01*
X184583058Y-47246782D01*
X184718751Y-47423622D01*
X184718757Y-47423629D01*
X184876370Y-47581242D01*
X184876376Y-47581247D01*
X185053226Y-47716948D01*
X185246274Y-47828405D01*
X185452219Y-47913710D01*
X185667537Y-47971404D01*
X185888543Y-48000500D01*
X185888550Y-48000500D01*
X186111450Y-48000500D01*
X186111457Y-48000500D01*
X186332463Y-47971404D01*
X186547781Y-47913710D01*
X186753726Y-47828405D01*
X186946774Y-47716948D01*
X187123624Y-47581247D01*
X187281247Y-47423624D01*
X187416948Y-47246774D01*
X187528405Y-47053726D01*
X187613710Y-46847781D01*
X187671404Y-46632463D01*
X187700500Y-46411457D01*
X187700500Y-46411450D01*
X224399500Y-46411450D01*
X224399501Y-46411466D01*
X224428594Y-46632452D01*
X224428595Y-46632457D01*
X224428596Y-46632463D01*
X224486290Y-46847780D01*
X224486293Y-46847790D01*
X224571593Y-47053721D01*
X224571595Y-47053726D01*
X224683052Y-47246774D01*
X224683057Y-47246780D01*
X224683058Y-47246782D01*
X224818751Y-47423622D01*
X224818757Y-47423629D01*
X224976370Y-47581242D01*
X224976376Y-47581247D01*
X225153226Y-47716948D01*
X225346274Y-47828405D01*
X225552219Y-47913710D01*
X225767537Y-47971404D01*
X225988543Y-48000500D01*
X225988550Y-48000500D01*
X226211450Y-48000500D01*
X226211457Y-48000500D01*
X226432463Y-47971404D01*
X226647781Y-47913710D01*
X226853726Y-47828405D01*
X227046774Y-47716948D01*
X227223624Y-47581247D01*
X227381247Y-47423624D01*
X227516948Y-47246774D01*
X227628405Y-47053726D01*
X227713710Y-46847781D01*
X227771404Y-46632463D01*
X227800500Y-46411457D01*
X227800500Y-46411424D01*
X229100000Y-46411424D01*
X229129085Y-46632354D01*
X229129088Y-46632367D01*
X229186763Y-46847618D01*
X229272045Y-47053502D01*
X229272054Y-47053520D01*
X229383464Y-47246491D01*
X229383466Y-47246495D01*
X229519130Y-47423293D01*
X229519138Y-47423302D01*
X229676698Y-47580862D01*
X229676706Y-47580869D01*
X229853504Y-47716533D01*
X229853508Y-47716535D01*
X230046479Y-47827945D01*
X230046497Y-47827954D01*
X230252379Y-47913235D01*
X230467632Y-47970912D01*
X230549999Y-47981755D01*
X230550000Y-47981755D01*
X230550000Y-45469863D01*
X230701509Y-45500000D01*
X230898491Y-45500000D01*
X231050000Y-45469863D01*
X231050000Y-47981755D01*
X231132367Y-47970912D01*
X231347620Y-47913235D01*
X231553502Y-47827954D01*
X231553520Y-47827945D01*
X231746491Y-47716535D01*
X231746495Y-47716533D01*
X231923293Y-47580869D01*
X231923302Y-47580862D01*
X232080862Y-47423302D01*
X232080869Y-47423293D01*
X232216533Y-47246495D01*
X232216535Y-47246491D01*
X232327945Y-47053520D01*
X232327954Y-47053502D01*
X232413236Y-46847618D01*
X232470911Y-46632367D01*
X232470914Y-46632354D01*
X232500000Y-46411424D01*
X232500000Y-43250000D01*
X231800000Y-43250000D01*
X231800000Y-42750000D01*
X232500000Y-42750000D01*
X232500000Y-39588575D01*
X232470914Y-39367645D01*
X232470911Y-39367632D01*
X232413236Y-39152381D01*
X232327954Y-38946497D01*
X232327945Y-38946479D01*
X232216535Y-38753508D01*
X232216533Y-38753504D01*
X232080869Y-38576706D01*
X232080862Y-38576698D01*
X231923302Y-38419138D01*
X231923293Y-38419130D01*
X231746495Y-38283466D01*
X231746491Y-38283464D01*
X231553520Y-38172054D01*
X231553502Y-38172045D01*
X231347618Y-38086763D01*
X231132363Y-38029087D01*
X231050000Y-38018242D01*
X231050000Y-40530136D01*
X230898491Y-40500000D01*
X230701509Y-40500000D01*
X230550000Y-40530136D01*
X230550000Y-38018242D01*
X230549999Y-38018242D01*
X230467636Y-38029087D01*
X230252381Y-38086763D01*
X230046497Y-38172045D01*
X230046479Y-38172054D01*
X229853508Y-38283464D01*
X229853504Y-38283466D01*
X229676706Y-38419130D01*
X229519130Y-38576706D01*
X229383466Y-38753504D01*
X229383464Y-38753508D01*
X229272054Y-38946479D01*
X229272045Y-38946497D01*
X229186763Y-39152381D01*
X229129088Y-39367632D01*
X229129085Y-39367645D01*
X229100000Y-39588575D01*
X229100000Y-42750000D01*
X229800000Y-42750000D01*
X229800000Y-43250000D01*
X229100000Y-43250000D01*
X229100000Y-46411424D01*
X227800500Y-46411424D01*
X227800500Y-39588543D01*
X227771404Y-39367537D01*
X227713710Y-39152219D01*
X227628405Y-38946274D01*
X227516948Y-38753226D01*
X227381247Y-38576376D01*
X227381242Y-38576370D01*
X227223629Y-38418757D01*
X227223622Y-38418751D01*
X227046782Y-38283058D01*
X227046780Y-38283057D01*
X227046774Y-38283052D01*
X226853726Y-38171595D01*
X226853722Y-38171593D01*
X226647790Y-38086293D01*
X226647783Y-38086291D01*
X226647781Y-38086290D01*
X226432463Y-38028596D01*
X226432457Y-38028595D01*
X226432452Y-38028594D01*
X226211466Y-37999501D01*
X226211463Y-37999500D01*
X226211457Y-37999500D01*
X225988543Y-37999500D01*
X225988537Y-37999500D01*
X225988533Y-37999501D01*
X225767547Y-38028594D01*
X225767540Y-38028595D01*
X225767537Y-38028596D01*
X225765705Y-38029087D01*
X225552219Y-38086290D01*
X225552209Y-38086293D01*
X225346277Y-38171593D01*
X225346273Y-38171595D01*
X225153226Y-38283052D01*
X225153217Y-38283058D01*
X224976377Y-38418751D01*
X224976370Y-38418757D01*
X224818757Y-38576370D01*
X224818751Y-38576377D01*
X224683058Y-38753217D01*
X224683052Y-38753226D01*
X224571595Y-38946273D01*
X224571593Y-38946277D01*
X224486293Y-39152209D01*
X224486290Y-39152219D01*
X224428597Y-39367534D01*
X224428594Y-39367547D01*
X224399501Y-39588533D01*
X224399500Y-39588549D01*
X224399500Y-46411450D01*
X187700500Y-46411450D01*
X187700500Y-39588543D01*
X187671404Y-39367537D01*
X187613710Y-39152219D01*
X187528405Y-38946274D01*
X187416948Y-38753226D01*
X187281247Y-38576376D01*
X187281242Y-38576370D01*
X187123629Y-38418757D01*
X187123622Y-38418751D01*
X186946782Y-38283058D01*
X186946780Y-38283057D01*
X186946774Y-38283052D01*
X186753726Y-38171595D01*
X186753722Y-38171593D01*
X186547790Y-38086293D01*
X186547783Y-38086291D01*
X186547781Y-38086290D01*
X186332463Y-38028596D01*
X186332457Y-38028595D01*
X186332452Y-38028594D01*
X186111466Y-37999501D01*
X186111463Y-37999500D01*
X186111457Y-37999500D01*
X185888543Y-37999500D01*
X185888537Y-37999500D01*
X185888533Y-37999501D01*
X185667547Y-38028594D01*
X185667540Y-38028595D01*
X185667537Y-38028596D01*
X185665705Y-38029087D01*
X185452219Y-38086290D01*
X185452209Y-38086293D01*
X185246277Y-38171593D01*
X185246273Y-38171595D01*
X185053226Y-38283052D01*
X185053217Y-38283058D01*
X184876377Y-38418751D01*
X184876370Y-38418757D01*
X184718757Y-38576370D01*
X184718751Y-38576377D01*
X184583058Y-38753217D01*
X184583052Y-38753226D01*
X184471595Y-38946273D01*
X184471593Y-38946277D01*
X184386293Y-39152209D01*
X184386290Y-39152219D01*
X184328597Y-39367534D01*
X184328594Y-39367547D01*
X184299501Y-39588533D01*
X184299500Y-39588549D01*
X184299500Y-46411450D01*
X183000500Y-46411450D01*
X183000500Y-39588543D01*
X182971404Y-39367537D01*
X182913710Y-39152219D01*
X182828405Y-38946274D01*
X182716948Y-38753226D01*
X182581247Y-38576376D01*
X182581242Y-38576370D01*
X182423629Y-38418757D01*
X182423622Y-38418751D01*
X182246782Y-38283058D01*
X182246780Y-38283057D01*
X182246774Y-38283052D01*
X182053726Y-38171595D01*
X182053722Y-38171593D01*
X181847790Y-38086293D01*
X181847783Y-38086291D01*
X181847781Y-38086290D01*
X181632463Y-38028596D01*
X181632457Y-38028595D01*
X181632452Y-38028594D01*
X181411466Y-37999501D01*
X181411463Y-37999500D01*
X181411457Y-37999500D01*
X181188543Y-37999500D01*
X181188537Y-37999500D01*
X181188533Y-37999501D01*
X180967547Y-38028594D01*
X180967540Y-38028595D01*
X180967537Y-38028596D01*
X180965705Y-38029087D01*
X180752219Y-38086290D01*
X180752209Y-38086293D01*
X180546277Y-38171593D01*
X180546273Y-38171595D01*
X180353226Y-38283052D01*
X180353217Y-38283058D01*
X180176377Y-38418751D01*
X180176370Y-38418757D01*
X180018757Y-38576370D01*
X180018751Y-38576377D01*
X179883058Y-38753217D01*
X179883052Y-38753226D01*
X179771595Y-38946273D01*
X179771593Y-38946277D01*
X179686293Y-39152209D01*
X179686290Y-39152219D01*
X179628597Y-39367534D01*
X179628594Y-39367547D01*
X179599501Y-39588533D01*
X179599500Y-39588549D01*
X179599500Y-44721223D01*
X179579815Y-44788262D01*
X179563181Y-44808904D01*
X178711681Y-45660404D01*
X178650358Y-45693889D01*
X178580666Y-45688905D01*
X178524733Y-45647033D01*
X178500316Y-45581569D01*
X178500000Y-45572723D01*
X178500000Y-43250000D01*
X177800000Y-43250000D01*
X177800000Y-42750000D01*
X178500000Y-42750000D01*
X178500000Y-39588575D01*
X178470914Y-39367645D01*
X178470911Y-39367632D01*
X178413236Y-39152381D01*
X178327954Y-38946497D01*
X178327945Y-38946479D01*
X178216535Y-38753508D01*
X178216533Y-38753504D01*
X178080869Y-38576706D01*
X178080862Y-38576698D01*
X177923302Y-38419138D01*
X177923293Y-38419130D01*
X177746495Y-38283466D01*
X177746491Y-38283464D01*
X177553520Y-38172054D01*
X177553502Y-38172045D01*
X177347618Y-38086763D01*
X177132363Y-38029087D01*
X177050000Y-38018242D01*
X177050000Y-40530136D01*
X176898491Y-40500000D01*
X176701509Y-40500000D01*
X176550000Y-40530136D01*
X176550000Y-38018242D01*
X176549999Y-38018242D01*
X176467636Y-38029087D01*
X176252381Y-38086763D01*
X176046497Y-38172045D01*
X176046479Y-38172054D01*
X175853508Y-38283464D01*
X175853504Y-38283466D01*
X175676706Y-38419130D01*
X175519130Y-38576706D01*
X175383466Y-38753504D01*
X175383464Y-38753508D01*
X175272054Y-38946479D01*
X175272045Y-38946497D01*
X175186763Y-39152381D01*
X175129088Y-39367632D01*
X175129085Y-39367645D01*
X175100000Y-39588575D01*
X175100000Y-42750000D01*
X175800000Y-42750000D01*
X175800000Y-43250000D01*
X175100000Y-43250000D01*
X175100000Y-46411424D01*
X175129085Y-46632354D01*
X175129088Y-46632367D01*
X175186763Y-46847618D01*
X175261501Y-47028047D01*
X175268970Y-47097516D01*
X175237695Y-47159995D01*
X175177607Y-47195648D01*
X175146940Y-47199500D01*
X173753603Y-47199500D01*
X173686564Y-47179815D01*
X173640809Y-47127011D01*
X173630865Y-47057853D01*
X173639042Y-47028047D01*
X173688831Y-46907844D01*
X173713710Y-46847781D01*
X173771404Y-46632463D01*
X173800500Y-46411457D01*
X173800500Y-39588543D01*
X173771404Y-39367537D01*
X173713710Y-39152219D01*
X173628405Y-38946274D01*
X173516948Y-38753226D01*
X173381247Y-38576376D01*
X173381242Y-38576370D01*
X173223629Y-38418757D01*
X173223622Y-38418751D01*
X173046782Y-38283058D01*
X173046780Y-38283057D01*
X173046774Y-38283052D01*
X172853726Y-38171595D01*
X172853722Y-38171593D01*
X172647790Y-38086293D01*
X172647783Y-38086291D01*
X172647781Y-38086290D01*
X172432463Y-38028596D01*
X172432457Y-38028595D01*
X172432452Y-38028594D01*
X172211466Y-37999501D01*
X172211463Y-37999500D01*
X172211457Y-37999500D01*
X171988543Y-37999500D01*
X171988537Y-37999500D01*
X171988533Y-37999501D01*
X171767547Y-38028594D01*
X171767540Y-38028595D01*
X171767537Y-38028596D01*
X171765705Y-38029087D01*
X171552219Y-38086290D01*
X171552209Y-38086293D01*
X171346277Y-38171593D01*
X171346273Y-38171595D01*
X171153226Y-38283052D01*
X171153217Y-38283058D01*
X170976377Y-38418751D01*
X170976370Y-38418757D01*
X170818757Y-38576370D01*
X170818751Y-38576377D01*
X170683058Y-38753217D01*
X170683052Y-38753226D01*
X170571595Y-38946273D01*
X170571593Y-38946277D01*
X170486293Y-39152209D01*
X170486290Y-39152219D01*
X170428597Y-39367534D01*
X170428594Y-39367547D01*
X170399501Y-39588533D01*
X170399500Y-39588549D01*
X170399500Y-46411450D01*
X170399501Y-46411466D01*
X170428594Y-46632452D01*
X170428595Y-46632457D01*
X170428596Y-46632463D01*
X170486290Y-46847780D01*
X170486293Y-46847790D01*
X170560958Y-47028047D01*
X170568427Y-47097517D01*
X170537152Y-47159996D01*
X170477063Y-47195648D01*
X170446397Y-47199500D01*
X133653603Y-47199500D01*
X133586564Y-47179815D01*
X133540809Y-47127011D01*
X133530865Y-47057853D01*
X133539042Y-47028047D01*
X133588831Y-46907844D01*
X133613710Y-46847781D01*
X133671404Y-46632463D01*
X133700500Y-46411457D01*
X133700500Y-39588543D01*
X133671404Y-39367537D01*
X133613710Y-39152219D01*
X133528405Y-38946274D01*
X133416948Y-38753226D01*
X133281247Y-38576376D01*
X133281242Y-38576370D01*
X133123629Y-38418757D01*
X133123622Y-38418751D01*
X132946782Y-38283058D01*
X132946780Y-38283057D01*
X132946774Y-38283052D01*
X132753726Y-38171595D01*
X132753722Y-38171593D01*
X132547790Y-38086293D01*
X132547783Y-38086291D01*
X132547781Y-38086290D01*
X132332463Y-38028596D01*
X132332457Y-38028595D01*
X132332452Y-38028594D01*
X132111466Y-37999501D01*
X132111463Y-37999500D01*
X132111457Y-37999500D01*
X131888543Y-37999500D01*
X131888537Y-37999500D01*
X131888533Y-37999501D01*
X131667547Y-38028594D01*
X131667540Y-38028595D01*
X131667537Y-38028596D01*
X131665705Y-38029087D01*
X131452219Y-38086290D01*
X131452209Y-38086293D01*
X131246277Y-38171593D01*
X131246273Y-38171595D01*
X131053226Y-38283052D01*
X131053217Y-38283058D01*
X130876377Y-38418751D01*
X130876370Y-38418757D01*
X130718757Y-38576370D01*
X130718751Y-38576377D01*
X130583058Y-38753217D01*
X130583052Y-38753226D01*
X130471595Y-38946273D01*
X130471593Y-38946277D01*
X130386293Y-39152209D01*
X130386290Y-39152219D01*
X130328597Y-39367534D01*
X130328594Y-39367547D01*
X130299501Y-39588533D01*
X130299500Y-39588549D01*
X130299500Y-46411450D01*
X130299501Y-46411466D01*
X130328594Y-46632452D01*
X130328595Y-46632457D01*
X130328596Y-46632463D01*
X130386290Y-46847780D01*
X130386293Y-46847790D01*
X130460958Y-47028047D01*
X130468427Y-47097517D01*
X130437152Y-47159996D01*
X130377063Y-47195648D01*
X130346397Y-47199500D01*
X129241519Y-47199500D01*
X129174480Y-47179815D01*
X129153838Y-47163181D01*
X128948425Y-46957768D01*
X128914940Y-46896445D01*
X128916330Y-46837999D01*
X128971404Y-46632463D01*
X129000500Y-46411457D01*
X129000500Y-39588543D01*
X128971404Y-39367537D01*
X128913710Y-39152219D01*
X128828405Y-38946274D01*
X128716948Y-38753226D01*
X128581247Y-38576376D01*
X128581242Y-38576370D01*
X128423629Y-38418757D01*
X128423622Y-38418751D01*
X128246782Y-38283058D01*
X128246780Y-38283057D01*
X128246774Y-38283052D01*
X128053726Y-38171595D01*
X128053722Y-38171593D01*
X127847790Y-38086293D01*
X127847783Y-38086291D01*
X127847781Y-38086290D01*
X127632463Y-38028596D01*
X127632457Y-38028595D01*
X127632452Y-38028594D01*
X127411466Y-37999501D01*
X127411463Y-37999500D01*
X127411457Y-37999500D01*
X127188543Y-37999500D01*
X127188537Y-37999500D01*
X127188533Y-37999501D01*
X126967547Y-38028594D01*
X126967540Y-38028595D01*
X126967537Y-38028596D01*
X126965705Y-38029087D01*
X126752219Y-38086290D01*
X126752209Y-38086293D01*
X126546277Y-38171593D01*
X126546273Y-38171595D01*
X126353226Y-38283052D01*
X126353217Y-38283058D01*
X126176377Y-38418751D01*
X126176370Y-38418757D01*
X126018757Y-38576370D01*
X126018751Y-38576377D01*
X125883058Y-38753217D01*
X125883052Y-38753226D01*
X125771595Y-38946273D01*
X125771593Y-38946277D01*
X125686293Y-39152209D01*
X125686290Y-39152219D01*
X125628597Y-39367534D01*
X125628594Y-39367547D01*
X125599501Y-39588533D01*
X125599500Y-39588549D01*
X125599500Y-44721223D01*
X125579815Y-44788262D01*
X125563181Y-44808904D01*
X124711681Y-45660404D01*
X124650358Y-45693889D01*
X124580666Y-45688905D01*
X124524733Y-45647033D01*
X124500316Y-45581569D01*
X124500000Y-45572723D01*
X124500000Y-43250000D01*
X123800000Y-43250000D01*
X123800000Y-42750000D01*
X124500000Y-42750000D01*
X124500000Y-39588575D01*
X124470914Y-39367645D01*
X124470911Y-39367632D01*
X124413236Y-39152381D01*
X124327954Y-38946497D01*
X124327945Y-38946479D01*
X124216535Y-38753508D01*
X124216533Y-38753504D01*
X124080869Y-38576706D01*
X124080862Y-38576698D01*
X123923302Y-38419138D01*
X123923293Y-38419130D01*
X123746495Y-38283466D01*
X123746491Y-38283464D01*
X123553520Y-38172054D01*
X123553502Y-38172045D01*
X123347618Y-38086763D01*
X123132363Y-38029087D01*
X123050000Y-38018242D01*
X123050000Y-40530136D01*
X122898491Y-40500000D01*
X122701509Y-40500000D01*
X122550000Y-40530136D01*
X122550000Y-38018242D01*
X122549999Y-38018242D01*
X122467636Y-38029087D01*
X122252381Y-38086763D01*
X122046497Y-38172045D01*
X122046479Y-38172054D01*
X121853508Y-38283464D01*
X121853504Y-38283466D01*
X121676706Y-38419130D01*
X121519130Y-38576706D01*
X121383466Y-38753504D01*
X121383464Y-38753508D01*
X121272054Y-38946479D01*
X121272045Y-38946497D01*
X121186763Y-39152381D01*
X121129088Y-39367632D01*
X121129085Y-39367645D01*
X121100000Y-39588575D01*
X121100000Y-42750000D01*
X121800000Y-42750000D01*
X121800000Y-43250000D01*
X121100000Y-43250000D01*
X121100000Y-46411424D01*
X121129085Y-46632354D01*
X121129088Y-46632367D01*
X121186763Y-46847618D01*
X121261501Y-47028047D01*
X121268970Y-47097516D01*
X121237695Y-47159995D01*
X121177607Y-47195648D01*
X121146940Y-47199500D01*
X119753603Y-47199500D01*
X119686564Y-47179815D01*
X119640809Y-47127011D01*
X119630865Y-47057853D01*
X119639042Y-47028047D01*
X119688831Y-46907844D01*
X119713710Y-46847781D01*
X119771404Y-46632463D01*
X119800500Y-46411457D01*
X119800500Y-39588543D01*
X119771404Y-39367537D01*
X119713710Y-39152219D01*
X119628405Y-38946274D01*
X119516948Y-38753226D01*
X119381247Y-38576376D01*
X119381242Y-38576370D01*
X119223629Y-38418757D01*
X119223622Y-38418751D01*
X119046782Y-38283058D01*
X119046780Y-38283057D01*
X119046774Y-38283052D01*
X118853726Y-38171595D01*
X118853722Y-38171593D01*
X118647790Y-38086293D01*
X118647783Y-38086291D01*
X118647781Y-38086290D01*
X118432463Y-38028596D01*
X118432457Y-38028595D01*
X118432452Y-38028594D01*
X118211466Y-37999501D01*
X118211463Y-37999500D01*
X118211457Y-37999500D01*
X117988543Y-37999500D01*
X117988537Y-37999500D01*
X117988533Y-37999501D01*
X117767547Y-38028594D01*
X117767540Y-38028595D01*
X117767537Y-38028596D01*
X117765705Y-38029087D01*
X117552219Y-38086290D01*
X117552209Y-38086293D01*
X117346277Y-38171593D01*
X117346273Y-38171595D01*
X117153226Y-38283052D01*
X117153217Y-38283058D01*
X116976377Y-38418751D01*
X116976370Y-38418757D01*
X116818757Y-38576370D01*
X116818751Y-38576377D01*
X116683058Y-38753217D01*
X116683052Y-38753226D01*
X116571595Y-38946273D01*
X116571593Y-38946277D01*
X116486293Y-39152209D01*
X116486290Y-39152219D01*
X116428597Y-39367534D01*
X116428594Y-39367547D01*
X116399501Y-39588533D01*
X116399500Y-39588549D01*
X116399500Y-46411450D01*
X116399501Y-46411466D01*
X116428594Y-46632452D01*
X116428595Y-46632457D01*
X116428596Y-46632463D01*
X116486290Y-46847780D01*
X116486293Y-46847790D01*
X116560958Y-47028047D01*
X116568427Y-47097517D01*
X116537152Y-47159996D01*
X116477063Y-47195648D01*
X116446397Y-47199500D01*
X79653603Y-47199500D01*
X79586564Y-47179815D01*
X79540809Y-47127011D01*
X79530865Y-47057853D01*
X79539042Y-47028047D01*
X79588831Y-46907844D01*
X79613710Y-46847781D01*
X79671404Y-46632463D01*
X79700500Y-46411457D01*
X79700500Y-39588543D01*
X79671404Y-39367537D01*
X79613710Y-39152219D01*
X79528405Y-38946274D01*
X79416948Y-38753226D01*
X79281247Y-38576376D01*
X79281242Y-38576370D01*
X79123629Y-38418757D01*
X79123622Y-38418751D01*
X78946782Y-38283058D01*
X78946780Y-38283057D01*
X78946774Y-38283052D01*
X78753726Y-38171595D01*
X78753722Y-38171593D01*
X78547790Y-38086293D01*
X78547783Y-38086291D01*
X78547781Y-38086290D01*
X78332463Y-38028596D01*
X78332457Y-38028595D01*
X78332452Y-38028594D01*
X78111466Y-37999501D01*
X78111463Y-37999500D01*
X78111457Y-37999500D01*
X77888543Y-37999500D01*
X77888537Y-37999500D01*
X77888533Y-37999501D01*
X77667547Y-38028594D01*
X77667540Y-38028595D01*
X77667537Y-38028596D01*
X77665705Y-38029087D01*
X77452219Y-38086290D01*
X77452209Y-38086293D01*
X77246277Y-38171593D01*
X77246273Y-38171595D01*
X77053226Y-38283052D01*
X77053217Y-38283058D01*
X76876377Y-38418751D01*
X76876370Y-38418757D01*
X76718757Y-38576370D01*
X76718751Y-38576377D01*
X76583058Y-38753217D01*
X76583052Y-38753226D01*
X76471595Y-38946273D01*
X76471593Y-38946277D01*
X76386293Y-39152209D01*
X76386290Y-39152219D01*
X76328597Y-39367534D01*
X76328594Y-39367547D01*
X76299501Y-39588533D01*
X76299500Y-39588549D01*
X76299500Y-46411450D01*
X76299501Y-46411466D01*
X76328594Y-46632452D01*
X76328595Y-46632457D01*
X76328596Y-46632463D01*
X76386290Y-46847780D01*
X76386293Y-46847790D01*
X76460958Y-47028047D01*
X76468427Y-47097517D01*
X76437152Y-47159996D01*
X76377063Y-47195648D01*
X76346397Y-47199500D01*
X75241519Y-47199500D01*
X75174480Y-47179815D01*
X75153838Y-47163181D01*
X74948425Y-46957768D01*
X74914940Y-46896445D01*
X74916330Y-46837999D01*
X74971404Y-46632463D01*
X75000500Y-46411457D01*
X75000500Y-39588543D01*
X74971404Y-39367537D01*
X74913710Y-39152219D01*
X74828405Y-38946274D01*
X74716948Y-38753226D01*
X74581247Y-38576376D01*
X74581242Y-38576370D01*
X74423629Y-38418757D01*
X74423622Y-38418751D01*
X74246782Y-38283058D01*
X74246780Y-38283057D01*
X74246774Y-38283052D01*
X74053726Y-38171595D01*
X74053722Y-38171593D01*
X73847790Y-38086293D01*
X73847783Y-38086291D01*
X73847781Y-38086290D01*
X73632463Y-38028596D01*
X73632457Y-38028595D01*
X73632452Y-38028594D01*
X73411466Y-37999501D01*
X73411463Y-37999500D01*
X73411457Y-37999500D01*
X73188543Y-37999500D01*
X73188537Y-37999500D01*
X73188533Y-37999501D01*
X72967547Y-38028594D01*
X72967540Y-38028595D01*
X72967537Y-38028596D01*
X72965705Y-38029087D01*
X72752219Y-38086290D01*
X72752209Y-38086293D01*
X72546277Y-38171593D01*
X72546273Y-38171595D01*
X72353226Y-38283052D01*
X72353217Y-38283058D01*
X72176377Y-38418751D01*
X72176370Y-38418757D01*
X72018757Y-38576370D01*
X72018751Y-38576377D01*
X71883058Y-38753217D01*
X71883052Y-38753226D01*
X71771595Y-38946273D01*
X71771592Y-38946278D01*
X71704389Y-39108521D01*
X71660548Y-39162924D01*
X71594253Y-39184989D01*
X71526554Y-39167710D01*
X71502147Y-39148749D01*
X66853405Y-34500005D01*
X96822498Y-34500005D01*
X96842420Y-34708639D01*
X96842423Y-34708656D01*
X96901470Y-34909755D01*
X96997518Y-35096062D01*
X97127079Y-35260810D01*
X97127083Y-35260814D01*
X97285481Y-35398068D01*
X97285492Y-35398076D01*
X97467002Y-35502870D01*
X97467004Y-35502871D01*
X97665075Y-35571424D01*
X97872541Y-35601253D01*
X98081902Y-35591280D01*
X98285593Y-35541865D01*
X98476251Y-35454795D01*
X98646985Y-35333215D01*
X98791625Y-35181522D01*
X98904943Y-35005196D01*
X98982843Y-34810611D01*
X99022510Y-34604799D01*
X99025000Y-34500005D01*
X150822498Y-34500005D01*
X150842420Y-34708639D01*
X150842423Y-34708656D01*
X150901470Y-34909755D01*
X150997518Y-35096062D01*
X151127079Y-35260810D01*
X151127083Y-35260814D01*
X151285481Y-35398068D01*
X151285492Y-35398076D01*
X151467002Y-35502870D01*
X151467004Y-35502871D01*
X151665075Y-35571424D01*
X151872541Y-35601253D01*
X152081902Y-35591280D01*
X152285593Y-35541865D01*
X152476251Y-35454795D01*
X152646985Y-35333215D01*
X152791625Y-35181522D01*
X152904943Y-35005196D01*
X152982843Y-34810611D01*
X153022510Y-34604799D01*
X153025000Y-34500005D01*
X204822498Y-34500005D01*
X204842420Y-34708639D01*
X204842423Y-34708656D01*
X204901470Y-34909755D01*
X204997518Y-35096062D01*
X205127079Y-35260810D01*
X205127083Y-35260814D01*
X205285481Y-35398068D01*
X205285492Y-35398076D01*
X205467002Y-35502870D01*
X205467004Y-35502871D01*
X205665075Y-35571424D01*
X205872541Y-35601253D01*
X206081902Y-35591280D01*
X206285593Y-35541865D01*
X206476251Y-35454795D01*
X206646985Y-35333215D01*
X206791625Y-35181522D01*
X206904943Y-35005196D01*
X206982843Y-34810611D01*
X207022510Y-34604799D01*
X207025000Y-34500000D01*
X207022510Y-34395201D01*
X206982843Y-34189389D01*
X206904943Y-33994804D01*
X206791625Y-33818478D01*
X206716019Y-33739185D01*
X206646987Y-33666786D01*
X206646984Y-33666784D01*
X206476253Y-33545206D01*
X206468935Y-33541864D01*
X206285593Y-33458135D01*
X206081902Y-33408720D01*
X205892489Y-33399697D01*
X205872543Y-33398747D01*
X205872542Y-33398747D01*
X205872541Y-33398747D01*
X205665075Y-33428576D01*
X205665074Y-33428576D01*
X205665069Y-33428577D01*
X205467002Y-33497129D01*
X205285492Y-33601923D01*
X205285481Y-33601931D01*
X205127083Y-33739185D01*
X205127079Y-33739189D01*
X204997518Y-33903937D01*
X204901470Y-34090244D01*
X204842423Y-34291343D01*
X204842420Y-34291360D01*
X204822498Y-34499994D01*
X204822498Y-34500005D01*
X153025000Y-34500005D01*
X153025000Y-34500000D01*
X153022510Y-34395201D01*
X152982843Y-34189389D01*
X152904943Y-33994804D01*
X152791625Y-33818478D01*
X152716019Y-33739185D01*
X152646987Y-33666786D01*
X152646984Y-33666784D01*
X152476253Y-33545206D01*
X152468935Y-33541864D01*
X152285593Y-33458135D01*
X152081902Y-33408720D01*
X151892489Y-33399697D01*
X151872543Y-33398747D01*
X151872542Y-33398747D01*
X151872541Y-33398747D01*
X151665075Y-33428576D01*
X151665074Y-33428576D01*
X151665069Y-33428577D01*
X151467002Y-33497129D01*
X151285492Y-33601923D01*
X151285481Y-33601931D01*
X151127083Y-33739185D01*
X151127079Y-33739189D01*
X150997518Y-33903937D01*
X150901470Y-34090244D01*
X150842423Y-34291343D01*
X150842420Y-34291360D01*
X150822498Y-34499994D01*
X150822498Y-34500005D01*
X99025000Y-34500005D01*
X99025000Y-34500000D01*
X99022510Y-34395201D01*
X98982843Y-34189389D01*
X98904943Y-33994804D01*
X98791625Y-33818478D01*
X98716019Y-33739185D01*
X98646987Y-33666786D01*
X98646984Y-33666784D01*
X98476253Y-33545206D01*
X98468935Y-33541864D01*
X98285593Y-33458135D01*
X98081902Y-33408720D01*
X97892489Y-33399697D01*
X97872543Y-33398747D01*
X97872542Y-33398747D01*
X97872541Y-33398747D01*
X97665075Y-33428576D01*
X97665074Y-33428576D01*
X97665069Y-33428577D01*
X97467002Y-33497129D01*
X97285492Y-33601923D01*
X97285481Y-33601931D01*
X97127083Y-33739185D01*
X97127079Y-33739189D01*
X96997518Y-33903937D01*
X96901470Y-34090244D01*
X96842423Y-34291343D01*
X96842420Y-34291360D01*
X96822498Y-34499994D01*
X96822498Y-34500005D01*
X66853405Y-34500005D01*
X66809288Y-34455888D01*
X66809287Y-34455887D01*
X66694549Y-34379222D01*
X66567074Y-34326421D01*
X66567064Y-34326418D01*
X66431738Y-34299500D01*
X66431736Y-34299500D01*
X66431735Y-34299500D01*
X63608156Y-34299500D01*
X63541117Y-34279815D01*
X63535271Y-34275818D01*
X63452734Y-34215851D01*
X63452729Y-34215848D01*
X63279807Y-34138857D01*
X63279802Y-34138855D01*
X63134001Y-34107865D01*
X63094646Y-34099500D01*
X62905354Y-34099500D01*
X62872897Y-34106398D01*
X62720197Y-34138855D01*
X62720192Y-34138857D01*
X62547270Y-34215848D01*
X62547265Y-34215851D01*
X62394129Y-34327111D01*
X62267466Y-34467785D01*
X62172821Y-34631715D01*
X62172818Y-34631722D01*
X62114694Y-34810611D01*
X62114326Y-34811744D01*
X62094540Y-35000000D01*
X62114326Y-35188256D01*
X62114327Y-35188259D01*
X62172818Y-35368277D01*
X62172821Y-35368284D01*
X62267467Y-35532216D01*
X62381157Y-35658481D01*
X62394129Y-35672888D01*
X62547265Y-35784148D01*
X62547270Y-35784151D01*
X62720192Y-35861142D01*
X62720197Y-35861144D01*
X62905354Y-35900500D01*
X62905355Y-35900500D01*
X63094644Y-35900500D01*
X63094646Y-35900500D01*
X63279803Y-35861144D01*
X63452730Y-35784151D01*
X63468320Y-35772823D01*
X63535271Y-35724182D01*
X63601077Y-35700702D01*
X63608156Y-35700500D01*
X66021223Y-35700500D01*
X66088262Y-35720185D01*
X66108904Y-35736819D01*
X68267151Y-37895066D01*
X68300636Y-37956389D01*
X68295652Y-38026081D01*
X68253780Y-38082014D01*
X68226924Y-38097308D01*
X68046492Y-38172047D01*
X68046479Y-38172054D01*
X67853508Y-38283464D01*
X67853504Y-38283466D01*
X67676706Y-38419130D01*
X67519130Y-38576706D01*
X67383466Y-38753504D01*
X67383464Y-38753508D01*
X67272054Y-38946479D01*
X67272045Y-38946497D01*
X67186763Y-39152381D01*
X67129088Y-39367632D01*
X67129085Y-39367645D01*
X67100000Y-39588575D01*
X67100000Y-42750000D01*
X67800000Y-42750000D01*
X67800000Y-43250000D01*
X67100000Y-43250000D01*
X67100000Y-46411424D01*
X67129085Y-46632354D01*
X67129088Y-46632367D01*
X67186763Y-46847618D01*
X67261501Y-47028047D01*
X67268970Y-47097516D01*
X67237695Y-47159995D01*
X67177607Y-47195648D01*
X67146940Y-47199500D01*
X65753603Y-47199500D01*
X65686564Y-47179815D01*
X65640809Y-47127011D01*
X65630865Y-47057853D01*
X65639042Y-47028047D01*
X65688831Y-46907844D01*
X65713710Y-46847781D01*
X65771404Y-46632463D01*
X65800500Y-46411457D01*
X65800500Y-39588543D01*
X65771404Y-39367537D01*
X65713710Y-39152219D01*
X65628405Y-38946274D01*
X65516948Y-38753226D01*
X65381247Y-38576376D01*
X65381242Y-38576370D01*
X65223629Y-38418757D01*
X65223622Y-38418751D01*
X65046782Y-38283058D01*
X65046780Y-38283057D01*
X65046774Y-38283052D01*
X64853726Y-38171595D01*
X64853722Y-38171593D01*
X64647790Y-38086293D01*
X64647783Y-38086291D01*
X64647781Y-38086290D01*
X64432463Y-38028596D01*
X64432457Y-38028595D01*
X64432452Y-38028594D01*
X64211466Y-37999501D01*
X64211463Y-37999500D01*
X64211457Y-37999500D01*
X63988543Y-37999500D01*
X63988537Y-37999500D01*
X63988533Y-37999501D01*
X63767547Y-38028594D01*
X63767540Y-38028595D01*
X63767537Y-38028596D01*
X63765705Y-38029087D01*
X63552219Y-38086290D01*
X63552209Y-38086293D01*
X63346277Y-38171593D01*
X63346273Y-38171595D01*
X63153226Y-38283052D01*
X63153217Y-38283058D01*
X62976377Y-38418751D01*
X62976370Y-38418757D01*
X62818757Y-38576370D01*
X62818751Y-38576377D01*
X62683058Y-38753217D01*
X62683052Y-38753226D01*
X62571595Y-38946273D01*
X62571593Y-38946277D01*
X62486293Y-39152209D01*
X62486290Y-39152219D01*
X62428597Y-39367534D01*
X62428594Y-39367547D01*
X62399501Y-39588533D01*
X62399500Y-39588549D01*
X62399500Y-42175500D01*
X62379815Y-42242539D01*
X62327011Y-42288294D01*
X62275500Y-42299500D01*
X60341519Y-42299500D01*
X60274480Y-42279815D01*
X60253838Y-42263181D01*
X53736819Y-35746162D01*
X53703334Y-35684839D01*
X53700500Y-35658481D01*
X53700500Y-35615391D01*
X53720185Y-35548352D01*
X53732352Y-35532417D01*
X53732533Y-35532216D01*
X53827179Y-35368284D01*
X53885674Y-35188256D01*
X53905460Y-35000000D01*
X53885674Y-34811744D01*
X53827179Y-34631716D01*
X53732533Y-34467784D01*
X53605871Y-34327112D01*
X53604916Y-34326418D01*
X53452734Y-34215851D01*
X53452729Y-34215848D01*
X53279807Y-34138857D01*
X53279802Y-34138855D01*
X53134001Y-34107865D01*
X53094646Y-34099500D01*
X52905354Y-34099500D01*
X52872897Y-34106398D01*
X52720197Y-34138855D01*
X52720192Y-34138857D01*
X52547270Y-34215848D01*
X52547265Y-34215851D01*
X52394129Y-34327111D01*
X52267466Y-34467785D01*
X52172821Y-34631715D01*
X52172818Y-34631722D01*
X52114694Y-34810611D01*
X52114326Y-34811744D01*
X52094540Y-35000000D01*
X52114326Y-35188256D01*
X52114327Y-35188259D01*
X52172818Y-35368277D01*
X52172821Y-35368284D01*
X52267466Y-35532215D01*
X52267648Y-35532417D01*
X52267716Y-35532559D01*
X52271285Y-35537471D01*
X52270386Y-35538123D01*
X52297879Y-35595408D01*
X52299500Y-35615391D01*
X52299500Y-35931006D01*
X52299500Y-36068994D01*
X52299500Y-36068996D01*
X52299499Y-36068996D01*
X52326418Y-36204322D01*
X52326421Y-36204332D01*
X52379222Y-36331807D01*
X52455887Y-36446545D01*
X59553454Y-43544112D01*
X59668192Y-43620777D01*
X59795667Y-43673578D01*
X59795672Y-43673580D01*
X59795676Y-43673580D01*
X59795677Y-43673581D01*
X59931003Y-43700500D01*
X59931006Y-43700500D01*
X59931007Y-43700500D01*
X62275500Y-43700500D01*
X62342539Y-43720185D01*
X62388294Y-43772989D01*
X62399500Y-43824500D01*
X62399500Y-46411450D01*
X62399501Y-46411466D01*
X62428594Y-46632452D01*
X62428595Y-46632457D01*
X62428596Y-46632463D01*
X62486290Y-46847780D01*
X62486293Y-46847790D01*
X62560958Y-47028047D01*
X62568427Y-47097517D01*
X62537152Y-47159996D01*
X62477063Y-47195648D01*
X62446397Y-47199500D01*
X25653603Y-47199500D01*
X25586564Y-47179815D01*
X25540809Y-47127011D01*
X25530865Y-47057853D01*
X25539042Y-47028047D01*
X25588831Y-46907844D01*
X25613710Y-46847781D01*
X25671404Y-46632463D01*
X25700500Y-46411457D01*
X25700500Y-39588543D01*
X25671404Y-39367537D01*
X25613710Y-39152219D01*
X25528405Y-38946274D01*
X25416948Y-38753226D01*
X25281247Y-38576376D01*
X25281242Y-38576370D01*
X25123629Y-38418757D01*
X25123622Y-38418751D01*
X24946782Y-38283058D01*
X24946780Y-38283057D01*
X24946774Y-38283052D01*
X24753726Y-38171595D01*
X24753722Y-38171593D01*
X24547790Y-38086293D01*
X24547783Y-38086291D01*
X24547781Y-38086290D01*
X24332463Y-38028596D01*
X24332457Y-38028595D01*
X24332452Y-38028594D01*
X24111466Y-37999501D01*
X24111463Y-37999500D01*
X24111457Y-37999500D01*
X23888543Y-37999500D01*
X23888537Y-37999500D01*
X23888533Y-37999501D01*
X23667547Y-38028594D01*
X23667540Y-38028595D01*
X23667537Y-38028596D01*
X23665705Y-38029087D01*
X23452219Y-38086290D01*
X23452209Y-38086293D01*
X23246277Y-38171593D01*
X23246273Y-38171595D01*
X23053226Y-38283052D01*
X23053217Y-38283058D01*
X22876377Y-38418751D01*
X22876370Y-38418757D01*
X22718757Y-38576370D01*
X22718751Y-38576377D01*
X22583058Y-38753217D01*
X22583052Y-38753226D01*
X22471595Y-38946273D01*
X22471593Y-38946277D01*
X22386293Y-39152209D01*
X22386290Y-39152219D01*
X22328597Y-39367534D01*
X22328594Y-39367547D01*
X22299501Y-39588533D01*
X22299500Y-39588549D01*
X22299500Y-46009481D01*
X22279815Y-46076520D01*
X22227011Y-46122275D01*
X22157853Y-46132219D01*
X22094297Y-46103194D01*
X22087819Y-46097162D01*
X21036819Y-45046162D01*
X21003334Y-44984839D01*
X21000500Y-44958481D01*
X21000500Y-39588549D01*
X21000500Y-39588543D01*
X20971404Y-39367537D01*
X20913710Y-39152219D01*
X20828405Y-38946274D01*
X20716948Y-38753226D01*
X20581247Y-38576376D01*
X20581242Y-38576370D01*
X20423629Y-38418757D01*
X20423622Y-38418751D01*
X20246782Y-38283058D01*
X20246780Y-38283057D01*
X20246774Y-38283052D01*
X20053726Y-38171595D01*
X20053722Y-38171593D01*
X19847790Y-38086293D01*
X19847783Y-38086291D01*
X19847781Y-38086290D01*
X19632463Y-38028596D01*
X19632457Y-38028595D01*
X19632452Y-38028594D01*
X19411466Y-37999501D01*
X19411463Y-37999500D01*
X19411457Y-37999500D01*
X19188543Y-37999500D01*
X19188537Y-37999500D01*
X19188533Y-37999501D01*
X18967547Y-38028594D01*
X18967540Y-38028595D01*
X18967537Y-38028596D01*
X18965705Y-38029087D01*
X18752219Y-38086290D01*
X18752209Y-38086293D01*
X18546277Y-38171593D01*
X18546273Y-38171595D01*
X18353226Y-38283052D01*
X18353217Y-38283058D01*
X18176377Y-38418751D01*
X18176370Y-38418757D01*
X18018757Y-38576370D01*
X18018751Y-38576377D01*
X17883058Y-38753217D01*
X17883052Y-38753226D01*
X17771595Y-38946273D01*
X17771593Y-38946277D01*
X17686293Y-39152209D01*
X17686290Y-39152219D01*
X17628597Y-39367534D01*
X17628594Y-39367547D01*
X17599501Y-39588533D01*
X17599500Y-39588549D01*
X17599500Y-46411450D01*
X15000000Y-46411450D01*
X15000000Y-34500005D01*
X42822498Y-34500005D01*
X42842420Y-34708639D01*
X42842423Y-34708656D01*
X42901470Y-34909755D01*
X42997518Y-35096062D01*
X43127079Y-35260810D01*
X43127083Y-35260814D01*
X43285481Y-35398068D01*
X43285492Y-35398076D01*
X43467002Y-35502870D01*
X43467004Y-35502871D01*
X43665075Y-35571424D01*
X43872541Y-35601253D01*
X44081902Y-35591280D01*
X44285593Y-35541865D01*
X44476251Y-35454795D01*
X44646985Y-35333215D01*
X44791625Y-35181522D01*
X44904943Y-35005196D01*
X44982843Y-34810611D01*
X45022510Y-34604799D01*
X45025000Y-34500000D01*
X45022510Y-34395201D01*
X44982843Y-34189389D01*
X44904943Y-33994804D01*
X44791625Y-33818478D01*
X44716019Y-33739185D01*
X44646987Y-33666786D01*
X44646984Y-33666784D01*
X44476253Y-33545206D01*
X44468935Y-33541864D01*
X44285593Y-33458135D01*
X44081902Y-33408720D01*
X43892489Y-33399697D01*
X43872543Y-33398747D01*
X43872542Y-33398747D01*
X43872541Y-33398747D01*
X43665075Y-33428576D01*
X43665074Y-33428576D01*
X43665069Y-33428577D01*
X43467002Y-33497129D01*
X43285492Y-33601923D01*
X43285481Y-33601931D01*
X43127083Y-33739185D01*
X43127079Y-33739189D01*
X42997518Y-33903937D01*
X42901470Y-34090244D01*
X42842423Y-34291343D01*
X42842420Y-34291360D01*
X42822498Y-34499994D01*
X42822498Y-34500005D01*
X15000000Y-34500005D01*
X15000000Y-32500005D01*
X20247498Y-32500005D01*
X20267420Y-32708639D01*
X20267423Y-32708656D01*
X20326470Y-32909755D01*
X20422518Y-33096062D01*
X20552079Y-33260810D01*
X20552083Y-33260814D01*
X20710481Y-33398068D01*
X20710492Y-33398076D01*
X20892002Y-33502870D01*
X20892004Y-33502871D01*
X21090075Y-33571424D01*
X21297541Y-33601253D01*
X21506902Y-33591280D01*
X21710593Y-33541865D01*
X21901251Y-33454795D01*
X22071985Y-33333215D01*
X22216625Y-33181522D01*
X22329943Y-33005196D01*
X22407843Y-32810611D01*
X22447510Y-32604799D01*
X22450000Y-32500005D01*
X65397498Y-32500005D01*
X65417420Y-32708639D01*
X65417423Y-32708656D01*
X65476470Y-32909755D01*
X65572518Y-33096062D01*
X65702079Y-33260810D01*
X65702083Y-33260814D01*
X65860481Y-33398068D01*
X65860492Y-33398076D01*
X66042002Y-33502870D01*
X66042004Y-33502871D01*
X66240075Y-33571424D01*
X66447541Y-33601253D01*
X66656902Y-33591280D01*
X66860593Y-33541865D01*
X67051251Y-33454795D01*
X67221985Y-33333215D01*
X67366625Y-33181522D01*
X67479943Y-33005196D01*
X67557843Y-32810611D01*
X67597510Y-32604799D01*
X67600000Y-32500005D01*
X74247498Y-32500005D01*
X74267420Y-32708639D01*
X74267423Y-32708656D01*
X74326470Y-32909755D01*
X74422518Y-33096062D01*
X74552079Y-33260810D01*
X74552083Y-33260814D01*
X74710481Y-33398068D01*
X74710492Y-33398076D01*
X74892002Y-33502870D01*
X74892004Y-33502871D01*
X75090075Y-33571424D01*
X75297541Y-33601253D01*
X75506902Y-33591280D01*
X75710593Y-33541865D01*
X75901251Y-33454795D01*
X76071985Y-33333215D01*
X76216625Y-33181522D01*
X76329943Y-33005196D01*
X76407843Y-32810611D01*
X76447510Y-32604799D01*
X76450000Y-32500005D01*
X119397498Y-32500005D01*
X119417420Y-32708639D01*
X119417423Y-32708656D01*
X119476470Y-32909755D01*
X119572518Y-33096062D01*
X119702079Y-33260810D01*
X119702083Y-33260814D01*
X119860481Y-33398068D01*
X119860492Y-33398076D01*
X120042002Y-33502870D01*
X120042004Y-33502871D01*
X120240075Y-33571424D01*
X120447541Y-33601253D01*
X120656902Y-33591280D01*
X120860593Y-33541865D01*
X121051251Y-33454795D01*
X121221985Y-33333215D01*
X121366625Y-33181522D01*
X121479943Y-33005196D01*
X121557843Y-32810611D01*
X121597510Y-32604799D01*
X121600000Y-32500005D01*
X128247498Y-32500005D01*
X128267420Y-32708639D01*
X128267423Y-32708656D01*
X128326470Y-32909755D01*
X128422518Y-33096062D01*
X128552079Y-33260810D01*
X128552083Y-33260814D01*
X128710481Y-33398068D01*
X128710492Y-33398076D01*
X128892002Y-33502870D01*
X128892004Y-33502871D01*
X129090075Y-33571424D01*
X129297541Y-33601253D01*
X129506902Y-33591280D01*
X129710593Y-33541865D01*
X129901251Y-33454795D01*
X130071985Y-33333215D01*
X130216625Y-33181522D01*
X130329943Y-33005196D01*
X130407843Y-32810611D01*
X130447510Y-32604799D01*
X130450000Y-32500005D01*
X173397498Y-32500005D01*
X173417420Y-32708639D01*
X173417423Y-32708656D01*
X173476470Y-32909755D01*
X173572518Y-33096062D01*
X173702079Y-33260810D01*
X173702083Y-33260814D01*
X173860481Y-33398068D01*
X173860492Y-33398076D01*
X174042002Y-33502870D01*
X174042004Y-33502871D01*
X174240075Y-33571424D01*
X174447541Y-33601253D01*
X174656902Y-33591280D01*
X174860593Y-33541865D01*
X175051251Y-33454795D01*
X175221985Y-33333215D01*
X175366625Y-33181522D01*
X175479943Y-33005196D01*
X175557843Y-32810611D01*
X175597510Y-32604799D01*
X175600000Y-32500005D01*
X182247498Y-32500005D01*
X182267420Y-32708639D01*
X182267423Y-32708656D01*
X182326470Y-32909755D01*
X182422518Y-33096062D01*
X182552079Y-33260810D01*
X182552083Y-33260814D01*
X182710481Y-33398068D01*
X182710492Y-33398076D01*
X182892002Y-33502870D01*
X182892004Y-33502871D01*
X183090075Y-33571424D01*
X183297541Y-33601253D01*
X183506902Y-33591280D01*
X183710593Y-33541865D01*
X183901251Y-33454795D01*
X184071985Y-33333215D01*
X184216625Y-33181522D01*
X184329943Y-33005196D01*
X184407843Y-32810611D01*
X184447510Y-32604799D01*
X184450000Y-32500005D01*
X227397498Y-32500005D01*
X227417420Y-32708639D01*
X227417423Y-32708656D01*
X227476470Y-32909755D01*
X227572518Y-33096062D01*
X227702079Y-33260810D01*
X227702083Y-33260814D01*
X227860481Y-33398068D01*
X227860492Y-33398076D01*
X228042002Y-33502870D01*
X228042004Y-33502871D01*
X228240075Y-33571424D01*
X228447541Y-33601253D01*
X228656902Y-33591280D01*
X228860593Y-33541865D01*
X229051251Y-33454795D01*
X229221985Y-33333215D01*
X229366625Y-33181522D01*
X229479943Y-33005196D01*
X229557843Y-32810611D01*
X229597510Y-32604799D01*
X229600000Y-32500000D01*
X229597510Y-32395201D01*
X229557843Y-32189389D01*
X229479943Y-31994804D01*
X229366625Y-31818478D01*
X229291019Y-31739185D01*
X229221987Y-31666786D01*
X229221984Y-31666784D01*
X229051253Y-31545206D01*
X229051251Y-31545205D01*
X228860593Y-31458135D01*
X228656902Y-31408720D01*
X228467489Y-31399697D01*
X228447543Y-31398747D01*
X228447542Y-31398747D01*
X228447541Y-31398747D01*
X228240075Y-31428576D01*
X228240074Y-31428576D01*
X228240069Y-31428577D01*
X228042002Y-31497129D01*
X227860492Y-31601923D01*
X227860481Y-31601931D01*
X227702083Y-31739185D01*
X227702079Y-31739189D01*
X227572518Y-31903937D01*
X227476470Y-32090244D01*
X227417423Y-32291343D01*
X227417420Y-32291360D01*
X227397498Y-32499994D01*
X227397498Y-32500005D01*
X184450000Y-32500005D01*
X184450000Y-32500000D01*
X184447510Y-32395201D01*
X184407843Y-32189389D01*
X184329943Y-31994804D01*
X184216625Y-31818478D01*
X184141019Y-31739185D01*
X184071987Y-31666786D01*
X184071984Y-31666784D01*
X183901253Y-31545206D01*
X183901251Y-31545205D01*
X183710593Y-31458135D01*
X183506902Y-31408720D01*
X183317489Y-31399697D01*
X183297543Y-31398747D01*
X183297542Y-31398747D01*
X183297541Y-31398747D01*
X183090075Y-31428576D01*
X183090074Y-31428576D01*
X183090069Y-31428577D01*
X182892002Y-31497129D01*
X182710492Y-31601923D01*
X182710481Y-31601931D01*
X182552083Y-31739185D01*
X182552079Y-31739189D01*
X182422518Y-31903937D01*
X182326470Y-32090244D01*
X182267423Y-32291343D01*
X182267420Y-32291360D01*
X182247498Y-32499994D01*
X182247498Y-32500005D01*
X175600000Y-32500005D01*
X175600000Y-32500000D01*
X175597510Y-32395201D01*
X175557843Y-32189389D01*
X175479943Y-31994804D01*
X175366625Y-31818478D01*
X175291019Y-31739185D01*
X175221987Y-31666786D01*
X175221984Y-31666784D01*
X175051253Y-31545206D01*
X175051251Y-31545205D01*
X174860593Y-31458135D01*
X174656902Y-31408720D01*
X174467489Y-31399697D01*
X174447543Y-31398747D01*
X174447542Y-31398747D01*
X174447541Y-31398747D01*
X174240075Y-31428576D01*
X174240074Y-31428576D01*
X174240069Y-31428577D01*
X174042002Y-31497129D01*
X173860492Y-31601923D01*
X173860481Y-31601931D01*
X173702083Y-31739185D01*
X173702079Y-31739189D01*
X173572518Y-31903937D01*
X173476470Y-32090244D01*
X173417423Y-32291343D01*
X173417420Y-32291360D01*
X173397498Y-32499994D01*
X173397498Y-32500005D01*
X130450000Y-32500005D01*
X130450000Y-32500000D01*
X130447510Y-32395201D01*
X130407843Y-32189389D01*
X130329943Y-31994804D01*
X130216625Y-31818478D01*
X130141019Y-31739185D01*
X130071987Y-31666786D01*
X130071984Y-31666784D01*
X129901253Y-31545206D01*
X129901251Y-31545205D01*
X129710593Y-31458135D01*
X129506902Y-31408720D01*
X129317489Y-31399697D01*
X129297543Y-31398747D01*
X129297542Y-31398747D01*
X129297541Y-31398747D01*
X129090075Y-31428576D01*
X129090074Y-31428576D01*
X129090069Y-31428577D01*
X128892002Y-31497129D01*
X128710492Y-31601923D01*
X128710481Y-31601931D01*
X128552083Y-31739185D01*
X128552079Y-31739189D01*
X128422518Y-31903937D01*
X128326470Y-32090244D01*
X128267423Y-32291343D01*
X128267420Y-32291360D01*
X128247498Y-32499994D01*
X128247498Y-32500005D01*
X121600000Y-32500005D01*
X121600000Y-32500000D01*
X121597510Y-32395201D01*
X121557843Y-32189389D01*
X121479943Y-31994804D01*
X121366625Y-31818478D01*
X121291019Y-31739185D01*
X121221987Y-31666786D01*
X121221984Y-31666784D01*
X121051253Y-31545206D01*
X121051251Y-31545205D01*
X120860593Y-31458135D01*
X120656902Y-31408720D01*
X120467489Y-31399697D01*
X120447543Y-31398747D01*
X120447542Y-31398747D01*
X120447541Y-31398747D01*
X120240075Y-31428576D01*
X120240074Y-31428576D01*
X120240069Y-31428577D01*
X120042002Y-31497129D01*
X119860492Y-31601923D01*
X119860481Y-31601931D01*
X119702083Y-31739185D01*
X119702079Y-31739189D01*
X119572518Y-31903937D01*
X119476470Y-32090244D01*
X119417423Y-32291343D01*
X119417420Y-32291360D01*
X119397498Y-32499994D01*
X119397498Y-32500005D01*
X76450000Y-32500005D01*
X76450000Y-32500000D01*
X76447510Y-32395201D01*
X76407843Y-32189389D01*
X76329943Y-31994804D01*
X76216625Y-31818478D01*
X76141019Y-31739185D01*
X76071987Y-31666786D01*
X76071984Y-31666784D01*
X75901253Y-31545206D01*
X75901251Y-31545205D01*
X75710593Y-31458135D01*
X75506902Y-31408720D01*
X75317489Y-31399697D01*
X75297543Y-31398747D01*
X75297542Y-31398747D01*
X75297541Y-31398747D01*
X75090075Y-31428576D01*
X75090074Y-31428576D01*
X75090069Y-31428577D01*
X74892002Y-31497129D01*
X74710492Y-31601923D01*
X74710481Y-31601931D01*
X74552083Y-31739185D01*
X74552079Y-31739189D01*
X74422518Y-31903937D01*
X74326470Y-32090244D01*
X74267423Y-32291343D01*
X74267420Y-32291360D01*
X74247498Y-32499994D01*
X74247498Y-32500005D01*
X67600000Y-32500005D01*
X67600000Y-32500000D01*
X67597510Y-32395201D01*
X67557843Y-32189389D01*
X67479943Y-31994804D01*
X67366625Y-31818478D01*
X67291019Y-31739185D01*
X67221987Y-31666786D01*
X67221984Y-31666784D01*
X67051253Y-31545206D01*
X67051251Y-31545205D01*
X66860593Y-31458135D01*
X66656902Y-31408720D01*
X66467489Y-31399697D01*
X66447543Y-31398747D01*
X66447542Y-31398747D01*
X66447541Y-31398747D01*
X66240075Y-31428576D01*
X66240074Y-31428576D01*
X66240069Y-31428577D01*
X66042002Y-31497129D01*
X65860492Y-31601923D01*
X65860481Y-31601931D01*
X65702083Y-31739185D01*
X65702079Y-31739189D01*
X65572518Y-31903937D01*
X65476470Y-32090244D01*
X65417423Y-32291343D01*
X65417420Y-32291360D01*
X65397498Y-32499994D01*
X65397498Y-32500005D01*
X22450000Y-32500005D01*
X22450000Y-32500000D01*
X22447510Y-32395201D01*
X22407843Y-32189389D01*
X22329943Y-31994804D01*
X22216625Y-31818478D01*
X22141019Y-31739185D01*
X22071987Y-31666786D01*
X22071984Y-31666784D01*
X21901253Y-31545206D01*
X21901251Y-31545205D01*
X21710593Y-31458135D01*
X21506902Y-31408720D01*
X21317489Y-31399697D01*
X21297543Y-31398747D01*
X21297542Y-31398747D01*
X21297541Y-31398747D01*
X21090075Y-31428576D01*
X21090074Y-31428576D01*
X21090069Y-31428577D01*
X20892002Y-31497129D01*
X20710492Y-31601923D01*
X20710481Y-31601931D01*
X20552083Y-31739185D01*
X20552079Y-31739189D01*
X20422518Y-31903937D01*
X20326470Y-32090244D01*
X20267423Y-32291343D01*
X20267420Y-32291360D01*
X20247498Y-32499994D01*
X20247498Y-32500005D01*
X15000000Y-32500005D01*
X15000000Y-18000603D01*
X15000007Y-17999322D01*
X15001367Y-17867661D01*
X15002516Y-17756410D01*
X15002932Y-17747489D01*
X15043108Y-17262626D01*
X15044370Y-17252496D01*
X15093179Y-16960000D01*
X23864341Y-16960000D01*
X23884936Y-17195403D01*
X23884938Y-17195413D01*
X23946094Y-17423655D01*
X23946096Y-17423659D01*
X23946097Y-17423663D01*
X23986668Y-17510667D01*
X24045965Y-17637830D01*
X24045967Y-17637834D01*
X24122736Y-17747470D01*
X24181504Y-17831400D01*
X24181506Y-17831402D01*
X24348597Y-17998494D01*
X24349965Y-17999642D01*
X24350402Y-18000299D01*
X24352427Y-18002324D01*
X24352020Y-18002730D01*
X24388667Y-18057813D01*
X24389775Y-18127674D01*
X24352938Y-18187044D01*
X24309268Y-18212335D01*
X24300673Y-18215183D01*
X24300663Y-18215187D01*
X24151342Y-18307289D01*
X24027289Y-18431342D01*
X23935187Y-18580663D01*
X23935185Y-18580668D01*
X23911207Y-18653031D01*
X23880001Y-18747203D01*
X23880001Y-18747204D01*
X23880000Y-18747204D01*
X23869500Y-18849983D01*
X23869500Y-20150001D01*
X23869501Y-20150018D01*
X23880000Y-20252796D01*
X23880001Y-20252799D01*
X23935184Y-20419329D01*
X23935186Y-20419334D01*
X24027288Y-20568656D01*
X24151344Y-20692712D01*
X24300666Y-20784814D01*
X24467203Y-20839999D01*
X24569991Y-20850500D01*
X25870008Y-20850499D01*
X25972797Y-20839999D01*
X26139334Y-20784814D01*
X26288656Y-20692712D01*
X26412712Y-20568656D01*
X26504814Y-20419334D01*
X26528794Y-20346965D01*
X26568565Y-20289523D01*
X26633081Y-20262699D01*
X26643861Y-20262585D01*
X27277037Y-19629409D01*
X27294075Y-19692993D01*
X27359901Y-19807007D01*
X27452993Y-19900099D01*
X27567007Y-19965925D01*
X27630590Y-19982962D01*
X26998625Y-20614925D01*
X27082421Y-20673599D01*
X27296507Y-20773429D01*
X27296516Y-20773433D01*
X27524673Y-20834567D01*
X27524684Y-20834569D01*
X27759998Y-20855157D01*
X27760002Y-20855157D01*
X27995315Y-20834569D01*
X27995326Y-20834567D01*
X28223483Y-20773433D01*
X28223492Y-20773429D01*
X28437578Y-20673600D01*
X28437582Y-20673598D01*
X28521373Y-20614926D01*
X28521373Y-20614925D01*
X27889409Y-19982962D01*
X27952993Y-19965925D01*
X28067007Y-19900099D01*
X28160099Y-19807007D01*
X28225925Y-19692993D01*
X28242962Y-19629410D01*
X28874925Y-20261373D01*
X28928425Y-20184968D01*
X28983002Y-20141344D01*
X29052501Y-20134151D01*
X29114855Y-20165673D01*
X29131576Y-20184969D01*
X29185073Y-20261372D01*
X29817037Y-19629409D01*
X29834075Y-19692993D01*
X29899901Y-19807007D01*
X29992993Y-19900099D01*
X30107007Y-19965925D01*
X30170590Y-19982962D01*
X29538625Y-20614925D01*
X29622421Y-20673599D01*
X29836507Y-20773429D01*
X29836516Y-20773433D01*
X30064673Y-20834567D01*
X30064684Y-20834569D01*
X30299998Y-20855157D01*
X30300002Y-20855157D01*
X30535315Y-20834569D01*
X30535326Y-20834567D01*
X30763483Y-20773433D01*
X30763492Y-20773429D01*
X30977578Y-20673600D01*
X30977582Y-20673598D01*
X31061373Y-20614926D01*
X31061373Y-20614925D01*
X30429409Y-19982962D01*
X30492993Y-19965925D01*
X30607007Y-19900099D01*
X30700099Y-19807007D01*
X30765925Y-19692993D01*
X30782962Y-19629410D01*
X31414925Y-20261373D01*
X31468425Y-20184968D01*
X31523002Y-20141344D01*
X31592501Y-20134151D01*
X31654855Y-20165673D01*
X31671576Y-20184969D01*
X31725073Y-20261372D01*
X32357037Y-19629409D01*
X32374075Y-19692993D01*
X32439901Y-19807007D01*
X32532993Y-19900099D01*
X32647007Y-19965925D01*
X32710590Y-19982962D01*
X32078625Y-20614925D01*
X32162421Y-20673599D01*
X32376507Y-20773429D01*
X32376516Y-20773433D01*
X32604673Y-20834567D01*
X32604684Y-20834569D01*
X32839998Y-20855157D01*
X32840002Y-20855157D01*
X33075315Y-20834569D01*
X33075326Y-20834567D01*
X33303483Y-20773433D01*
X33303492Y-20773429D01*
X33517578Y-20673600D01*
X33517582Y-20673598D01*
X33601373Y-20614926D01*
X33601373Y-20614925D01*
X32969409Y-19982962D01*
X33032993Y-19965925D01*
X33147007Y-19900099D01*
X33240099Y-19807007D01*
X33305925Y-19692993D01*
X33322962Y-19629410D01*
X33954925Y-20261373D01*
X34008119Y-20185405D01*
X34062696Y-20141781D01*
X34132195Y-20134588D01*
X34194549Y-20166110D01*
X34211269Y-20185405D01*
X34341505Y-20371401D01*
X34508599Y-20538495D01*
X34551675Y-20568657D01*
X34702165Y-20674032D01*
X34702167Y-20674033D01*
X34702170Y-20674035D01*
X34916337Y-20773903D01*
X35144592Y-20835063D01*
X35321034Y-20850500D01*
X35379999Y-20855659D01*
X35380000Y-20855659D01*
X35380001Y-20855659D01*
X35438966Y-20850500D01*
X35615408Y-20835063D01*
X35843663Y-20773903D01*
X36057830Y-20674035D01*
X36251401Y-20538495D01*
X36418495Y-20371401D01*
X36548425Y-20185842D01*
X36603002Y-20142217D01*
X36672500Y-20135023D01*
X36734855Y-20166546D01*
X36751575Y-20185842D01*
X36864396Y-20346968D01*
X36881505Y-20371401D01*
X37048599Y-20538495D01*
X37091675Y-20568657D01*
X37242165Y-20674032D01*
X37242167Y-20674033D01*
X37242170Y-20674035D01*
X37456337Y-20773903D01*
X37684592Y-20835063D01*
X37861034Y-20850500D01*
X37919999Y-20855659D01*
X37920000Y-20855659D01*
X37920001Y-20855659D01*
X37978966Y-20850500D01*
X38155408Y-20835063D01*
X38383663Y-20773903D01*
X38597830Y-20674035D01*
X38791401Y-20538495D01*
X38958495Y-20371401D01*
X39088425Y-20185842D01*
X39143002Y-20142217D01*
X39212500Y-20135023D01*
X39274855Y-20166546D01*
X39291575Y-20185842D01*
X39404396Y-20346968D01*
X39421505Y-20371401D01*
X39588599Y-20538495D01*
X39631675Y-20568657D01*
X39782165Y-20674032D01*
X39782167Y-20674033D01*
X39782170Y-20674035D01*
X39996337Y-20773903D01*
X40224592Y-20835063D01*
X40401034Y-20850500D01*
X40459999Y-20855659D01*
X40460000Y-20855659D01*
X40460001Y-20855659D01*
X40518966Y-20850500D01*
X40695408Y-20835063D01*
X40923663Y-20773903D01*
X41137830Y-20674035D01*
X41331401Y-20538495D01*
X41498495Y-20371401D01*
X41628425Y-20185842D01*
X41683002Y-20142217D01*
X41752500Y-20135023D01*
X41814855Y-20166546D01*
X41831575Y-20185842D01*
X41944396Y-20346968D01*
X41961505Y-20371401D01*
X42128599Y-20538495D01*
X42171675Y-20568657D01*
X42322165Y-20674032D01*
X42322167Y-20674033D01*
X42322170Y-20674035D01*
X42536337Y-20773903D01*
X42764592Y-20835063D01*
X42876412Y-20844846D01*
X42941481Y-20870298D01*
X42982460Y-20926889D01*
X42986338Y-20996651D01*
X42953286Y-21056055D01*
X38746162Y-25263181D01*
X38684839Y-25296666D01*
X38658481Y-25299500D01*
X37608156Y-25299500D01*
X37541117Y-25279815D01*
X37535271Y-25275818D01*
X37452734Y-25215851D01*
X37452729Y-25215848D01*
X37279807Y-25138857D01*
X37279802Y-25138855D01*
X37134001Y-25107865D01*
X37094646Y-25099500D01*
X36905354Y-25099500D01*
X36872897Y-25106398D01*
X36720197Y-25138855D01*
X36720192Y-25138857D01*
X36547270Y-25215848D01*
X36547265Y-25215851D01*
X36394129Y-25327111D01*
X36267466Y-25467785D01*
X36172821Y-25631715D01*
X36172818Y-25631722D01*
X36114327Y-25811740D01*
X36114326Y-25811744D01*
X36094540Y-26000000D01*
X36114326Y-26188256D01*
X36114327Y-26188259D01*
X36172818Y-26368277D01*
X36172821Y-26368284D01*
X36267467Y-26532216D01*
X36347206Y-26620775D01*
X36394129Y-26672888D01*
X36547265Y-26784148D01*
X36547270Y-26784151D01*
X36720192Y-26861142D01*
X36720197Y-26861144D01*
X36905354Y-26900500D01*
X36905355Y-26900500D01*
X37094644Y-26900500D01*
X37094646Y-26900500D01*
X37279803Y-26861144D01*
X37452730Y-26784151D01*
X37468320Y-26772823D01*
X37535271Y-26724182D01*
X37601077Y-26700702D01*
X37608156Y-26700500D01*
X39068996Y-26700500D01*
X39160040Y-26682389D01*
X39204328Y-26673580D01*
X39268069Y-26647177D01*
X39331807Y-26620777D01*
X39331808Y-26620776D01*
X39331811Y-26620775D01*
X39446543Y-26544114D01*
X46087819Y-19902836D01*
X46149142Y-19869352D01*
X46218834Y-19874336D01*
X46274767Y-19916208D01*
X46299184Y-19981672D01*
X46299500Y-19990518D01*
X46299500Y-25384608D01*
X46279815Y-25451647D01*
X46267656Y-25467574D01*
X46267468Y-25467782D01*
X46267464Y-25467787D01*
X46172821Y-25631715D01*
X46172818Y-25631722D01*
X46114327Y-25811740D01*
X46114326Y-25811744D01*
X46094540Y-26000000D01*
X46114326Y-26188256D01*
X46114327Y-26188259D01*
X46172818Y-26368277D01*
X46172821Y-26368284D01*
X46267467Y-26532216D01*
X46347206Y-26620775D01*
X46394129Y-26672888D01*
X46547265Y-26784148D01*
X46547270Y-26784151D01*
X46720192Y-26861142D01*
X46720197Y-26861144D01*
X46905354Y-26900500D01*
X46905355Y-26900500D01*
X47094644Y-26900500D01*
X47094646Y-26900500D01*
X47279803Y-26861144D01*
X47452730Y-26784151D01*
X47605871Y-26672888D01*
X47732533Y-26532216D01*
X47827179Y-26368284D01*
X47885674Y-26188256D01*
X47905460Y-26000000D01*
X47885674Y-25811744D01*
X47827179Y-25631716D01*
X47732533Y-25467784D01*
X47732344Y-25467574D01*
X47732273Y-25467427D01*
X47728714Y-25462528D01*
X47729610Y-25461876D01*
X47702119Y-25404580D01*
X47700500Y-25384608D01*
X47700500Y-20341519D01*
X47720185Y-20274480D01*
X47736819Y-20253838D01*
X48383810Y-19606847D01*
X49062975Y-18927681D01*
X49124296Y-18894198D01*
X49124362Y-18894183D01*
X49279803Y-18861144D01*
X49279807Y-18861142D01*
X49279808Y-18861142D01*
X49341995Y-18833454D01*
X49452730Y-18784151D01*
X49605871Y-18672888D01*
X49732533Y-18532216D01*
X49827179Y-18368284D01*
X49885674Y-18188256D01*
X49905460Y-18000000D01*
X53094540Y-18000000D01*
X53114326Y-18188256D01*
X53114327Y-18188259D01*
X53172818Y-18368277D01*
X53172821Y-18368284D01*
X53267467Y-18532216D01*
X53311092Y-18580666D01*
X53394129Y-18672888D01*
X53547265Y-18784148D01*
X53547270Y-18784151D01*
X53720192Y-18861142D01*
X53720197Y-18861144D01*
X53905354Y-18900500D01*
X53905355Y-18900500D01*
X54094644Y-18900500D01*
X54094646Y-18900500D01*
X54279803Y-18861144D01*
X54452730Y-18784151D01*
X54605871Y-18672888D01*
X54732533Y-18532216D01*
X54827179Y-18368284D01*
X54885674Y-18188256D01*
X54890864Y-18138869D01*
X54917447Y-18074258D01*
X54926494Y-18064161D01*
X56253838Y-16736819D01*
X56315161Y-16703334D01*
X56341519Y-16700500D01*
X57110122Y-16700500D01*
X57177161Y-16720185D01*
X57222916Y-16772989D01*
X57232860Y-16842147D01*
X57226304Y-16867832D01*
X57205909Y-16922514D01*
X57205908Y-16922516D01*
X57199501Y-16982116D01*
X57199500Y-16982135D01*
X57199500Y-18877870D01*
X57199501Y-18877876D01*
X57205908Y-18937483D01*
X57256202Y-19072328D01*
X57256206Y-19072335D01*
X57342452Y-19187544D01*
X57342455Y-19187547D01*
X57457664Y-19273793D01*
X57457671Y-19273797D01*
X57502618Y-19290561D01*
X57592517Y-19324091D01*
X57652127Y-19330500D01*
X57762693Y-19330499D01*
X57829730Y-19350183D01*
X57850372Y-19366818D01*
X58511415Y-20027861D01*
X58426306Y-20050667D01*
X58323694Y-20109910D01*
X58239910Y-20193694D01*
X58180667Y-20296306D01*
X58157861Y-20381415D01*
X57448811Y-19672365D01*
X57364516Y-19801390D01*
X57271317Y-20013864D01*
X57214361Y-20238781D01*
X57195202Y-20469994D01*
X57195202Y-20470005D01*
X57214361Y-20701218D01*
X57271317Y-20926135D01*
X57364515Y-21138606D01*
X57448812Y-21267633D01*
X58157861Y-20558584D01*
X58180667Y-20643694D01*
X58239910Y-20746306D01*
X58323694Y-20830090D01*
X58426306Y-20889333D01*
X58511414Y-20912138D01*
X57801201Y-21622351D01*
X57831649Y-21646050D01*
X58035697Y-21756476D01*
X58035706Y-21756479D01*
X58255139Y-21831811D01*
X58483993Y-21870000D01*
X58716007Y-21870000D01*
X58944860Y-21831811D01*
X59164293Y-21756479D01*
X59164301Y-21756476D01*
X59368355Y-21646047D01*
X59398797Y-21622351D01*
X59398798Y-21622350D01*
X58688585Y-20912137D01*
X58773694Y-20889333D01*
X58876306Y-20830090D01*
X58960090Y-20746306D01*
X59019333Y-20643694D01*
X59042138Y-20558585D01*
X59751186Y-21267633D01*
X59835482Y-21138611D01*
X59928682Y-20926135D01*
X59985638Y-20701218D01*
X60004798Y-20470005D01*
X60004798Y-20469994D01*
X59985638Y-20238781D01*
X59928682Y-20013864D01*
X59835484Y-19801393D01*
X59751186Y-19672365D01*
X59042137Y-20381414D01*
X59019333Y-20296306D01*
X58960090Y-20193694D01*
X58876306Y-20109910D01*
X58773694Y-20050667D01*
X58688584Y-20027861D01*
X59349627Y-19366818D01*
X59410950Y-19333333D01*
X59437307Y-19330499D01*
X59547872Y-19330499D01*
X59607483Y-19324091D01*
X59742331Y-19273796D01*
X59857546Y-19187546D01*
X59943796Y-19072331D01*
X59994091Y-18937483D01*
X60000500Y-18877873D01*
X60000499Y-17160517D01*
X60020184Y-17093479D01*
X60072987Y-17047724D01*
X60142146Y-17037780D01*
X60205702Y-17066805D01*
X60212180Y-17072837D01*
X63197218Y-20057875D01*
X63230703Y-20119198D01*
X63229743Y-20175995D01*
X63213865Y-20238696D01*
X63194700Y-20469993D01*
X63194700Y-20470006D01*
X63213864Y-20701297D01*
X63213866Y-20701308D01*
X63270842Y-20926300D01*
X63364075Y-21138848D01*
X63491016Y-21333147D01*
X63491019Y-21333151D01*
X63491021Y-21333153D01*
X63648216Y-21503913D01*
X63648219Y-21503915D01*
X63648222Y-21503918D01*
X63831365Y-21646464D01*
X63831371Y-21646468D01*
X63831374Y-21646470D01*
X63998860Y-21737109D01*
X64034652Y-21756479D01*
X64035497Y-21756936D01*
X64149487Y-21796068D01*
X64255015Y-21832297D01*
X64255017Y-21832297D01*
X64255019Y-21832298D01*
X64483951Y-21870500D01*
X64483952Y-21870500D01*
X64716048Y-21870500D01*
X64716049Y-21870500D01*
X64944981Y-21832298D01*
X65164503Y-21756936D01*
X65368626Y-21646470D01*
X65369170Y-21646047D01*
X65430129Y-21598600D01*
X65551784Y-21503913D01*
X65708979Y-21333153D01*
X65835924Y-21138849D01*
X65929157Y-20926300D01*
X65986134Y-20701305D01*
X65986135Y-20701297D01*
X66005300Y-20470006D01*
X69194700Y-20470006D01*
X69213864Y-20701297D01*
X69213866Y-20701308D01*
X69270842Y-20926300D01*
X69364075Y-21138848D01*
X69491016Y-21333147D01*
X69491019Y-21333151D01*
X69491021Y-21333153D01*
X69648216Y-21503913D01*
X69648219Y-21503915D01*
X69648222Y-21503918D01*
X69831365Y-21646464D01*
X69831371Y-21646468D01*
X69831374Y-21646470D01*
X69998860Y-21737109D01*
X70034652Y-21756479D01*
X70035497Y-21756936D01*
X70149487Y-21796068D01*
X70255015Y-21832297D01*
X70255017Y-21832297D01*
X70255019Y-21832298D01*
X70483951Y-21870500D01*
X70483952Y-21870500D01*
X70716048Y-21870500D01*
X70716049Y-21870500D01*
X70944981Y-21832298D01*
X71164503Y-21756936D01*
X71368626Y-21646470D01*
X71369170Y-21646047D01*
X71430129Y-21598600D01*
X71551784Y-21503913D01*
X71708979Y-21333153D01*
X71809318Y-21179573D01*
X112202517Y-21179573D01*
X112242724Y-21536427D01*
X112242727Y-21536441D01*
X112322642Y-21886575D01*
X112322645Y-21886583D01*
X112441257Y-22225555D01*
X112597077Y-22549117D01*
X112597079Y-22549120D01*
X112788149Y-22853207D01*
X113012065Y-23133989D01*
X113266011Y-23387935D01*
X113546793Y-23611851D01*
X113850880Y-23802921D01*
X114174448Y-23958744D01*
X114429035Y-24047827D01*
X114513416Y-24077354D01*
X114513424Y-24077357D01*
X114513427Y-24077357D01*
X114513428Y-24077358D01*
X114863558Y-24157273D01*
X114863567Y-24157274D01*
X114863572Y-24157275D01*
X115039081Y-24177049D01*
X115220433Y-24197483D01*
X115400000Y-24200000D01*
X134399987Y-24200000D01*
X134400000Y-24200000D01*
X134579567Y-24197483D01*
X134788287Y-24173965D01*
X134936427Y-24157275D01*
X134936430Y-24157274D01*
X134936442Y-24157273D01*
X135286572Y-24077358D01*
X135625552Y-23958744D01*
X135949120Y-23802921D01*
X136253207Y-23611851D01*
X136533989Y-23387935D01*
X136787935Y-23133989D01*
X137011851Y-22853207D01*
X137202921Y-22549120D01*
X137358744Y-22225552D01*
X137477358Y-21886572D01*
X137557273Y-21536442D01*
X137597483Y-21179567D01*
X137597483Y-20820433D01*
X137558000Y-20470006D01*
X137557275Y-20463572D01*
X137557274Y-20463567D01*
X137557273Y-20463558D01*
X137477358Y-20113428D01*
X137358744Y-19774448D01*
X137202921Y-19450880D01*
X137011851Y-19146793D01*
X136787935Y-18866011D01*
X136533989Y-18612065D01*
X136253207Y-18388149D01*
X135977934Y-18215184D01*
X135949117Y-18197077D01*
X135625555Y-18041257D01*
X135286583Y-17922645D01*
X135286575Y-17922642D01*
X134955246Y-17847019D01*
X134936442Y-17842727D01*
X134936439Y-17842726D01*
X134936427Y-17842724D01*
X134579571Y-17802517D01*
X134579572Y-17802517D01*
X134529687Y-17801817D01*
X134400000Y-17800000D01*
X134399987Y-17800000D01*
X128222274Y-17800000D01*
X128155235Y-17780315D01*
X128109480Y-17727511D01*
X128098286Y-17677738D01*
X128097839Y-17645842D01*
X128097483Y-17620433D01*
X128057273Y-17263558D01*
X127977358Y-16913428D01*
X127858744Y-16574448D01*
X127723424Y-16293454D01*
X127702922Y-16250882D01*
X127702921Y-16250880D01*
X127511851Y-15946793D01*
X127287935Y-15666011D01*
X127033989Y-15412065D01*
X126753207Y-15188149D01*
X126449120Y-14997079D01*
X126449117Y-14997077D01*
X126125555Y-14841257D01*
X125786583Y-14722645D01*
X125786575Y-14722642D01*
X125523974Y-14662705D01*
X125436442Y-14642727D01*
X125436439Y-14642726D01*
X125436427Y-14642724D01*
X125079573Y-14602517D01*
X125079567Y-14602517D01*
X124720433Y-14602517D01*
X124720426Y-14602517D01*
X124363572Y-14642724D01*
X124363558Y-14642727D01*
X124013424Y-14722642D01*
X124013416Y-14722645D01*
X123674444Y-14841257D01*
X123350882Y-14997077D01*
X123046794Y-15188148D01*
X122766011Y-15412064D01*
X122512064Y-15666011D01*
X122288148Y-15946794D01*
X122097077Y-16250882D01*
X121941257Y-16574444D01*
X121822645Y-16913416D01*
X121822642Y-16913424D01*
X121742727Y-17263558D01*
X121742724Y-17263572D01*
X121702517Y-17620427D01*
X121701714Y-17677738D01*
X121681091Y-17744495D01*
X121627651Y-17789505D01*
X121577726Y-17800000D01*
X115400000Y-17800000D01*
X115277138Y-17801722D01*
X115220427Y-17802517D01*
X114863572Y-17842724D01*
X114863558Y-17842727D01*
X114513424Y-17922642D01*
X114513416Y-17922645D01*
X114174444Y-18041257D01*
X113850882Y-18197077D01*
X113546794Y-18388148D01*
X113266011Y-18612064D01*
X113012064Y-18866011D01*
X112788148Y-19146794D01*
X112597077Y-19450882D01*
X112441257Y-19774444D01*
X112322645Y-20113416D01*
X112322642Y-20113424D01*
X112242727Y-20463558D01*
X112242724Y-20463572D01*
X112202517Y-20820426D01*
X112202517Y-21179573D01*
X71809318Y-21179573D01*
X71835924Y-21138849D01*
X71929157Y-20926300D01*
X71986134Y-20701305D01*
X71986135Y-20701297D01*
X72005300Y-20470006D01*
X72005300Y-20469993D01*
X71986135Y-20238702D01*
X71986133Y-20238691D01*
X71929157Y-20013699D01*
X71835924Y-19801151D01*
X71708981Y-19606849D01*
X71613832Y-19503489D01*
X71582910Y-19440835D01*
X71590770Y-19371409D01*
X71634918Y-19317253D01*
X71661730Y-19303325D01*
X71742084Y-19273355D01*
X71742093Y-19273350D01*
X71857187Y-19187190D01*
X71857190Y-19187187D01*
X71943350Y-19072093D01*
X71943354Y-19072086D01*
X71993596Y-18937379D01*
X71993598Y-18937372D01*
X71999999Y-18877844D01*
X72000000Y-18877827D01*
X72000000Y-18180000D01*
X70975278Y-18180000D01*
X71019333Y-18103694D01*
X71050000Y-17989244D01*
X71050000Y-17870756D01*
X71019333Y-17756306D01*
X70975278Y-17680000D01*
X72000000Y-17680000D01*
X72000000Y-16982172D01*
X71999999Y-16982155D01*
X71993598Y-16922627D01*
X71993596Y-16922620D01*
X71943354Y-16787913D01*
X71943350Y-16787906D01*
X71857190Y-16672812D01*
X71857187Y-16672809D01*
X71742093Y-16586649D01*
X71742086Y-16586645D01*
X71607379Y-16536403D01*
X71607372Y-16536401D01*
X71547844Y-16530000D01*
X70850000Y-16530000D01*
X70850000Y-17554722D01*
X70773694Y-17510667D01*
X70659244Y-17480000D01*
X70540756Y-17480000D01*
X70426306Y-17510667D01*
X70350000Y-17554722D01*
X70350000Y-16530000D01*
X69652155Y-16530000D01*
X69592627Y-16536401D01*
X69592620Y-16536403D01*
X69457913Y-16586645D01*
X69457906Y-16586649D01*
X69342812Y-16672809D01*
X69342809Y-16672812D01*
X69256649Y-16787906D01*
X69256645Y-16787913D01*
X69206403Y-16922620D01*
X69206401Y-16922627D01*
X69200000Y-16982155D01*
X69200000Y-17680000D01*
X70224722Y-17680000D01*
X70180667Y-17756306D01*
X70150000Y-17870756D01*
X70150000Y-17989244D01*
X70180667Y-18103694D01*
X70224722Y-18180000D01*
X69200000Y-18180000D01*
X69200000Y-18877844D01*
X69206401Y-18937372D01*
X69206403Y-18937379D01*
X69256645Y-19072086D01*
X69256649Y-19072093D01*
X69342809Y-19187187D01*
X69342812Y-19187190D01*
X69457906Y-19273350D01*
X69457913Y-19273354D01*
X69538270Y-19303325D01*
X69594204Y-19345196D01*
X69618621Y-19410660D01*
X69603770Y-19478933D01*
X69586168Y-19503489D01*
X69491021Y-19606847D01*
X69491019Y-19606848D01*
X69491016Y-19606853D01*
X69364075Y-19801151D01*
X69270842Y-20013699D01*
X69213866Y-20238691D01*
X69213864Y-20238702D01*
X69194700Y-20469993D01*
X69194700Y-20470006D01*
X66005300Y-20470006D01*
X66005300Y-20469993D01*
X65986135Y-20238702D01*
X65986133Y-20238691D01*
X65929157Y-20013699D01*
X65835924Y-19801151D01*
X65708981Y-19606849D01*
X65613832Y-19503489D01*
X65582910Y-19440835D01*
X65590770Y-19371409D01*
X65634918Y-19317253D01*
X65661730Y-19303325D01*
X65742084Y-19273355D01*
X65742093Y-19273350D01*
X65857187Y-19187190D01*
X65857190Y-19187187D01*
X65943350Y-19072093D01*
X65943354Y-19072086D01*
X65993596Y-18937379D01*
X65993598Y-18937372D01*
X65999999Y-18877844D01*
X66000000Y-18877827D01*
X66000000Y-18180000D01*
X64975278Y-18180000D01*
X65019333Y-18103694D01*
X65050000Y-17989244D01*
X65050000Y-17870756D01*
X65019333Y-17756306D01*
X64975278Y-17680000D01*
X66000000Y-17680000D01*
X66000000Y-16982172D01*
X65999999Y-16982155D01*
X65993598Y-16922627D01*
X65993596Y-16922620D01*
X65943354Y-16787913D01*
X65943350Y-16787906D01*
X65857190Y-16672812D01*
X65857187Y-16672809D01*
X65742093Y-16586649D01*
X65742086Y-16586645D01*
X65607379Y-16536403D01*
X65607372Y-16536401D01*
X65547844Y-16530000D01*
X64850000Y-16530000D01*
X64850000Y-17554722D01*
X64773694Y-17510667D01*
X64659244Y-17480000D01*
X64540756Y-17480000D01*
X64426306Y-17510667D01*
X64350000Y-17554722D01*
X64350000Y-16530000D01*
X63652155Y-16530000D01*
X63592627Y-16536401D01*
X63592620Y-16536403D01*
X63457913Y-16586645D01*
X63457906Y-16586649D01*
X63342812Y-16672809D01*
X63342809Y-16672812D01*
X63256649Y-16787906D01*
X63256645Y-16787913D01*
X63206403Y-16922620D01*
X63206401Y-16922627D01*
X63200000Y-16982155D01*
X63200000Y-17779980D01*
X63180315Y-17847019D01*
X63127511Y-17892774D01*
X63058353Y-17902718D01*
X62994797Y-17873693D01*
X62988319Y-17867661D01*
X60576545Y-15455887D01*
X60461807Y-15379222D01*
X60334332Y-15326421D01*
X60334322Y-15326418D01*
X60198996Y-15299500D01*
X60198994Y-15299500D01*
X60198993Y-15299500D01*
X59068993Y-15299500D01*
X55931007Y-15299500D01*
X55931005Y-15299500D01*
X55795677Y-15326418D01*
X55795667Y-15326421D01*
X55668192Y-15379222D01*
X55553454Y-15455887D01*
X55553453Y-15455888D01*
X53937026Y-17072316D01*
X53875703Y-17105801D01*
X53875126Y-17105925D01*
X53720197Y-17138855D01*
X53720192Y-17138857D01*
X53547270Y-17215848D01*
X53547265Y-17215851D01*
X53394129Y-17327111D01*
X53267466Y-17467785D01*
X53172821Y-17631715D01*
X53172818Y-17631722D01*
X53124538Y-17780315D01*
X53114326Y-17811744D01*
X53094540Y-18000000D01*
X49905460Y-18000000D01*
X49885674Y-17811744D01*
X49827179Y-17631716D01*
X49732533Y-17467784D01*
X49605871Y-17327112D01*
X49587209Y-17313553D01*
X49452734Y-17215851D01*
X49452729Y-17215848D01*
X49279807Y-17138857D01*
X49279800Y-17138855D01*
X49197161Y-17121290D01*
X49135679Y-17088098D01*
X49101902Y-17026935D01*
X49106554Y-16957221D01*
X49148158Y-16901088D01*
X49197161Y-16878710D01*
X49203201Y-16877426D01*
X49279803Y-16861144D01*
X49452730Y-16784151D01*
X49605871Y-16672888D01*
X49732533Y-16532216D01*
X49827179Y-16368284D01*
X49885674Y-16188256D01*
X49905460Y-16000000D01*
X49885674Y-15811744D01*
X49827179Y-15631716D01*
X49732533Y-15467784D01*
X49605871Y-15327112D01*
X49604916Y-15326418D01*
X49452734Y-15215851D01*
X49452729Y-15215848D01*
X49279807Y-15138857D01*
X49279802Y-15138855D01*
X49134001Y-15107865D01*
X49094646Y-15099500D01*
X48905354Y-15099500D01*
X48872897Y-15106398D01*
X48720197Y-15138855D01*
X48720192Y-15138857D01*
X48547270Y-15215848D01*
X48547265Y-15215851D01*
X48394129Y-15327111D01*
X48267466Y-15467785D01*
X48172821Y-15631715D01*
X48172818Y-15631722D01*
X48114327Y-15811739D01*
X48114325Y-15811750D01*
X48109134Y-15861129D01*
X48082549Y-15925743D01*
X48073495Y-15935846D01*
X44556055Y-19453286D01*
X44494732Y-19486771D01*
X44425040Y-19481787D01*
X44369107Y-19439915D01*
X44344846Y-19376412D01*
X44340829Y-19330498D01*
X44335063Y-19264592D01*
X44273903Y-19036337D01*
X44174035Y-18822171D01*
X44168731Y-18814595D01*
X44038494Y-18628597D01*
X43871402Y-18461506D01*
X43871396Y-18461501D01*
X43685842Y-18331575D01*
X43642217Y-18276998D01*
X43635023Y-18207500D01*
X43666546Y-18145145D01*
X43685842Y-18128425D01*
X43733289Y-18095202D01*
X43871401Y-17998495D01*
X44038495Y-17831401D01*
X44174035Y-17637830D01*
X44273903Y-17423663D01*
X44335063Y-17195408D01*
X44355659Y-16960000D01*
X44335063Y-16724592D01*
X44273903Y-16496337D01*
X44174035Y-16282171D01*
X44168731Y-16274595D01*
X44038494Y-16088597D01*
X43871402Y-15921506D01*
X43871395Y-15921501D01*
X43847539Y-15904797D01*
X43832521Y-15894281D01*
X43677834Y-15785967D01*
X43677830Y-15785965D01*
X43677828Y-15785964D01*
X43463663Y-15686097D01*
X43463659Y-15686096D01*
X43463655Y-15686094D01*
X43235413Y-15624938D01*
X43235403Y-15624936D01*
X43000001Y-15604341D01*
X42999999Y-15604341D01*
X42764596Y-15624936D01*
X42764586Y-15624938D01*
X42536344Y-15686094D01*
X42536335Y-15686098D01*
X42322171Y-15785964D01*
X42322169Y-15785965D01*
X42128597Y-15921505D01*
X41961505Y-16088597D01*
X41831575Y-16274158D01*
X41776998Y-16317783D01*
X41707500Y-16324977D01*
X41645145Y-16293454D01*
X41628425Y-16274158D01*
X41498494Y-16088597D01*
X41331402Y-15921506D01*
X41331395Y-15921501D01*
X41307539Y-15904797D01*
X41292521Y-15894281D01*
X41137834Y-15785967D01*
X41137830Y-15785965D01*
X41137828Y-15785964D01*
X40923663Y-15686097D01*
X40923659Y-15686096D01*
X40923655Y-15686094D01*
X40695413Y-15624938D01*
X40695403Y-15624936D01*
X40460001Y-15604341D01*
X40459999Y-15604341D01*
X40224596Y-15624936D01*
X40224586Y-15624938D01*
X39996344Y-15686094D01*
X39996335Y-15686098D01*
X39782171Y-15785964D01*
X39782169Y-15785965D01*
X39588597Y-15921505D01*
X39421505Y-16088597D01*
X39291575Y-16274158D01*
X39236998Y-16317783D01*
X39167500Y-16324977D01*
X39105145Y-16293454D01*
X39088425Y-16274158D01*
X38958494Y-16088597D01*
X38791402Y-15921506D01*
X38791395Y-15921501D01*
X38767539Y-15904797D01*
X38752521Y-15894281D01*
X38597834Y-15785967D01*
X38597830Y-15785965D01*
X38597828Y-15785964D01*
X38383663Y-15686097D01*
X38383659Y-15686096D01*
X38383655Y-15686094D01*
X38155413Y-15624938D01*
X38155403Y-15624936D01*
X37920001Y-15604341D01*
X37919999Y-15604341D01*
X37684596Y-15624936D01*
X37684586Y-15624938D01*
X37456344Y-15686094D01*
X37456335Y-15686098D01*
X37242171Y-15785964D01*
X37242169Y-15785965D01*
X37048597Y-15921505D01*
X36881505Y-16088597D01*
X36751575Y-16274158D01*
X36696998Y-16317783D01*
X36627500Y-16324977D01*
X36565145Y-16293454D01*
X36548425Y-16274158D01*
X36418494Y-16088597D01*
X36251402Y-15921506D01*
X36251395Y-15921501D01*
X36227539Y-15904797D01*
X36212521Y-15894281D01*
X36057834Y-15785967D01*
X36057830Y-15785965D01*
X36057828Y-15785964D01*
X35843663Y-15686097D01*
X35843659Y-15686096D01*
X35843655Y-15686094D01*
X35615413Y-15624938D01*
X35615403Y-15624936D01*
X35380001Y-15604341D01*
X35379999Y-15604341D01*
X35144596Y-15624936D01*
X35144586Y-15624938D01*
X34916344Y-15686094D01*
X34916335Y-15686098D01*
X34702171Y-15785964D01*
X34702169Y-15785965D01*
X34508597Y-15921505D01*
X34341505Y-16088597D01*
X34211269Y-16274595D01*
X34156692Y-16318220D01*
X34087194Y-16325414D01*
X34024839Y-16293891D01*
X34008119Y-16274595D01*
X33954925Y-16198626D01*
X33954925Y-16198625D01*
X33322962Y-16830589D01*
X33305925Y-16767007D01*
X33240099Y-16652993D01*
X33147007Y-16559901D01*
X33032993Y-16494075D01*
X32969410Y-16477037D01*
X33601373Y-15845073D01*
X33601373Y-15845072D01*
X33517583Y-15786402D01*
X33517579Y-15786400D01*
X33303492Y-15686570D01*
X33303483Y-15686566D01*
X33075326Y-15625432D01*
X33075315Y-15625430D01*
X32840002Y-15604843D01*
X32839998Y-15604843D01*
X32604684Y-15625430D01*
X32604673Y-15625432D01*
X32376516Y-15686566D01*
X32376507Y-15686570D01*
X32162419Y-15786401D01*
X32078625Y-15845072D01*
X32710590Y-16477037D01*
X32647007Y-16494075D01*
X32532993Y-16559901D01*
X32439901Y-16652993D01*
X32374075Y-16767007D01*
X32357037Y-16830590D01*
X31725072Y-16198625D01*
X31725072Y-16198626D01*
X31671574Y-16275030D01*
X31616998Y-16318655D01*
X31547499Y-16325849D01*
X31485144Y-16294326D01*
X31468424Y-16275030D01*
X31414925Y-16198626D01*
X31414925Y-16198625D01*
X30782962Y-16830589D01*
X30765925Y-16767007D01*
X30700099Y-16652993D01*
X30607007Y-16559901D01*
X30492993Y-16494075D01*
X30429410Y-16477037D01*
X31061373Y-15845073D01*
X31061373Y-15845072D01*
X30977583Y-15786402D01*
X30977579Y-15786400D01*
X30763492Y-15686570D01*
X30763483Y-15686566D01*
X30535326Y-15625432D01*
X30535315Y-15625430D01*
X30300002Y-15604843D01*
X30299998Y-15604843D01*
X30064684Y-15625430D01*
X30064673Y-15625432D01*
X29836516Y-15686566D01*
X29836507Y-15686570D01*
X29622419Y-15786401D01*
X29538625Y-15845072D01*
X30170590Y-16477037D01*
X30107007Y-16494075D01*
X29992993Y-16559901D01*
X29899901Y-16652993D01*
X29834075Y-16767007D01*
X29817037Y-16830590D01*
X29185072Y-16198625D01*
X29185072Y-16198626D01*
X29131574Y-16275030D01*
X29076998Y-16318655D01*
X29007499Y-16325849D01*
X28945144Y-16294326D01*
X28928424Y-16275030D01*
X28874925Y-16198626D01*
X28874925Y-16198625D01*
X28242962Y-16830589D01*
X28225925Y-16767007D01*
X28160099Y-16652993D01*
X28067007Y-16559901D01*
X27952993Y-16494075D01*
X27889410Y-16477037D01*
X28521373Y-15845073D01*
X28521373Y-15845072D01*
X28437583Y-15786402D01*
X28437579Y-15786400D01*
X28223492Y-15686570D01*
X28223483Y-15686566D01*
X27995326Y-15625432D01*
X27995315Y-15625430D01*
X27760002Y-15604843D01*
X27759998Y-15604843D01*
X27524684Y-15625430D01*
X27524673Y-15625432D01*
X27296516Y-15686566D01*
X27296507Y-15686570D01*
X27082419Y-15786401D01*
X26998625Y-15845072D01*
X27630590Y-16477037D01*
X27567007Y-16494075D01*
X27452993Y-16559901D01*
X27359901Y-16652993D01*
X27294075Y-16767007D01*
X27277037Y-16830590D01*
X26645073Y-16198626D01*
X26591881Y-16274594D01*
X26537304Y-16318219D01*
X26467806Y-16325413D01*
X26405451Y-16293891D01*
X26388730Y-16274594D01*
X26258494Y-16088597D01*
X26091402Y-15921506D01*
X26091395Y-15921501D01*
X26067539Y-15904797D01*
X26052521Y-15894281D01*
X25897834Y-15785967D01*
X25897830Y-15785965D01*
X25897828Y-15785964D01*
X25683663Y-15686097D01*
X25683659Y-15686096D01*
X25683655Y-15686094D01*
X25455413Y-15624938D01*
X25455403Y-15624936D01*
X25220001Y-15604341D01*
X25219999Y-15604341D01*
X24984596Y-15624936D01*
X24984586Y-15624938D01*
X24756344Y-15686094D01*
X24756335Y-15686098D01*
X24542171Y-15785964D01*
X24542169Y-15785965D01*
X24348597Y-15921505D01*
X24181505Y-16088597D01*
X24045965Y-16282169D01*
X24045964Y-16282171D01*
X23946098Y-16496335D01*
X23946094Y-16496344D01*
X23884938Y-16724586D01*
X23884936Y-16724596D01*
X23864341Y-16959999D01*
X23864341Y-16960000D01*
X15093179Y-16960000D01*
X15124347Y-16773222D01*
X15126443Y-16763229D01*
X15245723Y-16292200D01*
X15248639Y-16282409D01*
X15406405Y-15822852D01*
X15410114Y-15813346D01*
X15605300Y-15368367D01*
X15609773Y-15359215D01*
X15841045Y-14931862D01*
X15846262Y-14923107D01*
X16112027Y-14516323D01*
X16117960Y-14508013D01*
X16416412Y-14124562D01*
X16422983Y-14116804D01*
X16752080Y-13759310D01*
X16759310Y-13752080D01*
X17116804Y-13422983D01*
X17124562Y-13416412D01*
X17508013Y-13117960D01*
X17516323Y-13112027D01*
X17923107Y-12846262D01*
X17931862Y-12841045D01*
X18359215Y-12609773D01*
X18368367Y-12605300D01*
X18813346Y-12410114D01*
X18822852Y-12406405D01*
X19282409Y-12248639D01*
X19292200Y-12245723D01*
X19763229Y-12126443D01*
X19773222Y-12124347D01*
X20252496Y-12044370D01*
X20262626Y-12043108D01*
X20747489Y-12002932D01*
X20756410Y-12002516D01*
X20999323Y-12000007D01*
X21000604Y-12000000D01*
X228999396Y-12000000D01*
X229000678Y-12000007D01*
G37*
%TD.AperFunction*%
%TD*%
%TA.AperFunction,NonConductor*%
G36*
X223243039Y-64219685D02*
G01*
X223288794Y-64272489D01*
X223300000Y-64324000D01*
X223300000Y-193176000D01*
X223280315Y-193243039D01*
X223227511Y-193288794D01*
X223176000Y-193300000D01*
X131324000Y-193300000D01*
X131256961Y-193280315D01*
X131211206Y-193227511D01*
X131200000Y-193176000D01*
X131200000Y-189100005D01*
X173397498Y-189100005D01*
X173417420Y-189308639D01*
X173417423Y-189308656D01*
X173476470Y-189509755D01*
X173572518Y-189696062D01*
X173702079Y-189860810D01*
X173702083Y-189860814D01*
X173860481Y-189998068D01*
X173860492Y-189998076D01*
X174042002Y-190102870D01*
X174042004Y-190102871D01*
X174240075Y-190171424D01*
X174447541Y-190201253D01*
X174656902Y-190191280D01*
X174860593Y-190141865D01*
X175051251Y-190054795D01*
X175221985Y-189933215D01*
X175366625Y-189781522D01*
X175479943Y-189605196D01*
X175557843Y-189410611D01*
X175597510Y-189204799D01*
X175600000Y-189100005D01*
X182247498Y-189100005D01*
X182267420Y-189308639D01*
X182267423Y-189308656D01*
X182326470Y-189509755D01*
X182422518Y-189696062D01*
X182552079Y-189860810D01*
X182552083Y-189860814D01*
X182710481Y-189998068D01*
X182710492Y-189998076D01*
X182892002Y-190102870D01*
X182892004Y-190102871D01*
X183090075Y-190171424D01*
X183297541Y-190201253D01*
X183506902Y-190191280D01*
X183710593Y-190141865D01*
X183901251Y-190054795D01*
X184071985Y-189933215D01*
X184216625Y-189781522D01*
X184329943Y-189605196D01*
X184407843Y-189410611D01*
X184447510Y-189204799D01*
X184450000Y-189100000D01*
X184447510Y-188995201D01*
X184407843Y-188789389D01*
X184329943Y-188594804D01*
X184216625Y-188418478D01*
X184195251Y-188396062D01*
X184071987Y-188266786D01*
X184071984Y-188266784D01*
X183901253Y-188145206D01*
X183901251Y-188145205D01*
X183710593Y-188058135D01*
X183506902Y-188008720D01*
X183317489Y-187999697D01*
X183297543Y-187998747D01*
X183297542Y-187998747D01*
X183297541Y-187998747D01*
X183090075Y-188028576D01*
X183090074Y-188028576D01*
X183090069Y-188028577D01*
X182892002Y-188097129D01*
X182710492Y-188201923D01*
X182710481Y-188201931D01*
X182552083Y-188339185D01*
X182552079Y-188339189D01*
X182422518Y-188503937D01*
X182326470Y-188690244D01*
X182267423Y-188891343D01*
X182267420Y-188891360D01*
X182247498Y-189099994D01*
X182247498Y-189100005D01*
X175600000Y-189100005D01*
X175600000Y-189100000D01*
X175597510Y-188995201D01*
X175557843Y-188789389D01*
X175479943Y-188594804D01*
X175366625Y-188418478D01*
X175345251Y-188396062D01*
X175221987Y-188266786D01*
X175221984Y-188266784D01*
X175051253Y-188145206D01*
X175051251Y-188145205D01*
X174860593Y-188058135D01*
X174656902Y-188008720D01*
X174467489Y-187999697D01*
X174447543Y-187998747D01*
X174447542Y-187998747D01*
X174447541Y-187998747D01*
X174240075Y-188028576D01*
X174240074Y-188028576D01*
X174240069Y-188028577D01*
X174042002Y-188097129D01*
X173860492Y-188201923D01*
X173860481Y-188201931D01*
X173702083Y-188339185D01*
X173702079Y-188339189D01*
X173572518Y-188503937D01*
X173476470Y-188690244D01*
X173417423Y-188891343D01*
X173417420Y-188891360D01*
X173397498Y-189099994D01*
X173397498Y-189100005D01*
X131200000Y-189100005D01*
X131200000Y-187800005D01*
X150822498Y-187800005D01*
X150842420Y-188008639D01*
X150842423Y-188008656D01*
X150901470Y-188209755D01*
X150901471Y-188209758D01*
X150901472Y-188209759D01*
X150930871Y-188266785D01*
X150997518Y-188396062D01*
X151127079Y-188560810D01*
X151127083Y-188560814D01*
X151285481Y-188698068D01*
X151285492Y-188698076D01*
X151443652Y-188789389D01*
X151467004Y-188802871D01*
X151665075Y-188871424D01*
X151872541Y-188901253D01*
X152081902Y-188891280D01*
X152285593Y-188841865D01*
X152476251Y-188754795D01*
X152646985Y-188633215D01*
X152791625Y-188481522D01*
X152904943Y-188305196D01*
X152982843Y-188110611D01*
X153022510Y-187904799D01*
X153025000Y-187800005D01*
X204822498Y-187800005D01*
X204842420Y-188008639D01*
X204842423Y-188008656D01*
X204901470Y-188209755D01*
X204901471Y-188209758D01*
X204901472Y-188209759D01*
X204930871Y-188266785D01*
X204997518Y-188396062D01*
X205127079Y-188560810D01*
X205127083Y-188560814D01*
X205285481Y-188698068D01*
X205285492Y-188698076D01*
X205443652Y-188789389D01*
X205467004Y-188802871D01*
X205665075Y-188871424D01*
X205872541Y-188901253D01*
X206081902Y-188891280D01*
X206285593Y-188841865D01*
X206476251Y-188754795D01*
X206646985Y-188633215D01*
X206791625Y-188481522D01*
X206904943Y-188305196D01*
X206982843Y-188110611D01*
X207022510Y-187904799D01*
X207025000Y-187800000D01*
X207022510Y-187695201D01*
X206982843Y-187489389D01*
X206904943Y-187294804D01*
X206791625Y-187118478D01*
X206716019Y-187039185D01*
X206646987Y-186966786D01*
X206646984Y-186966784D01*
X206476253Y-186845206D01*
X206476251Y-186845205D01*
X206285593Y-186758135D01*
X206081902Y-186708720D01*
X205892489Y-186699697D01*
X205872543Y-186698747D01*
X205872542Y-186698747D01*
X205872541Y-186698747D01*
X205665075Y-186728576D01*
X205665074Y-186728576D01*
X205665069Y-186728577D01*
X205467002Y-186797129D01*
X205285492Y-186901923D01*
X205285481Y-186901931D01*
X205127083Y-187039185D01*
X205127079Y-187039189D01*
X204997518Y-187203937D01*
X204901470Y-187390244D01*
X204842423Y-187591343D01*
X204842420Y-187591360D01*
X204822498Y-187799994D01*
X204822498Y-187800005D01*
X153025000Y-187800005D01*
X153025000Y-187800000D01*
X153022510Y-187695201D01*
X152982843Y-187489389D01*
X152904943Y-187294804D01*
X152791625Y-187118478D01*
X152716019Y-187039185D01*
X152646987Y-186966786D01*
X152646984Y-186966784D01*
X152476253Y-186845206D01*
X152476251Y-186845205D01*
X152285593Y-186758135D01*
X152081902Y-186708720D01*
X151892489Y-186699697D01*
X151872543Y-186698747D01*
X151872542Y-186698747D01*
X151872541Y-186698747D01*
X151665075Y-186728576D01*
X151665074Y-186728576D01*
X151665069Y-186728577D01*
X151467002Y-186797129D01*
X151285492Y-186901923D01*
X151285481Y-186901931D01*
X151127083Y-187039185D01*
X151127079Y-187039189D01*
X150997518Y-187203937D01*
X150901470Y-187390244D01*
X150842423Y-187591343D01*
X150842420Y-187591360D01*
X150822498Y-187799994D01*
X150822498Y-187800005D01*
X131200000Y-187800005D01*
X131200000Y-64324000D01*
X131219685Y-64256961D01*
X131272489Y-64211206D01*
X131324000Y-64200000D01*
X223176000Y-64200000D01*
X223243039Y-64219685D01*
G37*
%TD.AperFunction*%
M02*
