M48
; DRILL file {KiCad 9.0.0} date 2025-07-31T18:00:14+0200
; FORMAT={-:-/ absolute / inch / decimal}
; #@! TF.CreationDate,2025-07-31T18:00:14+02:00
; #@! TF.GenerationSoftware,Kicad,Pcbnew,9.0.0
; #@! TF.FileFunction,Plated,1,2,PTH
FMAT,2
INCH
; #@! TA.AperFunction,Plated,PTH,ViaDrill
T1C0.0118
; #@! TA.AperFunction,Plated,PTH,ComponentDrill
T2C0.0276
; #@! TA.AperFunction,Plated,PTH,ComponentDrill
T3C0.0315
; #@! TA.AperFunction,Plated,PTH,ComponentDrill
T4C0.0354
; #@! TA.AperFunction,Plated,PTH,ComponentDrill
T5C0.0394
; #@! TA.AperFunction,Plated,PTH,ComponentDrill
T6C0.0433
%
G90
G05
T1
X3.2831Y-3.0508
X3.3303Y-2.9957
X3.4878Y-2.8303
X3.6531Y-2.9169
X3.8264Y-2.6413
T2
X4.1969Y-2.7362
X4.2717Y-2.7362
X4.2717Y-3.8504
X4.3465Y-3.8504
X4.3937Y-2.7362
X4.4685Y-2.7362
X4.5904Y-3.8504
X4.61Y-2.7362
X4.6652Y-3.8504
X4.6848Y-2.7362
T3
X3.7717Y-2.7852
X3.7717Y-2.864
X3.7756Y-3.0394
X3.7756Y-3.1181
X3.8876Y-3.9961
X3.9405Y-2.7122
X3.9405Y-2.9091
X3.9663Y-3.9961
X4.0394Y-2.9091
X4.0394Y-3.1059
X4.1378Y-4.0
X4.2165Y-4.0
X4.3504Y-4.0472
X4.4646Y-3.9449
X4.5276Y-2.951
X4.5276Y-3.0297
X4.5472Y-4.0472
X4.6614Y-3.9449
X4.6929Y-2.8937
X4.6929Y-3.0906
T4
X4.261Y-3.689
X4.2701Y-2.5394
X4.361Y-3.689
X4.3701Y-2.5394
X4.5563Y-2.5394
X4.5563Y-3.685
X4.6563Y-2.5394
X4.6563Y-3.685
X4.8319Y-2.5394
X4.9319Y-2.5394
T5
X3.0709Y-2.7441
X3.0709Y-2.8441
X3.0709Y-2.9441
X3.0709Y-3.0441
X3.0709Y-3.1441
X3.0709Y-3.6496
X3.0709Y-3.7496
X3.0709Y-3.8496
X3.0709Y-3.9496
X3.0709Y-4.0496
X3.1709Y-2.7441
X3.1709Y-2.8441
X3.1709Y-2.9441
X3.1709Y-3.0441
X3.1709Y-3.1441
X3.1709Y-3.6496
X3.1709Y-3.7496
X3.1709Y-3.8496
X3.1709Y-3.9496
X3.1709Y-4.0496
X3.2701Y-2.4669
X3.2701Y-2.5669
X3.3701Y-2.4669
X3.3701Y-2.5669
X3.4701Y-2.4669
X3.4701Y-2.5669
X3.5079Y-3.6142
X3.5079Y-3.7142
X3.5701Y-2.4669
X3.5701Y-2.5669
X3.6079Y-3.6142
X3.6079Y-3.7142
X3.6701Y-2.4669
X3.6701Y-2.5669
X3.7079Y-3.6142
X3.7079Y-3.7142
X3.7701Y-2.4669
X3.7701Y-2.5669
X3.8079Y-3.6142
X3.8079Y-3.7142
X3.8701Y-2.4669
X3.8701Y-2.5669
X3.9079Y-3.6142
X3.9079Y-3.7142
X3.9701Y-2.4669
X3.9701Y-2.5669
X4.1768Y-3.0665
X4.2768Y-3.0665
X4.8268Y-2.7441
X4.8268Y-2.8441
X4.8268Y-2.9441
X4.8268Y-3.0441
X4.8268Y-3.1441
X4.8291Y-3.6496
X4.8291Y-3.7496
X4.8291Y-3.8496
X4.8291Y-3.9496
X4.8291Y-4.0496
X4.9268Y-2.7441
X4.9268Y-2.8441
X4.9268Y-2.9441
X4.9268Y-3.0441
X4.9268Y-3.1441
X4.9291Y-3.6496
X4.9291Y-3.7496
X4.9291Y-3.8496
X4.9291Y-3.9496
X4.9291Y-4.0496
T6
X3.3063Y-2.7409
X3.3063Y-3.1409
X3.3063Y-4.0551
X3.3071Y-3.9173
X3.4331Y-2.7409
X3.4331Y-3.1409
X3.5591Y-2.7409
X3.5591Y-3.1409
X3.7063Y-4.0551
X3.7071Y-3.9173
M30
