%TF.GenerationSoftware,KiCad,Pcbnew,10.0.0*%
%TF.CreationDate,2026-06-22T18:20:13+02:00*%
%TF.ProjectId,Multiplexer1-16,4d756c74-6970-46c6-9578-6572312d3136,rev?*%
%TF.SameCoordinates,Original*%
%TF.FileFunction,Legend,Top*%
%TF.FilePolarity,Positive*%
%FSLAX46Y46*%
G04 Gerber Fmt 4.6, Leading zero omitted, Abs format (unit mm)*
G04 Created by KiCad (PCBNEW 10.0.0) date 2026-06-22 18:20:13*
%MOMM*%
%LPD*%
G01*
G04 APERTURE LIST*
%ADD10C,0.000000*%
%ADD11C,0.100000*%
%ADD12C,0.300000*%
%ADD13C,0.200000*%
%ADD14C,0.120000*%
%ADD15C,0.150000*%
G04 APERTURE END LIST*
D10*
G36*
X129279167Y-127929167D02*
G01*
X129014583Y-127929167D01*
X129014583Y-127664584D01*
X129279167Y-127664584D01*
X129279167Y-127929167D01*
G37*
G36*
X128750000Y-127929167D02*
G01*
X128485417Y-127929167D01*
X128485417Y-127664584D01*
X128750000Y-127664584D01*
X128750000Y-127929167D01*
G37*
G36*
X127956250Y-127929167D02*
G01*
X127691666Y-127929167D01*
X127691666Y-127664584D01*
X127956250Y-127664584D01*
X127956250Y-127929167D01*
G37*
G36*
X127691666Y-127929167D02*
G01*
X127427083Y-127929167D01*
X127427083Y-127664584D01*
X127691666Y-127664584D01*
X127691666Y-127929167D01*
G37*
G36*
X127427083Y-127929167D02*
G01*
X127162500Y-127929167D01*
X127162500Y-127664584D01*
X127427083Y-127664584D01*
X127427083Y-127929167D01*
G37*
G36*
X127162500Y-127929167D02*
G01*
X126897917Y-127929167D01*
X126897917Y-127664584D01*
X127162500Y-127664584D01*
X127162500Y-127929167D01*
G37*
G36*
X126897917Y-127929167D02*
G01*
X126633334Y-127929167D01*
X126633334Y-127664584D01*
X126897917Y-127664584D01*
X126897917Y-127929167D01*
G37*
G36*
X126104167Y-127929167D02*
G01*
X125839583Y-127929167D01*
X125839583Y-127664584D01*
X126104167Y-127664584D01*
X126104167Y-127929167D01*
G37*
G36*
X125575000Y-127929167D02*
G01*
X125310417Y-127929167D01*
X125310417Y-127664584D01*
X125575000Y-127664584D01*
X125575000Y-127929167D01*
G37*
G36*
X125045833Y-127929167D02*
G01*
X124781250Y-127929167D01*
X124781250Y-127664584D01*
X125045833Y-127664584D01*
X125045833Y-127929167D01*
G37*
G36*
X124781250Y-127929167D02*
G01*
X124516667Y-127929167D01*
X124516667Y-127664584D01*
X124781250Y-127664584D01*
X124781250Y-127929167D01*
G37*
G36*
X124516667Y-127929167D02*
G01*
X124252084Y-127929167D01*
X124252084Y-127664584D01*
X124516667Y-127664584D01*
X124516667Y-127929167D01*
G37*
G36*
X124252084Y-127929167D02*
G01*
X123987500Y-127929167D01*
X123987500Y-127664584D01*
X124252084Y-127664584D01*
X124252084Y-127929167D01*
G37*
G36*
X123722917Y-127929167D02*
G01*
X123458334Y-127929167D01*
X123458334Y-127664584D01*
X123722917Y-127664584D01*
X123722917Y-127929167D01*
G37*
G36*
X123458334Y-127929167D02*
G01*
X123193750Y-127929167D01*
X123193750Y-127664584D01*
X123458334Y-127664584D01*
X123458334Y-127929167D01*
G37*
G36*
X123193750Y-127929167D02*
G01*
X122929167Y-127929167D01*
X122929167Y-127664584D01*
X123193750Y-127664584D01*
X123193750Y-127929167D01*
G37*
G36*
X122929167Y-127929167D02*
G01*
X122664584Y-127929167D01*
X122664584Y-127664584D01*
X122929167Y-127664584D01*
X122929167Y-127929167D01*
G37*
G36*
X122664584Y-127929167D02*
G01*
X122400000Y-127929167D01*
X122400000Y-127664584D01*
X122664584Y-127664584D01*
X122664584Y-127929167D01*
G37*
G36*
X122400000Y-127929167D02*
G01*
X122135417Y-127929167D01*
X122135417Y-127664584D01*
X122400000Y-127664584D01*
X122400000Y-127929167D01*
G37*
G36*
X122135417Y-127929167D02*
G01*
X121870834Y-127929167D01*
X121870834Y-127664584D01*
X122135417Y-127664584D01*
X122135417Y-127929167D01*
G37*
G36*
X129279167Y-127664584D02*
G01*
X129014583Y-127664584D01*
X129014583Y-127400000D01*
X129279167Y-127400000D01*
X129279167Y-127664584D01*
G37*
G36*
X128750000Y-127664584D02*
G01*
X128485417Y-127664584D01*
X128485417Y-127400000D01*
X128750000Y-127400000D01*
X128750000Y-127664584D01*
G37*
G36*
X128220833Y-127664584D02*
G01*
X127956250Y-127664584D01*
X127956250Y-127400000D01*
X128220833Y-127400000D01*
X128220833Y-127664584D01*
G37*
G36*
X127691666Y-127664584D02*
G01*
X127427083Y-127664584D01*
X127427083Y-127400000D01*
X127691666Y-127400000D01*
X127691666Y-127664584D01*
G37*
G36*
X127427083Y-127664584D02*
G01*
X127162500Y-127664584D01*
X127162500Y-127400000D01*
X127427083Y-127400000D01*
X127427083Y-127664584D01*
G37*
G36*
X126368750Y-127664584D02*
G01*
X126104167Y-127664584D01*
X126104167Y-127400000D01*
X126368750Y-127400000D01*
X126368750Y-127664584D01*
G37*
G36*
X126104167Y-127664584D02*
G01*
X125839583Y-127664584D01*
X125839583Y-127400000D01*
X126104167Y-127400000D01*
X126104167Y-127664584D01*
G37*
G36*
X124516667Y-127664584D02*
G01*
X124252084Y-127664584D01*
X124252084Y-127400000D01*
X124516667Y-127400000D01*
X124516667Y-127664584D01*
G37*
G36*
X124252084Y-127664584D02*
G01*
X123987500Y-127664584D01*
X123987500Y-127400000D01*
X124252084Y-127400000D01*
X124252084Y-127664584D01*
G37*
G36*
X123722917Y-127664584D02*
G01*
X123458334Y-127664584D01*
X123458334Y-127400000D01*
X123722917Y-127400000D01*
X123722917Y-127664584D01*
G37*
G36*
X122135417Y-127664584D02*
G01*
X121870834Y-127664584D01*
X121870834Y-127400000D01*
X122135417Y-127400000D01*
X122135417Y-127664584D01*
G37*
G36*
X129543750Y-127400000D02*
G01*
X129279167Y-127400000D01*
X129279167Y-127135417D01*
X129543750Y-127135417D01*
X129543750Y-127400000D01*
G37*
G36*
X129014583Y-127400000D02*
G01*
X128750000Y-127400000D01*
X128750000Y-127135417D01*
X129014583Y-127135417D01*
X129014583Y-127400000D01*
G37*
G36*
X128220833Y-127400000D02*
G01*
X127956250Y-127400000D01*
X127956250Y-127135417D01*
X128220833Y-127135417D01*
X128220833Y-127400000D01*
G37*
G36*
X127427083Y-127400000D02*
G01*
X127162500Y-127400000D01*
X127162500Y-127135417D01*
X127427083Y-127135417D01*
X127427083Y-127400000D01*
G37*
G36*
X126897917Y-127400000D02*
G01*
X126633334Y-127400000D01*
X126633334Y-127135417D01*
X126897917Y-127135417D01*
X126897917Y-127400000D01*
G37*
G36*
X126368750Y-127400000D02*
G01*
X126104167Y-127400000D01*
X126104167Y-127135417D01*
X126368750Y-127135417D01*
X126368750Y-127400000D01*
G37*
G36*
X125575000Y-127400000D02*
G01*
X125310417Y-127400000D01*
X125310417Y-127135417D01*
X125575000Y-127135417D01*
X125575000Y-127400000D01*
G37*
G36*
X124781250Y-127400000D02*
G01*
X124516667Y-127400000D01*
X124516667Y-127135417D01*
X124781250Y-127135417D01*
X124781250Y-127400000D01*
G37*
G36*
X124516667Y-127400000D02*
G01*
X124252084Y-127400000D01*
X124252084Y-127135417D01*
X124516667Y-127135417D01*
X124516667Y-127400000D01*
G37*
G36*
X124252084Y-127400000D02*
G01*
X123987500Y-127400000D01*
X123987500Y-127135417D01*
X124252084Y-127135417D01*
X124252084Y-127400000D01*
G37*
G36*
X123722917Y-127400000D02*
G01*
X123458334Y-127400000D01*
X123458334Y-127135417D01*
X123722917Y-127135417D01*
X123722917Y-127400000D01*
G37*
G36*
X123193750Y-127400000D02*
G01*
X122929167Y-127400000D01*
X122929167Y-127135417D01*
X123193750Y-127135417D01*
X123193750Y-127400000D01*
G37*
G36*
X122929167Y-127400000D02*
G01*
X122664584Y-127400000D01*
X122664584Y-127135417D01*
X122929167Y-127135417D01*
X122929167Y-127400000D01*
G37*
G36*
X122664584Y-127400000D02*
G01*
X122400000Y-127400000D01*
X122400000Y-127135417D01*
X122664584Y-127135417D01*
X122664584Y-127400000D01*
G37*
G36*
X122135417Y-127400000D02*
G01*
X121870834Y-127400000D01*
X121870834Y-127135417D01*
X122135417Y-127135417D01*
X122135417Y-127400000D01*
G37*
G36*
X129543750Y-127135417D02*
G01*
X129279167Y-127135417D01*
X129279167Y-126870834D01*
X129543750Y-126870834D01*
X129543750Y-127135417D01*
G37*
G36*
X128750000Y-127135417D02*
G01*
X128485417Y-127135417D01*
X128485417Y-126870834D01*
X128750000Y-126870834D01*
X128750000Y-127135417D01*
G37*
G36*
X128485417Y-127135417D02*
G01*
X128220833Y-127135417D01*
X128220833Y-126870834D01*
X128485417Y-126870834D01*
X128485417Y-127135417D01*
G37*
G36*
X127691666Y-127135417D02*
G01*
X127427083Y-127135417D01*
X127427083Y-126870834D01*
X127691666Y-126870834D01*
X127691666Y-127135417D01*
G37*
G36*
X127162500Y-127135417D02*
G01*
X126897917Y-127135417D01*
X126897917Y-126870834D01*
X127162500Y-126870834D01*
X127162500Y-127135417D01*
G37*
G36*
X126368750Y-127135417D02*
G01*
X126104167Y-127135417D01*
X126104167Y-126870834D01*
X126368750Y-126870834D01*
X126368750Y-127135417D01*
G37*
G36*
X126104167Y-127135417D02*
G01*
X125839583Y-127135417D01*
X125839583Y-126870834D01*
X126104167Y-126870834D01*
X126104167Y-127135417D01*
G37*
G36*
X125310417Y-127135417D02*
G01*
X125045833Y-127135417D01*
X125045833Y-126870834D01*
X125310417Y-126870834D01*
X125310417Y-127135417D01*
G37*
G36*
X124781250Y-127135417D02*
G01*
X124516667Y-127135417D01*
X124516667Y-126870834D01*
X124781250Y-126870834D01*
X124781250Y-127135417D01*
G37*
G36*
X124252084Y-127135417D02*
G01*
X123987500Y-127135417D01*
X123987500Y-126870834D01*
X124252084Y-126870834D01*
X124252084Y-127135417D01*
G37*
G36*
X123722917Y-127135417D02*
G01*
X123458334Y-127135417D01*
X123458334Y-126870834D01*
X123722917Y-126870834D01*
X123722917Y-127135417D01*
G37*
G36*
X123193750Y-127135417D02*
G01*
X122929167Y-127135417D01*
X122929167Y-126870834D01*
X123193750Y-126870834D01*
X123193750Y-127135417D01*
G37*
G36*
X122929167Y-127135417D02*
G01*
X122664584Y-127135417D01*
X122664584Y-126870834D01*
X122929167Y-126870834D01*
X122929167Y-127135417D01*
G37*
G36*
X122664584Y-127135417D02*
G01*
X122400000Y-127135417D01*
X122400000Y-126870834D01*
X122664584Y-126870834D01*
X122664584Y-127135417D01*
G37*
G36*
X122135417Y-127135417D02*
G01*
X121870834Y-127135417D01*
X121870834Y-126870834D01*
X122135417Y-126870834D01*
X122135417Y-127135417D01*
G37*
G36*
X129543750Y-126870834D02*
G01*
X129279167Y-126870834D01*
X129279167Y-126606250D01*
X129543750Y-126606250D01*
X129543750Y-126870834D01*
G37*
G36*
X129014583Y-126870834D02*
G01*
X128750000Y-126870834D01*
X128750000Y-126606250D01*
X129014583Y-126606250D01*
X129014583Y-126870834D01*
G37*
G36*
X128485417Y-126870834D02*
G01*
X128220833Y-126870834D01*
X128220833Y-126606250D01*
X128485417Y-126606250D01*
X128485417Y-126870834D01*
G37*
G36*
X128220833Y-126870834D02*
G01*
X127956250Y-126870834D01*
X127956250Y-126606250D01*
X128220833Y-126606250D01*
X128220833Y-126870834D01*
G37*
G36*
X127956250Y-126870834D02*
G01*
X127691666Y-126870834D01*
X127691666Y-126606250D01*
X127956250Y-126606250D01*
X127956250Y-126870834D01*
G37*
G36*
X127691666Y-126870834D02*
G01*
X127427083Y-126870834D01*
X127427083Y-126606250D01*
X127691666Y-126606250D01*
X127691666Y-126870834D01*
G37*
G36*
X127427083Y-126870834D02*
G01*
X127162500Y-126870834D01*
X127162500Y-126606250D01*
X127427083Y-126606250D01*
X127427083Y-126870834D01*
G37*
G36*
X126633334Y-126870834D02*
G01*
X126368750Y-126870834D01*
X126368750Y-126606250D01*
X126633334Y-126606250D01*
X126633334Y-126870834D01*
G37*
G36*
X125839583Y-126870834D02*
G01*
X125575000Y-126870834D01*
X125575000Y-126606250D01*
X125839583Y-126606250D01*
X125839583Y-126870834D01*
G37*
G36*
X125575000Y-126870834D02*
G01*
X125310417Y-126870834D01*
X125310417Y-126606250D01*
X125575000Y-126606250D01*
X125575000Y-126870834D01*
G37*
G36*
X125310417Y-126870834D02*
G01*
X125045833Y-126870834D01*
X125045833Y-126606250D01*
X125310417Y-126606250D01*
X125310417Y-126870834D01*
G37*
G36*
X124781250Y-126870834D02*
G01*
X124516667Y-126870834D01*
X124516667Y-126606250D01*
X124781250Y-126606250D01*
X124781250Y-126870834D01*
G37*
G36*
X123722917Y-126870834D02*
G01*
X123458334Y-126870834D01*
X123458334Y-126606250D01*
X123722917Y-126606250D01*
X123722917Y-126870834D01*
G37*
G36*
X123193750Y-126870834D02*
G01*
X122929167Y-126870834D01*
X122929167Y-126606250D01*
X123193750Y-126606250D01*
X123193750Y-126870834D01*
G37*
G36*
X122929167Y-126870834D02*
G01*
X122664584Y-126870834D01*
X122664584Y-126606250D01*
X122929167Y-126606250D01*
X122929167Y-126870834D01*
G37*
G36*
X122664584Y-126870834D02*
G01*
X122400000Y-126870834D01*
X122400000Y-126606250D01*
X122664584Y-126606250D01*
X122664584Y-126870834D01*
G37*
G36*
X122135417Y-126870834D02*
G01*
X121870834Y-126870834D01*
X121870834Y-126606250D01*
X122135417Y-126606250D01*
X122135417Y-126870834D01*
G37*
G36*
X129543750Y-126606250D02*
G01*
X129279167Y-126606250D01*
X129279167Y-126341667D01*
X129543750Y-126341667D01*
X129543750Y-126606250D01*
G37*
G36*
X129279167Y-126606250D02*
G01*
X129014583Y-126606250D01*
X129014583Y-126341667D01*
X129279167Y-126341667D01*
X129279167Y-126606250D01*
G37*
G36*
X128750000Y-126606250D02*
G01*
X128485417Y-126606250D01*
X128485417Y-126341667D01*
X128750000Y-126341667D01*
X128750000Y-126606250D01*
G37*
G36*
X128485417Y-126606250D02*
G01*
X128220833Y-126606250D01*
X128220833Y-126341667D01*
X128485417Y-126341667D01*
X128485417Y-126606250D01*
G37*
G36*
X127427083Y-126606250D02*
G01*
X127162500Y-126606250D01*
X127162500Y-126341667D01*
X127427083Y-126341667D01*
X127427083Y-126606250D01*
G37*
G36*
X126897917Y-126606250D02*
G01*
X126633334Y-126606250D01*
X126633334Y-126341667D01*
X126897917Y-126341667D01*
X126897917Y-126606250D01*
G37*
G36*
X126368750Y-126606250D02*
G01*
X126104167Y-126606250D01*
X126104167Y-126341667D01*
X126368750Y-126341667D01*
X126368750Y-126606250D01*
G37*
G36*
X125575000Y-126606250D02*
G01*
X125310417Y-126606250D01*
X125310417Y-126341667D01*
X125575000Y-126341667D01*
X125575000Y-126606250D01*
G37*
G36*
X125310417Y-126606250D02*
G01*
X125045833Y-126606250D01*
X125045833Y-126341667D01*
X125310417Y-126341667D01*
X125310417Y-126606250D01*
G37*
G36*
X125045833Y-126606250D02*
G01*
X124781250Y-126606250D01*
X124781250Y-126341667D01*
X125045833Y-126341667D01*
X125045833Y-126606250D01*
G37*
G36*
X124781250Y-126606250D02*
G01*
X124516667Y-126606250D01*
X124516667Y-126341667D01*
X124781250Y-126341667D01*
X124781250Y-126606250D01*
G37*
G36*
X124516667Y-126606250D02*
G01*
X124252084Y-126606250D01*
X124252084Y-126341667D01*
X124516667Y-126341667D01*
X124516667Y-126606250D01*
G37*
G36*
X123722917Y-126606250D02*
G01*
X123458334Y-126606250D01*
X123458334Y-126341667D01*
X123722917Y-126341667D01*
X123722917Y-126606250D01*
G37*
G36*
X122135417Y-126606250D02*
G01*
X121870834Y-126606250D01*
X121870834Y-126341667D01*
X122135417Y-126341667D01*
X122135417Y-126606250D01*
G37*
G36*
X129279167Y-126341667D02*
G01*
X129014583Y-126341667D01*
X129014583Y-126077083D01*
X129279167Y-126077083D01*
X129279167Y-126341667D01*
G37*
G36*
X128750000Y-126341667D02*
G01*
X128485417Y-126341667D01*
X128485417Y-126077083D01*
X128750000Y-126077083D01*
X128750000Y-126341667D01*
G37*
G36*
X128485417Y-126341667D02*
G01*
X128220833Y-126341667D01*
X128220833Y-126077083D01*
X128485417Y-126077083D01*
X128485417Y-126341667D01*
G37*
G36*
X127956250Y-126341667D02*
G01*
X127691666Y-126341667D01*
X127691666Y-126077083D01*
X127956250Y-126077083D01*
X127956250Y-126341667D01*
G37*
G36*
X127427083Y-126341667D02*
G01*
X127162500Y-126341667D01*
X127162500Y-126077083D01*
X127427083Y-126077083D01*
X127427083Y-126341667D01*
G37*
G36*
X127162500Y-126341667D02*
G01*
X126897917Y-126341667D01*
X126897917Y-126077083D01*
X127162500Y-126077083D01*
X127162500Y-126341667D01*
G37*
G36*
X126633334Y-126341667D02*
G01*
X126368750Y-126341667D01*
X126368750Y-126077083D01*
X126633334Y-126077083D01*
X126633334Y-126341667D01*
G37*
G36*
X126368750Y-126341667D02*
G01*
X126104167Y-126341667D01*
X126104167Y-126077083D01*
X126368750Y-126077083D01*
X126368750Y-126341667D01*
G37*
G36*
X125575000Y-126341667D02*
G01*
X125310417Y-126341667D01*
X125310417Y-126077083D01*
X125575000Y-126077083D01*
X125575000Y-126341667D01*
G37*
G36*
X125045833Y-126341667D02*
G01*
X124781250Y-126341667D01*
X124781250Y-126077083D01*
X125045833Y-126077083D01*
X125045833Y-126341667D01*
G37*
G36*
X123722917Y-126341667D02*
G01*
X123458334Y-126341667D01*
X123458334Y-126077083D01*
X123722917Y-126077083D01*
X123722917Y-126341667D01*
G37*
G36*
X123458334Y-126341667D02*
G01*
X123193750Y-126341667D01*
X123193750Y-126077083D01*
X123458334Y-126077083D01*
X123458334Y-126341667D01*
G37*
G36*
X123193750Y-126341667D02*
G01*
X122929167Y-126341667D01*
X122929167Y-126077083D01*
X123193750Y-126077083D01*
X123193750Y-126341667D01*
G37*
G36*
X122929167Y-126341667D02*
G01*
X122664584Y-126341667D01*
X122664584Y-126077083D01*
X122929167Y-126077083D01*
X122929167Y-126341667D01*
G37*
G36*
X122664584Y-126341667D02*
G01*
X122400000Y-126341667D01*
X122400000Y-126077083D01*
X122664584Y-126077083D01*
X122664584Y-126341667D01*
G37*
G36*
X122400000Y-126341667D02*
G01*
X122135417Y-126341667D01*
X122135417Y-126077083D01*
X122400000Y-126077083D01*
X122400000Y-126341667D01*
G37*
G36*
X122135417Y-126341667D02*
G01*
X121870834Y-126341667D01*
X121870834Y-126077083D01*
X122135417Y-126077083D01*
X122135417Y-126341667D01*
G37*
G36*
X129543750Y-126077083D02*
G01*
X129279167Y-126077083D01*
X129279167Y-125812500D01*
X129543750Y-125812500D01*
X129543750Y-126077083D01*
G37*
G36*
X129279167Y-126077083D02*
G01*
X129014583Y-126077083D01*
X129014583Y-125812500D01*
X129279167Y-125812500D01*
X129279167Y-126077083D01*
G37*
G36*
X129014583Y-126077083D02*
G01*
X128750000Y-126077083D01*
X128750000Y-125812500D01*
X129014583Y-125812500D01*
X129014583Y-126077083D01*
G37*
G36*
X128750000Y-126077083D02*
G01*
X128485417Y-126077083D01*
X128485417Y-125812500D01*
X128750000Y-125812500D01*
X128750000Y-126077083D01*
G37*
G36*
X128485417Y-126077083D02*
G01*
X128220833Y-126077083D01*
X128220833Y-125812500D01*
X128485417Y-125812500D01*
X128485417Y-126077083D01*
G37*
G36*
X127427083Y-126077083D02*
G01*
X127162500Y-126077083D01*
X127162500Y-125812500D01*
X127427083Y-125812500D01*
X127427083Y-126077083D01*
G37*
G36*
X126633334Y-126077083D02*
G01*
X126368750Y-126077083D01*
X126368750Y-125812500D01*
X126633334Y-125812500D01*
X126633334Y-126077083D01*
G37*
G36*
X126368750Y-126077083D02*
G01*
X126104167Y-126077083D01*
X126104167Y-125812500D01*
X126368750Y-125812500D01*
X126368750Y-126077083D01*
G37*
G36*
X125575000Y-126077083D02*
G01*
X125310417Y-126077083D01*
X125310417Y-125812500D01*
X125575000Y-125812500D01*
X125575000Y-126077083D01*
G37*
G36*
X125310417Y-126077083D02*
G01*
X125045833Y-126077083D01*
X125045833Y-125812500D01*
X125310417Y-125812500D01*
X125310417Y-126077083D01*
G37*
G36*
X124781250Y-126077083D02*
G01*
X124516667Y-126077083D01*
X124516667Y-125812500D01*
X124781250Y-125812500D01*
X124781250Y-126077083D01*
G37*
G36*
X124252084Y-126077083D02*
G01*
X123987500Y-126077083D01*
X123987500Y-125812500D01*
X124252084Y-125812500D01*
X124252084Y-126077083D01*
G37*
G36*
X129014583Y-125812500D02*
G01*
X128750000Y-125812500D01*
X128750000Y-125547917D01*
X129014583Y-125547917D01*
X129014583Y-125812500D01*
G37*
G36*
X128750000Y-125812500D02*
G01*
X128485417Y-125812500D01*
X128485417Y-125547917D01*
X128750000Y-125547917D01*
X128750000Y-125812500D01*
G37*
G36*
X128485417Y-125812500D02*
G01*
X128220833Y-125812500D01*
X128220833Y-125547917D01*
X128485417Y-125547917D01*
X128485417Y-125812500D01*
G37*
G36*
X128220833Y-125812500D02*
G01*
X127956250Y-125812500D01*
X127956250Y-125547917D01*
X128220833Y-125547917D01*
X128220833Y-125812500D01*
G37*
G36*
X127956250Y-125812500D02*
G01*
X127691666Y-125812500D01*
X127691666Y-125547917D01*
X127956250Y-125547917D01*
X127956250Y-125812500D01*
G37*
G36*
X127691666Y-125812500D02*
G01*
X127427083Y-125812500D01*
X127427083Y-125547917D01*
X127691666Y-125547917D01*
X127691666Y-125812500D01*
G37*
G36*
X127427083Y-125812500D02*
G01*
X127162500Y-125812500D01*
X127162500Y-125547917D01*
X127427083Y-125547917D01*
X127427083Y-125812500D01*
G37*
G36*
X126897917Y-125812500D02*
G01*
X126633334Y-125812500D01*
X126633334Y-125547917D01*
X126897917Y-125547917D01*
X126897917Y-125812500D01*
G37*
G36*
X126633334Y-125812500D02*
G01*
X126368750Y-125812500D01*
X126368750Y-125547917D01*
X126633334Y-125547917D01*
X126633334Y-125812500D01*
G37*
G36*
X126368750Y-125812500D02*
G01*
X126104167Y-125812500D01*
X126104167Y-125547917D01*
X126368750Y-125547917D01*
X126368750Y-125812500D01*
G37*
G36*
X126104167Y-125812500D02*
G01*
X125839583Y-125812500D01*
X125839583Y-125547917D01*
X126104167Y-125547917D01*
X126104167Y-125812500D01*
G37*
G36*
X125045833Y-125812500D02*
G01*
X124781250Y-125812500D01*
X124781250Y-125547917D01*
X125045833Y-125547917D01*
X125045833Y-125812500D01*
G37*
G36*
X124781250Y-125812500D02*
G01*
X124516667Y-125812500D01*
X124516667Y-125547917D01*
X124781250Y-125547917D01*
X124781250Y-125812500D01*
G37*
G36*
X123987500Y-125812500D02*
G01*
X123722917Y-125812500D01*
X123722917Y-125547917D01*
X123987500Y-125547917D01*
X123987500Y-125812500D01*
G37*
G36*
X123722917Y-125812500D02*
G01*
X123458334Y-125812500D01*
X123458334Y-125547917D01*
X123722917Y-125547917D01*
X123722917Y-125812500D01*
G37*
G36*
X122400000Y-125812500D02*
G01*
X122135417Y-125812500D01*
X122135417Y-125547917D01*
X122400000Y-125547917D01*
X122400000Y-125812500D01*
G37*
G36*
X129014583Y-125547917D02*
G01*
X128750000Y-125547917D01*
X128750000Y-125283334D01*
X129014583Y-125283334D01*
X129014583Y-125547917D01*
G37*
G36*
X127956250Y-125547917D02*
G01*
X127691666Y-125547917D01*
X127691666Y-125283334D01*
X127956250Y-125283334D01*
X127956250Y-125547917D01*
G37*
G36*
X126897917Y-125547917D02*
G01*
X126633334Y-125547917D01*
X126633334Y-125283334D01*
X126897917Y-125283334D01*
X126897917Y-125547917D01*
G37*
G36*
X126633334Y-125547917D02*
G01*
X126368750Y-125547917D01*
X126368750Y-125283334D01*
X126633334Y-125283334D01*
X126633334Y-125547917D01*
G37*
G36*
X126368750Y-125547917D02*
G01*
X126104167Y-125547917D01*
X126104167Y-125283334D01*
X126368750Y-125283334D01*
X126368750Y-125547917D01*
G37*
G36*
X126104167Y-125547917D02*
G01*
X125839583Y-125547917D01*
X125839583Y-125283334D01*
X126104167Y-125283334D01*
X126104167Y-125547917D01*
G37*
G36*
X125839583Y-125547917D02*
G01*
X125575000Y-125547917D01*
X125575000Y-125283334D01*
X125839583Y-125283334D01*
X125839583Y-125547917D01*
G37*
G36*
X125310417Y-125547917D02*
G01*
X125045833Y-125547917D01*
X125045833Y-125283334D01*
X125310417Y-125283334D01*
X125310417Y-125547917D01*
G37*
G36*
X124781250Y-125547917D02*
G01*
X124516667Y-125547917D01*
X124516667Y-125283334D01*
X124781250Y-125283334D01*
X124781250Y-125547917D01*
G37*
G36*
X124516667Y-125547917D02*
G01*
X124252084Y-125547917D01*
X124252084Y-125283334D01*
X124516667Y-125283334D01*
X124516667Y-125547917D01*
G37*
G36*
X123987500Y-125547917D02*
G01*
X123722917Y-125547917D01*
X123722917Y-125283334D01*
X123987500Y-125283334D01*
X123987500Y-125547917D01*
G37*
G36*
X123193750Y-125547917D02*
G01*
X122929167Y-125547917D01*
X122929167Y-125283334D01*
X123193750Y-125283334D01*
X123193750Y-125547917D01*
G37*
G36*
X122929167Y-125547917D02*
G01*
X122664584Y-125547917D01*
X122664584Y-125283334D01*
X122929167Y-125283334D01*
X122929167Y-125547917D01*
G37*
G36*
X129014583Y-125283334D02*
G01*
X128750000Y-125283334D01*
X128750000Y-125018751D01*
X129014583Y-125018751D01*
X129014583Y-125283334D01*
G37*
G36*
X128220833Y-125283334D02*
G01*
X127956250Y-125283334D01*
X127956250Y-125018751D01*
X128220833Y-125018751D01*
X128220833Y-125283334D01*
G37*
G36*
X127956250Y-125283334D02*
G01*
X127691666Y-125283334D01*
X127691666Y-125018751D01*
X127956250Y-125018751D01*
X127956250Y-125283334D01*
G37*
G36*
X127427083Y-125283334D02*
G01*
X127162500Y-125283334D01*
X127162500Y-125018751D01*
X127427083Y-125018751D01*
X127427083Y-125283334D01*
G37*
G36*
X126897917Y-125283334D02*
G01*
X126633334Y-125283334D01*
X126633334Y-125018751D01*
X126897917Y-125018751D01*
X126897917Y-125283334D01*
G37*
G36*
X126633334Y-125283334D02*
G01*
X126368750Y-125283334D01*
X126368750Y-125018751D01*
X126633334Y-125018751D01*
X126633334Y-125283334D01*
G37*
G36*
X126104167Y-125283334D02*
G01*
X125839583Y-125283334D01*
X125839583Y-125018751D01*
X126104167Y-125018751D01*
X126104167Y-125283334D01*
G37*
G36*
X125575000Y-125283334D02*
G01*
X125310417Y-125283334D01*
X125310417Y-125018751D01*
X125575000Y-125018751D01*
X125575000Y-125283334D01*
G37*
G36*
X125310417Y-125283334D02*
G01*
X125045833Y-125283334D01*
X125045833Y-125018751D01*
X125310417Y-125018751D01*
X125310417Y-125283334D01*
G37*
G36*
X125045833Y-125283334D02*
G01*
X124781250Y-125283334D01*
X124781250Y-125018751D01*
X125045833Y-125018751D01*
X125045833Y-125283334D01*
G37*
G36*
X124781250Y-125283334D02*
G01*
X124516667Y-125283334D01*
X124516667Y-125018751D01*
X124781250Y-125018751D01*
X124781250Y-125283334D01*
G37*
G36*
X123722917Y-125283334D02*
G01*
X123458334Y-125283334D01*
X123458334Y-125018751D01*
X123722917Y-125018751D01*
X123722917Y-125283334D01*
G37*
G36*
X123458334Y-125283334D02*
G01*
X123193750Y-125283334D01*
X123193750Y-125018751D01*
X123458334Y-125018751D01*
X123458334Y-125283334D01*
G37*
G36*
X123193750Y-125283334D02*
G01*
X122929167Y-125283334D01*
X122929167Y-125018751D01*
X123193750Y-125018751D01*
X123193750Y-125283334D01*
G37*
G36*
X122929167Y-125283334D02*
G01*
X122664584Y-125283334D01*
X122664584Y-125018751D01*
X122929167Y-125018751D01*
X122929167Y-125283334D01*
G37*
G36*
X122664584Y-125283334D02*
G01*
X122400000Y-125283334D01*
X122400000Y-125018751D01*
X122664584Y-125018751D01*
X122664584Y-125283334D01*
G37*
G36*
X122135417Y-125283334D02*
G01*
X121870834Y-125283334D01*
X121870834Y-125018751D01*
X122135417Y-125018751D01*
X122135417Y-125283334D01*
G37*
G36*
X129279167Y-125018751D02*
G01*
X129014583Y-125018751D01*
X129014583Y-124754167D01*
X129279167Y-124754167D01*
X129279167Y-125018751D01*
G37*
G36*
X129014583Y-125018751D02*
G01*
X128750000Y-125018751D01*
X128750000Y-124754167D01*
X129014583Y-124754167D01*
X129014583Y-125018751D01*
G37*
G36*
X128750000Y-125018751D02*
G01*
X128485417Y-125018751D01*
X128485417Y-124754167D01*
X128750000Y-124754167D01*
X128750000Y-125018751D01*
G37*
G36*
X128220833Y-125018751D02*
G01*
X127956250Y-125018751D01*
X127956250Y-124754167D01*
X128220833Y-124754167D01*
X128220833Y-125018751D01*
G37*
G36*
X126897917Y-125018751D02*
G01*
X126633334Y-125018751D01*
X126633334Y-124754167D01*
X126897917Y-124754167D01*
X126897917Y-125018751D01*
G37*
G36*
X126104167Y-125018751D02*
G01*
X125839583Y-125018751D01*
X125839583Y-124754167D01*
X126104167Y-124754167D01*
X126104167Y-125018751D01*
G37*
G36*
X125575000Y-125018751D02*
G01*
X125310417Y-125018751D01*
X125310417Y-124754167D01*
X125575000Y-124754167D01*
X125575000Y-125018751D01*
G37*
G36*
X125310417Y-125018751D02*
G01*
X125045833Y-125018751D01*
X125045833Y-124754167D01*
X125310417Y-124754167D01*
X125310417Y-125018751D01*
G37*
G36*
X124781250Y-125018751D02*
G01*
X124516667Y-125018751D01*
X124516667Y-124754167D01*
X124781250Y-124754167D01*
X124781250Y-125018751D01*
G37*
G36*
X124516667Y-125018751D02*
G01*
X124252084Y-125018751D01*
X124252084Y-124754167D01*
X124516667Y-124754167D01*
X124516667Y-125018751D01*
G37*
G36*
X124252084Y-125018751D02*
G01*
X123987500Y-125018751D01*
X123987500Y-124754167D01*
X124252084Y-124754167D01*
X124252084Y-125018751D01*
G37*
G36*
X123987500Y-125018751D02*
G01*
X123722917Y-125018751D01*
X123722917Y-124754167D01*
X123987500Y-124754167D01*
X123987500Y-125018751D01*
G37*
G36*
X123193750Y-125018751D02*
G01*
X122929167Y-125018751D01*
X122929167Y-124754167D01*
X123193750Y-124754167D01*
X123193750Y-125018751D01*
G37*
G36*
X129279167Y-124754167D02*
G01*
X129014583Y-124754167D01*
X129014583Y-124489584D01*
X129279167Y-124489584D01*
X129279167Y-124754167D01*
G37*
G36*
X128750000Y-124754167D02*
G01*
X128485417Y-124754167D01*
X128485417Y-124489584D01*
X128750000Y-124489584D01*
X128750000Y-124754167D01*
G37*
G36*
X128485417Y-124754167D02*
G01*
X128220833Y-124754167D01*
X128220833Y-124489584D01*
X128485417Y-124489584D01*
X128485417Y-124754167D01*
G37*
G36*
X127427083Y-124754167D02*
G01*
X127162500Y-124754167D01*
X127162500Y-124489584D01*
X127427083Y-124489584D01*
X127427083Y-124754167D01*
G37*
G36*
X127162500Y-124754167D02*
G01*
X126897917Y-124754167D01*
X126897917Y-124489584D01*
X127162500Y-124489584D01*
X127162500Y-124754167D01*
G37*
G36*
X126897917Y-124754167D02*
G01*
X126633334Y-124754167D01*
X126633334Y-124489584D01*
X126897917Y-124489584D01*
X126897917Y-124754167D01*
G37*
G36*
X126104167Y-124754167D02*
G01*
X125839583Y-124754167D01*
X125839583Y-124489584D01*
X126104167Y-124489584D01*
X126104167Y-124754167D01*
G37*
G36*
X125575000Y-124754167D02*
G01*
X125310417Y-124754167D01*
X125310417Y-124489584D01*
X125575000Y-124489584D01*
X125575000Y-124754167D01*
G37*
G36*
X125045833Y-124754167D02*
G01*
X124781250Y-124754167D01*
X124781250Y-124489584D01*
X125045833Y-124489584D01*
X125045833Y-124754167D01*
G37*
G36*
X124781250Y-124754167D02*
G01*
X124516667Y-124754167D01*
X124516667Y-124489584D01*
X124781250Y-124489584D01*
X124781250Y-124754167D01*
G37*
G36*
X124252084Y-124754167D02*
G01*
X123987500Y-124754167D01*
X123987500Y-124489584D01*
X124252084Y-124489584D01*
X124252084Y-124754167D01*
G37*
G36*
X123722917Y-124754167D02*
G01*
X123458334Y-124754167D01*
X123458334Y-124489584D01*
X123722917Y-124489584D01*
X123722917Y-124754167D01*
G37*
G36*
X123458334Y-124754167D02*
G01*
X123193750Y-124754167D01*
X123193750Y-124489584D01*
X123458334Y-124489584D01*
X123458334Y-124754167D01*
G37*
G36*
X122664584Y-124754167D02*
G01*
X122400000Y-124754167D01*
X122400000Y-124489584D01*
X122664584Y-124489584D01*
X122664584Y-124754167D01*
G37*
G36*
X122135417Y-124754167D02*
G01*
X121870834Y-124754167D01*
X121870834Y-124489584D01*
X122135417Y-124489584D01*
X122135417Y-124754167D01*
G37*
G36*
X129279167Y-124489584D02*
G01*
X129014583Y-124489584D01*
X129014583Y-124225000D01*
X129279167Y-124225000D01*
X129279167Y-124489584D01*
G37*
G36*
X128485417Y-124489584D02*
G01*
X128220833Y-124489584D01*
X128220833Y-124225000D01*
X128485417Y-124225000D01*
X128485417Y-124489584D01*
G37*
G36*
X128220833Y-124489584D02*
G01*
X127956250Y-124489584D01*
X127956250Y-124225000D01*
X128220833Y-124225000D01*
X128220833Y-124489584D01*
G37*
G36*
X127427083Y-124489584D02*
G01*
X127162500Y-124489584D01*
X127162500Y-124225000D01*
X127427083Y-124225000D01*
X127427083Y-124489584D01*
G37*
G36*
X127162500Y-124489584D02*
G01*
X126897917Y-124489584D01*
X126897917Y-124225000D01*
X127162500Y-124225000D01*
X127162500Y-124489584D01*
G37*
G36*
X125839583Y-124489584D02*
G01*
X125575000Y-124489584D01*
X125575000Y-124225000D01*
X125839583Y-124225000D01*
X125839583Y-124489584D01*
G37*
G36*
X125310417Y-124489584D02*
G01*
X125045833Y-124489584D01*
X125045833Y-124225000D01*
X125310417Y-124225000D01*
X125310417Y-124489584D01*
G37*
G36*
X122400000Y-124489584D02*
G01*
X122135417Y-124489584D01*
X122135417Y-124225000D01*
X122400000Y-124225000D01*
X122400000Y-124489584D01*
G37*
G36*
X122135417Y-124489584D02*
G01*
X121870834Y-124489584D01*
X121870834Y-124225000D01*
X122135417Y-124225000D01*
X122135417Y-124489584D01*
G37*
G36*
X129543750Y-124225000D02*
G01*
X129279167Y-124225000D01*
X129279167Y-123960417D01*
X129543750Y-123960417D01*
X129543750Y-124225000D01*
G37*
G36*
X129279167Y-124225000D02*
G01*
X129014583Y-124225000D01*
X129014583Y-123960417D01*
X129279167Y-123960417D01*
X129279167Y-124225000D01*
G37*
G36*
X129014583Y-124225000D02*
G01*
X128750000Y-124225000D01*
X128750000Y-123960417D01*
X129014583Y-123960417D01*
X129014583Y-124225000D01*
G37*
G36*
X128485417Y-124225000D02*
G01*
X128220833Y-124225000D01*
X128220833Y-123960417D01*
X128485417Y-123960417D01*
X128485417Y-124225000D01*
G37*
G36*
X128220833Y-124225000D02*
G01*
X127956250Y-124225000D01*
X127956250Y-123960417D01*
X128220833Y-123960417D01*
X128220833Y-124225000D01*
G37*
G36*
X127427083Y-124225000D02*
G01*
X127162500Y-124225000D01*
X127162500Y-123960417D01*
X127427083Y-123960417D01*
X127427083Y-124225000D01*
G37*
G36*
X127162500Y-124225000D02*
G01*
X126897917Y-124225000D01*
X126897917Y-123960417D01*
X127162500Y-123960417D01*
X127162500Y-124225000D01*
G37*
G36*
X126897917Y-124225000D02*
G01*
X126633334Y-124225000D01*
X126633334Y-123960417D01*
X126897917Y-123960417D01*
X126897917Y-124225000D01*
G37*
G36*
X126633334Y-124225000D02*
G01*
X126368750Y-124225000D01*
X126368750Y-123960417D01*
X126633334Y-123960417D01*
X126633334Y-124225000D01*
G37*
G36*
X125839583Y-124225000D02*
G01*
X125575000Y-124225000D01*
X125575000Y-123960417D01*
X125839583Y-123960417D01*
X125839583Y-124225000D01*
G37*
G36*
X125310417Y-124225000D02*
G01*
X125045833Y-124225000D01*
X125045833Y-123960417D01*
X125310417Y-123960417D01*
X125310417Y-124225000D01*
G37*
G36*
X124252084Y-124225000D02*
G01*
X123987500Y-124225000D01*
X123987500Y-123960417D01*
X124252084Y-123960417D01*
X124252084Y-124225000D01*
G37*
G36*
X123722917Y-124225000D02*
G01*
X123458334Y-124225000D01*
X123458334Y-123960417D01*
X123722917Y-123960417D01*
X123722917Y-124225000D01*
G37*
G36*
X123458334Y-124225000D02*
G01*
X123193750Y-124225000D01*
X123193750Y-123960417D01*
X123458334Y-123960417D01*
X123458334Y-124225000D01*
G37*
G36*
X122664584Y-124225000D02*
G01*
X122400000Y-124225000D01*
X122400000Y-123960417D01*
X122664584Y-123960417D01*
X122664584Y-124225000D01*
G37*
G36*
X122400000Y-124225000D02*
G01*
X122135417Y-124225000D01*
X122135417Y-123960417D01*
X122400000Y-123960417D01*
X122400000Y-124225000D01*
G37*
G36*
X122135417Y-124225000D02*
G01*
X121870834Y-124225000D01*
X121870834Y-123960417D01*
X122135417Y-123960417D01*
X122135417Y-124225000D01*
G37*
G36*
X129543750Y-123960417D02*
G01*
X129279167Y-123960417D01*
X129279167Y-123695834D01*
X129543750Y-123695834D01*
X129543750Y-123960417D01*
G37*
G36*
X129279167Y-123960417D02*
G01*
X129014583Y-123960417D01*
X129014583Y-123695834D01*
X129279167Y-123695834D01*
X129279167Y-123960417D01*
G37*
G36*
X129014583Y-123960417D02*
G01*
X128750000Y-123960417D01*
X128750000Y-123695834D01*
X129014583Y-123695834D01*
X129014583Y-123960417D01*
G37*
G36*
X128220833Y-123960417D02*
G01*
X127956250Y-123960417D01*
X127956250Y-123695834D01*
X128220833Y-123695834D01*
X128220833Y-123960417D01*
G37*
G36*
X127956250Y-123960417D02*
G01*
X127691666Y-123960417D01*
X127691666Y-123695834D01*
X127956250Y-123695834D01*
X127956250Y-123960417D01*
G37*
G36*
X127162500Y-123960417D02*
G01*
X126897917Y-123960417D01*
X126897917Y-123695834D01*
X127162500Y-123695834D01*
X127162500Y-123960417D01*
G37*
G36*
X126104167Y-123960417D02*
G01*
X125839583Y-123960417D01*
X125839583Y-123695834D01*
X126104167Y-123695834D01*
X126104167Y-123960417D01*
G37*
G36*
X125045833Y-123960417D02*
G01*
X124781250Y-123960417D01*
X124781250Y-123695834D01*
X125045833Y-123695834D01*
X125045833Y-123960417D01*
G37*
G36*
X124781250Y-123960417D02*
G01*
X124516667Y-123960417D01*
X124516667Y-123695834D01*
X124781250Y-123695834D01*
X124781250Y-123960417D01*
G37*
G36*
X124252084Y-123960417D02*
G01*
X123987500Y-123960417D01*
X123987500Y-123695834D01*
X124252084Y-123695834D01*
X124252084Y-123960417D01*
G37*
G36*
X123458334Y-123960417D02*
G01*
X123193750Y-123960417D01*
X123193750Y-123695834D01*
X123458334Y-123695834D01*
X123458334Y-123960417D01*
G37*
G36*
X122400000Y-123960417D02*
G01*
X122135417Y-123960417D01*
X122135417Y-123695834D01*
X122400000Y-123695834D01*
X122400000Y-123960417D01*
G37*
G36*
X129014583Y-123695834D02*
G01*
X128750000Y-123695834D01*
X128750000Y-123431250D01*
X129014583Y-123431250D01*
X129014583Y-123695834D01*
G37*
G36*
X128750000Y-123695834D02*
G01*
X128485417Y-123695834D01*
X128485417Y-123431250D01*
X128750000Y-123431250D01*
X128750000Y-123695834D01*
G37*
G36*
X127162500Y-123695834D02*
G01*
X126897917Y-123695834D01*
X126897917Y-123431250D01*
X127162500Y-123431250D01*
X127162500Y-123695834D01*
G37*
G36*
X126897917Y-123695834D02*
G01*
X126633334Y-123695834D01*
X126633334Y-123431250D01*
X126897917Y-123431250D01*
X126897917Y-123695834D01*
G37*
G36*
X126633334Y-123695834D02*
G01*
X126368750Y-123695834D01*
X126368750Y-123431250D01*
X126633334Y-123431250D01*
X126633334Y-123695834D01*
G37*
G36*
X125575000Y-123695834D02*
G01*
X125310417Y-123695834D01*
X125310417Y-123431250D01*
X125575000Y-123431250D01*
X125575000Y-123695834D01*
G37*
G36*
X125045833Y-123695834D02*
G01*
X124781250Y-123695834D01*
X124781250Y-123431250D01*
X125045833Y-123431250D01*
X125045833Y-123695834D01*
G37*
G36*
X124516667Y-123695834D02*
G01*
X124252084Y-123695834D01*
X124252084Y-123431250D01*
X124516667Y-123431250D01*
X124516667Y-123695834D01*
G37*
G36*
X124252084Y-123695834D02*
G01*
X123987500Y-123695834D01*
X123987500Y-123431250D01*
X124252084Y-123431250D01*
X124252084Y-123695834D01*
G37*
G36*
X123987500Y-123695834D02*
G01*
X123722917Y-123695834D01*
X123722917Y-123431250D01*
X123987500Y-123431250D01*
X123987500Y-123695834D01*
G37*
G36*
X123722917Y-123695834D02*
G01*
X123458334Y-123695834D01*
X123458334Y-123431250D01*
X123722917Y-123431250D01*
X123722917Y-123695834D01*
G37*
G36*
X123193750Y-123695834D02*
G01*
X122929167Y-123695834D01*
X122929167Y-123431250D01*
X123193750Y-123431250D01*
X123193750Y-123695834D01*
G37*
G36*
X122929167Y-123695834D02*
G01*
X122664584Y-123695834D01*
X122664584Y-123431250D01*
X122929167Y-123431250D01*
X122929167Y-123695834D01*
G37*
G36*
X122135417Y-123695834D02*
G01*
X121870834Y-123695834D01*
X121870834Y-123431250D01*
X122135417Y-123431250D01*
X122135417Y-123695834D01*
G37*
G36*
X129543750Y-123431250D02*
G01*
X129279167Y-123431250D01*
X129279167Y-123166667D01*
X129543750Y-123166667D01*
X129543750Y-123431250D01*
G37*
G36*
X128485417Y-123431250D02*
G01*
X128220833Y-123431250D01*
X128220833Y-123166667D01*
X128485417Y-123166667D01*
X128485417Y-123431250D01*
G37*
G36*
X128220833Y-123431250D02*
G01*
X127956250Y-123431250D01*
X127956250Y-123166667D01*
X128220833Y-123166667D01*
X128220833Y-123431250D01*
G37*
G36*
X127956250Y-123431250D02*
G01*
X127691666Y-123431250D01*
X127691666Y-123166667D01*
X127956250Y-123166667D01*
X127956250Y-123431250D01*
G37*
G36*
X127427083Y-123431250D02*
G01*
X127162500Y-123431250D01*
X127162500Y-123166667D01*
X127427083Y-123166667D01*
X127427083Y-123431250D01*
G37*
G36*
X127162500Y-123431250D02*
G01*
X126897917Y-123431250D01*
X126897917Y-123166667D01*
X127162500Y-123166667D01*
X127162500Y-123431250D01*
G37*
G36*
X126897917Y-123431250D02*
G01*
X126633334Y-123431250D01*
X126633334Y-123166667D01*
X126897917Y-123166667D01*
X126897917Y-123431250D01*
G37*
G36*
X126104167Y-123431250D02*
G01*
X125839583Y-123431250D01*
X125839583Y-123166667D01*
X126104167Y-123166667D01*
X126104167Y-123431250D01*
G37*
G36*
X125575000Y-123431250D02*
G01*
X125310417Y-123431250D01*
X125310417Y-123166667D01*
X125575000Y-123166667D01*
X125575000Y-123431250D01*
G37*
G36*
X125310417Y-123431250D02*
G01*
X125045833Y-123431250D01*
X125045833Y-123166667D01*
X125310417Y-123166667D01*
X125310417Y-123431250D01*
G37*
G36*
X125045833Y-123431250D02*
G01*
X124781250Y-123431250D01*
X124781250Y-123166667D01*
X125045833Y-123166667D01*
X125045833Y-123431250D01*
G37*
G36*
X122400000Y-123431250D02*
G01*
X122135417Y-123431250D01*
X122135417Y-123166667D01*
X122400000Y-123166667D01*
X122400000Y-123431250D01*
G37*
G36*
X129279167Y-123166667D02*
G01*
X129014583Y-123166667D01*
X129014583Y-122902084D01*
X129279167Y-122902084D01*
X129279167Y-123166667D01*
G37*
G36*
X129014583Y-123166667D02*
G01*
X128750000Y-123166667D01*
X128750000Y-122902084D01*
X129014583Y-122902084D01*
X129014583Y-123166667D01*
G37*
G36*
X128485417Y-123166667D02*
G01*
X128220833Y-123166667D01*
X128220833Y-122902084D01*
X128485417Y-122902084D01*
X128485417Y-123166667D01*
G37*
G36*
X128220833Y-123166667D02*
G01*
X127956250Y-123166667D01*
X127956250Y-122902084D01*
X128220833Y-122902084D01*
X128220833Y-123166667D01*
G37*
G36*
X127691666Y-123166667D02*
G01*
X127427083Y-123166667D01*
X127427083Y-122902084D01*
X127691666Y-122902084D01*
X127691666Y-123166667D01*
G37*
G36*
X127427083Y-123166667D02*
G01*
X127162500Y-123166667D01*
X127162500Y-122902084D01*
X127427083Y-122902084D01*
X127427083Y-123166667D01*
G37*
G36*
X126368750Y-123166667D02*
G01*
X126104167Y-123166667D01*
X126104167Y-122902084D01*
X126368750Y-122902084D01*
X126368750Y-123166667D01*
G37*
G36*
X125575000Y-123166667D02*
G01*
X125310417Y-123166667D01*
X125310417Y-122902084D01*
X125575000Y-122902084D01*
X125575000Y-123166667D01*
G37*
G36*
X124252084Y-123166667D02*
G01*
X123987500Y-123166667D01*
X123987500Y-122902084D01*
X124252084Y-122902084D01*
X124252084Y-123166667D01*
G37*
G36*
X123987500Y-123166667D02*
G01*
X123722917Y-123166667D01*
X123722917Y-122902084D01*
X123987500Y-122902084D01*
X123987500Y-123166667D01*
G37*
G36*
X123722917Y-123166667D02*
G01*
X123458334Y-123166667D01*
X123458334Y-122902084D01*
X123722917Y-122902084D01*
X123722917Y-123166667D01*
G37*
G36*
X123193750Y-123166667D02*
G01*
X122929167Y-123166667D01*
X122929167Y-122902084D01*
X123193750Y-122902084D01*
X123193750Y-123166667D01*
G37*
G36*
X122400000Y-123166667D02*
G01*
X122135417Y-123166667D01*
X122135417Y-122902084D01*
X122400000Y-122902084D01*
X122400000Y-123166667D01*
G37*
G36*
X129543750Y-122902084D02*
G01*
X129279167Y-122902084D01*
X129279167Y-122637501D01*
X129543750Y-122637501D01*
X129543750Y-122902084D01*
G37*
G36*
X128485417Y-122902084D02*
G01*
X128220833Y-122902084D01*
X128220833Y-122637501D01*
X128485417Y-122637501D01*
X128485417Y-122902084D01*
G37*
G36*
X128220833Y-122902084D02*
G01*
X127956250Y-122902084D01*
X127956250Y-122637501D01*
X128220833Y-122637501D01*
X128220833Y-122902084D01*
G37*
G36*
X127956250Y-122902084D02*
G01*
X127691666Y-122902084D01*
X127691666Y-122637501D01*
X127956250Y-122637501D01*
X127956250Y-122902084D01*
G37*
G36*
X127427083Y-122902084D02*
G01*
X127162500Y-122902084D01*
X127162500Y-122637501D01*
X127427083Y-122637501D01*
X127427083Y-122902084D01*
G37*
G36*
X127162500Y-122902084D02*
G01*
X126897917Y-122902084D01*
X126897917Y-122637501D01*
X127162500Y-122637501D01*
X127162500Y-122902084D01*
G37*
G36*
X126368750Y-122902084D02*
G01*
X126104167Y-122902084D01*
X126104167Y-122637501D01*
X126368750Y-122637501D01*
X126368750Y-122902084D01*
G37*
G36*
X125839583Y-122902084D02*
G01*
X125575000Y-122902084D01*
X125575000Y-122637501D01*
X125839583Y-122637501D01*
X125839583Y-122902084D01*
G37*
G36*
X124516667Y-122902084D02*
G01*
X124252084Y-122902084D01*
X124252084Y-122637501D01*
X124516667Y-122637501D01*
X124516667Y-122902084D01*
G37*
G36*
X123193750Y-122902084D02*
G01*
X122929167Y-122902084D01*
X122929167Y-122637501D01*
X123193750Y-122637501D01*
X123193750Y-122902084D01*
G37*
G36*
X122400000Y-122902084D02*
G01*
X122135417Y-122902084D01*
X122135417Y-122637501D01*
X122400000Y-122637501D01*
X122400000Y-122902084D01*
G37*
G36*
X129543750Y-122637501D02*
G01*
X129279167Y-122637501D01*
X129279167Y-122372917D01*
X129543750Y-122372917D01*
X129543750Y-122637501D01*
G37*
G36*
X129014583Y-122637501D02*
G01*
X128750000Y-122637501D01*
X128750000Y-122372917D01*
X129014583Y-122372917D01*
X129014583Y-122637501D01*
G37*
G36*
X128750000Y-122637501D02*
G01*
X128485417Y-122637501D01*
X128485417Y-122372917D01*
X128750000Y-122372917D01*
X128750000Y-122637501D01*
G37*
G36*
X128485417Y-122637501D02*
G01*
X128220833Y-122637501D01*
X128220833Y-122372917D01*
X128485417Y-122372917D01*
X128485417Y-122637501D01*
G37*
G36*
X127691666Y-122637501D02*
G01*
X127427083Y-122637501D01*
X127427083Y-122372917D01*
X127691666Y-122372917D01*
X127691666Y-122637501D01*
G37*
G36*
X126897917Y-122637501D02*
G01*
X126633334Y-122637501D01*
X126633334Y-122372917D01*
X126897917Y-122372917D01*
X126897917Y-122637501D01*
G37*
G36*
X126633334Y-122637501D02*
G01*
X126368750Y-122637501D01*
X126368750Y-122372917D01*
X126633334Y-122372917D01*
X126633334Y-122637501D01*
G37*
G36*
X126368750Y-122637501D02*
G01*
X126104167Y-122637501D01*
X126104167Y-122372917D01*
X126368750Y-122372917D01*
X126368750Y-122637501D01*
G37*
G36*
X124252084Y-122637501D02*
G01*
X123987500Y-122637501D01*
X123987500Y-122372917D01*
X124252084Y-122372917D01*
X124252084Y-122637501D01*
G37*
G36*
X123722917Y-122637501D02*
G01*
X123458334Y-122637501D01*
X123458334Y-122372917D01*
X123722917Y-122372917D01*
X123722917Y-122637501D01*
G37*
G36*
X122929167Y-122637501D02*
G01*
X122664584Y-122637501D01*
X122664584Y-122372917D01*
X122929167Y-122372917D01*
X122929167Y-122637501D01*
G37*
G36*
X122664584Y-122637501D02*
G01*
X122400000Y-122637501D01*
X122400000Y-122372917D01*
X122664584Y-122372917D01*
X122664584Y-122637501D01*
G37*
G36*
X122400000Y-122637501D02*
G01*
X122135417Y-122637501D01*
X122135417Y-122372917D01*
X122400000Y-122372917D01*
X122400000Y-122637501D01*
G37*
G36*
X122135417Y-122637501D02*
G01*
X121870834Y-122637501D01*
X121870834Y-122372917D01*
X122135417Y-122372917D01*
X122135417Y-122637501D01*
G37*
G36*
X127427083Y-122372917D02*
G01*
X127162500Y-122372917D01*
X127162500Y-122108334D01*
X127427083Y-122108334D01*
X127427083Y-122372917D01*
G37*
G36*
X126633334Y-122372917D02*
G01*
X126368750Y-122372917D01*
X126368750Y-122108334D01*
X126633334Y-122108334D01*
X126633334Y-122372917D01*
G37*
G36*
X126104167Y-122372917D02*
G01*
X125839583Y-122372917D01*
X125839583Y-122108334D01*
X126104167Y-122108334D01*
X126104167Y-122372917D01*
G37*
G36*
X125839583Y-122372917D02*
G01*
X125575000Y-122372917D01*
X125575000Y-122108334D01*
X125839583Y-122108334D01*
X125839583Y-122372917D01*
G37*
G36*
X125045833Y-122372917D02*
G01*
X124781250Y-122372917D01*
X124781250Y-122108334D01*
X125045833Y-122108334D01*
X125045833Y-122372917D01*
G37*
G36*
X124516667Y-122372917D02*
G01*
X124252084Y-122372917D01*
X124252084Y-122108334D01*
X124516667Y-122108334D01*
X124516667Y-122372917D01*
G37*
G36*
X129543750Y-122108334D02*
G01*
X129279167Y-122108334D01*
X129279167Y-121843751D01*
X129543750Y-121843751D01*
X129543750Y-122108334D01*
G37*
G36*
X129279167Y-122108334D02*
G01*
X129014583Y-122108334D01*
X129014583Y-121843751D01*
X129279167Y-121843751D01*
X129279167Y-122108334D01*
G37*
G36*
X129014583Y-122108334D02*
G01*
X128750000Y-122108334D01*
X128750000Y-121843751D01*
X129014583Y-121843751D01*
X129014583Y-122108334D01*
G37*
G36*
X128750000Y-122108334D02*
G01*
X128485417Y-122108334D01*
X128485417Y-121843751D01*
X128750000Y-121843751D01*
X128750000Y-122108334D01*
G37*
G36*
X128485417Y-122108334D02*
G01*
X128220833Y-122108334D01*
X128220833Y-121843751D01*
X128485417Y-121843751D01*
X128485417Y-122108334D01*
G37*
G36*
X128220833Y-122108334D02*
G01*
X127956250Y-122108334D01*
X127956250Y-121843751D01*
X128220833Y-121843751D01*
X128220833Y-122108334D01*
G37*
G36*
X127956250Y-122108334D02*
G01*
X127691666Y-122108334D01*
X127691666Y-121843751D01*
X127956250Y-121843751D01*
X127956250Y-122108334D01*
G37*
G36*
X127427083Y-122108334D02*
G01*
X127162500Y-122108334D01*
X127162500Y-121843751D01*
X127427083Y-121843751D01*
X127427083Y-122108334D01*
G37*
G36*
X126897917Y-122108334D02*
G01*
X126633334Y-122108334D01*
X126633334Y-121843751D01*
X126897917Y-121843751D01*
X126897917Y-122108334D01*
G37*
G36*
X126368750Y-122108334D02*
G01*
X126104167Y-122108334D01*
X126104167Y-121843751D01*
X126368750Y-121843751D01*
X126368750Y-122108334D01*
G37*
G36*
X125839583Y-122108334D02*
G01*
X125575000Y-122108334D01*
X125575000Y-121843751D01*
X125839583Y-121843751D01*
X125839583Y-122108334D01*
G37*
G36*
X125310417Y-122108334D02*
G01*
X125045833Y-122108334D01*
X125045833Y-121843751D01*
X125310417Y-121843751D01*
X125310417Y-122108334D01*
G37*
G36*
X124781250Y-122108334D02*
G01*
X124516667Y-122108334D01*
X124516667Y-121843751D01*
X124781250Y-121843751D01*
X124781250Y-122108334D01*
G37*
G36*
X124252084Y-122108334D02*
G01*
X123987500Y-122108334D01*
X123987500Y-121843751D01*
X124252084Y-121843751D01*
X124252084Y-122108334D01*
G37*
G36*
X123722917Y-122108334D02*
G01*
X123458334Y-122108334D01*
X123458334Y-121843751D01*
X123722917Y-121843751D01*
X123722917Y-122108334D01*
G37*
G36*
X123458334Y-122108334D02*
G01*
X123193750Y-122108334D01*
X123193750Y-121843751D01*
X123458334Y-121843751D01*
X123458334Y-122108334D01*
G37*
G36*
X123193750Y-122108334D02*
G01*
X122929167Y-122108334D01*
X122929167Y-121843751D01*
X123193750Y-121843751D01*
X123193750Y-122108334D01*
G37*
G36*
X122929167Y-122108334D02*
G01*
X122664584Y-122108334D01*
X122664584Y-121843751D01*
X122929167Y-121843751D01*
X122929167Y-122108334D01*
G37*
G36*
X122664584Y-122108334D02*
G01*
X122400000Y-122108334D01*
X122400000Y-121843751D01*
X122664584Y-121843751D01*
X122664584Y-122108334D01*
G37*
G36*
X122400000Y-122108334D02*
G01*
X122135417Y-122108334D01*
X122135417Y-121843751D01*
X122400000Y-121843751D01*
X122400000Y-122108334D01*
G37*
G36*
X122135417Y-122108334D02*
G01*
X121870834Y-122108334D01*
X121870834Y-121843751D01*
X122135417Y-121843751D01*
X122135417Y-122108334D01*
G37*
G36*
X129543750Y-121843751D02*
G01*
X129279167Y-121843751D01*
X129279167Y-121579167D01*
X129543750Y-121579167D01*
X129543750Y-121843751D01*
G37*
G36*
X127956250Y-121843751D02*
G01*
X127691666Y-121843751D01*
X127691666Y-121579167D01*
X127956250Y-121579167D01*
X127956250Y-121843751D01*
G37*
G36*
X127427083Y-121843751D02*
G01*
X127162500Y-121843751D01*
X127162500Y-121579167D01*
X127427083Y-121579167D01*
X127427083Y-121843751D01*
G37*
G36*
X127162500Y-121843751D02*
G01*
X126897917Y-121843751D01*
X126897917Y-121579167D01*
X127162500Y-121579167D01*
X127162500Y-121843751D01*
G37*
G36*
X126897917Y-121843751D02*
G01*
X126633334Y-121843751D01*
X126633334Y-121579167D01*
X126897917Y-121579167D01*
X126897917Y-121843751D01*
G37*
G36*
X125575000Y-121843751D02*
G01*
X125310417Y-121843751D01*
X125310417Y-121579167D01*
X125575000Y-121579167D01*
X125575000Y-121843751D01*
G37*
G36*
X125310417Y-121843751D02*
G01*
X125045833Y-121843751D01*
X125045833Y-121579167D01*
X125310417Y-121579167D01*
X125310417Y-121843751D01*
G37*
G36*
X124516667Y-121843751D02*
G01*
X124252084Y-121843751D01*
X124252084Y-121579167D01*
X124516667Y-121579167D01*
X124516667Y-121843751D01*
G37*
G36*
X123722917Y-121843751D02*
G01*
X123458334Y-121843751D01*
X123458334Y-121579167D01*
X123722917Y-121579167D01*
X123722917Y-121843751D01*
G37*
G36*
X122135417Y-121843751D02*
G01*
X121870834Y-121843751D01*
X121870834Y-121579167D01*
X122135417Y-121579167D01*
X122135417Y-121843751D01*
G37*
G36*
X129543750Y-121579167D02*
G01*
X129279167Y-121579167D01*
X129279167Y-121314584D01*
X129543750Y-121314584D01*
X129543750Y-121579167D01*
G37*
G36*
X129014583Y-121579167D02*
G01*
X128750000Y-121579167D01*
X128750000Y-121314584D01*
X129014583Y-121314584D01*
X129014583Y-121579167D01*
G37*
G36*
X128750000Y-121579167D02*
G01*
X128485417Y-121579167D01*
X128485417Y-121314584D01*
X128750000Y-121314584D01*
X128750000Y-121579167D01*
G37*
G36*
X128485417Y-121579167D02*
G01*
X128220833Y-121579167D01*
X128220833Y-121314584D01*
X128485417Y-121314584D01*
X128485417Y-121579167D01*
G37*
G36*
X127956250Y-121579167D02*
G01*
X127691666Y-121579167D01*
X127691666Y-121314584D01*
X127956250Y-121314584D01*
X127956250Y-121579167D01*
G37*
G36*
X127162500Y-121579167D02*
G01*
X126897917Y-121579167D01*
X126897917Y-121314584D01*
X127162500Y-121314584D01*
X127162500Y-121579167D01*
G37*
G36*
X126633334Y-121579167D02*
G01*
X126368750Y-121579167D01*
X126368750Y-121314584D01*
X126633334Y-121314584D01*
X126633334Y-121579167D01*
G37*
G36*
X126368750Y-121579167D02*
G01*
X126104167Y-121579167D01*
X126104167Y-121314584D01*
X126368750Y-121314584D01*
X126368750Y-121579167D01*
G37*
G36*
X126104167Y-121579167D02*
G01*
X125839583Y-121579167D01*
X125839583Y-121314584D01*
X126104167Y-121314584D01*
X126104167Y-121579167D01*
G37*
G36*
X125045833Y-121579167D02*
G01*
X124781250Y-121579167D01*
X124781250Y-121314584D01*
X125045833Y-121314584D01*
X125045833Y-121579167D01*
G37*
G36*
X124781250Y-121579167D02*
G01*
X124516667Y-121579167D01*
X124516667Y-121314584D01*
X124781250Y-121314584D01*
X124781250Y-121579167D01*
G37*
G36*
X124516667Y-121579167D02*
G01*
X124252084Y-121579167D01*
X124252084Y-121314584D01*
X124516667Y-121314584D01*
X124516667Y-121579167D01*
G37*
G36*
X124252084Y-121579167D02*
G01*
X123987500Y-121579167D01*
X123987500Y-121314584D01*
X124252084Y-121314584D01*
X124252084Y-121579167D01*
G37*
G36*
X123722917Y-121579167D02*
G01*
X123458334Y-121579167D01*
X123458334Y-121314584D01*
X123722917Y-121314584D01*
X123722917Y-121579167D01*
G37*
G36*
X123193750Y-121579167D02*
G01*
X122929167Y-121579167D01*
X122929167Y-121314584D01*
X123193750Y-121314584D01*
X123193750Y-121579167D01*
G37*
G36*
X122929167Y-121579167D02*
G01*
X122664584Y-121579167D01*
X122664584Y-121314584D01*
X122929167Y-121314584D01*
X122929167Y-121579167D01*
G37*
G36*
X122664584Y-121579167D02*
G01*
X122400000Y-121579167D01*
X122400000Y-121314584D01*
X122664584Y-121314584D01*
X122664584Y-121579167D01*
G37*
G36*
X122135417Y-121579167D02*
G01*
X121870834Y-121579167D01*
X121870834Y-121314584D01*
X122135417Y-121314584D01*
X122135417Y-121579167D01*
G37*
G36*
X129543750Y-121314584D02*
G01*
X129279167Y-121314584D01*
X129279167Y-121050001D01*
X129543750Y-121050001D01*
X129543750Y-121314584D01*
G37*
G36*
X129014583Y-121314584D02*
G01*
X128750000Y-121314584D01*
X128750000Y-121050001D01*
X129014583Y-121050001D01*
X129014583Y-121314584D01*
G37*
G36*
X128750000Y-121314584D02*
G01*
X128485417Y-121314584D01*
X128485417Y-121050001D01*
X128750000Y-121050001D01*
X128750000Y-121314584D01*
G37*
G36*
X128485417Y-121314584D02*
G01*
X128220833Y-121314584D01*
X128220833Y-121050001D01*
X128485417Y-121050001D01*
X128485417Y-121314584D01*
G37*
G36*
X127956250Y-121314584D02*
G01*
X127691666Y-121314584D01*
X127691666Y-121050001D01*
X127956250Y-121050001D01*
X127956250Y-121314584D01*
G37*
G36*
X127427083Y-121314584D02*
G01*
X127162500Y-121314584D01*
X127162500Y-121050001D01*
X127427083Y-121050001D01*
X127427083Y-121314584D01*
G37*
G36*
X126633334Y-121314584D02*
G01*
X126368750Y-121314584D01*
X126368750Y-121050001D01*
X126633334Y-121050001D01*
X126633334Y-121314584D01*
G37*
G36*
X126104167Y-121314584D02*
G01*
X125839583Y-121314584D01*
X125839583Y-121050001D01*
X126104167Y-121050001D01*
X126104167Y-121314584D01*
G37*
G36*
X125575000Y-121314584D02*
G01*
X125310417Y-121314584D01*
X125310417Y-121050001D01*
X125575000Y-121050001D01*
X125575000Y-121314584D01*
G37*
G36*
X125045833Y-121314584D02*
G01*
X124781250Y-121314584D01*
X124781250Y-121050001D01*
X125045833Y-121050001D01*
X125045833Y-121314584D01*
G37*
G36*
X124516667Y-121314584D02*
G01*
X124252084Y-121314584D01*
X124252084Y-121050001D01*
X124516667Y-121050001D01*
X124516667Y-121314584D01*
G37*
G36*
X124252084Y-121314584D02*
G01*
X123987500Y-121314584D01*
X123987500Y-121050001D01*
X124252084Y-121050001D01*
X124252084Y-121314584D01*
G37*
G36*
X123722917Y-121314584D02*
G01*
X123458334Y-121314584D01*
X123458334Y-121050001D01*
X123722917Y-121050001D01*
X123722917Y-121314584D01*
G37*
G36*
X123193750Y-121314584D02*
G01*
X122929167Y-121314584D01*
X122929167Y-121050001D01*
X123193750Y-121050001D01*
X123193750Y-121314584D01*
G37*
G36*
X122929167Y-121314584D02*
G01*
X122664584Y-121314584D01*
X122664584Y-121050001D01*
X122929167Y-121050001D01*
X122929167Y-121314584D01*
G37*
G36*
X122664584Y-121314584D02*
G01*
X122400000Y-121314584D01*
X122400000Y-121050001D01*
X122664584Y-121050001D01*
X122664584Y-121314584D01*
G37*
G36*
X122135417Y-121314584D02*
G01*
X121870834Y-121314584D01*
X121870834Y-121050001D01*
X122135417Y-121050001D01*
X122135417Y-121314584D01*
G37*
G36*
X129543750Y-121050001D02*
G01*
X129279167Y-121050001D01*
X129279167Y-120785417D01*
X129543750Y-120785417D01*
X129543750Y-121050001D01*
G37*
G36*
X129014583Y-121050001D02*
G01*
X128750000Y-121050001D01*
X128750000Y-120785417D01*
X129014583Y-120785417D01*
X129014583Y-121050001D01*
G37*
G36*
X128750000Y-121050001D02*
G01*
X128485417Y-121050001D01*
X128485417Y-120785417D01*
X128750000Y-120785417D01*
X128750000Y-121050001D01*
G37*
G36*
X128485417Y-121050001D02*
G01*
X128220833Y-121050001D01*
X128220833Y-120785417D01*
X128485417Y-120785417D01*
X128485417Y-121050001D01*
G37*
G36*
X127956250Y-121050001D02*
G01*
X127691666Y-121050001D01*
X127691666Y-120785417D01*
X127956250Y-120785417D01*
X127956250Y-121050001D01*
G37*
G36*
X127427083Y-121050001D02*
G01*
X127162500Y-121050001D01*
X127162500Y-120785417D01*
X127427083Y-120785417D01*
X127427083Y-121050001D01*
G37*
G36*
X127162500Y-121050001D02*
G01*
X126897917Y-121050001D01*
X126897917Y-120785417D01*
X127162500Y-120785417D01*
X127162500Y-121050001D01*
G37*
G36*
X126897917Y-121050001D02*
G01*
X126633334Y-121050001D01*
X126633334Y-120785417D01*
X126897917Y-120785417D01*
X126897917Y-121050001D01*
G37*
G36*
X125575000Y-121050001D02*
G01*
X125310417Y-121050001D01*
X125310417Y-120785417D01*
X125575000Y-120785417D01*
X125575000Y-121050001D01*
G37*
G36*
X125310417Y-121050001D02*
G01*
X125045833Y-121050001D01*
X125045833Y-120785417D01*
X125310417Y-120785417D01*
X125310417Y-121050001D01*
G37*
G36*
X125045833Y-121050001D02*
G01*
X124781250Y-121050001D01*
X124781250Y-120785417D01*
X125045833Y-120785417D01*
X125045833Y-121050001D01*
G37*
G36*
X124252084Y-121050001D02*
G01*
X123987500Y-121050001D01*
X123987500Y-120785417D01*
X124252084Y-120785417D01*
X124252084Y-121050001D01*
G37*
G36*
X123722917Y-121050001D02*
G01*
X123458334Y-121050001D01*
X123458334Y-120785417D01*
X123722917Y-120785417D01*
X123722917Y-121050001D01*
G37*
G36*
X123193750Y-121050001D02*
G01*
X122929167Y-121050001D01*
X122929167Y-120785417D01*
X123193750Y-120785417D01*
X123193750Y-121050001D01*
G37*
G36*
X122929167Y-121050001D02*
G01*
X122664584Y-121050001D01*
X122664584Y-120785417D01*
X122929167Y-120785417D01*
X122929167Y-121050001D01*
G37*
G36*
X122664584Y-121050001D02*
G01*
X122400000Y-121050001D01*
X122400000Y-120785417D01*
X122664584Y-120785417D01*
X122664584Y-121050001D01*
G37*
G36*
X122135417Y-121050001D02*
G01*
X121870834Y-121050001D01*
X121870834Y-120785417D01*
X122135417Y-120785417D01*
X122135417Y-121050001D01*
G37*
G36*
X129543750Y-120785417D02*
G01*
X129279167Y-120785417D01*
X129279167Y-120520834D01*
X129543750Y-120520834D01*
X129543750Y-120785417D01*
G37*
G36*
X127956250Y-120785417D02*
G01*
X127691666Y-120785417D01*
X127691666Y-120520834D01*
X127956250Y-120520834D01*
X127956250Y-120785417D01*
G37*
G36*
X127427083Y-120785417D02*
G01*
X127162500Y-120785417D01*
X127162500Y-120520834D01*
X127427083Y-120520834D01*
X127427083Y-120785417D01*
G37*
G36*
X126897917Y-120785417D02*
G01*
X126633334Y-120785417D01*
X126633334Y-120520834D01*
X126897917Y-120520834D01*
X126897917Y-120785417D01*
G37*
G36*
X123722917Y-120785417D02*
G01*
X123458334Y-120785417D01*
X123458334Y-120520834D01*
X123722917Y-120520834D01*
X123722917Y-120785417D01*
G37*
G36*
X122135417Y-120785417D02*
G01*
X121870834Y-120785417D01*
X121870834Y-120520834D01*
X122135417Y-120520834D01*
X122135417Y-120785417D01*
G37*
G36*
X129543750Y-120520834D02*
G01*
X129279167Y-120520834D01*
X129279167Y-120256251D01*
X129543750Y-120256251D01*
X129543750Y-120520834D01*
G37*
G36*
X129279167Y-120520834D02*
G01*
X129014583Y-120520834D01*
X129014583Y-120256251D01*
X129279167Y-120256251D01*
X129279167Y-120520834D01*
G37*
G36*
X129014583Y-120520834D02*
G01*
X128750000Y-120520834D01*
X128750000Y-120256251D01*
X129014583Y-120256251D01*
X129014583Y-120520834D01*
G37*
G36*
X128750000Y-120520834D02*
G01*
X128485417Y-120520834D01*
X128485417Y-120256251D01*
X128750000Y-120256251D01*
X128750000Y-120520834D01*
G37*
G36*
X128485417Y-120520834D02*
G01*
X128220833Y-120520834D01*
X128220833Y-120256251D01*
X128485417Y-120256251D01*
X128485417Y-120520834D01*
G37*
G36*
X128220833Y-120520834D02*
G01*
X127956250Y-120520834D01*
X127956250Y-120256251D01*
X128220833Y-120256251D01*
X128220833Y-120520834D01*
G37*
G36*
X127956250Y-120520834D02*
G01*
X127691666Y-120520834D01*
X127691666Y-120256251D01*
X127956250Y-120256251D01*
X127956250Y-120520834D01*
G37*
G36*
X127162500Y-120520834D02*
G01*
X126897917Y-120520834D01*
X126897917Y-120256251D01*
X127162500Y-120256251D01*
X127162500Y-120520834D01*
G37*
G36*
X126897917Y-120520834D02*
G01*
X126633334Y-120520834D01*
X126633334Y-120256251D01*
X126897917Y-120256251D01*
X126897917Y-120520834D01*
G37*
G36*
X126633334Y-120520834D02*
G01*
X126368750Y-120520834D01*
X126368750Y-120256251D01*
X126633334Y-120256251D01*
X126633334Y-120520834D01*
G37*
G36*
X125839583Y-120520834D02*
G01*
X125575000Y-120520834D01*
X125575000Y-120256251D01*
X125839583Y-120256251D01*
X125839583Y-120520834D01*
G37*
G36*
X124516667Y-120520834D02*
G01*
X124252084Y-120520834D01*
X124252084Y-120256251D01*
X124516667Y-120256251D01*
X124516667Y-120520834D01*
G37*
G36*
X124252084Y-120520834D02*
G01*
X123987500Y-120520834D01*
X123987500Y-120256251D01*
X124252084Y-120256251D01*
X124252084Y-120520834D01*
G37*
G36*
X123722917Y-120520834D02*
G01*
X123458334Y-120520834D01*
X123458334Y-120256251D01*
X123722917Y-120256251D01*
X123722917Y-120520834D01*
G37*
G36*
X123458334Y-120520834D02*
G01*
X123193750Y-120520834D01*
X123193750Y-120256251D01*
X123458334Y-120256251D01*
X123458334Y-120520834D01*
G37*
G36*
X123193750Y-120520834D02*
G01*
X122929167Y-120520834D01*
X122929167Y-120256251D01*
X123193750Y-120256251D01*
X123193750Y-120520834D01*
G37*
G36*
X122929167Y-120520834D02*
G01*
X122664584Y-120520834D01*
X122664584Y-120256251D01*
X122929167Y-120256251D01*
X122929167Y-120520834D01*
G37*
G36*
X122664584Y-120520834D02*
G01*
X122400000Y-120520834D01*
X122400000Y-120256251D01*
X122664584Y-120256251D01*
X122664584Y-120520834D01*
G37*
G36*
X122400000Y-120520834D02*
G01*
X122135417Y-120520834D01*
X122135417Y-120256251D01*
X122400000Y-120256251D01*
X122400000Y-120520834D01*
G37*
G36*
X122135417Y-120520834D02*
G01*
X121870834Y-120520834D01*
X121870834Y-120256251D01*
X122135417Y-120256251D01*
X122135417Y-120520834D01*
G37*
D11*
X118800000Y-113750000D02*
X128250000Y-113750000D01*
X128250000Y-119700000D01*
X118800000Y-119700000D01*
X118800000Y-113750000D01*
G36*
X121049520Y-119311474D02*
G01*
X121049520Y-119522500D01*
X120420014Y-119522500D01*
X120420014Y-119311474D01*
X120629850Y-119311474D01*
X120629850Y-118262206D01*
X120420014Y-118262206D01*
X120420014Y-118051181D01*
X121049520Y-118051181D01*
X121049520Y-118262206D01*
X120839685Y-118262206D01*
X120839685Y-119311474D01*
X121049520Y-119311474D01*
G37*
G36*
X121890692Y-119247543D02*
G01*
X121884348Y-119311088D01*
X121865505Y-119370550D01*
X121835887Y-119424878D01*
X121798368Y-119470659D01*
X121752825Y-119508413D01*
X121698717Y-119538162D01*
X121639416Y-119557141D01*
X121575985Y-119563532D01*
X121512467Y-119557184D01*
X121453162Y-119538345D01*
X121399038Y-119508724D01*
X121353511Y-119471209D01*
X121315990Y-119425606D01*
X121286374Y-119371466D01*
X121267535Y-119312161D01*
X121261187Y-119248642D01*
X121261187Y-118325038D01*
X121267535Y-118261520D01*
X121286374Y-118202214D01*
X121315995Y-118148090D01*
X121353511Y-118102563D01*
X121399045Y-118064975D01*
X121453162Y-118035335D01*
X121512467Y-118016496D01*
X121575985Y-118010148D01*
X121639416Y-118016539D01*
X121698717Y-118035519D01*
X121752825Y-118065267D01*
X121798368Y-118103021D01*
X121835887Y-118148802D01*
X121865505Y-118203130D01*
X121884350Y-118262580D01*
X121890692Y-118326045D01*
X121890692Y-118472957D01*
X121680857Y-118472957D01*
X121680857Y-118326045D01*
X121672968Y-118285372D01*
X121649350Y-118251582D01*
X121615105Y-118228695D01*
X121575985Y-118221174D01*
X121535147Y-118228827D01*
X121501430Y-118251582D01*
X121478674Y-118285210D01*
X121471022Y-118325954D01*
X121471022Y-119247726D01*
X121478671Y-119288486D01*
X121501430Y-119322190D01*
X121535140Y-119344873D01*
X121575985Y-119352506D01*
X121615105Y-119344985D01*
X121649350Y-119322098D01*
X121672964Y-119288295D01*
X121680857Y-119247543D01*
X121680857Y-118680961D01*
X121890692Y-118680961D01*
X121890692Y-119247543D01*
G37*
G36*
X123003124Y-118016494D02*
G01*
X123062417Y-118035335D01*
X123116534Y-118064975D01*
X123162068Y-118102563D01*
X123199583Y-118148090D01*
X123229204Y-118202214D01*
X123248045Y-118261507D01*
X123254392Y-118324946D01*
X123254392Y-118996675D01*
X123248045Y-119060114D01*
X123229204Y-119119407D01*
X123199588Y-119173548D01*
X123162068Y-119219150D01*
X123116541Y-119256665D01*
X123062417Y-119286286D01*
X123003124Y-119305127D01*
X122939685Y-119311474D01*
X122834721Y-119311474D01*
X122834721Y-119522500D01*
X122624886Y-119522500D01*
X122624886Y-118325862D01*
X122834721Y-118325862D01*
X122834721Y-119100448D01*
X122939685Y-119100448D01*
X122980451Y-119092818D01*
X123014148Y-119070131D01*
X123036911Y-119036440D01*
X123044557Y-118995759D01*
X123044557Y-118325862D01*
X123036908Y-118285197D01*
X123014148Y-118251582D01*
X122980444Y-118228823D01*
X122939685Y-118221174D01*
X122900470Y-118228696D01*
X122866137Y-118251582D01*
X122842589Y-118285277D01*
X122834721Y-118325862D01*
X122624886Y-118325862D01*
X122624886Y-118325221D01*
X122631235Y-118261703D01*
X122650074Y-118202397D01*
X122679901Y-118148253D01*
X122718218Y-118102563D01*
X122764478Y-118064855D01*
X122817869Y-118035335D01*
X122876310Y-118016519D01*
X122939685Y-118010148D01*
X123003124Y-118016494D01*
G37*
G36*
X123844296Y-118438546D02*
G01*
X123903589Y-118457387D01*
X123957709Y-118486936D01*
X124003240Y-118524432D01*
X124040757Y-118569869D01*
X124070376Y-118623900D01*
X124089218Y-118683102D01*
X124095564Y-118746448D01*
X124095564Y-119249283D01*
X124089218Y-119312630D01*
X124070376Y-119371832D01*
X124040761Y-119425879D01*
X124003240Y-119471392D01*
X123957716Y-119508814D01*
X123903589Y-119538345D01*
X123844296Y-119557186D01*
X123780857Y-119563532D01*
X123717339Y-119557184D01*
X123658033Y-119538345D01*
X123603907Y-119508814D01*
X123558382Y-119471392D01*
X123520861Y-119425879D01*
X123491246Y-119371832D01*
X123472405Y-119312630D01*
X123466059Y-119249283D01*
X123466059Y-118747547D01*
X123675894Y-118747547D01*
X123675894Y-119248184D01*
X123683753Y-119288612D01*
X123707309Y-119322281D01*
X123741629Y-119345023D01*
X123780857Y-119352506D01*
X123821631Y-119344897D01*
X123855321Y-119322281D01*
X123878089Y-119288692D01*
X123885729Y-119248184D01*
X123885729Y-118747547D01*
X123878086Y-118707056D01*
X123855321Y-118673542D01*
X123821624Y-118650855D01*
X123780857Y-118643225D01*
X123741636Y-118650728D01*
X123707309Y-118673542D01*
X123683756Y-118707135D01*
X123675894Y-118747547D01*
X123466059Y-118747547D01*
X123466059Y-118746448D01*
X123472405Y-118683102D01*
X123491246Y-118623900D01*
X123520866Y-118569869D01*
X123558382Y-118524432D01*
X123603913Y-118486936D01*
X123658033Y-118457387D01*
X123717339Y-118438548D01*
X123780857Y-118432199D01*
X123844296Y-118438546D01*
G37*
G36*
X124903214Y-118758630D02*
G01*
X124808784Y-119522500D01*
X124437290Y-119522500D01*
X124309338Y-118473232D01*
X124521279Y-118473232D01*
X124624044Y-119314771D01*
X124726901Y-118473232D01*
X125079435Y-118473232D01*
X125184399Y-119314771D01*
X125287255Y-118473232D01*
X125499197Y-118473232D01*
X125369046Y-119522500D01*
X124997644Y-119522500D01*
X124903214Y-118758630D01*
G37*
G36*
X126087915Y-118438524D02*
G01*
X126147204Y-118457295D01*
X126201254Y-118486960D01*
X126246855Y-118525164D01*
X126284428Y-118571324D01*
X126313991Y-118625365D01*
X126332833Y-118684386D01*
X126339179Y-118747547D01*
X126339179Y-118787206D01*
X126332833Y-118850368D01*
X126313991Y-118909389D01*
X126284378Y-118963248D01*
X126246855Y-119008582D01*
X126201338Y-119045932D01*
X126147204Y-119075443D01*
X126087919Y-119094146D01*
X126024472Y-119100448D01*
X125919509Y-119100448D01*
X125919509Y-119247452D01*
X125927379Y-119288226D01*
X125950924Y-119322098D01*
X125985257Y-119344984D01*
X126024472Y-119352506D01*
X126065231Y-119344857D01*
X126098935Y-119322098D01*
X126121690Y-119288381D01*
X126129344Y-119247543D01*
X126129344Y-119205594D01*
X126339179Y-119205594D01*
X126339179Y-119247543D01*
X126332834Y-119311088D01*
X126313991Y-119370550D01*
X126284373Y-119424878D01*
X126246855Y-119470659D01*
X126201311Y-119508413D01*
X126147204Y-119538162D01*
X126087902Y-119557141D01*
X126024472Y-119563532D01*
X125960954Y-119557184D01*
X125901648Y-119538345D01*
X125847521Y-119508814D01*
X125801997Y-119471392D01*
X125764476Y-119425879D01*
X125734861Y-119371832D01*
X125716020Y-119312630D01*
X125709673Y-119249283D01*
X125709673Y-118746448D01*
X125709737Y-118745807D01*
X125919509Y-118745807D01*
X125919509Y-118889422D01*
X126024472Y-118889422D01*
X126065282Y-118881914D01*
X126098935Y-118859655D01*
X126121719Y-118826622D01*
X126129344Y-118786840D01*
X126129344Y-118745807D01*
X126121719Y-118706025D01*
X126098935Y-118672992D01*
X126065282Y-118650734D01*
X126024472Y-118643225D01*
X125985209Y-118650609D01*
X125950924Y-118672992D01*
X125927352Y-118706105D01*
X125919509Y-118745807D01*
X125709737Y-118745807D01*
X125716020Y-118683102D01*
X125734861Y-118623900D01*
X125764481Y-118569869D01*
X125801997Y-118524432D01*
X125847528Y-118486936D01*
X125901648Y-118457387D01*
X125960954Y-118438548D01*
X126024472Y-118432199D01*
X126087915Y-118438524D01*
G37*
G36*
X126867751Y-118643225D02*
G01*
X126826913Y-118650879D01*
X126793196Y-118673633D01*
X126770436Y-118707249D01*
X126762787Y-118747914D01*
X126762787Y-119522500D01*
X126552952Y-119522500D01*
X126552952Y-118746723D01*
X126559301Y-118683297D01*
X126578140Y-118624083D01*
X126607761Y-118569959D01*
X126645276Y-118524432D01*
X126690807Y-118486936D01*
X126744927Y-118457387D01*
X126804232Y-118438548D01*
X126867751Y-118432199D01*
X126931181Y-118438590D01*
X126990483Y-118457570D01*
X127044590Y-118487318D01*
X127090134Y-118525073D01*
X127127652Y-118570854D01*
X127157270Y-118625182D01*
X127176113Y-118684644D01*
X127182458Y-118748189D01*
X127182458Y-118895009D01*
X126972623Y-118895009D01*
X126972623Y-118748189D01*
X126964969Y-118707350D01*
X126942214Y-118673633D01*
X126908510Y-118650875D01*
X126867751Y-118643225D01*
G37*
G36*
X125143938Y-117400448D02*
G01*
X125143938Y-117822500D01*
X124934103Y-117822500D01*
X124934103Y-117400448D01*
X124514432Y-117400448D01*
X124514432Y-117189422D01*
X124934103Y-117189422D01*
X124934103Y-116773232D01*
X125143938Y-116773232D01*
X125143938Y-117189422D01*
X125563700Y-117189422D01*
X125563700Y-117400448D01*
X125143938Y-117400448D01*
G37*
G36*
X126405696Y-117611474D02*
G01*
X126405696Y-117822500D01*
X125776191Y-117822500D01*
X125776191Y-117611474D01*
X125986026Y-117611474D01*
X125986026Y-116562206D01*
X125776191Y-116562206D01*
X125776191Y-116351181D01*
X126195861Y-116351181D01*
X126195861Y-117611474D01*
X126405696Y-117611474D01*
G37*
G36*
X127246869Y-117401639D02*
G01*
X127246869Y-117822500D01*
X126617363Y-117822500D01*
X126617363Y-117403837D01*
X126623712Y-117340503D01*
X126642551Y-117281379D01*
X126672171Y-117227349D01*
X126709687Y-117181912D01*
X126755211Y-117144489D01*
X126809338Y-117114959D01*
X126868644Y-117096120D01*
X126932162Y-117089771D01*
X126971191Y-117081994D01*
X127005526Y-117058172D01*
X127029273Y-117023666D01*
X127037034Y-116984441D01*
X127037034Y-116626503D01*
X127029139Y-116585657D01*
X127005526Y-116551765D01*
X126971268Y-116528734D01*
X126932162Y-116521174D01*
X126891324Y-116528827D01*
X126857607Y-116551582D01*
X126834848Y-116585286D01*
X126827199Y-116626045D01*
X126827199Y-116980686D01*
X126617363Y-116980686D01*
X126617363Y-116626045D01*
X126623706Y-116562580D01*
X126642551Y-116503130D01*
X126672169Y-116448802D01*
X126709687Y-116403021D01*
X126755231Y-116365267D01*
X126809338Y-116335519D01*
X126868652Y-116316541D01*
X126932162Y-116310148D01*
X126995597Y-116316516D01*
X127054894Y-116335427D01*
X127109001Y-116365175D01*
X127154545Y-116402930D01*
X127192053Y-116448650D01*
X127221681Y-116503039D01*
X127240522Y-116562604D01*
X127246869Y-116626320D01*
X127246869Y-116984624D01*
X127240522Y-117048341D01*
X127221681Y-117107906D01*
X127192058Y-117162311D01*
X127154545Y-117208107D01*
X127109008Y-117245788D01*
X127054894Y-117275518D01*
X126995597Y-117294428D01*
X126932162Y-117300797D01*
X126891295Y-117308370D01*
X126857607Y-117330839D01*
X126834835Y-117364163D01*
X126827199Y-117404386D01*
X126827199Y-117611474D01*
X127037034Y-117611474D01*
X127037034Y-117401639D01*
X127246869Y-117401639D01*
G37*
G36*
X128088041Y-116773232D02*
G01*
X127959997Y-117822500D01*
X127586580Y-117822500D01*
X127458536Y-116773232D01*
X127670477Y-116773232D01*
X127773243Y-117614771D01*
X127876099Y-116773232D01*
X128088041Y-116773232D01*
G37*
G36*
X119764524Y-117400448D02*
G01*
X119764524Y-117822500D01*
X119554689Y-117822500D01*
X119554689Y-117400448D01*
X119135018Y-117400448D01*
X119135018Y-117189422D01*
X119554689Y-117189422D01*
X119554689Y-116773232D01*
X119764524Y-116773232D01*
X119764524Y-117189422D01*
X120184286Y-117189422D01*
X120184286Y-117400448D01*
X119764524Y-117400448D01*
G37*
G36*
X121024176Y-117549009D02*
G01*
X121017829Y-117612448D01*
X120998988Y-117671741D01*
X120969373Y-117725787D01*
X120931852Y-117771300D01*
X120886321Y-117808796D01*
X120832201Y-117838345D01*
X120772908Y-117857186D01*
X120709469Y-117863532D01*
X120646103Y-117857116D01*
X120587653Y-117838162D01*
X120534272Y-117808533D01*
X120488002Y-117770659D01*
X120449682Y-117724805D01*
X120419858Y-117670550D01*
X120401015Y-117611088D01*
X120394670Y-117547543D01*
X120394670Y-117190796D01*
X120604506Y-117190796D01*
X120604506Y-117547543D01*
X120612379Y-117588302D01*
X120635921Y-117622098D01*
X120670254Y-117644984D01*
X120709469Y-117652506D01*
X120750243Y-117644897D01*
X120783932Y-117622281D01*
X120806696Y-117588679D01*
X120814341Y-117548093D01*
X120814341Y-117088672D01*
X120806693Y-117048102D01*
X120783932Y-117014575D01*
X120750236Y-116991887D01*
X120709469Y-116984258D01*
X120394670Y-116984258D01*
X120394670Y-116351181D01*
X121024176Y-116351181D01*
X121024176Y-116562206D01*
X120604506Y-116562206D01*
X120604506Y-116773232D01*
X120709469Y-116773232D01*
X120772908Y-116779579D01*
X120832201Y-116798420D01*
X120886321Y-116827969D01*
X120931852Y-116865464D01*
X120969368Y-116910992D01*
X120998988Y-116965116D01*
X121017827Y-117024330D01*
X121024176Y-117087756D01*
X121024176Y-117549009D01*
G37*
G36*
X121867455Y-116773232D02*
G01*
X121739410Y-117822500D01*
X121365994Y-117822500D01*
X121237949Y-116773232D01*
X121449891Y-116773232D01*
X121552656Y-117614771D01*
X121655513Y-116773232D01*
X121867455Y-116773232D01*
G37*
D12*
X114200000Y-122700000D02*
X114200000Y-124000000D01*
D11*
X114700000Y-122700000D02*
X113700000Y-122700000D01*
X114200000Y-122000000D01*
X114700000Y-122700000D01*
G36*
X114700000Y-122700000D02*
G01*
X113700000Y-122700000D01*
X114200000Y-122000000D01*
X114700000Y-122700000D01*
G37*
G36*
X116474175Y-125449467D02*
G01*
X116467829Y-125512813D01*
X116448988Y-125572015D01*
X116419374Y-125625968D01*
X116381851Y-125671392D01*
X116336327Y-125708814D01*
X116282200Y-125738345D01*
X116222907Y-125757186D01*
X116159468Y-125763532D01*
X116095950Y-125757184D01*
X116036645Y-125738345D01*
X115982521Y-125708724D01*
X115936994Y-125671209D01*
X115899474Y-125625606D01*
X115869857Y-125571466D01*
X115851019Y-125512161D01*
X115844670Y-125448642D01*
X115844670Y-124525038D01*
X115851019Y-124461520D01*
X115869857Y-124402214D01*
X115899478Y-124348090D01*
X115936994Y-124302563D01*
X115982528Y-124264975D01*
X116036645Y-124235335D01*
X116095950Y-124216496D01*
X116159468Y-124210148D01*
X116222899Y-124216539D01*
X116282200Y-124235519D01*
X116336308Y-124265267D01*
X116381851Y-124303021D01*
X116419370Y-124348802D01*
X116448988Y-124403130D01*
X116467833Y-124462580D01*
X116474175Y-124526045D01*
X116474175Y-124672957D01*
X116264340Y-124672957D01*
X116264340Y-124526045D01*
X116256691Y-124485286D01*
X116233932Y-124451582D01*
X116200228Y-124428823D01*
X116159468Y-124421174D01*
X116118630Y-124428827D01*
X116084913Y-124451582D01*
X116062157Y-124485210D01*
X116054505Y-124525954D01*
X116054505Y-125447726D01*
X116062155Y-125488486D01*
X116084913Y-125522190D01*
X116118623Y-125544873D01*
X116159468Y-125552506D01*
X116200249Y-125544917D01*
X116233932Y-125522373D01*
X116256698Y-125488948D01*
X116264340Y-125448551D01*
X116264340Y-125095284D01*
X116159377Y-125095284D01*
X116159377Y-124884258D01*
X116474175Y-124884258D01*
X116474175Y-125449467D01*
G37*
G36*
X116896319Y-124545188D02*
G01*
X116896319Y-125722500D01*
X116686483Y-125722500D01*
X116686483Y-124253562D01*
X116900532Y-124253562D01*
X117106154Y-124459184D01*
X117106154Y-124253562D01*
X117315989Y-124253562D01*
X117315989Y-125722500D01*
X117106154Y-125722500D01*
X117106154Y-124755115D01*
X116896319Y-124545188D01*
G37*
G36*
X117903782Y-124257549D02*
G01*
X117963080Y-124276460D01*
X118017197Y-124306099D01*
X118062731Y-124343688D01*
X118100245Y-124389304D01*
X118129867Y-124443522D01*
X118148708Y-124502906D01*
X118155055Y-124566437D01*
X118155055Y-125407243D01*
X118148708Y-125470775D01*
X118129867Y-125530158D01*
X118100245Y-125584376D01*
X118062731Y-125629993D01*
X118017200Y-125667601D01*
X117963080Y-125697312D01*
X117903787Y-125716153D01*
X117840348Y-125722500D01*
X117525549Y-125722500D01*
X117525549Y-125511474D01*
X117735384Y-125511474D01*
X117840348Y-125511474D01*
X117881107Y-125503824D01*
X117914811Y-125481065D01*
X117937566Y-125447349D01*
X117945219Y-125406510D01*
X117945219Y-124567170D01*
X117937566Y-124526331D01*
X117914811Y-124492615D01*
X117881107Y-124469856D01*
X117840348Y-124462206D01*
X117735384Y-124462206D01*
X117735384Y-125511474D01*
X117525549Y-125511474D01*
X117525549Y-124251181D01*
X117840348Y-124251181D01*
X117903782Y-124257549D01*
G37*
X110150000Y-127425548D02*
X120398671Y-127425548D01*
X120398671Y-131709242D01*
X110150000Y-131709242D01*
X110150000Y-127425548D01*
G36*
X112453706Y-127576494D02*
G01*
X112512999Y-127595335D01*
X112567116Y-127624975D01*
X112612650Y-127662563D01*
X112650165Y-127708180D01*
X112679786Y-127762397D01*
X112698625Y-127821703D01*
X112704974Y-127885221D01*
X112704974Y-129082500D01*
X112495139Y-129082500D01*
X112495139Y-128871474D01*
X112285304Y-128871474D01*
X112285304Y-129082500D01*
X112075468Y-129082500D01*
X112075468Y-127885862D01*
X112285304Y-127885862D01*
X112285304Y-128660448D01*
X112495139Y-128660448D01*
X112495139Y-127885862D01*
X112487251Y-127845284D01*
X112463631Y-127811582D01*
X112429387Y-127788695D01*
X112390267Y-127781174D01*
X112349429Y-127788827D01*
X112315712Y-127811582D01*
X112292952Y-127845197D01*
X112285304Y-127885862D01*
X112075468Y-127885862D01*
X112075468Y-127885221D01*
X112081817Y-127821703D01*
X112100656Y-127762397D01*
X112130278Y-127708180D01*
X112167792Y-127662563D01*
X112213326Y-127624975D01*
X112267443Y-127595335D01*
X112326749Y-127576496D01*
X112390267Y-127570148D01*
X112453706Y-127576494D01*
G37*
G36*
X113546146Y-128808917D02*
G01*
X113539800Y-128872356D01*
X113520959Y-128931649D01*
X113491344Y-128985696D01*
X113453822Y-129031209D01*
X113408295Y-129068724D01*
X113354171Y-129098345D01*
X113294878Y-129117186D01*
X113231439Y-129123532D01*
X113167921Y-129117184D01*
X113108616Y-129098345D01*
X113054489Y-129068814D01*
X113008965Y-129031392D01*
X112971443Y-128985879D01*
X112941828Y-128931832D01*
X112922987Y-128872630D01*
X112916641Y-128809283D01*
X112916641Y-128307547D01*
X113126476Y-128307547D01*
X113126476Y-128808184D01*
X113134116Y-128848692D01*
X113156884Y-128882281D01*
X113190587Y-128904893D01*
X113231439Y-128912506D01*
X113270573Y-128905025D01*
X113304804Y-128882281D01*
X113328432Y-128848605D01*
X113336311Y-128808184D01*
X113336311Y-128307547D01*
X113328429Y-128267143D01*
X113304804Y-128233542D01*
X113270566Y-128210727D01*
X113231439Y-128203225D01*
X113190594Y-128210859D01*
X113156884Y-128233542D01*
X113134119Y-128267056D01*
X113126476Y-128307547D01*
X112916641Y-128307547D01*
X112916641Y-128306448D01*
X112922987Y-128243102D01*
X112941828Y-128183900D01*
X112971448Y-128129869D01*
X113008965Y-128084432D01*
X113054495Y-128046936D01*
X113108616Y-128017387D01*
X113167921Y-127998548D01*
X113231439Y-127992199D01*
X113285039Y-127996618D01*
X113336311Y-128009785D01*
X113336311Y-127613196D01*
X113546146Y-127613196D01*
X113546146Y-128808917D01*
G37*
G36*
X114387319Y-128808917D02*
G01*
X114380972Y-128872356D01*
X114362131Y-128931649D01*
X114332516Y-128985696D01*
X114294995Y-129031209D01*
X114249468Y-129068724D01*
X114195344Y-129098345D01*
X114136051Y-129117186D01*
X114072612Y-129123532D01*
X114009093Y-129117184D01*
X113949788Y-129098345D01*
X113895661Y-129068814D01*
X113850137Y-129031392D01*
X113812616Y-128985879D01*
X113783001Y-128931832D01*
X113764160Y-128872630D01*
X113757813Y-128809283D01*
X113757813Y-128307547D01*
X113967648Y-128307547D01*
X113967648Y-128808184D01*
X113975289Y-128848692D01*
X113998057Y-128882281D01*
X114031759Y-128904893D01*
X114072612Y-128912506D01*
X114111746Y-128905025D01*
X114145976Y-128882281D01*
X114169604Y-128848605D01*
X114177483Y-128808184D01*
X114177483Y-128307547D01*
X114169601Y-128267143D01*
X114145976Y-128233542D01*
X114111739Y-128210727D01*
X114072612Y-128203225D01*
X114031766Y-128210859D01*
X113998057Y-128233542D01*
X113975291Y-128267056D01*
X113967648Y-128307547D01*
X113757813Y-128307547D01*
X113757813Y-128306448D01*
X113764160Y-128243102D01*
X113783001Y-128183900D01*
X113812620Y-128129869D01*
X113850137Y-128084432D01*
X113895668Y-128046936D01*
X113949788Y-128017387D01*
X114009093Y-127998548D01*
X114072612Y-127992199D01*
X114126212Y-127996618D01*
X114177483Y-128009785D01*
X114177483Y-127613196D01*
X114387319Y-127613196D01*
X114387319Y-128808917D01*
G37*
G36*
X114913784Y-128203225D02*
G01*
X114872946Y-128210879D01*
X114839229Y-128233633D01*
X114816469Y-128267249D01*
X114808821Y-128307914D01*
X114808821Y-129082500D01*
X114598986Y-129082500D01*
X114598986Y-128306723D01*
X114605334Y-128243297D01*
X114624173Y-128184083D01*
X114653794Y-128129959D01*
X114691309Y-128084432D01*
X114736840Y-128046936D01*
X114790960Y-128017387D01*
X114850266Y-127998548D01*
X114913784Y-127992199D01*
X114977214Y-127998590D01*
X115036516Y-128017570D01*
X115090624Y-128047318D01*
X115136167Y-128085073D01*
X115173685Y-128130854D01*
X115203303Y-128185182D01*
X115222146Y-128244644D01*
X115228491Y-128308189D01*
X115228491Y-128455009D01*
X115018656Y-128455009D01*
X115018656Y-128308189D01*
X115011002Y-128267350D01*
X114988248Y-128233633D01*
X114954544Y-128210875D01*
X114913784Y-128203225D01*
G37*
G36*
X115816293Y-127998524D02*
G01*
X115875582Y-128017295D01*
X115929632Y-128046960D01*
X115975233Y-128085164D01*
X116012806Y-128131324D01*
X116042369Y-128185365D01*
X116061211Y-128244386D01*
X116067557Y-128307547D01*
X116067557Y-128347206D01*
X116061211Y-128410368D01*
X116042369Y-128469389D01*
X116012756Y-128523248D01*
X115975233Y-128568582D01*
X115929715Y-128605932D01*
X115875582Y-128635443D01*
X115816297Y-128654146D01*
X115752850Y-128660448D01*
X115647886Y-128660448D01*
X115647886Y-128807452D01*
X115655757Y-128848226D01*
X115679302Y-128882098D01*
X115713635Y-128904984D01*
X115752850Y-128912506D01*
X115793609Y-128904857D01*
X115827313Y-128882098D01*
X115850068Y-128848381D01*
X115857722Y-128807543D01*
X115857722Y-128765594D01*
X116067557Y-128765594D01*
X116067557Y-128807543D01*
X116061212Y-128871088D01*
X116042369Y-128930550D01*
X116012751Y-128984878D01*
X115975233Y-129030659D01*
X115929689Y-129068413D01*
X115875582Y-129098162D01*
X115816280Y-129117141D01*
X115752850Y-129123532D01*
X115689331Y-129117184D01*
X115630026Y-129098345D01*
X115575899Y-129068814D01*
X115530375Y-129031392D01*
X115492854Y-128985879D01*
X115463239Y-128931832D01*
X115444398Y-128872630D01*
X115438051Y-128809283D01*
X115438051Y-128306448D01*
X115438115Y-128305807D01*
X115647886Y-128305807D01*
X115647886Y-128449422D01*
X115752850Y-128449422D01*
X115793660Y-128441914D01*
X115827313Y-128419655D01*
X115850097Y-128386622D01*
X115857722Y-128346840D01*
X115857722Y-128305807D01*
X115850097Y-128266025D01*
X115827313Y-128232992D01*
X115793660Y-128210734D01*
X115752850Y-128203225D01*
X115713587Y-128210609D01*
X115679302Y-128232992D01*
X115655730Y-128266105D01*
X115647886Y-128305807D01*
X115438115Y-128305807D01*
X115444398Y-128243102D01*
X115463239Y-128183900D01*
X115492859Y-128129869D01*
X115530375Y-128084432D01*
X115575906Y-128046936D01*
X115630026Y-128017387D01*
X115689331Y-127998548D01*
X115752850Y-127992199D01*
X115816293Y-127998524D01*
G37*
G36*
X116952784Y-128786477D02*
G01*
X116946142Y-128854240D01*
X116926498Y-128917086D01*
X116895241Y-128974595D01*
X116854141Y-129024522D01*
X116804398Y-129065797D01*
X116747162Y-129097154D01*
X116684584Y-129116868D01*
X116617103Y-129123532D01*
X116549386Y-129116890D01*
X116485853Y-129097154D01*
X116427956Y-129065597D01*
X116378875Y-129024339D01*
X116338619Y-128974432D01*
X116307525Y-128916903D01*
X116287944Y-128854097D01*
X116281330Y-128786569D01*
X116281330Y-128765594D01*
X116491165Y-128765594D01*
X116491165Y-128786569D01*
X116500131Y-128835257D01*
X116526794Y-128875778D01*
X116566861Y-128903173D01*
X116617103Y-128912506D01*
X116665627Y-128903304D01*
X116706221Y-128875778D01*
X116733746Y-128835096D01*
X116742949Y-128786477D01*
X116733743Y-128737874D01*
X116706221Y-128697267D01*
X116665607Y-128669674D01*
X116617012Y-128660448D01*
X116549361Y-128653874D01*
X116485853Y-128634344D01*
X116427927Y-128603113D01*
X116378875Y-128562354D01*
X116338613Y-128512895D01*
X116307525Y-128455833D01*
X116287946Y-128393469D01*
X116281330Y-128326324D01*
X116287948Y-128259191D01*
X116307525Y-128196905D01*
X116338623Y-128139784D01*
X116378875Y-128090385D01*
X116427934Y-128049553D01*
X116485853Y-128018303D01*
X116549374Y-127998775D01*
X116617103Y-127992199D01*
X116684584Y-127998864D01*
X116747162Y-128018578D01*
X116804395Y-128050025D01*
X116854141Y-128091393D01*
X116895245Y-128141395D01*
X116926498Y-128198920D01*
X116946146Y-128261652D01*
X116952784Y-128329163D01*
X116952784Y-128350137D01*
X116742949Y-128350137D01*
X116742949Y-128329163D01*
X116733743Y-128280560D01*
X116706221Y-128239953D01*
X116665627Y-128212428D01*
X116617103Y-128203225D01*
X116566795Y-128212376D01*
X116526794Y-128239129D01*
X116500105Y-128278801D01*
X116491165Y-128326324D01*
X116500105Y-128373846D01*
X116526794Y-128413518D01*
X116566795Y-128440271D01*
X116617103Y-128449422D01*
X116684584Y-128456087D01*
X116747162Y-128475800D01*
X116804398Y-128507158D01*
X116854141Y-128548432D01*
X116895241Y-128598359D01*
X116926498Y-128655868D01*
X116946142Y-128718715D01*
X116952784Y-128786477D01*
G37*
G36*
X117836455Y-128786477D02*
G01*
X117829812Y-128854240D01*
X117810168Y-128917086D01*
X117778911Y-128974595D01*
X117737811Y-129024522D01*
X117688069Y-129065797D01*
X117630833Y-129097154D01*
X117568255Y-129116868D01*
X117500774Y-129123532D01*
X117433057Y-129116890D01*
X117369524Y-129097154D01*
X117311627Y-129065597D01*
X117262545Y-129024339D01*
X117222289Y-128974432D01*
X117191196Y-128916903D01*
X117171615Y-128854097D01*
X117165001Y-128786569D01*
X117165001Y-128765594D01*
X117374836Y-128765594D01*
X117374836Y-128786569D01*
X117383801Y-128835257D01*
X117410465Y-128875778D01*
X117450532Y-128903173D01*
X117500774Y-128912506D01*
X117549298Y-128903304D01*
X117589892Y-128875778D01*
X117617416Y-128835096D01*
X117626620Y-128786477D01*
X117617413Y-128737874D01*
X117589892Y-128697267D01*
X117549278Y-128669674D01*
X117500682Y-128660448D01*
X117433032Y-128653874D01*
X117369524Y-128634344D01*
X117311598Y-128603113D01*
X117262545Y-128562354D01*
X117222284Y-128512895D01*
X117191196Y-128455833D01*
X117171617Y-128393469D01*
X117165001Y-128326324D01*
X117171619Y-128259191D01*
X117191196Y-128196905D01*
X117222294Y-128139784D01*
X117262545Y-128090385D01*
X117311604Y-128049553D01*
X117369524Y-128018303D01*
X117433044Y-127998775D01*
X117500774Y-127992199D01*
X117568255Y-127998864D01*
X117630833Y-128018578D01*
X117688066Y-128050025D01*
X117737811Y-128091393D01*
X117778916Y-128141395D01*
X117810168Y-128198920D01*
X117829817Y-128261652D01*
X117836455Y-128329163D01*
X117836455Y-128350137D01*
X117626620Y-128350137D01*
X117626620Y-128329163D01*
X117617413Y-128280560D01*
X117589892Y-128239953D01*
X117549298Y-128212428D01*
X117500774Y-128203225D01*
X117450465Y-128212376D01*
X117410465Y-128239129D01*
X117383775Y-128278801D01*
X117374836Y-128326324D01*
X117383775Y-128373846D01*
X117410465Y-128413518D01*
X117450465Y-128440271D01*
X117500774Y-128449422D01*
X117568255Y-128456087D01*
X117630833Y-128475800D01*
X117688069Y-128507158D01*
X117737811Y-128548432D01*
X117778911Y-128598359D01*
X117810168Y-128655868D01*
X117829812Y-128718715D01*
X117836455Y-128786477D01*
G37*
G36*
X118764131Y-129516516D02*
G01*
X118823428Y-129535427D01*
X118877545Y-129565066D01*
X118923079Y-129602655D01*
X118960589Y-129648196D01*
X118990215Y-129702397D01*
X119009056Y-129761781D01*
X119015403Y-129825313D01*
X119015403Y-131232701D01*
X118805568Y-131232701D01*
X118805568Y-131045947D01*
X118754296Y-131059113D01*
X118700696Y-131063532D01*
X118637178Y-131057184D01*
X118577872Y-131038345D01*
X118523749Y-131008724D01*
X118478221Y-130971209D01*
X118440701Y-130925606D01*
X118411085Y-130871466D01*
X118392246Y-130812161D01*
X118385897Y-130748642D01*
X118385897Y-129825954D01*
X118595733Y-129825954D01*
X118595733Y-130747726D01*
X118603382Y-130788486D01*
X118626141Y-130822190D01*
X118659850Y-130844873D01*
X118700696Y-130852506D01*
X118739823Y-130845005D01*
X118774060Y-130822190D01*
X118797678Y-130788399D01*
X118805568Y-130747726D01*
X118805568Y-129825954D01*
X118797676Y-129785297D01*
X118774060Y-129751582D01*
X118739816Y-129728695D01*
X118700696Y-129721174D01*
X118659858Y-129728827D01*
X118626141Y-129751582D01*
X118603385Y-129785210D01*
X118595733Y-129825954D01*
X118385897Y-129825954D01*
X118385897Y-129825038D01*
X118392246Y-129761520D01*
X118411085Y-129702214D01*
X118440706Y-129648090D01*
X118478221Y-129602563D01*
X118523755Y-129564975D01*
X118577872Y-129535335D01*
X118637178Y-129516496D01*
X118700696Y-129510148D01*
X118764131Y-129516516D01*
G37*
G36*
X119854469Y-129551181D02*
G01*
X119854469Y-131022500D01*
X119644634Y-131022500D01*
X119644634Y-130811474D01*
X119539762Y-130811474D01*
X119476392Y-130805080D01*
X119417946Y-130786195D01*
X119364561Y-130756495D01*
X119318295Y-130718600D01*
X119279975Y-130672746D01*
X119250151Y-130618491D01*
X119231304Y-130558963D01*
X119224963Y-130495484D01*
X119224963Y-129551181D01*
X119434798Y-129551181D01*
X119434798Y-130495484D01*
X119442665Y-130536181D01*
X119466214Y-130570040D01*
X119500547Y-130592925D01*
X119539762Y-130600448D01*
X119644634Y-130600448D01*
X119644634Y-129551181D01*
X119854469Y-129551181D01*
G37*
G36*
X116224131Y-129516516D02*
G01*
X116283428Y-129535427D01*
X116337545Y-129565066D01*
X116383079Y-129602655D01*
X116420589Y-129648196D01*
X116450215Y-129702397D01*
X116469056Y-129761781D01*
X116475403Y-129825313D01*
X116475403Y-131232701D01*
X116265568Y-131232701D01*
X116265568Y-131045947D01*
X116214296Y-131059113D01*
X116160696Y-131063532D01*
X116097178Y-131057184D01*
X116037872Y-131038345D01*
X115983749Y-131008724D01*
X115938221Y-130971209D01*
X115900701Y-130925606D01*
X115871085Y-130871466D01*
X115852246Y-130812161D01*
X115845897Y-130748642D01*
X115845897Y-129825954D01*
X116055733Y-129825954D01*
X116055733Y-130747726D01*
X116063382Y-130788486D01*
X116086141Y-130822190D01*
X116119850Y-130844873D01*
X116160696Y-130852506D01*
X116199823Y-130845005D01*
X116234060Y-130822190D01*
X116257678Y-130788399D01*
X116265568Y-130747726D01*
X116265568Y-129825954D01*
X116257676Y-129785297D01*
X116234060Y-129751582D01*
X116199816Y-129728695D01*
X116160696Y-129721174D01*
X116119858Y-129728827D01*
X116086141Y-129751582D01*
X116063385Y-129785210D01*
X116055733Y-129825954D01*
X115845897Y-129825954D01*
X115845897Y-129825038D01*
X115852246Y-129761520D01*
X115871085Y-129702214D01*
X115900706Y-129648090D01*
X115938221Y-129602563D01*
X115983755Y-129564975D01*
X116037872Y-129535335D01*
X116097178Y-129516496D01*
X116160696Y-129510148D01*
X116224131Y-129516516D01*
G37*
G36*
X117316575Y-130749833D02*
G01*
X117310229Y-130813087D01*
X117291388Y-130872199D01*
X117261774Y-130926152D01*
X117224251Y-130971575D01*
X117178734Y-131008925D01*
X117124600Y-131038436D01*
X117065312Y-131057208D01*
X117001868Y-131063532D01*
X116938359Y-131057139D01*
X116879045Y-131038162D01*
X116824937Y-131008413D01*
X116779394Y-130970659D01*
X116741875Y-130924878D01*
X116712257Y-130870550D01*
X116693414Y-130811088D01*
X116687070Y-130747543D01*
X116687070Y-130600723D01*
X116896905Y-130600723D01*
X116896905Y-130747543D01*
X116904559Y-130788381D01*
X116927313Y-130822098D01*
X116961030Y-130844853D01*
X117001868Y-130852506D01*
X117041009Y-130845045D01*
X117075233Y-130822373D01*
X117098859Y-130788861D01*
X117106740Y-130748551D01*
X117106740Y-130499240D01*
X117098859Y-130458930D01*
X117075233Y-130425417D01*
X117041009Y-130402746D01*
X117001868Y-130395284D01*
X116896905Y-130395284D01*
X116896905Y-130184258D01*
X117001868Y-130184258D01*
X117040981Y-130176717D01*
X117075233Y-130153758D01*
X117098845Y-130119866D01*
X117106740Y-130079020D01*
X117106740Y-129826412D01*
X117098845Y-129785565D01*
X117075233Y-129751673D01*
X117040981Y-129728715D01*
X117001868Y-129721174D01*
X116961030Y-129728827D01*
X116927313Y-129751582D01*
X116904554Y-129785286D01*
X116896905Y-129826045D01*
X116896905Y-129972957D01*
X116687070Y-129972957D01*
X116687070Y-129826045D01*
X116693412Y-129762580D01*
X116712257Y-129703130D01*
X116741875Y-129648802D01*
X116779394Y-129603021D01*
X116824937Y-129565267D01*
X116879045Y-129535519D01*
X116938359Y-129516541D01*
X117001868Y-129510148D01*
X117065303Y-129516516D01*
X117124600Y-129535427D01*
X117178714Y-129565156D01*
X117224251Y-129602838D01*
X117261760Y-129648559D01*
X117291388Y-129702947D01*
X117310228Y-129762512D01*
X117316575Y-129826229D01*
X117316575Y-130036888D01*
X117307832Y-130112380D01*
X117281954Y-130181327D01*
X117241493Y-130241974D01*
X117190638Y-130289771D01*
X117241511Y-130337270D01*
X117281954Y-130397482D01*
X117307836Y-130465875D01*
X117316575Y-130540730D01*
X117316575Y-130749833D01*
G37*
G36*
X113684131Y-129516516D02*
G01*
X113743428Y-129535427D01*
X113797545Y-129565066D01*
X113843079Y-129602655D01*
X113880589Y-129648196D01*
X113910215Y-129702397D01*
X113929056Y-129761781D01*
X113935403Y-129825313D01*
X113935403Y-131232701D01*
X113725568Y-131232701D01*
X113725568Y-131045947D01*
X113674296Y-131059113D01*
X113620696Y-131063532D01*
X113557178Y-131057184D01*
X113497872Y-131038345D01*
X113443749Y-131008724D01*
X113398221Y-130971209D01*
X113360701Y-130925606D01*
X113331085Y-130871466D01*
X113312246Y-130812161D01*
X113305897Y-130748642D01*
X113305897Y-129825954D01*
X113515733Y-129825954D01*
X113515733Y-130747726D01*
X113523382Y-130788486D01*
X113546141Y-130822190D01*
X113579850Y-130844873D01*
X113620696Y-130852506D01*
X113659823Y-130845005D01*
X113694060Y-130822190D01*
X113717678Y-130788399D01*
X113725568Y-130747726D01*
X113725568Y-129825954D01*
X113717676Y-129785297D01*
X113694060Y-129751582D01*
X113659816Y-129728695D01*
X113620696Y-129721174D01*
X113579858Y-129728827D01*
X113546141Y-129751582D01*
X113523385Y-129785210D01*
X113515733Y-129825954D01*
X113305897Y-129825954D01*
X113305897Y-129825038D01*
X113312246Y-129761520D01*
X113331085Y-129702214D01*
X113360706Y-129648090D01*
X113398221Y-129602563D01*
X113443755Y-129564975D01*
X113497872Y-129535335D01*
X113557178Y-129516496D01*
X113620696Y-129510148D01*
X113684131Y-129516516D01*
G37*
G36*
X114776575Y-130601639D02*
G01*
X114776575Y-131022500D01*
X114147070Y-131022500D01*
X114147070Y-130603837D01*
X114153418Y-130540503D01*
X114172257Y-130481379D01*
X114201877Y-130427349D01*
X114239394Y-130381912D01*
X114284918Y-130344489D01*
X114339045Y-130314959D01*
X114398350Y-130296120D01*
X114461868Y-130289771D01*
X114500898Y-130281994D01*
X114535233Y-130258172D01*
X114558980Y-130223666D01*
X114566740Y-130184441D01*
X114566740Y-129826503D01*
X114558845Y-129785657D01*
X114535233Y-129751765D01*
X114500975Y-129728734D01*
X114461868Y-129721174D01*
X114421030Y-129728827D01*
X114387313Y-129751582D01*
X114364554Y-129785286D01*
X114356905Y-129826045D01*
X114356905Y-130180686D01*
X114147070Y-130180686D01*
X114147070Y-129826045D01*
X114153412Y-129762580D01*
X114172257Y-129703130D01*
X114201875Y-129648802D01*
X114239394Y-129603021D01*
X114284937Y-129565267D01*
X114339045Y-129535519D01*
X114398359Y-129516541D01*
X114461868Y-129510148D01*
X114525303Y-129516516D01*
X114584600Y-129535427D01*
X114638708Y-129565175D01*
X114684251Y-129602930D01*
X114721760Y-129648650D01*
X114751388Y-129703039D01*
X114770228Y-129762604D01*
X114776575Y-129826320D01*
X114776575Y-130184624D01*
X114770228Y-130248341D01*
X114751388Y-130307906D01*
X114721764Y-130362311D01*
X114684251Y-130408107D01*
X114638714Y-130445788D01*
X114584600Y-130475518D01*
X114525303Y-130494428D01*
X114461868Y-130500797D01*
X114421001Y-130508370D01*
X114387313Y-130530839D01*
X114364542Y-130564163D01*
X114356905Y-130604386D01*
X114356905Y-130811474D01*
X114566740Y-130811474D01*
X114566740Y-130601639D01*
X114776575Y-130601639D01*
G37*
G36*
X111144131Y-129516516D02*
G01*
X111203428Y-129535427D01*
X111257545Y-129565066D01*
X111303079Y-129602655D01*
X111340589Y-129648196D01*
X111370215Y-129702397D01*
X111389056Y-129761781D01*
X111395403Y-129825313D01*
X111395403Y-131232701D01*
X111185568Y-131232701D01*
X111185568Y-131045947D01*
X111134296Y-131059113D01*
X111080696Y-131063532D01*
X111017178Y-131057184D01*
X110957872Y-131038345D01*
X110903749Y-131008724D01*
X110858221Y-130971209D01*
X110820701Y-130925606D01*
X110791085Y-130871466D01*
X110772246Y-130812161D01*
X110765897Y-130748642D01*
X110765897Y-129825954D01*
X110975733Y-129825954D01*
X110975733Y-130747726D01*
X110983382Y-130788486D01*
X111006141Y-130822190D01*
X111039850Y-130844873D01*
X111080696Y-130852506D01*
X111119823Y-130845005D01*
X111154060Y-130822190D01*
X111177678Y-130788399D01*
X111185568Y-130747726D01*
X111185568Y-129825954D01*
X111177676Y-129785297D01*
X111154060Y-129751582D01*
X111119816Y-129728695D01*
X111080696Y-129721174D01*
X111039858Y-129728827D01*
X111006141Y-129751582D01*
X110983385Y-129785210D01*
X110975733Y-129825954D01*
X110765897Y-129825954D01*
X110765897Y-129825038D01*
X110772246Y-129761520D01*
X110791085Y-129702214D01*
X110820706Y-129648090D01*
X110858221Y-129602563D01*
X110903755Y-129564975D01*
X110957872Y-129535335D01*
X111017178Y-129516496D01*
X111080696Y-129510148D01*
X111144131Y-129516516D01*
G37*
G36*
X112236575Y-130811474D02*
G01*
X112236575Y-131022500D01*
X111607070Y-131022500D01*
X111607070Y-130811474D01*
X111816905Y-130811474D01*
X111816905Y-129762206D01*
X111607070Y-129762206D01*
X111607070Y-129551181D01*
X112026740Y-129551181D01*
X112026740Y-130811474D01*
X112236575Y-130811474D01*
G37*
G36*
X114611474Y-121388406D02*
G01*
X114822500Y-121388406D01*
X114822500Y-122017912D01*
X114611474Y-122017912D01*
X114611474Y-121808076D01*
X113562206Y-121808076D01*
X113562206Y-122017912D01*
X113351181Y-122017912D01*
X113351181Y-121388406D01*
X113562206Y-121388406D01*
X113562206Y-121598241D01*
X114611474Y-121598241D01*
X114611474Y-121388406D01*
G37*
G36*
X113943225Y-120864047D02*
G01*
X113950748Y-120903262D01*
X113973633Y-120937595D01*
X114007328Y-120961143D01*
X114047914Y-120969011D01*
X114822500Y-120969011D01*
X114822500Y-121178846D01*
X114046723Y-121178846D01*
X113983297Y-121172497D01*
X113924083Y-121153658D01*
X113869959Y-121124038D01*
X113824432Y-121086522D01*
X113786936Y-121040991D01*
X113757387Y-120986871D01*
X113738548Y-120927566D01*
X113732199Y-120864047D01*
X113738546Y-120800608D01*
X113757387Y-120741315D01*
X113786936Y-120687195D01*
X113824432Y-120641664D01*
X113869959Y-120604149D01*
X113924083Y-120574528D01*
X113983297Y-120555689D01*
X114046723Y-120549340D01*
X114822500Y-120549340D01*
X114822500Y-120759175D01*
X114047914Y-120759175D01*
X114007249Y-120766824D01*
X113973633Y-120789584D01*
X113950875Y-120823288D01*
X113943225Y-120864047D01*
G37*
G36*
X113943225Y-120022875D02*
G01*
X113950748Y-120062089D01*
X113973633Y-120096423D01*
X114007328Y-120119970D01*
X114047914Y-120127838D01*
X114822500Y-120127838D01*
X114822500Y-120337673D01*
X113353196Y-120337673D01*
X113353196Y-120127838D01*
X113749785Y-120127838D01*
X113736620Y-120076554D01*
X113732199Y-120022875D01*
X113738546Y-119959436D01*
X113757387Y-119900143D01*
X113786936Y-119846023D01*
X113824432Y-119800492D01*
X113869959Y-119762976D01*
X113924083Y-119733356D01*
X113983297Y-119714517D01*
X114046723Y-119708168D01*
X114822500Y-119708168D01*
X114822500Y-119918003D01*
X114047914Y-119918003D01*
X114007249Y-119925652D01*
X113973633Y-119948411D01*
X113950875Y-119982115D01*
X113943225Y-120022875D01*
G37*
G36*
X113436177Y-119263585D02*
G01*
X113484796Y-119272789D01*
X113525478Y-119300313D01*
X113553000Y-119340920D01*
X113562206Y-119389523D01*
X113552873Y-119439765D01*
X113525478Y-119479831D01*
X113484881Y-119506498D01*
X113436177Y-119515460D01*
X113387489Y-119506495D01*
X113346967Y-119479831D01*
X113319501Y-119439757D01*
X113310148Y-119389523D01*
X113319374Y-119340927D01*
X113346967Y-119300313D01*
X113387574Y-119272791D01*
X113436177Y-119263585D01*
G37*
G36*
X113773232Y-119284559D02*
G01*
X114822500Y-119284559D01*
X114822500Y-119494394D01*
X113773232Y-119494394D01*
X113773232Y-119284559D01*
G37*
G36*
X114612630Y-118451290D02*
G01*
X114671832Y-118470132D01*
X114725879Y-118499747D01*
X114771392Y-118537268D01*
X114808814Y-118582792D01*
X114838345Y-118636919D01*
X114857186Y-118696212D01*
X114863532Y-118759651D01*
X114857161Y-118823025D01*
X114838345Y-118881467D01*
X114808844Y-118934864D01*
X114771209Y-118981118D01*
X114725623Y-119019441D01*
X114671649Y-119049262D01*
X114612356Y-119068103D01*
X114548917Y-119074449D01*
X113353196Y-119074449D01*
X113353196Y-118864614D01*
X113749785Y-118864614D01*
X113736620Y-118813330D01*
X113732199Y-118759651D01*
X113943225Y-118759651D01*
X113950728Y-118798872D01*
X113973542Y-118833199D01*
X114007135Y-118856752D01*
X114047547Y-118864614D01*
X114548184Y-118864614D01*
X114588612Y-118856755D01*
X114622281Y-118833199D01*
X114645023Y-118798879D01*
X114652506Y-118759651D01*
X114644897Y-118718877D01*
X114622281Y-118685187D01*
X114588692Y-118662419D01*
X114548184Y-118654779D01*
X114047547Y-118654779D01*
X114007056Y-118662422D01*
X113973542Y-118685187D01*
X113950855Y-118718884D01*
X113943225Y-118759651D01*
X113732199Y-118759651D01*
X113738546Y-118696212D01*
X113757387Y-118636919D01*
X113786936Y-118582799D01*
X113824432Y-118537268D01*
X113869869Y-118499751D01*
X113923900Y-118470132D01*
X113983102Y-118451290D01*
X114046448Y-118444944D01*
X114549283Y-118444944D01*
X114612630Y-118451290D01*
G37*
G36*
X113436177Y-118000361D02*
G01*
X113484796Y-118009565D01*
X113525478Y-118037089D01*
X113553000Y-118077696D01*
X113562206Y-118126299D01*
X113552873Y-118176541D01*
X113525478Y-118216607D01*
X113484881Y-118243274D01*
X113436177Y-118252236D01*
X113387489Y-118243271D01*
X113346967Y-118216607D01*
X113319501Y-118176533D01*
X113310148Y-118126299D01*
X113319374Y-118077703D01*
X113346967Y-118037089D01*
X113387574Y-118009567D01*
X113436177Y-118000361D01*
G37*
G36*
X113773232Y-118021335D02*
G01*
X114822500Y-118021335D01*
X114822500Y-118231170D01*
X113773232Y-118231170D01*
X113773232Y-118021335D01*
G37*
G36*
X114547543Y-117179613D02*
G01*
X114611088Y-117185958D01*
X114670550Y-117204801D01*
X114724878Y-117234419D01*
X114770659Y-117271937D01*
X114808413Y-117317481D01*
X114838162Y-117371588D01*
X114857141Y-117430890D01*
X114863532Y-117494320D01*
X114857184Y-117557839D01*
X114838345Y-117617144D01*
X114808796Y-117671264D01*
X114771300Y-117716795D01*
X114725787Y-117754316D01*
X114671741Y-117783931D01*
X114612448Y-117802772D01*
X114549009Y-117809119D01*
X113563397Y-117809119D01*
X113563397Y-117599284D01*
X113773232Y-117599284D01*
X113773232Y-117179613D01*
X113984258Y-117179613D01*
X113984258Y-117599284D01*
X114548093Y-117599284D01*
X114588679Y-117591639D01*
X114622281Y-117568875D01*
X114644893Y-117535173D01*
X114652506Y-117494320D01*
X114644985Y-117455200D01*
X114622098Y-117420956D01*
X114588295Y-117397342D01*
X114547543Y-117389449D01*
X114190796Y-117389449D01*
X114190796Y-117179613D01*
X114547543Y-117179613D01*
G37*
G36*
X111747543Y-120666354D02*
G01*
X111811088Y-120672699D01*
X111870550Y-120691542D01*
X111924878Y-120721160D01*
X111970659Y-120758678D01*
X112008413Y-120804222D01*
X112038162Y-120858329D01*
X112057141Y-120917631D01*
X112063532Y-120981061D01*
X112057184Y-121044579D01*
X112038345Y-121103885D01*
X112008724Y-121158008D01*
X111971209Y-121203536D01*
X111925606Y-121241056D01*
X111871466Y-121270672D01*
X111812161Y-121289511D01*
X111748642Y-121295860D01*
X110825038Y-121295860D01*
X110761520Y-121289511D01*
X110702214Y-121270672D01*
X110648090Y-121241051D01*
X110602563Y-121203536D01*
X110564975Y-121158002D01*
X110535335Y-121103885D01*
X110516496Y-121044579D01*
X110510148Y-120981061D01*
X110516539Y-120917631D01*
X110535519Y-120858329D01*
X110565267Y-120804222D01*
X110603021Y-120758678D01*
X110648802Y-120721160D01*
X110703130Y-120691542D01*
X110762580Y-120672697D01*
X110826045Y-120666354D01*
X110972957Y-120666354D01*
X110972957Y-120876189D01*
X110826045Y-120876189D01*
X110785372Y-120884079D01*
X110751582Y-120907697D01*
X110728695Y-120941941D01*
X110721174Y-120981061D01*
X110728827Y-121021899D01*
X110751582Y-121055616D01*
X110785210Y-121078372D01*
X110825954Y-121086024D01*
X111747726Y-121086024D01*
X111788486Y-121078375D01*
X111822190Y-121055616D01*
X111844873Y-121021907D01*
X111852506Y-120981061D01*
X111844985Y-120941941D01*
X111822098Y-120907697D01*
X111788295Y-120884083D01*
X111747543Y-120876189D01*
X111180961Y-120876189D01*
X111180961Y-120666354D01*
X111747543Y-120666354D01*
G37*
G36*
X111812630Y-119833635D02*
G01*
X111871832Y-119852476D01*
X111925879Y-119882091D01*
X111971392Y-119919612D01*
X112008814Y-119965136D01*
X112038345Y-120019263D01*
X112057186Y-120078556D01*
X112063532Y-120141995D01*
X112057184Y-120205514D01*
X112038345Y-120264819D01*
X112008814Y-120318946D01*
X111971392Y-120364470D01*
X111925879Y-120401991D01*
X111871832Y-120431606D01*
X111812630Y-120450447D01*
X111749283Y-120456794D01*
X111246448Y-120456794D01*
X111183102Y-120450447D01*
X111123900Y-120431606D01*
X111069869Y-120401987D01*
X111024432Y-120364470D01*
X110986936Y-120318939D01*
X110957387Y-120264819D01*
X110938548Y-120205514D01*
X110932199Y-120141995D01*
X111143225Y-120141995D01*
X111150728Y-120181217D01*
X111173542Y-120215543D01*
X111207135Y-120239096D01*
X111247547Y-120246959D01*
X111748184Y-120246959D01*
X111788612Y-120239099D01*
X111822281Y-120215543D01*
X111845023Y-120181224D01*
X111852506Y-120141995D01*
X111844897Y-120101221D01*
X111822281Y-120067532D01*
X111788692Y-120044764D01*
X111748184Y-120037123D01*
X111247547Y-120037123D01*
X111207056Y-120044767D01*
X111173542Y-120067532D01*
X111150855Y-120101229D01*
X111143225Y-120141995D01*
X110932199Y-120141995D01*
X110938546Y-120078556D01*
X110957387Y-120019263D01*
X110986936Y-119965143D01*
X111024432Y-119919612D01*
X111069869Y-119882096D01*
X111123900Y-119852476D01*
X111183102Y-119833635D01*
X111246448Y-119827288D01*
X111749283Y-119827288D01*
X111812630Y-119833635D01*
G37*
G36*
X111143225Y-119300823D02*
G01*
X111150748Y-119340037D01*
X111173633Y-119374371D01*
X111207328Y-119397918D01*
X111247914Y-119405786D01*
X112022500Y-119405786D01*
X112022500Y-119615621D01*
X111246723Y-119615621D01*
X111183293Y-119609295D01*
X111124083Y-119590525D01*
X111069959Y-119560905D01*
X111024432Y-119523389D01*
X110986932Y-119477783D01*
X110957387Y-119423647D01*
X110938548Y-119364341D01*
X110932199Y-119300823D01*
X110937516Y-119241444D01*
X110953174Y-119186517D01*
X110978408Y-119135732D01*
X111011884Y-119090988D01*
X110978403Y-119046258D01*
X110953174Y-118995550D01*
X110937514Y-118940545D01*
X110932199Y-118881153D01*
X110938546Y-118817714D01*
X110957387Y-118758421D01*
X110986942Y-118704223D01*
X111024432Y-118658678D01*
X111069959Y-118621162D01*
X111124083Y-118591542D01*
X111183297Y-118572703D01*
X111246723Y-118566354D01*
X112022500Y-118566354D01*
X112022500Y-118776281D01*
X111247914Y-118776281D01*
X111207249Y-118783929D01*
X111173633Y-118806689D01*
X111150875Y-118840393D01*
X111143225Y-118881153D01*
X111150748Y-118920367D01*
X111173633Y-118954700D01*
X111207328Y-118978248D01*
X111247914Y-118986116D01*
X112022500Y-118986116D01*
X112022500Y-119195951D01*
X111247914Y-119195951D01*
X111207249Y-119203600D01*
X111173633Y-119226359D01*
X111150875Y-119260063D01*
X111143225Y-119300823D01*
G37*
G36*
X111143225Y-118039064D02*
G01*
X111150748Y-118078279D01*
X111173633Y-118112612D01*
X111207328Y-118136160D01*
X111247914Y-118144028D01*
X112022500Y-118144028D01*
X112022500Y-118353863D01*
X111246723Y-118353863D01*
X111183293Y-118347537D01*
X111124083Y-118328767D01*
X111069959Y-118299146D01*
X111024432Y-118261631D01*
X110986932Y-118216025D01*
X110957387Y-118161888D01*
X110938548Y-118102583D01*
X110932199Y-118039064D01*
X110937516Y-117979685D01*
X110953174Y-117924759D01*
X110978408Y-117873973D01*
X111011884Y-117829229D01*
X110978403Y-117784500D01*
X110953174Y-117733791D01*
X110937514Y-117678786D01*
X110932199Y-117619394D01*
X110938546Y-117555955D01*
X110957387Y-117496662D01*
X110986942Y-117442465D01*
X111024432Y-117396919D01*
X111069959Y-117359404D01*
X111124083Y-117329783D01*
X111183297Y-117310944D01*
X111246723Y-117304596D01*
X112022500Y-117304596D01*
X112022500Y-117514522D01*
X111247914Y-117514522D01*
X111207249Y-117522171D01*
X111173633Y-117544931D01*
X111150875Y-117578635D01*
X111143225Y-117619394D01*
X111150748Y-117658609D01*
X111173633Y-117692942D01*
X111207328Y-117716489D01*
X111247914Y-117724357D01*
X112022500Y-117724357D01*
X112022500Y-117934193D01*
X111247914Y-117934193D01*
X111207249Y-117941841D01*
X111173633Y-117964601D01*
X111150875Y-117998305D01*
X111143225Y-118039064D01*
G37*
D13*
G36*
X122673848Y-131050000D02*
G01*
X122548349Y-131042089D01*
X122425519Y-131018411D01*
X122304431Y-130978681D01*
X122189824Y-130923411D01*
X122081907Y-130851502D01*
X121979954Y-130761793D01*
X121893616Y-130663663D01*
X121822977Y-130558080D01*
X121767219Y-130444277D01*
X121726913Y-130324032D01*
X121702705Y-130199857D01*
X121694557Y-130070708D01*
X121702742Y-129939698D01*
X121726987Y-129814603D01*
X121767219Y-129694330D01*
X121822988Y-129580454D01*
X121893628Y-129474873D01*
X121979954Y-129376814D01*
X122080183Y-129289034D01*
X122188101Y-129217976D01*
X122304553Y-129162735D01*
X122427369Y-129122864D01*
X122550168Y-129099255D01*
X122673848Y-129091416D01*
X122797528Y-129099255D01*
X122920327Y-129122864D01*
X123043143Y-129162735D01*
X123159668Y-129217986D01*
X123267584Y-129289047D01*
X123367742Y-129376814D01*
X123146702Y-129597854D01*
X123044638Y-129513741D01*
X122929815Y-129452407D01*
X122805317Y-129414641D01*
X122673848Y-129401971D01*
X122542362Y-129414638D01*
X122417760Y-129452407D01*
X122303039Y-129513733D01*
X122200994Y-129597854D01*
X122116854Y-129699913D01*
X122055425Y-129814741D01*
X122017752Y-129939234D01*
X122005111Y-130070708D01*
X122017749Y-130202199D01*
X122055425Y-130326796D01*
X122116846Y-130441522D01*
X122200994Y-130543562D01*
X122303034Y-130627710D01*
X122417760Y-130689131D01*
X122542357Y-130726807D01*
X122673848Y-130739445D01*
X122805322Y-130726804D01*
X122929815Y-130689131D01*
X123044643Y-130627702D01*
X123146702Y-130543562D01*
X123367742Y-130761793D01*
X123265785Y-130851495D01*
X123157829Y-130923404D01*
X123043143Y-130978681D01*
X122922135Y-131018408D01*
X122799346Y-131042088D01*
X122673848Y-131050000D01*
G37*
G36*
X124039579Y-129101966D02*
G01*
X124161364Y-129131418D01*
X124277302Y-129176535D01*
X124386892Y-129235922D01*
X124485936Y-129306352D01*
X124575279Y-129388171D01*
X124653843Y-129480348D01*
X124720928Y-129582767D01*
X124776779Y-129696406D01*
X124817881Y-129816005D01*
X124842584Y-129939876D01*
X124850907Y-130069120D01*
X124842527Y-130200212D01*
X124817771Y-130324543D01*
X124776779Y-130443300D01*
X124721005Y-130555999D01*
X124653931Y-130657991D01*
X124575279Y-130750191D01*
X124485944Y-130831937D01*
X124386899Y-130902328D01*
X124277302Y-130961706D01*
X124161364Y-131006823D01*
X124039579Y-131036274D01*
X123910816Y-131050000D01*
X123591835Y-131050000D01*
X123591835Y-130739445D01*
X123902390Y-130739445D01*
X124030451Y-130721491D01*
X124150052Y-130679239D01*
X124259096Y-130615394D01*
X124352896Y-130533792D01*
X124430285Y-130436185D01*
X124489916Y-130323988D01*
X124527623Y-130201794D01*
X124540352Y-130070708D01*
X124527621Y-129939639D01*
X124489916Y-129817550D01*
X124430208Y-129705512D01*
X124352896Y-129609089D01*
X124259237Y-129528169D01*
X124150052Y-129463520D01*
X124030384Y-129420246D01*
X123902390Y-129401971D01*
X123902390Y-130739445D01*
X123591835Y-130739445D01*
X123591835Y-129088241D01*
X123910816Y-129088241D01*
X124039579Y-129101966D01*
G37*
G36*
X126132083Y-130388590D02*
G01*
X126288764Y-130388590D01*
X126288764Y-130699633D01*
X126132083Y-130699633D01*
X126132083Y-131050000D01*
X125821528Y-131050000D01*
X125821528Y-130699633D01*
X124900977Y-130699633D01*
X125139081Y-130387979D01*
X125530513Y-130387979D01*
X125821528Y-130387979D01*
X125821528Y-130007449D01*
X125530513Y-130387979D01*
X125139081Y-130387979D01*
X126132083Y-129088241D01*
X126132083Y-130388590D01*
G37*
G36*
X127184605Y-129099199D02*
G01*
X127289427Y-129131716D01*
X127385284Y-129183420D01*
X127467114Y-129250785D01*
X127534671Y-129332694D01*
X127587404Y-129428838D01*
X127620872Y-129534216D01*
X127632222Y-129648778D01*
X127632222Y-130489462D01*
X127620941Y-130601606D01*
X127587404Y-130706716D01*
X127534678Y-130802757D01*
X127467114Y-130884647D01*
X127385340Y-130952337D01*
X127289427Y-131005181D01*
X127184543Y-131038715D01*
X127072540Y-131050000D01*
X126960625Y-131038721D01*
X126855652Y-131005181D01*
X126759740Y-130952337D01*
X126677965Y-130884647D01*
X126610472Y-130802771D01*
X126557676Y-130706716D01*
X126524231Y-130601612D01*
X126512979Y-130489462D01*
X126512979Y-129650976D01*
X126823534Y-129650976D01*
X126823534Y-130490439D01*
X126831728Y-130556400D01*
X126855724Y-130614460D01*
X126896319Y-130666660D01*
X126948519Y-130707255D01*
X127006579Y-130731251D01*
X127072540Y-130739445D01*
X127138581Y-130731247D01*
X127196680Y-130707248D01*
X127248883Y-130666660D01*
X127289477Y-130614460D01*
X127313474Y-130556400D01*
X127321667Y-130490439D01*
X127321667Y-129650976D01*
X127313468Y-129584939D01*
X127289467Y-129526883D01*
X127248883Y-129474755D01*
X127196680Y-129434168D01*
X127138581Y-129410168D01*
X127072540Y-129401971D01*
X127006579Y-129410165D01*
X126948519Y-129434161D01*
X126896319Y-129474755D01*
X126855735Y-129526883D01*
X126831734Y-129584939D01*
X126823534Y-129650976D01*
X126512979Y-129650976D01*
X126512979Y-129648778D01*
X126524300Y-129534210D01*
X126557676Y-129428838D01*
X126610479Y-129332680D01*
X126677965Y-129250785D01*
X126759796Y-129183420D01*
X126855652Y-129131716D01*
X126960563Y-129099194D01*
X127072540Y-129088241D01*
X127184605Y-129099199D01*
G37*
G36*
X128480637Y-129260180D02*
G01*
X128389741Y-129434333D01*
X128315546Y-129612568D01*
X128258217Y-129783234D01*
X128381153Y-129747556D01*
X128510031Y-129735607D01*
X128641241Y-129748661D01*
X128764654Y-129787508D01*
X128877871Y-129848769D01*
X128974581Y-129927581D01*
X129054298Y-130023398D01*
X129115875Y-130136409D01*
X129154627Y-130259954D01*
X129167655Y-130391399D01*
X129154537Y-130524999D01*
X129115875Y-130647854D01*
X129054457Y-130759897D01*
X128974581Y-130856681D01*
X128877780Y-130936589D01*
X128764654Y-130998220D01*
X128641247Y-131036975D01*
X128510031Y-131050000D01*
X128378904Y-131036980D01*
X128255408Y-130998220D01*
X128142628Y-130936531D01*
X128046947Y-130856681D01*
X127968236Y-130760000D01*
X127907118Y-130647854D01*
X127868462Y-130525088D01*
X127855338Y-130391399D01*
X127855945Y-130372836D01*
X128165893Y-130372836D01*
X128165893Y-130386880D01*
X128165893Y-130392498D01*
X128172647Y-130463246D01*
X128192515Y-130528175D01*
X128224490Y-130587109D01*
X128266643Y-130637351D01*
X128317625Y-130678879D01*
X128375820Y-130711479D01*
X128439555Y-130732329D01*
X128510031Y-130739445D01*
X128578369Y-130732425D01*
X128642899Y-130711479D01*
X128702304Y-130678785D01*
X128753419Y-130637351D01*
X128795669Y-130587100D01*
X128827669Y-130528175D01*
X128847538Y-130463246D01*
X128854291Y-130392498D01*
X128847596Y-130324097D01*
X128827669Y-130259630D01*
X128795720Y-130200380D01*
X128753419Y-130149110D01*
X128702144Y-130106836D01*
X128642899Y-130074982D01*
X128578432Y-130055055D01*
X128510031Y-130048360D01*
X128441843Y-130054722D01*
X128378506Y-130073517D01*
X128320589Y-130103729D01*
X128270795Y-130143492D01*
X128229238Y-130191622D01*
X128196667Y-130246929D01*
X128175052Y-130307526D01*
X128165893Y-130372836D01*
X127855945Y-130372836D01*
X127860072Y-130246651D01*
X127874878Y-130088782D01*
X127900484Y-129928542D01*
X127939235Y-129760886D01*
X127989635Y-129593408D01*
X128052564Y-129423220D01*
X128128028Y-129255660D01*
X128219138Y-129088241D01*
X128594051Y-129088241D01*
X128480637Y-129260180D01*
G37*
G36*
X129363782Y-129088241D02*
G01*
X130681716Y-129088241D01*
X129710729Y-131050000D01*
X129363782Y-131050000D01*
X130180774Y-129399284D01*
X129363782Y-129399284D01*
X129363782Y-129088241D01*
G37*
G36*
X121889585Y-134410000D02*
G01*
X121578908Y-134410000D01*
X121578908Y-133056406D01*
X121425035Y-133165460D01*
X121243197Y-132913524D01*
X121889585Y-132448241D01*
X121889585Y-134410000D01*
G37*
G36*
X122112701Y-133332766D02*
G01*
X122977321Y-133332766D01*
X122977321Y-133528649D01*
X122112701Y-133528649D01*
X122112701Y-133332766D01*
G37*
G36*
X123847436Y-134410000D02*
G01*
X123536759Y-134410000D01*
X123536759Y-133056406D01*
X123382886Y-133165460D01*
X123201047Y-132913524D01*
X123847436Y-132448241D01*
X123847436Y-134410000D01*
G37*
G36*
X124695850Y-132620180D02*
G01*
X124604955Y-132794333D01*
X124530760Y-132972568D01*
X124473430Y-133143234D01*
X124596366Y-133107556D01*
X124725245Y-133095607D01*
X124856454Y-133108661D01*
X124979868Y-133147508D01*
X125093084Y-133208769D01*
X125189795Y-133287581D01*
X125269512Y-133383398D01*
X125331089Y-133496409D01*
X125369841Y-133619954D01*
X125382869Y-133751399D01*
X125369750Y-133884999D01*
X125331089Y-134007854D01*
X125269671Y-134119897D01*
X125189795Y-134216681D01*
X125092993Y-134296589D01*
X124979868Y-134358220D01*
X124856460Y-134396975D01*
X124725245Y-134410000D01*
X124594118Y-134396980D01*
X124470621Y-134358220D01*
X124357842Y-134296531D01*
X124262160Y-134216681D01*
X124183450Y-134120000D01*
X124122331Y-134007854D01*
X124083675Y-133885088D01*
X124070552Y-133751399D01*
X124071159Y-133732836D01*
X124381106Y-133732836D01*
X124381106Y-133746880D01*
X124381106Y-133752498D01*
X124387860Y-133823246D01*
X124407729Y-133888175D01*
X124439704Y-133947109D01*
X124481857Y-133997351D01*
X124532839Y-134038879D01*
X124591033Y-134071479D01*
X124654769Y-134092329D01*
X124725245Y-134099445D01*
X124793583Y-134092425D01*
X124858113Y-134071479D01*
X124917517Y-134038785D01*
X124968633Y-133997351D01*
X125010883Y-133947100D01*
X125042882Y-133888175D01*
X125062751Y-133823246D01*
X125069505Y-133752498D01*
X125062810Y-133684097D01*
X125042882Y-133619630D01*
X125010933Y-133560380D01*
X124968633Y-133509110D01*
X124917358Y-133466836D01*
X124858113Y-133434982D01*
X124793645Y-133415055D01*
X124725245Y-133408360D01*
X124657057Y-133414722D01*
X124593720Y-133433517D01*
X124535803Y-133463729D01*
X124486009Y-133503492D01*
X124444451Y-133551622D01*
X124411881Y-133606929D01*
X124390266Y-133667526D01*
X124381106Y-133732836D01*
X124071159Y-133732836D01*
X124075286Y-133606651D01*
X124090091Y-133448782D01*
X124115698Y-133288542D01*
X124154449Y-133120886D01*
X124204849Y-132953408D01*
X124267778Y-132783220D01*
X124343241Y-132615660D01*
X124434351Y-132448241D01*
X124809264Y-132448241D01*
X124695850Y-132620180D01*
G37*
G36*
X127793668Y-134410000D02*
G01*
X127483113Y-134410000D01*
X127483113Y-133465512D01*
X126979362Y-134211064D01*
X126475733Y-133465512D01*
X126475733Y-134410000D01*
X126165178Y-134410000D01*
X126165178Y-132448241D01*
X126979362Y-133653335D01*
X127793668Y-132448241D01*
X127793668Y-134410000D01*
G37*
G36*
X128017516Y-133807452D02*
G01*
X128017516Y-132448241D01*
X128328071Y-132448241D01*
X128328071Y-133805254D01*
X128333681Y-133862737D01*
X128350419Y-133917240D01*
X128377431Y-133967251D01*
X128413434Y-134010907D01*
X128457089Y-134046910D01*
X128507101Y-134073921D01*
X128561604Y-134090659D01*
X128619086Y-134096270D01*
X128676551Y-134090657D01*
X128730949Y-134073921D01*
X128780798Y-134046833D01*
X128823273Y-134010907D01*
X128858180Y-133967340D01*
X128884822Y-133917240D01*
X128901653Y-133862731D01*
X128907293Y-133805254D01*
X128907293Y-132448241D01*
X129217848Y-132448241D01*
X129217848Y-133807452D01*
X129205875Y-133927973D01*
X129170220Y-134041559D01*
X129113925Y-134145415D01*
X129041504Y-134233534D01*
X128953822Y-134306058D01*
X128851239Y-134362372D01*
X128739151Y-134397994D01*
X128619086Y-134410000D01*
X128496568Y-134397931D01*
X128384003Y-134362372D01*
X128281500Y-134306072D01*
X128193737Y-134233534D01*
X128121387Y-134145429D01*
X128065021Y-134041559D01*
X128029459Y-133927979D01*
X128017516Y-133807452D01*
G37*
G36*
X131131979Y-132448241D02*
G01*
X130474477Y-133429120D01*
X131131979Y-134410000D01*
X130757066Y-134410000D01*
X130286899Y-133709389D01*
X129816853Y-134410000D01*
X129441940Y-134410000D01*
X130099442Y-133429120D01*
X129441940Y-132448241D01*
X129816853Y-132448241D01*
X130286899Y-133148852D01*
X130757066Y-132448241D01*
X131131979Y-132448241D01*
G37*
D11*
G36*
X140883486Y-124741993D02*
G01*
X140962544Y-124767114D01*
X141034700Y-124806633D01*
X141095412Y-124856751D01*
X141145433Y-124917454D01*
X141184927Y-124989619D01*
X141210045Y-125068693D01*
X141218510Y-125153384D01*
X141218510Y-125209316D01*
X141209294Y-125299145D01*
X141182118Y-125381507D01*
X141139123Y-125455733D01*
X141084177Y-125517184D01*
X141139266Y-125581025D01*
X141182118Y-125655792D01*
X141209297Y-125738137D01*
X141218510Y-125827861D01*
X141218510Y-126384856D01*
X141210045Y-126469548D01*
X141184927Y-126548621D01*
X141145439Y-126620808D01*
X141095412Y-126681612D01*
X141034709Y-126731632D01*
X140962544Y-126771127D01*
X140883486Y-126796248D01*
X140798901Y-126804710D01*
X140714210Y-126796245D01*
X140635136Y-126771127D01*
X140562971Y-126731632D01*
X140502268Y-126681612D01*
X140452241Y-126620808D01*
X140412753Y-126548621D01*
X140387635Y-126469548D01*
X140379170Y-126384856D01*
X140379170Y-125827861D01*
X140384882Y-125772051D01*
X140658950Y-125772051D01*
X140658950Y-126383635D01*
X140669442Y-126437875D01*
X140700837Y-126482920D01*
X140746606Y-126513338D01*
X140798901Y-126523342D01*
X140853257Y-126513170D01*
X140898186Y-126482920D01*
X140928531Y-126437981D01*
X140938730Y-126383635D01*
X140938730Y-125772051D01*
X140928527Y-125717726D01*
X140898186Y-125672889D01*
X140853247Y-125642544D01*
X140798901Y-125632344D01*
X140746615Y-125642374D01*
X140700837Y-125672889D01*
X140669446Y-125717832D01*
X140658950Y-125772051D01*
X140384882Y-125772051D01*
X140388354Y-125738131D01*
X140415440Y-125655792D01*
X140458854Y-125581225D01*
X140516190Y-125517184D01*
X140458993Y-125455527D01*
X140415440Y-125381507D01*
X140388356Y-125299151D01*
X140379170Y-125209316D01*
X140379170Y-125154483D01*
X140658950Y-125154483D01*
X140658950Y-125266102D01*
X140669437Y-125320237D01*
X140700837Y-125365265D01*
X140746606Y-125395683D01*
X140798901Y-125405687D01*
X140853257Y-125395514D01*
X140898186Y-125365265D01*
X140928536Y-125320343D01*
X140938730Y-125266102D01*
X140938730Y-125154483D01*
X140928532Y-125100263D01*
X140898186Y-125055443D01*
X140853247Y-125025098D01*
X140798901Y-125014898D01*
X140746615Y-125024929D01*
X140700837Y-125055443D01*
X140669441Y-125100369D01*
X140658950Y-125154483D01*
X140379170Y-125154483D01*
X140379170Y-125153384D01*
X140387635Y-125068693D01*
X140412753Y-124989619D01*
X140452247Y-124917454D01*
X140502268Y-124856751D01*
X140562980Y-124806633D01*
X140635136Y-124767114D01*
X140714210Y-124741995D01*
X140798901Y-124733531D01*
X140883486Y-124741993D01*
G37*
G36*
X140883475Y-127282052D02*
G01*
X140962544Y-127307358D01*
X141034687Y-127347022D01*
X141095412Y-127397362D01*
X141145436Y-127458403D01*
X141184927Y-127530840D01*
X141210054Y-127610107D01*
X141218510Y-127694727D01*
X141218510Y-127806713D01*
X140938730Y-127806713D01*
X140938730Y-127694727D01*
X140928531Y-127640381D01*
X140898186Y-127595443D01*
X140853247Y-127565098D01*
X140798901Y-127554898D01*
X140746615Y-127564929D01*
X140700837Y-127595443D01*
X140669441Y-127640369D01*
X140658950Y-127694483D01*
X140658950Y-127945687D01*
X140798901Y-127945687D01*
X140883486Y-127954149D01*
X140962544Y-127979270D01*
X141034709Y-128018764D01*
X141095412Y-128068785D01*
X141145425Y-128129507D01*
X141184927Y-128201775D01*
X141210048Y-128280833D01*
X141218510Y-128365418D01*
X141218510Y-128924979D01*
X141210051Y-129009581D01*
X141184927Y-129088743D01*
X141145433Y-129160908D01*
X141095412Y-129221612D01*
X141034709Y-129271632D01*
X140962544Y-129311127D01*
X140883486Y-129336248D01*
X140798901Y-129344710D01*
X140714210Y-129336245D01*
X140635136Y-129311127D01*
X140562971Y-129271632D01*
X140502268Y-129221612D01*
X140452241Y-129160808D01*
X140412753Y-129088621D01*
X140387635Y-129009548D01*
X140379170Y-128924856D01*
X140379170Y-128924002D01*
X140658950Y-128924002D01*
X140669435Y-128978011D01*
X140700837Y-129022920D01*
X140746606Y-129053338D01*
X140798901Y-129063342D01*
X140853257Y-129053170D01*
X140898186Y-129022920D01*
X140928538Y-128978116D01*
X140938730Y-128924002D01*
X140938730Y-128366395D01*
X140928538Y-128312280D01*
X140898186Y-128267477D01*
X140853257Y-128237227D01*
X140798901Y-128227055D01*
X140658950Y-128227055D01*
X140658950Y-128924002D01*
X140379170Y-128924002D01*
X140379170Y-127693384D01*
X140387635Y-127608693D01*
X140412753Y-127529619D01*
X140452247Y-127457454D01*
X140502268Y-127396751D01*
X140562980Y-127346633D01*
X140635136Y-127307114D01*
X140714210Y-127281995D01*
X140798901Y-127273531D01*
X140883475Y-127282052D01*
G37*
G36*
X140660537Y-121388632D02*
G01*
X140660537Y-121670000D01*
X139821196Y-121670000D01*
X139821196Y-121388632D01*
X140100977Y-121388632D01*
X140100977Y-119989609D01*
X139821196Y-119989609D01*
X139821196Y-119708241D01*
X140380757Y-119708241D01*
X140380757Y-121388632D01*
X140660537Y-121388632D01*
G37*
G36*
X141782100Y-121108852D02*
G01*
X141782100Y-121670000D01*
X140942760Y-121670000D01*
X140942760Y-121111782D01*
X140951224Y-121027338D01*
X140976343Y-120948506D01*
X141015836Y-120876466D01*
X141065858Y-120815882D01*
X141126557Y-120765985D01*
X141198726Y-120726612D01*
X141277800Y-120701493D01*
X141362491Y-120693028D01*
X141414530Y-120682659D01*
X141460310Y-120650896D01*
X141491973Y-120604889D01*
X141502320Y-120552588D01*
X141502320Y-120075338D01*
X141491794Y-120020876D01*
X141460310Y-119975687D01*
X141414633Y-119944979D01*
X141362491Y-119934898D01*
X141308040Y-119945103D01*
X141263084Y-119975443D01*
X141232739Y-120020381D01*
X141222540Y-120074727D01*
X141222540Y-120547581D01*
X140942760Y-120547581D01*
X140942760Y-120074727D01*
X140951216Y-119990107D01*
X140976343Y-119910840D01*
X141015834Y-119838403D01*
X141065858Y-119777362D01*
X141126583Y-119727022D01*
X141198726Y-119687358D01*
X141277811Y-119662055D01*
X141362491Y-119653531D01*
X141447070Y-119662022D01*
X141526134Y-119687236D01*
X141598277Y-119726900D01*
X141659002Y-119777240D01*
X141709013Y-119838200D01*
X141748517Y-119910718D01*
X141773638Y-119990138D01*
X141782100Y-120075094D01*
X141782100Y-120552833D01*
X141773638Y-120637788D01*
X141748517Y-120717208D01*
X141709019Y-120789748D01*
X141659002Y-120850809D01*
X141598286Y-120901051D01*
X141526134Y-120940690D01*
X141447070Y-120965904D01*
X141362491Y-120974396D01*
X141308001Y-120984493D01*
X141263084Y-121014452D01*
X141232722Y-121058884D01*
X141222540Y-121112515D01*
X141222540Y-121388632D01*
X141502320Y-121388632D01*
X141502320Y-121108852D01*
X141782100Y-121108852D01*
G37*
G36*
X141218510Y-129868241D02*
G01*
X141218510Y-131830000D01*
X140938730Y-131830000D01*
X140938730Y-131548632D01*
X140798901Y-131548632D01*
X140714408Y-131540107D01*
X140636479Y-131514926D01*
X140565300Y-131475327D01*
X140503611Y-131424801D01*
X140452518Y-131363662D01*
X140412753Y-131291322D01*
X140387623Y-131211951D01*
X140379170Y-131127313D01*
X140379170Y-129868241D01*
X140658950Y-129868241D01*
X140658950Y-131127313D01*
X140669438Y-131181574D01*
X140700837Y-131226720D01*
X140746615Y-131257234D01*
X140798901Y-131267264D01*
X140938730Y-131267264D01*
X140938730Y-129868241D01*
X141218510Y-129868241D01*
G37*
G36*
X140660537Y-123728632D02*
G01*
X140660537Y-124010000D01*
X139821196Y-124010000D01*
X139821196Y-123728632D01*
X140100977Y-123728632D01*
X140100977Y-122329609D01*
X139821196Y-122329609D01*
X139821196Y-122048241D01*
X140380757Y-122048241D01*
X140380757Y-123728632D01*
X140660537Y-123728632D01*
G37*
G36*
X141447076Y-122001993D02*
G01*
X141526134Y-122027114D01*
X141598290Y-122066633D01*
X141659002Y-122116751D01*
X141709023Y-122177454D01*
X141748517Y-122249619D01*
X141773635Y-122328693D01*
X141782100Y-122413384D01*
X141782100Y-123644856D01*
X141773635Y-123729548D01*
X141748517Y-123808621D01*
X141709029Y-123880808D01*
X141659002Y-123941612D01*
X141598299Y-123991632D01*
X141526134Y-124031127D01*
X141447076Y-124056248D01*
X141362491Y-124064710D01*
X141277800Y-124056245D01*
X141198726Y-124031127D01*
X141126561Y-123991632D01*
X141065858Y-123941612D01*
X141015831Y-123880808D01*
X140976343Y-123808621D01*
X140951224Y-123729548D01*
X140942760Y-123644856D01*
X140942760Y-123643635D01*
X141222540Y-123643635D01*
X141232739Y-123697981D01*
X141263084Y-123742920D01*
X141308030Y-123773164D01*
X141362491Y-123783342D01*
X141416847Y-123773170D01*
X141461776Y-123742920D01*
X141492121Y-123697981D01*
X141502320Y-123643635D01*
X141502320Y-123367152D01*
X141222540Y-123087861D01*
X141222540Y-123643635D01*
X140942760Y-123643635D01*
X140942760Y-122414605D01*
X141222540Y-122414605D01*
X141222540Y-122691088D01*
X141502320Y-122970380D01*
X141502320Y-122414605D01*
X141492117Y-122360280D01*
X141461776Y-122315443D01*
X141416837Y-122285098D01*
X141362491Y-122274898D01*
X141308040Y-122285103D01*
X141263084Y-122315443D01*
X141232743Y-122360280D01*
X141222540Y-122414605D01*
X140942760Y-122414605D01*
X140942760Y-122413384D01*
X140951224Y-122328693D01*
X140976343Y-122249619D01*
X141015837Y-122177454D01*
X141065858Y-122116751D01*
X141126570Y-122066633D01*
X141198726Y-122027114D01*
X141277800Y-122001995D01*
X141362491Y-121993531D01*
X141447076Y-122001993D01*
G37*
G36*
X140660537Y-118848632D02*
G01*
X140660537Y-119130000D01*
X139821196Y-119130000D01*
X139821196Y-118848632D01*
X140100977Y-118848632D01*
X140100977Y-117449609D01*
X139821196Y-117449609D01*
X139821196Y-117168241D01*
X140380757Y-117168241D01*
X140380757Y-118848632D01*
X140660537Y-118848632D01*
G37*
G36*
X141779291Y-117168241D02*
G01*
X141779291Y-119130000D01*
X141499511Y-119130000D01*
X141499511Y-118848632D01*
X141359682Y-118848632D01*
X141275189Y-118840107D01*
X141197261Y-118814926D01*
X141126081Y-118775327D01*
X141064393Y-118724801D01*
X141013299Y-118663662D01*
X140973534Y-118591322D01*
X140948405Y-118511951D01*
X140939951Y-118427313D01*
X140939951Y-117168241D01*
X141219731Y-117168241D01*
X141219731Y-118427313D01*
X141230220Y-118481574D01*
X141261619Y-118526720D01*
X141307396Y-118557234D01*
X141359682Y-118567264D01*
X141499511Y-118567264D01*
X141499511Y-117168241D01*
X141779291Y-117168241D01*
G37*
G36*
X141221319Y-133608852D02*
G01*
X141221319Y-134170000D01*
X140381978Y-134170000D01*
X140381978Y-133611782D01*
X140390443Y-133527338D01*
X140415562Y-133448506D01*
X140455055Y-133376466D01*
X140505077Y-133315882D01*
X140565776Y-133265985D01*
X140637945Y-133226612D01*
X140717019Y-133201493D01*
X140801710Y-133193028D01*
X140853749Y-133182659D01*
X140899529Y-133150896D01*
X140931192Y-133104889D01*
X140941539Y-133052588D01*
X140941539Y-132575338D01*
X140931012Y-132520876D01*
X140899529Y-132475687D01*
X140853851Y-132444979D01*
X140801710Y-132434898D01*
X140747259Y-132445103D01*
X140702303Y-132475443D01*
X140671958Y-132520381D01*
X140661759Y-132574727D01*
X140661759Y-133047581D01*
X140381978Y-133047581D01*
X140381978Y-132574727D01*
X140390435Y-132490107D01*
X140415562Y-132410840D01*
X140455053Y-132338403D01*
X140505077Y-132277362D01*
X140565802Y-132227022D01*
X140637945Y-132187358D01*
X140717030Y-132162055D01*
X140801710Y-132153531D01*
X140886289Y-132162022D01*
X140965352Y-132187236D01*
X141037496Y-132226900D01*
X141098221Y-132277240D01*
X141148231Y-132338200D01*
X141187736Y-132410718D01*
X141212857Y-132490138D01*
X141221319Y-132575094D01*
X141221319Y-133052833D01*
X141212857Y-133137788D01*
X141187736Y-133217208D01*
X141148237Y-133289748D01*
X141098221Y-133350809D01*
X141037505Y-133401051D01*
X140965352Y-133440690D01*
X140886289Y-133465904D01*
X140801710Y-133474396D01*
X140747220Y-133484493D01*
X140702303Y-133514452D01*
X140671941Y-133558884D01*
X140661759Y-133612515D01*
X140661759Y-133888632D01*
X140941539Y-133888632D01*
X140941539Y-133608852D01*
X141221319Y-133608852D01*
G37*
G36*
X140660537Y-116308632D02*
G01*
X140660537Y-116590000D01*
X139821196Y-116590000D01*
X139821196Y-116308632D01*
X140100977Y-116308632D01*
X140100977Y-114909609D01*
X139821196Y-114909609D01*
X139821196Y-114628241D01*
X140380757Y-114628241D01*
X140380757Y-116308632D01*
X140660537Y-116308632D01*
G37*
G36*
X141444256Y-114582052D02*
G01*
X141523325Y-114607358D01*
X141595468Y-114647022D01*
X141656193Y-114697362D01*
X141706217Y-114758403D01*
X141745708Y-114830840D01*
X141770835Y-114910107D01*
X141779291Y-114994727D01*
X141779291Y-115106713D01*
X141499511Y-115106713D01*
X141499511Y-114994727D01*
X141489312Y-114940381D01*
X141458967Y-114895443D01*
X141414028Y-114865098D01*
X141359682Y-114854898D01*
X141307396Y-114864929D01*
X141261619Y-114895443D01*
X141230222Y-114940369D01*
X141219731Y-114994483D01*
X141219731Y-115245687D01*
X141359682Y-115245687D01*
X141444267Y-115254149D01*
X141523325Y-115279270D01*
X141595490Y-115318764D01*
X141656193Y-115368785D01*
X141706206Y-115429507D01*
X141745708Y-115501775D01*
X141770829Y-115580833D01*
X141779291Y-115665418D01*
X141779291Y-116224979D01*
X141770832Y-116309581D01*
X141745708Y-116388743D01*
X141706214Y-116460908D01*
X141656193Y-116521612D01*
X141595490Y-116571632D01*
X141523325Y-116611127D01*
X141444267Y-116636248D01*
X141359682Y-116644710D01*
X141274991Y-116636245D01*
X141195917Y-116611127D01*
X141123752Y-116571632D01*
X141063049Y-116521612D01*
X141013022Y-116460808D01*
X140973534Y-116388621D01*
X140948416Y-116309548D01*
X140939951Y-116224856D01*
X140939951Y-116224002D01*
X141219731Y-116224002D01*
X141230216Y-116278011D01*
X141261619Y-116322920D01*
X141307387Y-116353338D01*
X141359682Y-116363342D01*
X141414038Y-116353170D01*
X141458967Y-116322920D01*
X141489319Y-116278116D01*
X141499511Y-116224002D01*
X141499511Y-115666395D01*
X141489319Y-115612280D01*
X141458967Y-115567477D01*
X141414038Y-115537227D01*
X141359682Y-115527055D01*
X141219731Y-115527055D01*
X141219731Y-116224002D01*
X140939951Y-116224002D01*
X140939951Y-114993384D01*
X140948416Y-114908693D01*
X140973534Y-114829619D01*
X141013028Y-114757454D01*
X141063049Y-114696751D01*
X141123761Y-114646633D01*
X141195917Y-114607114D01*
X141274991Y-114581995D01*
X141359682Y-114573531D01*
X141444256Y-114582052D01*
G37*
G36*
X132818510Y-128925345D02*
G01*
X132810048Y-129009930D01*
X132784927Y-129088988D01*
X132745440Y-129161050D01*
X132695412Y-129221734D01*
X132634704Y-129271728D01*
X132562544Y-129311127D01*
X132483486Y-129336248D01*
X132398901Y-129344710D01*
X132314414Y-129336155D01*
X132236479Y-129310882D01*
X132165305Y-129271378D01*
X132103611Y-129220879D01*
X132052518Y-129159740D01*
X132012753Y-129087400D01*
X131987629Y-129008117D01*
X131979170Y-128923391D01*
X131979170Y-128447728D01*
X132258950Y-128447728D01*
X132258950Y-128923391D01*
X132269448Y-128977736D01*
X132300837Y-129022798D01*
X132346615Y-129053312D01*
X132398901Y-129063342D01*
X132453266Y-129053196D01*
X132498186Y-129023042D01*
X132528538Y-128978239D01*
X132538730Y-128924124D01*
X132538730Y-128311563D01*
X132528534Y-128257469D01*
X132498186Y-128212766D01*
X132453257Y-128182517D01*
X132398901Y-128172344D01*
X131979170Y-128172344D01*
X131979170Y-127328241D01*
X132818510Y-127328241D01*
X132818510Y-127609609D01*
X132258950Y-127609609D01*
X132258950Y-127890976D01*
X132398901Y-127890976D01*
X132483486Y-127899438D01*
X132562544Y-127924560D01*
X132634704Y-127963959D01*
X132695412Y-128013953D01*
X132745433Y-128074656D01*
X132784927Y-128146821D01*
X132810045Y-128225774D01*
X132818510Y-128310341D01*
X132818510Y-128925345D01*
G37*
G36*
X132821319Y-125093667D02*
G01*
X132281298Y-126750000D01*
X131987474Y-126750000D01*
X132533112Y-125069609D01*
X131981978Y-125069609D01*
X131981978Y-124788241D01*
X132821319Y-124788241D01*
X132821319Y-125093667D01*
G37*
G36*
X132821319Y-133888632D02*
G01*
X132821319Y-134170000D01*
X131981979Y-134170000D01*
X131981979Y-133888632D01*
X132261760Y-133888632D01*
X132261760Y-132489610D01*
X131981979Y-132489610D01*
X131981979Y-132208242D01*
X132541539Y-132208242D01*
X132541539Y-133888632D01*
X132821319Y-133888632D01*
G37*
G36*
X132821319Y-131466444D02*
G01*
X132812857Y-131550783D01*
X132787736Y-131629598D01*
X132748250Y-131701536D01*
X132698221Y-131762100D01*
X132637531Y-131811900D01*
X132565352Y-131851249D01*
X132486301Y-131876278D01*
X132401710Y-131884710D01*
X132317030Y-131876186D01*
X132237945Y-131850882D01*
X132165802Y-131811218D01*
X132105077Y-131760879D01*
X132055053Y-131699837D01*
X132015562Y-131627400D01*
X131990438Y-131548117D01*
X131981978Y-131463391D01*
X131981978Y-131267630D01*
X132261759Y-131267630D01*
X132261759Y-131463391D01*
X132271963Y-131517842D01*
X132302303Y-131562798D01*
X132347259Y-131593137D01*
X132401710Y-131603342D01*
X132453898Y-131593393D01*
X132499529Y-131563164D01*
X132531031Y-131518481D01*
X132541539Y-131464734D01*
X132541539Y-131132320D01*
X132531031Y-131078573D01*
X132499529Y-131033890D01*
X132453898Y-131003661D01*
X132401710Y-130993712D01*
X132261759Y-130993712D01*
X132261759Y-130712344D01*
X132401710Y-130712344D01*
X132453861Y-130702289D01*
X132499529Y-130671678D01*
X132531012Y-130626488D01*
X132541539Y-130572027D01*
X132541539Y-130235216D01*
X132531012Y-130180754D01*
X132499529Y-130135565D01*
X132453861Y-130104953D01*
X132401710Y-130094898D01*
X132347259Y-130105103D01*
X132302303Y-130135443D01*
X132271958Y-130180381D01*
X132261759Y-130234727D01*
X132261759Y-130430610D01*
X131981978Y-130430610D01*
X131981978Y-130234727D01*
X131990435Y-130150107D01*
X132015562Y-130070840D01*
X132055053Y-129998403D01*
X132105077Y-129937362D01*
X132165802Y-129887022D01*
X132237945Y-129847358D01*
X132317030Y-129822055D01*
X132401710Y-129813531D01*
X132486289Y-129822022D01*
X132565352Y-129847236D01*
X132637505Y-129886875D01*
X132698221Y-129937117D01*
X132748231Y-129998078D01*
X132787736Y-130070596D01*
X132812857Y-130150016D01*
X132821319Y-130234972D01*
X132821319Y-130515851D01*
X132809662Y-130616507D01*
X132775157Y-130708436D01*
X132721210Y-130789299D01*
X132653402Y-130853028D01*
X132721233Y-130916361D01*
X132775157Y-130996643D01*
X132809667Y-131087833D01*
X132821319Y-131187641D01*
X132821319Y-131466444D01*
G37*
G36*
X132260537Y-118848632D02*
G01*
X132260537Y-119130000D01*
X131421196Y-119130000D01*
X131421196Y-118848632D01*
X131700977Y-118848632D01*
X131700977Y-117449609D01*
X131421196Y-117449609D01*
X131421196Y-117168241D01*
X131980757Y-117168241D01*
X131980757Y-118848632D01*
X132260537Y-118848632D01*
G37*
G36*
X133382100Y-118766444D02*
G01*
X133373638Y-118850783D01*
X133348517Y-118929598D01*
X133309031Y-119001536D01*
X133259002Y-119062100D01*
X133198312Y-119111900D01*
X133126134Y-119151249D01*
X133047082Y-119176278D01*
X132962491Y-119184710D01*
X132877811Y-119176186D01*
X132798726Y-119150882D01*
X132726583Y-119111218D01*
X132665858Y-119060879D01*
X132615834Y-118999837D01*
X132576343Y-118927400D01*
X132551219Y-118848117D01*
X132542760Y-118763391D01*
X132542760Y-118567630D01*
X132822540Y-118567630D01*
X132822540Y-118763391D01*
X132832745Y-118817842D01*
X132863084Y-118862798D01*
X132908040Y-118893137D01*
X132962491Y-118903342D01*
X133014679Y-118893393D01*
X133060310Y-118863164D01*
X133091812Y-118818481D01*
X133102320Y-118764734D01*
X133102320Y-118432320D01*
X133091812Y-118378573D01*
X133060310Y-118333890D01*
X133014679Y-118303661D01*
X132962491Y-118293712D01*
X132822540Y-118293712D01*
X132822540Y-118012344D01*
X132962491Y-118012344D01*
X133014642Y-118002289D01*
X133060310Y-117971678D01*
X133091794Y-117926488D01*
X133102320Y-117872027D01*
X133102320Y-117535216D01*
X133091794Y-117480754D01*
X133060310Y-117435565D01*
X133014642Y-117404953D01*
X132962491Y-117394898D01*
X132908040Y-117405103D01*
X132863084Y-117435443D01*
X132832739Y-117480381D01*
X132822540Y-117534727D01*
X132822540Y-117730610D01*
X132542760Y-117730610D01*
X132542760Y-117534727D01*
X132551216Y-117450107D01*
X132576343Y-117370840D01*
X132615834Y-117298403D01*
X132665858Y-117237362D01*
X132726583Y-117187022D01*
X132798726Y-117147358D01*
X132877811Y-117122055D01*
X132962491Y-117113531D01*
X133047070Y-117122022D01*
X133126134Y-117147236D01*
X133198286Y-117186875D01*
X133259002Y-117237117D01*
X133309013Y-117298078D01*
X133348517Y-117370596D01*
X133373638Y-117450016D01*
X133382100Y-117534972D01*
X133382100Y-117815851D01*
X133370443Y-117916507D01*
X133335938Y-118008436D01*
X133281991Y-118089299D01*
X133214183Y-118153028D01*
X133282014Y-118216361D01*
X133335938Y-118296643D01*
X133370448Y-118387833D01*
X133382100Y-118487641D01*
X133382100Y-118766444D01*
G37*
G36*
X132260537Y-116308632D02*
G01*
X132260537Y-116590000D01*
X131421196Y-116590000D01*
X131421196Y-116308632D01*
X131700977Y-116308632D01*
X131700977Y-114909609D01*
X131421196Y-114909609D01*
X131421196Y-114628241D01*
X131980757Y-114628241D01*
X131980757Y-116308632D01*
X132260537Y-116308632D01*
G37*
G36*
X133379291Y-116225345D02*
G01*
X133370829Y-116309930D01*
X133345708Y-116388988D01*
X133306221Y-116461050D01*
X133256193Y-116521734D01*
X133195485Y-116571728D01*
X133123325Y-116611127D01*
X133044267Y-116636248D01*
X132959682Y-116644710D01*
X132875195Y-116636155D01*
X132797261Y-116610882D01*
X132726086Y-116571378D01*
X132664393Y-116520879D01*
X132613299Y-116459740D01*
X132573534Y-116387400D01*
X132548410Y-116308117D01*
X132539951Y-116223391D01*
X132539951Y-115747728D01*
X132819731Y-115747728D01*
X132819731Y-116223391D01*
X132830229Y-116277736D01*
X132861619Y-116322798D01*
X132907396Y-116353312D01*
X132959682Y-116363342D01*
X133014047Y-116353196D01*
X133058967Y-116323042D01*
X133089319Y-116278239D01*
X133099511Y-116224124D01*
X133099511Y-115611563D01*
X133089315Y-115557469D01*
X133058967Y-115512766D01*
X133014038Y-115482517D01*
X132959682Y-115472344D01*
X132539951Y-115472344D01*
X132539951Y-114628241D01*
X133379291Y-114628241D01*
X133379291Y-114909609D01*
X132819731Y-114909609D01*
X132819731Y-115190976D01*
X132959682Y-115190976D01*
X133044267Y-115199438D01*
X133123325Y-115224560D01*
X133195485Y-115263959D01*
X133256193Y-115313953D01*
X133306214Y-115374656D01*
X133345708Y-115446821D01*
X133370827Y-115525774D01*
X133379291Y-115610341D01*
X133379291Y-116225345D01*
G37*
G36*
X132260537Y-121388632D02*
G01*
X132260537Y-121670000D01*
X131421196Y-121670000D01*
X131421196Y-121388632D01*
X131700977Y-121388632D01*
X131700977Y-119989609D01*
X131421196Y-119989609D01*
X131421196Y-119708241D01*
X131980757Y-119708241D01*
X131980757Y-121388632D01*
X132260537Y-121388632D01*
G37*
G36*
X133382100Y-121388632D02*
G01*
X133382100Y-121670000D01*
X132542760Y-121670000D01*
X132542760Y-121388632D01*
X132822540Y-121388632D01*
X132822540Y-119989609D01*
X132542760Y-119989609D01*
X132542760Y-119708241D01*
X133102320Y-119708241D01*
X133102320Y-121388632D01*
X133382100Y-121388632D01*
G37*
G36*
X132483486Y-122001993D02*
G01*
X132562544Y-122027114D01*
X132634700Y-122066633D01*
X132695412Y-122116751D01*
X132745433Y-122177454D01*
X132784927Y-122249619D01*
X132810045Y-122328693D01*
X132818510Y-122413384D01*
X132818510Y-123644856D01*
X132810045Y-123729548D01*
X132784927Y-123808621D01*
X132745439Y-123880808D01*
X132695412Y-123941612D01*
X132634709Y-123991632D01*
X132562544Y-124031127D01*
X132483486Y-124056248D01*
X132398901Y-124064710D01*
X132314221Y-124056186D01*
X132235136Y-124030882D01*
X132162993Y-123991218D01*
X132102268Y-123940879D01*
X132052244Y-123879837D01*
X132012753Y-123807400D01*
X131987629Y-123728117D01*
X131979170Y-123643391D01*
X131979170Y-123083831D01*
X132258950Y-123083831D01*
X132258950Y-123643391D01*
X132269448Y-123697736D01*
X132300837Y-123742798D01*
X132346615Y-123773312D01*
X132398901Y-123783342D01*
X132453257Y-123773170D01*
X132498186Y-123742920D01*
X132528538Y-123698116D01*
X132538730Y-123644002D01*
X132538730Y-122947055D01*
X132398901Y-122947055D01*
X132314210Y-122938590D01*
X132235136Y-122913471D01*
X132162975Y-122873857D01*
X132102268Y-122823712D01*
X132052243Y-122762790D01*
X132012753Y-122690478D01*
X131987632Y-122611178D01*
X131979170Y-122526346D01*
X131979170Y-122414483D01*
X132258950Y-122414483D01*
X132258950Y-122526102D01*
X132269437Y-122580237D01*
X132300837Y-122625265D01*
X132346606Y-122655683D01*
X132398901Y-122665687D01*
X132538730Y-122665687D01*
X132538730Y-122414483D01*
X132528532Y-122360263D01*
X132498186Y-122315443D01*
X132453247Y-122285098D01*
X132398901Y-122274898D01*
X132346615Y-122284929D01*
X132300837Y-122315443D01*
X132269441Y-122360369D01*
X132258950Y-122414483D01*
X131979170Y-122414483D01*
X131979170Y-122414239D01*
X131987635Y-122329424D01*
X132012753Y-122250230D01*
X132052256Y-122177837D01*
X132102268Y-122116995D01*
X132162989Y-122066780D01*
X132235136Y-122027236D01*
X132314216Y-122002025D01*
X132398901Y-121993531D01*
X132483486Y-122001993D01*
G37*
D14*
X148435000Y-114375000D02*
X148435000Y-123265000D01*
X143355000Y-114375000D02*
X143990000Y-113740000D01*
D12*
G36*
X100427264Y-119915634D02*
G01*
X100990000Y-119915634D01*
X100990000Y-120195414D01*
X100427264Y-120195414D01*
X100427264Y-120754975D01*
X100145896Y-120754975D01*
X100145896Y-120195414D01*
X99590976Y-120195414D01*
X99590976Y-119915634D01*
X100145896Y-119915634D01*
X100145896Y-119355952D01*
X100427264Y-119355952D01*
X100427264Y-119915634D01*
G37*
G36*
X100625345Y-118236098D02*
G01*
X100709930Y-118244560D01*
X100788988Y-118269681D01*
X100861050Y-118309168D01*
X100921734Y-118359196D01*
X100971728Y-118419904D01*
X101011127Y-118492065D01*
X101036248Y-118571122D01*
X101044710Y-118655707D01*
X101036155Y-118740195D01*
X101010882Y-118818129D01*
X100971378Y-118889303D01*
X100920879Y-118950997D01*
X100859740Y-119002090D01*
X100787400Y-119041855D01*
X100708117Y-119066979D01*
X100623391Y-119075439D01*
X100147728Y-119075439D01*
X100147728Y-118795658D01*
X100623391Y-118795658D01*
X100677736Y-118785160D01*
X100722798Y-118753771D01*
X100753312Y-118707993D01*
X100763342Y-118655707D01*
X100753196Y-118601342D01*
X100723042Y-118556423D01*
X100678239Y-118526071D01*
X100624124Y-118515878D01*
X100011563Y-118515878D01*
X99957469Y-118526075D01*
X99912766Y-118556423D01*
X99882517Y-118601352D01*
X99872344Y-118655707D01*
X99872344Y-119075439D01*
X99028241Y-119075439D01*
X99028241Y-118236098D01*
X99309609Y-118236098D01*
X99309609Y-118795658D01*
X99590976Y-118795658D01*
X99590976Y-118655707D01*
X99599438Y-118571122D01*
X99624560Y-118492065D01*
X99663959Y-118419904D01*
X99713953Y-118359196D01*
X99774656Y-118309176D01*
X99846821Y-118269681D01*
X99925774Y-118244563D01*
X100010341Y-118236098D01*
X100625345Y-118236098D01*
G37*
G36*
X99031416Y-117111726D02*
G01*
X100990000Y-117285139D01*
X100990000Y-117780341D01*
X99031416Y-117951067D01*
X99031416Y-117671286D01*
X100617896Y-117531457D01*
X99031416Y-117394315D01*
X99031416Y-117111726D01*
G37*
D14*
X98755000Y-114375000D02*
X99390000Y-113740000D01*
X146530000Y-123900000D02*
X145895000Y-123265000D01*
X100660000Y-123900000D02*
X99390000Y-123900000D01*
X101295000Y-114375000D02*
X101295000Y-123265000D01*
X143990000Y-123900000D02*
X143355000Y-123265000D01*
D12*
G36*
X145027264Y-120476416D02*
G01*
X145590000Y-120476416D01*
X145590000Y-120756196D01*
X145027264Y-120756196D01*
X145027264Y-121315757D01*
X144745896Y-121315757D01*
X144745896Y-120756196D01*
X144190976Y-120756196D01*
X144190976Y-120476416D01*
X144745896Y-120476416D01*
X144745896Y-119916734D01*
X145027264Y-119916734D01*
X145027264Y-120476416D01*
G37*
G36*
X145308632Y-118794071D02*
G01*
X145590000Y-118794071D01*
X145590000Y-119633412D01*
X145308632Y-119633412D01*
X145308632Y-119353632D01*
X143909609Y-119353632D01*
X143909609Y-119633412D01*
X143628241Y-119633412D01*
X143628241Y-119073851D01*
X145308632Y-119073851D01*
X145308632Y-118794071D01*
G37*
G36*
X145028852Y-117672508D02*
G01*
X145590000Y-117672508D01*
X145590000Y-118511849D01*
X145031782Y-118511849D01*
X144947338Y-118503384D01*
X144868506Y-118478265D01*
X144796466Y-118438772D01*
X144735882Y-118388750D01*
X144685985Y-118328051D01*
X144646612Y-118255882D01*
X144621493Y-118176808D01*
X144613028Y-118092117D01*
X144602659Y-118040078D01*
X144570896Y-117994298D01*
X144524889Y-117962636D01*
X144472588Y-117952288D01*
X143995338Y-117952288D01*
X143940876Y-117962815D01*
X143895687Y-117994298D01*
X143864979Y-118039976D01*
X143854898Y-118092117D01*
X143865103Y-118146568D01*
X143895443Y-118191524D01*
X143940381Y-118221869D01*
X143994727Y-118232068D01*
X144467581Y-118232068D01*
X144467581Y-118511849D01*
X143994727Y-118511849D01*
X143910107Y-118503392D01*
X143830840Y-118478265D01*
X143758403Y-118438775D01*
X143697362Y-118388750D01*
X143647022Y-118328025D01*
X143607358Y-118255882D01*
X143582055Y-118176797D01*
X143573531Y-118092117D01*
X143582022Y-118007538D01*
X143607236Y-117928475D01*
X143646900Y-117856331D01*
X143697240Y-117795607D01*
X143758200Y-117745596D01*
X143830718Y-117706092D01*
X143910138Y-117680971D01*
X143995094Y-117672508D01*
X144472833Y-117672508D01*
X144557788Y-117680971D01*
X144637208Y-117706092D01*
X144709748Y-117745590D01*
X144770809Y-117795607D01*
X144821051Y-117856323D01*
X144860690Y-117928475D01*
X144885904Y-118007538D01*
X144894396Y-118092117D01*
X144904493Y-118146607D01*
X144934452Y-118191524D01*
X144978884Y-118221886D01*
X145032515Y-118232068D01*
X145308632Y-118232068D01*
X145308632Y-117952288D01*
X145028852Y-117952288D01*
X145028852Y-117672508D01*
G37*
G36*
X143631416Y-116550945D02*
G01*
X145590000Y-116724357D01*
X145590000Y-117219560D01*
X143631416Y-117390286D01*
X143631416Y-117110505D01*
X145217896Y-116970676D01*
X143631416Y-116833534D01*
X143631416Y-116550945D01*
G37*
D14*
X143990000Y-113740000D02*
X145260000Y-113740000D01*
D15*
X142600000Y-94400000D02*
X142600000Y-103200000D01*
X141900000Y-103900000D01*
X105200000Y-103900000D01*
X104500000Y-103200000D01*
X104500000Y-94400000D01*
X105200000Y-93700000D01*
X141900000Y-93700000D01*
X142600000Y-94400000D01*
G36*
X142600000Y-94400000D02*
G01*
X142600000Y-103200000D01*
X141900000Y-103900000D01*
X105200000Y-103900000D01*
X104500000Y-103200000D01*
X104500000Y-94400000D01*
X105200000Y-93700000D01*
X141900000Y-93700000D01*
X142600000Y-94400000D01*
G37*
D14*
X103835000Y-114375000D02*
X103835000Y-123265000D01*
X101295000Y-123265000D02*
X100660000Y-123900000D01*
D12*
G36*
X102623370Y-120201953D02*
G01*
X102904738Y-120201953D01*
X102904738Y-120761513D01*
X102623370Y-120761513D01*
X102623370Y-120201953D01*
G37*
G36*
X103248632Y-119081123D02*
G01*
X103530000Y-119081123D01*
X103530000Y-119920463D01*
X103248632Y-119920463D01*
X103248632Y-119640683D01*
X101849609Y-119640683D01*
X101849609Y-119920463D01*
X101568241Y-119920463D01*
X101568241Y-119360903D01*
X103248632Y-119360903D01*
X103248632Y-119081123D01*
G37*
G36*
X102968852Y-117959559D02*
G01*
X103530000Y-117959559D01*
X103530000Y-118798900D01*
X102971782Y-118798900D01*
X102887338Y-118790435D01*
X102808506Y-118765317D01*
X102736466Y-118725824D01*
X102675882Y-118675802D01*
X102625985Y-118615103D01*
X102586612Y-118542933D01*
X102561493Y-118463860D01*
X102553028Y-118379169D01*
X102542659Y-118327130D01*
X102510896Y-118281349D01*
X102464889Y-118249687D01*
X102412588Y-118239340D01*
X101935338Y-118239340D01*
X101880876Y-118249866D01*
X101835687Y-118281349D01*
X101804979Y-118327027D01*
X101794898Y-118379169D01*
X101805103Y-118433620D01*
X101835443Y-118478575D01*
X101880381Y-118508920D01*
X101934727Y-118519120D01*
X102407581Y-118519120D01*
X102407581Y-118798900D01*
X101934727Y-118798900D01*
X101850107Y-118790443D01*
X101770840Y-118765317D01*
X101698403Y-118725826D01*
X101637362Y-118675802D01*
X101587022Y-118615077D01*
X101547358Y-118542933D01*
X101522055Y-118463848D01*
X101513531Y-118379169D01*
X101522022Y-118294589D01*
X101547236Y-118215526D01*
X101586900Y-118143383D01*
X101637240Y-118082658D01*
X101698200Y-118032647D01*
X101770718Y-117993143D01*
X101850138Y-117968022D01*
X101935094Y-117959559D01*
X102412833Y-117959559D01*
X102497788Y-117968022D01*
X102577208Y-117993143D01*
X102649748Y-118032641D01*
X102710809Y-118082658D01*
X102761051Y-118143374D01*
X102800690Y-118215526D01*
X102825904Y-118294589D01*
X102834396Y-118379169D01*
X102844493Y-118433658D01*
X102874452Y-118478575D01*
X102918884Y-118508937D01*
X102972515Y-118519120D01*
X103248632Y-118519120D01*
X103248632Y-118239340D01*
X102968852Y-118239340D01*
X102968852Y-117959559D01*
G37*
G36*
X101571416Y-116837996D02*
G01*
X103530000Y-117011409D01*
X103530000Y-117506611D01*
X101571416Y-117677337D01*
X101571416Y-117397557D01*
X103157896Y-117257728D01*
X101571416Y-117120585D01*
X101571416Y-116837996D01*
G37*
D14*
X146530000Y-113740000D02*
X147800000Y-113740000D01*
X145260000Y-123900000D02*
X143990000Y-123900000D01*
X143355000Y-123265000D02*
X143355000Y-114375000D01*
X145895000Y-114375000D02*
X145895000Y-123265000D01*
D12*
G36*
X147765956Y-119501098D02*
G01*
X147850417Y-119509560D01*
X147929354Y-119534681D01*
X148001291Y-119574167D01*
X148061856Y-119624196D01*
X148111753Y-119684895D01*
X148151127Y-119757064D01*
X148176248Y-119836122D01*
X148184710Y-119920707D01*
X148176245Y-120005398D01*
X148151127Y-120084472D01*
X148111632Y-120156637D01*
X148061612Y-120217340D01*
X148000808Y-120267367D01*
X147928621Y-120306855D01*
X147849548Y-120331973D01*
X147764856Y-120340438D01*
X146533384Y-120340438D01*
X146448693Y-120331973D01*
X146369619Y-120306855D01*
X146297454Y-120267361D01*
X146236751Y-120217340D01*
X146186633Y-120156628D01*
X146147114Y-120084472D01*
X146121995Y-120005398D01*
X146113531Y-119920707D01*
X146122052Y-119836133D01*
X146147358Y-119757064D01*
X146187022Y-119684921D01*
X146237362Y-119624196D01*
X146298403Y-119574172D01*
X146370840Y-119534681D01*
X146450107Y-119509554D01*
X146534727Y-119501098D01*
X146730610Y-119501098D01*
X146730610Y-119780878D01*
X146534727Y-119780878D01*
X146480381Y-119791077D01*
X146435443Y-119821422D01*
X146405098Y-119866361D01*
X146394898Y-119920707D01*
X146405103Y-119975158D01*
X146435443Y-120020114D01*
X146480280Y-120050455D01*
X146534605Y-120060658D01*
X147763635Y-120060658D01*
X147817981Y-120050459D01*
X147862920Y-120020114D01*
X147893164Y-119975168D01*
X147903342Y-119920707D01*
X147893223Y-119866332D01*
X147863164Y-119821422D01*
X147818597Y-119791067D01*
X147764734Y-119780878D01*
X147293712Y-119780878D01*
X147293712Y-119920829D01*
X147012344Y-119920829D01*
X147012344Y-119501098D01*
X147765956Y-119501098D01*
G37*
G36*
X146560251Y-118938240D02*
G01*
X148130000Y-118938240D01*
X148130000Y-119218020D01*
X146171416Y-119218020D01*
X146171416Y-118932623D01*
X146445579Y-118658460D01*
X146171416Y-118658460D01*
X146171416Y-118378680D01*
X148130000Y-118378680D01*
X148130000Y-118658460D01*
X146840153Y-118658460D01*
X146560251Y-118938240D01*
G37*
G36*
X147794366Y-117268388D02*
G01*
X147873545Y-117293509D01*
X147945835Y-117333004D01*
X148006657Y-117383024D01*
X148056802Y-117443731D01*
X148096416Y-117515892D01*
X148121538Y-117594949D01*
X148130000Y-117679535D01*
X148130000Y-118099266D01*
X146168241Y-118099266D01*
X146168241Y-117679535D01*
X146449609Y-117679535D01*
X146449609Y-117819486D01*
X147848632Y-117819486D01*
X147848632Y-117679535D01*
X147838432Y-117625189D01*
X147808087Y-117580250D01*
X147763132Y-117549910D01*
X147708681Y-117539706D01*
X146589560Y-117539706D01*
X146535109Y-117549910D01*
X146490153Y-117580250D01*
X146459808Y-117625189D01*
X146449609Y-117679535D01*
X146168241Y-117679535D01*
X146176732Y-117594955D01*
X146201946Y-117515892D01*
X146241466Y-117443736D01*
X146291584Y-117383024D01*
X146352406Y-117333004D01*
X146424696Y-117293509D01*
X146503874Y-117268388D01*
X146588583Y-117259925D01*
X147709658Y-117259925D01*
X147794366Y-117268388D01*
G37*
D14*
X103835000Y-123265000D02*
X103200000Y-123900000D01*
X99390000Y-113740000D02*
X100660000Y-113740000D01*
X103200000Y-113740000D02*
X103835000Y-114375000D01*
X100660000Y-113740000D02*
X101295000Y-114375000D01*
X101930000Y-113740000D02*
X103200000Y-113740000D01*
X147800000Y-113740000D02*
X148435000Y-114375000D01*
X145895000Y-123265000D02*
X145260000Y-123900000D01*
X101930000Y-123900000D02*
X101295000Y-123265000D01*
X148435000Y-123265000D02*
X147800000Y-123900000D01*
X99390000Y-123900000D02*
X98755000Y-123265000D01*
X103200000Y-123900000D02*
X101930000Y-123900000D01*
X147800000Y-123900000D02*
X146530000Y-123900000D01*
X145895000Y-114375000D02*
X146530000Y-113740000D01*
X98755000Y-123265000D02*
X98755000Y-114375000D01*
X101295000Y-114375000D02*
X101930000Y-113740000D01*
X145260000Y-113740000D02*
X145895000Y-114375000D01*
D11*
X121050000Y-128650000D02*
X131300000Y-128650000D01*
X131300000Y-134750000D01*
X121050000Y-134750000D01*
X121050000Y-128650000D01*
D15*
X111466666Y-109654819D02*
X111466666Y-110369104D01*
X111466666Y-110369104D02*
X111419047Y-110511961D01*
X111419047Y-110511961D02*
X111323809Y-110607200D01*
X111323809Y-110607200D02*
X111180952Y-110654819D01*
X111180952Y-110654819D02*
X111085714Y-110654819D01*
X111847619Y-109654819D02*
X112466666Y-109654819D01*
X112466666Y-109654819D02*
X112133333Y-110035771D01*
X112133333Y-110035771D02*
X112276190Y-110035771D01*
X112276190Y-110035771D02*
X112371428Y-110083390D01*
X112371428Y-110083390D02*
X112419047Y-110131009D01*
X112419047Y-110131009D02*
X112466666Y-110226247D01*
X112466666Y-110226247D02*
X112466666Y-110464342D01*
X112466666Y-110464342D02*
X112419047Y-110559580D01*
X112419047Y-110559580D02*
X112371428Y-110607200D01*
X112371428Y-110607200D02*
X112276190Y-110654819D01*
X112276190Y-110654819D02*
X111990476Y-110654819D01*
X111990476Y-110654819D02*
X111895238Y-110607200D01*
X111895238Y-110607200D02*
X111847619Y-110559580D01*
X136236666Y-135584819D02*
X136236666Y-136299104D01*
X136236666Y-136299104D02*
X136189047Y-136441961D01*
X136189047Y-136441961D02*
X136093809Y-136537200D01*
X136093809Y-136537200D02*
X135950952Y-136584819D01*
X135950952Y-136584819D02*
X135855714Y-136584819D01*
X136665238Y-135680057D02*
X136712857Y-135632438D01*
X136712857Y-135632438D02*
X136808095Y-135584819D01*
X136808095Y-135584819D02*
X137046190Y-135584819D01*
X137046190Y-135584819D02*
X137141428Y-135632438D01*
X137141428Y-135632438D02*
X137189047Y-135680057D01*
X137189047Y-135680057D02*
X137236666Y-135775295D01*
X137236666Y-135775295D02*
X137236666Y-135870533D01*
X137236666Y-135870533D02*
X137189047Y-136013390D01*
X137189047Y-136013390D02*
X136617619Y-136584819D01*
X136617619Y-136584819D02*
X137236666Y-136584819D01*
X106066666Y-133754819D02*
X106066666Y-134469104D01*
X106066666Y-134469104D02*
X106019047Y-134611961D01*
X106019047Y-134611961D02*
X105923809Y-134707200D01*
X105923809Y-134707200D02*
X105780952Y-134754819D01*
X105780952Y-134754819D02*
X105685714Y-134754819D01*
X107066666Y-134754819D02*
X106495238Y-134754819D01*
X106780952Y-134754819D02*
X106780952Y-133754819D01*
X106780952Y-133754819D02*
X106685714Y-133897676D01*
X106685714Y-133897676D02*
X106590476Y-133992914D01*
X106590476Y-133992914D02*
X106495238Y-134040533D01*
X99916666Y-129454819D02*
X99916666Y-130169104D01*
X99916666Y-130169104D02*
X99869047Y-130311961D01*
X99869047Y-130311961D02*
X99773809Y-130407200D01*
X99773809Y-130407200D02*
X99630952Y-130454819D01*
X99630952Y-130454819D02*
X99535714Y-130454819D01*
X100392857Y-130454819D02*
X100392857Y-129454819D01*
X100392857Y-129454819D02*
X100773809Y-129454819D01*
X100773809Y-129454819D02*
X100869047Y-129502438D01*
X100869047Y-129502438D02*
X100916666Y-129550057D01*
X100916666Y-129550057D02*
X100964285Y-129645295D01*
X100964285Y-129645295D02*
X100964285Y-129788152D01*
X100964285Y-129788152D02*
X100916666Y-129883390D01*
X100916666Y-129883390D02*
X100869047Y-129931009D01*
X100869047Y-129931009D02*
X100773809Y-129978628D01*
X100773809Y-129978628D02*
X100392857Y-129978628D01*
X101297619Y-129454819D02*
X101916666Y-129454819D01*
X101916666Y-129454819D02*
X101583333Y-129835771D01*
X101583333Y-129835771D02*
X101726190Y-129835771D01*
X101726190Y-129835771D02*
X101821428Y-129883390D01*
X101821428Y-129883390D02*
X101869047Y-129931009D01*
X101869047Y-129931009D02*
X101916666Y-130026247D01*
X101916666Y-130026247D02*
X101916666Y-130264342D01*
X101916666Y-130264342D02*
X101869047Y-130359580D01*
X101869047Y-130359580D02*
X101821428Y-130407200D01*
X101821428Y-130407200D02*
X101726190Y-130454819D01*
X101726190Y-130454819D02*
X101440476Y-130454819D01*
X101440476Y-130454819D02*
X101345238Y-130407200D01*
X101345238Y-130407200D02*
X101297619Y-130359580D01*
X119566666Y-111354819D02*
X119566666Y-112069104D01*
X119566666Y-112069104D02*
X119519047Y-112211961D01*
X119519047Y-112211961D02*
X119423809Y-112307200D01*
X119423809Y-112307200D02*
X119280952Y-112354819D01*
X119280952Y-112354819D02*
X119185714Y-112354819D01*
X120042857Y-112354819D02*
X120042857Y-111354819D01*
X120042857Y-111354819D02*
X120423809Y-111354819D01*
X120423809Y-111354819D02*
X120519047Y-111402438D01*
X120519047Y-111402438D02*
X120566666Y-111450057D01*
X120566666Y-111450057D02*
X120614285Y-111545295D01*
X120614285Y-111545295D02*
X120614285Y-111688152D01*
X120614285Y-111688152D02*
X120566666Y-111783390D01*
X120566666Y-111783390D02*
X120519047Y-111831009D01*
X120519047Y-111831009D02*
X120423809Y-111878628D01*
X120423809Y-111878628D02*
X120042857Y-111878628D01*
X121566666Y-112354819D02*
X120995238Y-112354819D01*
X121280952Y-112354819D02*
X121280952Y-111354819D01*
X121280952Y-111354819D02*
X121185714Y-111497676D01*
X121185714Y-111497676D02*
X121090476Y-111592914D01*
X121090476Y-111592914D02*
X120995238Y-111640533D01*
X125666666Y-111354819D02*
X125666666Y-112069104D01*
X125666666Y-112069104D02*
X125619047Y-112211961D01*
X125619047Y-112211961D02*
X125523809Y-112307200D01*
X125523809Y-112307200D02*
X125380952Y-112354819D01*
X125380952Y-112354819D02*
X125285714Y-112354819D01*
X126142857Y-112354819D02*
X126142857Y-111354819D01*
X126142857Y-111354819D02*
X126523809Y-111354819D01*
X126523809Y-111354819D02*
X126619047Y-111402438D01*
X126619047Y-111402438D02*
X126666666Y-111450057D01*
X126666666Y-111450057D02*
X126714285Y-111545295D01*
X126714285Y-111545295D02*
X126714285Y-111688152D01*
X126714285Y-111688152D02*
X126666666Y-111783390D01*
X126666666Y-111783390D02*
X126619047Y-111831009D01*
X126619047Y-111831009D02*
X126523809Y-111878628D01*
X126523809Y-111878628D02*
X126142857Y-111878628D01*
X127095238Y-111450057D02*
X127142857Y-111402438D01*
X127142857Y-111402438D02*
X127238095Y-111354819D01*
X127238095Y-111354819D02*
X127476190Y-111354819D01*
X127476190Y-111354819D02*
X127571428Y-111402438D01*
X127571428Y-111402438D02*
X127619047Y-111450057D01*
X127619047Y-111450057D02*
X127666666Y-111545295D01*
X127666666Y-111545295D02*
X127666666Y-111640533D01*
X127666666Y-111640533D02*
X127619047Y-111783390D01*
X127619047Y-111783390D02*
X127047619Y-112354819D01*
X127047619Y-112354819D02*
X127666666Y-112354819D01*
%TO.C,J3*%
D14*
X112770000Y-116930000D02*
X115370000Y-116930000D01*
X112770000Y-116930000D02*
X112770000Y-114270000D01*
X115370000Y-116930000D02*
X115370000Y-114270000D01*
X110170000Y-115600000D02*
X110170000Y-114270000D01*
X110170000Y-114270000D02*
X111500000Y-114270000D01*
X112770000Y-114270000D02*
X115370000Y-114270000D01*
%TO.C,J2*%
X139170000Y-134690000D02*
X139170000Y-114250000D01*
X139170000Y-134690000D02*
X136570000Y-134690000D01*
X139170000Y-114250000D02*
X133970000Y-114250000D01*
X136570000Y-134690000D02*
X136570000Y-132090000D01*
X136570000Y-132090000D02*
X133970000Y-132090000D01*
X135300000Y-134690000D02*
X133970000Y-134690000D01*
X133970000Y-134690000D02*
X133970000Y-133360000D01*
X133970000Y-132090000D02*
X133970000Y-114250000D01*
%TO.C,J1*%
X112770000Y-134330000D02*
X120450000Y-134330000D01*
X112770000Y-134330000D02*
X112770000Y-131670000D01*
X120450000Y-134330000D02*
X120450000Y-131670000D01*
X110170000Y-133000000D02*
X110170000Y-131670000D01*
X110170000Y-131670000D02*
X111500000Y-131670000D01*
X112770000Y-131670000D02*
X120450000Y-131670000D01*
%TO.C,JP3*%
X112800000Y-125300000D02*
X112800000Y-124700000D01*
X113500000Y-124000000D02*
X114900000Y-124000000D01*
X114900000Y-126000000D02*
X113500000Y-126000000D01*
X115600000Y-124700000D02*
X115600000Y-125300000D01*
X112800000Y-124700000D02*
G75*
G02*
X113500000Y-124000000I699999J1D01*
G01*
X113500000Y-126000000D02*
G75*
G02*
X112800000Y-125300000I-1J699999D01*
G01*
X114900000Y-124000000D02*
G75*
G02*
X115600000Y-124700000I0J-700000D01*
G01*
X115600000Y-125300000D02*
G75*
G02*
X114900000Y-126000000I-700000J0D01*
G01*
%TO.C,JP1*%
X119100000Y-115300000D02*
X119100000Y-114700000D01*
X119800000Y-114000000D02*
X121200000Y-114000000D01*
X121200000Y-116000000D02*
X119800000Y-116000000D01*
X121900000Y-114700000D02*
X121900000Y-115300000D01*
X119100000Y-114700000D02*
G75*
G02*
X119800000Y-114000000I699999J1D01*
G01*
X119800000Y-116000000D02*
G75*
G02*
X119100000Y-115300000I-1J699999D01*
G01*
X121200000Y-114000000D02*
G75*
G02*
X121900000Y-114700000I0J-700000D01*
G01*
X121900000Y-115300000D02*
G75*
G02*
X121200000Y-116000000I-700000J0D01*
G01*
%TO.C,JP2*%
X125200000Y-115300000D02*
X125200000Y-114700000D01*
X125900000Y-114000000D02*
X127300000Y-114000000D01*
X127300000Y-116000000D02*
X125900000Y-116000000D01*
X128000000Y-114700000D02*
X128000000Y-115300000D01*
X125200000Y-114700000D02*
G75*
G02*
X125900000Y-114000000I699999J1D01*
G01*
X125900000Y-116000000D02*
G75*
G02*
X125200000Y-115300000I-1J699999D01*
G01*
X127300000Y-114000000D02*
G75*
G02*
X128000000Y-114700000I0J-700000D01*
G01*
X128000000Y-115300000D02*
G75*
G02*
X127300000Y-116000000I-700000J0D01*
G01*
%TD*%
M02*
