M48
; DRILL file KiCad 10.0.0 date 2026-06-22T18:20:11
; FORMAT={-:-/ absolute / metric / decimal}
; #@! TF.CreationDate,2026-06-22T18:20:11+02:00
; #@! TF.GenerationSoftware,Kicad,Pcbnew,10.0.0
; #@! TF.FileFunction,Plated,1,2,PTH
FMAT,2
METRIC
; #@! TA.AperFunction,Plated,PTH,ViaDrill
T1C0.300
; #@! TA.AperFunction,Plated,PTH,ComponentDrill
T2C1.000
%
G90
G05
T1
X113.55Y-125.0
X113.7Y-119.7
X115.4Y-122.6
X115.515Y-119.95
X116.785Y-119.95
X116.785Y-129.25
X118.0Y-118.5
X119.325Y-119.95
X119.325Y-129.25
X121.15Y-115.0
X121.865Y-119.95
X121.865Y-129.25
X123.1Y-130.4
X123.135Y-119.95
X124.405Y-119.965
X124.405Y-129.25
X125.675Y-120.565
X125.7Y-130.7
X125.95Y-115.0
X126.945Y-129.25
X127.0Y-121.3
X127.25Y-115.0
X128.215Y-129.25
X128.4Y-121.3
X129.485Y-117.265
X130.9Y-116.95
X133.3Y-115.0
T2
X100.0Y-115.0
X100.0Y-122.6
X102.54Y-115.0
X102.54Y-122.6
X111.5Y-115.6
X111.5Y-133.0
X114.04Y-115.6
X114.04Y-133.0
X116.58Y-133.0
X119.12Y-133.0
X135.3Y-115.58
X135.3Y-118.12
X135.3Y-120.66
X135.3Y-123.2
X135.3Y-125.74
X135.3Y-128.28
X135.3Y-130.82
X135.3Y-133.36
X137.84Y-115.58
X137.84Y-118.12
X137.84Y-120.66
X137.84Y-123.2
X137.84Y-125.74
X137.84Y-128.28
X137.84Y-130.82
X137.84Y-133.36
X144.6Y-115.0
X144.6Y-122.6
X147.14Y-115.0
X147.14Y-122.6
M30
