%TF.GenerationSoftware,KiCad,Pcbnew,10.0.0*%
%TF.CreationDate,2026-06-22T18:20:13+02:00*%
%TF.ProjectId,Multiplexer1-16,4d756c74-6970-46c6-9578-6572312d3136,rev?*%
%TF.SameCoordinates,Original*%
%TF.FileFunction,Copper,L2,Bot*%
%TF.FilePolarity,Positive*%
%FSLAX46Y46*%
G04 Gerber Fmt 4.6, Leading zero omitted, Abs format (unit mm)*
G04 Created by KiCad (PCBNEW 10.0.0) date 2026-06-22 18:20:13*
%MOMM*%
%LPD*%
G01*
G04 APERTURE LIST*
G04 Aperture macros list*
%AMRoundRect*
0 Rectangle with rounded corners*
0 $1 Rounding radius*
0 $2 $3 $4 $5 $6 $7 $8 $9 X,Y pos of 4 corners*
0 Add a 4 corners polygon primitive as box body*
4,1,4,$2,$3,$4,$5,$6,$7,$8,$9,$2,$3,0*
0 Add four circle primitives for the rounded corners*
1,1,$1+$1,$2,$3*
1,1,$1+$1,$4,$5*
1,1,$1+$1,$6,$7*
1,1,$1+$1,$8,$9*
0 Add four rect primitives between the rounded corners*
20,1,$1+$1,$2,$3,$4,$5,0*
20,1,$1+$1,$4,$5,$6,$7,0*
20,1,$1+$1,$6,$7,$8,$9,0*
20,1,$1+$1,$8,$9,$2,$3,0*%
G04 Aperture macros list end*
%TA.AperFunction,SMDPad,CuDef*%
%ADD10RoundRect,0.150000X0.150000X-0.875000X0.150000X0.875000X-0.150000X0.875000X-0.150000X-0.875000X0*%
%TD*%
%TA.AperFunction,ComponentPad*%
%ADD11R,1.700000X1.700000*%
%TD*%
%TA.AperFunction,ComponentPad*%
%ADD12C,1.700000*%
%TD*%
%TA.AperFunction,SMDPad,CuDef*%
%ADD13RoundRect,0.250000X-0.475000X0.250000X-0.475000X-0.250000X0.475000X-0.250000X0.475000X0.250000X0*%
%TD*%
%TA.AperFunction,ViaPad*%
%ADD14C,0.600000*%
%TD*%
%TA.AperFunction,Conductor*%
%ADD15C,0.400000*%
%TD*%
%TA.AperFunction,Conductor*%
%ADD16C,0.800000*%
%TD*%
G04 APERTURE END LIST*
D10*
%TO.P,U1,1,Comm_1*%
%TO.N,Net-(J3-Pin_1)*%
X129485000Y-129250000D03*
%TO.P,U1,2,7_2*%
%TO.N,Net-(J2-Pin_8)*%
X128215000Y-129250000D03*
%TO.P,U1,3,6_3*%
%TO.N,Net-(J2-Pin_7)*%
X126945000Y-129250000D03*
%TO.P,U1,4,5_4*%
%TO.N,Net-(J2-Pin_6)*%
X125675000Y-129250000D03*
%TO.P,U1,5,4_5*%
%TO.N,Net-(J2-Pin_5)*%
X124405000Y-129250000D03*
%TO.P,U1,6,3_6*%
%TO.N,Net-(J2-Pin_4)*%
X123135000Y-129250000D03*
%TO.P,U1,7,2_7*%
%TO.N,Net-(J2-Pin_3)*%
X121865000Y-129250000D03*
%TO.P,U1,8,1_8*%
%TO.N,Net-(J2-Pin_2)*%
X120595000Y-129250000D03*
%TO.P,U1,9,0_9*%
%TO.N,Net-(J2-Pin_1)*%
X119325000Y-129250000D03*
%TO.P,U1,10,Q1_10*%
%TO.N,Net-(J1-Pin_1)*%
X118055000Y-129250000D03*
%TO.P,U1,11,Q2_11*%
%TO.N,Net-(J1-Pin_2)*%
X116785000Y-129250000D03*
%TO.P,U1,12,Vss_12*%
%TO.N,GND*%
X115515000Y-129250000D03*
%TO.P,U1,13,Q4_13*%
%TO.N,Net-(J1-Pin_4)*%
X115515000Y-119950000D03*
%TO.P,U1,14,Q3_14*%
%TO.N,Net-(J1-Pin_3)*%
X116785000Y-119950000D03*
%TO.P,U1,15,Inhibit_15*%
%TO.N,Net-(J3-Pin_2)*%
X118055000Y-119950000D03*
%TO.P,U1,16,15_16*%
%TO.N,Net-(J2-Pin_16)*%
X119325000Y-119950000D03*
%TO.P,U1,17,14_17*%
%TO.N,Net-(J2-Pin_15)*%
X120595000Y-119950000D03*
%TO.P,U1,18,13_18*%
%TO.N,Net-(J2-Pin_14)*%
X121865000Y-119950000D03*
%TO.P,U1,19,12_19*%
%TO.N,Net-(J2-Pin_13)*%
X123135000Y-119950000D03*
%TO.P,U1,20,11_20*%
%TO.N,Net-(J2-Pin_12)*%
X124405000Y-119950000D03*
%TO.P,U1,21,10_21*%
%TO.N,Net-(J2-Pin_11)*%
X125675000Y-119950000D03*
%TO.P,U1,22,9_22*%
%TO.N,Net-(J2-Pin_10)*%
X126945000Y-119950000D03*
%TO.P,U1,23,8_23*%
%TO.N,Net-(J2-Pin_9)*%
X128215000Y-119950000D03*
%TO.P,U1,24,Vdd_24*%
%TO.N,Net-(JP1-B)*%
X129485000Y-119950000D03*
%TD*%
D11*
%TO.P,J18,1,Pin_1_1*%
%TO.N,+12*%
X144600000Y-122600000D03*
D12*
%TO.P,J18,2,Pin_2_2*%
%TO.N,GND*%
X147140000Y-122600000D03*
%TD*%
D11*
%TO.P,J15,1,Pin_1_1*%
%TO.N,+12*%
X144600000Y-115000000D03*
D12*
%TO.P,J15,2,Pin_2_2*%
%TO.N,GND*%
X147140000Y-115000000D03*
%TD*%
D11*
%TO.P,J12,1,Pin_1_1*%
%TO.N,+5*%
X100000000Y-122600000D03*
D12*
%TO.P,J12,2,Pin_2_2*%
%TO.N,-12*%
X102540000Y-122600000D03*
%TD*%
D11*
%TO.P,J9,1,Pin_1_1*%
%TO.N,+5*%
X100000000Y-115000000D03*
D12*
%TO.P,J9,2,Pin_2_2*%
%TO.N,-12*%
X102540000Y-115000000D03*
%TD*%
D11*
%TO.P,J3,1,Pin_1_1*%
%TO.N,Net-(J3-Pin_1)*%
X111500000Y-115600000D03*
D12*
%TO.P,J3,2,Pin_2_2*%
%TO.N,Net-(J3-Pin_2)*%
X114040000Y-115600000D03*
%TD*%
D11*
%TO.P,J2,1,Pin_1_1*%
%TO.N,Net-(J2-Pin_1)*%
X135300000Y-133360000D03*
D12*
%TO.P,J2,2,Pin_2_2*%
%TO.N,Net-(J2-Pin_2)*%
X137840000Y-133360000D03*
%TO.P,J2,3,Pin_3_3*%
%TO.N,Net-(J2-Pin_3)*%
X135300000Y-130820000D03*
%TO.P,J2,4,Pin_4_4*%
%TO.N,Net-(J2-Pin_4)*%
X137840000Y-130820000D03*
%TO.P,J2,5,Pin_5_5*%
%TO.N,Net-(J2-Pin_5)*%
X135300000Y-128280000D03*
%TO.P,J2,6,Pin_6_6*%
%TO.N,Net-(J2-Pin_6)*%
X137840000Y-128280000D03*
%TO.P,J2,7,Pin_7_7*%
%TO.N,Net-(J2-Pin_7)*%
X135300000Y-125740000D03*
%TO.P,J2,8,Pin_8_8*%
%TO.N,Net-(J2-Pin_8)*%
X137840000Y-125740000D03*
%TO.P,J2,9,Pin_9_9*%
%TO.N,Net-(J2-Pin_9)*%
X135300000Y-123200000D03*
%TO.P,J2,10,Pin_10_10*%
%TO.N,Net-(J2-Pin_10)*%
X137840000Y-123200000D03*
%TO.P,J2,11,Pin_11_11*%
%TO.N,Net-(J2-Pin_11)*%
X135300000Y-120660000D03*
%TO.P,J2,12,Pin_12_12*%
%TO.N,Net-(J2-Pin_12)*%
X137840000Y-120660000D03*
%TO.P,J2,13,Pin_13_13*%
%TO.N,Net-(J2-Pin_13)*%
X135300000Y-118120000D03*
%TO.P,J2,14,Pin_14_14*%
%TO.N,Net-(J2-Pin_14)*%
X137840000Y-118120000D03*
%TO.P,J2,15,Pin_15_15*%
%TO.N,Net-(J2-Pin_15)*%
X135300000Y-115580000D03*
%TO.P,J2,16,Pin_16_16*%
%TO.N,Net-(J2-Pin_16)*%
X137840000Y-115580000D03*
%TD*%
D11*
%TO.P,J1,1,Pin_1_1*%
%TO.N,Net-(J1-Pin_1)*%
X111500000Y-133000000D03*
D12*
%TO.P,J1,2,Pin_2_2*%
%TO.N,Net-(J1-Pin_2)*%
X114040000Y-133000000D03*
%TO.P,J1,3,Pin_3_3*%
%TO.N,Net-(J1-Pin_3)*%
X116580000Y-133000000D03*
%TO.P,J1,4,Pin_4_4*%
%TO.N,Net-(J1-Pin_4)*%
X119120000Y-133000000D03*
%TD*%
D13*
%TO.P,C1,1*%
%TO.N,GND*%
X129500000Y-115350000D03*
%TO.P,C1,2*%
%TO.N,Net-(JP1-B)*%
X129500000Y-117250000D03*
%TD*%
D14*
%TO.N,Net-(J3-Pin_2)*%
X118000000Y-118500000D03*
%TO.N,GND*%
X113700000Y-119700000D03*
%TO.N,Net-(J2-Pin_16)*%
X119325000Y-119950000D03*
%TO.N,GND*%
X133300000Y-115000000D03*
%TO.N,Net-(J3-Pin_2)*%
X115400000Y-122600000D03*
%TO.N,Net-(J1-Pin_2)*%
X116785000Y-129250000D03*
%TO.N,Net-(J1-Pin_3)*%
X116785000Y-119950000D03*
%TO.N,Net-(J1-Pin_4)*%
X115515000Y-119950000D03*
%TO.N,Net-(J2-Pin_1)*%
X119325000Y-129250000D03*
%TO.N,Net-(J2-Pin_4)*%
X123100000Y-130400000D03*
%TO.N,Net-(J2-Pin_3)*%
X121865000Y-129250000D03*
%TO.N,Net-(J2-Pin_6)*%
X125700000Y-130700000D03*
%TO.N,Net-(J2-Pin_5)*%
X124405000Y-129250000D03*
%TO.N,Net-(J2-Pin_8)*%
X128215000Y-129250000D03*
%TO.N,Net-(J2-Pin_7)*%
X126945000Y-129250000D03*
%TO.N,Net-(J2-Pin_9)*%
X128400000Y-121300000D03*
%TO.N,Net-(J2-Pin_10)*%
X127000000Y-121300000D03*
%TO.N,Net-(J2-Pin_11)*%
X125675000Y-120565000D03*
%TO.N,Net-(J2-Pin_12)*%
X124405000Y-119965000D03*
%TO.N,Net-(J2-Pin_13)*%
X123135000Y-119950000D03*
%TO.N,Net-(J2-Pin_14)*%
X121865000Y-119950000D03*
%TO.N,Net-(J2-Pin_16)*%
X130900000Y-116950000D03*
%TO.N,Net-(JP1-B)*%
X129485000Y-117265000D03*
%TO.N,+12*%
X127250000Y-115000000D03*
%TO.N,GND*%
X113550000Y-125000000D03*
%TO.N,Net-(JP1-B)*%
X121150000Y-115000000D03*
X125950000Y-115000000D03*
%TD*%
%TO.N,Net-(J3-Pin_2)*%
D15*
X118055000Y-118555000D02*
X118055000Y-119950000D01*
X118000000Y-118500000D02*
X118055000Y-118555000D01*
%TO.N,GND*%
D16*
X117300000Y-116000000D02*
X113700000Y-119600000D01*
X127664214Y-116000000D02*
X117300000Y-116000000D01*
X129500000Y-115350000D02*
X128314214Y-115350000D01*
X113700000Y-119600000D02*
X113700000Y-119700000D01*
X128314214Y-115350000D02*
X127664214Y-116000000D01*
%TO.N,Net-(J2-Pin_15)*%
D15*
X120595000Y-117705000D02*
X120595000Y-119950000D01*
X128298834Y-116800000D02*
X121500000Y-116800000D01*
X121500000Y-116800000D02*
X120595000Y-117705000D01*
X128848834Y-116250000D02*
X128298834Y-116800000D01*
X134630000Y-116250000D02*
X128848834Y-116250000D01*
X135300000Y-115580000D02*
X134630000Y-116250000D01*
%TO.N,GND*%
D16*
X129500000Y-115350000D02*
X132950000Y-115350000D01*
X132950000Y-115350000D02*
X133300000Y-115000000D01*
%TO.N,Net-(J3-Pin_2)*%
D15*
X115900000Y-122100000D02*
X115400000Y-122600000D01*
X116929999Y-122100000D02*
X115900000Y-122100000D01*
X118055000Y-120974999D02*
X116929999Y-122100000D01*
X118055000Y-119950000D02*
X118055000Y-120974999D01*
%TO.N,Net-(J1-Pin_1)*%
X118055000Y-129786974D02*
X118055000Y-129250000D01*
X117166974Y-130675000D02*
X118055000Y-129786974D01*
X111500000Y-133000000D02*
X113825000Y-130675000D01*
X113825000Y-130675000D02*
X117166974Y-130675000D01*
%TO.N,Net-(J2-Pin_2)*%
X122878026Y-132070000D02*
X120595000Y-129786974D01*
X136550000Y-132070000D02*
X122878026Y-132070000D01*
X137840000Y-133360000D02*
X136550000Y-132070000D01*
X120595000Y-129786974D02*
X120595000Y-129250000D01*
%TO.N,Net-(J2-Pin_4)*%
X123100000Y-129285000D02*
X123135000Y-129250000D01*
X123100000Y-130400000D02*
X123100000Y-129285000D01*
%TO.N,Net-(J2-Pin_6)*%
X125700000Y-129275000D02*
X125675000Y-129250000D01*
X125700000Y-130700000D02*
X125700000Y-129275000D01*
%TO.N,Net-(J2-Pin_9)*%
X128215000Y-121115000D02*
X128215000Y-119950000D01*
X128400000Y-121300000D02*
X128215000Y-121115000D01*
%TO.N,Net-(J2-Pin_10)*%
X127000000Y-121300000D02*
X127000000Y-120005000D01*
X127000000Y-120005000D02*
X126945000Y-119950000D01*
%TO.N,Net-(J3-Pin_1)*%
X119625000Y-127825000D02*
X111500000Y-119700000D01*
X129084999Y-127825000D02*
X119625000Y-127825000D01*
X129485000Y-128225001D02*
X129084999Y-127825000D01*
X129485000Y-129250000D02*
X129485000Y-128225001D01*
X111500000Y-119700000D02*
X111500000Y-115600000D01*
%TO.N,Net-(J2-Pin_14)*%
X121865000Y-119950000D02*
X121865000Y-119413026D01*
%TO.N,Net-(J2-Pin_16)*%
X119400000Y-119875000D02*
X119325000Y-119950000D01*
X130980000Y-116870000D02*
X130900000Y-116950000D01*
X136550000Y-116870000D02*
X130980000Y-116870000D01*
X137840000Y-115580000D02*
X136550000Y-116870000D01*
%TO.N,Net-(JP1-B)*%
D16*
X129485000Y-119950000D02*
X129485000Y-117265000D01*
X129485000Y-117265000D02*
X129500000Y-117250000D01*
%TO.N,+12*%
X128250000Y-114000000D02*
X127250000Y-115000000D01*
X143600000Y-114000000D02*
X128250000Y-114000000D01*
X144600000Y-115000000D02*
X143600000Y-114000000D01*
%TO.N,GND*%
X113550000Y-127285000D02*
X113550000Y-125000000D01*
X115515000Y-129250000D02*
X113550000Y-127285000D01*
%TO.N,Net-(JP1-B)*%
X125950000Y-115000000D02*
X121150000Y-115000000D01*
%TO.N,GND*%
X147140000Y-115000000D02*
X147140000Y-122600000D01*
%TO.N,+12*%
X144600000Y-122600000D02*
X144600000Y-115000000D01*
%TO.N,-12*%
X102540000Y-122600000D02*
X102540000Y-115000000D01*
%TO.N,+5*%
X100000000Y-115000000D02*
X100000000Y-122600000D01*
%TD*%
M02*
