%TF.GenerationSoftware,KiCad,Pcbnew,10.0.0*%
%TF.CreationDate,2026-06-22T18:20:13+02:00*%
%TF.ProjectId,Multiplexer1-16,4d756c74-6970-46c6-9578-6572312d3136,rev?*%
%TF.SameCoordinates,Original*%
%TF.FileFunction,Soldermask,Top*%
%TF.FilePolarity,Negative*%
%FSLAX46Y46*%
G04 Gerber Fmt 4.6, Leading zero omitted, Abs format (unit mm)*
G04 Created by KiCad (PCBNEW 10.0.0) date 2026-06-22 18:20:13*
%MOMM*%
%LPD*%
G01*
G04 APERTURE LIST*
G04 Aperture macros list*
%AMFreePoly0*
4,1,23,0.500000,-0.750000,0.000000,-0.750000,0.000000,-0.745722,-0.065263,-0.745722,-0.191342,-0.711940,-0.304381,-0.646677,-0.396677,-0.554381,-0.461940,-0.441342,-0.495722,-0.315263,-0.495722,-0.250000,-0.500000,-0.250000,-0.500000,0.250000,-0.495722,0.250000,-0.495722,0.315263,-0.461940,0.441342,-0.396677,0.554381,-0.304381,0.646677,-0.191342,0.711940,-0.065263,0.745722,0.000000,0.745722,
0.000000,0.750000,0.500000,0.750000,0.500000,-0.750000,0.500000,-0.750000,$1*%
%AMFreePoly1*
4,1,23,0.000000,0.745722,0.065263,0.745722,0.191342,0.711940,0.304381,0.646677,0.396677,0.554381,0.461940,0.441342,0.495722,0.315263,0.495722,0.250000,0.500000,0.250000,0.500000,-0.250000,0.495722,-0.250000,0.495722,-0.315263,0.461940,-0.441342,0.396677,-0.554381,0.304381,-0.646677,0.191342,-0.711940,0.065263,-0.745722,0.000000,-0.745722,0.000000,-0.750000,-0.500000,-0.750000,
-0.500000,0.750000,0.000000,0.750000,0.000000,0.745722,0.000000,0.745722,$1*%
G04 Aperture macros list end*
%ADD10R,1.700000X1.700000*%
%ADD11C,1.700000*%
%ADD12FreePoly0,0.000000*%
%ADD13FreePoly1,0.000000*%
G04 APERTURE END LIST*
%TO.C,JP3*%
G36*
X114050000Y-124250000D02*
G01*
X114350000Y-124250000D01*
X114350000Y-125750000D01*
X114050000Y-125750000D01*
X114050000Y-124250000D01*
G37*
%TO.C,JP1*%
G36*
X120350000Y-114250000D02*
G01*
X120650000Y-114250000D01*
X120650000Y-115750000D01*
X120350000Y-115750000D01*
X120350000Y-114250000D01*
G37*
%TO.C,JP2*%
G36*
X126450000Y-114250000D02*
G01*
X126750000Y-114250000D01*
X126750000Y-115750000D01*
X126450000Y-115750000D01*
X126450000Y-114250000D01*
G37*
%TD*%
D10*
%TO.C,J18*%
X144600000Y-122600000D03*
D11*
X147140000Y-122600000D03*
%TD*%
D10*
%TO.C,J15*%
X144600000Y-115000000D03*
D11*
X147140000Y-115000000D03*
%TD*%
D10*
%TO.C,J12*%
X100000000Y-122600000D03*
D11*
X102540000Y-122600000D03*
%TD*%
D10*
%TO.C,J9*%
X100000000Y-115000000D03*
D11*
X102540000Y-115000000D03*
%TD*%
D10*
%TO.C,J3*%
X111500000Y-115600000D03*
D11*
X114040000Y-115600000D03*
%TD*%
D10*
%TO.C,J2*%
X135300000Y-133360000D03*
D11*
X137840000Y-133360000D03*
X135300000Y-130820000D03*
X137840000Y-130820000D03*
X135300000Y-128280000D03*
X137840000Y-128280000D03*
X135300000Y-125740000D03*
X137840000Y-125740000D03*
X135300000Y-123200000D03*
X137840000Y-123200000D03*
X135300000Y-120660000D03*
X137840000Y-120660000D03*
X135300000Y-118120000D03*
X137840000Y-118120000D03*
X135300000Y-115580000D03*
X137840000Y-115580000D03*
%TD*%
D10*
%TO.C,J1*%
X111500000Y-133000000D03*
D11*
X114040000Y-133000000D03*
X116580000Y-133000000D03*
X119120000Y-133000000D03*
%TD*%
D12*
%TO.C,JP3*%
X113550000Y-125000000D03*
D13*
X114850000Y-125000000D03*
%TD*%
D12*
%TO.C,JP1*%
X119850000Y-115000000D03*
D13*
X121150000Y-115000000D03*
%TD*%
D12*
%TO.C,JP2*%
X125950000Y-115000000D03*
D13*
X127250000Y-115000000D03*
%TD*%
M02*
