%TF.GenerationSoftware,KiCad,Pcbnew,10.0.0*%
%TF.CreationDate,2026-06-22T18:20:13+02:00*%
%TF.ProjectId,Multiplexer1-16,4d756c74-6970-46c6-9578-6572312d3136,rev?*%
%TF.SameCoordinates,Original*%
%TF.FileFunction,Copper,L1,Top*%
%TF.FilePolarity,Positive*%
%FSLAX46Y46*%
G04 Gerber Fmt 4.6, Leading zero omitted, Abs format (unit mm)*
G04 Created by KiCad (PCBNEW 10.0.0) date 2026-06-22 18:20:13*
%MOMM*%
%LPD*%
G01*
G04 APERTURE LIST*
G04 Aperture macros list*
%AMFreePoly0*
4,1,23,0.500000,-0.750000,0.000000,-0.750000,0.000000,-0.745722,-0.065263,-0.745722,-0.191342,-0.711940,-0.304381,-0.646677,-0.396677,-0.554381,-0.461940,-0.441342,-0.495722,-0.315263,-0.495722,-0.250000,-0.500000,-0.250000,-0.500000,0.250000,-0.495722,0.250000,-0.495722,0.315263,-0.461940,0.441342,-0.396677,0.554381,-0.304381,0.646677,-0.191342,0.711940,-0.065263,0.745722,0.000000,0.745722,
0.000000,0.750000,0.500000,0.750000,0.500000,-0.750000,0.500000,-0.750000,$1*%
%AMFreePoly1*
4,1,23,0.000000,0.745722,0.065263,0.745722,0.191342,0.711940,0.304381,0.646677,0.396677,0.554381,0.461940,0.441342,0.495722,0.315263,0.495722,0.250000,0.500000,0.250000,0.500000,-0.250000,0.495722,-0.250000,0.495722,-0.315263,0.461940,-0.441342,0.396677,-0.554381,0.304381,-0.646677,0.191342,-0.711940,0.065263,-0.745722,0.000000,-0.745722,0.000000,-0.750000,-0.500000,-0.750000,
-0.500000,0.750000,0.000000,0.750000,0.000000,0.745722,0.000000,0.745722,$1*%
G04 Aperture macros list end*
%TA.AperFunction,ComponentPad*%
%ADD10R,1.700000X1.700000*%
%TD*%
%TA.AperFunction,ComponentPad*%
%ADD11C,1.700000*%
%TD*%
%TA.AperFunction,SMDPad,CuDef*%
%ADD12FreePoly0,0.000000*%
%TD*%
%TA.AperFunction,SMDPad,CuDef*%
%ADD13FreePoly1,0.000000*%
%TD*%
%TA.AperFunction,ViaPad*%
%ADD14C,0.600000*%
%TD*%
%TA.AperFunction,Conductor*%
%ADD15C,0.400000*%
%TD*%
%TA.AperFunction,Conductor*%
%ADD16C,0.800000*%
%TD*%
G04 APERTURE END LIST*
D10*
%TO.P,J18,1,Pin_1_1*%
%TO.N,+12*%
X144600000Y-122600000D03*
D11*
%TO.P,J18,2,Pin_2_2*%
%TO.N,GND*%
X147140000Y-122600000D03*
%TD*%
D10*
%TO.P,J15,1,Pin_1_1*%
%TO.N,+12*%
X144600000Y-115000000D03*
D11*
%TO.P,J15,2,Pin_2_2*%
%TO.N,GND*%
X147140000Y-115000000D03*
%TD*%
D10*
%TO.P,J12,1,Pin_1_1*%
%TO.N,+5*%
X100000000Y-122600000D03*
D11*
%TO.P,J12,2,Pin_2_2*%
%TO.N,-12*%
X102540000Y-122600000D03*
%TD*%
D10*
%TO.P,J9,1,Pin_1_1*%
%TO.N,+5*%
X100000000Y-115000000D03*
D11*
%TO.P,J9,2,Pin_2_2*%
%TO.N,-12*%
X102540000Y-115000000D03*
%TD*%
D10*
%TO.P,J3,1,Pin_1_1*%
%TO.N,Net-(J3-Pin_1)*%
X111500000Y-115600000D03*
D11*
%TO.P,J3,2,Pin_2_2*%
%TO.N,Net-(J3-Pin_2)*%
X114040000Y-115600000D03*
%TD*%
D10*
%TO.P,J2,1,Pin_1_1*%
%TO.N,Net-(J2-Pin_1)*%
X135300000Y-133360000D03*
D11*
%TO.P,J2,2,Pin_2_2*%
%TO.N,Net-(J2-Pin_2)*%
X137840000Y-133360000D03*
%TO.P,J2,3,Pin_3_3*%
%TO.N,Net-(J2-Pin_3)*%
X135300000Y-130820000D03*
%TO.P,J2,4,Pin_4_4*%
%TO.N,Net-(J2-Pin_4)*%
X137840000Y-130820000D03*
%TO.P,J2,5,Pin_5_5*%
%TO.N,Net-(J2-Pin_5)*%
X135300000Y-128280000D03*
%TO.P,J2,6,Pin_6_6*%
%TO.N,Net-(J2-Pin_6)*%
X137840000Y-128280000D03*
%TO.P,J2,7,Pin_7_7*%
%TO.N,Net-(J2-Pin_7)*%
X135300000Y-125740000D03*
%TO.P,J2,8,Pin_8_8*%
%TO.N,Net-(J2-Pin_8)*%
X137840000Y-125740000D03*
%TO.P,J2,9,Pin_9_9*%
%TO.N,Net-(J2-Pin_9)*%
X135300000Y-123200000D03*
%TO.P,J2,10,Pin_10_10*%
%TO.N,Net-(J2-Pin_10)*%
X137840000Y-123200000D03*
%TO.P,J2,11,Pin_11_11*%
%TO.N,Net-(J2-Pin_11)*%
X135300000Y-120660000D03*
%TO.P,J2,12,Pin_12_12*%
%TO.N,Net-(J2-Pin_12)*%
X137840000Y-120660000D03*
%TO.P,J2,13,Pin_13_13*%
%TO.N,Net-(J2-Pin_13)*%
X135300000Y-118120000D03*
%TO.P,J2,14,Pin_14_14*%
%TO.N,Net-(J2-Pin_14)*%
X137840000Y-118120000D03*
%TO.P,J2,15,Pin_15_15*%
%TO.N,Net-(J2-Pin_15)*%
X135300000Y-115580000D03*
%TO.P,J2,16,Pin_16_16*%
%TO.N,Net-(J2-Pin_16)*%
X137840000Y-115580000D03*
%TD*%
D10*
%TO.P,J1,1,Pin_1_1*%
%TO.N,Net-(J1-Pin_1)*%
X111500000Y-133000000D03*
D11*
%TO.P,J1,2,Pin_2_2*%
%TO.N,Net-(J1-Pin_2)*%
X114040000Y-133000000D03*
%TO.P,J1,3,Pin_3_3*%
%TO.N,Net-(J1-Pin_3)*%
X116580000Y-133000000D03*
%TO.P,J1,4,Pin_4_4*%
%TO.N,Net-(J1-Pin_4)*%
X119120000Y-133000000D03*
%TD*%
D12*
%TO.P,JP3,1,A_1*%
%TO.N,GND*%
X113550000Y-125000000D03*
D13*
%TO.P,JP3,2,B_2*%
%TO.N,Net-(J3-Pin_2)*%
X114850000Y-125000000D03*
%TD*%
D12*
%TO.P,JP1,1,A_1*%
%TO.N,+5*%
X119850000Y-115000000D03*
D13*
%TO.P,JP1,2,B_2*%
%TO.N,Net-(JP1-B)*%
X121150000Y-115000000D03*
%TD*%
D12*
%TO.P,JP2,1,A_1*%
%TO.N,Net-(JP1-B)*%
X125950000Y-115000000D03*
D13*
%TO.P,JP2,2,B_2*%
%TO.N,+12*%
X127250000Y-115000000D03*
%TD*%
D14*
%TO.N,Net-(J3-Pin_2)*%
X118000000Y-118500000D03*
%TO.N,GND*%
X113700000Y-119700000D03*
%TO.N,Net-(J2-Pin_16)*%
X119325000Y-119950000D03*
%TO.N,GND*%
X133300000Y-115000000D03*
%TO.N,Net-(J3-Pin_2)*%
X115400000Y-122600000D03*
%TO.N,Net-(J1-Pin_2)*%
X116785000Y-129250000D03*
%TO.N,Net-(J1-Pin_3)*%
X116785000Y-119950000D03*
%TO.N,Net-(J1-Pin_4)*%
X115515000Y-119950000D03*
%TO.N,Net-(J2-Pin_1)*%
X119325000Y-129250000D03*
%TO.N,Net-(J2-Pin_4)*%
X123100000Y-130400000D03*
%TO.N,Net-(J2-Pin_3)*%
X121865000Y-129250000D03*
%TO.N,Net-(J2-Pin_6)*%
X125700000Y-130700000D03*
%TO.N,Net-(J2-Pin_5)*%
X124405000Y-129250000D03*
%TO.N,Net-(J2-Pin_8)*%
X128215000Y-129250000D03*
%TO.N,Net-(J2-Pin_7)*%
X126945000Y-129250000D03*
%TO.N,Net-(J2-Pin_9)*%
X128400000Y-121300000D03*
%TO.N,Net-(J2-Pin_10)*%
X127000000Y-121300000D03*
%TO.N,Net-(J2-Pin_11)*%
X125675000Y-120565000D03*
%TO.N,Net-(J2-Pin_12)*%
X124405000Y-119965000D03*
%TO.N,Net-(J2-Pin_13)*%
X123135000Y-119950000D03*
%TO.N,Net-(J2-Pin_14)*%
X121865000Y-119950000D03*
%TO.N,Net-(J2-Pin_16)*%
X130900000Y-116950000D03*
%TO.N,Net-(JP1-B)*%
X129485000Y-117265000D03*
%TO.N,+12*%
X127250000Y-115000000D03*
%TO.N,GND*%
X113550000Y-125000000D03*
%TO.N,Net-(JP1-B)*%
X121150000Y-115000000D03*
X125950000Y-115000000D03*
%TD*%
%TO.N,Net-(J3-Pin_2)*%
D15*
X115100000Y-115600000D02*
X118000000Y-118500000D01*
X114040000Y-115600000D02*
X115100000Y-115600000D01*
%TO.N,GND*%
D16*
X112400000Y-125000000D02*
X113550000Y-125000000D01*
X111600000Y-124200000D02*
X112400000Y-125000000D01*
X113700000Y-119700000D02*
X111600000Y-121800000D01*
X111600000Y-121800000D02*
X111600000Y-124200000D01*
%TO.N,Net-(J2-Pin_16)*%
D15*
X129816371Y-118065000D02*
X121210000Y-118065000D01*
X121210000Y-118065000D02*
X119325000Y-119950000D01*
X130900000Y-116981371D02*
X129816371Y-118065000D01*
X130900000Y-116950000D02*
X130900000Y-116981371D01*
%TO.N,GND*%
D16*
X147140000Y-116202081D02*
X147140000Y-115000000D01*
X143150000Y-116450000D02*
X146892081Y-116450000D01*
X140700000Y-114000000D02*
X143150000Y-116450000D01*
X146892081Y-116450000D02*
X147140000Y-116202081D01*
X134300000Y-114000000D02*
X140700000Y-114000000D01*
X133300000Y-115000000D02*
X134300000Y-114000000D01*
%TO.N,Net-(J3-Pin_2)*%
D15*
X115400000Y-122600000D02*
X115400000Y-124450000D01*
X115400000Y-124450000D02*
X114850000Y-125000000D01*
%TO.N,Net-(J1-Pin_2)*%
X116785000Y-130255000D02*
X116785000Y-129250000D01*
X114040000Y-133000000D02*
X116785000Y-130255000D01*
%TO.N,Net-(J1-Pin_4)*%
X117074950Y-119250000D02*
X118100000Y-120275050D01*
X118100000Y-120275050D02*
X118100000Y-131980000D01*
X116215000Y-119250000D02*
X117074950Y-119250000D01*
X115515000Y-119950000D02*
X116215000Y-119250000D01*
%TO.N,Net-(J1-Pin_3)*%
X117500000Y-132080000D02*
X117500000Y-120665000D01*
X117500000Y-120665000D02*
X116785000Y-119950000D01*
X116580000Y-133000000D02*
X117500000Y-132080000D01*
%TO.N,Net-(J1-Pin_4)*%
X119120000Y-133000000D02*
X118100000Y-131980000D01*
%TO.N,Net-(J2-Pin_1)*%
X121399264Y-131324264D02*
X119325000Y-129250000D01*
X123175736Y-131324264D02*
X121399264Y-131324264D01*
X125211472Y-133360000D02*
X123175736Y-131324264D01*
X135300000Y-133360000D02*
X125211472Y-133360000D01*
%TO.N,Net-(J2-Pin_4)*%
X124700000Y-132000000D02*
X123100000Y-130400000D01*
X128900000Y-132000000D02*
X124700000Y-132000000D01*
X128970000Y-132070000D02*
X128900000Y-132000000D01*
X136590000Y-132070000D02*
X128970000Y-132070000D01*
X137840000Y-130820000D02*
X136590000Y-132070000D01*
%TO.N,Net-(J2-Pin_3)*%
X125400000Y-131400000D02*
X123250000Y-129250000D01*
X128897056Y-131400000D02*
X125400000Y-131400000D01*
X129477056Y-130820000D02*
X128897056Y-131400000D01*
X123250000Y-129250000D02*
X121865000Y-129250000D01*
X135300000Y-130820000D02*
X129477056Y-130820000D01*
%TO.N,Net-(J2-Pin_6)*%
X125800000Y-130600000D02*
X125700000Y-130700000D01*
X128848528Y-130600000D02*
X125800000Y-130600000D01*
X136590000Y-129530000D02*
X129918528Y-129530000D01*
X129918528Y-129530000D02*
X128848528Y-130600000D01*
X137840000Y-128280000D02*
X136590000Y-129530000D01*
%TO.N,Net-(J2-Pin_5)*%
X128600000Y-130000000D02*
X125155000Y-130000000D01*
X130320000Y-128280000D02*
X128600000Y-130000000D01*
X125155000Y-130000000D02*
X124405000Y-129250000D01*
X135300000Y-128280000D02*
X130320000Y-128280000D01*
%TO.N,Net-(J2-Pin_8)*%
X130475000Y-126990000D02*
X128215000Y-129250000D01*
X136590000Y-126990000D02*
X130475000Y-126990000D01*
X137840000Y-125740000D02*
X136590000Y-126990000D01*
%TO.N,Net-(J2-Pin_7)*%
X126945000Y-126855000D02*
X126945000Y-129250000D01*
X128060000Y-125740000D02*
X126945000Y-126855000D01*
X135300000Y-125740000D02*
X128060000Y-125740000D01*
%TO.N,Net-(J2-Pin_9)*%
X135300000Y-123200000D02*
X130300000Y-123200000D01*
X130300000Y-123200000D02*
X128400000Y-121300000D01*
%TO.N,Net-(J2-Pin_10)*%
X136590000Y-124450000D02*
X130150000Y-124450000D01*
X130150000Y-124450000D02*
X127000000Y-121300000D01*
X137840000Y-123200000D02*
X136590000Y-124450000D01*
%TO.N,Net-(J2-Pin_11)*%
X125775000Y-120465000D02*
X125675000Y-120565000D01*
X130995000Y-120660000D02*
X130800000Y-120465000D01*
X130800000Y-120465000D02*
X125775000Y-120465000D01*
X135300000Y-120660000D02*
X130995000Y-120660000D01*
%TO.N,Net-(J2-Pin_12)*%
X131187056Y-119410000D02*
X130732056Y-119865000D01*
X130732056Y-119865000D02*
X124505000Y-119865000D01*
X137840000Y-120660000D02*
X136590000Y-119410000D01*
X136590000Y-119410000D02*
X131187056Y-119410000D01*
X124505000Y-119865000D02*
X124405000Y-119965000D01*
%TO.N,Net-(J2-Pin_13)*%
X130483528Y-119265000D02*
X123820000Y-119265000D01*
X123820000Y-119265000D02*
X123135000Y-119950000D01*
X135300000Y-118120000D02*
X131628528Y-118120000D01*
X131628528Y-118120000D02*
X130483528Y-119265000D01*
%TO.N,Net-(J2-Pin_14)*%
X121865000Y-119635000D02*
X121865000Y-119950000D01*
X122835000Y-118665000D02*
X121865000Y-119635000D01*
X130235000Y-118665000D02*
X122835000Y-118665000D01*
X132030000Y-116870000D02*
X130235000Y-118665000D01*
X136590000Y-116870000D02*
X132030000Y-116870000D01*
X137840000Y-118120000D02*
X136590000Y-116870000D01*
%TO.N,Net-(JP1-B)*%
D16*
X127409400Y-117265000D02*
X129485000Y-117265000D01*
X125950000Y-115805600D02*
X127409400Y-117265000D01*
X125950000Y-115000000D02*
X125950000Y-115805600D01*
%TO.N,+5*%
X103140610Y-116450000D02*
X101450000Y-116450000D01*
X105440610Y-114150000D02*
X103140610Y-116450000D01*
X101450000Y-116450000D02*
X100000000Y-115000000D01*
X119000000Y-114150000D02*
X105440610Y-114150000D01*
X119850000Y-115000000D02*
X119000000Y-114150000D01*
%TD*%
M02*
