M48
; DRILL file {KiCad 9.0.0} date 2025-07-31T16:49:17+0200
; FORMAT={-:-/ absolute / inch / decimal}
; #@! TF.CreationDate,2025-07-31T16:49:17+02:00
; #@! TF.GenerationSoftware,Kicad,Pcbnew,9.0.0
; #@! TF.FileFunction,Plated,1,2,PTH
FMAT,2
INCH
; #@! TA.AperFunction,Plated,PTH,ComponentDrill
T1C0.0394
%
G90
G05
T1
X2.3661Y-2.437
X2.3661Y-2.7362
X2.3661Y-2.9803
X2.3661Y-3.2795
X2.3661Y-3.5236
X2.3661Y-3.8228
X2.3661Y-4.0669
X2.3661Y-4.3661
X2.3661Y-4.6102
X2.3661Y-4.9094
X2.3661Y-5.1535
X2.3661Y-5.4528
X2.3661Y-5.6969
X2.3661Y-5.9961
X2.3661Y-6.2402
X2.3661Y-6.5394
X2.3661Y-6.7835
X2.3661Y-7.0827
X2.3661Y-7.3268
X2.3661Y-7.626
X2.4661Y-2.437
X2.4661Y-2.7362
X2.4661Y-2.9803
X2.4661Y-3.2795
X2.4661Y-3.5236
X2.4661Y-3.8228
X2.4661Y-4.0669
X2.4661Y-4.3661
X2.4661Y-4.6102
X2.4661Y-4.9094
X2.4661Y-5.1535
X2.4661Y-5.4528
X2.4661Y-5.6969
X2.4661Y-5.9961
X2.4661Y-6.2402
X2.4661Y-6.5394
X2.4661Y-6.7835
X2.4661Y-7.0827
X2.4661Y-7.3268
X2.4661Y-7.626
X4.122Y-2.437
X4.122Y-2.7362
X4.122Y-2.9803
X4.122Y-3.2795
X4.122Y-3.5236
X4.122Y-3.8228
X4.122Y-4.0669
X4.122Y-4.3661
X4.122Y-4.6102
X4.122Y-4.9094
X4.122Y-5.1535
X4.122Y-5.4528
X4.122Y-5.6969
X4.122Y-5.9961
X4.122Y-6.2402
X4.122Y-6.5394
X4.122Y-6.7835
X4.122Y-7.0827
X4.122Y-7.3268
X4.122Y-7.626
X4.222Y-2.437
X4.222Y-2.7362
X4.222Y-2.9803
X4.222Y-3.2795
X4.222Y-3.5236
X4.222Y-3.8228
X4.222Y-4.0669
X4.222Y-4.3661
X4.222Y-4.6102
X4.222Y-4.9094
X4.222Y-5.1535
X4.222Y-5.4528
X4.222Y-5.6969
X4.222Y-5.9961
X4.222Y-6.2402
X4.222Y-6.5394
X4.222Y-6.7835
X4.222Y-7.0827
X4.222Y-7.3268
X4.222Y-7.626
X4.4843Y-2.437
X4.4843Y-2.7362
X4.4843Y-2.9803
X4.4843Y-3.2795
X4.4843Y-3.5236
X4.4843Y-3.8228
X4.4843Y-4.0669
X4.4843Y-4.3661
X4.4843Y-4.6102
X4.4843Y-4.9094
X4.4843Y-5.1535
X4.4843Y-5.4528
X4.4843Y-5.6969
X4.4843Y-5.9961
X4.4843Y-6.2402
X4.4843Y-6.5394
X4.4843Y-6.7835
X4.4843Y-7.0827
X4.4843Y-7.3268
X4.4843Y-7.626
X4.5843Y-2.437
X4.5843Y-2.7362
X4.5843Y-2.9803
X4.5843Y-3.2795
X4.5843Y-3.5236
X4.5843Y-3.8228
X4.5843Y-4.0669
X4.5843Y-4.3661
X4.5843Y-4.6102
X4.5843Y-4.9094
X4.5843Y-5.1535
X4.5843Y-5.4528
X4.5843Y-5.6969
X4.5843Y-5.9961
X4.5843Y-6.2402
X4.5843Y-6.5394
X4.5843Y-6.7835
X4.5843Y-7.0827
X4.5843Y-7.3268
X4.5843Y-7.626
X6.2398Y-2.7362
X6.2398Y-3.2795
X6.2398Y-3.8228
X6.2398Y-4.3661
X6.2398Y-4.9094
X6.2398Y-5.4528
X6.2398Y-5.9961
X6.2398Y-6.5394
X6.2398Y-7.0827
X6.2398Y-7.626
X6.2402Y-2.437
X6.2402Y-2.9803
X6.2402Y-3.5236
X6.2402Y-4.0669
X6.2402Y-4.6102
X6.2402Y-5.1535
X6.2402Y-5.6969
X6.2402Y-6.2402
X6.2402Y-6.7835
X6.2402Y-7.3268
X6.3398Y-2.7362
X6.3398Y-3.2795
X6.3398Y-3.8228
X6.3398Y-4.3661
X6.3398Y-4.9094
X6.3398Y-5.4528
X6.3398Y-5.9961
X6.3398Y-6.5394
X6.3398Y-7.0827
X6.3398Y-7.626
X6.3402Y-2.437
X6.3402Y-2.9803
X6.3402Y-3.5236
X6.3402Y-4.0669
X6.3402Y-4.6102
X6.3402Y-5.1535
X6.3402Y-5.6969
X6.3402Y-6.2402
X6.3402Y-6.7835
X6.3402Y-7.3268
M30
