%TF.GenerationSoftware,KiCad,Pcbnew,9.0.0*%
%TF.CreationDate,2025-07-31T16:49:18+02:00*%
%TF.ProjectId,Label_LG,4c616265-6c5f-44c4-972e-6b696361645f,rev?*%
%TF.SameCoordinates,Original*%
%TF.FileFunction,Legend,Top*%
%TF.FilePolarity,Positive*%
%FSLAX46Y46*%
G04 Gerber Fmt 4.6, Leading zero omitted, Abs format (unit mm)*
G04 Created by KiCad (PCBNEW 9.0.0) date 2025-07-31 16:49:18*
%MOMM*%
%LPD*%
G01*
G04 APERTURE LIST*
%ADD10C,0.120000*%
%ADD11C,0.300000*%
%ADD12C,0.150000*%
%ADD13C,0.100000*%
G04 APERTURE END LIST*
D10*
X159770000Y-180555000D02*
X159135000Y-181190000D01*
X105970000Y-180555000D02*
X105335000Y-181190000D01*
X108510000Y-180555000D02*
X107875000Y-181190000D01*
X157230000Y-171665000D02*
X157865000Y-171030000D01*
X61370000Y-171665000D02*
X61370000Y-180555000D01*
X63910000Y-171665000D02*
X63910000Y-180555000D01*
X63275000Y-171030000D02*
X63910000Y-171665000D01*
X112630000Y-171665000D02*
X113265000Y-171030000D01*
X63910000Y-180555000D02*
X63275000Y-181190000D01*
X115170000Y-171665000D02*
X115170000Y-180555000D01*
X62005000Y-171030000D02*
X63275000Y-171030000D01*
X61370000Y-171665000D02*
X62005000Y-171030000D01*
X63275000Y-181190000D02*
X62005000Y-181190000D01*
X105335000Y-171030000D02*
X105970000Y-171665000D01*
X107875000Y-181190000D02*
X106605000Y-181190000D01*
X103430000Y-180555000D02*
X103430000Y-171665000D01*
X106605000Y-171030000D02*
X107875000Y-171030000D01*
X113265000Y-181190000D02*
X112630000Y-180555000D01*
X60735000Y-181190000D02*
X59465000Y-181190000D01*
X104065000Y-171030000D02*
X105335000Y-171030000D01*
X106605000Y-181190000D02*
X105970000Y-180555000D01*
X115805000Y-171030000D02*
X117075000Y-171030000D01*
X161675000Y-181190000D02*
X160405000Y-181190000D01*
X117075000Y-171030000D02*
X117710000Y-171665000D01*
X114535000Y-171030000D02*
X115170000Y-171665000D01*
X104065000Y-181190000D02*
X103430000Y-180555000D01*
X59465000Y-181190000D02*
X58830000Y-180555000D01*
X113265000Y-171030000D02*
X114535000Y-171030000D01*
X115170000Y-180555000D02*
X114535000Y-181190000D01*
X112630000Y-180555000D02*
X112630000Y-171665000D01*
X159770000Y-171665000D02*
X160405000Y-171030000D01*
D11*
X106612197Y-177062381D02*
X106552673Y-177181428D01*
X106552673Y-177181428D02*
X106552673Y-177360000D01*
X106552673Y-177360000D02*
X106612197Y-177538571D01*
X106612197Y-177538571D02*
X106731245Y-177657619D01*
X106731245Y-177657619D02*
X106850292Y-177717142D01*
X106850292Y-177717142D02*
X107088388Y-177776666D01*
X107088388Y-177776666D02*
X107266959Y-177776666D01*
X107266959Y-177776666D02*
X107505054Y-177717142D01*
X107505054Y-177717142D02*
X107624102Y-177657619D01*
X107624102Y-177657619D02*
X107743150Y-177538571D01*
X107743150Y-177538571D02*
X107802673Y-177360000D01*
X107802673Y-177360000D02*
X107802673Y-177240952D01*
X107802673Y-177240952D02*
X107743150Y-177062381D01*
X107743150Y-177062381D02*
X107683626Y-177002857D01*
X107683626Y-177002857D02*
X107266959Y-177002857D01*
X107266959Y-177002857D02*
X107266959Y-177240952D01*
X107802673Y-176467142D02*
X106552673Y-176467142D01*
X106552673Y-176467142D02*
X107802673Y-175752857D01*
X107802673Y-175752857D02*
X106552673Y-175752857D01*
X107802673Y-175157618D02*
X106552673Y-175157618D01*
X106552673Y-175157618D02*
X106552673Y-174859999D01*
X106552673Y-174859999D02*
X106612197Y-174681428D01*
X106612197Y-174681428D02*
X106731245Y-174562380D01*
X106731245Y-174562380D02*
X106850292Y-174502857D01*
X106850292Y-174502857D02*
X107088388Y-174443333D01*
X107088388Y-174443333D02*
X107266959Y-174443333D01*
X107266959Y-174443333D02*
X107505054Y-174502857D01*
X107505054Y-174502857D02*
X107624102Y-174562380D01*
X107624102Y-174562380D02*
X107743150Y-174681428D01*
X107743150Y-174681428D02*
X107802673Y-174859999D01*
X107802673Y-174859999D02*
X107802673Y-175157618D01*
X104786483Y-178947380D02*
X104786483Y-177995000D01*
X105262673Y-178471190D02*
X104310292Y-178471190D01*
X105262673Y-176745000D02*
X105262673Y-177459285D01*
X105262673Y-177102142D02*
X104012673Y-177102142D01*
X104012673Y-177102142D02*
X104191245Y-177221190D01*
X104191245Y-177221190D02*
X104310292Y-177340238D01*
X104310292Y-177340238D02*
X104369816Y-177459285D01*
X104131721Y-176268809D02*
X104072197Y-176209285D01*
X104072197Y-176209285D02*
X104012673Y-176090238D01*
X104012673Y-176090238D02*
X104012673Y-175792619D01*
X104012673Y-175792619D02*
X104072197Y-175673571D01*
X104072197Y-175673571D02*
X104131721Y-175614047D01*
X104131721Y-175614047D02*
X104250769Y-175554524D01*
X104250769Y-175554524D02*
X104369816Y-175554524D01*
X104369816Y-175554524D02*
X104548388Y-175614047D01*
X104548388Y-175614047D02*
X105262673Y-176328333D01*
X105262673Y-176328333D02*
X105262673Y-175554524D01*
X104012673Y-175197381D02*
X105262673Y-174780714D01*
X105262673Y-174780714D02*
X104012673Y-174364048D01*
X60186483Y-178352142D02*
X60186483Y-177399762D01*
X60662673Y-177875952D02*
X59710292Y-177875952D01*
X59412673Y-176209285D02*
X59412673Y-176804523D01*
X59412673Y-176804523D02*
X60007911Y-176864047D01*
X60007911Y-176864047D02*
X59948388Y-176804523D01*
X59948388Y-176804523D02*
X59888864Y-176685476D01*
X59888864Y-176685476D02*
X59888864Y-176387857D01*
X59888864Y-176387857D02*
X59948388Y-176268809D01*
X59948388Y-176268809D02*
X60007911Y-176209285D01*
X60007911Y-176209285D02*
X60126959Y-176149762D01*
X60126959Y-176149762D02*
X60424578Y-176149762D01*
X60424578Y-176149762D02*
X60543626Y-176209285D01*
X60543626Y-176209285D02*
X60603150Y-176268809D01*
X60603150Y-176268809D02*
X60662673Y-176387857D01*
X60662673Y-176387857D02*
X60662673Y-176685476D01*
X60662673Y-176685476D02*
X60603150Y-176804523D01*
X60603150Y-176804523D02*
X60543626Y-176864047D01*
X59412673Y-175792619D02*
X60662673Y-175375952D01*
X60662673Y-175375952D02*
X59412673Y-174959286D01*
X116526483Y-178392380D02*
X116526483Y-177440000D01*
X117002673Y-176190000D02*
X117002673Y-176904285D01*
X117002673Y-176547142D02*
X115752673Y-176547142D01*
X115752673Y-176547142D02*
X115931245Y-176666190D01*
X115931245Y-176666190D02*
X116050292Y-176785238D01*
X116050292Y-176785238D02*
X116109816Y-176904285D01*
X115871721Y-175713809D02*
X115812197Y-175654285D01*
X115812197Y-175654285D02*
X115752673Y-175535238D01*
X115752673Y-175535238D02*
X115752673Y-175237619D01*
X115752673Y-175237619D02*
X115812197Y-175118571D01*
X115812197Y-175118571D02*
X115871721Y-175059047D01*
X115871721Y-175059047D02*
X115990769Y-174999524D01*
X115990769Y-174999524D02*
X116109816Y-174999524D01*
X116109816Y-174999524D02*
X116288388Y-175059047D01*
X116288388Y-175059047D02*
X117002673Y-175773333D01*
X117002673Y-175773333D02*
X117002673Y-174999524D01*
X115752673Y-174642381D02*
X117002673Y-174225714D01*
X117002673Y-174225714D02*
X115752673Y-173809048D01*
X158586483Y-178947380D02*
X158586483Y-177995000D01*
X159062673Y-178471190D02*
X158110292Y-178471190D01*
X159062673Y-176745000D02*
X159062673Y-177459285D01*
X159062673Y-177102142D02*
X157812673Y-177102142D01*
X157812673Y-177102142D02*
X157991245Y-177221190D01*
X157991245Y-177221190D02*
X158110292Y-177340238D01*
X158110292Y-177340238D02*
X158169816Y-177459285D01*
X157931721Y-176268809D02*
X157872197Y-176209285D01*
X157872197Y-176209285D02*
X157812673Y-176090238D01*
X157812673Y-176090238D02*
X157812673Y-175792619D01*
X157812673Y-175792619D02*
X157872197Y-175673571D01*
X157872197Y-175673571D02*
X157931721Y-175614047D01*
X157931721Y-175614047D02*
X158050769Y-175554524D01*
X158050769Y-175554524D02*
X158169816Y-175554524D01*
X158169816Y-175554524D02*
X158348388Y-175614047D01*
X158348388Y-175614047D02*
X159062673Y-176328333D01*
X159062673Y-176328333D02*
X159062673Y-175554524D01*
X157812673Y-175197381D02*
X159062673Y-174780714D01*
X159062673Y-174780714D02*
X157812673Y-174364048D01*
X113986483Y-178352142D02*
X113986483Y-177399762D01*
X114462673Y-177875952D02*
X113510292Y-177875952D01*
X113212673Y-176209285D02*
X113212673Y-176804523D01*
X113212673Y-176804523D02*
X113807911Y-176864047D01*
X113807911Y-176864047D02*
X113748388Y-176804523D01*
X113748388Y-176804523D02*
X113688864Y-176685476D01*
X113688864Y-176685476D02*
X113688864Y-176387857D01*
X113688864Y-176387857D02*
X113748388Y-176268809D01*
X113748388Y-176268809D02*
X113807911Y-176209285D01*
X113807911Y-176209285D02*
X113926959Y-176149762D01*
X113926959Y-176149762D02*
X114224578Y-176149762D01*
X114224578Y-176149762D02*
X114343626Y-176209285D01*
X114343626Y-176209285D02*
X114403150Y-176268809D01*
X114403150Y-176268809D02*
X114462673Y-176387857D01*
X114462673Y-176387857D02*
X114462673Y-176685476D01*
X114462673Y-176685476D02*
X114403150Y-176804523D01*
X114403150Y-176804523D02*
X114343626Y-176864047D01*
X113212673Y-175792619D02*
X114462673Y-175375952D01*
X114462673Y-175375952D02*
X113212673Y-174959286D01*
X62726483Y-178392380D02*
X62726483Y-177440000D01*
X63202673Y-176190000D02*
X63202673Y-176904285D01*
X63202673Y-176547142D02*
X61952673Y-176547142D01*
X61952673Y-176547142D02*
X62131245Y-176666190D01*
X62131245Y-176666190D02*
X62250292Y-176785238D01*
X62250292Y-176785238D02*
X62309816Y-176904285D01*
X62071721Y-175713809D02*
X62012197Y-175654285D01*
X62012197Y-175654285D02*
X61952673Y-175535238D01*
X61952673Y-175535238D02*
X61952673Y-175237619D01*
X61952673Y-175237619D02*
X62012197Y-175118571D01*
X62012197Y-175118571D02*
X62071721Y-175059047D01*
X62071721Y-175059047D02*
X62190769Y-174999524D01*
X62190769Y-174999524D02*
X62309816Y-174999524D01*
X62309816Y-174999524D02*
X62488388Y-175059047D01*
X62488388Y-175059047D02*
X63202673Y-175773333D01*
X63202673Y-175773333D02*
X63202673Y-174999524D01*
X61952673Y-174642381D02*
X63202673Y-174225714D01*
X63202673Y-174225714D02*
X61952673Y-173809048D01*
X160412197Y-177062381D02*
X160352673Y-177181428D01*
X160352673Y-177181428D02*
X160352673Y-177360000D01*
X160352673Y-177360000D02*
X160412197Y-177538571D01*
X160412197Y-177538571D02*
X160531245Y-177657619D01*
X160531245Y-177657619D02*
X160650292Y-177717142D01*
X160650292Y-177717142D02*
X160888388Y-177776666D01*
X160888388Y-177776666D02*
X161066959Y-177776666D01*
X161066959Y-177776666D02*
X161305054Y-177717142D01*
X161305054Y-177717142D02*
X161424102Y-177657619D01*
X161424102Y-177657619D02*
X161543150Y-177538571D01*
X161543150Y-177538571D02*
X161602673Y-177360000D01*
X161602673Y-177360000D02*
X161602673Y-177240952D01*
X161602673Y-177240952D02*
X161543150Y-177062381D01*
X161543150Y-177062381D02*
X161483626Y-177002857D01*
X161483626Y-177002857D02*
X161066959Y-177002857D01*
X161066959Y-177002857D02*
X161066959Y-177240952D01*
X161602673Y-176467142D02*
X160352673Y-176467142D01*
X160352673Y-176467142D02*
X161602673Y-175752857D01*
X161602673Y-175752857D02*
X160352673Y-175752857D01*
X161602673Y-175157618D02*
X160352673Y-175157618D01*
X160352673Y-175157618D02*
X160352673Y-174859999D01*
X160352673Y-174859999D02*
X160412197Y-174681428D01*
X160412197Y-174681428D02*
X160531245Y-174562380D01*
X160531245Y-174562380D02*
X160650292Y-174502857D01*
X160650292Y-174502857D02*
X160888388Y-174443333D01*
X160888388Y-174443333D02*
X161066959Y-174443333D01*
X161066959Y-174443333D02*
X161305054Y-174502857D01*
X161305054Y-174502857D02*
X161424102Y-174562380D01*
X161424102Y-174562380D02*
X161543150Y-174681428D01*
X161543150Y-174681428D02*
X161602673Y-174859999D01*
X161602673Y-174859999D02*
X161602673Y-175157618D01*
D10*
X162310000Y-171665000D02*
X162310000Y-180555000D01*
X159135000Y-171030000D02*
X159770000Y-171665000D01*
X61370000Y-180555000D02*
X60735000Y-181190000D01*
X115170000Y-171665000D02*
X115805000Y-171030000D01*
X62005000Y-181190000D02*
X61370000Y-180555000D01*
X115805000Y-181190000D02*
X115170000Y-180555000D01*
X159135000Y-181190000D02*
X157865000Y-181190000D01*
D12*
X156475000Y-171690000D02*
X156475000Y-180490000D01*
X155775000Y-181190000D01*
X119075000Y-181190000D01*
X118375000Y-180490000D01*
X118375000Y-171690000D01*
X119075000Y-170990000D01*
X155775000Y-170990000D01*
X156475000Y-171690000D01*
G36*
X156475000Y-171690000D02*
G01*
X156475000Y-180490000D01*
X155775000Y-181190000D01*
X119075000Y-181190000D01*
X118375000Y-180490000D01*
X118375000Y-171690000D01*
X119075000Y-170990000D01*
X155775000Y-170990000D01*
X156475000Y-171690000D01*
G37*
D10*
X105970000Y-171665000D02*
X105970000Y-180555000D01*
X157865000Y-181190000D02*
X157230000Y-180555000D01*
X59465000Y-171030000D02*
X60735000Y-171030000D01*
X105335000Y-181190000D02*
X104065000Y-181190000D01*
X105970000Y-171665000D02*
X106605000Y-171030000D01*
X117710000Y-180555000D02*
X117075000Y-181190000D01*
X103430000Y-171665000D02*
X104065000Y-171030000D01*
X58830000Y-180555000D02*
X58830000Y-171665000D01*
D12*
X102675000Y-171690000D02*
X102675000Y-180490000D01*
X101975000Y-181190000D01*
X65275000Y-181190000D01*
X64575000Y-180490000D01*
X64575000Y-171690000D01*
X65275000Y-170990000D01*
X101975000Y-170990000D01*
X102675000Y-171690000D01*
G36*
X102675000Y-171690000D02*
G01*
X102675000Y-180490000D01*
X101975000Y-181190000D01*
X65275000Y-181190000D01*
X64575000Y-180490000D01*
X64575000Y-171690000D01*
X65275000Y-170990000D01*
X101975000Y-170990000D01*
X102675000Y-171690000D01*
G37*
D10*
X157230000Y-180555000D02*
X157230000Y-171665000D01*
X108510000Y-171665000D02*
X108510000Y-180555000D01*
X160405000Y-171030000D02*
X161675000Y-171030000D01*
X162310000Y-180555000D02*
X161675000Y-181190000D01*
X161675000Y-171030000D02*
X162310000Y-171665000D01*
X160405000Y-181190000D02*
X159770000Y-180555000D01*
X157865000Y-171030000D02*
X159135000Y-171030000D01*
X58830000Y-171665000D02*
X59465000Y-171030000D01*
X159770000Y-171665000D02*
X159770000Y-180555000D01*
X60735000Y-171030000D02*
X61370000Y-171665000D01*
X117075000Y-181190000D02*
X115805000Y-181190000D01*
X114535000Y-181190000D02*
X113265000Y-181190000D01*
X117710000Y-171665000D02*
X117710000Y-180555000D01*
X107875000Y-171030000D02*
X108510000Y-171665000D01*
X159770000Y-166755000D02*
X159135000Y-167390000D01*
X105970000Y-166755000D02*
X105335000Y-167390000D01*
X108510000Y-166755000D02*
X107875000Y-167390000D01*
X157230000Y-157865000D02*
X157865000Y-157230000D01*
X61370000Y-157865000D02*
X61370000Y-166755000D01*
X63910000Y-157865000D02*
X63910000Y-166755000D01*
X63275000Y-157230000D02*
X63910000Y-157865000D01*
X112630000Y-157865000D02*
X113265000Y-157230000D01*
X63910000Y-166755000D02*
X63275000Y-167390000D01*
X115170000Y-157865000D02*
X115170000Y-166755000D01*
X62005000Y-157230000D02*
X63275000Y-157230000D01*
X61370000Y-157865000D02*
X62005000Y-157230000D01*
X63275000Y-167390000D02*
X62005000Y-167390000D01*
X105335000Y-157230000D02*
X105970000Y-157865000D01*
X107875000Y-167390000D02*
X106605000Y-167390000D01*
X103430000Y-166755000D02*
X103430000Y-157865000D01*
X106605000Y-157230000D02*
X107875000Y-157230000D01*
X113265000Y-167390000D02*
X112630000Y-166755000D01*
X60735000Y-167390000D02*
X59465000Y-167390000D01*
X104065000Y-157230000D02*
X105335000Y-157230000D01*
X106605000Y-167390000D02*
X105970000Y-166755000D01*
X115805000Y-157230000D02*
X117075000Y-157230000D01*
X161675000Y-167390000D02*
X160405000Y-167390000D01*
X117075000Y-157230000D02*
X117710000Y-157865000D01*
X114535000Y-157230000D02*
X115170000Y-157865000D01*
X104065000Y-167390000D02*
X103430000Y-166755000D01*
X59465000Y-167390000D02*
X58830000Y-166755000D01*
X113265000Y-157230000D02*
X114535000Y-157230000D01*
X115170000Y-166755000D02*
X114535000Y-167390000D01*
X112630000Y-166755000D02*
X112630000Y-157865000D01*
X159770000Y-157865000D02*
X160405000Y-157230000D01*
D11*
X106612197Y-163262381D02*
X106552673Y-163381428D01*
X106552673Y-163381428D02*
X106552673Y-163560000D01*
X106552673Y-163560000D02*
X106612197Y-163738571D01*
X106612197Y-163738571D02*
X106731245Y-163857619D01*
X106731245Y-163857619D02*
X106850292Y-163917142D01*
X106850292Y-163917142D02*
X107088388Y-163976666D01*
X107088388Y-163976666D02*
X107266959Y-163976666D01*
X107266959Y-163976666D02*
X107505054Y-163917142D01*
X107505054Y-163917142D02*
X107624102Y-163857619D01*
X107624102Y-163857619D02*
X107743150Y-163738571D01*
X107743150Y-163738571D02*
X107802673Y-163560000D01*
X107802673Y-163560000D02*
X107802673Y-163440952D01*
X107802673Y-163440952D02*
X107743150Y-163262381D01*
X107743150Y-163262381D02*
X107683626Y-163202857D01*
X107683626Y-163202857D02*
X107266959Y-163202857D01*
X107266959Y-163202857D02*
X107266959Y-163440952D01*
X107802673Y-162667142D02*
X106552673Y-162667142D01*
X106552673Y-162667142D02*
X107802673Y-161952857D01*
X107802673Y-161952857D02*
X106552673Y-161952857D01*
X107802673Y-161357618D02*
X106552673Y-161357618D01*
X106552673Y-161357618D02*
X106552673Y-161059999D01*
X106552673Y-161059999D02*
X106612197Y-160881428D01*
X106612197Y-160881428D02*
X106731245Y-160762380D01*
X106731245Y-160762380D02*
X106850292Y-160702857D01*
X106850292Y-160702857D02*
X107088388Y-160643333D01*
X107088388Y-160643333D02*
X107266959Y-160643333D01*
X107266959Y-160643333D02*
X107505054Y-160702857D01*
X107505054Y-160702857D02*
X107624102Y-160762380D01*
X107624102Y-160762380D02*
X107743150Y-160881428D01*
X107743150Y-160881428D02*
X107802673Y-161059999D01*
X107802673Y-161059999D02*
X107802673Y-161357618D01*
X104786483Y-165147380D02*
X104786483Y-164195000D01*
X105262673Y-164671190D02*
X104310292Y-164671190D01*
X105262673Y-162945000D02*
X105262673Y-163659285D01*
X105262673Y-163302142D02*
X104012673Y-163302142D01*
X104012673Y-163302142D02*
X104191245Y-163421190D01*
X104191245Y-163421190D02*
X104310292Y-163540238D01*
X104310292Y-163540238D02*
X104369816Y-163659285D01*
X104131721Y-162468809D02*
X104072197Y-162409285D01*
X104072197Y-162409285D02*
X104012673Y-162290238D01*
X104012673Y-162290238D02*
X104012673Y-161992619D01*
X104012673Y-161992619D02*
X104072197Y-161873571D01*
X104072197Y-161873571D02*
X104131721Y-161814047D01*
X104131721Y-161814047D02*
X104250769Y-161754524D01*
X104250769Y-161754524D02*
X104369816Y-161754524D01*
X104369816Y-161754524D02*
X104548388Y-161814047D01*
X104548388Y-161814047D02*
X105262673Y-162528333D01*
X105262673Y-162528333D02*
X105262673Y-161754524D01*
X104012673Y-161397381D02*
X105262673Y-160980714D01*
X105262673Y-160980714D02*
X104012673Y-160564048D01*
X60186483Y-164552142D02*
X60186483Y-163599762D01*
X60662673Y-164075952D02*
X59710292Y-164075952D01*
X59412673Y-162409285D02*
X59412673Y-163004523D01*
X59412673Y-163004523D02*
X60007911Y-163064047D01*
X60007911Y-163064047D02*
X59948388Y-163004523D01*
X59948388Y-163004523D02*
X59888864Y-162885476D01*
X59888864Y-162885476D02*
X59888864Y-162587857D01*
X59888864Y-162587857D02*
X59948388Y-162468809D01*
X59948388Y-162468809D02*
X60007911Y-162409285D01*
X60007911Y-162409285D02*
X60126959Y-162349762D01*
X60126959Y-162349762D02*
X60424578Y-162349762D01*
X60424578Y-162349762D02*
X60543626Y-162409285D01*
X60543626Y-162409285D02*
X60603150Y-162468809D01*
X60603150Y-162468809D02*
X60662673Y-162587857D01*
X60662673Y-162587857D02*
X60662673Y-162885476D01*
X60662673Y-162885476D02*
X60603150Y-163004523D01*
X60603150Y-163004523D02*
X60543626Y-163064047D01*
X59412673Y-161992619D02*
X60662673Y-161575952D01*
X60662673Y-161575952D02*
X59412673Y-161159286D01*
X116526483Y-164592380D02*
X116526483Y-163640000D01*
X117002673Y-162390000D02*
X117002673Y-163104285D01*
X117002673Y-162747142D02*
X115752673Y-162747142D01*
X115752673Y-162747142D02*
X115931245Y-162866190D01*
X115931245Y-162866190D02*
X116050292Y-162985238D01*
X116050292Y-162985238D02*
X116109816Y-163104285D01*
X115871721Y-161913809D02*
X115812197Y-161854285D01*
X115812197Y-161854285D02*
X115752673Y-161735238D01*
X115752673Y-161735238D02*
X115752673Y-161437619D01*
X115752673Y-161437619D02*
X115812197Y-161318571D01*
X115812197Y-161318571D02*
X115871721Y-161259047D01*
X115871721Y-161259047D02*
X115990769Y-161199524D01*
X115990769Y-161199524D02*
X116109816Y-161199524D01*
X116109816Y-161199524D02*
X116288388Y-161259047D01*
X116288388Y-161259047D02*
X117002673Y-161973333D01*
X117002673Y-161973333D02*
X117002673Y-161199524D01*
X115752673Y-160842381D02*
X117002673Y-160425714D01*
X117002673Y-160425714D02*
X115752673Y-160009048D01*
X158586483Y-165147380D02*
X158586483Y-164195000D01*
X159062673Y-164671190D02*
X158110292Y-164671190D01*
X159062673Y-162945000D02*
X159062673Y-163659285D01*
X159062673Y-163302142D02*
X157812673Y-163302142D01*
X157812673Y-163302142D02*
X157991245Y-163421190D01*
X157991245Y-163421190D02*
X158110292Y-163540238D01*
X158110292Y-163540238D02*
X158169816Y-163659285D01*
X157931721Y-162468809D02*
X157872197Y-162409285D01*
X157872197Y-162409285D02*
X157812673Y-162290238D01*
X157812673Y-162290238D02*
X157812673Y-161992619D01*
X157812673Y-161992619D02*
X157872197Y-161873571D01*
X157872197Y-161873571D02*
X157931721Y-161814047D01*
X157931721Y-161814047D02*
X158050769Y-161754524D01*
X158050769Y-161754524D02*
X158169816Y-161754524D01*
X158169816Y-161754524D02*
X158348388Y-161814047D01*
X158348388Y-161814047D02*
X159062673Y-162528333D01*
X159062673Y-162528333D02*
X159062673Y-161754524D01*
X157812673Y-161397381D02*
X159062673Y-160980714D01*
X159062673Y-160980714D02*
X157812673Y-160564048D01*
X113986483Y-164552142D02*
X113986483Y-163599762D01*
X114462673Y-164075952D02*
X113510292Y-164075952D01*
X113212673Y-162409285D02*
X113212673Y-163004523D01*
X113212673Y-163004523D02*
X113807911Y-163064047D01*
X113807911Y-163064047D02*
X113748388Y-163004523D01*
X113748388Y-163004523D02*
X113688864Y-162885476D01*
X113688864Y-162885476D02*
X113688864Y-162587857D01*
X113688864Y-162587857D02*
X113748388Y-162468809D01*
X113748388Y-162468809D02*
X113807911Y-162409285D01*
X113807911Y-162409285D02*
X113926959Y-162349762D01*
X113926959Y-162349762D02*
X114224578Y-162349762D01*
X114224578Y-162349762D02*
X114343626Y-162409285D01*
X114343626Y-162409285D02*
X114403150Y-162468809D01*
X114403150Y-162468809D02*
X114462673Y-162587857D01*
X114462673Y-162587857D02*
X114462673Y-162885476D01*
X114462673Y-162885476D02*
X114403150Y-163004523D01*
X114403150Y-163004523D02*
X114343626Y-163064047D01*
X113212673Y-161992619D02*
X114462673Y-161575952D01*
X114462673Y-161575952D02*
X113212673Y-161159286D01*
X62726483Y-164592380D02*
X62726483Y-163640000D01*
X63202673Y-162390000D02*
X63202673Y-163104285D01*
X63202673Y-162747142D02*
X61952673Y-162747142D01*
X61952673Y-162747142D02*
X62131245Y-162866190D01*
X62131245Y-162866190D02*
X62250292Y-162985238D01*
X62250292Y-162985238D02*
X62309816Y-163104285D01*
X62071721Y-161913809D02*
X62012197Y-161854285D01*
X62012197Y-161854285D02*
X61952673Y-161735238D01*
X61952673Y-161735238D02*
X61952673Y-161437619D01*
X61952673Y-161437619D02*
X62012197Y-161318571D01*
X62012197Y-161318571D02*
X62071721Y-161259047D01*
X62071721Y-161259047D02*
X62190769Y-161199524D01*
X62190769Y-161199524D02*
X62309816Y-161199524D01*
X62309816Y-161199524D02*
X62488388Y-161259047D01*
X62488388Y-161259047D02*
X63202673Y-161973333D01*
X63202673Y-161973333D02*
X63202673Y-161199524D01*
X61952673Y-160842381D02*
X63202673Y-160425714D01*
X63202673Y-160425714D02*
X61952673Y-160009048D01*
X160412197Y-163262381D02*
X160352673Y-163381428D01*
X160352673Y-163381428D02*
X160352673Y-163560000D01*
X160352673Y-163560000D02*
X160412197Y-163738571D01*
X160412197Y-163738571D02*
X160531245Y-163857619D01*
X160531245Y-163857619D02*
X160650292Y-163917142D01*
X160650292Y-163917142D02*
X160888388Y-163976666D01*
X160888388Y-163976666D02*
X161066959Y-163976666D01*
X161066959Y-163976666D02*
X161305054Y-163917142D01*
X161305054Y-163917142D02*
X161424102Y-163857619D01*
X161424102Y-163857619D02*
X161543150Y-163738571D01*
X161543150Y-163738571D02*
X161602673Y-163560000D01*
X161602673Y-163560000D02*
X161602673Y-163440952D01*
X161602673Y-163440952D02*
X161543150Y-163262381D01*
X161543150Y-163262381D02*
X161483626Y-163202857D01*
X161483626Y-163202857D02*
X161066959Y-163202857D01*
X161066959Y-163202857D02*
X161066959Y-163440952D01*
X161602673Y-162667142D02*
X160352673Y-162667142D01*
X160352673Y-162667142D02*
X161602673Y-161952857D01*
X161602673Y-161952857D02*
X160352673Y-161952857D01*
X161602673Y-161357618D02*
X160352673Y-161357618D01*
X160352673Y-161357618D02*
X160352673Y-161059999D01*
X160352673Y-161059999D02*
X160412197Y-160881428D01*
X160412197Y-160881428D02*
X160531245Y-160762380D01*
X160531245Y-160762380D02*
X160650292Y-160702857D01*
X160650292Y-160702857D02*
X160888388Y-160643333D01*
X160888388Y-160643333D02*
X161066959Y-160643333D01*
X161066959Y-160643333D02*
X161305054Y-160702857D01*
X161305054Y-160702857D02*
X161424102Y-160762380D01*
X161424102Y-160762380D02*
X161543150Y-160881428D01*
X161543150Y-160881428D02*
X161602673Y-161059999D01*
X161602673Y-161059999D02*
X161602673Y-161357618D01*
D10*
X162310000Y-157865000D02*
X162310000Y-166755000D01*
X159135000Y-157230000D02*
X159770000Y-157865000D01*
X61370000Y-166755000D02*
X60735000Y-167390000D01*
X115170000Y-157865000D02*
X115805000Y-157230000D01*
X62005000Y-167390000D02*
X61370000Y-166755000D01*
X115805000Y-167390000D02*
X115170000Y-166755000D01*
X159135000Y-167390000D02*
X157865000Y-167390000D01*
D12*
X156475000Y-157890000D02*
X156475000Y-166690000D01*
X155775000Y-167390000D01*
X119075000Y-167390000D01*
X118375000Y-166690000D01*
X118375000Y-157890000D01*
X119075000Y-157190000D01*
X155775000Y-157190000D01*
X156475000Y-157890000D01*
G36*
X156475000Y-157890000D02*
G01*
X156475000Y-166690000D01*
X155775000Y-167390000D01*
X119075000Y-167390000D01*
X118375000Y-166690000D01*
X118375000Y-157890000D01*
X119075000Y-157190000D01*
X155775000Y-157190000D01*
X156475000Y-157890000D01*
G37*
D10*
X105970000Y-157865000D02*
X105970000Y-166755000D01*
X157865000Y-167390000D02*
X157230000Y-166755000D01*
X59465000Y-157230000D02*
X60735000Y-157230000D01*
X105335000Y-167390000D02*
X104065000Y-167390000D01*
X105970000Y-157865000D02*
X106605000Y-157230000D01*
X117710000Y-166755000D02*
X117075000Y-167390000D01*
X103430000Y-157865000D02*
X104065000Y-157230000D01*
X58830000Y-166755000D02*
X58830000Y-157865000D01*
D12*
X102675000Y-157890000D02*
X102675000Y-166690000D01*
X101975000Y-167390000D01*
X65275000Y-167390000D01*
X64575000Y-166690000D01*
X64575000Y-157890000D01*
X65275000Y-157190000D01*
X101975000Y-157190000D01*
X102675000Y-157890000D01*
G36*
X102675000Y-157890000D02*
G01*
X102675000Y-166690000D01*
X101975000Y-167390000D01*
X65275000Y-167390000D01*
X64575000Y-166690000D01*
X64575000Y-157890000D01*
X65275000Y-157190000D01*
X101975000Y-157190000D01*
X102675000Y-157890000D01*
G37*
D10*
X157230000Y-166755000D02*
X157230000Y-157865000D01*
X108510000Y-157865000D02*
X108510000Y-166755000D01*
X160405000Y-157230000D02*
X161675000Y-157230000D01*
X162310000Y-166755000D02*
X161675000Y-167390000D01*
X161675000Y-157230000D02*
X162310000Y-157865000D01*
X160405000Y-167390000D02*
X159770000Y-166755000D01*
X157865000Y-157230000D02*
X159135000Y-157230000D01*
X58830000Y-157865000D02*
X59465000Y-157230000D01*
X159770000Y-157865000D02*
X159770000Y-166755000D01*
X60735000Y-157230000D02*
X61370000Y-157865000D01*
X117075000Y-167390000D02*
X115805000Y-167390000D01*
X114535000Y-167390000D02*
X113265000Y-167390000D01*
X117710000Y-157865000D02*
X117710000Y-166755000D01*
X107875000Y-157230000D02*
X108510000Y-157865000D01*
X159770000Y-152955000D02*
X159135000Y-153590000D01*
X105970000Y-152955000D02*
X105335000Y-153590000D01*
X108510000Y-152955000D02*
X107875000Y-153590000D01*
X157230000Y-144065000D02*
X157865000Y-143430000D01*
X61370000Y-144065000D02*
X61370000Y-152955000D01*
X63910000Y-144065000D02*
X63910000Y-152955000D01*
X63275000Y-143430000D02*
X63910000Y-144065000D01*
X112630000Y-144065000D02*
X113265000Y-143430000D01*
X63910000Y-152955000D02*
X63275000Y-153590000D01*
X115170000Y-144065000D02*
X115170000Y-152955000D01*
X62005000Y-143430000D02*
X63275000Y-143430000D01*
X61370000Y-144065000D02*
X62005000Y-143430000D01*
X63275000Y-153590000D02*
X62005000Y-153590000D01*
X105335000Y-143430000D02*
X105970000Y-144065000D01*
X107875000Y-153590000D02*
X106605000Y-153590000D01*
X103430000Y-152955000D02*
X103430000Y-144065000D01*
X106605000Y-143430000D02*
X107875000Y-143430000D01*
X113265000Y-153590000D02*
X112630000Y-152955000D01*
X60735000Y-153590000D02*
X59465000Y-153590000D01*
X104065000Y-143430000D02*
X105335000Y-143430000D01*
X106605000Y-153590000D02*
X105970000Y-152955000D01*
X115805000Y-143430000D02*
X117075000Y-143430000D01*
X161675000Y-153590000D02*
X160405000Y-153590000D01*
X117075000Y-143430000D02*
X117710000Y-144065000D01*
X114535000Y-143430000D02*
X115170000Y-144065000D01*
X104065000Y-153590000D02*
X103430000Y-152955000D01*
X59465000Y-153590000D02*
X58830000Y-152955000D01*
X113265000Y-143430000D02*
X114535000Y-143430000D01*
X115170000Y-152955000D02*
X114535000Y-153590000D01*
X112630000Y-152955000D02*
X112630000Y-144065000D01*
X159770000Y-144065000D02*
X160405000Y-143430000D01*
D11*
X106612197Y-149462381D02*
X106552673Y-149581428D01*
X106552673Y-149581428D02*
X106552673Y-149760000D01*
X106552673Y-149760000D02*
X106612197Y-149938571D01*
X106612197Y-149938571D02*
X106731245Y-150057619D01*
X106731245Y-150057619D02*
X106850292Y-150117142D01*
X106850292Y-150117142D02*
X107088388Y-150176666D01*
X107088388Y-150176666D02*
X107266959Y-150176666D01*
X107266959Y-150176666D02*
X107505054Y-150117142D01*
X107505054Y-150117142D02*
X107624102Y-150057619D01*
X107624102Y-150057619D02*
X107743150Y-149938571D01*
X107743150Y-149938571D02*
X107802673Y-149760000D01*
X107802673Y-149760000D02*
X107802673Y-149640952D01*
X107802673Y-149640952D02*
X107743150Y-149462381D01*
X107743150Y-149462381D02*
X107683626Y-149402857D01*
X107683626Y-149402857D02*
X107266959Y-149402857D01*
X107266959Y-149402857D02*
X107266959Y-149640952D01*
X107802673Y-148867142D02*
X106552673Y-148867142D01*
X106552673Y-148867142D02*
X107802673Y-148152857D01*
X107802673Y-148152857D02*
X106552673Y-148152857D01*
X107802673Y-147557618D02*
X106552673Y-147557618D01*
X106552673Y-147557618D02*
X106552673Y-147259999D01*
X106552673Y-147259999D02*
X106612197Y-147081428D01*
X106612197Y-147081428D02*
X106731245Y-146962380D01*
X106731245Y-146962380D02*
X106850292Y-146902857D01*
X106850292Y-146902857D02*
X107088388Y-146843333D01*
X107088388Y-146843333D02*
X107266959Y-146843333D01*
X107266959Y-146843333D02*
X107505054Y-146902857D01*
X107505054Y-146902857D02*
X107624102Y-146962380D01*
X107624102Y-146962380D02*
X107743150Y-147081428D01*
X107743150Y-147081428D02*
X107802673Y-147259999D01*
X107802673Y-147259999D02*
X107802673Y-147557618D01*
X104786483Y-151347380D02*
X104786483Y-150395000D01*
X105262673Y-150871190D02*
X104310292Y-150871190D01*
X105262673Y-149145000D02*
X105262673Y-149859285D01*
X105262673Y-149502142D02*
X104012673Y-149502142D01*
X104012673Y-149502142D02*
X104191245Y-149621190D01*
X104191245Y-149621190D02*
X104310292Y-149740238D01*
X104310292Y-149740238D02*
X104369816Y-149859285D01*
X104131721Y-148668809D02*
X104072197Y-148609285D01*
X104072197Y-148609285D02*
X104012673Y-148490238D01*
X104012673Y-148490238D02*
X104012673Y-148192619D01*
X104012673Y-148192619D02*
X104072197Y-148073571D01*
X104072197Y-148073571D02*
X104131721Y-148014047D01*
X104131721Y-148014047D02*
X104250769Y-147954524D01*
X104250769Y-147954524D02*
X104369816Y-147954524D01*
X104369816Y-147954524D02*
X104548388Y-148014047D01*
X104548388Y-148014047D02*
X105262673Y-148728333D01*
X105262673Y-148728333D02*
X105262673Y-147954524D01*
X104012673Y-147597381D02*
X105262673Y-147180714D01*
X105262673Y-147180714D02*
X104012673Y-146764048D01*
X60186483Y-150752142D02*
X60186483Y-149799762D01*
X60662673Y-150275952D02*
X59710292Y-150275952D01*
X59412673Y-148609285D02*
X59412673Y-149204523D01*
X59412673Y-149204523D02*
X60007911Y-149264047D01*
X60007911Y-149264047D02*
X59948388Y-149204523D01*
X59948388Y-149204523D02*
X59888864Y-149085476D01*
X59888864Y-149085476D02*
X59888864Y-148787857D01*
X59888864Y-148787857D02*
X59948388Y-148668809D01*
X59948388Y-148668809D02*
X60007911Y-148609285D01*
X60007911Y-148609285D02*
X60126959Y-148549762D01*
X60126959Y-148549762D02*
X60424578Y-148549762D01*
X60424578Y-148549762D02*
X60543626Y-148609285D01*
X60543626Y-148609285D02*
X60603150Y-148668809D01*
X60603150Y-148668809D02*
X60662673Y-148787857D01*
X60662673Y-148787857D02*
X60662673Y-149085476D01*
X60662673Y-149085476D02*
X60603150Y-149204523D01*
X60603150Y-149204523D02*
X60543626Y-149264047D01*
X59412673Y-148192619D02*
X60662673Y-147775952D01*
X60662673Y-147775952D02*
X59412673Y-147359286D01*
X116526483Y-150792380D02*
X116526483Y-149840000D01*
X117002673Y-148590000D02*
X117002673Y-149304285D01*
X117002673Y-148947142D02*
X115752673Y-148947142D01*
X115752673Y-148947142D02*
X115931245Y-149066190D01*
X115931245Y-149066190D02*
X116050292Y-149185238D01*
X116050292Y-149185238D02*
X116109816Y-149304285D01*
X115871721Y-148113809D02*
X115812197Y-148054285D01*
X115812197Y-148054285D02*
X115752673Y-147935238D01*
X115752673Y-147935238D02*
X115752673Y-147637619D01*
X115752673Y-147637619D02*
X115812197Y-147518571D01*
X115812197Y-147518571D02*
X115871721Y-147459047D01*
X115871721Y-147459047D02*
X115990769Y-147399524D01*
X115990769Y-147399524D02*
X116109816Y-147399524D01*
X116109816Y-147399524D02*
X116288388Y-147459047D01*
X116288388Y-147459047D02*
X117002673Y-148173333D01*
X117002673Y-148173333D02*
X117002673Y-147399524D01*
X115752673Y-147042381D02*
X117002673Y-146625714D01*
X117002673Y-146625714D02*
X115752673Y-146209048D01*
X158586483Y-151347380D02*
X158586483Y-150395000D01*
X159062673Y-150871190D02*
X158110292Y-150871190D01*
X159062673Y-149145000D02*
X159062673Y-149859285D01*
X159062673Y-149502142D02*
X157812673Y-149502142D01*
X157812673Y-149502142D02*
X157991245Y-149621190D01*
X157991245Y-149621190D02*
X158110292Y-149740238D01*
X158110292Y-149740238D02*
X158169816Y-149859285D01*
X157931721Y-148668809D02*
X157872197Y-148609285D01*
X157872197Y-148609285D02*
X157812673Y-148490238D01*
X157812673Y-148490238D02*
X157812673Y-148192619D01*
X157812673Y-148192619D02*
X157872197Y-148073571D01*
X157872197Y-148073571D02*
X157931721Y-148014047D01*
X157931721Y-148014047D02*
X158050769Y-147954524D01*
X158050769Y-147954524D02*
X158169816Y-147954524D01*
X158169816Y-147954524D02*
X158348388Y-148014047D01*
X158348388Y-148014047D02*
X159062673Y-148728333D01*
X159062673Y-148728333D02*
X159062673Y-147954524D01*
X157812673Y-147597381D02*
X159062673Y-147180714D01*
X159062673Y-147180714D02*
X157812673Y-146764048D01*
X113986483Y-150752142D02*
X113986483Y-149799762D01*
X114462673Y-150275952D02*
X113510292Y-150275952D01*
X113212673Y-148609285D02*
X113212673Y-149204523D01*
X113212673Y-149204523D02*
X113807911Y-149264047D01*
X113807911Y-149264047D02*
X113748388Y-149204523D01*
X113748388Y-149204523D02*
X113688864Y-149085476D01*
X113688864Y-149085476D02*
X113688864Y-148787857D01*
X113688864Y-148787857D02*
X113748388Y-148668809D01*
X113748388Y-148668809D02*
X113807911Y-148609285D01*
X113807911Y-148609285D02*
X113926959Y-148549762D01*
X113926959Y-148549762D02*
X114224578Y-148549762D01*
X114224578Y-148549762D02*
X114343626Y-148609285D01*
X114343626Y-148609285D02*
X114403150Y-148668809D01*
X114403150Y-148668809D02*
X114462673Y-148787857D01*
X114462673Y-148787857D02*
X114462673Y-149085476D01*
X114462673Y-149085476D02*
X114403150Y-149204523D01*
X114403150Y-149204523D02*
X114343626Y-149264047D01*
X113212673Y-148192619D02*
X114462673Y-147775952D01*
X114462673Y-147775952D02*
X113212673Y-147359286D01*
X62726483Y-150792380D02*
X62726483Y-149840000D01*
X63202673Y-148590000D02*
X63202673Y-149304285D01*
X63202673Y-148947142D02*
X61952673Y-148947142D01*
X61952673Y-148947142D02*
X62131245Y-149066190D01*
X62131245Y-149066190D02*
X62250292Y-149185238D01*
X62250292Y-149185238D02*
X62309816Y-149304285D01*
X62071721Y-148113809D02*
X62012197Y-148054285D01*
X62012197Y-148054285D02*
X61952673Y-147935238D01*
X61952673Y-147935238D02*
X61952673Y-147637619D01*
X61952673Y-147637619D02*
X62012197Y-147518571D01*
X62012197Y-147518571D02*
X62071721Y-147459047D01*
X62071721Y-147459047D02*
X62190769Y-147399524D01*
X62190769Y-147399524D02*
X62309816Y-147399524D01*
X62309816Y-147399524D02*
X62488388Y-147459047D01*
X62488388Y-147459047D02*
X63202673Y-148173333D01*
X63202673Y-148173333D02*
X63202673Y-147399524D01*
X61952673Y-147042381D02*
X63202673Y-146625714D01*
X63202673Y-146625714D02*
X61952673Y-146209048D01*
X160412197Y-149462381D02*
X160352673Y-149581428D01*
X160352673Y-149581428D02*
X160352673Y-149760000D01*
X160352673Y-149760000D02*
X160412197Y-149938571D01*
X160412197Y-149938571D02*
X160531245Y-150057619D01*
X160531245Y-150057619D02*
X160650292Y-150117142D01*
X160650292Y-150117142D02*
X160888388Y-150176666D01*
X160888388Y-150176666D02*
X161066959Y-150176666D01*
X161066959Y-150176666D02*
X161305054Y-150117142D01*
X161305054Y-150117142D02*
X161424102Y-150057619D01*
X161424102Y-150057619D02*
X161543150Y-149938571D01*
X161543150Y-149938571D02*
X161602673Y-149760000D01*
X161602673Y-149760000D02*
X161602673Y-149640952D01*
X161602673Y-149640952D02*
X161543150Y-149462381D01*
X161543150Y-149462381D02*
X161483626Y-149402857D01*
X161483626Y-149402857D02*
X161066959Y-149402857D01*
X161066959Y-149402857D02*
X161066959Y-149640952D01*
X161602673Y-148867142D02*
X160352673Y-148867142D01*
X160352673Y-148867142D02*
X161602673Y-148152857D01*
X161602673Y-148152857D02*
X160352673Y-148152857D01*
X161602673Y-147557618D02*
X160352673Y-147557618D01*
X160352673Y-147557618D02*
X160352673Y-147259999D01*
X160352673Y-147259999D02*
X160412197Y-147081428D01*
X160412197Y-147081428D02*
X160531245Y-146962380D01*
X160531245Y-146962380D02*
X160650292Y-146902857D01*
X160650292Y-146902857D02*
X160888388Y-146843333D01*
X160888388Y-146843333D02*
X161066959Y-146843333D01*
X161066959Y-146843333D02*
X161305054Y-146902857D01*
X161305054Y-146902857D02*
X161424102Y-146962380D01*
X161424102Y-146962380D02*
X161543150Y-147081428D01*
X161543150Y-147081428D02*
X161602673Y-147259999D01*
X161602673Y-147259999D02*
X161602673Y-147557618D01*
D10*
X162310000Y-144065000D02*
X162310000Y-152955000D01*
X159135000Y-143430000D02*
X159770000Y-144065000D01*
X61370000Y-152955000D02*
X60735000Y-153590000D01*
X115170000Y-144065000D02*
X115805000Y-143430000D01*
X62005000Y-153590000D02*
X61370000Y-152955000D01*
X115805000Y-153590000D02*
X115170000Y-152955000D01*
X159135000Y-153590000D02*
X157865000Y-153590000D01*
D12*
X156475000Y-144090000D02*
X156475000Y-152890000D01*
X155775000Y-153590000D01*
X119075000Y-153590000D01*
X118375000Y-152890000D01*
X118375000Y-144090000D01*
X119075000Y-143390000D01*
X155775000Y-143390000D01*
X156475000Y-144090000D01*
G36*
X156475000Y-144090000D02*
G01*
X156475000Y-152890000D01*
X155775000Y-153590000D01*
X119075000Y-153590000D01*
X118375000Y-152890000D01*
X118375000Y-144090000D01*
X119075000Y-143390000D01*
X155775000Y-143390000D01*
X156475000Y-144090000D01*
G37*
D10*
X105970000Y-144065000D02*
X105970000Y-152955000D01*
X157865000Y-153590000D02*
X157230000Y-152955000D01*
X59465000Y-143430000D02*
X60735000Y-143430000D01*
X105335000Y-153590000D02*
X104065000Y-153590000D01*
X105970000Y-144065000D02*
X106605000Y-143430000D01*
X117710000Y-152955000D02*
X117075000Y-153590000D01*
X103430000Y-144065000D02*
X104065000Y-143430000D01*
X58830000Y-152955000D02*
X58830000Y-144065000D01*
D12*
X102675000Y-144090000D02*
X102675000Y-152890000D01*
X101975000Y-153590000D01*
X65275000Y-153590000D01*
X64575000Y-152890000D01*
X64575000Y-144090000D01*
X65275000Y-143390000D01*
X101975000Y-143390000D01*
X102675000Y-144090000D01*
G36*
X102675000Y-144090000D02*
G01*
X102675000Y-152890000D01*
X101975000Y-153590000D01*
X65275000Y-153590000D01*
X64575000Y-152890000D01*
X64575000Y-144090000D01*
X65275000Y-143390000D01*
X101975000Y-143390000D01*
X102675000Y-144090000D01*
G37*
D10*
X157230000Y-152955000D02*
X157230000Y-144065000D01*
X108510000Y-144065000D02*
X108510000Y-152955000D01*
X160405000Y-143430000D02*
X161675000Y-143430000D01*
X162310000Y-152955000D02*
X161675000Y-153590000D01*
X161675000Y-143430000D02*
X162310000Y-144065000D01*
X160405000Y-153590000D02*
X159770000Y-152955000D01*
X157865000Y-143430000D02*
X159135000Y-143430000D01*
X58830000Y-144065000D02*
X59465000Y-143430000D01*
X159770000Y-144065000D02*
X159770000Y-152955000D01*
X60735000Y-143430000D02*
X61370000Y-144065000D01*
X117075000Y-153590000D02*
X115805000Y-153590000D01*
X114535000Y-153590000D02*
X113265000Y-153590000D01*
X117710000Y-144065000D02*
X117710000Y-152955000D01*
X107875000Y-143430000D02*
X108510000Y-144065000D01*
X159770000Y-139155000D02*
X159135000Y-139790000D01*
X105970000Y-139155000D02*
X105335000Y-139790000D01*
X108510000Y-139155000D02*
X107875000Y-139790000D01*
X157230000Y-130265000D02*
X157865000Y-129630000D01*
X61370000Y-130265000D02*
X61370000Y-139155000D01*
X63910000Y-130265000D02*
X63910000Y-139155000D01*
X63275000Y-129630000D02*
X63910000Y-130265000D01*
X112630000Y-130265000D02*
X113265000Y-129630000D01*
X63910000Y-139155000D02*
X63275000Y-139790000D01*
X115170000Y-130265000D02*
X115170000Y-139155000D01*
X62005000Y-129630000D02*
X63275000Y-129630000D01*
X61370000Y-130265000D02*
X62005000Y-129630000D01*
X63275000Y-139790000D02*
X62005000Y-139790000D01*
X105335000Y-129630000D02*
X105970000Y-130265000D01*
X107875000Y-139790000D02*
X106605000Y-139790000D01*
X103430000Y-139155000D02*
X103430000Y-130265000D01*
X106605000Y-129630000D02*
X107875000Y-129630000D01*
X113265000Y-139790000D02*
X112630000Y-139155000D01*
X60735000Y-139790000D02*
X59465000Y-139790000D01*
X104065000Y-129630000D02*
X105335000Y-129630000D01*
X106605000Y-139790000D02*
X105970000Y-139155000D01*
X115805000Y-129630000D02*
X117075000Y-129630000D01*
X161675000Y-139790000D02*
X160405000Y-139790000D01*
X117075000Y-129630000D02*
X117710000Y-130265000D01*
X114535000Y-129630000D02*
X115170000Y-130265000D01*
X104065000Y-139790000D02*
X103430000Y-139155000D01*
X59465000Y-139790000D02*
X58830000Y-139155000D01*
X113265000Y-129630000D02*
X114535000Y-129630000D01*
X115170000Y-139155000D02*
X114535000Y-139790000D01*
X112630000Y-139155000D02*
X112630000Y-130265000D01*
X159770000Y-130265000D02*
X160405000Y-129630000D01*
D11*
X106612197Y-135662381D02*
X106552673Y-135781428D01*
X106552673Y-135781428D02*
X106552673Y-135960000D01*
X106552673Y-135960000D02*
X106612197Y-136138571D01*
X106612197Y-136138571D02*
X106731245Y-136257619D01*
X106731245Y-136257619D02*
X106850292Y-136317142D01*
X106850292Y-136317142D02*
X107088388Y-136376666D01*
X107088388Y-136376666D02*
X107266959Y-136376666D01*
X107266959Y-136376666D02*
X107505054Y-136317142D01*
X107505054Y-136317142D02*
X107624102Y-136257619D01*
X107624102Y-136257619D02*
X107743150Y-136138571D01*
X107743150Y-136138571D02*
X107802673Y-135960000D01*
X107802673Y-135960000D02*
X107802673Y-135840952D01*
X107802673Y-135840952D02*
X107743150Y-135662381D01*
X107743150Y-135662381D02*
X107683626Y-135602857D01*
X107683626Y-135602857D02*
X107266959Y-135602857D01*
X107266959Y-135602857D02*
X107266959Y-135840952D01*
X107802673Y-135067142D02*
X106552673Y-135067142D01*
X106552673Y-135067142D02*
X107802673Y-134352857D01*
X107802673Y-134352857D02*
X106552673Y-134352857D01*
X107802673Y-133757618D02*
X106552673Y-133757618D01*
X106552673Y-133757618D02*
X106552673Y-133459999D01*
X106552673Y-133459999D02*
X106612197Y-133281428D01*
X106612197Y-133281428D02*
X106731245Y-133162380D01*
X106731245Y-133162380D02*
X106850292Y-133102857D01*
X106850292Y-133102857D02*
X107088388Y-133043333D01*
X107088388Y-133043333D02*
X107266959Y-133043333D01*
X107266959Y-133043333D02*
X107505054Y-133102857D01*
X107505054Y-133102857D02*
X107624102Y-133162380D01*
X107624102Y-133162380D02*
X107743150Y-133281428D01*
X107743150Y-133281428D02*
X107802673Y-133459999D01*
X107802673Y-133459999D02*
X107802673Y-133757618D01*
X104786483Y-137547380D02*
X104786483Y-136595000D01*
X105262673Y-137071190D02*
X104310292Y-137071190D01*
X105262673Y-135345000D02*
X105262673Y-136059285D01*
X105262673Y-135702142D02*
X104012673Y-135702142D01*
X104012673Y-135702142D02*
X104191245Y-135821190D01*
X104191245Y-135821190D02*
X104310292Y-135940238D01*
X104310292Y-135940238D02*
X104369816Y-136059285D01*
X104131721Y-134868809D02*
X104072197Y-134809285D01*
X104072197Y-134809285D02*
X104012673Y-134690238D01*
X104012673Y-134690238D02*
X104012673Y-134392619D01*
X104012673Y-134392619D02*
X104072197Y-134273571D01*
X104072197Y-134273571D02*
X104131721Y-134214047D01*
X104131721Y-134214047D02*
X104250769Y-134154524D01*
X104250769Y-134154524D02*
X104369816Y-134154524D01*
X104369816Y-134154524D02*
X104548388Y-134214047D01*
X104548388Y-134214047D02*
X105262673Y-134928333D01*
X105262673Y-134928333D02*
X105262673Y-134154524D01*
X104012673Y-133797381D02*
X105262673Y-133380714D01*
X105262673Y-133380714D02*
X104012673Y-132964048D01*
X60186483Y-136952142D02*
X60186483Y-135999762D01*
X60662673Y-136475952D02*
X59710292Y-136475952D01*
X59412673Y-134809285D02*
X59412673Y-135404523D01*
X59412673Y-135404523D02*
X60007911Y-135464047D01*
X60007911Y-135464047D02*
X59948388Y-135404523D01*
X59948388Y-135404523D02*
X59888864Y-135285476D01*
X59888864Y-135285476D02*
X59888864Y-134987857D01*
X59888864Y-134987857D02*
X59948388Y-134868809D01*
X59948388Y-134868809D02*
X60007911Y-134809285D01*
X60007911Y-134809285D02*
X60126959Y-134749762D01*
X60126959Y-134749762D02*
X60424578Y-134749762D01*
X60424578Y-134749762D02*
X60543626Y-134809285D01*
X60543626Y-134809285D02*
X60603150Y-134868809D01*
X60603150Y-134868809D02*
X60662673Y-134987857D01*
X60662673Y-134987857D02*
X60662673Y-135285476D01*
X60662673Y-135285476D02*
X60603150Y-135404523D01*
X60603150Y-135404523D02*
X60543626Y-135464047D01*
X59412673Y-134392619D02*
X60662673Y-133975952D01*
X60662673Y-133975952D02*
X59412673Y-133559286D01*
X116526483Y-136992380D02*
X116526483Y-136040000D01*
X117002673Y-134790000D02*
X117002673Y-135504285D01*
X117002673Y-135147142D02*
X115752673Y-135147142D01*
X115752673Y-135147142D02*
X115931245Y-135266190D01*
X115931245Y-135266190D02*
X116050292Y-135385238D01*
X116050292Y-135385238D02*
X116109816Y-135504285D01*
X115871721Y-134313809D02*
X115812197Y-134254285D01*
X115812197Y-134254285D02*
X115752673Y-134135238D01*
X115752673Y-134135238D02*
X115752673Y-133837619D01*
X115752673Y-133837619D02*
X115812197Y-133718571D01*
X115812197Y-133718571D02*
X115871721Y-133659047D01*
X115871721Y-133659047D02*
X115990769Y-133599524D01*
X115990769Y-133599524D02*
X116109816Y-133599524D01*
X116109816Y-133599524D02*
X116288388Y-133659047D01*
X116288388Y-133659047D02*
X117002673Y-134373333D01*
X117002673Y-134373333D02*
X117002673Y-133599524D01*
X115752673Y-133242381D02*
X117002673Y-132825714D01*
X117002673Y-132825714D02*
X115752673Y-132409048D01*
X158586483Y-137547380D02*
X158586483Y-136595000D01*
X159062673Y-137071190D02*
X158110292Y-137071190D01*
X159062673Y-135345000D02*
X159062673Y-136059285D01*
X159062673Y-135702142D02*
X157812673Y-135702142D01*
X157812673Y-135702142D02*
X157991245Y-135821190D01*
X157991245Y-135821190D02*
X158110292Y-135940238D01*
X158110292Y-135940238D02*
X158169816Y-136059285D01*
X157931721Y-134868809D02*
X157872197Y-134809285D01*
X157872197Y-134809285D02*
X157812673Y-134690238D01*
X157812673Y-134690238D02*
X157812673Y-134392619D01*
X157812673Y-134392619D02*
X157872197Y-134273571D01*
X157872197Y-134273571D02*
X157931721Y-134214047D01*
X157931721Y-134214047D02*
X158050769Y-134154524D01*
X158050769Y-134154524D02*
X158169816Y-134154524D01*
X158169816Y-134154524D02*
X158348388Y-134214047D01*
X158348388Y-134214047D02*
X159062673Y-134928333D01*
X159062673Y-134928333D02*
X159062673Y-134154524D01*
X157812673Y-133797381D02*
X159062673Y-133380714D01*
X159062673Y-133380714D02*
X157812673Y-132964048D01*
X113986483Y-136952142D02*
X113986483Y-135999762D01*
X114462673Y-136475952D02*
X113510292Y-136475952D01*
X113212673Y-134809285D02*
X113212673Y-135404523D01*
X113212673Y-135404523D02*
X113807911Y-135464047D01*
X113807911Y-135464047D02*
X113748388Y-135404523D01*
X113748388Y-135404523D02*
X113688864Y-135285476D01*
X113688864Y-135285476D02*
X113688864Y-134987857D01*
X113688864Y-134987857D02*
X113748388Y-134868809D01*
X113748388Y-134868809D02*
X113807911Y-134809285D01*
X113807911Y-134809285D02*
X113926959Y-134749762D01*
X113926959Y-134749762D02*
X114224578Y-134749762D01*
X114224578Y-134749762D02*
X114343626Y-134809285D01*
X114343626Y-134809285D02*
X114403150Y-134868809D01*
X114403150Y-134868809D02*
X114462673Y-134987857D01*
X114462673Y-134987857D02*
X114462673Y-135285476D01*
X114462673Y-135285476D02*
X114403150Y-135404523D01*
X114403150Y-135404523D02*
X114343626Y-135464047D01*
X113212673Y-134392619D02*
X114462673Y-133975952D01*
X114462673Y-133975952D02*
X113212673Y-133559286D01*
X62726483Y-136992380D02*
X62726483Y-136040000D01*
X63202673Y-134790000D02*
X63202673Y-135504285D01*
X63202673Y-135147142D02*
X61952673Y-135147142D01*
X61952673Y-135147142D02*
X62131245Y-135266190D01*
X62131245Y-135266190D02*
X62250292Y-135385238D01*
X62250292Y-135385238D02*
X62309816Y-135504285D01*
X62071721Y-134313809D02*
X62012197Y-134254285D01*
X62012197Y-134254285D02*
X61952673Y-134135238D01*
X61952673Y-134135238D02*
X61952673Y-133837619D01*
X61952673Y-133837619D02*
X62012197Y-133718571D01*
X62012197Y-133718571D02*
X62071721Y-133659047D01*
X62071721Y-133659047D02*
X62190769Y-133599524D01*
X62190769Y-133599524D02*
X62309816Y-133599524D01*
X62309816Y-133599524D02*
X62488388Y-133659047D01*
X62488388Y-133659047D02*
X63202673Y-134373333D01*
X63202673Y-134373333D02*
X63202673Y-133599524D01*
X61952673Y-133242381D02*
X63202673Y-132825714D01*
X63202673Y-132825714D02*
X61952673Y-132409048D01*
X160412197Y-135662381D02*
X160352673Y-135781428D01*
X160352673Y-135781428D02*
X160352673Y-135960000D01*
X160352673Y-135960000D02*
X160412197Y-136138571D01*
X160412197Y-136138571D02*
X160531245Y-136257619D01*
X160531245Y-136257619D02*
X160650292Y-136317142D01*
X160650292Y-136317142D02*
X160888388Y-136376666D01*
X160888388Y-136376666D02*
X161066959Y-136376666D01*
X161066959Y-136376666D02*
X161305054Y-136317142D01*
X161305054Y-136317142D02*
X161424102Y-136257619D01*
X161424102Y-136257619D02*
X161543150Y-136138571D01*
X161543150Y-136138571D02*
X161602673Y-135960000D01*
X161602673Y-135960000D02*
X161602673Y-135840952D01*
X161602673Y-135840952D02*
X161543150Y-135662381D01*
X161543150Y-135662381D02*
X161483626Y-135602857D01*
X161483626Y-135602857D02*
X161066959Y-135602857D01*
X161066959Y-135602857D02*
X161066959Y-135840952D01*
X161602673Y-135067142D02*
X160352673Y-135067142D01*
X160352673Y-135067142D02*
X161602673Y-134352857D01*
X161602673Y-134352857D02*
X160352673Y-134352857D01*
X161602673Y-133757618D02*
X160352673Y-133757618D01*
X160352673Y-133757618D02*
X160352673Y-133459999D01*
X160352673Y-133459999D02*
X160412197Y-133281428D01*
X160412197Y-133281428D02*
X160531245Y-133162380D01*
X160531245Y-133162380D02*
X160650292Y-133102857D01*
X160650292Y-133102857D02*
X160888388Y-133043333D01*
X160888388Y-133043333D02*
X161066959Y-133043333D01*
X161066959Y-133043333D02*
X161305054Y-133102857D01*
X161305054Y-133102857D02*
X161424102Y-133162380D01*
X161424102Y-133162380D02*
X161543150Y-133281428D01*
X161543150Y-133281428D02*
X161602673Y-133459999D01*
X161602673Y-133459999D02*
X161602673Y-133757618D01*
D10*
X162310000Y-130265000D02*
X162310000Y-139155000D01*
X159135000Y-129630000D02*
X159770000Y-130265000D01*
X61370000Y-139155000D02*
X60735000Y-139790000D01*
X115170000Y-130265000D02*
X115805000Y-129630000D01*
X62005000Y-139790000D02*
X61370000Y-139155000D01*
X115805000Y-139790000D02*
X115170000Y-139155000D01*
X159135000Y-139790000D02*
X157865000Y-139790000D01*
D12*
X156475000Y-130290000D02*
X156475000Y-139090000D01*
X155775000Y-139790000D01*
X119075000Y-139790000D01*
X118375000Y-139090000D01*
X118375000Y-130290000D01*
X119075000Y-129590000D01*
X155775000Y-129590000D01*
X156475000Y-130290000D01*
G36*
X156475000Y-130290000D02*
G01*
X156475000Y-139090000D01*
X155775000Y-139790000D01*
X119075000Y-139790000D01*
X118375000Y-139090000D01*
X118375000Y-130290000D01*
X119075000Y-129590000D01*
X155775000Y-129590000D01*
X156475000Y-130290000D01*
G37*
D10*
X105970000Y-130265000D02*
X105970000Y-139155000D01*
X157865000Y-139790000D02*
X157230000Y-139155000D01*
X59465000Y-129630000D02*
X60735000Y-129630000D01*
X105335000Y-139790000D02*
X104065000Y-139790000D01*
X105970000Y-130265000D02*
X106605000Y-129630000D01*
X117710000Y-139155000D02*
X117075000Y-139790000D01*
X103430000Y-130265000D02*
X104065000Y-129630000D01*
X58830000Y-139155000D02*
X58830000Y-130265000D01*
D12*
X102675000Y-130290000D02*
X102675000Y-139090000D01*
X101975000Y-139790000D01*
X65275000Y-139790000D01*
X64575000Y-139090000D01*
X64575000Y-130290000D01*
X65275000Y-129590000D01*
X101975000Y-129590000D01*
X102675000Y-130290000D01*
G36*
X102675000Y-130290000D02*
G01*
X102675000Y-139090000D01*
X101975000Y-139790000D01*
X65275000Y-139790000D01*
X64575000Y-139090000D01*
X64575000Y-130290000D01*
X65275000Y-129590000D01*
X101975000Y-129590000D01*
X102675000Y-130290000D01*
G37*
D10*
X157230000Y-139155000D02*
X157230000Y-130265000D01*
X108510000Y-130265000D02*
X108510000Y-139155000D01*
X160405000Y-129630000D02*
X161675000Y-129630000D01*
X162310000Y-139155000D02*
X161675000Y-139790000D01*
X161675000Y-129630000D02*
X162310000Y-130265000D01*
X160405000Y-139790000D02*
X159770000Y-139155000D01*
X157865000Y-129630000D02*
X159135000Y-129630000D01*
X58830000Y-130265000D02*
X59465000Y-129630000D01*
X159770000Y-130265000D02*
X159770000Y-139155000D01*
X60735000Y-129630000D02*
X61370000Y-130265000D01*
X117075000Y-139790000D02*
X115805000Y-139790000D01*
X114535000Y-139790000D02*
X113265000Y-139790000D01*
X117710000Y-130265000D02*
X117710000Y-139155000D01*
X107875000Y-129630000D02*
X108510000Y-130265000D01*
X159770000Y-125355000D02*
X159135000Y-125990000D01*
X105970000Y-125355000D02*
X105335000Y-125990000D01*
X108510000Y-125355000D02*
X107875000Y-125990000D01*
X157230000Y-116465000D02*
X157865000Y-115830000D01*
X61370000Y-116465000D02*
X61370000Y-125355000D01*
X63910000Y-116465000D02*
X63910000Y-125355000D01*
X63275000Y-115830000D02*
X63910000Y-116465000D01*
X112630000Y-116465000D02*
X113265000Y-115830000D01*
X63910000Y-125355000D02*
X63275000Y-125990000D01*
X115170000Y-116465000D02*
X115170000Y-125355000D01*
X62005000Y-115830000D02*
X63275000Y-115830000D01*
X61370000Y-116465000D02*
X62005000Y-115830000D01*
X63275000Y-125990000D02*
X62005000Y-125990000D01*
X105335000Y-115830000D02*
X105970000Y-116465000D01*
X107875000Y-125990000D02*
X106605000Y-125990000D01*
X103430000Y-125355000D02*
X103430000Y-116465000D01*
X106605000Y-115830000D02*
X107875000Y-115830000D01*
X113265000Y-125990000D02*
X112630000Y-125355000D01*
X60735000Y-125990000D02*
X59465000Y-125990000D01*
X104065000Y-115830000D02*
X105335000Y-115830000D01*
X106605000Y-125990000D02*
X105970000Y-125355000D01*
X115805000Y-115830000D02*
X117075000Y-115830000D01*
X161675000Y-125990000D02*
X160405000Y-125990000D01*
X117075000Y-115830000D02*
X117710000Y-116465000D01*
X114535000Y-115830000D02*
X115170000Y-116465000D01*
X104065000Y-125990000D02*
X103430000Y-125355000D01*
X59465000Y-125990000D02*
X58830000Y-125355000D01*
X113265000Y-115830000D02*
X114535000Y-115830000D01*
X115170000Y-125355000D02*
X114535000Y-125990000D01*
X112630000Y-125355000D02*
X112630000Y-116465000D01*
X159770000Y-116465000D02*
X160405000Y-115830000D01*
D11*
X106612197Y-121862381D02*
X106552673Y-121981428D01*
X106552673Y-121981428D02*
X106552673Y-122160000D01*
X106552673Y-122160000D02*
X106612197Y-122338571D01*
X106612197Y-122338571D02*
X106731245Y-122457619D01*
X106731245Y-122457619D02*
X106850292Y-122517142D01*
X106850292Y-122517142D02*
X107088388Y-122576666D01*
X107088388Y-122576666D02*
X107266959Y-122576666D01*
X107266959Y-122576666D02*
X107505054Y-122517142D01*
X107505054Y-122517142D02*
X107624102Y-122457619D01*
X107624102Y-122457619D02*
X107743150Y-122338571D01*
X107743150Y-122338571D02*
X107802673Y-122160000D01*
X107802673Y-122160000D02*
X107802673Y-122040952D01*
X107802673Y-122040952D02*
X107743150Y-121862381D01*
X107743150Y-121862381D02*
X107683626Y-121802857D01*
X107683626Y-121802857D02*
X107266959Y-121802857D01*
X107266959Y-121802857D02*
X107266959Y-122040952D01*
X107802673Y-121267142D02*
X106552673Y-121267142D01*
X106552673Y-121267142D02*
X107802673Y-120552857D01*
X107802673Y-120552857D02*
X106552673Y-120552857D01*
X107802673Y-119957618D02*
X106552673Y-119957618D01*
X106552673Y-119957618D02*
X106552673Y-119659999D01*
X106552673Y-119659999D02*
X106612197Y-119481428D01*
X106612197Y-119481428D02*
X106731245Y-119362380D01*
X106731245Y-119362380D02*
X106850292Y-119302857D01*
X106850292Y-119302857D02*
X107088388Y-119243333D01*
X107088388Y-119243333D02*
X107266959Y-119243333D01*
X107266959Y-119243333D02*
X107505054Y-119302857D01*
X107505054Y-119302857D02*
X107624102Y-119362380D01*
X107624102Y-119362380D02*
X107743150Y-119481428D01*
X107743150Y-119481428D02*
X107802673Y-119659999D01*
X107802673Y-119659999D02*
X107802673Y-119957618D01*
X104786483Y-123747380D02*
X104786483Y-122795000D01*
X105262673Y-123271190D02*
X104310292Y-123271190D01*
X105262673Y-121545000D02*
X105262673Y-122259285D01*
X105262673Y-121902142D02*
X104012673Y-121902142D01*
X104012673Y-121902142D02*
X104191245Y-122021190D01*
X104191245Y-122021190D02*
X104310292Y-122140238D01*
X104310292Y-122140238D02*
X104369816Y-122259285D01*
X104131721Y-121068809D02*
X104072197Y-121009285D01*
X104072197Y-121009285D02*
X104012673Y-120890238D01*
X104012673Y-120890238D02*
X104012673Y-120592619D01*
X104012673Y-120592619D02*
X104072197Y-120473571D01*
X104072197Y-120473571D02*
X104131721Y-120414047D01*
X104131721Y-120414047D02*
X104250769Y-120354524D01*
X104250769Y-120354524D02*
X104369816Y-120354524D01*
X104369816Y-120354524D02*
X104548388Y-120414047D01*
X104548388Y-120414047D02*
X105262673Y-121128333D01*
X105262673Y-121128333D02*
X105262673Y-120354524D01*
X104012673Y-119997381D02*
X105262673Y-119580714D01*
X105262673Y-119580714D02*
X104012673Y-119164048D01*
X60186483Y-123152142D02*
X60186483Y-122199762D01*
X60662673Y-122675952D02*
X59710292Y-122675952D01*
X59412673Y-121009285D02*
X59412673Y-121604523D01*
X59412673Y-121604523D02*
X60007911Y-121664047D01*
X60007911Y-121664047D02*
X59948388Y-121604523D01*
X59948388Y-121604523D02*
X59888864Y-121485476D01*
X59888864Y-121485476D02*
X59888864Y-121187857D01*
X59888864Y-121187857D02*
X59948388Y-121068809D01*
X59948388Y-121068809D02*
X60007911Y-121009285D01*
X60007911Y-121009285D02*
X60126959Y-120949762D01*
X60126959Y-120949762D02*
X60424578Y-120949762D01*
X60424578Y-120949762D02*
X60543626Y-121009285D01*
X60543626Y-121009285D02*
X60603150Y-121068809D01*
X60603150Y-121068809D02*
X60662673Y-121187857D01*
X60662673Y-121187857D02*
X60662673Y-121485476D01*
X60662673Y-121485476D02*
X60603150Y-121604523D01*
X60603150Y-121604523D02*
X60543626Y-121664047D01*
X59412673Y-120592619D02*
X60662673Y-120175952D01*
X60662673Y-120175952D02*
X59412673Y-119759286D01*
X116526483Y-123192380D02*
X116526483Y-122240000D01*
X117002673Y-120990000D02*
X117002673Y-121704285D01*
X117002673Y-121347142D02*
X115752673Y-121347142D01*
X115752673Y-121347142D02*
X115931245Y-121466190D01*
X115931245Y-121466190D02*
X116050292Y-121585238D01*
X116050292Y-121585238D02*
X116109816Y-121704285D01*
X115871721Y-120513809D02*
X115812197Y-120454285D01*
X115812197Y-120454285D02*
X115752673Y-120335238D01*
X115752673Y-120335238D02*
X115752673Y-120037619D01*
X115752673Y-120037619D02*
X115812197Y-119918571D01*
X115812197Y-119918571D02*
X115871721Y-119859047D01*
X115871721Y-119859047D02*
X115990769Y-119799524D01*
X115990769Y-119799524D02*
X116109816Y-119799524D01*
X116109816Y-119799524D02*
X116288388Y-119859047D01*
X116288388Y-119859047D02*
X117002673Y-120573333D01*
X117002673Y-120573333D02*
X117002673Y-119799524D01*
X115752673Y-119442381D02*
X117002673Y-119025714D01*
X117002673Y-119025714D02*
X115752673Y-118609048D01*
X158586483Y-123747380D02*
X158586483Y-122795000D01*
X159062673Y-123271190D02*
X158110292Y-123271190D01*
X159062673Y-121545000D02*
X159062673Y-122259285D01*
X159062673Y-121902142D02*
X157812673Y-121902142D01*
X157812673Y-121902142D02*
X157991245Y-122021190D01*
X157991245Y-122021190D02*
X158110292Y-122140238D01*
X158110292Y-122140238D02*
X158169816Y-122259285D01*
X157931721Y-121068809D02*
X157872197Y-121009285D01*
X157872197Y-121009285D02*
X157812673Y-120890238D01*
X157812673Y-120890238D02*
X157812673Y-120592619D01*
X157812673Y-120592619D02*
X157872197Y-120473571D01*
X157872197Y-120473571D02*
X157931721Y-120414047D01*
X157931721Y-120414047D02*
X158050769Y-120354524D01*
X158050769Y-120354524D02*
X158169816Y-120354524D01*
X158169816Y-120354524D02*
X158348388Y-120414047D01*
X158348388Y-120414047D02*
X159062673Y-121128333D01*
X159062673Y-121128333D02*
X159062673Y-120354524D01*
X157812673Y-119997381D02*
X159062673Y-119580714D01*
X159062673Y-119580714D02*
X157812673Y-119164048D01*
X113986483Y-123152142D02*
X113986483Y-122199762D01*
X114462673Y-122675952D02*
X113510292Y-122675952D01*
X113212673Y-121009285D02*
X113212673Y-121604523D01*
X113212673Y-121604523D02*
X113807911Y-121664047D01*
X113807911Y-121664047D02*
X113748388Y-121604523D01*
X113748388Y-121604523D02*
X113688864Y-121485476D01*
X113688864Y-121485476D02*
X113688864Y-121187857D01*
X113688864Y-121187857D02*
X113748388Y-121068809D01*
X113748388Y-121068809D02*
X113807911Y-121009285D01*
X113807911Y-121009285D02*
X113926959Y-120949762D01*
X113926959Y-120949762D02*
X114224578Y-120949762D01*
X114224578Y-120949762D02*
X114343626Y-121009285D01*
X114343626Y-121009285D02*
X114403150Y-121068809D01*
X114403150Y-121068809D02*
X114462673Y-121187857D01*
X114462673Y-121187857D02*
X114462673Y-121485476D01*
X114462673Y-121485476D02*
X114403150Y-121604523D01*
X114403150Y-121604523D02*
X114343626Y-121664047D01*
X113212673Y-120592619D02*
X114462673Y-120175952D01*
X114462673Y-120175952D02*
X113212673Y-119759286D01*
X62726483Y-123192380D02*
X62726483Y-122240000D01*
X63202673Y-120990000D02*
X63202673Y-121704285D01*
X63202673Y-121347142D02*
X61952673Y-121347142D01*
X61952673Y-121347142D02*
X62131245Y-121466190D01*
X62131245Y-121466190D02*
X62250292Y-121585238D01*
X62250292Y-121585238D02*
X62309816Y-121704285D01*
X62071721Y-120513809D02*
X62012197Y-120454285D01*
X62012197Y-120454285D02*
X61952673Y-120335238D01*
X61952673Y-120335238D02*
X61952673Y-120037619D01*
X61952673Y-120037619D02*
X62012197Y-119918571D01*
X62012197Y-119918571D02*
X62071721Y-119859047D01*
X62071721Y-119859047D02*
X62190769Y-119799524D01*
X62190769Y-119799524D02*
X62309816Y-119799524D01*
X62309816Y-119799524D02*
X62488388Y-119859047D01*
X62488388Y-119859047D02*
X63202673Y-120573333D01*
X63202673Y-120573333D02*
X63202673Y-119799524D01*
X61952673Y-119442381D02*
X63202673Y-119025714D01*
X63202673Y-119025714D02*
X61952673Y-118609048D01*
X160412197Y-121862381D02*
X160352673Y-121981428D01*
X160352673Y-121981428D02*
X160352673Y-122160000D01*
X160352673Y-122160000D02*
X160412197Y-122338571D01*
X160412197Y-122338571D02*
X160531245Y-122457619D01*
X160531245Y-122457619D02*
X160650292Y-122517142D01*
X160650292Y-122517142D02*
X160888388Y-122576666D01*
X160888388Y-122576666D02*
X161066959Y-122576666D01*
X161066959Y-122576666D02*
X161305054Y-122517142D01*
X161305054Y-122517142D02*
X161424102Y-122457619D01*
X161424102Y-122457619D02*
X161543150Y-122338571D01*
X161543150Y-122338571D02*
X161602673Y-122160000D01*
X161602673Y-122160000D02*
X161602673Y-122040952D01*
X161602673Y-122040952D02*
X161543150Y-121862381D01*
X161543150Y-121862381D02*
X161483626Y-121802857D01*
X161483626Y-121802857D02*
X161066959Y-121802857D01*
X161066959Y-121802857D02*
X161066959Y-122040952D01*
X161602673Y-121267142D02*
X160352673Y-121267142D01*
X160352673Y-121267142D02*
X161602673Y-120552857D01*
X161602673Y-120552857D02*
X160352673Y-120552857D01*
X161602673Y-119957618D02*
X160352673Y-119957618D01*
X160352673Y-119957618D02*
X160352673Y-119659999D01*
X160352673Y-119659999D02*
X160412197Y-119481428D01*
X160412197Y-119481428D02*
X160531245Y-119362380D01*
X160531245Y-119362380D02*
X160650292Y-119302857D01*
X160650292Y-119302857D02*
X160888388Y-119243333D01*
X160888388Y-119243333D02*
X161066959Y-119243333D01*
X161066959Y-119243333D02*
X161305054Y-119302857D01*
X161305054Y-119302857D02*
X161424102Y-119362380D01*
X161424102Y-119362380D02*
X161543150Y-119481428D01*
X161543150Y-119481428D02*
X161602673Y-119659999D01*
X161602673Y-119659999D02*
X161602673Y-119957618D01*
D10*
X162310000Y-116465000D02*
X162310000Y-125355000D01*
X159135000Y-115830000D02*
X159770000Y-116465000D01*
X61370000Y-125355000D02*
X60735000Y-125990000D01*
X115170000Y-116465000D02*
X115805000Y-115830000D01*
X62005000Y-125990000D02*
X61370000Y-125355000D01*
X115805000Y-125990000D02*
X115170000Y-125355000D01*
X159135000Y-125990000D02*
X157865000Y-125990000D01*
D12*
X156475000Y-116490000D02*
X156475000Y-125290000D01*
X155775000Y-125990000D01*
X119075000Y-125990000D01*
X118375000Y-125290000D01*
X118375000Y-116490000D01*
X119075000Y-115790000D01*
X155775000Y-115790000D01*
X156475000Y-116490000D01*
G36*
X156475000Y-116490000D02*
G01*
X156475000Y-125290000D01*
X155775000Y-125990000D01*
X119075000Y-125990000D01*
X118375000Y-125290000D01*
X118375000Y-116490000D01*
X119075000Y-115790000D01*
X155775000Y-115790000D01*
X156475000Y-116490000D01*
G37*
D10*
X105970000Y-116465000D02*
X105970000Y-125355000D01*
X157865000Y-125990000D02*
X157230000Y-125355000D01*
X59465000Y-115830000D02*
X60735000Y-115830000D01*
X105335000Y-125990000D02*
X104065000Y-125990000D01*
X105970000Y-116465000D02*
X106605000Y-115830000D01*
X117710000Y-125355000D02*
X117075000Y-125990000D01*
X103430000Y-116465000D02*
X104065000Y-115830000D01*
X58830000Y-125355000D02*
X58830000Y-116465000D01*
D12*
X102675000Y-116490000D02*
X102675000Y-125290000D01*
X101975000Y-125990000D01*
X65275000Y-125990000D01*
X64575000Y-125290000D01*
X64575000Y-116490000D01*
X65275000Y-115790000D01*
X101975000Y-115790000D01*
X102675000Y-116490000D01*
G36*
X102675000Y-116490000D02*
G01*
X102675000Y-125290000D01*
X101975000Y-125990000D01*
X65275000Y-125990000D01*
X64575000Y-125290000D01*
X64575000Y-116490000D01*
X65275000Y-115790000D01*
X101975000Y-115790000D01*
X102675000Y-116490000D01*
G37*
D10*
X157230000Y-125355000D02*
X157230000Y-116465000D01*
X108510000Y-116465000D02*
X108510000Y-125355000D01*
X160405000Y-115830000D02*
X161675000Y-115830000D01*
X162310000Y-125355000D02*
X161675000Y-125990000D01*
X161675000Y-115830000D02*
X162310000Y-116465000D01*
X160405000Y-125990000D02*
X159770000Y-125355000D01*
X157865000Y-115830000D02*
X159135000Y-115830000D01*
X58830000Y-116465000D02*
X59465000Y-115830000D01*
X159770000Y-116465000D02*
X159770000Y-125355000D01*
X60735000Y-115830000D02*
X61370000Y-116465000D01*
X117075000Y-125990000D02*
X115805000Y-125990000D01*
X114535000Y-125990000D02*
X113265000Y-125990000D01*
X117710000Y-116465000D02*
X117710000Y-125355000D01*
X107875000Y-115830000D02*
X108510000Y-116465000D01*
X159770000Y-111555000D02*
X159135000Y-112190000D01*
X105970000Y-111555000D02*
X105335000Y-112190000D01*
X108510000Y-111555000D02*
X107875000Y-112190000D01*
X157230000Y-102665000D02*
X157865000Y-102030000D01*
X61370000Y-102665000D02*
X61370000Y-111555000D01*
X63910000Y-102665000D02*
X63910000Y-111555000D01*
X63275000Y-102030000D02*
X63910000Y-102665000D01*
X112630000Y-102665000D02*
X113265000Y-102030000D01*
X63910000Y-111555000D02*
X63275000Y-112190000D01*
X115170000Y-102665000D02*
X115170000Y-111555000D01*
X62005000Y-102030000D02*
X63275000Y-102030000D01*
X61370000Y-102665000D02*
X62005000Y-102030000D01*
X63275000Y-112190000D02*
X62005000Y-112190000D01*
X105335000Y-102030000D02*
X105970000Y-102665000D01*
X107875000Y-112190000D02*
X106605000Y-112190000D01*
X103430000Y-111555000D02*
X103430000Y-102665000D01*
X106605000Y-102030000D02*
X107875000Y-102030000D01*
X113265000Y-112190000D02*
X112630000Y-111555000D01*
X60735000Y-112190000D02*
X59465000Y-112190000D01*
X104065000Y-102030000D02*
X105335000Y-102030000D01*
X106605000Y-112190000D02*
X105970000Y-111555000D01*
X115805000Y-102030000D02*
X117075000Y-102030000D01*
X161675000Y-112190000D02*
X160405000Y-112190000D01*
X117075000Y-102030000D02*
X117710000Y-102665000D01*
X114535000Y-102030000D02*
X115170000Y-102665000D01*
X104065000Y-112190000D02*
X103430000Y-111555000D01*
X59465000Y-112190000D02*
X58830000Y-111555000D01*
X113265000Y-102030000D02*
X114535000Y-102030000D01*
X115170000Y-111555000D02*
X114535000Y-112190000D01*
X112630000Y-111555000D02*
X112630000Y-102665000D01*
X159770000Y-102665000D02*
X160405000Y-102030000D01*
D11*
X106612197Y-108062381D02*
X106552673Y-108181428D01*
X106552673Y-108181428D02*
X106552673Y-108360000D01*
X106552673Y-108360000D02*
X106612197Y-108538571D01*
X106612197Y-108538571D02*
X106731245Y-108657619D01*
X106731245Y-108657619D02*
X106850292Y-108717142D01*
X106850292Y-108717142D02*
X107088388Y-108776666D01*
X107088388Y-108776666D02*
X107266959Y-108776666D01*
X107266959Y-108776666D02*
X107505054Y-108717142D01*
X107505054Y-108717142D02*
X107624102Y-108657619D01*
X107624102Y-108657619D02*
X107743150Y-108538571D01*
X107743150Y-108538571D02*
X107802673Y-108360000D01*
X107802673Y-108360000D02*
X107802673Y-108240952D01*
X107802673Y-108240952D02*
X107743150Y-108062381D01*
X107743150Y-108062381D02*
X107683626Y-108002857D01*
X107683626Y-108002857D02*
X107266959Y-108002857D01*
X107266959Y-108002857D02*
X107266959Y-108240952D01*
X107802673Y-107467142D02*
X106552673Y-107467142D01*
X106552673Y-107467142D02*
X107802673Y-106752857D01*
X107802673Y-106752857D02*
X106552673Y-106752857D01*
X107802673Y-106157618D02*
X106552673Y-106157618D01*
X106552673Y-106157618D02*
X106552673Y-105859999D01*
X106552673Y-105859999D02*
X106612197Y-105681428D01*
X106612197Y-105681428D02*
X106731245Y-105562380D01*
X106731245Y-105562380D02*
X106850292Y-105502857D01*
X106850292Y-105502857D02*
X107088388Y-105443333D01*
X107088388Y-105443333D02*
X107266959Y-105443333D01*
X107266959Y-105443333D02*
X107505054Y-105502857D01*
X107505054Y-105502857D02*
X107624102Y-105562380D01*
X107624102Y-105562380D02*
X107743150Y-105681428D01*
X107743150Y-105681428D02*
X107802673Y-105859999D01*
X107802673Y-105859999D02*
X107802673Y-106157618D01*
X104786483Y-109947380D02*
X104786483Y-108995000D01*
X105262673Y-109471190D02*
X104310292Y-109471190D01*
X105262673Y-107745000D02*
X105262673Y-108459285D01*
X105262673Y-108102142D02*
X104012673Y-108102142D01*
X104012673Y-108102142D02*
X104191245Y-108221190D01*
X104191245Y-108221190D02*
X104310292Y-108340238D01*
X104310292Y-108340238D02*
X104369816Y-108459285D01*
X104131721Y-107268809D02*
X104072197Y-107209285D01*
X104072197Y-107209285D02*
X104012673Y-107090238D01*
X104012673Y-107090238D02*
X104012673Y-106792619D01*
X104012673Y-106792619D02*
X104072197Y-106673571D01*
X104072197Y-106673571D02*
X104131721Y-106614047D01*
X104131721Y-106614047D02*
X104250769Y-106554524D01*
X104250769Y-106554524D02*
X104369816Y-106554524D01*
X104369816Y-106554524D02*
X104548388Y-106614047D01*
X104548388Y-106614047D02*
X105262673Y-107328333D01*
X105262673Y-107328333D02*
X105262673Y-106554524D01*
X104012673Y-106197381D02*
X105262673Y-105780714D01*
X105262673Y-105780714D02*
X104012673Y-105364048D01*
X60186483Y-109352142D02*
X60186483Y-108399762D01*
X60662673Y-108875952D02*
X59710292Y-108875952D01*
X59412673Y-107209285D02*
X59412673Y-107804523D01*
X59412673Y-107804523D02*
X60007911Y-107864047D01*
X60007911Y-107864047D02*
X59948388Y-107804523D01*
X59948388Y-107804523D02*
X59888864Y-107685476D01*
X59888864Y-107685476D02*
X59888864Y-107387857D01*
X59888864Y-107387857D02*
X59948388Y-107268809D01*
X59948388Y-107268809D02*
X60007911Y-107209285D01*
X60007911Y-107209285D02*
X60126959Y-107149762D01*
X60126959Y-107149762D02*
X60424578Y-107149762D01*
X60424578Y-107149762D02*
X60543626Y-107209285D01*
X60543626Y-107209285D02*
X60603150Y-107268809D01*
X60603150Y-107268809D02*
X60662673Y-107387857D01*
X60662673Y-107387857D02*
X60662673Y-107685476D01*
X60662673Y-107685476D02*
X60603150Y-107804523D01*
X60603150Y-107804523D02*
X60543626Y-107864047D01*
X59412673Y-106792619D02*
X60662673Y-106375952D01*
X60662673Y-106375952D02*
X59412673Y-105959286D01*
X116526483Y-109392380D02*
X116526483Y-108440000D01*
X117002673Y-107190000D02*
X117002673Y-107904285D01*
X117002673Y-107547142D02*
X115752673Y-107547142D01*
X115752673Y-107547142D02*
X115931245Y-107666190D01*
X115931245Y-107666190D02*
X116050292Y-107785238D01*
X116050292Y-107785238D02*
X116109816Y-107904285D01*
X115871721Y-106713809D02*
X115812197Y-106654285D01*
X115812197Y-106654285D02*
X115752673Y-106535238D01*
X115752673Y-106535238D02*
X115752673Y-106237619D01*
X115752673Y-106237619D02*
X115812197Y-106118571D01*
X115812197Y-106118571D02*
X115871721Y-106059047D01*
X115871721Y-106059047D02*
X115990769Y-105999524D01*
X115990769Y-105999524D02*
X116109816Y-105999524D01*
X116109816Y-105999524D02*
X116288388Y-106059047D01*
X116288388Y-106059047D02*
X117002673Y-106773333D01*
X117002673Y-106773333D02*
X117002673Y-105999524D01*
X115752673Y-105642381D02*
X117002673Y-105225714D01*
X117002673Y-105225714D02*
X115752673Y-104809048D01*
X158586483Y-109947380D02*
X158586483Y-108995000D01*
X159062673Y-109471190D02*
X158110292Y-109471190D01*
X159062673Y-107745000D02*
X159062673Y-108459285D01*
X159062673Y-108102142D02*
X157812673Y-108102142D01*
X157812673Y-108102142D02*
X157991245Y-108221190D01*
X157991245Y-108221190D02*
X158110292Y-108340238D01*
X158110292Y-108340238D02*
X158169816Y-108459285D01*
X157931721Y-107268809D02*
X157872197Y-107209285D01*
X157872197Y-107209285D02*
X157812673Y-107090238D01*
X157812673Y-107090238D02*
X157812673Y-106792619D01*
X157812673Y-106792619D02*
X157872197Y-106673571D01*
X157872197Y-106673571D02*
X157931721Y-106614047D01*
X157931721Y-106614047D02*
X158050769Y-106554524D01*
X158050769Y-106554524D02*
X158169816Y-106554524D01*
X158169816Y-106554524D02*
X158348388Y-106614047D01*
X158348388Y-106614047D02*
X159062673Y-107328333D01*
X159062673Y-107328333D02*
X159062673Y-106554524D01*
X157812673Y-106197381D02*
X159062673Y-105780714D01*
X159062673Y-105780714D02*
X157812673Y-105364048D01*
X113986483Y-109352142D02*
X113986483Y-108399762D01*
X114462673Y-108875952D02*
X113510292Y-108875952D01*
X113212673Y-107209285D02*
X113212673Y-107804523D01*
X113212673Y-107804523D02*
X113807911Y-107864047D01*
X113807911Y-107864047D02*
X113748388Y-107804523D01*
X113748388Y-107804523D02*
X113688864Y-107685476D01*
X113688864Y-107685476D02*
X113688864Y-107387857D01*
X113688864Y-107387857D02*
X113748388Y-107268809D01*
X113748388Y-107268809D02*
X113807911Y-107209285D01*
X113807911Y-107209285D02*
X113926959Y-107149762D01*
X113926959Y-107149762D02*
X114224578Y-107149762D01*
X114224578Y-107149762D02*
X114343626Y-107209285D01*
X114343626Y-107209285D02*
X114403150Y-107268809D01*
X114403150Y-107268809D02*
X114462673Y-107387857D01*
X114462673Y-107387857D02*
X114462673Y-107685476D01*
X114462673Y-107685476D02*
X114403150Y-107804523D01*
X114403150Y-107804523D02*
X114343626Y-107864047D01*
X113212673Y-106792619D02*
X114462673Y-106375952D01*
X114462673Y-106375952D02*
X113212673Y-105959286D01*
X62726483Y-109392380D02*
X62726483Y-108440000D01*
X63202673Y-107190000D02*
X63202673Y-107904285D01*
X63202673Y-107547142D02*
X61952673Y-107547142D01*
X61952673Y-107547142D02*
X62131245Y-107666190D01*
X62131245Y-107666190D02*
X62250292Y-107785238D01*
X62250292Y-107785238D02*
X62309816Y-107904285D01*
X62071721Y-106713809D02*
X62012197Y-106654285D01*
X62012197Y-106654285D02*
X61952673Y-106535238D01*
X61952673Y-106535238D02*
X61952673Y-106237619D01*
X61952673Y-106237619D02*
X62012197Y-106118571D01*
X62012197Y-106118571D02*
X62071721Y-106059047D01*
X62071721Y-106059047D02*
X62190769Y-105999524D01*
X62190769Y-105999524D02*
X62309816Y-105999524D01*
X62309816Y-105999524D02*
X62488388Y-106059047D01*
X62488388Y-106059047D02*
X63202673Y-106773333D01*
X63202673Y-106773333D02*
X63202673Y-105999524D01*
X61952673Y-105642381D02*
X63202673Y-105225714D01*
X63202673Y-105225714D02*
X61952673Y-104809048D01*
X160412197Y-108062381D02*
X160352673Y-108181428D01*
X160352673Y-108181428D02*
X160352673Y-108360000D01*
X160352673Y-108360000D02*
X160412197Y-108538571D01*
X160412197Y-108538571D02*
X160531245Y-108657619D01*
X160531245Y-108657619D02*
X160650292Y-108717142D01*
X160650292Y-108717142D02*
X160888388Y-108776666D01*
X160888388Y-108776666D02*
X161066959Y-108776666D01*
X161066959Y-108776666D02*
X161305054Y-108717142D01*
X161305054Y-108717142D02*
X161424102Y-108657619D01*
X161424102Y-108657619D02*
X161543150Y-108538571D01*
X161543150Y-108538571D02*
X161602673Y-108360000D01*
X161602673Y-108360000D02*
X161602673Y-108240952D01*
X161602673Y-108240952D02*
X161543150Y-108062381D01*
X161543150Y-108062381D02*
X161483626Y-108002857D01*
X161483626Y-108002857D02*
X161066959Y-108002857D01*
X161066959Y-108002857D02*
X161066959Y-108240952D01*
X161602673Y-107467142D02*
X160352673Y-107467142D01*
X160352673Y-107467142D02*
X161602673Y-106752857D01*
X161602673Y-106752857D02*
X160352673Y-106752857D01*
X161602673Y-106157618D02*
X160352673Y-106157618D01*
X160352673Y-106157618D02*
X160352673Y-105859999D01*
X160352673Y-105859999D02*
X160412197Y-105681428D01*
X160412197Y-105681428D02*
X160531245Y-105562380D01*
X160531245Y-105562380D02*
X160650292Y-105502857D01*
X160650292Y-105502857D02*
X160888388Y-105443333D01*
X160888388Y-105443333D02*
X161066959Y-105443333D01*
X161066959Y-105443333D02*
X161305054Y-105502857D01*
X161305054Y-105502857D02*
X161424102Y-105562380D01*
X161424102Y-105562380D02*
X161543150Y-105681428D01*
X161543150Y-105681428D02*
X161602673Y-105859999D01*
X161602673Y-105859999D02*
X161602673Y-106157618D01*
D10*
X162310000Y-102665000D02*
X162310000Y-111555000D01*
X159135000Y-102030000D02*
X159770000Y-102665000D01*
X61370000Y-111555000D02*
X60735000Y-112190000D01*
X115170000Y-102665000D02*
X115805000Y-102030000D01*
X62005000Y-112190000D02*
X61370000Y-111555000D01*
X115805000Y-112190000D02*
X115170000Y-111555000D01*
X159135000Y-112190000D02*
X157865000Y-112190000D01*
D12*
X156475000Y-102690000D02*
X156475000Y-111490000D01*
X155775000Y-112190000D01*
X119075000Y-112190000D01*
X118375000Y-111490000D01*
X118375000Y-102690000D01*
X119075000Y-101990000D01*
X155775000Y-101990000D01*
X156475000Y-102690000D01*
G36*
X156475000Y-102690000D02*
G01*
X156475000Y-111490000D01*
X155775000Y-112190000D01*
X119075000Y-112190000D01*
X118375000Y-111490000D01*
X118375000Y-102690000D01*
X119075000Y-101990000D01*
X155775000Y-101990000D01*
X156475000Y-102690000D01*
G37*
D10*
X105970000Y-102665000D02*
X105970000Y-111555000D01*
X157865000Y-112190000D02*
X157230000Y-111555000D01*
X59465000Y-102030000D02*
X60735000Y-102030000D01*
X105335000Y-112190000D02*
X104065000Y-112190000D01*
X105970000Y-102665000D02*
X106605000Y-102030000D01*
X117710000Y-111555000D02*
X117075000Y-112190000D01*
X103430000Y-102665000D02*
X104065000Y-102030000D01*
X58830000Y-111555000D02*
X58830000Y-102665000D01*
D12*
X102675000Y-102690000D02*
X102675000Y-111490000D01*
X101975000Y-112190000D01*
X65275000Y-112190000D01*
X64575000Y-111490000D01*
X64575000Y-102690000D01*
X65275000Y-101990000D01*
X101975000Y-101990000D01*
X102675000Y-102690000D01*
G36*
X102675000Y-102690000D02*
G01*
X102675000Y-111490000D01*
X101975000Y-112190000D01*
X65275000Y-112190000D01*
X64575000Y-111490000D01*
X64575000Y-102690000D01*
X65275000Y-101990000D01*
X101975000Y-101990000D01*
X102675000Y-102690000D01*
G37*
D10*
X157230000Y-111555000D02*
X157230000Y-102665000D01*
X108510000Y-102665000D02*
X108510000Y-111555000D01*
X160405000Y-102030000D02*
X161675000Y-102030000D01*
X162310000Y-111555000D02*
X161675000Y-112190000D01*
X161675000Y-102030000D02*
X162310000Y-102665000D01*
X160405000Y-112190000D02*
X159770000Y-111555000D01*
X157865000Y-102030000D02*
X159135000Y-102030000D01*
X58830000Y-102665000D02*
X59465000Y-102030000D01*
X159770000Y-102665000D02*
X159770000Y-111555000D01*
X60735000Y-102030000D02*
X61370000Y-102665000D01*
X117075000Y-112190000D02*
X115805000Y-112190000D01*
X114535000Y-112190000D02*
X113265000Y-112190000D01*
X117710000Y-102665000D02*
X117710000Y-111555000D01*
X107875000Y-102030000D02*
X108510000Y-102665000D01*
X159770000Y-97755000D02*
X159135000Y-98390000D01*
X105970000Y-97755000D02*
X105335000Y-98390000D01*
X108510000Y-97755000D02*
X107875000Y-98390000D01*
X157230000Y-88865000D02*
X157865000Y-88230000D01*
X61370000Y-88865000D02*
X61370000Y-97755000D01*
X63910000Y-88865000D02*
X63910000Y-97755000D01*
X63275000Y-88230000D02*
X63910000Y-88865000D01*
X112630000Y-88865000D02*
X113265000Y-88230000D01*
X63910000Y-97755000D02*
X63275000Y-98390000D01*
X115170000Y-88865000D02*
X115170000Y-97755000D01*
X62005000Y-88230000D02*
X63275000Y-88230000D01*
X61370000Y-88865000D02*
X62005000Y-88230000D01*
X63275000Y-98390000D02*
X62005000Y-98390000D01*
X105335000Y-88230000D02*
X105970000Y-88865000D01*
X107875000Y-98390000D02*
X106605000Y-98390000D01*
X103430000Y-97755000D02*
X103430000Y-88865000D01*
X106605000Y-88230000D02*
X107875000Y-88230000D01*
X113265000Y-98390000D02*
X112630000Y-97755000D01*
X60735000Y-98390000D02*
X59465000Y-98390000D01*
X104065000Y-88230000D02*
X105335000Y-88230000D01*
X106605000Y-98390000D02*
X105970000Y-97755000D01*
X115805000Y-88230000D02*
X117075000Y-88230000D01*
X161675000Y-98390000D02*
X160405000Y-98390000D01*
X117075000Y-88230000D02*
X117710000Y-88865000D01*
X114535000Y-88230000D02*
X115170000Y-88865000D01*
X104065000Y-98390000D02*
X103430000Y-97755000D01*
X59465000Y-98390000D02*
X58830000Y-97755000D01*
X113265000Y-88230000D02*
X114535000Y-88230000D01*
X115170000Y-97755000D02*
X114535000Y-98390000D01*
X112630000Y-97755000D02*
X112630000Y-88865000D01*
X159770000Y-88865000D02*
X160405000Y-88230000D01*
D11*
X106612197Y-94262381D02*
X106552673Y-94381428D01*
X106552673Y-94381428D02*
X106552673Y-94560000D01*
X106552673Y-94560000D02*
X106612197Y-94738571D01*
X106612197Y-94738571D02*
X106731245Y-94857619D01*
X106731245Y-94857619D02*
X106850292Y-94917142D01*
X106850292Y-94917142D02*
X107088388Y-94976666D01*
X107088388Y-94976666D02*
X107266959Y-94976666D01*
X107266959Y-94976666D02*
X107505054Y-94917142D01*
X107505054Y-94917142D02*
X107624102Y-94857619D01*
X107624102Y-94857619D02*
X107743150Y-94738571D01*
X107743150Y-94738571D02*
X107802673Y-94560000D01*
X107802673Y-94560000D02*
X107802673Y-94440952D01*
X107802673Y-94440952D02*
X107743150Y-94262381D01*
X107743150Y-94262381D02*
X107683626Y-94202857D01*
X107683626Y-94202857D02*
X107266959Y-94202857D01*
X107266959Y-94202857D02*
X107266959Y-94440952D01*
X107802673Y-93667142D02*
X106552673Y-93667142D01*
X106552673Y-93667142D02*
X107802673Y-92952857D01*
X107802673Y-92952857D02*
X106552673Y-92952857D01*
X107802673Y-92357618D02*
X106552673Y-92357618D01*
X106552673Y-92357618D02*
X106552673Y-92059999D01*
X106552673Y-92059999D02*
X106612197Y-91881428D01*
X106612197Y-91881428D02*
X106731245Y-91762380D01*
X106731245Y-91762380D02*
X106850292Y-91702857D01*
X106850292Y-91702857D02*
X107088388Y-91643333D01*
X107088388Y-91643333D02*
X107266959Y-91643333D01*
X107266959Y-91643333D02*
X107505054Y-91702857D01*
X107505054Y-91702857D02*
X107624102Y-91762380D01*
X107624102Y-91762380D02*
X107743150Y-91881428D01*
X107743150Y-91881428D02*
X107802673Y-92059999D01*
X107802673Y-92059999D02*
X107802673Y-92357618D01*
X104786483Y-96147380D02*
X104786483Y-95195000D01*
X105262673Y-95671190D02*
X104310292Y-95671190D01*
X105262673Y-93945000D02*
X105262673Y-94659285D01*
X105262673Y-94302142D02*
X104012673Y-94302142D01*
X104012673Y-94302142D02*
X104191245Y-94421190D01*
X104191245Y-94421190D02*
X104310292Y-94540238D01*
X104310292Y-94540238D02*
X104369816Y-94659285D01*
X104131721Y-93468809D02*
X104072197Y-93409285D01*
X104072197Y-93409285D02*
X104012673Y-93290238D01*
X104012673Y-93290238D02*
X104012673Y-92992619D01*
X104012673Y-92992619D02*
X104072197Y-92873571D01*
X104072197Y-92873571D02*
X104131721Y-92814047D01*
X104131721Y-92814047D02*
X104250769Y-92754524D01*
X104250769Y-92754524D02*
X104369816Y-92754524D01*
X104369816Y-92754524D02*
X104548388Y-92814047D01*
X104548388Y-92814047D02*
X105262673Y-93528333D01*
X105262673Y-93528333D02*
X105262673Y-92754524D01*
X104012673Y-92397381D02*
X105262673Y-91980714D01*
X105262673Y-91980714D02*
X104012673Y-91564048D01*
X60186483Y-95552142D02*
X60186483Y-94599762D01*
X60662673Y-95075952D02*
X59710292Y-95075952D01*
X59412673Y-93409285D02*
X59412673Y-94004523D01*
X59412673Y-94004523D02*
X60007911Y-94064047D01*
X60007911Y-94064047D02*
X59948388Y-94004523D01*
X59948388Y-94004523D02*
X59888864Y-93885476D01*
X59888864Y-93885476D02*
X59888864Y-93587857D01*
X59888864Y-93587857D02*
X59948388Y-93468809D01*
X59948388Y-93468809D02*
X60007911Y-93409285D01*
X60007911Y-93409285D02*
X60126959Y-93349762D01*
X60126959Y-93349762D02*
X60424578Y-93349762D01*
X60424578Y-93349762D02*
X60543626Y-93409285D01*
X60543626Y-93409285D02*
X60603150Y-93468809D01*
X60603150Y-93468809D02*
X60662673Y-93587857D01*
X60662673Y-93587857D02*
X60662673Y-93885476D01*
X60662673Y-93885476D02*
X60603150Y-94004523D01*
X60603150Y-94004523D02*
X60543626Y-94064047D01*
X59412673Y-92992619D02*
X60662673Y-92575952D01*
X60662673Y-92575952D02*
X59412673Y-92159286D01*
X116526483Y-95592380D02*
X116526483Y-94640000D01*
X117002673Y-93390000D02*
X117002673Y-94104285D01*
X117002673Y-93747142D02*
X115752673Y-93747142D01*
X115752673Y-93747142D02*
X115931245Y-93866190D01*
X115931245Y-93866190D02*
X116050292Y-93985238D01*
X116050292Y-93985238D02*
X116109816Y-94104285D01*
X115871721Y-92913809D02*
X115812197Y-92854285D01*
X115812197Y-92854285D02*
X115752673Y-92735238D01*
X115752673Y-92735238D02*
X115752673Y-92437619D01*
X115752673Y-92437619D02*
X115812197Y-92318571D01*
X115812197Y-92318571D02*
X115871721Y-92259047D01*
X115871721Y-92259047D02*
X115990769Y-92199524D01*
X115990769Y-92199524D02*
X116109816Y-92199524D01*
X116109816Y-92199524D02*
X116288388Y-92259047D01*
X116288388Y-92259047D02*
X117002673Y-92973333D01*
X117002673Y-92973333D02*
X117002673Y-92199524D01*
X115752673Y-91842381D02*
X117002673Y-91425714D01*
X117002673Y-91425714D02*
X115752673Y-91009048D01*
X158586483Y-96147380D02*
X158586483Y-95195000D01*
X159062673Y-95671190D02*
X158110292Y-95671190D01*
X159062673Y-93945000D02*
X159062673Y-94659285D01*
X159062673Y-94302142D02*
X157812673Y-94302142D01*
X157812673Y-94302142D02*
X157991245Y-94421190D01*
X157991245Y-94421190D02*
X158110292Y-94540238D01*
X158110292Y-94540238D02*
X158169816Y-94659285D01*
X157931721Y-93468809D02*
X157872197Y-93409285D01*
X157872197Y-93409285D02*
X157812673Y-93290238D01*
X157812673Y-93290238D02*
X157812673Y-92992619D01*
X157812673Y-92992619D02*
X157872197Y-92873571D01*
X157872197Y-92873571D02*
X157931721Y-92814047D01*
X157931721Y-92814047D02*
X158050769Y-92754524D01*
X158050769Y-92754524D02*
X158169816Y-92754524D01*
X158169816Y-92754524D02*
X158348388Y-92814047D01*
X158348388Y-92814047D02*
X159062673Y-93528333D01*
X159062673Y-93528333D02*
X159062673Y-92754524D01*
X157812673Y-92397381D02*
X159062673Y-91980714D01*
X159062673Y-91980714D02*
X157812673Y-91564048D01*
X113986483Y-95552142D02*
X113986483Y-94599762D01*
X114462673Y-95075952D02*
X113510292Y-95075952D01*
X113212673Y-93409285D02*
X113212673Y-94004523D01*
X113212673Y-94004523D02*
X113807911Y-94064047D01*
X113807911Y-94064047D02*
X113748388Y-94004523D01*
X113748388Y-94004523D02*
X113688864Y-93885476D01*
X113688864Y-93885476D02*
X113688864Y-93587857D01*
X113688864Y-93587857D02*
X113748388Y-93468809D01*
X113748388Y-93468809D02*
X113807911Y-93409285D01*
X113807911Y-93409285D02*
X113926959Y-93349762D01*
X113926959Y-93349762D02*
X114224578Y-93349762D01*
X114224578Y-93349762D02*
X114343626Y-93409285D01*
X114343626Y-93409285D02*
X114403150Y-93468809D01*
X114403150Y-93468809D02*
X114462673Y-93587857D01*
X114462673Y-93587857D02*
X114462673Y-93885476D01*
X114462673Y-93885476D02*
X114403150Y-94004523D01*
X114403150Y-94004523D02*
X114343626Y-94064047D01*
X113212673Y-92992619D02*
X114462673Y-92575952D01*
X114462673Y-92575952D02*
X113212673Y-92159286D01*
X62726483Y-95592380D02*
X62726483Y-94640000D01*
X63202673Y-93390000D02*
X63202673Y-94104285D01*
X63202673Y-93747142D02*
X61952673Y-93747142D01*
X61952673Y-93747142D02*
X62131245Y-93866190D01*
X62131245Y-93866190D02*
X62250292Y-93985238D01*
X62250292Y-93985238D02*
X62309816Y-94104285D01*
X62071721Y-92913809D02*
X62012197Y-92854285D01*
X62012197Y-92854285D02*
X61952673Y-92735238D01*
X61952673Y-92735238D02*
X61952673Y-92437619D01*
X61952673Y-92437619D02*
X62012197Y-92318571D01*
X62012197Y-92318571D02*
X62071721Y-92259047D01*
X62071721Y-92259047D02*
X62190769Y-92199524D01*
X62190769Y-92199524D02*
X62309816Y-92199524D01*
X62309816Y-92199524D02*
X62488388Y-92259047D01*
X62488388Y-92259047D02*
X63202673Y-92973333D01*
X63202673Y-92973333D02*
X63202673Y-92199524D01*
X61952673Y-91842381D02*
X63202673Y-91425714D01*
X63202673Y-91425714D02*
X61952673Y-91009048D01*
X160412197Y-94262381D02*
X160352673Y-94381428D01*
X160352673Y-94381428D02*
X160352673Y-94560000D01*
X160352673Y-94560000D02*
X160412197Y-94738571D01*
X160412197Y-94738571D02*
X160531245Y-94857619D01*
X160531245Y-94857619D02*
X160650292Y-94917142D01*
X160650292Y-94917142D02*
X160888388Y-94976666D01*
X160888388Y-94976666D02*
X161066959Y-94976666D01*
X161066959Y-94976666D02*
X161305054Y-94917142D01*
X161305054Y-94917142D02*
X161424102Y-94857619D01*
X161424102Y-94857619D02*
X161543150Y-94738571D01*
X161543150Y-94738571D02*
X161602673Y-94560000D01*
X161602673Y-94560000D02*
X161602673Y-94440952D01*
X161602673Y-94440952D02*
X161543150Y-94262381D01*
X161543150Y-94262381D02*
X161483626Y-94202857D01*
X161483626Y-94202857D02*
X161066959Y-94202857D01*
X161066959Y-94202857D02*
X161066959Y-94440952D01*
X161602673Y-93667142D02*
X160352673Y-93667142D01*
X160352673Y-93667142D02*
X161602673Y-92952857D01*
X161602673Y-92952857D02*
X160352673Y-92952857D01*
X161602673Y-92357618D02*
X160352673Y-92357618D01*
X160352673Y-92357618D02*
X160352673Y-92059999D01*
X160352673Y-92059999D02*
X160412197Y-91881428D01*
X160412197Y-91881428D02*
X160531245Y-91762380D01*
X160531245Y-91762380D02*
X160650292Y-91702857D01*
X160650292Y-91702857D02*
X160888388Y-91643333D01*
X160888388Y-91643333D02*
X161066959Y-91643333D01*
X161066959Y-91643333D02*
X161305054Y-91702857D01*
X161305054Y-91702857D02*
X161424102Y-91762380D01*
X161424102Y-91762380D02*
X161543150Y-91881428D01*
X161543150Y-91881428D02*
X161602673Y-92059999D01*
X161602673Y-92059999D02*
X161602673Y-92357618D01*
D10*
X162310000Y-88865000D02*
X162310000Y-97755000D01*
X159135000Y-88230000D02*
X159770000Y-88865000D01*
X61370000Y-97755000D02*
X60735000Y-98390000D01*
X115170000Y-88865000D02*
X115805000Y-88230000D01*
X62005000Y-98390000D02*
X61370000Y-97755000D01*
X115805000Y-98390000D02*
X115170000Y-97755000D01*
X159135000Y-98390000D02*
X157865000Y-98390000D01*
D12*
X156475000Y-88890000D02*
X156475000Y-97690000D01*
X155775000Y-98390000D01*
X119075000Y-98390000D01*
X118375000Y-97690000D01*
X118375000Y-88890000D01*
X119075000Y-88190000D01*
X155775000Y-88190000D01*
X156475000Y-88890000D01*
G36*
X156475000Y-88890000D02*
G01*
X156475000Y-97690000D01*
X155775000Y-98390000D01*
X119075000Y-98390000D01*
X118375000Y-97690000D01*
X118375000Y-88890000D01*
X119075000Y-88190000D01*
X155775000Y-88190000D01*
X156475000Y-88890000D01*
G37*
D10*
X105970000Y-88865000D02*
X105970000Y-97755000D01*
X157865000Y-98390000D02*
X157230000Y-97755000D01*
X59465000Y-88230000D02*
X60735000Y-88230000D01*
X105335000Y-98390000D02*
X104065000Y-98390000D01*
X105970000Y-88865000D02*
X106605000Y-88230000D01*
X117710000Y-97755000D02*
X117075000Y-98390000D01*
X103430000Y-88865000D02*
X104065000Y-88230000D01*
X58830000Y-97755000D02*
X58830000Y-88865000D01*
D12*
X102675000Y-88890000D02*
X102675000Y-97690000D01*
X101975000Y-98390000D01*
X65275000Y-98390000D01*
X64575000Y-97690000D01*
X64575000Y-88890000D01*
X65275000Y-88190000D01*
X101975000Y-88190000D01*
X102675000Y-88890000D01*
G36*
X102675000Y-88890000D02*
G01*
X102675000Y-97690000D01*
X101975000Y-98390000D01*
X65275000Y-98390000D01*
X64575000Y-97690000D01*
X64575000Y-88890000D01*
X65275000Y-88190000D01*
X101975000Y-88190000D01*
X102675000Y-88890000D01*
G37*
D10*
X157230000Y-97755000D02*
X157230000Y-88865000D01*
X108510000Y-88865000D02*
X108510000Y-97755000D01*
X160405000Y-88230000D02*
X161675000Y-88230000D01*
X162310000Y-97755000D02*
X161675000Y-98390000D01*
X161675000Y-88230000D02*
X162310000Y-88865000D01*
X160405000Y-98390000D02*
X159770000Y-97755000D01*
X157865000Y-88230000D02*
X159135000Y-88230000D01*
X58830000Y-88865000D02*
X59465000Y-88230000D01*
X159770000Y-88865000D02*
X159770000Y-97755000D01*
X60735000Y-88230000D02*
X61370000Y-88865000D01*
X117075000Y-98390000D02*
X115805000Y-98390000D01*
X114535000Y-98390000D02*
X113265000Y-98390000D01*
X117710000Y-88865000D02*
X117710000Y-97755000D01*
X107875000Y-88230000D02*
X108510000Y-88865000D01*
X159770000Y-194355000D02*
X159135000Y-194990000D01*
X105970000Y-194355000D02*
X105335000Y-194990000D01*
X108510000Y-194355000D02*
X107875000Y-194990000D01*
X157230000Y-185465000D02*
X157865000Y-184830000D01*
X61370000Y-185465000D02*
X61370000Y-194355000D01*
X63910000Y-185465000D02*
X63910000Y-194355000D01*
X63275000Y-184830000D02*
X63910000Y-185465000D01*
X112630000Y-185465000D02*
X113265000Y-184830000D01*
X63910000Y-194355000D02*
X63275000Y-194990000D01*
X115170000Y-185465000D02*
X115170000Y-194355000D01*
X62005000Y-184830000D02*
X63275000Y-184830000D01*
X61370000Y-185465000D02*
X62005000Y-184830000D01*
X63275000Y-194990000D02*
X62005000Y-194990000D01*
X105335000Y-184830000D02*
X105970000Y-185465000D01*
X107875000Y-194990000D02*
X106605000Y-194990000D01*
X103430000Y-194355000D02*
X103430000Y-185465000D01*
X106605000Y-184830000D02*
X107875000Y-184830000D01*
X113265000Y-194990000D02*
X112630000Y-194355000D01*
X60735000Y-194990000D02*
X59465000Y-194990000D01*
X104065000Y-184830000D02*
X105335000Y-184830000D01*
X106605000Y-194990000D02*
X105970000Y-194355000D01*
X115805000Y-184830000D02*
X117075000Y-184830000D01*
X161675000Y-194990000D02*
X160405000Y-194990000D01*
X117075000Y-184830000D02*
X117710000Y-185465000D01*
X114535000Y-184830000D02*
X115170000Y-185465000D01*
X104065000Y-194990000D02*
X103430000Y-194355000D01*
X59465000Y-194990000D02*
X58830000Y-194355000D01*
X113265000Y-184830000D02*
X114535000Y-184830000D01*
X115170000Y-194355000D02*
X114535000Y-194990000D01*
X112630000Y-194355000D02*
X112630000Y-185465000D01*
X159770000Y-185465000D02*
X160405000Y-184830000D01*
D11*
X106612197Y-190862381D02*
X106552673Y-190981428D01*
X106552673Y-190981428D02*
X106552673Y-191160000D01*
X106552673Y-191160000D02*
X106612197Y-191338571D01*
X106612197Y-191338571D02*
X106731245Y-191457619D01*
X106731245Y-191457619D02*
X106850292Y-191517142D01*
X106850292Y-191517142D02*
X107088388Y-191576666D01*
X107088388Y-191576666D02*
X107266959Y-191576666D01*
X107266959Y-191576666D02*
X107505054Y-191517142D01*
X107505054Y-191517142D02*
X107624102Y-191457619D01*
X107624102Y-191457619D02*
X107743150Y-191338571D01*
X107743150Y-191338571D02*
X107802673Y-191160000D01*
X107802673Y-191160000D02*
X107802673Y-191040952D01*
X107802673Y-191040952D02*
X107743150Y-190862381D01*
X107743150Y-190862381D02*
X107683626Y-190802857D01*
X107683626Y-190802857D02*
X107266959Y-190802857D01*
X107266959Y-190802857D02*
X107266959Y-191040952D01*
X107802673Y-190267142D02*
X106552673Y-190267142D01*
X106552673Y-190267142D02*
X107802673Y-189552857D01*
X107802673Y-189552857D02*
X106552673Y-189552857D01*
X107802673Y-188957618D02*
X106552673Y-188957618D01*
X106552673Y-188957618D02*
X106552673Y-188659999D01*
X106552673Y-188659999D02*
X106612197Y-188481428D01*
X106612197Y-188481428D02*
X106731245Y-188362380D01*
X106731245Y-188362380D02*
X106850292Y-188302857D01*
X106850292Y-188302857D02*
X107088388Y-188243333D01*
X107088388Y-188243333D02*
X107266959Y-188243333D01*
X107266959Y-188243333D02*
X107505054Y-188302857D01*
X107505054Y-188302857D02*
X107624102Y-188362380D01*
X107624102Y-188362380D02*
X107743150Y-188481428D01*
X107743150Y-188481428D02*
X107802673Y-188659999D01*
X107802673Y-188659999D02*
X107802673Y-188957618D01*
X104786483Y-192747380D02*
X104786483Y-191795000D01*
X105262673Y-192271190D02*
X104310292Y-192271190D01*
X105262673Y-190545000D02*
X105262673Y-191259285D01*
X105262673Y-190902142D02*
X104012673Y-190902142D01*
X104012673Y-190902142D02*
X104191245Y-191021190D01*
X104191245Y-191021190D02*
X104310292Y-191140238D01*
X104310292Y-191140238D02*
X104369816Y-191259285D01*
X104131721Y-190068809D02*
X104072197Y-190009285D01*
X104072197Y-190009285D02*
X104012673Y-189890238D01*
X104012673Y-189890238D02*
X104012673Y-189592619D01*
X104012673Y-189592619D02*
X104072197Y-189473571D01*
X104072197Y-189473571D02*
X104131721Y-189414047D01*
X104131721Y-189414047D02*
X104250769Y-189354524D01*
X104250769Y-189354524D02*
X104369816Y-189354524D01*
X104369816Y-189354524D02*
X104548388Y-189414047D01*
X104548388Y-189414047D02*
X105262673Y-190128333D01*
X105262673Y-190128333D02*
X105262673Y-189354524D01*
X104012673Y-188997381D02*
X105262673Y-188580714D01*
X105262673Y-188580714D02*
X104012673Y-188164048D01*
X60186483Y-192152142D02*
X60186483Y-191199762D01*
X60662673Y-191675952D02*
X59710292Y-191675952D01*
X59412673Y-190009285D02*
X59412673Y-190604523D01*
X59412673Y-190604523D02*
X60007911Y-190664047D01*
X60007911Y-190664047D02*
X59948388Y-190604523D01*
X59948388Y-190604523D02*
X59888864Y-190485476D01*
X59888864Y-190485476D02*
X59888864Y-190187857D01*
X59888864Y-190187857D02*
X59948388Y-190068809D01*
X59948388Y-190068809D02*
X60007911Y-190009285D01*
X60007911Y-190009285D02*
X60126959Y-189949762D01*
X60126959Y-189949762D02*
X60424578Y-189949762D01*
X60424578Y-189949762D02*
X60543626Y-190009285D01*
X60543626Y-190009285D02*
X60603150Y-190068809D01*
X60603150Y-190068809D02*
X60662673Y-190187857D01*
X60662673Y-190187857D02*
X60662673Y-190485476D01*
X60662673Y-190485476D02*
X60603150Y-190604523D01*
X60603150Y-190604523D02*
X60543626Y-190664047D01*
X59412673Y-189592619D02*
X60662673Y-189175952D01*
X60662673Y-189175952D02*
X59412673Y-188759286D01*
X116526483Y-192192380D02*
X116526483Y-191240000D01*
X117002673Y-189990000D02*
X117002673Y-190704285D01*
X117002673Y-190347142D02*
X115752673Y-190347142D01*
X115752673Y-190347142D02*
X115931245Y-190466190D01*
X115931245Y-190466190D02*
X116050292Y-190585238D01*
X116050292Y-190585238D02*
X116109816Y-190704285D01*
X115871721Y-189513809D02*
X115812197Y-189454285D01*
X115812197Y-189454285D02*
X115752673Y-189335238D01*
X115752673Y-189335238D02*
X115752673Y-189037619D01*
X115752673Y-189037619D02*
X115812197Y-188918571D01*
X115812197Y-188918571D02*
X115871721Y-188859047D01*
X115871721Y-188859047D02*
X115990769Y-188799524D01*
X115990769Y-188799524D02*
X116109816Y-188799524D01*
X116109816Y-188799524D02*
X116288388Y-188859047D01*
X116288388Y-188859047D02*
X117002673Y-189573333D01*
X117002673Y-189573333D02*
X117002673Y-188799524D01*
X115752673Y-188442381D02*
X117002673Y-188025714D01*
X117002673Y-188025714D02*
X115752673Y-187609048D01*
X158586483Y-192747380D02*
X158586483Y-191795000D01*
X159062673Y-192271190D02*
X158110292Y-192271190D01*
X159062673Y-190545000D02*
X159062673Y-191259285D01*
X159062673Y-190902142D02*
X157812673Y-190902142D01*
X157812673Y-190902142D02*
X157991245Y-191021190D01*
X157991245Y-191021190D02*
X158110292Y-191140238D01*
X158110292Y-191140238D02*
X158169816Y-191259285D01*
X157931721Y-190068809D02*
X157872197Y-190009285D01*
X157872197Y-190009285D02*
X157812673Y-189890238D01*
X157812673Y-189890238D02*
X157812673Y-189592619D01*
X157812673Y-189592619D02*
X157872197Y-189473571D01*
X157872197Y-189473571D02*
X157931721Y-189414047D01*
X157931721Y-189414047D02*
X158050769Y-189354524D01*
X158050769Y-189354524D02*
X158169816Y-189354524D01*
X158169816Y-189354524D02*
X158348388Y-189414047D01*
X158348388Y-189414047D02*
X159062673Y-190128333D01*
X159062673Y-190128333D02*
X159062673Y-189354524D01*
X157812673Y-188997381D02*
X159062673Y-188580714D01*
X159062673Y-188580714D02*
X157812673Y-188164048D01*
X113986483Y-192152142D02*
X113986483Y-191199762D01*
X114462673Y-191675952D02*
X113510292Y-191675952D01*
X113212673Y-190009285D02*
X113212673Y-190604523D01*
X113212673Y-190604523D02*
X113807911Y-190664047D01*
X113807911Y-190664047D02*
X113748388Y-190604523D01*
X113748388Y-190604523D02*
X113688864Y-190485476D01*
X113688864Y-190485476D02*
X113688864Y-190187857D01*
X113688864Y-190187857D02*
X113748388Y-190068809D01*
X113748388Y-190068809D02*
X113807911Y-190009285D01*
X113807911Y-190009285D02*
X113926959Y-189949762D01*
X113926959Y-189949762D02*
X114224578Y-189949762D01*
X114224578Y-189949762D02*
X114343626Y-190009285D01*
X114343626Y-190009285D02*
X114403150Y-190068809D01*
X114403150Y-190068809D02*
X114462673Y-190187857D01*
X114462673Y-190187857D02*
X114462673Y-190485476D01*
X114462673Y-190485476D02*
X114403150Y-190604523D01*
X114403150Y-190604523D02*
X114343626Y-190664047D01*
X113212673Y-189592619D02*
X114462673Y-189175952D01*
X114462673Y-189175952D02*
X113212673Y-188759286D01*
X62726483Y-192192380D02*
X62726483Y-191240000D01*
X63202673Y-189990000D02*
X63202673Y-190704285D01*
X63202673Y-190347142D02*
X61952673Y-190347142D01*
X61952673Y-190347142D02*
X62131245Y-190466190D01*
X62131245Y-190466190D02*
X62250292Y-190585238D01*
X62250292Y-190585238D02*
X62309816Y-190704285D01*
X62071721Y-189513809D02*
X62012197Y-189454285D01*
X62012197Y-189454285D02*
X61952673Y-189335238D01*
X61952673Y-189335238D02*
X61952673Y-189037619D01*
X61952673Y-189037619D02*
X62012197Y-188918571D01*
X62012197Y-188918571D02*
X62071721Y-188859047D01*
X62071721Y-188859047D02*
X62190769Y-188799524D01*
X62190769Y-188799524D02*
X62309816Y-188799524D01*
X62309816Y-188799524D02*
X62488388Y-188859047D01*
X62488388Y-188859047D02*
X63202673Y-189573333D01*
X63202673Y-189573333D02*
X63202673Y-188799524D01*
X61952673Y-188442381D02*
X63202673Y-188025714D01*
X63202673Y-188025714D02*
X61952673Y-187609048D01*
X160412197Y-190862381D02*
X160352673Y-190981428D01*
X160352673Y-190981428D02*
X160352673Y-191160000D01*
X160352673Y-191160000D02*
X160412197Y-191338571D01*
X160412197Y-191338571D02*
X160531245Y-191457619D01*
X160531245Y-191457619D02*
X160650292Y-191517142D01*
X160650292Y-191517142D02*
X160888388Y-191576666D01*
X160888388Y-191576666D02*
X161066959Y-191576666D01*
X161066959Y-191576666D02*
X161305054Y-191517142D01*
X161305054Y-191517142D02*
X161424102Y-191457619D01*
X161424102Y-191457619D02*
X161543150Y-191338571D01*
X161543150Y-191338571D02*
X161602673Y-191160000D01*
X161602673Y-191160000D02*
X161602673Y-191040952D01*
X161602673Y-191040952D02*
X161543150Y-190862381D01*
X161543150Y-190862381D02*
X161483626Y-190802857D01*
X161483626Y-190802857D02*
X161066959Y-190802857D01*
X161066959Y-190802857D02*
X161066959Y-191040952D01*
X161602673Y-190267142D02*
X160352673Y-190267142D01*
X160352673Y-190267142D02*
X161602673Y-189552857D01*
X161602673Y-189552857D02*
X160352673Y-189552857D01*
X161602673Y-188957618D02*
X160352673Y-188957618D01*
X160352673Y-188957618D02*
X160352673Y-188659999D01*
X160352673Y-188659999D02*
X160412197Y-188481428D01*
X160412197Y-188481428D02*
X160531245Y-188362380D01*
X160531245Y-188362380D02*
X160650292Y-188302857D01*
X160650292Y-188302857D02*
X160888388Y-188243333D01*
X160888388Y-188243333D02*
X161066959Y-188243333D01*
X161066959Y-188243333D02*
X161305054Y-188302857D01*
X161305054Y-188302857D02*
X161424102Y-188362380D01*
X161424102Y-188362380D02*
X161543150Y-188481428D01*
X161543150Y-188481428D02*
X161602673Y-188659999D01*
X161602673Y-188659999D02*
X161602673Y-188957618D01*
D10*
X162310000Y-185465000D02*
X162310000Y-194355000D01*
X159135000Y-184830000D02*
X159770000Y-185465000D01*
X61370000Y-194355000D02*
X60735000Y-194990000D01*
X115170000Y-185465000D02*
X115805000Y-184830000D01*
X62005000Y-194990000D02*
X61370000Y-194355000D01*
X115805000Y-194990000D02*
X115170000Y-194355000D01*
X159135000Y-194990000D02*
X157865000Y-194990000D01*
D12*
X156475000Y-185490000D02*
X156475000Y-194290000D01*
X155775000Y-194990000D01*
X119075000Y-194990000D01*
X118375000Y-194290000D01*
X118375000Y-185490000D01*
X119075000Y-184790000D01*
X155775000Y-184790000D01*
X156475000Y-185490000D01*
G36*
X156475000Y-185490000D02*
G01*
X156475000Y-194290000D01*
X155775000Y-194990000D01*
X119075000Y-194990000D01*
X118375000Y-194290000D01*
X118375000Y-185490000D01*
X119075000Y-184790000D01*
X155775000Y-184790000D01*
X156475000Y-185490000D01*
G37*
D10*
X105970000Y-185465000D02*
X105970000Y-194355000D01*
X157865000Y-194990000D02*
X157230000Y-194355000D01*
X59465000Y-184830000D02*
X60735000Y-184830000D01*
X105335000Y-194990000D02*
X104065000Y-194990000D01*
X105970000Y-185465000D02*
X106605000Y-184830000D01*
X117710000Y-194355000D02*
X117075000Y-194990000D01*
X103430000Y-185465000D02*
X104065000Y-184830000D01*
X58830000Y-194355000D02*
X58830000Y-185465000D01*
D12*
X102675000Y-185490000D02*
X102675000Y-194290000D01*
X101975000Y-194990000D01*
X65275000Y-194990000D01*
X64575000Y-194290000D01*
X64575000Y-185490000D01*
X65275000Y-184790000D01*
X101975000Y-184790000D01*
X102675000Y-185490000D01*
G36*
X102675000Y-185490000D02*
G01*
X102675000Y-194290000D01*
X101975000Y-194990000D01*
X65275000Y-194990000D01*
X64575000Y-194290000D01*
X64575000Y-185490000D01*
X65275000Y-184790000D01*
X101975000Y-184790000D01*
X102675000Y-185490000D01*
G37*
D10*
X157230000Y-194355000D02*
X157230000Y-185465000D01*
X108510000Y-185465000D02*
X108510000Y-194355000D01*
X160405000Y-184830000D02*
X161675000Y-184830000D01*
X162310000Y-194355000D02*
X161675000Y-194990000D01*
X161675000Y-184830000D02*
X162310000Y-185465000D01*
X160405000Y-194990000D02*
X159770000Y-194355000D01*
X157865000Y-184830000D02*
X159135000Y-184830000D01*
X58830000Y-185465000D02*
X59465000Y-184830000D01*
X159770000Y-185465000D02*
X159770000Y-194355000D01*
X60735000Y-184830000D02*
X61370000Y-185465000D01*
X117075000Y-194990000D02*
X115805000Y-194990000D01*
X114535000Y-194990000D02*
X113265000Y-194990000D01*
X117710000Y-185465000D02*
X117710000Y-194355000D01*
X107875000Y-184830000D02*
X108510000Y-185465000D01*
D11*
X160412197Y-80462381D02*
X160352673Y-80581428D01*
X160352673Y-80581428D02*
X160352673Y-80760000D01*
X160352673Y-80760000D02*
X160412197Y-80938571D01*
X160412197Y-80938571D02*
X160531245Y-81057619D01*
X160531245Y-81057619D02*
X160650292Y-81117142D01*
X160650292Y-81117142D02*
X160888388Y-81176666D01*
X160888388Y-81176666D02*
X161066959Y-81176666D01*
X161066959Y-81176666D02*
X161305054Y-81117142D01*
X161305054Y-81117142D02*
X161424102Y-81057619D01*
X161424102Y-81057619D02*
X161543150Y-80938571D01*
X161543150Y-80938571D02*
X161602673Y-80760000D01*
X161602673Y-80760000D02*
X161602673Y-80640952D01*
X161602673Y-80640952D02*
X161543150Y-80462381D01*
X161543150Y-80462381D02*
X161483626Y-80402857D01*
X161483626Y-80402857D02*
X161066959Y-80402857D01*
X161066959Y-80402857D02*
X161066959Y-80640952D01*
X161602673Y-79867142D02*
X160352673Y-79867142D01*
X160352673Y-79867142D02*
X161602673Y-79152857D01*
X161602673Y-79152857D02*
X160352673Y-79152857D01*
X161602673Y-78557618D02*
X160352673Y-78557618D01*
X160352673Y-78557618D02*
X160352673Y-78259999D01*
X160352673Y-78259999D02*
X160412197Y-78081428D01*
X160412197Y-78081428D02*
X160531245Y-77962380D01*
X160531245Y-77962380D02*
X160650292Y-77902857D01*
X160650292Y-77902857D02*
X160888388Y-77843333D01*
X160888388Y-77843333D02*
X161066959Y-77843333D01*
X161066959Y-77843333D02*
X161305054Y-77902857D01*
X161305054Y-77902857D02*
X161424102Y-77962380D01*
X161424102Y-77962380D02*
X161543150Y-78081428D01*
X161543150Y-78081428D02*
X161602673Y-78259999D01*
X161602673Y-78259999D02*
X161602673Y-78557618D01*
X60186483Y-81752142D02*
X60186483Y-80799762D01*
X60662673Y-81275952D02*
X59710292Y-81275952D01*
X59412673Y-79609285D02*
X59412673Y-80204523D01*
X59412673Y-80204523D02*
X60007911Y-80264047D01*
X60007911Y-80264047D02*
X59948388Y-80204523D01*
X59948388Y-80204523D02*
X59888864Y-80085476D01*
X59888864Y-80085476D02*
X59888864Y-79787857D01*
X59888864Y-79787857D02*
X59948388Y-79668809D01*
X59948388Y-79668809D02*
X60007911Y-79609285D01*
X60007911Y-79609285D02*
X60126959Y-79549762D01*
X60126959Y-79549762D02*
X60424578Y-79549762D01*
X60424578Y-79549762D02*
X60543626Y-79609285D01*
X60543626Y-79609285D02*
X60603150Y-79668809D01*
X60603150Y-79668809D02*
X60662673Y-79787857D01*
X60662673Y-79787857D02*
X60662673Y-80085476D01*
X60662673Y-80085476D02*
X60603150Y-80204523D01*
X60603150Y-80204523D02*
X60543626Y-80264047D01*
X59412673Y-79192619D02*
X60662673Y-78775952D01*
X60662673Y-78775952D02*
X59412673Y-78359286D01*
X116526483Y-81792380D02*
X116526483Y-80840000D01*
X117002673Y-79590000D02*
X117002673Y-80304285D01*
X117002673Y-79947142D02*
X115752673Y-79947142D01*
X115752673Y-79947142D02*
X115931245Y-80066190D01*
X115931245Y-80066190D02*
X116050292Y-80185238D01*
X116050292Y-80185238D02*
X116109816Y-80304285D01*
X115871721Y-79113809D02*
X115812197Y-79054285D01*
X115812197Y-79054285D02*
X115752673Y-78935238D01*
X115752673Y-78935238D02*
X115752673Y-78637619D01*
X115752673Y-78637619D02*
X115812197Y-78518571D01*
X115812197Y-78518571D02*
X115871721Y-78459047D01*
X115871721Y-78459047D02*
X115990769Y-78399524D01*
X115990769Y-78399524D02*
X116109816Y-78399524D01*
X116109816Y-78399524D02*
X116288388Y-78459047D01*
X116288388Y-78459047D02*
X117002673Y-79173333D01*
X117002673Y-79173333D02*
X117002673Y-78399524D01*
X115752673Y-78042381D02*
X117002673Y-77625714D01*
X117002673Y-77625714D02*
X115752673Y-77209048D01*
X158586483Y-82347380D02*
X158586483Y-81395000D01*
X159062673Y-81871190D02*
X158110292Y-81871190D01*
X159062673Y-80145000D02*
X159062673Y-80859285D01*
X159062673Y-80502142D02*
X157812673Y-80502142D01*
X157812673Y-80502142D02*
X157991245Y-80621190D01*
X157991245Y-80621190D02*
X158110292Y-80740238D01*
X158110292Y-80740238D02*
X158169816Y-80859285D01*
X157931721Y-79668809D02*
X157872197Y-79609285D01*
X157872197Y-79609285D02*
X157812673Y-79490238D01*
X157812673Y-79490238D02*
X157812673Y-79192619D01*
X157812673Y-79192619D02*
X157872197Y-79073571D01*
X157872197Y-79073571D02*
X157931721Y-79014047D01*
X157931721Y-79014047D02*
X158050769Y-78954524D01*
X158050769Y-78954524D02*
X158169816Y-78954524D01*
X158169816Y-78954524D02*
X158348388Y-79014047D01*
X158348388Y-79014047D02*
X159062673Y-79728333D01*
X159062673Y-79728333D02*
X159062673Y-78954524D01*
X157812673Y-78597381D02*
X159062673Y-78180714D01*
X159062673Y-78180714D02*
X157812673Y-77764048D01*
X113986483Y-81752142D02*
X113986483Y-80799762D01*
X114462673Y-81275952D02*
X113510292Y-81275952D01*
X113212673Y-79609285D02*
X113212673Y-80204523D01*
X113212673Y-80204523D02*
X113807911Y-80264047D01*
X113807911Y-80264047D02*
X113748388Y-80204523D01*
X113748388Y-80204523D02*
X113688864Y-80085476D01*
X113688864Y-80085476D02*
X113688864Y-79787857D01*
X113688864Y-79787857D02*
X113748388Y-79668809D01*
X113748388Y-79668809D02*
X113807911Y-79609285D01*
X113807911Y-79609285D02*
X113926959Y-79549762D01*
X113926959Y-79549762D02*
X114224578Y-79549762D01*
X114224578Y-79549762D02*
X114343626Y-79609285D01*
X114343626Y-79609285D02*
X114403150Y-79668809D01*
X114403150Y-79668809D02*
X114462673Y-79787857D01*
X114462673Y-79787857D02*
X114462673Y-80085476D01*
X114462673Y-80085476D02*
X114403150Y-80204523D01*
X114403150Y-80204523D02*
X114343626Y-80264047D01*
X113212673Y-79192619D02*
X114462673Y-78775952D01*
X114462673Y-78775952D02*
X113212673Y-78359286D01*
X62726483Y-81792380D02*
X62726483Y-80840000D01*
X63202673Y-79590000D02*
X63202673Y-80304285D01*
X63202673Y-79947142D02*
X61952673Y-79947142D01*
X61952673Y-79947142D02*
X62131245Y-80066190D01*
X62131245Y-80066190D02*
X62250292Y-80185238D01*
X62250292Y-80185238D02*
X62309816Y-80304285D01*
X62071721Y-79113809D02*
X62012197Y-79054285D01*
X62012197Y-79054285D02*
X61952673Y-78935238D01*
X61952673Y-78935238D02*
X61952673Y-78637619D01*
X61952673Y-78637619D02*
X62012197Y-78518571D01*
X62012197Y-78518571D02*
X62071721Y-78459047D01*
X62071721Y-78459047D02*
X62190769Y-78399524D01*
X62190769Y-78399524D02*
X62309816Y-78399524D01*
X62309816Y-78399524D02*
X62488388Y-78459047D01*
X62488388Y-78459047D02*
X63202673Y-79173333D01*
X63202673Y-79173333D02*
X63202673Y-78399524D01*
X61952673Y-78042381D02*
X63202673Y-77625714D01*
X63202673Y-77625714D02*
X61952673Y-77209048D01*
X106612197Y-80462381D02*
X106552673Y-80581428D01*
X106552673Y-80581428D02*
X106552673Y-80760000D01*
X106552673Y-80760000D02*
X106612197Y-80938571D01*
X106612197Y-80938571D02*
X106731245Y-81057619D01*
X106731245Y-81057619D02*
X106850292Y-81117142D01*
X106850292Y-81117142D02*
X107088388Y-81176666D01*
X107088388Y-81176666D02*
X107266959Y-81176666D01*
X107266959Y-81176666D02*
X107505054Y-81117142D01*
X107505054Y-81117142D02*
X107624102Y-81057619D01*
X107624102Y-81057619D02*
X107743150Y-80938571D01*
X107743150Y-80938571D02*
X107802673Y-80760000D01*
X107802673Y-80760000D02*
X107802673Y-80640952D01*
X107802673Y-80640952D02*
X107743150Y-80462381D01*
X107743150Y-80462381D02*
X107683626Y-80402857D01*
X107683626Y-80402857D02*
X107266959Y-80402857D01*
X107266959Y-80402857D02*
X107266959Y-80640952D01*
X107802673Y-79867142D02*
X106552673Y-79867142D01*
X106552673Y-79867142D02*
X107802673Y-79152857D01*
X107802673Y-79152857D02*
X106552673Y-79152857D01*
X107802673Y-78557618D02*
X106552673Y-78557618D01*
X106552673Y-78557618D02*
X106552673Y-78259999D01*
X106552673Y-78259999D02*
X106612197Y-78081428D01*
X106612197Y-78081428D02*
X106731245Y-77962380D01*
X106731245Y-77962380D02*
X106850292Y-77902857D01*
X106850292Y-77902857D02*
X107088388Y-77843333D01*
X107088388Y-77843333D02*
X107266959Y-77843333D01*
X107266959Y-77843333D02*
X107505054Y-77902857D01*
X107505054Y-77902857D02*
X107624102Y-77962380D01*
X107624102Y-77962380D02*
X107743150Y-78081428D01*
X107743150Y-78081428D02*
X107802673Y-78259999D01*
X107802673Y-78259999D02*
X107802673Y-78557618D01*
X104786483Y-82347380D02*
X104786483Y-81395000D01*
X105262673Y-81871190D02*
X104310292Y-81871190D01*
X105262673Y-80145000D02*
X105262673Y-80859285D01*
X105262673Y-80502142D02*
X104012673Y-80502142D01*
X104012673Y-80502142D02*
X104191245Y-80621190D01*
X104191245Y-80621190D02*
X104310292Y-80740238D01*
X104310292Y-80740238D02*
X104369816Y-80859285D01*
X104131721Y-79668809D02*
X104072197Y-79609285D01*
X104072197Y-79609285D02*
X104012673Y-79490238D01*
X104012673Y-79490238D02*
X104012673Y-79192619D01*
X104012673Y-79192619D02*
X104072197Y-79073571D01*
X104072197Y-79073571D02*
X104131721Y-79014047D01*
X104131721Y-79014047D02*
X104250769Y-78954524D01*
X104250769Y-78954524D02*
X104369816Y-78954524D01*
X104369816Y-78954524D02*
X104548388Y-79014047D01*
X104548388Y-79014047D02*
X105262673Y-79728333D01*
X105262673Y-79728333D02*
X105262673Y-78954524D01*
X104012673Y-78597381D02*
X105262673Y-78180714D01*
X105262673Y-78180714D02*
X104012673Y-77764048D01*
D10*
X162310000Y-75065000D02*
X162310000Y-83955000D01*
D12*
X102675000Y-75090000D02*
X102675000Y-83890000D01*
X101975000Y-84590000D01*
X65275000Y-84590000D01*
X64575000Y-83890000D01*
X64575000Y-75090000D01*
X65275000Y-74390000D01*
X101975000Y-74390000D01*
X102675000Y-75090000D01*
G36*
X102675000Y-75090000D02*
G01*
X102675000Y-83890000D01*
X101975000Y-84590000D01*
X65275000Y-84590000D01*
X64575000Y-83890000D01*
X64575000Y-75090000D01*
X65275000Y-74390000D01*
X101975000Y-74390000D01*
X102675000Y-75090000D01*
G37*
X156475000Y-75090000D02*
X156475000Y-83890000D01*
X155775000Y-84590000D01*
X119075000Y-84590000D01*
X118375000Y-83890000D01*
X118375000Y-75090000D01*
X119075000Y-74390000D01*
X155775000Y-74390000D01*
X156475000Y-75090000D01*
G36*
X156475000Y-75090000D02*
G01*
X156475000Y-83890000D01*
X155775000Y-84590000D01*
X119075000Y-84590000D01*
X118375000Y-83890000D01*
X118375000Y-75090000D01*
X119075000Y-74390000D01*
X155775000Y-74390000D01*
X156475000Y-75090000D01*
G37*
D10*
X157865000Y-84590000D02*
X157230000Y-83955000D01*
X159135000Y-74430000D02*
X159770000Y-75065000D01*
X117710000Y-83955000D02*
X117075000Y-84590000D01*
X59465000Y-74430000D02*
X60735000Y-74430000D01*
X159135000Y-84590000D02*
X157865000Y-84590000D01*
X103430000Y-75065000D02*
X104065000Y-74430000D01*
X61370000Y-83955000D02*
X60735000Y-84590000D01*
X161675000Y-74430000D02*
X162310000Y-75065000D01*
X157865000Y-74430000D02*
X159135000Y-74430000D01*
X58830000Y-75065000D02*
X59465000Y-74430000D01*
X159770000Y-75065000D02*
X159770000Y-83955000D01*
X60735000Y-74430000D02*
X61370000Y-75065000D01*
X162310000Y-83955000D02*
X161675000Y-84590000D01*
X105970000Y-75065000D02*
X106605000Y-74430000D01*
X108510000Y-75065000D02*
X108510000Y-83955000D01*
X117075000Y-84590000D02*
X115805000Y-84590000D01*
X58830000Y-83955000D02*
X58830000Y-75065000D01*
X115805000Y-84590000D02*
X115170000Y-83955000D01*
X114535000Y-84590000D02*
X113265000Y-84590000D01*
X105970000Y-75065000D02*
X105970000Y-83955000D01*
X157230000Y-83955000D02*
X157230000Y-75065000D01*
X62005000Y-84590000D02*
X61370000Y-83955000D01*
X115170000Y-75065000D02*
X115805000Y-74430000D01*
X107875000Y-74430000D02*
X108510000Y-75065000D01*
X105335000Y-84590000D02*
X104065000Y-84590000D01*
X160405000Y-84590000D02*
X159770000Y-83955000D01*
X117710000Y-75065000D02*
X117710000Y-83955000D01*
X160405000Y-74430000D02*
X161675000Y-74430000D01*
X105970000Y-83955000D02*
X105335000Y-84590000D01*
X108510000Y-83955000D02*
X107875000Y-84590000D01*
X157230000Y-75065000D02*
X157865000Y-74430000D01*
X61370000Y-75065000D02*
X61370000Y-83955000D01*
X63910000Y-75065000D02*
X63910000Y-83955000D01*
X63910000Y-83955000D02*
X63275000Y-84590000D01*
X63275000Y-84590000D02*
X62005000Y-84590000D01*
X106605000Y-74430000D02*
X107875000Y-74430000D01*
X115805000Y-74430000D02*
X117075000Y-74430000D01*
X115170000Y-75065000D02*
X115170000Y-83955000D01*
X61370000Y-75065000D02*
X62005000Y-74430000D01*
X114535000Y-74430000D02*
X115170000Y-75065000D01*
X62005000Y-74430000D02*
X63275000Y-74430000D01*
X104065000Y-84590000D02*
X103430000Y-83955000D01*
X115170000Y-83955000D02*
X114535000Y-84590000D01*
X103430000Y-83955000D02*
X103430000Y-75065000D01*
X104065000Y-74430000D02*
X105335000Y-74430000D01*
X112630000Y-83955000D02*
X112630000Y-75065000D01*
X63275000Y-74430000D02*
X63910000Y-75065000D01*
X106605000Y-84590000D02*
X105970000Y-83955000D01*
X113265000Y-84590000D02*
X112630000Y-83955000D01*
X107875000Y-84590000D02*
X106605000Y-84590000D01*
X161675000Y-84590000D02*
X160405000Y-84590000D01*
X60735000Y-84590000D02*
X59465000Y-84590000D01*
X105335000Y-74430000D02*
X105970000Y-75065000D01*
X59465000Y-84590000D02*
X58830000Y-83955000D01*
X159770000Y-75065000D02*
X160405000Y-74430000D01*
X113265000Y-74430000D02*
X114535000Y-74430000D01*
X112630000Y-75065000D02*
X113265000Y-74430000D01*
X159770000Y-83955000D02*
X159135000Y-84590000D01*
X117075000Y-74430000D02*
X117710000Y-75065000D01*
X114535000Y-70790000D02*
X113265000Y-70790000D01*
X106605000Y-60630000D02*
X107875000Y-60630000D01*
X159135000Y-70790000D02*
X157865000Y-70790000D01*
X105970000Y-61265000D02*
X105970000Y-70155000D01*
X62005000Y-70790000D02*
X61370000Y-70155000D01*
X107875000Y-60630000D02*
X108510000Y-61265000D01*
X115170000Y-61265000D02*
X115170000Y-70155000D01*
X159135000Y-60630000D02*
X159770000Y-61265000D01*
X115170000Y-61265000D02*
X115805000Y-60630000D01*
D12*
X102675000Y-61290000D02*
X102675000Y-70090000D01*
X101975000Y-70790000D01*
X65275000Y-70790000D01*
X64575000Y-70090000D01*
X64575000Y-61290000D01*
X65275000Y-60590000D01*
X101975000Y-60590000D01*
X102675000Y-61290000D01*
G36*
X102675000Y-61290000D02*
G01*
X102675000Y-70090000D01*
X101975000Y-70790000D01*
X65275000Y-70790000D01*
X64575000Y-70090000D01*
X64575000Y-61290000D01*
X65275000Y-60590000D01*
X101975000Y-60590000D01*
X102675000Y-61290000D01*
G37*
D10*
X157230000Y-70155000D02*
X157230000Y-61265000D01*
X103430000Y-61265000D02*
X104065000Y-60630000D01*
X105335000Y-70790000D02*
X104065000Y-70790000D01*
X115805000Y-60630000D02*
X117075000Y-60630000D01*
X108510000Y-70155000D02*
X107875000Y-70790000D01*
D11*
X113986483Y-67952142D02*
X113986483Y-66999762D01*
X114462673Y-67475952D02*
X113510292Y-67475952D01*
X113212673Y-65809285D02*
X113212673Y-66404523D01*
X113212673Y-66404523D02*
X113807911Y-66464047D01*
X113807911Y-66464047D02*
X113748388Y-66404523D01*
X113748388Y-66404523D02*
X113688864Y-66285476D01*
X113688864Y-66285476D02*
X113688864Y-65987857D01*
X113688864Y-65987857D02*
X113748388Y-65868809D01*
X113748388Y-65868809D02*
X113807911Y-65809285D01*
X113807911Y-65809285D02*
X113926959Y-65749762D01*
X113926959Y-65749762D02*
X114224578Y-65749762D01*
X114224578Y-65749762D02*
X114343626Y-65809285D01*
X114343626Y-65809285D02*
X114403150Y-65868809D01*
X114403150Y-65868809D02*
X114462673Y-65987857D01*
X114462673Y-65987857D02*
X114462673Y-66285476D01*
X114462673Y-66285476D02*
X114403150Y-66404523D01*
X114403150Y-66404523D02*
X114343626Y-66464047D01*
X113212673Y-65392619D02*
X114462673Y-64975952D01*
X114462673Y-64975952D02*
X113212673Y-64559286D01*
X62726483Y-67992380D02*
X62726483Y-67040000D01*
X63202673Y-65790000D02*
X63202673Y-66504285D01*
X63202673Y-66147142D02*
X61952673Y-66147142D01*
X61952673Y-66147142D02*
X62131245Y-66266190D01*
X62131245Y-66266190D02*
X62250292Y-66385238D01*
X62250292Y-66385238D02*
X62309816Y-66504285D01*
X62071721Y-65313809D02*
X62012197Y-65254285D01*
X62012197Y-65254285D02*
X61952673Y-65135238D01*
X61952673Y-65135238D02*
X61952673Y-64837619D01*
X61952673Y-64837619D02*
X62012197Y-64718571D01*
X62012197Y-64718571D02*
X62071721Y-64659047D01*
X62071721Y-64659047D02*
X62190769Y-64599524D01*
X62190769Y-64599524D02*
X62309816Y-64599524D01*
X62309816Y-64599524D02*
X62488388Y-64659047D01*
X62488388Y-64659047D02*
X63202673Y-65373333D01*
X63202673Y-65373333D02*
X63202673Y-64599524D01*
X61952673Y-64242381D02*
X63202673Y-63825714D01*
X63202673Y-63825714D02*
X61952673Y-63409048D01*
X106612197Y-66662381D02*
X106552673Y-66781428D01*
X106552673Y-66781428D02*
X106552673Y-66960000D01*
X106552673Y-66960000D02*
X106612197Y-67138571D01*
X106612197Y-67138571D02*
X106731245Y-67257619D01*
X106731245Y-67257619D02*
X106850292Y-67317142D01*
X106850292Y-67317142D02*
X107088388Y-67376666D01*
X107088388Y-67376666D02*
X107266959Y-67376666D01*
X107266959Y-67376666D02*
X107505054Y-67317142D01*
X107505054Y-67317142D02*
X107624102Y-67257619D01*
X107624102Y-67257619D02*
X107743150Y-67138571D01*
X107743150Y-67138571D02*
X107802673Y-66960000D01*
X107802673Y-66960000D02*
X107802673Y-66840952D01*
X107802673Y-66840952D02*
X107743150Y-66662381D01*
X107743150Y-66662381D02*
X107683626Y-66602857D01*
X107683626Y-66602857D02*
X107266959Y-66602857D01*
X107266959Y-66602857D02*
X107266959Y-66840952D01*
X107802673Y-66067142D02*
X106552673Y-66067142D01*
X106552673Y-66067142D02*
X107802673Y-65352857D01*
X107802673Y-65352857D02*
X106552673Y-65352857D01*
X107802673Y-64757618D02*
X106552673Y-64757618D01*
X106552673Y-64757618D02*
X106552673Y-64459999D01*
X106552673Y-64459999D02*
X106612197Y-64281428D01*
X106612197Y-64281428D02*
X106731245Y-64162380D01*
X106731245Y-64162380D02*
X106850292Y-64102857D01*
X106850292Y-64102857D02*
X107088388Y-64043333D01*
X107088388Y-64043333D02*
X107266959Y-64043333D01*
X107266959Y-64043333D02*
X107505054Y-64102857D01*
X107505054Y-64102857D02*
X107624102Y-64162380D01*
X107624102Y-64162380D02*
X107743150Y-64281428D01*
X107743150Y-64281428D02*
X107802673Y-64459999D01*
X107802673Y-64459999D02*
X107802673Y-64757618D01*
X160412197Y-66662381D02*
X160352673Y-66781428D01*
X160352673Y-66781428D02*
X160352673Y-66960000D01*
X160352673Y-66960000D02*
X160412197Y-67138571D01*
X160412197Y-67138571D02*
X160531245Y-67257619D01*
X160531245Y-67257619D02*
X160650292Y-67317142D01*
X160650292Y-67317142D02*
X160888388Y-67376666D01*
X160888388Y-67376666D02*
X161066959Y-67376666D01*
X161066959Y-67376666D02*
X161305054Y-67317142D01*
X161305054Y-67317142D02*
X161424102Y-67257619D01*
X161424102Y-67257619D02*
X161543150Y-67138571D01*
X161543150Y-67138571D02*
X161602673Y-66960000D01*
X161602673Y-66960000D02*
X161602673Y-66840952D01*
X161602673Y-66840952D02*
X161543150Y-66662381D01*
X161543150Y-66662381D02*
X161483626Y-66602857D01*
X161483626Y-66602857D02*
X161066959Y-66602857D01*
X161066959Y-66602857D02*
X161066959Y-66840952D01*
X161602673Y-66067142D02*
X160352673Y-66067142D01*
X160352673Y-66067142D02*
X161602673Y-65352857D01*
X161602673Y-65352857D02*
X160352673Y-65352857D01*
X161602673Y-64757618D02*
X160352673Y-64757618D01*
X160352673Y-64757618D02*
X160352673Y-64459999D01*
X160352673Y-64459999D02*
X160412197Y-64281428D01*
X160412197Y-64281428D02*
X160531245Y-64162380D01*
X160531245Y-64162380D02*
X160650292Y-64102857D01*
X160650292Y-64102857D02*
X160888388Y-64043333D01*
X160888388Y-64043333D02*
X161066959Y-64043333D01*
X161066959Y-64043333D02*
X161305054Y-64102857D01*
X161305054Y-64102857D02*
X161424102Y-64162380D01*
X161424102Y-64162380D02*
X161543150Y-64281428D01*
X161543150Y-64281428D02*
X161602673Y-64459999D01*
X161602673Y-64459999D02*
X161602673Y-64757618D01*
X60186483Y-67952142D02*
X60186483Y-66999762D01*
X60662673Y-67475952D02*
X59710292Y-67475952D01*
X59412673Y-65809285D02*
X59412673Y-66404523D01*
X59412673Y-66404523D02*
X60007911Y-66464047D01*
X60007911Y-66464047D02*
X59948388Y-66404523D01*
X59948388Y-66404523D02*
X59888864Y-66285476D01*
X59888864Y-66285476D02*
X59888864Y-65987857D01*
X59888864Y-65987857D02*
X59948388Y-65868809D01*
X59948388Y-65868809D02*
X60007911Y-65809285D01*
X60007911Y-65809285D02*
X60126959Y-65749762D01*
X60126959Y-65749762D02*
X60424578Y-65749762D01*
X60424578Y-65749762D02*
X60543626Y-65809285D01*
X60543626Y-65809285D02*
X60603150Y-65868809D01*
X60603150Y-65868809D02*
X60662673Y-65987857D01*
X60662673Y-65987857D02*
X60662673Y-66285476D01*
X60662673Y-66285476D02*
X60603150Y-66404523D01*
X60603150Y-66404523D02*
X60543626Y-66464047D01*
X59412673Y-65392619D02*
X60662673Y-64975952D01*
X60662673Y-64975952D02*
X59412673Y-64559286D01*
X158586483Y-68547380D02*
X158586483Y-67595000D01*
X159062673Y-68071190D02*
X158110292Y-68071190D01*
X159062673Y-66345000D02*
X159062673Y-67059285D01*
X159062673Y-66702142D02*
X157812673Y-66702142D01*
X157812673Y-66702142D02*
X157991245Y-66821190D01*
X157991245Y-66821190D02*
X158110292Y-66940238D01*
X158110292Y-66940238D02*
X158169816Y-67059285D01*
X157931721Y-65868809D02*
X157872197Y-65809285D01*
X157872197Y-65809285D02*
X157812673Y-65690238D01*
X157812673Y-65690238D02*
X157812673Y-65392619D01*
X157812673Y-65392619D02*
X157872197Y-65273571D01*
X157872197Y-65273571D02*
X157931721Y-65214047D01*
X157931721Y-65214047D02*
X158050769Y-65154524D01*
X158050769Y-65154524D02*
X158169816Y-65154524D01*
X158169816Y-65154524D02*
X158348388Y-65214047D01*
X158348388Y-65214047D02*
X159062673Y-65928333D01*
X159062673Y-65928333D02*
X159062673Y-65154524D01*
X157812673Y-64797381D02*
X159062673Y-64380714D01*
X159062673Y-64380714D02*
X157812673Y-63964048D01*
X104786483Y-68547380D02*
X104786483Y-67595000D01*
X105262673Y-68071190D02*
X104310292Y-68071190D01*
X105262673Y-66345000D02*
X105262673Y-67059285D01*
X105262673Y-66702142D02*
X104012673Y-66702142D01*
X104012673Y-66702142D02*
X104191245Y-66821190D01*
X104191245Y-66821190D02*
X104310292Y-66940238D01*
X104310292Y-66940238D02*
X104369816Y-67059285D01*
X104131721Y-65868809D02*
X104072197Y-65809285D01*
X104072197Y-65809285D02*
X104012673Y-65690238D01*
X104012673Y-65690238D02*
X104012673Y-65392619D01*
X104012673Y-65392619D02*
X104072197Y-65273571D01*
X104072197Y-65273571D02*
X104131721Y-65214047D01*
X104131721Y-65214047D02*
X104250769Y-65154524D01*
X104250769Y-65154524D02*
X104369816Y-65154524D01*
X104369816Y-65154524D02*
X104548388Y-65214047D01*
X104548388Y-65214047D02*
X105262673Y-65928333D01*
X105262673Y-65928333D02*
X105262673Y-65154524D01*
X104012673Y-64797381D02*
X105262673Y-64380714D01*
X105262673Y-64380714D02*
X104012673Y-63964048D01*
X116526483Y-67992380D02*
X116526483Y-67040000D01*
X117002673Y-65790000D02*
X117002673Y-66504285D01*
X117002673Y-66147142D02*
X115752673Y-66147142D01*
X115752673Y-66147142D02*
X115931245Y-66266190D01*
X115931245Y-66266190D02*
X116050292Y-66385238D01*
X116050292Y-66385238D02*
X116109816Y-66504285D01*
X115871721Y-65313809D02*
X115812197Y-65254285D01*
X115812197Y-65254285D02*
X115752673Y-65135238D01*
X115752673Y-65135238D02*
X115752673Y-64837619D01*
X115752673Y-64837619D02*
X115812197Y-64718571D01*
X115812197Y-64718571D02*
X115871721Y-64659047D01*
X115871721Y-64659047D02*
X115990769Y-64599524D01*
X115990769Y-64599524D02*
X116109816Y-64599524D01*
X116109816Y-64599524D02*
X116288388Y-64659047D01*
X116288388Y-64659047D02*
X117002673Y-65373333D01*
X117002673Y-65373333D02*
X117002673Y-64599524D01*
X115752673Y-64242381D02*
X117002673Y-63825714D01*
X117002673Y-63825714D02*
X115752673Y-63409048D01*
D10*
X157865000Y-60630000D02*
X159135000Y-60630000D01*
X61370000Y-70155000D02*
X60735000Y-70790000D01*
X160405000Y-70790000D02*
X159770000Y-70155000D01*
X58830000Y-61265000D02*
X59465000Y-60630000D01*
D12*
X156475000Y-61290000D02*
X156475000Y-70090000D01*
X155775000Y-70790000D01*
X119075000Y-70790000D01*
X118375000Y-70090000D01*
X118375000Y-61290000D01*
X119075000Y-60590000D01*
X155775000Y-60590000D01*
X156475000Y-61290000D01*
G36*
X156475000Y-61290000D02*
G01*
X156475000Y-70090000D01*
X155775000Y-70790000D01*
X119075000Y-70790000D01*
X118375000Y-70090000D01*
X118375000Y-61290000D01*
X119075000Y-60590000D01*
X155775000Y-60590000D01*
X156475000Y-61290000D01*
G37*
D10*
X117710000Y-70155000D02*
X117075000Y-70790000D01*
X60735000Y-60630000D02*
X61370000Y-61265000D01*
X63275000Y-70790000D02*
X62005000Y-70790000D01*
X162310000Y-61265000D02*
X162310000Y-70155000D01*
X159770000Y-61265000D02*
X159770000Y-70155000D01*
X162310000Y-70155000D02*
X161675000Y-70790000D01*
X157230000Y-61265000D02*
X157865000Y-60630000D01*
X108510000Y-61265000D02*
X108510000Y-70155000D01*
X59465000Y-60630000D02*
X60735000Y-60630000D01*
X58830000Y-70155000D02*
X58830000Y-61265000D01*
X63910000Y-70155000D02*
X63275000Y-70790000D01*
X105970000Y-70155000D02*
X105335000Y-70790000D01*
X63910000Y-61265000D02*
X63910000Y-70155000D01*
X115805000Y-70790000D02*
X115170000Y-70155000D01*
X105970000Y-61265000D02*
X106605000Y-60630000D01*
X61370000Y-61265000D02*
X61370000Y-70155000D01*
X117710000Y-61265000D02*
X117710000Y-70155000D01*
X157865000Y-70790000D02*
X157230000Y-70155000D01*
X117075000Y-70790000D02*
X115805000Y-70790000D01*
X161675000Y-60630000D02*
X162310000Y-61265000D01*
X160405000Y-60630000D02*
X161675000Y-60630000D01*
X107875000Y-70790000D02*
X106605000Y-70790000D01*
X161675000Y-70790000D02*
X160405000Y-70790000D01*
X105335000Y-60630000D02*
X105970000Y-61265000D01*
X114535000Y-60630000D02*
X115170000Y-61265000D01*
X61370000Y-61265000D02*
X62005000Y-60630000D01*
X60735000Y-70790000D02*
X59465000Y-70790000D01*
X159770000Y-61265000D02*
X160405000Y-60630000D01*
X62005000Y-60630000D02*
X63275000Y-60630000D01*
X115170000Y-70155000D02*
X114535000Y-70790000D01*
X104065000Y-70790000D02*
X103430000Y-70155000D01*
X113265000Y-60630000D02*
X114535000Y-60630000D01*
X159770000Y-70155000D02*
X159135000Y-70790000D01*
X103430000Y-70155000D02*
X103430000Y-61265000D01*
X117075000Y-60630000D02*
X117710000Y-61265000D01*
X104065000Y-60630000D02*
X105335000Y-60630000D01*
X112630000Y-70155000D02*
X112630000Y-61265000D01*
X59465000Y-70790000D02*
X58830000Y-70155000D01*
X112630000Y-61265000D02*
X113265000Y-60630000D01*
X63275000Y-60630000D02*
X63910000Y-61265000D01*
X106605000Y-70790000D02*
X105970000Y-70155000D01*
X113265000Y-70790000D02*
X112630000Y-70155000D01*
D13*
%TO.C,REF\u002A\u002A*%
X145500000Y-183000000D02*
X144500000Y-183000000D01*
X146500000Y-183000000D02*
X145500000Y-183000000D01*
X73700000Y-183000000D02*
X72700000Y-183000000D01*
X74700000Y-183000000D02*
X73700000Y-183000000D01*
X145500000Y-169200000D02*
X144500000Y-169200000D01*
X146500000Y-169200000D02*
X145500000Y-169200000D01*
X73700000Y-169200000D02*
X72700000Y-169200000D01*
X74700000Y-169200000D02*
X73700000Y-169200000D01*
X145500000Y-155400000D02*
X144500000Y-155400000D01*
X146500000Y-155400000D02*
X145500000Y-155400000D01*
X73700000Y-155400000D02*
X72700000Y-155400000D01*
X74700000Y-155400000D02*
X73700000Y-155400000D01*
X145500000Y-141600000D02*
X144500000Y-141600000D01*
X146500000Y-141600000D02*
X145500000Y-141600000D01*
X73700000Y-141600000D02*
X72700000Y-141600000D01*
X74700000Y-141600000D02*
X73700000Y-141600000D01*
X145500000Y-127800000D02*
X144500000Y-127800000D01*
X146500000Y-127800000D02*
X145500000Y-127800000D01*
X73700000Y-127800000D02*
X72700000Y-127800000D01*
X74700000Y-127800000D02*
X73700000Y-127800000D01*
X145500000Y-114000000D02*
X144500000Y-114000000D01*
X146500000Y-114000000D02*
X145500000Y-114000000D01*
X73700000Y-114000000D02*
X72700000Y-114000000D01*
X74700000Y-114000000D02*
X73700000Y-114000000D01*
X145500000Y-100200000D02*
X144500000Y-100200000D01*
X146500000Y-100200000D02*
X145500000Y-100200000D01*
X73700000Y-100200000D02*
X72700000Y-100200000D01*
X74700000Y-100200000D02*
X73700000Y-100200000D01*
X145500000Y-86400000D02*
X144500000Y-86400000D01*
X146500000Y-86400000D02*
X145500000Y-86400000D01*
X73700000Y-86400000D02*
X72700000Y-86400000D01*
X74700000Y-86400000D02*
X73700000Y-86400000D01*
X145500000Y-72600000D02*
X144500000Y-72600000D01*
X146500000Y-72600000D02*
X145500000Y-72600000D01*
X73700000Y-72600000D02*
X72700000Y-72600000D01*
X74700000Y-72600000D02*
X73700000Y-72600000D01*
%TD*%
M02*
