%TF.GenerationSoftware,KiCad,Pcbnew,9.0.0*%
%TF.CreationDate,2025-07-31T16:49:19+02:00*%
%TF.ProjectId,Label_LG,4c616265-6c5f-44c4-972e-6b696361645f,rev?*%
%TF.SameCoordinates,Original*%
%TF.FileFunction,Soldermask,Top*%
%TF.FilePolarity,Negative*%
%FSLAX46Y46*%
G04 Gerber Fmt 4.6, Leading zero omitted, Abs format (unit mm)*
G04 Created by KiCad (PCBNEW 9.0.0) date 2025-07-31 16:49:19*
%MOMM*%
%LPD*%
G01*
G04 APERTURE LIST*
%ADD10R,1.700000X1.700000*%
%ADD11O,1.700000X1.700000*%
%ADD12C,0.500000*%
G04 APERTURE END LIST*
D10*
%TO.C,J29*%
X60100000Y-179900000D03*
D11*
X62640000Y-179900000D03*
%TD*%
D10*
%TO.C,J25*%
X60100000Y-172300000D03*
D11*
X62640000Y-172300000D03*
%TD*%
D10*
%TO.C,J40*%
X158500000Y-172300000D03*
D11*
X161040000Y-172300000D03*
%TD*%
D10*
%TO.C,J38*%
X113900000Y-179900000D03*
D11*
X116440000Y-179900000D03*
%TD*%
D10*
%TO.C,J32*%
X104700000Y-172300000D03*
D11*
X107240000Y-172300000D03*
%TD*%
D10*
%TO.C,J36*%
X113900000Y-172300000D03*
D11*
X116440000Y-172300000D03*
%TD*%
D10*
%TO.C,J34*%
X104700000Y-179900000D03*
D11*
X107240000Y-179900000D03*
%TD*%
D12*
%TO.C,REF\u002A\u002A*%
X144700000Y-182100000D03*
X144700000Y-183900000D03*
X145500000Y-182100000D03*
X145500000Y-183900000D03*
X146300000Y-182100000D03*
X146300000Y-183900000D03*
%TD*%
D10*
%TO.C,J42*%
X158490000Y-179900000D03*
D11*
X161030000Y-179900000D03*
%TD*%
D12*
%TO.C,REF\u002A\u002A*%
X72900000Y-182100000D03*
X72900000Y-183900000D03*
X73700000Y-182100000D03*
X73700000Y-183900000D03*
X74500000Y-182100000D03*
X74500000Y-183900000D03*
%TD*%
D10*
%TO.C,J29*%
X60100000Y-166100000D03*
D11*
X62640000Y-166100000D03*
%TD*%
D10*
%TO.C,J25*%
X60100000Y-158500000D03*
D11*
X62640000Y-158500000D03*
%TD*%
D10*
%TO.C,J40*%
X158500000Y-158500000D03*
D11*
X161040000Y-158500000D03*
%TD*%
D10*
%TO.C,J38*%
X113900000Y-166100000D03*
D11*
X116440000Y-166100000D03*
%TD*%
D10*
%TO.C,J32*%
X104700000Y-158500000D03*
D11*
X107240000Y-158500000D03*
%TD*%
D10*
%TO.C,J36*%
X113900000Y-158500000D03*
D11*
X116440000Y-158500000D03*
%TD*%
D10*
%TO.C,J34*%
X104700000Y-166100000D03*
D11*
X107240000Y-166100000D03*
%TD*%
D12*
%TO.C,REF\u002A\u002A*%
X144700000Y-168300000D03*
X144700000Y-170100000D03*
X145500000Y-168300000D03*
X145500000Y-170100000D03*
X146300000Y-168300000D03*
X146300000Y-170100000D03*
%TD*%
D10*
%TO.C,J42*%
X158490000Y-166100000D03*
D11*
X161030000Y-166100000D03*
%TD*%
D12*
%TO.C,REF\u002A\u002A*%
X72900000Y-168300000D03*
X72900000Y-170100000D03*
X73700000Y-168300000D03*
X73700000Y-170100000D03*
X74500000Y-168300000D03*
X74500000Y-170100000D03*
%TD*%
D10*
%TO.C,J29*%
X60100000Y-152300000D03*
D11*
X62640000Y-152300000D03*
%TD*%
D10*
%TO.C,J25*%
X60100000Y-144700000D03*
D11*
X62640000Y-144700000D03*
%TD*%
D10*
%TO.C,J40*%
X158500000Y-144700000D03*
D11*
X161040000Y-144700000D03*
%TD*%
D10*
%TO.C,J38*%
X113900000Y-152300000D03*
D11*
X116440000Y-152300000D03*
%TD*%
D10*
%TO.C,J32*%
X104700000Y-144700000D03*
D11*
X107240000Y-144700000D03*
%TD*%
D10*
%TO.C,J36*%
X113900000Y-144700000D03*
D11*
X116440000Y-144700000D03*
%TD*%
D10*
%TO.C,J34*%
X104700000Y-152300000D03*
D11*
X107240000Y-152300000D03*
%TD*%
D12*
%TO.C,REF\u002A\u002A*%
X144700000Y-154500000D03*
X144700000Y-156300000D03*
X145500000Y-154500000D03*
X145500000Y-156300000D03*
X146300000Y-154500000D03*
X146300000Y-156300000D03*
%TD*%
D10*
%TO.C,J42*%
X158490000Y-152300000D03*
D11*
X161030000Y-152300000D03*
%TD*%
D12*
%TO.C,REF\u002A\u002A*%
X72900000Y-154500000D03*
X72900000Y-156300000D03*
X73700000Y-154500000D03*
X73700000Y-156300000D03*
X74500000Y-154500000D03*
X74500000Y-156300000D03*
%TD*%
D10*
%TO.C,J29*%
X60100000Y-138500000D03*
D11*
X62640000Y-138500000D03*
%TD*%
D10*
%TO.C,J25*%
X60100000Y-130900000D03*
D11*
X62640000Y-130900000D03*
%TD*%
D10*
%TO.C,J40*%
X158500000Y-130900000D03*
D11*
X161040000Y-130900000D03*
%TD*%
D10*
%TO.C,J38*%
X113900000Y-138500000D03*
D11*
X116440000Y-138500000D03*
%TD*%
D10*
%TO.C,J32*%
X104700000Y-130900000D03*
D11*
X107240000Y-130900000D03*
%TD*%
D10*
%TO.C,J36*%
X113900000Y-130900000D03*
D11*
X116440000Y-130900000D03*
%TD*%
D10*
%TO.C,J34*%
X104700000Y-138500000D03*
D11*
X107240000Y-138500000D03*
%TD*%
D12*
%TO.C,REF\u002A\u002A*%
X144700000Y-140700000D03*
X144700000Y-142500000D03*
X145500000Y-140700000D03*
X145500000Y-142500000D03*
X146300000Y-140700000D03*
X146300000Y-142500000D03*
%TD*%
D10*
%TO.C,J42*%
X158490000Y-138500000D03*
D11*
X161030000Y-138500000D03*
%TD*%
D12*
%TO.C,REF\u002A\u002A*%
X72900000Y-140700000D03*
X72900000Y-142500000D03*
X73700000Y-140700000D03*
X73700000Y-142500000D03*
X74500000Y-140700000D03*
X74500000Y-142500000D03*
%TD*%
D10*
%TO.C,J29*%
X60100000Y-124700000D03*
D11*
X62640000Y-124700000D03*
%TD*%
D10*
%TO.C,J25*%
X60100000Y-117100000D03*
D11*
X62640000Y-117100000D03*
%TD*%
D10*
%TO.C,J40*%
X158500000Y-117100000D03*
D11*
X161040000Y-117100000D03*
%TD*%
D10*
%TO.C,J38*%
X113900000Y-124700000D03*
D11*
X116440000Y-124700000D03*
%TD*%
D10*
%TO.C,J32*%
X104700000Y-117100000D03*
D11*
X107240000Y-117100000D03*
%TD*%
D10*
%TO.C,J36*%
X113900000Y-117100000D03*
D11*
X116440000Y-117100000D03*
%TD*%
D10*
%TO.C,J34*%
X104700000Y-124700000D03*
D11*
X107240000Y-124700000D03*
%TD*%
D12*
%TO.C,REF\u002A\u002A*%
X144700000Y-126900000D03*
X144700000Y-128700000D03*
X145500000Y-126900000D03*
X145500000Y-128700000D03*
X146300000Y-126900000D03*
X146300000Y-128700000D03*
%TD*%
D10*
%TO.C,J42*%
X158490000Y-124700000D03*
D11*
X161030000Y-124700000D03*
%TD*%
D12*
%TO.C,REF\u002A\u002A*%
X72900000Y-126900000D03*
X72900000Y-128700000D03*
X73700000Y-126900000D03*
X73700000Y-128700000D03*
X74500000Y-126900000D03*
X74500000Y-128700000D03*
%TD*%
D10*
%TO.C,J29*%
X60100000Y-110900000D03*
D11*
X62640000Y-110900000D03*
%TD*%
D10*
%TO.C,J25*%
X60100000Y-103300000D03*
D11*
X62640000Y-103300000D03*
%TD*%
D10*
%TO.C,J40*%
X158500000Y-103300000D03*
D11*
X161040000Y-103300000D03*
%TD*%
D10*
%TO.C,J38*%
X113900000Y-110900000D03*
D11*
X116440000Y-110900000D03*
%TD*%
D10*
%TO.C,J32*%
X104700000Y-103300000D03*
D11*
X107240000Y-103300000D03*
%TD*%
D10*
%TO.C,J36*%
X113900000Y-103300000D03*
D11*
X116440000Y-103300000D03*
%TD*%
D10*
%TO.C,J34*%
X104700000Y-110900000D03*
D11*
X107240000Y-110900000D03*
%TD*%
D12*
%TO.C,REF\u002A\u002A*%
X144700000Y-113100000D03*
X144700000Y-114900000D03*
X145500000Y-113100000D03*
X145500000Y-114900000D03*
X146300000Y-113100000D03*
X146300000Y-114900000D03*
%TD*%
D10*
%TO.C,J42*%
X158490000Y-110900000D03*
D11*
X161030000Y-110900000D03*
%TD*%
D12*
%TO.C,REF\u002A\u002A*%
X72900000Y-113100000D03*
X72900000Y-114900000D03*
X73700000Y-113100000D03*
X73700000Y-114900000D03*
X74500000Y-113100000D03*
X74500000Y-114900000D03*
%TD*%
D10*
%TO.C,J29*%
X60100000Y-97100000D03*
D11*
X62640000Y-97100000D03*
%TD*%
D10*
%TO.C,J25*%
X60100000Y-89500000D03*
D11*
X62640000Y-89500000D03*
%TD*%
D10*
%TO.C,J40*%
X158500000Y-89500000D03*
D11*
X161040000Y-89500000D03*
%TD*%
D10*
%TO.C,J38*%
X113900000Y-97100000D03*
D11*
X116440000Y-97100000D03*
%TD*%
D10*
%TO.C,J32*%
X104700000Y-89500000D03*
D11*
X107240000Y-89500000D03*
%TD*%
D10*
%TO.C,J36*%
X113900000Y-89500000D03*
D11*
X116440000Y-89500000D03*
%TD*%
D10*
%TO.C,J34*%
X104700000Y-97100000D03*
D11*
X107240000Y-97100000D03*
%TD*%
D12*
%TO.C,REF\u002A\u002A*%
X144700000Y-99300000D03*
X144700000Y-101100000D03*
X145500000Y-99300000D03*
X145500000Y-101100000D03*
X146300000Y-99300000D03*
X146300000Y-101100000D03*
%TD*%
D10*
%TO.C,J42*%
X158490000Y-97100000D03*
D11*
X161030000Y-97100000D03*
%TD*%
D12*
%TO.C,REF\u002A\u002A*%
X72900000Y-99300000D03*
X72900000Y-101100000D03*
X73700000Y-99300000D03*
X73700000Y-101100000D03*
X74500000Y-99300000D03*
X74500000Y-101100000D03*
%TD*%
D10*
%TO.C,J29*%
X60100000Y-193700000D03*
D11*
X62640000Y-193700000D03*
%TD*%
D10*
%TO.C,J25*%
X60100000Y-186100000D03*
D11*
X62640000Y-186100000D03*
%TD*%
D10*
%TO.C,J40*%
X158500000Y-186100000D03*
D11*
X161040000Y-186100000D03*
%TD*%
D10*
%TO.C,J38*%
X113900000Y-193700000D03*
D11*
X116440000Y-193700000D03*
%TD*%
D10*
%TO.C,J32*%
X104700000Y-186100000D03*
D11*
X107240000Y-186100000D03*
%TD*%
D10*
%TO.C,J36*%
X113900000Y-186100000D03*
D11*
X116440000Y-186100000D03*
%TD*%
D10*
%TO.C,J34*%
X104700000Y-193700000D03*
D11*
X107240000Y-193700000D03*
%TD*%
D10*
%TO.C,J42*%
X158490000Y-193700000D03*
D11*
X161030000Y-193700000D03*
%TD*%
D12*
%TO.C,REF\u002A\u002A*%
X144700000Y-85500000D03*
X144700000Y-87300000D03*
X145500000Y-85500000D03*
X145500000Y-87300000D03*
X146300000Y-85500000D03*
X146300000Y-87300000D03*
%TD*%
%TO.C,REF\u002A\u002A*%
X72900000Y-85500000D03*
X72900000Y-87300000D03*
X73700000Y-85500000D03*
X73700000Y-87300000D03*
X74500000Y-85500000D03*
X74500000Y-87300000D03*
%TD*%
D10*
%TO.C,J34*%
X104700000Y-83300000D03*
D11*
X107240000Y-83300000D03*
%TD*%
D10*
%TO.C,J42*%
X158490000Y-83300000D03*
D11*
X161030000Y-83300000D03*
%TD*%
D10*
%TO.C,J36*%
X113900000Y-75700000D03*
D11*
X116440000Y-75700000D03*
%TD*%
D10*
%TO.C,J32*%
X104700000Y-75700000D03*
D11*
X107240000Y-75700000D03*
%TD*%
D10*
%TO.C,J25*%
X60100000Y-75700000D03*
D11*
X62640000Y-75700000D03*
%TD*%
D10*
%TO.C,J40*%
X158500000Y-75700000D03*
D11*
X161040000Y-75700000D03*
%TD*%
D10*
%TO.C,J29*%
X60100000Y-83300000D03*
D11*
X62640000Y-83300000D03*
%TD*%
D10*
%TO.C,J38*%
X113900000Y-83300000D03*
D11*
X116440000Y-83300000D03*
%TD*%
D10*
%TO.C,J29*%
X60100000Y-69500000D03*
D11*
X62640000Y-69500000D03*
%TD*%
D10*
%TO.C,J38*%
X113900000Y-69500000D03*
D11*
X116440000Y-69500000D03*
%TD*%
D10*
%TO.C,J40*%
X158500000Y-61900000D03*
D11*
X161040000Y-61900000D03*
%TD*%
D10*
%TO.C,J36*%
X113900000Y-61900000D03*
D11*
X116440000Y-61900000D03*
%TD*%
D10*
%TO.C,J32*%
X104700000Y-61900000D03*
D11*
X107240000Y-61900000D03*
%TD*%
D10*
%TO.C,J25*%
X60100000Y-61900000D03*
D11*
X62640000Y-61900000D03*
%TD*%
D10*
%TO.C,J34*%
X104700000Y-69500000D03*
D11*
X107240000Y-69500000D03*
%TD*%
D10*
%TO.C,J42*%
X158490000Y-69500000D03*
D11*
X161030000Y-69500000D03*
%TD*%
D12*
%TO.C,REF\u002A\u002A*%
X144700000Y-71700000D03*
X144700000Y-73500000D03*
X145500000Y-71700000D03*
X145500000Y-73500000D03*
X146300000Y-71700000D03*
X146300000Y-73500000D03*
%TD*%
%TO.C,REF\u002A\u002A*%
X72900000Y-71700000D03*
X72900000Y-73500000D03*
X73700000Y-71700000D03*
X73700000Y-73500000D03*
X74500000Y-71700000D03*
X74500000Y-73500000D03*
%TD*%
M02*
