M48
; DRILL file {KiCad 9.0.0} date 2025-07-31T16:49:17+0200
; FORMAT={-:-/ absolute / inch / decimal}
; #@! TF.CreationDate,2025-07-31T16:49:17+02:00
; #@! TF.GenerationSoftware,Kicad,Pcbnew,9.0.0
; #@! TF.FileFunction,NonPlated,1,2,NPTH
FMAT,2
INCH
; #@! TA.AperFunction,NonPlated,NPTH,ComponentDrill
T1C0.0197
%
G90
G05
T1
X2.8701Y-2.8228
X2.8701Y-2.8937
X2.8701Y-3.3661
X2.8701Y-3.437
X2.8701Y-3.9094
X2.8701Y-3.9803
X2.8701Y-4.4528
X2.8701Y-4.5236
X2.8701Y-4.9961
X2.8701Y-5.0669
X2.8701Y-5.5394
X2.8701Y-5.6102
X2.8701Y-6.0827
X2.8701Y-6.1535
X2.8701Y-6.626
X2.8701Y-6.6969
X2.8701Y-7.1693
X2.8701Y-7.2402
X2.9016Y-2.8228
X2.9016Y-2.8937
X2.9016Y-3.3661
X2.9016Y-3.437
X2.9016Y-3.9094
X2.9016Y-3.9803
X2.9016Y-4.4528
X2.9016Y-4.5236
X2.9016Y-4.9961
X2.9016Y-5.0669
X2.9016Y-5.5394
X2.9016Y-5.6102
X2.9016Y-6.0827
X2.9016Y-6.1535
X2.9016Y-6.626
X2.9016Y-6.6969
X2.9016Y-7.1693
X2.9016Y-7.2402
X2.9331Y-2.8228
X2.9331Y-2.8937
X2.9331Y-3.3661
X2.9331Y-3.437
X2.9331Y-3.9094
X2.9331Y-3.9803
X2.9331Y-4.4528
X2.9331Y-4.5236
X2.9331Y-4.9961
X2.9331Y-5.0669
X2.9331Y-5.5394
X2.9331Y-5.6102
X2.9331Y-6.0827
X2.9331Y-6.1535
X2.9331Y-6.626
X2.9331Y-6.6969
X2.9331Y-7.1693
X2.9331Y-7.2402
X5.6969Y-2.8228
X5.6969Y-2.8937
X5.6969Y-3.3661
X5.6969Y-3.437
X5.6969Y-3.9094
X5.6969Y-3.9803
X5.6969Y-4.4528
X5.6969Y-4.5236
X5.6969Y-4.9961
X5.6969Y-5.0669
X5.6969Y-5.5394
X5.6969Y-5.6102
X5.6969Y-6.0827
X5.6969Y-6.1535
X5.6969Y-6.626
X5.6969Y-6.6969
X5.6969Y-7.1693
X5.6969Y-7.2402
X5.7283Y-2.8228
X5.7283Y-2.8937
X5.7283Y-3.3661
X5.7283Y-3.437
X5.7283Y-3.9094
X5.7283Y-3.9803
X5.7283Y-4.4528
X5.7283Y-4.5236
X5.7283Y-4.9961
X5.7283Y-5.0669
X5.7283Y-5.5394
X5.7283Y-5.6102
X5.7283Y-6.0827
X5.7283Y-6.1535
X5.7283Y-6.626
X5.7283Y-6.6969
X5.7283Y-7.1693
X5.7283Y-7.2402
X5.7598Y-2.8228
X5.7598Y-2.8937
X5.7598Y-3.3661
X5.7598Y-3.437
X5.7598Y-3.9094
X5.7598Y-3.9803
X5.7598Y-4.4528
X5.7598Y-4.5236
X5.7598Y-4.9961
X5.7598Y-5.0669
X5.7598Y-5.5394
X5.7598Y-5.6102
X5.7598Y-6.0827
X5.7598Y-6.1535
X5.7598Y-6.626
X5.7598Y-6.6969
X5.7598Y-7.1693
X5.7598Y-7.2402
M30
