%TF.GenerationSoftware,KiCad,Pcbnew,9.0.0*%
%TF.CreationDate,2025-07-31T16:49:19+02:00*%
%TF.ProjectId,Label_LG,4c616265-6c5f-44c4-972e-6b696361645f,rev?*%
%TF.SameCoordinates,Original*%
%TF.FileFunction,Profile,NP*%
%FSLAX46Y46*%
G04 Gerber Fmt 4.6, Leading zero omitted, Abs format (unit mm)*
G04 Created by KiCad (PCBNEW 9.0.0) date 2025-07-31 16:49:19*
%MOMM*%
%LPD*%
G01*
G04 APERTURE LIST*
%TA.AperFunction,Profile*%
%ADD10C,0.100000*%
%TD*%
%TA.AperFunction,Profile*%
%ADD11C,0.050000*%
%TD*%
G04 APERTURE END LIST*
D10*
X163000000Y-179000000D02*
X163000000Y-173200000D01*
X61000000Y-181800000D02*
G75*
G02*
X58200000Y-179000000I0J2800000D01*
G01*
X71500000Y-181800000D02*
X61000000Y-181800000D01*
X58200000Y-173200000D02*
G75*
G02*
X61000000Y-170400000I2800000J0D01*
G01*
X147700000Y-181800000D02*
X160200000Y-181800000D01*
X163000000Y-179000000D02*
G75*
G02*
X160200000Y-181800000I-2800000J0D01*
G01*
X58200000Y-179000000D02*
X58200000Y-173200000D01*
X71500000Y-170400000D02*
X61000000Y-170400000D01*
X160200000Y-170400000D02*
G75*
G02*
X163000000Y-173200000I0J-2800000D01*
G01*
X143300000Y-170400000D02*
X75900000Y-170400000D01*
D11*
X75900000Y-181800000D02*
X143300000Y-181800000D01*
X160200000Y-170400000D02*
X147700000Y-170400000D01*
D10*
X163000000Y-165200000D02*
X163000000Y-159400000D01*
X61000000Y-168000000D02*
G75*
G02*
X58200000Y-165200000I0J2800000D01*
G01*
X71500000Y-168000000D02*
X61000000Y-168000000D01*
X58200000Y-159400000D02*
G75*
G02*
X61000000Y-156600000I2800000J0D01*
G01*
X147700000Y-168000000D02*
X160200000Y-168000000D01*
X163000000Y-165200000D02*
G75*
G02*
X160200000Y-168000000I-2800000J0D01*
G01*
X58200000Y-165200000D02*
X58200000Y-159400000D01*
X71500000Y-156600000D02*
X61000000Y-156600000D01*
X160200000Y-156600000D02*
G75*
G02*
X163000000Y-159400000I0J-2800000D01*
G01*
X143300000Y-156600000D02*
X75900000Y-156600000D01*
D11*
X75900000Y-168000000D02*
X143300000Y-168000000D01*
X160200000Y-156600000D02*
X147700000Y-156600000D01*
D10*
X163000000Y-151400000D02*
X163000000Y-145600000D01*
X61000000Y-154200000D02*
G75*
G02*
X58200000Y-151400000I0J2800000D01*
G01*
X71500000Y-154200000D02*
X61000000Y-154200000D01*
X58200000Y-145600000D02*
G75*
G02*
X61000000Y-142800000I2800000J0D01*
G01*
X147700000Y-154200000D02*
X160200000Y-154200000D01*
X163000000Y-151400000D02*
G75*
G02*
X160200000Y-154200000I-2800000J0D01*
G01*
X58200000Y-151400000D02*
X58200000Y-145600000D01*
X71500000Y-142800000D02*
X61000000Y-142800000D01*
X160200000Y-142800000D02*
G75*
G02*
X163000000Y-145600000I0J-2800000D01*
G01*
X143300000Y-142800000D02*
X75900000Y-142800000D01*
D11*
X75900000Y-154200000D02*
X143300000Y-154200000D01*
X160200000Y-142800000D02*
X147700000Y-142800000D01*
D10*
X163000000Y-137600000D02*
X163000000Y-131800000D01*
X61000000Y-140400000D02*
G75*
G02*
X58200000Y-137600000I0J2800000D01*
G01*
X71500000Y-140400000D02*
X61000000Y-140400000D01*
X58200000Y-131800000D02*
G75*
G02*
X61000000Y-129000000I2800000J0D01*
G01*
X147700000Y-140400000D02*
X160200000Y-140400000D01*
X163000000Y-137600000D02*
G75*
G02*
X160200000Y-140400000I-2800000J0D01*
G01*
X58200000Y-137600000D02*
X58200000Y-131800000D01*
X71500000Y-129000000D02*
X61000000Y-129000000D01*
X160200000Y-129000000D02*
G75*
G02*
X163000000Y-131800000I0J-2800000D01*
G01*
X143300000Y-129000000D02*
X75900000Y-129000000D01*
D11*
X75900000Y-140400000D02*
X143300000Y-140400000D01*
X160200000Y-129000000D02*
X147700000Y-129000000D01*
D10*
X163000000Y-123800000D02*
X163000000Y-118000000D01*
X61000000Y-126600000D02*
G75*
G02*
X58200000Y-123800000I0J2800000D01*
G01*
X71500000Y-126600000D02*
X61000000Y-126600000D01*
X58200000Y-118000000D02*
G75*
G02*
X61000000Y-115200000I2800000J0D01*
G01*
X147700000Y-126600000D02*
X160200000Y-126600000D01*
X163000000Y-123800000D02*
G75*
G02*
X160200000Y-126600000I-2800000J0D01*
G01*
X58200000Y-123800000D02*
X58200000Y-118000000D01*
X71500000Y-115200000D02*
X61000000Y-115200000D01*
X160200000Y-115200000D02*
G75*
G02*
X163000000Y-118000000I0J-2800000D01*
G01*
X143300000Y-115200000D02*
X75900000Y-115200000D01*
D11*
X75900000Y-126600000D02*
X143300000Y-126600000D01*
X160200000Y-115200000D02*
X147700000Y-115200000D01*
D10*
X163000000Y-110000000D02*
X163000000Y-104200000D01*
X61000000Y-112800000D02*
G75*
G02*
X58200000Y-110000000I0J2800000D01*
G01*
X71500000Y-112800000D02*
X61000000Y-112800000D01*
X58200000Y-104200000D02*
G75*
G02*
X61000000Y-101400000I2800000J0D01*
G01*
X147700000Y-112800000D02*
X160200000Y-112800000D01*
X163000000Y-110000000D02*
G75*
G02*
X160200000Y-112800000I-2800000J0D01*
G01*
X58200000Y-110000000D02*
X58200000Y-104200000D01*
X71500000Y-101400000D02*
X61000000Y-101400000D01*
X160200000Y-101400000D02*
G75*
G02*
X163000000Y-104200000I0J-2800000D01*
G01*
X143300000Y-101400000D02*
X75900000Y-101400000D01*
D11*
X75900000Y-112800000D02*
X143300000Y-112800000D01*
X160200000Y-101400000D02*
X147700000Y-101400000D01*
D10*
X163000000Y-96200000D02*
X163000000Y-90400000D01*
X61000000Y-99000000D02*
G75*
G02*
X58200000Y-96200000I0J2800000D01*
G01*
X71500000Y-99000000D02*
X61000000Y-99000000D01*
X58200000Y-90400000D02*
G75*
G02*
X61000000Y-87600000I2800000J0D01*
G01*
X147700000Y-99000000D02*
X160200000Y-99000000D01*
X163000000Y-96200000D02*
G75*
G02*
X160200000Y-99000000I-2800000J0D01*
G01*
X58200000Y-96200000D02*
X58200000Y-90400000D01*
X71500000Y-87600000D02*
X61000000Y-87600000D01*
X160200000Y-87600000D02*
G75*
G02*
X163000000Y-90400000I0J-2800000D01*
G01*
X143300000Y-87600000D02*
X75900000Y-87600000D01*
D11*
X75900000Y-99000000D02*
X143300000Y-99000000D01*
X160200000Y-87600000D02*
X147700000Y-87600000D01*
X160200000Y-73800000D02*
X147700000Y-73800000D01*
X75900000Y-85200000D02*
X143300000Y-85200000D01*
X71500000Y-184200000D02*
X61000000Y-184200000D01*
X75900000Y-71400000D02*
X143300000Y-71400000D01*
D10*
X163000000Y-192800000D02*
X163000000Y-187000000D01*
X61000000Y-195600000D02*
G75*
G02*
X58200000Y-192800000I0J2800000D01*
G01*
X75900000Y-195600000D02*
X61000000Y-195600000D01*
X58200000Y-187000000D02*
G75*
G02*
X61000000Y-184200000I2800000J0D01*
G01*
X147700000Y-195600000D02*
X160200000Y-195600000D01*
X163000000Y-192800000D02*
G75*
G02*
X160200000Y-195600000I-2800000J0D01*
G01*
X58200000Y-192800000D02*
X58200000Y-187000000D01*
X113489950Y-195600000D02*
X75900000Y-195600000D01*
X147700000Y-195600000D02*
X113489950Y-195600000D01*
X160200000Y-184200000D02*
G75*
G02*
X163000000Y-187000000I0J-2800000D01*
G01*
X147700000Y-184200000D02*
X160200000Y-184200000D01*
X143300000Y-184200000D02*
X75900000Y-184200000D01*
X71500000Y-73800000D02*
X61000000Y-73800000D01*
X143300000Y-73800000D02*
X75900000Y-73800000D01*
X160200000Y-73800000D02*
G75*
G02*
X163000000Y-76600000I0J-2800000D01*
G01*
X58200000Y-82400000D02*
X58200000Y-76600000D01*
X147700000Y-85200000D02*
X160200000Y-85200000D01*
X163000000Y-82400000D02*
G75*
G02*
X160200000Y-85200000I-2800000J0D01*
G01*
X163000000Y-82400000D02*
X163000000Y-76600000D01*
X61000000Y-85200000D02*
G75*
G02*
X58200000Y-82400000I0J2800000D01*
G01*
X58200000Y-76600000D02*
G75*
G02*
X61000000Y-73800000I2800000J0D01*
G01*
X71500000Y-85200000D02*
X61000000Y-85200000D01*
X160200000Y-60000000D02*
G75*
G02*
X163000000Y-62800000I0J-2800000D01*
G01*
X58200000Y-68600000D02*
X58200000Y-62800000D01*
X147700000Y-71400000D02*
X160200000Y-71400000D01*
X61000000Y-60000000D02*
X160200000Y-60000000D01*
X58200000Y-62800000D02*
G75*
G02*
X61000000Y-60000000I2800000J0D01*
G01*
X71500000Y-71400000D02*
X61000000Y-71400000D01*
X163000000Y-68600000D02*
G75*
G02*
X160200000Y-71400000I-2800000J0D01*
G01*
X61000000Y-71400000D02*
G75*
G02*
X58200000Y-68600000I0J2800000D01*
G01*
X163000000Y-68600000D02*
X163000000Y-62800000D01*
D11*
%TO.C,REF\u002A\u002A*%
X143300000Y-181800000D02*
G75*
G02*
X143300000Y-184200000I0J-1200000D01*
G01*
X147700000Y-184200000D02*
G75*
G02*
X147700000Y-181800000I0J1200000D01*
G01*
X71500000Y-181800000D02*
G75*
G02*
X71500000Y-184200000I0J-1200000D01*
G01*
X75900000Y-184200000D02*
G75*
G02*
X75900000Y-181800000I0J1200000D01*
G01*
X143300000Y-168000000D02*
G75*
G02*
X143300000Y-170400000I0J-1200000D01*
G01*
X147700000Y-170400000D02*
G75*
G02*
X147700000Y-168000000I0J1200000D01*
G01*
X71500000Y-168000000D02*
G75*
G02*
X71500000Y-170400000I0J-1200000D01*
G01*
X75900000Y-170400000D02*
G75*
G02*
X75900000Y-168000000I0J1200000D01*
G01*
X143300000Y-154200000D02*
G75*
G02*
X143300000Y-156600000I0J-1200000D01*
G01*
X147700000Y-156600000D02*
G75*
G02*
X147700000Y-154200000I0J1200000D01*
G01*
X71500000Y-154200000D02*
G75*
G02*
X71500000Y-156600000I0J-1200000D01*
G01*
X75900000Y-156600000D02*
G75*
G02*
X75900000Y-154200000I0J1200000D01*
G01*
X143300000Y-140400000D02*
G75*
G02*
X143300000Y-142800000I0J-1200000D01*
G01*
X147700000Y-142800000D02*
G75*
G02*
X147700000Y-140400000I0J1200000D01*
G01*
X71500000Y-140400000D02*
G75*
G02*
X71500000Y-142800000I0J-1200000D01*
G01*
X75900000Y-142800000D02*
G75*
G02*
X75900000Y-140400000I0J1200000D01*
G01*
X143300000Y-126600000D02*
G75*
G02*
X143300000Y-129000000I0J-1200000D01*
G01*
X147700000Y-129000000D02*
G75*
G02*
X147700000Y-126600000I0J1200000D01*
G01*
X71500000Y-126600000D02*
G75*
G02*
X71500000Y-129000000I0J-1200000D01*
G01*
X75900000Y-129000000D02*
G75*
G02*
X75900000Y-126600000I0J1200000D01*
G01*
X143300000Y-112800000D02*
G75*
G02*
X143300000Y-115200000I0J-1200000D01*
G01*
X147700000Y-115200000D02*
G75*
G02*
X147700000Y-112800000I0J1200000D01*
G01*
X71500000Y-112800000D02*
G75*
G02*
X71500000Y-115200000I0J-1200000D01*
G01*
X75900000Y-115200000D02*
G75*
G02*
X75900000Y-112800000I0J1200000D01*
G01*
X143300000Y-99000000D02*
G75*
G02*
X143300000Y-101400000I0J-1200000D01*
G01*
X147700000Y-101400000D02*
G75*
G02*
X147700000Y-99000000I0J1200000D01*
G01*
X71500000Y-99000000D02*
G75*
G02*
X71500000Y-101400000I0J-1200000D01*
G01*
X75900000Y-101400000D02*
G75*
G02*
X75900000Y-99000000I0J1200000D01*
G01*
X143300000Y-85200000D02*
G75*
G02*
X143300000Y-87600000I0J-1200000D01*
G01*
X147700000Y-87600000D02*
G75*
G02*
X147700000Y-85200000I0J1200000D01*
G01*
X71500000Y-85200000D02*
G75*
G02*
X71500000Y-87600000I0J-1200000D01*
G01*
X75900000Y-87600000D02*
G75*
G02*
X75900000Y-85200000I0J1200000D01*
G01*
X143300000Y-71400000D02*
G75*
G02*
X143300000Y-73800000I0J-1200000D01*
G01*
X147700000Y-73800000D02*
G75*
G02*
X147700000Y-71400000I0J1200000D01*
G01*
X71500000Y-71400000D02*
G75*
G02*
X71500000Y-73800000I0J-1200000D01*
G01*
X75900000Y-73800000D02*
G75*
G02*
X75900000Y-71400000I0J1200000D01*
G01*
%TD*%
M02*
