%TF.GenerationSoftware,KiCad,Pcbnew,8.0.0*%
%TF.CreationDate,2024-05-08T13:14:52+02:00*%
%TF.ProjectId,Breadboard_Friends_Rev1,42726561-6462-46f6-9172-645f46726965,rev?*%
%TF.SameCoordinates,Original*%
%TF.FileFunction,Legend,Bot*%
%TF.FilePolarity,Positive*%
%FSLAX46Y46*%
G04 Gerber Fmt 4.6, Leading zero omitted, Abs format (unit mm)*
G04 Created by KiCad (PCBNEW 8.0.0) date 2024-05-08 13:14:52*
%MOMM*%
%LPD*%
G01*
G04 APERTURE LIST*
%ADD10C,0.150000*%
%ADD11C,0.100000*%
%ADD12C,0.120000*%
G04 APERTURE END LIST*
D10*
X84210051Y-104010051D02*
X94410051Y-104010051D01*
X94410051Y-116810051D01*
X84210051Y-116810051D01*
X84210051Y-104010051D01*
G36*
X84210051Y-104010051D02*
G01*
X94410051Y-104010051D01*
X94410051Y-116810051D01*
X84210051Y-116810051D01*
X84210051Y-104010051D01*
G37*
X105310051Y-88610051D02*
X115510051Y-88610051D01*
X115510051Y-101410051D01*
X105310051Y-101410051D01*
X105310051Y-88610051D01*
G36*
X105310051Y-88610051D02*
G01*
X115510051Y-88610051D01*
X115510051Y-101410051D01*
X105310051Y-101410051D01*
X105310051Y-88610051D01*
G37*
X105310051Y-104010051D02*
X115510051Y-104010051D01*
X115510051Y-116810051D01*
X105310051Y-116810051D01*
X105310051Y-104010051D01*
G36*
X105310051Y-104010051D02*
G01*
X115510051Y-104010051D01*
X115510051Y-116810051D01*
X105310051Y-116810051D01*
X105310051Y-104010051D01*
G37*
X84210051Y-88610051D02*
X94410051Y-88610051D01*
X94410051Y-101410051D01*
X84210051Y-101410051D01*
X84210051Y-88610051D01*
G36*
X84210051Y-88610051D02*
G01*
X94410051Y-88610051D01*
X94410051Y-101410051D01*
X84210051Y-101410051D01*
X84210051Y-88610051D01*
G37*
X245034870Y-71600527D02*
X245749155Y-71600527D01*
X245749155Y-71600527D02*
X245892012Y-71552908D01*
X245892012Y-71552908D02*
X245987251Y-71457670D01*
X245987251Y-71457670D02*
X246034870Y-71314813D01*
X246034870Y-71314813D02*
X246034870Y-71219575D01*
X245368203Y-72505289D02*
X246034870Y-72505289D01*
X244987251Y-72267194D02*
X245701536Y-72029099D01*
X245701536Y-72029099D02*
X245701536Y-72648146D01*
X245034870Y-72933861D02*
X245034870Y-73552908D01*
X245034870Y-73552908D02*
X245415822Y-73219575D01*
X245415822Y-73219575D02*
X245415822Y-73362432D01*
X245415822Y-73362432D02*
X245463441Y-73457670D01*
X245463441Y-73457670D02*
X245511060Y-73505289D01*
X245511060Y-73505289D02*
X245606298Y-73552908D01*
X245606298Y-73552908D02*
X245844393Y-73552908D01*
X245844393Y-73552908D02*
X245939631Y-73505289D01*
X245939631Y-73505289D02*
X245987251Y-73457670D01*
X245987251Y-73457670D02*
X246034870Y-73362432D01*
X246034870Y-73362432D02*
X246034870Y-73076718D01*
X246034870Y-73076718D02*
X245987251Y-72981480D01*
X245987251Y-72981480D02*
X245939631Y-72933861D01*
X191644920Y-50200527D02*
X192359205Y-50200527D01*
X192359205Y-50200527D02*
X192502062Y-50152908D01*
X192502062Y-50152908D02*
X192597301Y-50057670D01*
X192597301Y-50057670D02*
X192644920Y-49914813D01*
X192644920Y-49914813D02*
X192644920Y-49819575D01*
X191644920Y-50581480D02*
X191644920Y-51200527D01*
X191644920Y-51200527D02*
X192025872Y-50867194D01*
X192025872Y-50867194D02*
X192025872Y-51010051D01*
X192025872Y-51010051D02*
X192073491Y-51105289D01*
X192073491Y-51105289D02*
X192121110Y-51152908D01*
X192121110Y-51152908D02*
X192216348Y-51200527D01*
X192216348Y-51200527D02*
X192454443Y-51200527D01*
X192454443Y-51200527D02*
X192549681Y-51152908D01*
X192549681Y-51152908D02*
X192597301Y-51105289D01*
X192597301Y-51105289D02*
X192644920Y-51010051D01*
X192644920Y-51010051D02*
X192644920Y-50724337D01*
X192644920Y-50724337D02*
X192597301Y-50629099D01*
X192597301Y-50629099D02*
X192549681Y-50581480D01*
X191740158Y-51581480D02*
X191692539Y-51629099D01*
X191692539Y-51629099D02*
X191644920Y-51724337D01*
X191644920Y-51724337D02*
X191644920Y-51962432D01*
X191644920Y-51962432D02*
X191692539Y-52057670D01*
X191692539Y-52057670D02*
X191740158Y-52105289D01*
X191740158Y-52105289D02*
X191835396Y-52152908D01*
X191835396Y-52152908D02*
X191930634Y-52152908D01*
X191930634Y-52152908D02*
X192073491Y-52105289D01*
X192073491Y-52105289D02*
X192644920Y-51533861D01*
X192644920Y-51533861D02*
X192644920Y-52152908D01*
X147044920Y-50200527D02*
X147759205Y-50200527D01*
X147759205Y-50200527D02*
X147902062Y-50152908D01*
X147902062Y-50152908D02*
X147997301Y-50057670D01*
X147997301Y-50057670D02*
X148044920Y-49914813D01*
X148044920Y-49914813D02*
X148044920Y-49819575D01*
X147140158Y-50629099D02*
X147092539Y-50676718D01*
X147092539Y-50676718D02*
X147044920Y-50771956D01*
X147044920Y-50771956D02*
X147044920Y-51010051D01*
X147044920Y-51010051D02*
X147092539Y-51105289D01*
X147092539Y-51105289D02*
X147140158Y-51152908D01*
X147140158Y-51152908D02*
X147235396Y-51200527D01*
X147235396Y-51200527D02*
X147330634Y-51200527D01*
X147330634Y-51200527D02*
X147473491Y-51152908D01*
X147473491Y-51152908D02*
X148044920Y-50581480D01*
X148044920Y-50581480D02*
X148044920Y-51200527D01*
X147044920Y-52105289D02*
X147044920Y-51629099D01*
X147044920Y-51629099D02*
X147521110Y-51581480D01*
X147521110Y-51581480D02*
X147473491Y-51629099D01*
X147473491Y-51629099D02*
X147425872Y-51724337D01*
X147425872Y-51724337D02*
X147425872Y-51962432D01*
X147425872Y-51962432D02*
X147473491Y-52057670D01*
X147473491Y-52057670D02*
X147521110Y-52105289D01*
X147521110Y-52105289D02*
X147616348Y-52152908D01*
X147616348Y-52152908D02*
X147854443Y-52152908D01*
X147854443Y-52152908D02*
X147949681Y-52105289D01*
X147949681Y-52105289D02*
X147997301Y-52057670D01*
X147997301Y-52057670D02*
X148044920Y-51962432D01*
X148044920Y-51962432D02*
X148044920Y-51724337D01*
X148044920Y-51724337D02*
X147997301Y-51629099D01*
X147997301Y-51629099D02*
X147949681Y-51581480D01*
X191234870Y-91600527D02*
X191949155Y-91600527D01*
X191949155Y-91600527D02*
X192092012Y-91552908D01*
X192092012Y-91552908D02*
X192187251Y-91457670D01*
X192187251Y-91457670D02*
X192234870Y-91314813D01*
X192234870Y-91314813D02*
X192234870Y-91219575D01*
X191234870Y-92552908D02*
X191234870Y-92076718D01*
X191234870Y-92076718D02*
X191711060Y-92029099D01*
X191711060Y-92029099D02*
X191663441Y-92076718D01*
X191663441Y-92076718D02*
X191615822Y-92171956D01*
X191615822Y-92171956D02*
X191615822Y-92410051D01*
X191615822Y-92410051D02*
X191663441Y-92505289D01*
X191663441Y-92505289D02*
X191711060Y-92552908D01*
X191711060Y-92552908D02*
X191806298Y-92600527D01*
X191806298Y-92600527D02*
X192044393Y-92600527D01*
X192044393Y-92600527D02*
X192139631Y-92552908D01*
X192139631Y-92552908D02*
X192187251Y-92505289D01*
X192187251Y-92505289D02*
X192234870Y-92410051D01*
X192234870Y-92410051D02*
X192234870Y-92171956D01*
X192234870Y-92171956D02*
X192187251Y-92076718D01*
X192187251Y-92076718D02*
X192139631Y-92029099D01*
X192234870Y-93552908D02*
X192234870Y-92981480D01*
X192234870Y-93267194D02*
X191234870Y-93267194D01*
X191234870Y-93267194D02*
X191377727Y-93171956D01*
X191377727Y-93171956D02*
X191472965Y-93076718D01*
X191472965Y-93076718D02*
X191520584Y-92981480D01*
X191249920Y-105400527D02*
X191964205Y-105400527D01*
X191964205Y-105400527D02*
X192107062Y-105352908D01*
X192107062Y-105352908D02*
X192202301Y-105257670D01*
X192202301Y-105257670D02*
X192249920Y-105114813D01*
X192249920Y-105114813D02*
X192249920Y-105019575D01*
X191249920Y-106352908D02*
X191249920Y-105876718D01*
X191249920Y-105876718D02*
X191726110Y-105829099D01*
X191726110Y-105829099D02*
X191678491Y-105876718D01*
X191678491Y-105876718D02*
X191630872Y-105971956D01*
X191630872Y-105971956D02*
X191630872Y-106210051D01*
X191630872Y-106210051D02*
X191678491Y-106305289D01*
X191678491Y-106305289D02*
X191726110Y-106352908D01*
X191726110Y-106352908D02*
X191821348Y-106400527D01*
X191821348Y-106400527D02*
X192059443Y-106400527D01*
X192059443Y-106400527D02*
X192154681Y-106352908D01*
X192154681Y-106352908D02*
X192202301Y-106305289D01*
X192202301Y-106305289D02*
X192249920Y-106210051D01*
X192249920Y-106210051D02*
X192249920Y-105971956D01*
X192249920Y-105971956D02*
X192202301Y-105876718D01*
X192202301Y-105876718D02*
X192154681Y-105829099D01*
X191249920Y-107305289D02*
X191249920Y-106829099D01*
X191249920Y-106829099D02*
X191726110Y-106781480D01*
X191726110Y-106781480D02*
X191678491Y-106829099D01*
X191678491Y-106829099D02*
X191630872Y-106924337D01*
X191630872Y-106924337D02*
X191630872Y-107162432D01*
X191630872Y-107162432D02*
X191678491Y-107257670D01*
X191678491Y-107257670D02*
X191726110Y-107305289D01*
X191726110Y-107305289D02*
X191821348Y-107352908D01*
X191821348Y-107352908D02*
X192059443Y-107352908D01*
X192059443Y-107352908D02*
X192154681Y-107305289D01*
X192154681Y-107305289D02*
X192202301Y-107257670D01*
X192202301Y-107257670D02*
X192249920Y-107162432D01*
X192249920Y-107162432D02*
X192249920Y-106924337D01*
X192249920Y-106924337D02*
X192202301Y-106829099D01*
X192202301Y-106829099D02*
X192154681Y-106781480D01*
X245434920Y-57800527D02*
X246149205Y-57800527D01*
X246149205Y-57800527D02*
X246292062Y-57752908D01*
X246292062Y-57752908D02*
X246387301Y-57657670D01*
X246387301Y-57657670D02*
X246434920Y-57514813D01*
X246434920Y-57514813D02*
X246434920Y-57419575D01*
X245768253Y-58705289D02*
X246434920Y-58705289D01*
X245387301Y-58467194D02*
X246101586Y-58229099D01*
X246101586Y-58229099D02*
X246101586Y-58848146D01*
X245530158Y-59181480D02*
X245482539Y-59229099D01*
X245482539Y-59229099D02*
X245434920Y-59324337D01*
X245434920Y-59324337D02*
X245434920Y-59562432D01*
X245434920Y-59562432D02*
X245482539Y-59657670D01*
X245482539Y-59657670D02*
X245530158Y-59705289D01*
X245530158Y-59705289D02*
X245625396Y-59752908D01*
X245625396Y-59752908D02*
X245720634Y-59752908D01*
X245720634Y-59752908D02*
X245863491Y-59705289D01*
X245863491Y-59705289D02*
X246434920Y-59133861D01*
X246434920Y-59133861D02*
X246434920Y-59752908D01*
X191234870Y-119200527D02*
X191949155Y-119200527D01*
X191949155Y-119200527D02*
X192092012Y-119152908D01*
X192092012Y-119152908D02*
X192187251Y-119057670D01*
X192187251Y-119057670D02*
X192234870Y-118914813D01*
X192234870Y-118914813D02*
X192234870Y-118819575D01*
X191234870Y-120152908D02*
X191234870Y-119676718D01*
X191234870Y-119676718D02*
X191711060Y-119629099D01*
X191711060Y-119629099D02*
X191663441Y-119676718D01*
X191663441Y-119676718D02*
X191615822Y-119771956D01*
X191615822Y-119771956D02*
X191615822Y-120010051D01*
X191615822Y-120010051D02*
X191663441Y-120105289D01*
X191663441Y-120105289D02*
X191711060Y-120152908D01*
X191711060Y-120152908D02*
X191806298Y-120200527D01*
X191806298Y-120200527D02*
X192044393Y-120200527D01*
X192044393Y-120200527D02*
X192139631Y-120152908D01*
X192139631Y-120152908D02*
X192187251Y-120105289D01*
X192187251Y-120105289D02*
X192234870Y-120010051D01*
X192234870Y-120010051D02*
X192234870Y-119771956D01*
X192234870Y-119771956D02*
X192187251Y-119676718D01*
X192187251Y-119676718D02*
X192139631Y-119629099D01*
X192234870Y-120676718D02*
X192234870Y-120867194D01*
X192234870Y-120867194D02*
X192187251Y-120962432D01*
X192187251Y-120962432D02*
X192139631Y-121010051D01*
X192139631Y-121010051D02*
X191996774Y-121105289D01*
X191996774Y-121105289D02*
X191806298Y-121152908D01*
X191806298Y-121152908D02*
X191425346Y-121152908D01*
X191425346Y-121152908D02*
X191330108Y-121105289D01*
X191330108Y-121105289D02*
X191282489Y-121057670D01*
X191282489Y-121057670D02*
X191234870Y-120962432D01*
X191234870Y-120962432D02*
X191234870Y-120771956D01*
X191234870Y-120771956D02*
X191282489Y-120676718D01*
X191282489Y-120676718D02*
X191330108Y-120629099D01*
X191330108Y-120629099D02*
X191425346Y-120581480D01*
X191425346Y-120581480D02*
X191663441Y-120581480D01*
X191663441Y-120581480D02*
X191758679Y-120629099D01*
X191758679Y-120629099D02*
X191806298Y-120676718D01*
X191806298Y-120676718D02*
X191853917Y-120771956D01*
X191853917Y-120771956D02*
X191853917Y-120962432D01*
X191853917Y-120962432D02*
X191806298Y-121057670D01*
X191806298Y-121057670D02*
X191758679Y-121105289D01*
X191758679Y-121105289D02*
X191663441Y-121152908D01*
X191234870Y-71600527D02*
X191949155Y-71600527D01*
X191949155Y-71600527D02*
X192092012Y-71552908D01*
X192092012Y-71552908D02*
X192187251Y-71457670D01*
X192187251Y-71457670D02*
X192234870Y-71314813D01*
X192234870Y-71314813D02*
X192234870Y-71219575D01*
X191234870Y-71981480D02*
X191234870Y-72600527D01*
X191234870Y-72600527D02*
X191615822Y-72267194D01*
X191615822Y-72267194D02*
X191615822Y-72410051D01*
X191615822Y-72410051D02*
X191663441Y-72505289D01*
X191663441Y-72505289D02*
X191711060Y-72552908D01*
X191711060Y-72552908D02*
X191806298Y-72600527D01*
X191806298Y-72600527D02*
X192044393Y-72600527D01*
X192044393Y-72600527D02*
X192139631Y-72552908D01*
X192139631Y-72552908D02*
X192187251Y-72505289D01*
X192187251Y-72505289D02*
X192234870Y-72410051D01*
X192234870Y-72410051D02*
X192234870Y-72124337D01*
X192234870Y-72124337D02*
X192187251Y-72029099D01*
X192187251Y-72029099D02*
X192139631Y-71981480D01*
X191234870Y-73505289D02*
X191234870Y-73029099D01*
X191234870Y-73029099D02*
X191711060Y-72981480D01*
X191711060Y-72981480D02*
X191663441Y-73029099D01*
X191663441Y-73029099D02*
X191615822Y-73124337D01*
X191615822Y-73124337D02*
X191615822Y-73362432D01*
X191615822Y-73362432D02*
X191663441Y-73457670D01*
X191663441Y-73457670D02*
X191711060Y-73505289D01*
X191711060Y-73505289D02*
X191806298Y-73552908D01*
X191806298Y-73552908D02*
X192044393Y-73552908D01*
X192044393Y-73552908D02*
X192139631Y-73505289D01*
X192139631Y-73505289D02*
X192187251Y-73457670D01*
X192187251Y-73457670D02*
X192234870Y-73362432D01*
X192234870Y-73362432D02*
X192234870Y-73124337D01*
X192234870Y-73124337D02*
X192187251Y-73029099D01*
X192187251Y-73029099D02*
X192139631Y-72981480D01*
X191234870Y-126800527D02*
X191949155Y-126800527D01*
X191949155Y-126800527D02*
X192092012Y-126752908D01*
X192092012Y-126752908D02*
X192187251Y-126657670D01*
X192187251Y-126657670D02*
X192234870Y-126514813D01*
X192234870Y-126514813D02*
X192234870Y-126419575D01*
X191234870Y-127705289D02*
X191234870Y-127514813D01*
X191234870Y-127514813D02*
X191282489Y-127419575D01*
X191282489Y-127419575D02*
X191330108Y-127371956D01*
X191330108Y-127371956D02*
X191472965Y-127276718D01*
X191472965Y-127276718D02*
X191663441Y-127229099D01*
X191663441Y-127229099D02*
X192044393Y-127229099D01*
X192044393Y-127229099D02*
X192139631Y-127276718D01*
X192139631Y-127276718D02*
X192187251Y-127324337D01*
X192187251Y-127324337D02*
X192234870Y-127419575D01*
X192234870Y-127419575D02*
X192234870Y-127610051D01*
X192234870Y-127610051D02*
X192187251Y-127705289D01*
X192187251Y-127705289D02*
X192139631Y-127752908D01*
X192139631Y-127752908D02*
X192044393Y-127800527D01*
X192044393Y-127800527D02*
X191806298Y-127800527D01*
X191806298Y-127800527D02*
X191711060Y-127752908D01*
X191711060Y-127752908D02*
X191663441Y-127705289D01*
X191663441Y-127705289D02*
X191615822Y-127610051D01*
X191615822Y-127610051D02*
X191615822Y-127419575D01*
X191615822Y-127419575D02*
X191663441Y-127324337D01*
X191663441Y-127324337D02*
X191711060Y-127276718D01*
X191711060Y-127276718D02*
X191806298Y-127229099D01*
X191234870Y-128419575D02*
X191234870Y-128514813D01*
X191234870Y-128514813D02*
X191282489Y-128610051D01*
X191282489Y-128610051D02*
X191330108Y-128657670D01*
X191330108Y-128657670D02*
X191425346Y-128705289D01*
X191425346Y-128705289D02*
X191615822Y-128752908D01*
X191615822Y-128752908D02*
X191853917Y-128752908D01*
X191853917Y-128752908D02*
X192044393Y-128705289D01*
X192044393Y-128705289D02*
X192139631Y-128657670D01*
X192139631Y-128657670D02*
X192187251Y-128610051D01*
X192187251Y-128610051D02*
X192234870Y-128514813D01*
X192234870Y-128514813D02*
X192234870Y-128419575D01*
X192234870Y-128419575D02*
X192187251Y-128324337D01*
X192187251Y-128324337D02*
X192139631Y-128276718D01*
X192139631Y-128276718D02*
X192044393Y-128229099D01*
X192044393Y-128229099D02*
X191853917Y-128181480D01*
X191853917Y-128181480D02*
X191615822Y-128181480D01*
X191615822Y-128181480D02*
X191425346Y-128229099D01*
X191425346Y-128229099D02*
X191330108Y-128276718D01*
X191330108Y-128276718D02*
X191282489Y-128324337D01*
X191282489Y-128324337D02*
X191234870Y-128419575D01*
X191244920Y-77800527D02*
X191959205Y-77800527D01*
X191959205Y-77800527D02*
X192102062Y-77752908D01*
X192102062Y-77752908D02*
X192197301Y-77657670D01*
X192197301Y-77657670D02*
X192244920Y-77514813D01*
X192244920Y-77514813D02*
X192244920Y-77419575D01*
X191578253Y-78705289D02*
X192244920Y-78705289D01*
X191197301Y-78467194D02*
X191911586Y-78229099D01*
X191911586Y-78229099D02*
X191911586Y-78848146D01*
X191244920Y-79657670D02*
X191244920Y-79467194D01*
X191244920Y-79467194D02*
X191292539Y-79371956D01*
X191292539Y-79371956D02*
X191340158Y-79324337D01*
X191340158Y-79324337D02*
X191483015Y-79229099D01*
X191483015Y-79229099D02*
X191673491Y-79181480D01*
X191673491Y-79181480D02*
X192054443Y-79181480D01*
X192054443Y-79181480D02*
X192149681Y-79229099D01*
X192149681Y-79229099D02*
X192197301Y-79276718D01*
X192197301Y-79276718D02*
X192244920Y-79371956D01*
X192244920Y-79371956D02*
X192244920Y-79562432D01*
X192244920Y-79562432D02*
X192197301Y-79657670D01*
X192197301Y-79657670D02*
X192149681Y-79705289D01*
X192149681Y-79705289D02*
X192054443Y-79752908D01*
X192054443Y-79752908D02*
X191816348Y-79752908D01*
X191816348Y-79752908D02*
X191721110Y-79705289D01*
X191721110Y-79705289D02*
X191673491Y-79657670D01*
X191673491Y-79657670D02*
X191625872Y-79562432D01*
X191625872Y-79562432D02*
X191625872Y-79371956D01*
X191625872Y-79371956D02*
X191673491Y-79276718D01*
X191673491Y-79276718D02*
X191721110Y-79229099D01*
X191721110Y-79229099D02*
X191816348Y-79181480D01*
X191644920Y-57800527D02*
X192359205Y-57800527D01*
X192359205Y-57800527D02*
X192502062Y-57752908D01*
X192502062Y-57752908D02*
X192597301Y-57657670D01*
X192597301Y-57657670D02*
X192644920Y-57514813D01*
X192644920Y-57514813D02*
X192644920Y-57419575D01*
X191644920Y-58181480D02*
X191644920Y-58800527D01*
X191644920Y-58800527D02*
X192025872Y-58467194D01*
X192025872Y-58467194D02*
X192025872Y-58610051D01*
X192025872Y-58610051D02*
X192073491Y-58705289D01*
X192073491Y-58705289D02*
X192121110Y-58752908D01*
X192121110Y-58752908D02*
X192216348Y-58800527D01*
X192216348Y-58800527D02*
X192454443Y-58800527D01*
X192454443Y-58800527D02*
X192549681Y-58752908D01*
X192549681Y-58752908D02*
X192597301Y-58705289D01*
X192597301Y-58705289D02*
X192644920Y-58610051D01*
X192644920Y-58610051D02*
X192644920Y-58324337D01*
X192644920Y-58324337D02*
X192597301Y-58229099D01*
X192597301Y-58229099D02*
X192549681Y-58181480D01*
X191978253Y-59657670D02*
X192644920Y-59657670D01*
X191597301Y-59419575D02*
X192311586Y-59181480D01*
X192311586Y-59181480D02*
X192311586Y-59800527D01*
X146644920Y-105400527D02*
X147359205Y-105400527D01*
X147359205Y-105400527D02*
X147502062Y-105352908D01*
X147502062Y-105352908D02*
X147597301Y-105257670D01*
X147597301Y-105257670D02*
X147644920Y-105114813D01*
X147644920Y-105114813D02*
X147644920Y-105019575D01*
X146644920Y-106352908D02*
X146644920Y-105876718D01*
X146644920Y-105876718D02*
X147121110Y-105829099D01*
X147121110Y-105829099D02*
X147073491Y-105876718D01*
X147073491Y-105876718D02*
X147025872Y-105971956D01*
X147025872Y-105971956D02*
X147025872Y-106210051D01*
X147025872Y-106210051D02*
X147073491Y-106305289D01*
X147073491Y-106305289D02*
X147121110Y-106352908D01*
X147121110Y-106352908D02*
X147216348Y-106400527D01*
X147216348Y-106400527D02*
X147454443Y-106400527D01*
X147454443Y-106400527D02*
X147549681Y-106352908D01*
X147549681Y-106352908D02*
X147597301Y-106305289D01*
X147597301Y-106305289D02*
X147644920Y-106210051D01*
X147644920Y-106210051D02*
X147644920Y-105971956D01*
X147644920Y-105971956D02*
X147597301Y-105876718D01*
X147597301Y-105876718D02*
X147549681Y-105829099D01*
X146644920Y-106733861D02*
X146644920Y-107352908D01*
X146644920Y-107352908D02*
X147025872Y-107019575D01*
X147025872Y-107019575D02*
X147025872Y-107162432D01*
X147025872Y-107162432D02*
X147073491Y-107257670D01*
X147073491Y-107257670D02*
X147121110Y-107305289D01*
X147121110Y-107305289D02*
X147216348Y-107352908D01*
X147216348Y-107352908D02*
X147454443Y-107352908D01*
X147454443Y-107352908D02*
X147549681Y-107305289D01*
X147549681Y-107305289D02*
X147597301Y-107257670D01*
X147597301Y-107257670D02*
X147644920Y-107162432D01*
X147644920Y-107162432D02*
X147644920Y-106876718D01*
X147644920Y-106876718D02*
X147597301Y-106781480D01*
X147597301Y-106781480D02*
X147549681Y-106733861D01*
X97852517Y-114737813D02*
X97852517Y-115452098D01*
X97852517Y-115452098D02*
X97900136Y-115594955D01*
X97900136Y-115594955D02*
X97995374Y-115690194D01*
X97995374Y-115690194D02*
X98138231Y-115737813D01*
X98138231Y-115737813D02*
X98233469Y-115737813D01*
X96947755Y-114737813D02*
X97138231Y-114737813D01*
X97138231Y-114737813D02*
X97233469Y-114785432D01*
X97233469Y-114785432D02*
X97281088Y-114833051D01*
X97281088Y-114833051D02*
X97376326Y-114975908D01*
X97376326Y-114975908D02*
X97423945Y-115166384D01*
X97423945Y-115166384D02*
X97423945Y-115547336D01*
X97423945Y-115547336D02*
X97376326Y-115642574D01*
X97376326Y-115642574D02*
X97328707Y-115690194D01*
X97328707Y-115690194D02*
X97233469Y-115737813D01*
X97233469Y-115737813D02*
X97042993Y-115737813D01*
X97042993Y-115737813D02*
X96947755Y-115690194D01*
X96947755Y-115690194D02*
X96900136Y-115642574D01*
X96900136Y-115642574D02*
X96852517Y-115547336D01*
X96852517Y-115547336D02*
X96852517Y-115309241D01*
X96852517Y-115309241D02*
X96900136Y-115214003D01*
X96900136Y-115214003D02*
X96947755Y-115166384D01*
X96947755Y-115166384D02*
X97042993Y-115118765D01*
X97042993Y-115118765D02*
X97233469Y-115118765D01*
X97233469Y-115118765D02*
X97328707Y-115166384D01*
X97328707Y-115166384D02*
X97376326Y-115214003D01*
X97376326Y-115214003D02*
X97423945Y-115309241D01*
X95995374Y-115071146D02*
X95995374Y-115737813D01*
X96233469Y-114690194D02*
X96471564Y-115404479D01*
X96471564Y-115404479D02*
X95852517Y-115404479D01*
X191244920Y-85400527D02*
X191959205Y-85400527D01*
X191959205Y-85400527D02*
X192102062Y-85352908D01*
X192102062Y-85352908D02*
X192197301Y-85257670D01*
X192197301Y-85257670D02*
X192244920Y-85114813D01*
X192244920Y-85114813D02*
X192244920Y-85019575D01*
X191578253Y-86305289D02*
X192244920Y-86305289D01*
X191197301Y-86067194D02*
X191911586Y-85829099D01*
X191911586Y-85829099D02*
X191911586Y-86448146D01*
X191244920Y-86733861D02*
X191244920Y-87400527D01*
X191244920Y-87400527D02*
X192244920Y-86971956D01*
X191244920Y-113000527D02*
X191959205Y-113000527D01*
X191959205Y-113000527D02*
X192102062Y-112952908D01*
X192102062Y-112952908D02*
X192197301Y-112857670D01*
X192197301Y-112857670D02*
X192244920Y-112714813D01*
X192244920Y-112714813D02*
X192244920Y-112619575D01*
X191244920Y-113952908D02*
X191244920Y-113476718D01*
X191244920Y-113476718D02*
X191721110Y-113429099D01*
X191721110Y-113429099D02*
X191673491Y-113476718D01*
X191673491Y-113476718D02*
X191625872Y-113571956D01*
X191625872Y-113571956D02*
X191625872Y-113810051D01*
X191625872Y-113810051D02*
X191673491Y-113905289D01*
X191673491Y-113905289D02*
X191721110Y-113952908D01*
X191721110Y-113952908D02*
X191816348Y-114000527D01*
X191816348Y-114000527D02*
X192054443Y-114000527D01*
X192054443Y-114000527D02*
X192149681Y-113952908D01*
X192149681Y-113952908D02*
X192197301Y-113905289D01*
X192197301Y-113905289D02*
X192244920Y-113810051D01*
X192244920Y-113810051D02*
X192244920Y-113571956D01*
X192244920Y-113571956D02*
X192197301Y-113476718D01*
X192197301Y-113476718D02*
X192149681Y-113429099D01*
X191244920Y-114857670D02*
X191244920Y-114667194D01*
X191244920Y-114667194D02*
X191292539Y-114571956D01*
X191292539Y-114571956D02*
X191340158Y-114524337D01*
X191340158Y-114524337D02*
X191483015Y-114429099D01*
X191483015Y-114429099D02*
X191673491Y-114381480D01*
X191673491Y-114381480D02*
X192054443Y-114381480D01*
X192054443Y-114381480D02*
X192149681Y-114429099D01*
X192149681Y-114429099D02*
X192197301Y-114476718D01*
X192197301Y-114476718D02*
X192244920Y-114571956D01*
X192244920Y-114571956D02*
X192244920Y-114762432D01*
X192244920Y-114762432D02*
X192197301Y-114857670D01*
X192197301Y-114857670D02*
X192149681Y-114905289D01*
X192149681Y-114905289D02*
X192054443Y-114952908D01*
X192054443Y-114952908D02*
X191816348Y-114952908D01*
X191816348Y-114952908D02*
X191721110Y-114905289D01*
X191721110Y-114905289D02*
X191673491Y-114857670D01*
X191673491Y-114857670D02*
X191625872Y-114762432D01*
X191625872Y-114762432D02*
X191625872Y-114571956D01*
X191625872Y-114571956D02*
X191673491Y-114476718D01*
X191673491Y-114476718D02*
X191721110Y-114429099D01*
X191721110Y-114429099D02*
X191816348Y-114381480D01*
X245444920Y-50200527D02*
X246159205Y-50200527D01*
X246159205Y-50200527D02*
X246302062Y-50152908D01*
X246302062Y-50152908D02*
X246397301Y-50057670D01*
X246397301Y-50057670D02*
X246444920Y-49914813D01*
X246444920Y-49914813D02*
X246444920Y-49819575D01*
X245778253Y-51105289D02*
X246444920Y-51105289D01*
X245397301Y-50867194D02*
X246111586Y-50629099D01*
X246111586Y-50629099D02*
X246111586Y-51248146D01*
X245444920Y-51819575D02*
X245444920Y-51914813D01*
X245444920Y-51914813D02*
X245492539Y-52010051D01*
X245492539Y-52010051D02*
X245540158Y-52057670D01*
X245540158Y-52057670D02*
X245635396Y-52105289D01*
X245635396Y-52105289D02*
X245825872Y-52152908D01*
X245825872Y-52152908D02*
X246063967Y-52152908D01*
X246063967Y-52152908D02*
X246254443Y-52105289D01*
X246254443Y-52105289D02*
X246349681Y-52057670D01*
X246349681Y-52057670D02*
X246397301Y-52010051D01*
X246397301Y-52010051D02*
X246444920Y-51914813D01*
X246444920Y-51914813D02*
X246444920Y-51819575D01*
X246444920Y-51819575D02*
X246397301Y-51724337D01*
X246397301Y-51724337D02*
X246349681Y-51676718D01*
X246349681Y-51676718D02*
X246254443Y-51629099D01*
X246254443Y-51629099D02*
X246063967Y-51581480D01*
X246063967Y-51581480D02*
X245825872Y-51581480D01*
X245825872Y-51581480D02*
X245635396Y-51629099D01*
X245635396Y-51629099D02*
X245540158Y-51676718D01*
X245540158Y-51676718D02*
X245492539Y-51724337D01*
X245492539Y-51724337D02*
X245444920Y-51819575D01*
X146644920Y-77800527D02*
X147359205Y-77800527D01*
X147359205Y-77800527D02*
X147502062Y-77752908D01*
X147502062Y-77752908D02*
X147597301Y-77657670D01*
X147597301Y-77657670D02*
X147644920Y-77514813D01*
X147644920Y-77514813D02*
X147644920Y-77419575D01*
X146978253Y-78705289D02*
X147644920Y-78705289D01*
X146597301Y-78467194D02*
X147311586Y-78229099D01*
X147311586Y-78229099D02*
X147311586Y-78848146D01*
X146978253Y-79657670D02*
X147644920Y-79657670D01*
X146597301Y-79419575D02*
X147311586Y-79181480D01*
X147311586Y-79181480D02*
X147311586Y-79800527D01*
X200844920Y-57800527D02*
X201559205Y-57800527D01*
X201559205Y-57800527D02*
X201702062Y-57752908D01*
X201702062Y-57752908D02*
X201797301Y-57657670D01*
X201797301Y-57657670D02*
X201844920Y-57514813D01*
X201844920Y-57514813D02*
X201844920Y-57419575D01*
X200844920Y-58181480D02*
X200844920Y-58800527D01*
X200844920Y-58800527D02*
X201225872Y-58467194D01*
X201225872Y-58467194D02*
X201225872Y-58610051D01*
X201225872Y-58610051D02*
X201273491Y-58705289D01*
X201273491Y-58705289D02*
X201321110Y-58752908D01*
X201321110Y-58752908D02*
X201416348Y-58800527D01*
X201416348Y-58800527D02*
X201654443Y-58800527D01*
X201654443Y-58800527D02*
X201749681Y-58752908D01*
X201749681Y-58752908D02*
X201797301Y-58705289D01*
X201797301Y-58705289D02*
X201844920Y-58610051D01*
X201844920Y-58610051D02*
X201844920Y-58324337D01*
X201844920Y-58324337D02*
X201797301Y-58229099D01*
X201797301Y-58229099D02*
X201749681Y-58181480D01*
X201273491Y-59371956D02*
X201225872Y-59276718D01*
X201225872Y-59276718D02*
X201178253Y-59229099D01*
X201178253Y-59229099D02*
X201083015Y-59181480D01*
X201083015Y-59181480D02*
X201035396Y-59181480D01*
X201035396Y-59181480D02*
X200940158Y-59229099D01*
X200940158Y-59229099D02*
X200892539Y-59276718D01*
X200892539Y-59276718D02*
X200844920Y-59371956D01*
X200844920Y-59371956D02*
X200844920Y-59562432D01*
X200844920Y-59562432D02*
X200892539Y-59657670D01*
X200892539Y-59657670D02*
X200940158Y-59705289D01*
X200940158Y-59705289D02*
X201035396Y-59752908D01*
X201035396Y-59752908D02*
X201083015Y-59752908D01*
X201083015Y-59752908D02*
X201178253Y-59705289D01*
X201178253Y-59705289D02*
X201225872Y-59657670D01*
X201225872Y-59657670D02*
X201273491Y-59562432D01*
X201273491Y-59562432D02*
X201273491Y-59371956D01*
X201273491Y-59371956D02*
X201321110Y-59276718D01*
X201321110Y-59276718D02*
X201368729Y-59229099D01*
X201368729Y-59229099D02*
X201463967Y-59181480D01*
X201463967Y-59181480D02*
X201654443Y-59181480D01*
X201654443Y-59181480D02*
X201749681Y-59229099D01*
X201749681Y-59229099D02*
X201797301Y-59276718D01*
X201797301Y-59276718D02*
X201844920Y-59371956D01*
X201844920Y-59371956D02*
X201844920Y-59562432D01*
X201844920Y-59562432D02*
X201797301Y-59657670D01*
X201797301Y-59657670D02*
X201749681Y-59705289D01*
X201749681Y-59705289D02*
X201654443Y-59752908D01*
X201654443Y-59752908D02*
X201463967Y-59752908D01*
X201463967Y-59752908D02*
X201368729Y-59705289D01*
X201368729Y-59705289D02*
X201321110Y-59657670D01*
X201321110Y-59657670D02*
X201273491Y-59562432D01*
X146644920Y-85400527D02*
X147359205Y-85400527D01*
X147359205Y-85400527D02*
X147502062Y-85352908D01*
X147502062Y-85352908D02*
X147597301Y-85257670D01*
X147597301Y-85257670D02*
X147644920Y-85114813D01*
X147644920Y-85114813D02*
X147644920Y-85019575D01*
X146978253Y-86305289D02*
X147644920Y-86305289D01*
X146597301Y-86067194D02*
X147311586Y-85829099D01*
X147311586Y-85829099D02*
X147311586Y-86448146D01*
X146644920Y-87305289D02*
X146644920Y-86829099D01*
X146644920Y-86829099D02*
X147121110Y-86781480D01*
X147121110Y-86781480D02*
X147073491Y-86829099D01*
X147073491Y-86829099D02*
X147025872Y-86924337D01*
X147025872Y-86924337D02*
X147025872Y-87162432D01*
X147025872Y-87162432D02*
X147073491Y-87257670D01*
X147073491Y-87257670D02*
X147121110Y-87305289D01*
X147121110Y-87305289D02*
X147216348Y-87352908D01*
X147216348Y-87352908D02*
X147454443Y-87352908D01*
X147454443Y-87352908D02*
X147549681Y-87305289D01*
X147549681Y-87305289D02*
X147597301Y-87257670D01*
X147597301Y-87257670D02*
X147644920Y-87162432D01*
X147644920Y-87162432D02*
X147644920Y-86924337D01*
X147644920Y-86924337D02*
X147597301Y-86829099D01*
X147597301Y-86829099D02*
X147549681Y-86781480D01*
X200844920Y-50200527D02*
X201559205Y-50200527D01*
X201559205Y-50200527D02*
X201702062Y-50152908D01*
X201702062Y-50152908D02*
X201797301Y-50057670D01*
X201797301Y-50057670D02*
X201844920Y-49914813D01*
X201844920Y-49914813D02*
X201844920Y-49819575D01*
X200844920Y-50581480D02*
X200844920Y-51200527D01*
X200844920Y-51200527D02*
X201225872Y-50867194D01*
X201225872Y-50867194D02*
X201225872Y-51010051D01*
X201225872Y-51010051D02*
X201273491Y-51105289D01*
X201273491Y-51105289D02*
X201321110Y-51152908D01*
X201321110Y-51152908D02*
X201416348Y-51200527D01*
X201416348Y-51200527D02*
X201654443Y-51200527D01*
X201654443Y-51200527D02*
X201749681Y-51152908D01*
X201749681Y-51152908D02*
X201797301Y-51105289D01*
X201797301Y-51105289D02*
X201844920Y-51010051D01*
X201844920Y-51010051D02*
X201844920Y-50724337D01*
X201844920Y-50724337D02*
X201797301Y-50629099D01*
X201797301Y-50629099D02*
X201749681Y-50581480D01*
X200844920Y-52057670D02*
X200844920Y-51867194D01*
X200844920Y-51867194D02*
X200892539Y-51771956D01*
X200892539Y-51771956D02*
X200940158Y-51724337D01*
X200940158Y-51724337D02*
X201083015Y-51629099D01*
X201083015Y-51629099D02*
X201273491Y-51581480D01*
X201273491Y-51581480D02*
X201654443Y-51581480D01*
X201654443Y-51581480D02*
X201749681Y-51629099D01*
X201749681Y-51629099D02*
X201797301Y-51676718D01*
X201797301Y-51676718D02*
X201844920Y-51771956D01*
X201844920Y-51771956D02*
X201844920Y-51962432D01*
X201844920Y-51962432D02*
X201797301Y-52057670D01*
X201797301Y-52057670D02*
X201749681Y-52105289D01*
X201749681Y-52105289D02*
X201654443Y-52152908D01*
X201654443Y-52152908D02*
X201416348Y-52152908D01*
X201416348Y-52152908D02*
X201321110Y-52105289D01*
X201321110Y-52105289D02*
X201273491Y-52057670D01*
X201273491Y-52057670D02*
X201225872Y-51962432D01*
X201225872Y-51962432D02*
X201225872Y-51771956D01*
X201225872Y-51771956D02*
X201273491Y-51676718D01*
X201273491Y-51676718D02*
X201321110Y-51629099D01*
X201321110Y-51629099D02*
X201416348Y-51581480D01*
X245034870Y-64000527D02*
X245749155Y-64000527D01*
X245749155Y-64000527D02*
X245892012Y-63952908D01*
X245892012Y-63952908D02*
X245987251Y-63857670D01*
X245987251Y-63857670D02*
X246034870Y-63714813D01*
X246034870Y-63714813D02*
X246034870Y-63619575D01*
X245368203Y-64905289D02*
X246034870Y-64905289D01*
X244987251Y-64667194D02*
X245701536Y-64429099D01*
X245701536Y-64429099D02*
X245701536Y-65048146D01*
X246034870Y-65952908D02*
X246034870Y-65381480D01*
X246034870Y-65667194D02*
X245034870Y-65667194D01*
X245034870Y-65667194D02*
X245177727Y-65571956D01*
X245177727Y-65571956D02*
X245272965Y-65476718D01*
X245272965Y-65476718D02*
X245320584Y-65381480D01*
X146634870Y-119200527D02*
X147349155Y-119200527D01*
X147349155Y-119200527D02*
X147492012Y-119152908D01*
X147492012Y-119152908D02*
X147587251Y-119057670D01*
X147587251Y-119057670D02*
X147634870Y-118914813D01*
X147634870Y-118914813D02*
X147634870Y-118819575D01*
X146634870Y-120152908D02*
X146634870Y-119676718D01*
X146634870Y-119676718D02*
X147111060Y-119629099D01*
X147111060Y-119629099D02*
X147063441Y-119676718D01*
X147063441Y-119676718D02*
X147015822Y-119771956D01*
X147015822Y-119771956D02*
X147015822Y-120010051D01*
X147015822Y-120010051D02*
X147063441Y-120105289D01*
X147063441Y-120105289D02*
X147111060Y-120152908D01*
X147111060Y-120152908D02*
X147206298Y-120200527D01*
X147206298Y-120200527D02*
X147444393Y-120200527D01*
X147444393Y-120200527D02*
X147539631Y-120152908D01*
X147539631Y-120152908D02*
X147587251Y-120105289D01*
X147587251Y-120105289D02*
X147634870Y-120010051D01*
X147634870Y-120010051D02*
X147634870Y-119771956D01*
X147634870Y-119771956D02*
X147587251Y-119676718D01*
X147587251Y-119676718D02*
X147539631Y-119629099D01*
X146634870Y-120533861D02*
X146634870Y-121200527D01*
X146634870Y-121200527D02*
X147634870Y-120771956D01*
X118949574Y-99374870D02*
X118949574Y-100089155D01*
X118949574Y-100089155D02*
X118997193Y-100232012D01*
X118997193Y-100232012D02*
X119092431Y-100327251D01*
X119092431Y-100327251D02*
X119235288Y-100374870D01*
X119235288Y-100374870D02*
X119330526Y-100374870D01*
X118044812Y-99374870D02*
X118235288Y-99374870D01*
X118235288Y-99374870D02*
X118330526Y-99422489D01*
X118330526Y-99422489D02*
X118378145Y-99470108D01*
X118378145Y-99470108D02*
X118473383Y-99612965D01*
X118473383Y-99612965D02*
X118521002Y-99803441D01*
X118521002Y-99803441D02*
X118521002Y-100184393D01*
X118521002Y-100184393D02*
X118473383Y-100279631D01*
X118473383Y-100279631D02*
X118425764Y-100327251D01*
X118425764Y-100327251D02*
X118330526Y-100374870D01*
X118330526Y-100374870D02*
X118140050Y-100374870D01*
X118140050Y-100374870D02*
X118044812Y-100327251D01*
X118044812Y-100327251D02*
X117997193Y-100279631D01*
X117997193Y-100279631D02*
X117949574Y-100184393D01*
X117949574Y-100184393D02*
X117949574Y-99946298D01*
X117949574Y-99946298D02*
X117997193Y-99851060D01*
X117997193Y-99851060D02*
X118044812Y-99803441D01*
X118044812Y-99803441D02*
X118140050Y-99755822D01*
X118140050Y-99755822D02*
X118330526Y-99755822D01*
X118330526Y-99755822D02*
X118425764Y-99803441D01*
X118425764Y-99803441D02*
X118473383Y-99851060D01*
X118473383Y-99851060D02*
X118521002Y-99946298D01*
X117616240Y-99374870D02*
X116949574Y-99374870D01*
X116949574Y-99374870D02*
X117378145Y-100374870D01*
X200434870Y-64000527D02*
X201149155Y-64000527D01*
X201149155Y-64000527D02*
X201292012Y-63952908D01*
X201292012Y-63952908D02*
X201387251Y-63857670D01*
X201387251Y-63857670D02*
X201434870Y-63714813D01*
X201434870Y-63714813D02*
X201434870Y-63619575D01*
X200434870Y-64381480D02*
X200434870Y-65000527D01*
X200434870Y-65000527D02*
X200815822Y-64667194D01*
X200815822Y-64667194D02*
X200815822Y-64810051D01*
X200815822Y-64810051D02*
X200863441Y-64905289D01*
X200863441Y-64905289D02*
X200911060Y-64952908D01*
X200911060Y-64952908D02*
X201006298Y-65000527D01*
X201006298Y-65000527D02*
X201244393Y-65000527D01*
X201244393Y-65000527D02*
X201339631Y-64952908D01*
X201339631Y-64952908D02*
X201387251Y-64905289D01*
X201387251Y-64905289D02*
X201434870Y-64810051D01*
X201434870Y-64810051D02*
X201434870Y-64524337D01*
X201434870Y-64524337D02*
X201387251Y-64429099D01*
X201387251Y-64429099D02*
X201339631Y-64381480D01*
X200434870Y-65333861D02*
X200434870Y-66000527D01*
X200434870Y-66000527D02*
X201434870Y-65571956D01*
X147044920Y-57800527D02*
X147759205Y-57800527D01*
X147759205Y-57800527D02*
X147902062Y-57752908D01*
X147902062Y-57752908D02*
X147997301Y-57657670D01*
X147997301Y-57657670D02*
X148044920Y-57514813D01*
X148044920Y-57514813D02*
X148044920Y-57419575D01*
X147140158Y-58229099D02*
X147092539Y-58276718D01*
X147092539Y-58276718D02*
X147044920Y-58371956D01*
X147044920Y-58371956D02*
X147044920Y-58610051D01*
X147044920Y-58610051D02*
X147092539Y-58705289D01*
X147092539Y-58705289D02*
X147140158Y-58752908D01*
X147140158Y-58752908D02*
X147235396Y-58800527D01*
X147235396Y-58800527D02*
X147330634Y-58800527D01*
X147330634Y-58800527D02*
X147473491Y-58752908D01*
X147473491Y-58752908D02*
X148044920Y-58181480D01*
X148044920Y-58181480D02*
X148044920Y-58800527D01*
X148044920Y-59276718D02*
X148044920Y-59467194D01*
X148044920Y-59467194D02*
X147997301Y-59562432D01*
X147997301Y-59562432D02*
X147949681Y-59610051D01*
X147949681Y-59610051D02*
X147806824Y-59705289D01*
X147806824Y-59705289D02*
X147616348Y-59752908D01*
X147616348Y-59752908D02*
X147235396Y-59752908D01*
X147235396Y-59752908D02*
X147140158Y-59705289D01*
X147140158Y-59705289D02*
X147092539Y-59657670D01*
X147092539Y-59657670D02*
X147044920Y-59562432D01*
X147044920Y-59562432D02*
X147044920Y-59371956D01*
X147044920Y-59371956D02*
X147092539Y-59276718D01*
X147092539Y-59276718D02*
X147140158Y-59229099D01*
X147140158Y-59229099D02*
X147235396Y-59181480D01*
X147235396Y-59181480D02*
X147473491Y-59181480D01*
X147473491Y-59181480D02*
X147568729Y-59229099D01*
X147568729Y-59229099D02*
X147616348Y-59276718D01*
X147616348Y-59276718D02*
X147663967Y-59371956D01*
X147663967Y-59371956D02*
X147663967Y-59562432D01*
X147663967Y-59562432D02*
X147616348Y-59657670D01*
X147616348Y-59657670D02*
X147568729Y-59705289D01*
X147568729Y-59705289D02*
X147473491Y-59752908D01*
X146649920Y-113000527D02*
X147364205Y-113000527D01*
X147364205Y-113000527D02*
X147507062Y-112952908D01*
X147507062Y-112952908D02*
X147602301Y-112857670D01*
X147602301Y-112857670D02*
X147649920Y-112714813D01*
X147649920Y-112714813D02*
X147649920Y-112619575D01*
X146649920Y-113952908D02*
X146649920Y-113476718D01*
X146649920Y-113476718D02*
X147126110Y-113429099D01*
X147126110Y-113429099D02*
X147078491Y-113476718D01*
X147078491Y-113476718D02*
X147030872Y-113571956D01*
X147030872Y-113571956D02*
X147030872Y-113810051D01*
X147030872Y-113810051D02*
X147078491Y-113905289D01*
X147078491Y-113905289D02*
X147126110Y-113952908D01*
X147126110Y-113952908D02*
X147221348Y-114000527D01*
X147221348Y-114000527D02*
X147459443Y-114000527D01*
X147459443Y-114000527D02*
X147554681Y-113952908D01*
X147554681Y-113952908D02*
X147602301Y-113905289D01*
X147602301Y-113905289D02*
X147649920Y-113810051D01*
X147649920Y-113810051D02*
X147649920Y-113571956D01*
X147649920Y-113571956D02*
X147602301Y-113476718D01*
X147602301Y-113476718D02*
X147554681Y-113429099D01*
X146983253Y-114857670D02*
X147649920Y-114857670D01*
X146602301Y-114619575D02*
X147316586Y-114381480D01*
X147316586Y-114381480D02*
X147316586Y-115000527D01*
X97852517Y-99337813D02*
X97852517Y-100052098D01*
X97852517Y-100052098D02*
X97900136Y-100194955D01*
X97900136Y-100194955D02*
X97995374Y-100290194D01*
X97995374Y-100290194D02*
X98138231Y-100337813D01*
X98138231Y-100337813D02*
X98233469Y-100337813D01*
X97471564Y-99337813D02*
X96804898Y-99337813D01*
X96804898Y-99337813D02*
X97233469Y-100337813D01*
X95995374Y-99671146D02*
X95995374Y-100337813D01*
X96233469Y-99290194D02*
X96471564Y-100004479D01*
X96471564Y-100004479D02*
X95852517Y-100004479D01*
X146634870Y-71600527D02*
X147349155Y-71600527D01*
X147349155Y-71600527D02*
X147492012Y-71552908D01*
X147492012Y-71552908D02*
X147587251Y-71457670D01*
X147587251Y-71457670D02*
X147634870Y-71314813D01*
X147634870Y-71314813D02*
X147634870Y-71219575D01*
X146634870Y-71981480D02*
X146634870Y-72600527D01*
X146634870Y-72600527D02*
X147015822Y-72267194D01*
X147015822Y-72267194D02*
X147015822Y-72410051D01*
X147015822Y-72410051D02*
X147063441Y-72505289D01*
X147063441Y-72505289D02*
X147111060Y-72552908D01*
X147111060Y-72552908D02*
X147206298Y-72600527D01*
X147206298Y-72600527D02*
X147444393Y-72600527D01*
X147444393Y-72600527D02*
X147539631Y-72552908D01*
X147539631Y-72552908D02*
X147587251Y-72505289D01*
X147587251Y-72505289D02*
X147634870Y-72410051D01*
X147634870Y-72410051D02*
X147634870Y-72124337D01*
X147634870Y-72124337D02*
X147587251Y-72029099D01*
X147587251Y-72029099D02*
X147539631Y-71981480D01*
X146634870Y-73219575D02*
X146634870Y-73314813D01*
X146634870Y-73314813D02*
X146682489Y-73410051D01*
X146682489Y-73410051D02*
X146730108Y-73457670D01*
X146730108Y-73457670D02*
X146825346Y-73505289D01*
X146825346Y-73505289D02*
X147015822Y-73552908D01*
X147015822Y-73552908D02*
X147253917Y-73552908D01*
X147253917Y-73552908D02*
X147444393Y-73505289D01*
X147444393Y-73505289D02*
X147539631Y-73457670D01*
X147539631Y-73457670D02*
X147587251Y-73410051D01*
X147587251Y-73410051D02*
X147634870Y-73314813D01*
X147634870Y-73314813D02*
X147634870Y-73219575D01*
X147634870Y-73219575D02*
X147587251Y-73124337D01*
X147587251Y-73124337D02*
X147539631Y-73076718D01*
X147539631Y-73076718D02*
X147444393Y-73029099D01*
X147444393Y-73029099D02*
X147253917Y-72981480D01*
X147253917Y-72981480D02*
X147015822Y-72981480D01*
X147015822Y-72981480D02*
X146825346Y-73029099D01*
X146825346Y-73029099D02*
X146730108Y-73076718D01*
X146730108Y-73076718D02*
X146682489Y-73124337D01*
X146682489Y-73124337D02*
X146634870Y-73219575D01*
X118989574Y-114734871D02*
X118989574Y-115449156D01*
X118989574Y-115449156D02*
X119037193Y-115592013D01*
X119037193Y-115592013D02*
X119132431Y-115687252D01*
X119132431Y-115687252D02*
X119275288Y-115734871D01*
X119275288Y-115734871D02*
X119370526Y-115734871D01*
X118608621Y-114734871D02*
X117941955Y-114734871D01*
X117941955Y-114734871D02*
X118370526Y-115734871D01*
X117037193Y-115734871D02*
X117608621Y-115734871D01*
X117322907Y-115734871D02*
X117322907Y-114734871D01*
X117322907Y-114734871D02*
X117418145Y-114877728D01*
X117418145Y-114877728D02*
X117513383Y-114972966D01*
X117513383Y-114972966D02*
X117608621Y-115020585D01*
X146634870Y-99200527D02*
X147349155Y-99200527D01*
X147349155Y-99200527D02*
X147492012Y-99152908D01*
X147492012Y-99152908D02*
X147587251Y-99057670D01*
X147587251Y-99057670D02*
X147634870Y-98914813D01*
X147634870Y-98914813D02*
X147634870Y-98819575D01*
X146634870Y-100152908D02*
X146634870Y-99676718D01*
X146634870Y-99676718D02*
X147111060Y-99629099D01*
X147111060Y-99629099D02*
X147063441Y-99676718D01*
X147063441Y-99676718D02*
X147015822Y-99771956D01*
X147015822Y-99771956D02*
X147015822Y-100010051D01*
X147015822Y-100010051D02*
X147063441Y-100105289D01*
X147063441Y-100105289D02*
X147111060Y-100152908D01*
X147111060Y-100152908D02*
X147206298Y-100200527D01*
X147206298Y-100200527D02*
X147444393Y-100200527D01*
X147444393Y-100200527D02*
X147539631Y-100152908D01*
X147539631Y-100152908D02*
X147587251Y-100105289D01*
X147587251Y-100105289D02*
X147634870Y-100010051D01*
X147634870Y-100010051D02*
X147634870Y-99771956D01*
X147634870Y-99771956D02*
X147587251Y-99676718D01*
X147587251Y-99676718D02*
X147539631Y-99629099D01*
X146634870Y-100819575D02*
X146634870Y-100914813D01*
X146634870Y-100914813D02*
X146682489Y-101010051D01*
X146682489Y-101010051D02*
X146730108Y-101057670D01*
X146730108Y-101057670D02*
X146825346Y-101105289D01*
X146825346Y-101105289D02*
X147015822Y-101152908D01*
X147015822Y-101152908D02*
X147253917Y-101152908D01*
X147253917Y-101152908D02*
X147444393Y-101105289D01*
X147444393Y-101105289D02*
X147539631Y-101057670D01*
X147539631Y-101057670D02*
X147587251Y-101010051D01*
X147587251Y-101010051D02*
X147634870Y-100914813D01*
X147634870Y-100914813D02*
X147634870Y-100819575D01*
X147634870Y-100819575D02*
X147587251Y-100724337D01*
X147587251Y-100724337D02*
X147539631Y-100676718D01*
X147539631Y-100676718D02*
X147444393Y-100629099D01*
X147444393Y-100629099D02*
X147253917Y-100581480D01*
X147253917Y-100581480D02*
X147015822Y-100581480D01*
X147015822Y-100581480D02*
X146825346Y-100629099D01*
X146825346Y-100629099D02*
X146730108Y-100676718D01*
X146730108Y-100676718D02*
X146682489Y-100724337D01*
X146682489Y-100724337D02*
X146634870Y-100819575D01*
X191234870Y-99200527D02*
X191949155Y-99200527D01*
X191949155Y-99200527D02*
X192092012Y-99152908D01*
X192092012Y-99152908D02*
X192187251Y-99057670D01*
X192187251Y-99057670D02*
X192234870Y-98914813D01*
X192234870Y-98914813D02*
X192234870Y-98819575D01*
X191234870Y-100152908D02*
X191234870Y-99676718D01*
X191234870Y-99676718D02*
X191711060Y-99629099D01*
X191711060Y-99629099D02*
X191663441Y-99676718D01*
X191663441Y-99676718D02*
X191615822Y-99771956D01*
X191615822Y-99771956D02*
X191615822Y-100010051D01*
X191615822Y-100010051D02*
X191663441Y-100105289D01*
X191663441Y-100105289D02*
X191711060Y-100152908D01*
X191711060Y-100152908D02*
X191806298Y-100200527D01*
X191806298Y-100200527D02*
X192044393Y-100200527D01*
X192044393Y-100200527D02*
X192139631Y-100152908D01*
X192139631Y-100152908D02*
X192187251Y-100105289D01*
X192187251Y-100105289D02*
X192234870Y-100010051D01*
X192234870Y-100010051D02*
X192234870Y-99771956D01*
X192234870Y-99771956D02*
X192187251Y-99676718D01*
X192187251Y-99676718D02*
X192139631Y-99629099D01*
X191330108Y-100581480D02*
X191282489Y-100629099D01*
X191282489Y-100629099D02*
X191234870Y-100724337D01*
X191234870Y-100724337D02*
X191234870Y-100962432D01*
X191234870Y-100962432D02*
X191282489Y-101057670D01*
X191282489Y-101057670D02*
X191330108Y-101105289D01*
X191330108Y-101105289D02*
X191425346Y-101152908D01*
X191425346Y-101152908D02*
X191520584Y-101152908D01*
X191520584Y-101152908D02*
X191663441Y-101105289D01*
X191663441Y-101105289D02*
X192234870Y-100533861D01*
X192234870Y-100533861D02*
X192234870Y-101152908D01*
X146634870Y-64000527D02*
X147349155Y-64000527D01*
X147349155Y-64000527D02*
X147492012Y-63952908D01*
X147492012Y-63952908D02*
X147587251Y-63857670D01*
X147587251Y-63857670D02*
X147634870Y-63714813D01*
X147634870Y-63714813D02*
X147634870Y-63619575D01*
X146730108Y-64429099D02*
X146682489Y-64476718D01*
X146682489Y-64476718D02*
X146634870Y-64571956D01*
X146634870Y-64571956D02*
X146634870Y-64810051D01*
X146634870Y-64810051D02*
X146682489Y-64905289D01*
X146682489Y-64905289D02*
X146730108Y-64952908D01*
X146730108Y-64952908D02*
X146825346Y-65000527D01*
X146825346Y-65000527D02*
X146920584Y-65000527D01*
X146920584Y-65000527D02*
X147063441Y-64952908D01*
X147063441Y-64952908D02*
X147634870Y-64381480D01*
X147634870Y-64381480D02*
X147634870Y-65000527D01*
X146634870Y-65857670D02*
X146634870Y-65667194D01*
X146634870Y-65667194D02*
X146682489Y-65571956D01*
X146682489Y-65571956D02*
X146730108Y-65524337D01*
X146730108Y-65524337D02*
X146872965Y-65429099D01*
X146872965Y-65429099D02*
X147063441Y-65381480D01*
X147063441Y-65381480D02*
X147444393Y-65381480D01*
X147444393Y-65381480D02*
X147539631Y-65429099D01*
X147539631Y-65429099D02*
X147587251Y-65476718D01*
X147587251Y-65476718D02*
X147634870Y-65571956D01*
X147634870Y-65571956D02*
X147634870Y-65762432D01*
X147634870Y-65762432D02*
X147587251Y-65857670D01*
X147587251Y-65857670D02*
X147539631Y-65905289D01*
X147539631Y-65905289D02*
X147444393Y-65952908D01*
X147444393Y-65952908D02*
X147206298Y-65952908D01*
X147206298Y-65952908D02*
X147111060Y-65905289D01*
X147111060Y-65905289D02*
X147063441Y-65857670D01*
X147063441Y-65857670D02*
X147015822Y-65762432D01*
X147015822Y-65762432D02*
X147015822Y-65571956D01*
X147015822Y-65571956D02*
X147063441Y-65476718D01*
X147063441Y-65476718D02*
X147111060Y-65429099D01*
X147111060Y-65429099D02*
X147206298Y-65381480D01*
X146634870Y-126800527D02*
X147349155Y-126800527D01*
X147349155Y-126800527D02*
X147492012Y-126752908D01*
X147492012Y-126752908D02*
X147587251Y-126657670D01*
X147587251Y-126657670D02*
X147634870Y-126514813D01*
X147634870Y-126514813D02*
X147634870Y-126419575D01*
X146634870Y-127752908D02*
X146634870Y-127276718D01*
X146634870Y-127276718D02*
X147111060Y-127229099D01*
X147111060Y-127229099D02*
X147063441Y-127276718D01*
X147063441Y-127276718D02*
X147015822Y-127371956D01*
X147015822Y-127371956D02*
X147015822Y-127610051D01*
X147015822Y-127610051D02*
X147063441Y-127705289D01*
X147063441Y-127705289D02*
X147111060Y-127752908D01*
X147111060Y-127752908D02*
X147206298Y-127800527D01*
X147206298Y-127800527D02*
X147444393Y-127800527D01*
X147444393Y-127800527D02*
X147539631Y-127752908D01*
X147539631Y-127752908D02*
X147587251Y-127705289D01*
X147587251Y-127705289D02*
X147634870Y-127610051D01*
X147634870Y-127610051D02*
X147634870Y-127371956D01*
X147634870Y-127371956D02*
X147587251Y-127276718D01*
X147587251Y-127276718D02*
X147539631Y-127229099D01*
X147063441Y-128371956D02*
X147015822Y-128276718D01*
X147015822Y-128276718D02*
X146968203Y-128229099D01*
X146968203Y-128229099D02*
X146872965Y-128181480D01*
X146872965Y-128181480D02*
X146825346Y-128181480D01*
X146825346Y-128181480D02*
X146730108Y-128229099D01*
X146730108Y-128229099D02*
X146682489Y-128276718D01*
X146682489Y-128276718D02*
X146634870Y-128371956D01*
X146634870Y-128371956D02*
X146634870Y-128562432D01*
X146634870Y-128562432D02*
X146682489Y-128657670D01*
X146682489Y-128657670D02*
X146730108Y-128705289D01*
X146730108Y-128705289D02*
X146825346Y-128752908D01*
X146825346Y-128752908D02*
X146872965Y-128752908D01*
X146872965Y-128752908D02*
X146968203Y-128705289D01*
X146968203Y-128705289D02*
X147015822Y-128657670D01*
X147015822Y-128657670D02*
X147063441Y-128562432D01*
X147063441Y-128562432D02*
X147063441Y-128371956D01*
X147063441Y-128371956D02*
X147111060Y-128276718D01*
X147111060Y-128276718D02*
X147158679Y-128229099D01*
X147158679Y-128229099D02*
X147253917Y-128181480D01*
X147253917Y-128181480D02*
X147444393Y-128181480D01*
X147444393Y-128181480D02*
X147539631Y-128229099D01*
X147539631Y-128229099D02*
X147587251Y-128276718D01*
X147587251Y-128276718D02*
X147634870Y-128371956D01*
X147634870Y-128371956D02*
X147634870Y-128562432D01*
X147634870Y-128562432D02*
X147587251Y-128657670D01*
X147587251Y-128657670D02*
X147539631Y-128705289D01*
X147539631Y-128705289D02*
X147444393Y-128752908D01*
X147444393Y-128752908D02*
X147253917Y-128752908D01*
X147253917Y-128752908D02*
X147158679Y-128705289D01*
X147158679Y-128705289D02*
X147111060Y-128657670D01*
X147111060Y-128657670D02*
X147063441Y-128562432D01*
X200434870Y-71600527D02*
X201149155Y-71600527D01*
X201149155Y-71600527D02*
X201292012Y-71552908D01*
X201292012Y-71552908D02*
X201387251Y-71457670D01*
X201387251Y-71457670D02*
X201434870Y-71314813D01*
X201434870Y-71314813D02*
X201434870Y-71219575D01*
X200434870Y-71981480D02*
X200434870Y-72600527D01*
X200434870Y-72600527D02*
X200815822Y-72267194D01*
X200815822Y-72267194D02*
X200815822Y-72410051D01*
X200815822Y-72410051D02*
X200863441Y-72505289D01*
X200863441Y-72505289D02*
X200911060Y-72552908D01*
X200911060Y-72552908D02*
X201006298Y-72600527D01*
X201006298Y-72600527D02*
X201244393Y-72600527D01*
X201244393Y-72600527D02*
X201339631Y-72552908D01*
X201339631Y-72552908D02*
X201387251Y-72505289D01*
X201387251Y-72505289D02*
X201434870Y-72410051D01*
X201434870Y-72410051D02*
X201434870Y-72124337D01*
X201434870Y-72124337D02*
X201387251Y-72029099D01*
X201387251Y-72029099D02*
X201339631Y-71981480D01*
X201434870Y-73076718D02*
X201434870Y-73267194D01*
X201434870Y-73267194D02*
X201387251Y-73362432D01*
X201387251Y-73362432D02*
X201339631Y-73410051D01*
X201339631Y-73410051D02*
X201196774Y-73505289D01*
X201196774Y-73505289D02*
X201006298Y-73552908D01*
X201006298Y-73552908D02*
X200625346Y-73552908D01*
X200625346Y-73552908D02*
X200530108Y-73505289D01*
X200530108Y-73505289D02*
X200482489Y-73457670D01*
X200482489Y-73457670D02*
X200434870Y-73362432D01*
X200434870Y-73362432D02*
X200434870Y-73171956D01*
X200434870Y-73171956D02*
X200482489Y-73076718D01*
X200482489Y-73076718D02*
X200530108Y-73029099D01*
X200530108Y-73029099D02*
X200625346Y-72981480D01*
X200625346Y-72981480D02*
X200863441Y-72981480D01*
X200863441Y-72981480D02*
X200958679Y-73029099D01*
X200958679Y-73029099D02*
X201006298Y-73076718D01*
X201006298Y-73076718D02*
X201053917Y-73171956D01*
X201053917Y-73171956D02*
X201053917Y-73362432D01*
X201053917Y-73362432D02*
X201006298Y-73457670D01*
X201006298Y-73457670D02*
X200958679Y-73505289D01*
X200958679Y-73505289D02*
X200863441Y-73552908D01*
X146634870Y-91600527D02*
X147349155Y-91600527D01*
X147349155Y-91600527D02*
X147492012Y-91552908D01*
X147492012Y-91552908D02*
X147587251Y-91457670D01*
X147587251Y-91457670D02*
X147634870Y-91314813D01*
X147634870Y-91314813D02*
X147634870Y-91219575D01*
X146968203Y-92505289D02*
X147634870Y-92505289D01*
X146587251Y-92267194D02*
X147301536Y-92029099D01*
X147301536Y-92029099D02*
X147301536Y-92648146D01*
X147634870Y-93076718D02*
X147634870Y-93267194D01*
X147634870Y-93267194D02*
X147587251Y-93362432D01*
X147587251Y-93362432D02*
X147539631Y-93410051D01*
X147539631Y-93410051D02*
X147396774Y-93505289D01*
X147396774Y-93505289D02*
X147206298Y-93552908D01*
X147206298Y-93552908D02*
X146825346Y-93552908D01*
X146825346Y-93552908D02*
X146730108Y-93505289D01*
X146730108Y-93505289D02*
X146682489Y-93457670D01*
X146682489Y-93457670D02*
X146634870Y-93362432D01*
X146634870Y-93362432D02*
X146634870Y-93171956D01*
X146634870Y-93171956D02*
X146682489Y-93076718D01*
X146682489Y-93076718D02*
X146730108Y-93029099D01*
X146730108Y-93029099D02*
X146825346Y-92981480D01*
X146825346Y-92981480D02*
X147063441Y-92981480D01*
X147063441Y-92981480D02*
X147158679Y-93029099D01*
X147158679Y-93029099D02*
X147206298Y-93076718D01*
X147206298Y-93076718D02*
X147253917Y-93171956D01*
X147253917Y-93171956D02*
X147253917Y-93362432D01*
X147253917Y-93362432D02*
X147206298Y-93457670D01*
X147206298Y-93457670D02*
X147158679Y-93505289D01*
X147158679Y-93505289D02*
X147063441Y-93552908D01*
X191234870Y-64000527D02*
X191949155Y-64000527D01*
X191949155Y-64000527D02*
X192092012Y-63952908D01*
X192092012Y-63952908D02*
X192187251Y-63857670D01*
X192187251Y-63857670D02*
X192234870Y-63714813D01*
X192234870Y-63714813D02*
X192234870Y-63619575D01*
X191234870Y-64381480D02*
X191234870Y-65000527D01*
X191234870Y-65000527D02*
X191615822Y-64667194D01*
X191615822Y-64667194D02*
X191615822Y-64810051D01*
X191615822Y-64810051D02*
X191663441Y-64905289D01*
X191663441Y-64905289D02*
X191711060Y-64952908D01*
X191711060Y-64952908D02*
X191806298Y-65000527D01*
X191806298Y-65000527D02*
X192044393Y-65000527D01*
X192044393Y-65000527D02*
X192139631Y-64952908D01*
X192139631Y-64952908D02*
X192187251Y-64905289D01*
X192187251Y-64905289D02*
X192234870Y-64810051D01*
X192234870Y-64810051D02*
X192234870Y-64524337D01*
X192234870Y-64524337D02*
X192187251Y-64429099D01*
X192187251Y-64429099D02*
X192139631Y-64381480D01*
X191234870Y-65333861D02*
X191234870Y-65952908D01*
X191234870Y-65952908D02*
X191615822Y-65619575D01*
X191615822Y-65619575D02*
X191615822Y-65762432D01*
X191615822Y-65762432D02*
X191663441Y-65857670D01*
X191663441Y-65857670D02*
X191711060Y-65905289D01*
X191711060Y-65905289D02*
X191806298Y-65952908D01*
X191806298Y-65952908D02*
X192044393Y-65952908D01*
X192044393Y-65952908D02*
X192139631Y-65905289D01*
X192139631Y-65905289D02*
X192187251Y-65857670D01*
X192187251Y-65857670D02*
X192234870Y-65762432D01*
X192234870Y-65762432D02*
X192234870Y-65476718D01*
X192234870Y-65476718D02*
X192187251Y-65381480D01*
X192187251Y-65381480D02*
X192139631Y-65333861D01*
D11*
%TO.C,SW9*%
X67390051Y-72130051D02*
X68090051Y-72130051D01*
X67740051Y-72480051D02*
X67740051Y-71780051D01*
X70840051Y-71430051D02*
X70840051Y-72830051D01*
X72740051Y-72130051D02*
X73440051Y-72130051D01*
X70820051Y-72110051D02*
X70040051Y-72830051D01*
X70040051Y-71430051D01*
X70820051Y-72110051D01*
G36*
X70820051Y-72110051D02*
G01*
X70040051Y-72830051D01*
X70040051Y-71430051D01*
X70820051Y-72110051D01*
G37*
D12*
%TO.C,J43*%
X246580051Y-72410051D02*
X246580051Y-71080051D01*
X246580051Y-71080051D02*
X247910051Y-71080051D01*
X251780051Y-71080051D02*
X249180051Y-71080051D01*
X249180051Y-73740051D02*
X249180051Y-71080051D01*
X251780051Y-73740051D02*
X251780051Y-71080051D01*
X251780051Y-73740051D02*
X249180051Y-73740051D01*
%TO.C,J66*%
X90500152Y-58360152D02*
X90500152Y-48080152D01*
X87900152Y-48080152D02*
X90500152Y-48080152D01*
X85300152Y-58360152D02*
X90500152Y-58360152D01*
X87900152Y-50680152D02*
X87900152Y-48080152D01*
X85300152Y-50680152D02*
X87900152Y-50680152D01*
X85300152Y-48080152D02*
X86630152Y-48080152D01*
X85300152Y-49410152D02*
X85300152Y-48080152D01*
X85300152Y-58360152D02*
X85300152Y-50680152D01*
%TO.C,J73*%
X79810051Y-92582992D02*
X81140051Y-92582992D01*
X81140051Y-92582992D02*
X81140051Y-93912992D01*
X81140051Y-113022992D02*
X81140051Y-95182992D01*
X78480051Y-95182992D02*
X81140051Y-95182992D01*
X78480051Y-113022992D02*
X81140051Y-113022992D01*
X78480051Y-113022992D02*
X78480051Y-95182992D01*
%TO.C,J32*%
X193190101Y-51010051D02*
X193190101Y-49680051D01*
X193190101Y-49680051D02*
X194520101Y-49680051D01*
X198390101Y-49680051D02*
X195790101Y-49680051D01*
X195790101Y-52340051D02*
X195790101Y-49680051D01*
X198390101Y-52340051D02*
X198390101Y-49680051D01*
X198390101Y-52340051D02*
X195790101Y-52340051D01*
%TO.C,J25*%
X148590101Y-51010051D02*
X148590101Y-49680051D01*
X148590101Y-49680051D02*
X149920101Y-49680051D01*
X153790101Y-49680051D02*
X151190101Y-49680051D01*
X151190101Y-52340051D02*
X151190101Y-49680051D01*
X153790101Y-52340051D02*
X153790101Y-49680051D01*
X153790101Y-52340051D02*
X151190101Y-52340051D01*
%TO.C,J51*%
X192780051Y-92410051D02*
X192780051Y-91080051D01*
X192780051Y-91080051D02*
X194110051Y-91080051D01*
X197980051Y-91080051D02*
X195380051Y-91080051D01*
X195380051Y-93740051D02*
X195380051Y-91080051D01*
X197980051Y-93740051D02*
X197980051Y-91080051D01*
X197980051Y-93740051D02*
X195380051Y-93740051D01*
%TO.C,J8*%
X201640051Y-106210051D02*
X201640051Y-104880051D01*
X201640051Y-104880051D02*
X202970051Y-104880051D01*
X206840051Y-104880051D02*
X204240051Y-104880051D01*
X204240051Y-107540051D02*
X204240051Y-104880051D01*
X206840051Y-107540051D02*
X206840051Y-104880051D01*
X206840051Y-107540051D02*
X204240051Y-107540051D01*
%TO.C,J11*%
X201640051Y-113810051D02*
X201640051Y-112480051D01*
X201640051Y-112480051D02*
X202970051Y-112480051D01*
X206840051Y-112480051D02*
X204240051Y-112480051D01*
X204240051Y-115140051D02*
X204240051Y-112480051D01*
X206840051Y-115140051D02*
X206840051Y-112480051D01*
X206840051Y-115140051D02*
X204240051Y-115140051D01*
%TO.C,J13*%
X246240051Y-92410051D02*
X246240051Y-91080051D01*
X246240051Y-91080051D02*
X247570051Y-91080051D01*
X251440051Y-91080051D02*
X248840051Y-91080051D01*
X248840051Y-93740051D02*
X248840051Y-91080051D01*
X251440051Y-93740051D02*
X251440051Y-91080051D01*
X251440051Y-93740051D02*
X248840051Y-93740051D01*
%TO.C,J55*%
X192790101Y-106210051D02*
X192790101Y-104880051D01*
X192790101Y-104880051D02*
X194120101Y-104880051D01*
X197990101Y-104880051D02*
X195390101Y-104880051D01*
X195390101Y-107540051D02*
X195390101Y-104880051D01*
X197990101Y-107540051D02*
X197990101Y-104880051D01*
X197990101Y-107540051D02*
X195390101Y-107540051D01*
%TO.C,J9*%
X201640051Y-78610051D02*
X201640051Y-77280051D01*
X201640051Y-77280051D02*
X202970051Y-77280051D01*
X206840051Y-77280051D02*
X204240051Y-77280051D01*
X204240051Y-79940051D02*
X204240051Y-77280051D01*
X206840051Y-79940051D02*
X206840051Y-77280051D01*
X206840051Y-79940051D02*
X204240051Y-79940051D01*
%TO.C,J42*%
X246980101Y-58610051D02*
X246980101Y-57280051D01*
X246980101Y-57280051D02*
X248310101Y-57280051D01*
X252180101Y-57280051D02*
X249580101Y-57280051D01*
X249580101Y-59940051D02*
X249580101Y-57280051D01*
X252180101Y-59940051D02*
X252180101Y-57280051D01*
X252180101Y-59940051D02*
X249580101Y-59940051D01*
%TO.C,J59*%
X192780051Y-120010051D02*
X192780051Y-118680051D01*
X192780051Y-118680051D02*
X194110051Y-118680051D01*
X197980051Y-118680051D02*
X195380051Y-118680051D01*
X195380051Y-121340051D02*
X195380051Y-118680051D01*
X197980051Y-121340051D02*
X197980051Y-118680051D01*
X197980051Y-121340051D02*
X195380051Y-121340051D01*
%TO.C,J35*%
X192780051Y-72410051D02*
X192780051Y-71080051D01*
X192780051Y-71080051D02*
X194110051Y-71080051D01*
X197980051Y-71080051D02*
X195380051Y-71080051D01*
X195380051Y-73740051D02*
X195380051Y-71080051D01*
X197980051Y-73740051D02*
X197980051Y-71080051D01*
X197980051Y-73740051D02*
X195380051Y-73740051D01*
%TO.C,J60*%
X192780051Y-127610051D02*
X192780051Y-126280051D01*
X192780051Y-126280051D02*
X194110051Y-126280051D01*
X197980051Y-126280051D02*
X195380051Y-126280051D01*
X195380051Y-128940051D02*
X195380051Y-126280051D01*
X197980051Y-128940051D02*
X197980051Y-126280051D01*
X197980051Y-128940051D02*
X195380051Y-128940051D01*
%TO.C,J46*%
X192790101Y-78610051D02*
X192790101Y-77280051D01*
X192790101Y-77280051D02*
X194120101Y-77280051D01*
X197990101Y-77280051D02*
X195390101Y-77280051D01*
X195390101Y-79940051D02*
X195390101Y-77280051D01*
X197990101Y-79940051D02*
X197990101Y-77280051D01*
X197990101Y-79940051D02*
X195390101Y-79940051D01*
%TO.C,J153*%
X99370052Y-85140052D02*
X98040052Y-85140052D01*
X98040052Y-85140052D02*
X98040052Y-83810052D01*
X98040052Y-74860052D02*
X98040052Y-82540052D01*
X100640052Y-82540052D02*
X98040052Y-82540052D01*
X103240052Y-74860052D02*
X98040052Y-74860052D01*
X103240052Y-85140052D02*
X100640052Y-85140052D01*
X100640052Y-85140052D02*
X100640052Y-82540052D01*
X103240052Y-74860052D02*
X103240052Y-85140052D01*
%TO.C,J7*%
X201640051Y-92410051D02*
X201640051Y-91080051D01*
X201640051Y-91080051D02*
X202970051Y-91080051D01*
X206840051Y-91080051D02*
X204240051Y-91080051D01*
X204240051Y-93740051D02*
X204240051Y-91080051D01*
X206840051Y-93740051D02*
X206840051Y-91080051D01*
X206840051Y-93740051D02*
X204240051Y-93740051D01*
%TO.C,J34*%
X193190101Y-58610051D02*
X193190101Y-57280051D01*
X193190101Y-57280051D02*
X194520101Y-57280051D01*
X198390101Y-57280051D02*
X195790101Y-57280051D01*
X195790101Y-59940051D02*
X195790101Y-57280051D01*
X198390101Y-59940051D02*
X198390101Y-57280051D01*
X198390101Y-59940051D02*
X195790101Y-59940051D01*
%TO.C,J53*%
X148190101Y-106210051D02*
X148190101Y-104880051D01*
X148190101Y-104880051D02*
X149520101Y-104880051D01*
X153390101Y-104880051D02*
X150790101Y-104880051D01*
X150790101Y-107540051D02*
X150790101Y-104880051D01*
X153390101Y-107540051D02*
X153390101Y-104880051D01*
X153390101Y-107540051D02*
X150790101Y-107540051D01*
%TO.C,J68*%
X119167109Y-84437107D02*
X117837109Y-84437107D01*
X117837109Y-84437107D02*
X117837109Y-83107107D01*
X117837109Y-74157107D02*
X117837109Y-81837107D01*
X120437109Y-81837107D02*
X117837109Y-81837107D01*
X123037109Y-74157107D02*
X117837109Y-74157107D01*
X123037109Y-84437107D02*
X120437109Y-84437107D01*
X120437109Y-84437107D02*
X120437109Y-81837107D01*
X123037109Y-74157107D02*
X123037109Y-84437107D01*
%TO.C,J113*%
X143307110Y-77580050D02*
X144637110Y-77580050D01*
X144637110Y-77580050D02*
X144637110Y-78910050D01*
X144637110Y-85320050D02*
X144637110Y-80180050D01*
X141977110Y-80180050D02*
X144637110Y-80180050D01*
X141977110Y-85320050D02*
X144637110Y-85320050D01*
X141977110Y-85320050D02*
X141977110Y-80180050D01*
%TO.C,J70*%
X64710051Y-92582992D02*
X66040051Y-92582992D01*
X66040051Y-92582992D02*
X66040051Y-93912992D01*
X66040051Y-113022992D02*
X66040051Y-95182992D01*
X63380051Y-95182992D02*
X66040051Y-95182992D01*
X63380051Y-113022992D02*
X66040051Y-113022992D01*
X63380051Y-113022992D02*
X63380051Y-95182992D01*
%TO.C,J64*%
X95772994Y-114282994D02*
X94442994Y-114282994D01*
X94442994Y-114282994D02*
X94442994Y-112952994D01*
X94442994Y-106542994D02*
X94442994Y-111682994D01*
X97042994Y-111682994D02*
X94442994Y-111682994D01*
X99642994Y-106542994D02*
X94442994Y-106542994D01*
X99642994Y-114282994D02*
X97042994Y-114282994D01*
X97042994Y-114282994D02*
X97042994Y-111682994D01*
X99642994Y-106542994D02*
X99642994Y-114282994D01*
%TO.C,J47*%
X192790101Y-86210051D02*
X192790101Y-84880051D01*
X192790101Y-84880051D02*
X194120101Y-84880051D01*
X197990101Y-84880051D02*
X195390101Y-84880051D01*
X195390101Y-87540051D02*
X195390101Y-84880051D01*
X197990101Y-87540051D02*
X197990101Y-84880051D01*
X197990101Y-87540051D02*
X195390101Y-87540051D01*
%TO.C,J76*%
X135122994Y-115407108D02*
X135122994Y-116737108D01*
X135122994Y-116737108D02*
X133792994Y-116737108D01*
X127382994Y-116737108D02*
X132522994Y-116737108D01*
X132522994Y-114077108D02*
X132522994Y-116737108D01*
X127382994Y-114077108D02*
X127382994Y-116737108D01*
X127382994Y-114077108D02*
X132522994Y-114077108D01*
%TO.C,J56*%
X192790101Y-113810051D02*
X192790101Y-112480051D01*
X192790101Y-112480051D02*
X194120101Y-112480051D01*
X197990101Y-112480051D02*
X195390101Y-112480051D01*
X195390101Y-115140051D02*
X195390101Y-112480051D01*
X197990101Y-115140051D02*
X197990101Y-112480051D01*
X197990101Y-115140051D02*
X195390101Y-115140051D01*
%TO.C,J154*%
X74210051Y-137060051D02*
X72880051Y-137060051D01*
X72880051Y-137060051D02*
X72880051Y-135730051D01*
X72880051Y-126780051D02*
X72880051Y-134460051D01*
X75480051Y-134460051D02*
X72880051Y-134460051D01*
X78080051Y-126780051D02*
X72880051Y-126780051D01*
X78080051Y-137060051D02*
X75480051Y-137060051D01*
X75480051Y-137060051D02*
X75480051Y-134460051D01*
X78080051Y-126780051D02*
X78080051Y-137060051D01*
%TO.C,J152*%
X87312995Y-74862995D02*
X88642995Y-74862995D01*
X88642995Y-74862995D02*
X88642995Y-76192995D01*
X88642995Y-85142995D02*
X88642995Y-77462995D01*
X85982995Y-77462995D02*
X88642995Y-77462995D01*
X85982995Y-85142995D02*
X88642995Y-85142995D01*
X85982995Y-85142995D02*
X85982995Y-77462995D01*
%TO.C,J40*%
X246990101Y-51010051D02*
X246990101Y-49680051D01*
X246990101Y-49680051D02*
X248320101Y-49680051D01*
X252190101Y-49680051D02*
X249590101Y-49680051D01*
X249590101Y-52340051D02*
X249590101Y-49680051D01*
X252190101Y-52340051D02*
X252190101Y-49680051D01*
X252190101Y-52340051D02*
X249590101Y-52340051D01*
%TO.C,J14*%
X246240051Y-106210051D02*
X246240051Y-104880051D01*
X246240051Y-104880051D02*
X247570051Y-104880051D01*
X251440051Y-104880051D02*
X248840051Y-104880051D01*
X248840051Y-107540051D02*
X248840051Y-104880051D01*
X251440051Y-107540051D02*
X251440051Y-104880051D01*
X251440051Y-107540051D02*
X248840051Y-107540051D01*
%TO.C,J101*%
X82480051Y-85360051D02*
X82480051Y-75080051D01*
X79880051Y-75080051D02*
X82480051Y-75080051D01*
X77280051Y-85360051D02*
X82480051Y-85360051D01*
X79880051Y-77680051D02*
X79880051Y-75080051D01*
X77280051Y-77680051D02*
X79880051Y-77680051D01*
X77280051Y-75080051D02*
X78610051Y-75080051D01*
X77280051Y-76410051D02*
X77280051Y-75080051D01*
X77280051Y-85360051D02*
X77280051Y-77680051D01*
%TO.C,J44*%
X148190101Y-78610051D02*
X148190101Y-77280051D01*
X148190101Y-77280051D02*
X149520101Y-77280051D01*
X153390101Y-77280051D02*
X150790101Y-77280051D01*
X150790101Y-79940051D02*
X150790101Y-77280051D01*
X153390101Y-79940051D02*
X153390101Y-77280051D01*
X153390101Y-79940051D02*
X150790101Y-79940051D01*
%TO.C,J38*%
X202390101Y-58610051D02*
X202390101Y-57280051D01*
X202390101Y-57280051D02*
X203720101Y-57280051D01*
X207590101Y-57280051D02*
X204990101Y-57280051D01*
X204990101Y-59940051D02*
X204990101Y-57280051D01*
X207590101Y-59940051D02*
X207590101Y-57280051D01*
X207590101Y-59940051D02*
X204990101Y-59940051D01*
%TO.C,J45*%
X148190101Y-86210051D02*
X148190101Y-84880051D01*
X148190101Y-84880051D02*
X149520101Y-84880051D01*
X153390101Y-84880051D02*
X150790101Y-84880051D01*
X150790101Y-87540051D02*
X150790101Y-84880051D01*
X153390101Y-87540051D02*
X153390101Y-84880051D01*
X153390101Y-87540051D02*
X150790101Y-87540051D01*
%TO.C,J36*%
X202390101Y-51010051D02*
X202390101Y-49680051D01*
X202390101Y-49680051D02*
X203720101Y-49680051D01*
X207590101Y-49680051D02*
X204990101Y-49680051D01*
X204990101Y-52340051D02*
X204990101Y-49680051D01*
X207590101Y-52340051D02*
X207590101Y-49680051D01*
X207590101Y-52340051D02*
X204990101Y-52340051D01*
%TO.C,J41*%
X246580051Y-64810051D02*
X246580051Y-63480051D01*
X246580051Y-63480051D02*
X247910051Y-63480051D01*
X251780051Y-63480051D02*
X249180051Y-63480051D01*
X249180051Y-66140051D02*
X249180051Y-63480051D01*
X251780051Y-66140051D02*
X251780051Y-63480051D01*
X251780051Y-66140051D02*
X249180051Y-66140051D01*
%TO.C,J95*%
X53910051Y-75080051D02*
X55240051Y-75080051D01*
X55240051Y-75080051D02*
X55240051Y-76410051D01*
X55240051Y-85360051D02*
X55240051Y-77680051D01*
X52580051Y-77680051D02*
X55240051Y-77680051D01*
X52580051Y-85360051D02*
X55240051Y-85360051D01*
X52580051Y-85360051D02*
X52580051Y-77680051D01*
%TO.C,J84*%
X135120052Y-99710051D02*
X135120052Y-101040051D01*
X135120052Y-101040051D02*
X133790052Y-101040051D01*
X127380052Y-101040051D02*
X132520052Y-101040051D01*
X132520052Y-98380051D02*
X132520052Y-101040051D01*
X127380052Y-98380051D02*
X127380052Y-101040051D01*
X127380052Y-98380051D02*
X132520052Y-98380051D01*
%TO.C,J57*%
X148180051Y-120010051D02*
X148180051Y-118680051D01*
X148180051Y-118680051D02*
X149510051Y-118680051D01*
X153380051Y-118680051D02*
X150780051Y-118680051D01*
X150780051Y-121340051D02*
X150780051Y-118680051D01*
X153380051Y-121340051D02*
X153380051Y-118680051D01*
X153380051Y-121340051D02*
X150780051Y-121340051D01*
%TO.C,J82*%
X131112994Y-46882994D02*
X132442994Y-46882994D01*
X132442994Y-46882994D02*
X132442994Y-48212994D01*
X132442994Y-59702994D02*
X132442994Y-49482994D01*
X129782994Y-49482994D02*
X132442994Y-49482994D01*
X129782994Y-59702994D02*
X132442994Y-59702994D01*
X129782994Y-59702994D02*
X129782994Y-49482994D01*
%TO.C,J16*%
X246240051Y-100010051D02*
X246240051Y-98680051D01*
X246240051Y-98680051D02*
X247570051Y-98680051D01*
X251440051Y-98680051D02*
X248840051Y-98680051D01*
X248840051Y-101340051D02*
X248840051Y-98680051D01*
X251440051Y-101340051D02*
X251440051Y-98680051D01*
X251440051Y-101340051D02*
X248840051Y-101340051D01*
%TO.C,J67*%
X116870051Y-98920051D02*
X115540051Y-98920051D01*
X115540051Y-98920051D02*
X115540051Y-97590051D01*
X115540051Y-91180051D02*
X115540051Y-96320051D01*
X118140051Y-96320051D02*
X115540051Y-96320051D01*
X120740051Y-91180051D02*
X115540051Y-91180051D01*
X120740051Y-98920051D02*
X118140051Y-98920051D01*
X118140051Y-98920051D02*
X118140051Y-96320051D01*
X120740051Y-91180051D02*
X120740051Y-98920051D01*
%TO.C,J37*%
X201980051Y-64810051D02*
X201980051Y-63480051D01*
X201980051Y-63480051D02*
X203310051Y-63480051D01*
X207180051Y-63480051D02*
X204580051Y-63480051D01*
X204580051Y-66140051D02*
X204580051Y-63480051D01*
X207180051Y-66140051D02*
X207180051Y-63480051D01*
X207180051Y-66140051D02*
X204580051Y-66140051D01*
%TO.C,J144*%
X118810051Y-137060051D02*
X117480051Y-137060051D01*
X117480051Y-137060051D02*
X117480051Y-135730051D01*
X117480051Y-126780051D02*
X117480051Y-134460051D01*
X120080051Y-134460051D02*
X117480051Y-134460051D01*
X122680051Y-126780051D02*
X117480051Y-126780051D01*
X122680051Y-137060051D02*
X120080051Y-137060051D01*
X120080051Y-137060051D02*
X120080051Y-134460051D01*
X122680051Y-126780051D02*
X122680051Y-137060051D01*
%TO.C,J29*%
X148590101Y-58610051D02*
X148590101Y-57280051D01*
X148590101Y-57280051D02*
X149920101Y-57280051D01*
X153790101Y-57280051D02*
X151190101Y-57280051D01*
X151190101Y-59940051D02*
X151190101Y-57280051D01*
X153790101Y-59940051D02*
X153790101Y-57280051D01*
X153790101Y-59940051D02*
X151190101Y-59940051D01*
%TO.C,J54*%
X148190101Y-113810051D02*
X148190101Y-112480051D01*
X148190101Y-112480051D02*
X149520101Y-112480051D01*
X153390101Y-112480051D02*
X150790101Y-112480051D01*
X150790101Y-115140051D02*
X150790101Y-112480051D01*
X153390101Y-115140051D02*
X153390101Y-112480051D01*
X153390101Y-115140051D02*
X150790101Y-115140051D01*
%TO.C,J69*%
X95430152Y-59360152D02*
X94100152Y-59360152D01*
X94100152Y-59360152D02*
X94100152Y-58030152D01*
X94100152Y-51620152D02*
X94100152Y-56760152D01*
X96760152Y-56760152D02*
X94100152Y-56760152D01*
X96760152Y-51620152D02*
X94100152Y-51620152D01*
X96760152Y-51620152D02*
X96760152Y-56760152D01*
%TO.C,J65*%
X56710051Y-120980053D02*
X58040051Y-120980053D01*
X58040051Y-120980053D02*
X58040051Y-122310053D01*
X58040051Y-128720053D02*
X58040051Y-123580053D01*
X55380051Y-123580053D02*
X58040051Y-123580053D01*
X55380051Y-128720053D02*
X58040051Y-128720053D01*
X55380051Y-128720053D02*
X55380051Y-123580053D01*
%TO.C,J94*%
X128210052Y-66280050D02*
X129540052Y-66280050D01*
X129540052Y-66280050D02*
X129540052Y-67610050D01*
X129540052Y-74020050D02*
X129540052Y-68880050D01*
X126880052Y-68880050D02*
X129540052Y-68880050D01*
X126880052Y-74020050D02*
X129540052Y-74020050D01*
X126880052Y-74020050D02*
X126880052Y-68880050D01*
%TO.C,J10*%
X201640051Y-100010051D02*
X201640051Y-98680051D01*
X201640051Y-98680051D02*
X202970051Y-98680051D01*
X206840051Y-98680051D02*
X204240051Y-98680051D01*
X204240051Y-101340051D02*
X204240051Y-98680051D01*
X206840051Y-101340051D02*
X206840051Y-98680051D01*
X206840051Y-101340051D02*
X204240051Y-101340051D01*
%TO.C,J12*%
X201640051Y-86210051D02*
X201640051Y-84880051D01*
X201640051Y-84880051D02*
X202970051Y-84880051D01*
X206840051Y-84880051D02*
X204240051Y-84880051D01*
X204240051Y-87540051D02*
X204240051Y-84880051D01*
X206840051Y-87540051D02*
X206840051Y-84880051D01*
X206840051Y-87540051D02*
X204240051Y-87540051D01*
%TO.C,J75*%
X143310051Y-127680051D02*
X144640051Y-127680051D01*
X144640051Y-127680051D02*
X144640051Y-129010051D01*
X144640051Y-137960051D02*
X144640051Y-130280051D01*
X141980051Y-130280051D02*
X144640051Y-130280051D01*
X141980051Y-137960051D02*
X144640051Y-137960051D01*
X141980051Y-137960051D02*
X141980051Y-130280051D01*
%TO.C,J62*%
X61930152Y-58360152D02*
X60600152Y-58360152D01*
X60600152Y-58360152D02*
X60600152Y-57030152D01*
X60600152Y-50620152D02*
X60600152Y-55760152D01*
X63260152Y-55760152D02*
X60600152Y-55760152D01*
X63260152Y-50620152D02*
X60600152Y-50620152D01*
X63260152Y-50620152D02*
X63260152Y-55760152D01*
%TO.C,J74*%
X95772994Y-98882994D02*
X94442994Y-98882994D01*
X94442994Y-98882994D02*
X94442994Y-97552994D01*
X94442994Y-91142994D02*
X94442994Y-96282994D01*
X97042994Y-96282994D02*
X94442994Y-96282994D01*
X99642994Y-91142994D02*
X94442994Y-91142994D01*
X99642994Y-98882994D02*
X97042994Y-98882994D01*
X97042994Y-98882994D02*
X97042994Y-96282994D01*
X99642994Y-91142994D02*
X99642994Y-98882994D01*
%TO.C,J63*%
X107710064Y-74860064D02*
X109040064Y-74860064D01*
X109040064Y-74860064D02*
X109040064Y-76190064D01*
X109040064Y-85140064D02*
X109040064Y-77460064D01*
X106380064Y-77460064D02*
X109040064Y-77460064D01*
X106380064Y-85140064D02*
X109040064Y-85140064D01*
X106380064Y-85140064D02*
X106380064Y-77460064D01*
%TO.C,J93*%
X143712994Y-46882994D02*
X145042994Y-46882994D01*
X145042994Y-46882994D02*
X145042994Y-48212994D01*
X145042994Y-59702994D02*
X145042994Y-49482994D01*
X142382994Y-49482994D02*
X145042994Y-49482994D01*
X142382994Y-59702994D02*
X145042994Y-59702994D01*
X142382994Y-59702994D02*
X142382994Y-49482994D01*
%TO.C,J15*%
X246240051Y-78610051D02*
X246240051Y-77280051D01*
X246240051Y-77280051D02*
X247570051Y-77280051D01*
X251440051Y-77280051D02*
X248840051Y-77280051D01*
X248840051Y-79940051D02*
X248840051Y-77280051D01*
X251440051Y-79940051D02*
X251440051Y-77280051D01*
X251440051Y-79940051D02*
X248840051Y-79940051D01*
%TO.C,J30*%
X148180051Y-72410051D02*
X148180051Y-71080051D01*
X148180051Y-71080051D02*
X149510051Y-71080051D01*
X153380051Y-71080051D02*
X150780051Y-71080051D01*
X150780051Y-73740051D02*
X150780051Y-71080051D01*
X153380051Y-73740051D02*
X153380051Y-71080051D01*
X153380051Y-73740051D02*
X150780051Y-73740051D01*
%TO.C,J71*%
X116910051Y-114280052D02*
X115580051Y-114280052D01*
X115580051Y-114280052D02*
X115580051Y-112950052D01*
X115580051Y-106540052D02*
X115580051Y-111680052D01*
X118180051Y-111680052D02*
X115580051Y-111680052D01*
X120780051Y-106540052D02*
X115580051Y-106540052D01*
X120780051Y-114280052D02*
X118180051Y-114280052D01*
X118180051Y-114280052D02*
X118180051Y-111680052D01*
X120780051Y-106540052D02*
X120780051Y-114280052D01*
%TO.C,J72*%
X123960152Y-59380152D02*
X123960152Y-49100152D01*
X121360152Y-49100152D02*
X123960152Y-49100152D01*
X118760152Y-59380152D02*
X123960152Y-59380152D01*
X121360152Y-51700152D02*
X121360152Y-49100152D01*
X118760152Y-51700152D02*
X121360152Y-51700152D01*
X118760152Y-49100152D02*
X120090152Y-49100152D01*
X118760152Y-50430152D02*
X118760152Y-49100152D01*
X118760152Y-59380152D02*
X118760152Y-51700152D01*
%TO.C,J50*%
X148180051Y-100010051D02*
X148180051Y-98680051D01*
X148180051Y-98680051D02*
X149510051Y-98680051D01*
X153380051Y-98680051D02*
X150780051Y-98680051D01*
X150780051Y-101340051D02*
X150780051Y-98680051D01*
X153380051Y-101340051D02*
X153380051Y-98680051D01*
X153380051Y-101340051D02*
X150780051Y-101340051D01*
%TO.C,J77*%
X128210051Y-127680051D02*
X129540051Y-127680051D01*
X129540051Y-127680051D02*
X129540051Y-129010051D01*
X129540051Y-137960051D02*
X129540051Y-130280051D01*
X126880051Y-130280051D02*
X129540051Y-130280051D01*
X126880051Y-137960051D02*
X129540051Y-137960051D01*
X126880051Y-137960051D02*
X126880051Y-130280051D01*
%TO.C,J107*%
X128207110Y-77580050D02*
X129537110Y-77580050D01*
X129537110Y-77580050D02*
X129537110Y-78910050D01*
X129537110Y-85320050D02*
X129537110Y-80180050D01*
X126877110Y-80180050D02*
X129537110Y-80180050D01*
X126877110Y-85320050D02*
X129537110Y-85320050D01*
X126877110Y-85320050D02*
X126877110Y-80180050D01*
%TO.C,J52*%
X192780051Y-100010051D02*
X192780051Y-98680051D01*
X192780051Y-98680051D02*
X194110051Y-98680051D01*
X197980051Y-98680051D02*
X195380051Y-98680051D01*
X195380051Y-101340051D02*
X195380051Y-98680051D01*
X197980051Y-101340051D02*
X197980051Y-98680051D01*
X197980051Y-101340051D02*
X195380051Y-101340051D01*
%TO.C,J26*%
X148180051Y-64810051D02*
X148180051Y-63480051D01*
X148180051Y-63480051D02*
X149510051Y-63480051D01*
X153380051Y-63480051D02*
X150780051Y-63480051D01*
X150780051Y-66140051D02*
X150780051Y-63480051D01*
X153380051Y-66140051D02*
X153380051Y-63480051D01*
X153380051Y-66140051D02*
X150780051Y-66140051D01*
%TO.C,J58*%
X148180051Y-127610051D02*
X148180051Y-126280051D01*
X148180051Y-126280051D02*
X149510051Y-126280051D01*
X153380051Y-126280051D02*
X150780051Y-126280051D01*
X150780051Y-128940051D02*
X150780051Y-126280051D01*
X153380051Y-128940051D02*
X153380051Y-126280051D01*
X153380051Y-128940051D02*
X150780051Y-128940051D01*
%TO.C,J39*%
X201980051Y-72410051D02*
X201980051Y-71080051D01*
X201980051Y-71080051D02*
X203310051Y-71080051D01*
X207180051Y-71080051D02*
X204580051Y-71080051D01*
X204580051Y-73740051D02*
X204580051Y-71080051D01*
X207180051Y-73740051D02*
X207180051Y-71080051D01*
X207180051Y-73740051D02*
X204580051Y-73740051D01*
%TO.C,J49*%
X148180051Y-92410051D02*
X148180051Y-91080051D01*
X148180051Y-91080051D02*
X149510051Y-91080051D01*
X153380051Y-91080051D02*
X150780051Y-91080051D01*
X150780051Y-93740051D02*
X150780051Y-91080051D01*
X153380051Y-93740051D02*
X153380051Y-91080051D01*
X153380051Y-93740051D02*
X150780051Y-93740051D01*
%TO.C,J17*%
X246240051Y-113810051D02*
X246240051Y-112480051D01*
X246240051Y-112480051D02*
X247570051Y-112480051D01*
X251440051Y-112480051D02*
X248840051Y-112480051D01*
X248840051Y-115140051D02*
X248840051Y-112480051D01*
X251440051Y-115140051D02*
X251440051Y-112480051D01*
X251440051Y-115140051D02*
X248840051Y-115140051D01*
%TO.C,J106*%
X143310052Y-66280050D02*
X144640052Y-66280050D01*
X144640052Y-66280050D02*
X144640052Y-67610050D01*
X144640052Y-74020050D02*
X144640052Y-68880050D01*
X141980052Y-68880050D02*
X144640052Y-68880050D01*
X141980052Y-74020050D02*
X144640052Y-74020050D01*
X141980052Y-74020050D02*
X141980052Y-68880050D01*
%TO.C,J33*%
X192780051Y-64810051D02*
X192780051Y-63480051D01*
X192780051Y-63480051D02*
X194110051Y-63480051D01*
X197980051Y-63480051D02*
X195380051Y-63480051D01*
X195380051Y-66140051D02*
X195380051Y-63480051D01*
X197980051Y-66140051D02*
X197980051Y-63480051D01*
X197980051Y-66140051D02*
X195380051Y-66140051D01*
%TO.C,J61*%
X47910051Y-98900049D02*
X49240051Y-98900049D01*
X49240051Y-98900049D02*
X49240051Y-100230049D01*
X49240051Y-106640049D02*
X49240051Y-101500049D01*
X46580051Y-101500049D02*
X49240051Y-101500049D01*
X46580051Y-106640049D02*
X49240051Y-106640049D01*
X46580051Y-106640049D02*
X46580051Y-101500049D01*
%TO.C,J18*%
X246240051Y-86210051D02*
X246240051Y-84880051D01*
X246240051Y-84880051D02*
X247570051Y-84880051D01*
X251440051Y-84880051D02*
X248840051Y-84880051D01*
X248840051Y-87540051D02*
X248840051Y-84880051D01*
X251440051Y-87540051D02*
X251440051Y-84880051D01*
X251440051Y-87540051D02*
X248840051Y-87540051D01*
%TD*%
M02*
