%TF.GenerationSoftware,KiCad,Pcbnew,8.0.0*%
%TF.CreationDate,2024-05-08T13:14:52+02:00*%
%TF.ProjectId,Breadboard_Friends_Rev1,42726561-6462-46f6-9172-645f46726965,rev?*%
%TF.SameCoordinates,Original*%
%TF.FileFunction,Soldermask,Top*%
%TF.FilePolarity,Negative*%
%FSLAX46Y46*%
G04 Gerber Fmt 4.6, Leading zero omitted, Abs format (unit mm)*
G04 Created by KiCad (PCBNEW 8.0.0) date 2024-05-08 13:14:52*
%MOMM*%
%LPD*%
G01*
G04 APERTURE LIST*
G04 Aperture macros list*
%AMRoundRect*
0 Rectangle with rounded corners*
0 $1 Rounding radius*
0 $2 $3 $4 $5 $6 $7 $8 $9 X,Y pos of 4 corners*
0 Add a 4 corners polygon primitive as box body*
4,1,4,$2,$3,$4,$5,$6,$7,$8,$9,$2,$3,0*
0 Add four circle primitives for the rounded corners*
1,1,$1+$1,$2,$3*
1,1,$1+$1,$4,$5*
1,1,$1+$1,$6,$7*
1,1,$1+$1,$8,$9*
0 Add four rect primitives between the rounded corners*
20,1,$1+$1,$2,$3,$4,$5,0*
20,1,$1+$1,$4,$5,$6,$7,0*
20,1,$1+$1,$6,$7,$8,$9,0*
20,1,$1+$1,$8,$9,$2,$3,0*%
G04 Aperture macros list end*
%ADD10R,1.800000X1.800000*%
%ADD11C,1.800000*%
%ADD12C,1.400000*%
%ADD13O,1.400000X1.400000*%
%ADD14C,0.500000*%
%ADD15C,1.600000*%
%ADD16R,1.700000X1.700000*%
%ADD17O,1.700000X1.700000*%
%ADD18C,2.700000*%
%ADD19C,1.524000*%
%ADD20O,3.240000X2.720000*%
%ADD21R,2.200000X2.200000*%
%ADD22O,2.200000X2.200000*%
%ADD23R,1.600000X1.600000*%
%ADD24O,1.600000X1.600000*%
%ADD25C,1.700000*%
%ADD26RoundRect,0.250000X0.600000X-0.600000X0.600000X0.600000X-0.600000X0.600000X-0.600000X-0.600000X0*%
%ADD27C,4.000000*%
%ADD28C,2.200000*%
%ADD29C,1.690600*%
%ADD30O,2.800000X2.200000*%
%ADD31O,2.300000X2.300000*%
%ADD32C,1.200000*%
G04 APERTURE END LIST*
D10*
%TO.C,D8*%
X249680051Y-122610051D03*
D11*
X247140051Y-122610051D03*
%TD*%
D12*
%TO.C,R7*%
X110713007Y-76513007D03*
D13*
X110713007Y-74613007D03*
%TD*%
D14*
%TO.C,REF\u002A\u002A*%
X198910051Y-96910051D03*
X200710051Y-96910051D03*
X198910051Y-96110051D03*
X200710051Y-96110051D03*
X198910051Y-95310051D03*
X200710051Y-95310051D03*
%TD*%
%TO.C,REF\u002A\u002A*%
X198910051Y-136610051D03*
X200710051Y-136610051D03*
X198910051Y-135810051D03*
X200710051Y-135810051D03*
X198910051Y-135010051D03*
X200710051Y-135010051D03*
%TD*%
D15*
%TO.C,C8*%
X227010051Y-132000000D03*
X227010051Y-137000000D03*
%TD*%
D16*
%TO.C,J156*%
X111410051Y-122035051D03*
D17*
X111410051Y-124575051D03*
%TD*%
D16*
%TO.C,J19*%
X152550051Y-145670051D03*
D17*
X150010051Y-145670051D03*
X152550051Y-143130051D03*
X150010051Y-143130051D03*
X152550051Y-140590051D03*
X150010051Y-140590051D03*
X152550051Y-138050051D03*
X150010051Y-138050051D03*
X152550051Y-135510051D03*
X150010051Y-135510051D03*
%TD*%
D18*
%TO.C,SW3*%
X65710051Y-120310053D03*
X65710051Y-124810053D03*
X65710051Y-129310053D03*
%TD*%
D19*
%TO.C,SW8*%
X135410052Y-68110050D03*
X135410052Y-70110050D03*
X135410052Y-72110050D03*
X140410052Y-68110050D03*
X140410052Y-70110050D03*
X140410052Y-72110050D03*
%TD*%
D14*
%TO.C,REF\u002A\u002A*%
X75410051Y-67910051D03*
X75410051Y-66110051D03*
X74610051Y-67910051D03*
X74610051Y-66110051D03*
X73810051Y-67910051D03*
X73810051Y-66110051D03*
%TD*%
D20*
%TO.C,RV4*%
X92812994Y-90212994D03*
X92812994Y-99812994D03*
D10*
X85312994Y-92512994D03*
D11*
X85312994Y-95012994D03*
X85312994Y-97512994D03*
%TD*%
D10*
%TO.C,D9*%
X182780051Y-136510051D03*
D11*
X180240051Y-136510051D03*
%TD*%
D21*
%TO.C,D1*%
X214810051Y-137890051D03*
D22*
X214810051Y-127730051D03*
%TD*%
D20*
%TO.C,RV3*%
X113910051Y-105610052D03*
X113910051Y-115210052D03*
D10*
X106410051Y-107910052D03*
D11*
X106410051Y-110410052D03*
X106410051Y-112910052D03*
%TD*%
D10*
%TO.C,D6*%
X235410051Y-122610051D03*
D11*
X232870051Y-122610051D03*
%TD*%
D14*
%TO.C,REF\u002A\u002A*%
X227210051Y-74610051D03*
X227210051Y-76410051D03*
X228010051Y-74610051D03*
X228010051Y-76410051D03*
X228810051Y-74610051D03*
X228810051Y-76410051D03*
%TD*%
%TO.C,REF\u002A\u002A*%
X162710051Y-60810051D03*
X162710051Y-62610051D03*
X163510051Y-60810051D03*
X163510051Y-62610051D03*
X164310051Y-60810051D03*
X164310051Y-62610051D03*
%TD*%
%TO.C,REF\u002A\u002A*%
X83810051Y-94210051D03*
X82010051Y-94210051D03*
X83810051Y-95010051D03*
X82010051Y-95010051D03*
X83810051Y-95810051D03*
X82010051Y-95810051D03*
%TD*%
D23*
%TO.C,C2*%
X220210051Y-128854939D03*
D15*
X220210051Y-130854939D03*
%TD*%
D14*
%TO.C,REF\u002A\u002A*%
X208600000Y-139700000D03*
X208600000Y-141500000D03*
X209400000Y-139700000D03*
X209400000Y-141500000D03*
X210200000Y-139700000D03*
X210200000Y-141500000D03*
%TD*%
%TO.C,REF\u002A\u002A*%
X187500000Y-147400000D03*
X187500000Y-149200000D03*
X188300000Y-147400000D03*
X188300000Y-149200000D03*
X189100000Y-147400000D03*
X189100000Y-149200000D03*
%TD*%
%TO.C,REF\u002A\u002A*%
X172610051Y-88410051D03*
X172610051Y-90210051D03*
X173410051Y-88410051D03*
X173410051Y-90210051D03*
X174210051Y-88410051D03*
X174210051Y-90210051D03*
%TD*%
%TO.C,REF\u002A\u002A*%
X147710051Y-54110051D03*
X145910051Y-54110051D03*
X147710051Y-54910051D03*
X145910051Y-54910051D03*
X147710051Y-55710051D03*
X145910051Y-55710051D03*
%TD*%
%TO.C,REF\u002A\u002A*%
X105610051Y-78010051D03*
X103810051Y-78010051D03*
X105610051Y-78810051D03*
X103810051Y-78810051D03*
X105610051Y-79610051D03*
X103810051Y-79610051D03*
%TD*%
%TO.C,REF\u002A\u002A*%
X172610051Y-102210051D03*
X172610051Y-104010051D03*
X173410051Y-102210051D03*
X173410051Y-104010051D03*
X174210051Y-102210051D03*
X174210051Y-104010051D03*
%TD*%
%TO.C,REF\u002A\u002A*%
X72910051Y-86410051D03*
X72910051Y-88210051D03*
X73710051Y-86410051D03*
X73710051Y-88210051D03*
X74510051Y-86410051D03*
X74510051Y-88210051D03*
%TD*%
D21*
%TO.C,D2*%
X211610051Y-137890051D03*
D22*
X211610051Y-127730051D03*
%TD*%
D14*
%TO.C,REF\u002A\u002A*%
X147310051Y-95410051D03*
X145510051Y-95410051D03*
X147310051Y-96210051D03*
X145510051Y-96210051D03*
X147310051Y-97010051D03*
X145510051Y-97010051D03*
%TD*%
D16*
%TO.C,J145*%
X91310051Y-132410051D03*
D17*
X88770051Y-132410051D03*
X86230051Y-132410051D03*
X83690051Y-132410051D03*
%TD*%
D12*
%TO.C,R9*%
X110713007Y-84913007D03*
D13*
X110713007Y-83013007D03*
%TD*%
D16*
%TO.C,J22*%
X249550051Y-137970051D03*
D17*
X247010051Y-137970051D03*
X249550051Y-135430051D03*
X247010051Y-135430051D03*
X249550051Y-132890051D03*
X247010051Y-132890051D03*
X249550051Y-130350051D03*
X247010051Y-130350051D03*
X249550051Y-127810051D03*
X247010051Y-127810051D03*
%TD*%
D12*
%TO.C,R17*%
X90312995Y-72312995D03*
D13*
X90312995Y-70412995D03*
%TD*%
D19*
%TO.C,SW7*%
X137472994Y-45172994D03*
X137472994Y-47712994D03*
X137472994Y-50252994D03*
X137472994Y-55332994D03*
X137472994Y-57872994D03*
X140012994Y-45172994D03*
X140012994Y-47712994D03*
X140012994Y-50252994D03*
X140012994Y-55332994D03*
X140012994Y-57872994D03*
%TD*%
D14*
%TO.C,REF\u002A\u002A*%
X234510051Y-60810051D03*
X234510051Y-62610051D03*
X235310051Y-60810051D03*
X235310051Y-62610051D03*
X236110051Y-60810051D03*
X236110051Y-62610051D03*
%TD*%
%TO.C,REF\u002A\u002A*%
X160100000Y-147400000D03*
X160100000Y-149200000D03*
X160900000Y-147400000D03*
X160900000Y-149200000D03*
X161700000Y-147400000D03*
X161700000Y-149200000D03*
%TD*%
D23*
%TO.C,SW5*%
X69690051Y-93872992D03*
D24*
X69690051Y-96412992D03*
X69690051Y-98952992D03*
X69690051Y-101492992D03*
X69690051Y-104032992D03*
X69690051Y-106572992D03*
X69690051Y-109112992D03*
X69690051Y-111652992D03*
X77310051Y-111652992D03*
X77310051Y-109112992D03*
X77310051Y-106572992D03*
X77310051Y-104032992D03*
X77310051Y-101492992D03*
X77310051Y-98952992D03*
X77310051Y-96412992D03*
X77310051Y-93872992D03*
%TD*%
D14*
%TO.C,REF\u002A\u002A*%
X126010051Y-109710051D03*
X124210051Y-109710051D03*
X126010051Y-110510051D03*
X124210051Y-110510051D03*
X126010051Y-111310051D03*
X124210051Y-111310051D03*
%TD*%
D12*
%TO.C,R5*%
X188605051Y-140610051D03*
D13*
X190505051Y-140610051D03*
%TD*%
D14*
%TO.C,REF\u002A\u002A*%
X126010051Y-80410051D03*
X124210051Y-80410051D03*
X126010051Y-81210051D03*
X124210051Y-81210051D03*
X126010051Y-82010051D03*
X124210051Y-82010051D03*
%TD*%
D25*
%TO.C,SW6*%
X138510051Y-125110051D03*
X138510051Y-128110051D03*
X135970051Y-128110051D03*
X138510051Y-131110051D03*
X135970051Y-134110051D03*
X135970051Y-137110051D03*
X138510051Y-137110051D03*
X135970051Y-140110051D03*
%TD*%
D26*
%TO.C,J6*%
X213925051Y-83762551D03*
D25*
X213925051Y-81222551D03*
X216465051Y-83762551D03*
X216465051Y-81222551D03*
X219005051Y-83762551D03*
X219005051Y-81222551D03*
%TD*%
D23*
%TO.C,C1*%
X239410051Y-135065164D03*
D15*
X239410051Y-133065164D03*
%TD*%
D14*
%TO.C,REF\u002A\u002A*%
X251300000Y-129600000D03*
X253100000Y-129600000D03*
X251300000Y-128800000D03*
X253100000Y-128800000D03*
X251300000Y-128000000D03*
X253100000Y-128000000D03*
%TD*%
D27*
%TO.C,SW2*%
X75330152Y-55970152D03*
D28*
X71520152Y-53430152D03*
X77870152Y-50890152D03*
D29*
X74060152Y-61050152D03*
X76600152Y-61050152D03*
%TD*%
D14*
%TO.C,REF\u002A\u002A*%
X115310051Y-119010051D03*
X115310051Y-117210051D03*
X114510051Y-119010051D03*
X114510051Y-117210051D03*
X113710051Y-119010051D03*
X113710051Y-117210051D03*
%TD*%
%TO.C,REF\u002A\u002A*%
X172610051Y-74610051D03*
X172610051Y-76410051D03*
X173410051Y-74610051D03*
X173410051Y-76410051D03*
X174210051Y-74610051D03*
X174210051Y-76410051D03*
%TD*%
%TO.C,REF\u002A\u002A*%
X59500000Y-52800000D03*
X57700000Y-52800000D03*
X59500000Y-53600000D03*
X57700000Y-53600000D03*
X59500000Y-54400000D03*
X57700000Y-54400000D03*
%TD*%
%TO.C,REF\u002A\u002A*%
X54400000Y-123700000D03*
X52600000Y-123700000D03*
X54400000Y-124500000D03*
X52600000Y-124500000D03*
X54400000Y-125300000D03*
X52600000Y-125300000D03*
%TD*%
D10*
%TO.C,D12*%
X116983007Y-75713007D03*
D11*
X114443007Y-75713007D03*
%TD*%
D26*
%TO.C,J3*%
X233925051Y-83762551D03*
D25*
X233925051Y-81222551D03*
X236465051Y-83762551D03*
X236465051Y-81222551D03*
X239005051Y-83762551D03*
X239005051Y-81222551D03*
%TD*%
D14*
%TO.C,REF\u002A\u002A*%
X198910051Y-110710051D03*
X200710051Y-110710051D03*
X198910051Y-109910051D03*
X200710051Y-109910051D03*
X198910051Y-109110051D03*
X200710051Y-109110051D03*
%TD*%
%TO.C,REF\u002A\u002A*%
X227210051Y-102210051D03*
X227210051Y-104010051D03*
X228010051Y-102210051D03*
X228010051Y-104010051D03*
X228810051Y-102210051D03*
X228810051Y-104010051D03*
%TD*%
D21*
%TO.C,D4*%
X166150051Y-145810051D03*
D22*
X155990051Y-145810051D03*
%TD*%
D26*
%TO.C,JP1*%
X207470051Y-123310051D03*
D25*
X207470051Y-120770051D03*
X210010051Y-123310051D03*
X210010051Y-120770051D03*
X212550051Y-123310051D03*
X212550051Y-120770051D03*
X215090051Y-123310051D03*
X215090051Y-120770051D03*
X217630051Y-123310051D03*
X217630051Y-120770051D03*
X220170051Y-123310051D03*
X220170051Y-120770051D03*
X222710051Y-123310051D03*
X222710051Y-120770051D03*
X225250051Y-123310051D03*
X225250051Y-120770051D03*
%TD*%
D14*
%TO.C,REF\u002A\u002A*%
X156700000Y-48800000D03*
X156700000Y-47000000D03*
X155900000Y-48800000D03*
X155900000Y-47000000D03*
X155100000Y-48800000D03*
X155100000Y-47000000D03*
%TD*%
D10*
%TO.C,D7*%
X242680051Y-122610051D03*
D11*
X240140051Y-122610051D03*
%TD*%
D14*
%TO.C,REF\u002A\u002A*%
X100700000Y-47900000D03*
X100700000Y-46100000D03*
X99900000Y-47900000D03*
X99900000Y-46100000D03*
X99100000Y-47900000D03*
X99100000Y-46100000D03*
%TD*%
%TO.C,REF\u002A\u002A*%
X103110051Y-111310051D03*
X104910051Y-111310051D03*
X103110051Y-110510051D03*
X104910051Y-110510051D03*
X103110051Y-109710051D03*
X104910051Y-109710051D03*
%TD*%
D23*
%TO.C,C4*%
X170754939Y-144310051D03*
D15*
X172754939Y-144310051D03*
%TD*%
D19*
%TO.C,SW10*%
X135407110Y-79410050D03*
X135407110Y-81410050D03*
X135407110Y-83410050D03*
X140407110Y-79410050D03*
X140407110Y-81410050D03*
X140407110Y-83410050D03*
%TD*%
D14*
%TO.C,REF\u002A\u002A*%
X252300000Y-110800000D03*
X254100000Y-110800000D03*
X252300000Y-110000000D03*
X254100000Y-110000000D03*
X252300000Y-109200000D03*
X254100000Y-109200000D03*
%TD*%
%TO.C,REF\u002A\u002A*%
X62510051Y-101910051D03*
X60710051Y-101910051D03*
X62510051Y-102710051D03*
X60710051Y-102710051D03*
X62510051Y-103510051D03*
X60710051Y-103510051D03*
%TD*%
D16*
%TO.C,J23*%
X230500000Y-136000000D03*
D17*
X233040000Y-136000000D03*
%TD*%
D14*
%TO.C,REF\u002A\u002A*%
X200310051Y-60810051D03*
X200310051Y-62610051D03*
X201110051Y-60810051D03*
X201110051Y-62610051D03*
X201910051Y-60810051D03*
X201910051Y-62610051D03*
%TD*%
D15*
%TO.C,C9*%
X182510051Y-145610051D03*
X187510051Y-145610051D03*
%TD*%
D20*
%TO.C,RV2*%
X113910051Y-90210051D03*
X113910051Y-99810051D03*
D10*
X106410051Y-92510051D03*
D11*
X106410051Y-95010051D03*
X106410051Y-97510051D03*
%TD*%
D12*
%TO.C,R18*%
X90312995Y-76512995D03*
D13*
X90312995Y-74612995D03*
%TD*%
D15*
%TO.C,C10*%
X185410051Y-143010051D03*
X190410051Y-143010051D03*
%TD*%
D14*
%TO.C,REF\u002A\u002A*%
X93010051Y-86410051D03*
X93010051Y-88210051D03*
X93810051Y-86410051D03*
X93810051Y-88210051D03*
X94610051Y-86410051D03*
X94610051Y-88210051D03*
%TD*%
%TO.C,REF\u002A\u002A*%
X79900000Y-138700000D03*
X79900000Y-140500000D03*
X80700000Y-138700000D03*
X80700000Y-140500000D03*
X81500000Y-138700000D03*
X81500000Y-140500000D03*
%TD*%
%TO.C,REF\u002A\u002A*%
X147310051Y-109410051D03*
X145510051Y-109410051D03*
X147310051Y-110210051D03*
X145510051Y-110210051D03*
X147310051Y-111010051D03*
X145510051Y-111010051D03*
%TD*%
%TO.C,REF\u002A\u002A*%
X253100000Y-55400000D03*
X254900000Y-55400000D03*
X253100000Y-54600000D03*
X254900000Y-54600000D03*
X253100000Y-53800000D03*
X254900000Y-53800000D03*
%TD*%
D26*
%TO.C,J2*%
X213925051Y-111210051D03*
D25*
X213925051Y-108670051D03*
X216465051Y-111210051D03*
X216465051Y-108670051D03*
X219005051Y-111210051D03*
X219005051Y-108670051D03*
%TD*%
D14*
%TO.C,REF\u002A\u002A*%
X198910051Y-124510051D03*
X200710051Y-124510051D03*
X198910051Y-123710051D03*
X200710051Y-123710051D03*
X198910051Y-122910051D03*
X200710051Y-122910051D03*
%TD*%
%TO.C,REF\u002A\u002A*%
X136410051Y-87910051D03*
X136410051Y-86110051D03*
X135610051Y-87910051D03*
X135610051Y-86110051D03*
X134810051Y-87910051D03*
X134810051Y-86110051D03*
%TD*%
D30*
%TO.C,RV6*%
X127910052Y-94810051D03*
X143510052Y-94810051D03*
X127910052Y-90210051D03*
X143510052Y-90210051D03*
D31*
X132010052Y-93710051D03*
X135710052Y-91310051D03*
X139410052Y-93710051D03*
%TD*%
D12*
%TO.C,R1*%
X231010051Y-127610051D03*
D13*
X232910051Y-127610051D03*
%TD*%
D10*
%TO.C,D19*%
X95082995Y-71612995D03*
D11*
X92542995Y-71612995D03*
%TD*%
D16*
%TO.C,J155*%
X115610051Y-122035051D03*
D17*
X115610051Y-124575051D03*
%TD*%
D12*
%TO.C,R19*%
X90312995Y-80712995D03*
D13*
X90312995Y-78812995D03*
%TD*%
D14*
%TO.C,REF\u002A\u002A*%
X95810051Y-101810051D03*
X95810051Y-103610051D03*
X96610051Y-101810051D03*
X96610051Y-103610051D03*
X97410051Y-101810051D03*
X97410051Y-103610051D03*
%TD*%
D15*
%TO.C,C6*%
X243610051Y-131610052D03*
X243610051Y-136610052D03*
%TD*%
D12*
%TO.C,R20*%
X90312995Y-84912995D03*
D13*
X90312995Y-83012995D03*
%TD*%
D21*
%TO.C,D5*%
X156010051Y-142310051D03*
D22*
X166170051Y-142310051D03*
%TD*%
D14*
%TO.C,REF\u002A\u002A*%
X84500000Y-46900000D03*
X84500000Y-45100000D03*
X83700000Y-46900000D03*
X83700000Y-45100000D03*
X82900000Y-46900000D03*
X82900000Y-45100000D03*
%TD*%
%TO.C,REF\u002A\u002A*%
X71310051Y-124410051D03*
X69510051Y-124410051D03*
X71310051Y-125210051D03*
X69510051Y-125210051D03*
X71310051Y-126010051D03*
X69510051Y-126010051D03*
%TD*%
D18*
%TO.C,SW1*%
X56910051Y-98310049D03*
X56910051Y-102810049D03*
X56910051Y-107310049D03*
%TD*%
D14*
%TO.C,REF\u002A\u002A*%
X124210051Y-97110051D03*
X126010051Y-97110051D03*
X124210051Y-96310051D03*
X126010051Y-96310051D03*
X124210051Y-95510051D03*
X126010051Y-95510051D03*
%TD*%
D12*
%TO.C,R2*%
X236010051Y-127610051D03*
D13*
X237910051Y-127610051D03*
%TD*%
D14*
%TO.C,REF\u002A\u002A*%
X172610051Y-116010051D03*
X172610051Y-117810051D03*
X173410051Y-116010051D03*
X173410051Y-117810051D03*
X174210051Y-116010051D03*
X174210051Y-117810051D03*
%TD*%
%TO.C,REF\u002A\u002A*%
X93010051Y-53510051D03*
X91210051Y-53510051D03*
X93010051Y-54310051D03*
X91210051Y-54310051D03*
X93010051Y-55110051D03*
X91210051Y-55110051D03*
%TD*%
%TO.C,REF\u002A\u002A*%
X227210051Y-88410051D03*
X227210051Y-90210051D03*
X228010051Y-88410051D03*
X228010051Y-90210051D03*
X228810051Y-88410051D03*
X228810051Y-90210051D03*
%TD*%
D10*
%TO.C,D22*%
X96582995Y-83912995D03*
D11*
X94042995Y-83912995D03*
%TD*%
D14*
%TO.C,REF\u002A\u002A*%
X174210051Y-131610051D03*
X174210051Y-129810051D03*
X173410051Y-131610051D03*
X173410051Y-129810051D03*
X172610051Y-131610051D03*
X172610051Y-129810051D03*
%TD*%
%TO.C,REF\u002A\u002A*%
X83410051Y-78510051D03*
X85210051Y-78510051D03*
X83410051Y-77710051D03*
X85210051Y-77710051D03*
X83410051Y-76910051D03*
X85210051Y-76910051D03*
%TD*%
D21*
%TO.C,D3*%
X208390051Y-127730051D03*
D22*
X208390051Y-137890051D03*
%TD*%
D14*
%TO.C,REF\u002A\u002A*%
X133410051Y-103610051D03*
X133410051Y-101810051D03*
X132610051Y-103610051D03*
X132610051Y-101810051D03*
X131810051Y-103610051D03*
X131810051Y-101810051D03*
%TD*%
D16*
%TO.C,J20*%
X197210051Y-145670051D03*
D17*
X194670051Y-145670051D03*
X197210051Y-143130051D03*
X194670051Y-143130051D03*
X197210051Y-140590051D03*
X194670051Y-140590051D03*
X197210051Y-138050051D03*
X194670051Y-138050051D03*
X197210051Y-135510051D03*
X194670051Y-135510051D03*
%TD*%
D14*
%TO.C,REF\u002A\u002A*%
X118410051Y-103610051D03*
X118410051Y-101810051D03*
X117610051Y-103610051D03*
X117610051Y-101810051D03*
X116810051Y-103610051D03*
X116810051Y-101810051D03*
%TD*%
%TO.C,REF\u002A\u002A*%
X240200000Y-139700000D03*
X240200000Y-141500000D03*
X241000000Y-139700000D03*
X241000000Y-141500000D03*
X241800000Y-139700000D03*
X241800000Y-141500000D03*
%TD*%
D30*
%TO.C,RV5*%
X127912994Y-110507108D03*
X143512994Y-110507108D03*
X127912994Y-105907108D03*
X143512994Y-105907108D03*
D31*
X132012994Y-109407108D03*
X135712994Y-107007108D03*
X139412994Y-109407108D03*
%TD*%
D16*
%TO.C,J157*%
X107210051Y-122035051D03*
D17*
X107210051Y-124575051D03*
%TD*%
D14*
%TO.C,REF\u002A\u002A*%
X77410051Y-115710051D03*
X77410051Y-113910051D03*
X76610051Y-115710051D03*
X76610051Y-113910051D03*
X75810051Y-115710051D03*
X75810051Y-113910051D03*
%TD*%
D12*
%TO.C,R6*%
X110713007Y-72313007D03*
D13*
X110713007Y-70413007D03*
%TD*%
D10*
%TO.C,D11*%
X115383007Y-71613007D03*
D11*
X112843007Y-71613007D03*
%TD*%
D14*
%TO.C,REF\u002A\u002A*%
X136410051Y-76710051D03*
X136410051Y-74910051D03*
X135610051Y-76710051D03*
X135610051Y-74910051D03*
X134810051Y-76710051D03*
X134810051Y-74910051D03*
%TD*%
D12*
%TO.C,R8*%
X110713007Y-80713007D03*
D13*
X110713007Y-78813007D03*
%TD*%
D14*
%TO.C,REF\u002A\u002A*%
X198910051Y-83110051D03*
X200710051Y-83110051D03*
X198910051Y-82310051D03*
X200710051Y-82310051D03*
X198910051Y-81510051D03*
X200710051Y-81510051D03*
%TD*%
D10*
%TO.C,D20*%
X96582995Y-75712995D03*
D11*
X94042995Y-75712995D03*
%TD*%
D26*
%TO.C,JP2*%
X161110051Y-137150051D03*
D25*
X161110051Y-134610051D03*
X163650051Y-137150051D03*
X163650051Y-134610051D03*
X166190051Y-137150051D03*
X166190051Y-134610051D03*
X168730051Y-137150051D03*
X168730051Y-134610051D03*
X171270051Y-137150051D03*
X171270051Y-134610051D03*
%TD*%
D14*
%TO.C,REF\u002A\u002A*%
X115710051Y-88210051D03*
X115710051Y-86410051D03*
X114910051Y-88210051D03*
X114910051Y-86410051D03*
X114110051Y-88210051D03*
X114110051Y-86410051D03*
%TD*%
D12*
%TO.C,R4*%
X180510051Y-140610051D03*
D13*
X182410051Y-140610051D03*
%TD*%
D14*
%TO.C,REF\u002A\u002A*%
X138610051Y-65510051D03*
X138610051Y-63710051D03*
X137810051Y-65510051D03*
X137810051Y-63710051D03*
X137010051Y-65510051D03*
X137010051Y-63710051D03*
%TD*%
D19*
%TO.C,SW9*%
X66630051Y-77190051D03*
X74250051Y-77190051D03*
X66630051Y-82270051D03*
X74250051Y-82270051D03*
D32*
X66630051Y-84820051D03*
D19*
X69170051Y-72110051D03*
X71710051Y-72110051D03*
D32*
X74250051Y-69570051D03*
%TD*%
D14*
%TO.C,REF\u002A\u002A*%
X126010051Y-130910051D03*
X124210051Y-130910051D03*
X126010051Y-131710051D03*
X124210051Y-131710051D03*
X126010051Y-132510051D03*
X124210051Y-132510051D03*
%TD*%
D26*
%TO.C,JP3*%
X82910051Y-124710051D03*
D25*
X82910051Y-122170051D03*
X85450051Y-124710051D03*
X85450051Y-122170051D03*
X87990051Y-124710051D03*
X87990051Y-122170051D03*
X90530051Y-124710051D03*
X90530051Y-122170051D03*
X93070051Y-124710051D03*
X93070051Y-122170051D03*
X95610051Y-124710051D03*
X95610051Y-122170051D03*
X98150051Y-124710051D03*
X98150051Y-122170051D03*
X100690051Y-124710051D03*
X100690051Y-122170051D03*
%TD*%
D14*
%TO.C,REF\u002A\u002A*%
X116600000Y-138700000D03*
X116600000Y-140500000D03*
X117400000Y-138700000D03*
X117400000Y-140500000D03*
X118200000Y-138700000D03*
X118200000Y-140500000D03*
%TD*%
%TO.C,REF\u002A\u002A*%
X77410051Y-119010051D03*
X77410051Y-117210051D03*
X76610051Y-119010051D03*
X76610051Y-117210051D03*
X75810051Y-119010051D03*
X75810051Y-117210051D03*
%TD*%
D26*
%TO.C,J4*%
X213970051Y-97110051D03*
D25*
X213970051Y-94570051D03*
X216510051Y-97110051D03*
X216510051Y-94570051D03*
X219050051Y-97110051D03*
X219050051Y-94570051D03*
%TD*%
D26*
%TO.C,J5*%
X233970051Y-110957551D03*
D25*
X233970051Y-108417551D03*
X236510051Y-110957551D03*
X236510051Y-108417551D03*
X239050051Y-110957551D03*
X239050051Y-108417551D03*
%TD*%
D16*
%TO.C,J21*%
X204950051Y-137970051D03*
D17*
X202410051Y-137970051D03*
X204950051Y-135430051D03*
X202410051Y-135430051D03*
X204950051Y-132890051D03*
X202410051Y-132890051D03*
X204950051Y-130350051D03*
X202410051Y-130350051D03*
X204950051Y-127810051D03*
X202410051Y-127810051D03*
%TD*%
D14*
%TO.C,REF\u002A\u002A*%
X103110051Y-97110051D03*
X104910051Y-97110051D03*
X103110051Y-96310051D03*
X104910051Y-96310051D03*
X103110051Y-95510051D03*
X104910051Y-95510051D03*
%TD*%
D10*
%TO.C,D13*%
X115383007Y-79813007D03*
D11*
X112843007Y-79813007D03*
%TD*%
D14*
%TO.C,REF\u002A\u002A*%
X242800000Y-48800000D03*
X242800000Y-47000000D03*
X242000000Y-48800000D03*
X242000000Y-47000000D03*
X241200000Y-48800000D03*
X241200000Y-47000000D03*
%TD*%
D16*
%TO.C,J143*%
X108950051Y-132410051D03*
D17*
X106410051Y-132410051D03*
X103870051Y-132410051D03*
X101330051Y-132410051D03*
X98790051Y-132410051D03*
%TD*%
D14*
%TO.C,REF\u002A\u002A*%
X118110051Y-69010051D03*
X118110051Y-67210051D03*
X117310051Y-69010051D03*
X117310051Y-67210051D03*
X116510051Y-69010051D03*
X116510051Y-67210051D03*
%TD*%
D23*
%TO.C,C3*%
X220310051Y-137310051D03*
D15*
X220310051Y-135310051D03*
%TD*%
D10*
%TO.C,D14*%
X116983007Y-83913007D03*
D11*
X114443007Y-83913007D03*
%TD*%
D26*
%TO.C,J1*%
X233970051Y-97110051D03*
D25*
X233970051Y-94570051D03*
X236510051Y-97110051D03*
X236510051Y-94570051D03*
X239050051Y-97110051D03*
X239050051Y-94570051D03*
%TD*%
D14*
%TO.C,REF\u002A\u002A*%
X83810051Y-108110051D03*
X82010051Y-108110051D03*
X83810051Y-108910051D03*
X82010051Y-108910051D03*
X83810051Y-109710051D03*
X82010051Y-109710051D03*
%TD*%
%TO.C,REF\u002A\u002A*%
X227210051Y-116010051D03*
X227210051Y-117810051D03*
X228010051Y-116010051D03*
X228010051Y-117810051D03*
X228810051Y-116010051D03*
X228810051Y-117810051D03*
%TD*%
%TO.C,REF\u002A\u002A*%
X51700000Y-77100000D03*
X49900000Y-77100000D03*
X51700000Y-77900000D03*
X49900000Y-77900000D03*
X51700000Y-78700000D03*
X49900000Y-78700000D03*
%TD*%
%TO.C,REF\u002A\u002A*%
X252300000Y-83400000D03*
X254100000Y-83400000D03*
X252300000Y-82600000D03*
X254100000Y-82600000D03*
X252300000Y-81800000D03*
X254100000Y-81800000D03*
%TD*%
D15*
%TO.C,C7*%
X224500000Y-132000000D03*
X224500000Y-127000000D03*
%TD*%
D27*
%TO.C,SW4*%
X108840152Y-56970152D03*
D28*
X105030152Y-54430152D03*
X111380152Y-51890152D03*
D29*
X107570152Y-62050152D03*
X110110152Y-62050152D03*
%TD*%
D20*
%TO.C,RV1*%
X92812994Y-105612994D03*
X92812994Y-115212994D03*
D10*
X85312994Y-107912994D03*
D11*
X85312994Y-110412994D03*
X85312994Y-112912994D03*
%TD*%
D14*
%TO.C,REF\u002A\u002A*%
X137910051Y-119310051D03*
X137910051Y-117510051D03*
X137110051Y-119310051D03*
X137110051Y-117510051D03*
X136310051Y-119310051D03*
X136310051Y-117510051D03*
%TD*%
D12*
%TO.C,R3*%
X241505051Y-127610051D03*
D13*
X243405051Y-127610051D03*
%TD*%
D23*
%TO.C,C5*%
X177110051Y-144410051D03*
D15*
X179110051Y-144410051D03*
%TD*%
D10*
%TO.C,D21*%
X95082995Y-79812995D03*
D11*
X92542995Y-79812995D03*
%TD*%
D14*
%TO.C,REF\u002A\u002A*%
X45600000Y-102000000D03*
X43800000Y-102000000D03*
X45600000Y-102800000D03*
X43800000Y-102800000D03*
X45600000Y-103600000D03*
X43800000Y-103600000D03*
%TD*%
D10*
%TO.C,D10*%
X190280051Y-136410051D03*
D11*
X187740051Y-136410051D03*
%TD*%
D16*
%TO.C,J43*%
X247910051Y-72410051D03*
D17*
X250450051Y-72410051D03*
%TD*%
D16*
%TO.C,J66*%
X86630152Y-49410152D03*
D17*
X89170152Y-49410152D03*
X86630152Y-51950152D03*
X89170152Y-51950152D03*
X86630152Y-54490152D03*
X89170152Y-54490152D03*
X86630152Y-57030152D03*
X89170152Y-57030152D03*
%TD*%
D16*
%TO.C,J73*%
X79810051Y-93912992D03*
D17*
X79810051Y-96452992D03*
X79810051Y-98992992D03*
X79810051Y-101532992D03*
X79810051Y-104072992D03*
X79810051Y-106612992D03*
X79810051Y-109152992D03*
X79810051Y-111692992D03*
%TD*%
D16*
%TO.C,J32*%
X194520101Y-51010051D03*
D17*
X197060101Y-51010051D03*
%TD*%
D16*
%TO.C,J25*%
X149920101Y-51010051D03*
D17*
X152460101Y-51010051D03*
%TD*%
D16*
%TO.C,J51*%
X194110051Y-92410051D03*
D17*
X196650051Y-92410051D03*
%TD*%
D16*
%TO.C,J8*%
X202970051Y-106210051D03*
D17*
X205510051Y-106210051D03*
%TD*%
D16*
%TO.C,J11*%
X202970051Y-113810051D03*
D17*
X205510051Y-113810051D03*
%TD*%
D16*
%TO.C,J13*%
X247570051Y-92410051D03*
D17*
X250110051Y-92410051D03*
%TD*%
D16*
%TO.C,J55*%
X194120101Y-106210051D03*
D17*
X196660101Y-106210051D03*
%TD*%
D16*
%TO.C,J9*%
X202970051Y-78610051D03*
D17*
X205510051Y-78610051D03*
%TD*%
D16*
%TO.C,J42*%
X248310101Y-58610051D03*
D17*
X250850101Y-58610051D03*
%TD*%
D16*
%TO.C,J59*%
X194110051Y-120010051D03*
D17*
X196650051Y-120010051D03*
%TD*%
D16*
%TO.C,J35*%
X194110051Y-72410051D03*
D17*
X196650051Y-72410051D03*
%TD*%
D16*
%TO.C,J60*%
X194110051Y-127610051D03*
D17*
X196650051Y-127610051D03*
%TD*%
D16*
%TO.C,J46*%
X194120101Y-78610051D03*
D17*
X196660101Y-78610051D03*
%TD*%
D16*
%TO.C,J153*%
X99370052Y-83810052D03*
D17*
X101910052Y-83810052D03*
X99370052Y-81270052D03*
X101910052Y-81270052D03*
X99370052Y-78730052D03*
X101910052Y-78730052D03*
X99370052Y-76190052D03*
X101910052Y-76190052D03*
%TD*%
D16*
%TO.C,J7*%
X202970051Y-92410051D03*
D17*
X205510051Y-92410051D03*
%TD*%
D16*
%TO.C,J34*%
X194520101Y-58610051D03*
D17*
X197060101Y-58610051D03*
%TD*%
D16*
%TO.C,J53*%
X149520101Y-106210051D03*
D17*
X152060101Y-106210051D03*
%TD*%
D16*
%TO.C,J68*%
X119167109Y-83107107D03*
D17*
X121707109Y-83107107D03*
X119167109Y-80567107D03*
X121707109Y-80567107D03*
X119167109Y-78027107D03*
X121707109Y-78027107D03*
X119167109Y-75487107D03*
X121707109Y-75487107D03*
%TD*%
D16*
%TO.C,J113*%
X143307110Y-78910050D03*
D17*
X143307110Y-81450050D03*
X143307110Y-83990050D03*
%TD*%
D16*
%TO.C,J70*%
X64710051Y-93912992D03*
D17*
X64710051Y-96452992D03*
X64710051Y-98992992D03*
X64710051Y-101532992D03*
X64710051Y-104072992D03*
X64710051Y-106612992D03*
X64710051Y-109152992D03*
X64710051Y-111692992D03*
%TD*%
D16*
%TO.C,J64*%
X95772994Y-112952994D03*
D17*
X98312994Y-112952994D03*
X95772994Y-110412994D03*
X98312994Y-110412994D03*
X95772994Y-107872994D03*
X98312994Y-107872994D03*
%TD*%
D16*
%TO.C,J47*%
X194120101Y-86210051D03*
D17*
X196660101Y-86210051D03*
%TD*%
D16*
%TO.C,J76*%
X133792994Y-115407108D03*
D17*
X131252994Y-115407108D03*
X128712994Y-115407108D03*
%TD*%
D16*
%TO.C,J56*%
X194120101Y-113810051D03*
D17*
X196660101Y-113810051D03*
%TD*%
D16*
%TO.C,J154*%
X74210051Y-135730051D03*
D17*
X76750051Y-135730051D03*
X74210051Y-133190051D03*
X76750051Y-133190051D03*
X74210051Y-130650051D03*
X76750051Y-130650051D03*
X74210051Y-128110051D03*
X76750051Y-128110051D03*
%TD*%
D16*
%TO.C,J152*%
X87312995Y-76192995D03*
D17*
X87312995Y-78732995D03*
X87312995Y-81272995D03*
X87312995Y-83812995D03*
%TD*%
D16*
%TO.C,J40*%
X248320101Y-51010051D03*
D17*
X250860101Y-51010051D03*
%TD*%
D16*
%TO.C,J14*%
X247570051Y-106210051D03*
D17*
X250110051Y-106210051D03*
%TD*%
D16*
%TO.C,J101*%
X78610051Y-76410051D03*
D17*
X81150051Y-76410051D03*
X78610051Y-78950051D03*
X81150051Y-78950051D03*
X78610051Y-81490051D03*
X81150051Y-81490051D03*
X78610051Y-84030051D03*
X81150051Y-84030051D03*
%TD*%
D16*
%TO.C,J44*%
X149520101Y-78610051D03*
D17*
X152060101Y-78610051D03*
%TD*%
D16*
%TO.C,J38*%
X203720101Y-58610051D03*
D17*
X206260101Y-58610051D03*
%TD*%
D16*
%TO.C,J45*%
X149520101Y-86210051D03*
D17*
X152060101Y-86210051D03*
%TD*%
D16*
%TO.C,J36*%
X203720101Y-51010051D03*
D17*
X206260101Y-51010051D03*
%TD*%
D16*
%TO.C,J41*%
X247910051Y-64810051D03*
D17*
X250450051Y-64810051D03*
%TD*%
D16*
%TO.C,J95*%
X53910051Y-76410051D03*
D17*
X53910051Y-78950051D03*
X53910051Y-81490051D03*
X53910051Y-84030051D03*
%TD*%
D16*
%TO.C,J84*%
X133790052Y-99710051D03*
D17*
X131250052Y-99710051D03*
X128710052Y-99710051D03*
%TD*%
D16*
%TO.C,J57*%
X149510051Y-120010051D03*
D17*
X152050051Y-120010051D03*
%TD*%
D16*
%TO.C,J82*%
X131112994Y-48212994D03*
D17*
X131112994Y-50752994D03*
X131112994Y-53292994D03*
X131112994Y-55832994D03*
X131112994Y-58372994D03*
%TD*%
D16*
%TO.C,J16*%
X247570051Y-100010051D03*
D17*
X250110051Y-100010051D03*
%TD*%
D16*
%TO.C,J67*%
X116870051Y-97590051D03*
D17*
X119410051Y-97590051D03*
X116870051Y-95050051D03*
X119410051Y-95050051D03*
X116870051Y-92510051D03*
X119410051Y-92510051D03*
%TD*%
D16*
%TO.C,J37*%
X203310051Y-64810051D03*
D17*
X205850051Y-64810051D03*
%TD*%
D16*
%TO.C,J144*%
X118810051Y-135730051D03*
D17*
X121350051Y-135730051D03*
X118810051Y-133190051D03*
X121350051Y-133190051D03*
X118810051Y-130650051D03*
X121350051Y-130650051D03*
X118810051Y-128110051D03*
X121350051Y-128110051D03*
%TD*%
D16*
%TO.C,J29*%
X149920101Y-58610051D03*
D17*
X152460101Y-58610051D03*
%TD*%
D16*
%TO.C,J54*%
X149520101Y-113810051D03*
D17*
X152060101Y-113810051D03*
%TD*%
D16*
%TO.C,J69*%
X95430152Y-58030152D03*
D17*
X95430152Y-55490152D03*
X95430152Y-52950152D03*
%TD*%
D16*
%TO.C,J65*%
X56710051Y-122310053D03*
D17*
X56710051Y-124850053D03*
X56710051Y-127390053D03*
%TD*%
D16*
%TO.C,J94*%
X128210052Y-67610050D03*
D17*
X128210052Y-70150050D03*
X128210052Y-72690050D03*
%TD*%
D16*
%TO.C,J10*%
X202970051Y-100010051D03*
D17*
X205510051Y-100010051D03*
%TD*%
D16*
%TO.C,J12*%
X202970051Y-86210051D03*
D17*
X205510051Y-86210051D03*
%TD*%
D16*
%TO.C,J75*%
X143310051Y-129010051D03*
D17*
X143310051Y-131550051D03*
X143310051Y-134090051D03*
X143310051Y-136630051D03*
%TD*%
D16*
%TO.C,J62*%
X61930152Y-57030152D03*
D17*
X61930152Y-54490152D03*
X61930152Y-51950152D03*
%TD*%
D16*
%TO.C,J74*%
X95772994Y-97552994D03*
D17*
X98312994Y-97552994D03*
X95772994Y-95012994D03*
X98312994Y-95012994D03*
X95772994Y-92472994D03*
X98312994Y-92472994D03*
%TD*%
D16*
%TO.C,J63*%
X107710064Y-76190064D03*
D17*
X107710064Y-78730064D03*
X107710064Y-81270064D03*
X107710064Y-83810064D03*
%TD*%
D16*
%TO.C,J93*%
X143712994Y-48212994D03*
D17*
X143712994Y-50752994D03*
X143712994Y-53292994D03*
X143712994Y-55832994D03*
X143712994Y-58372994D03*
%TD*%
D16*
%TO.C,J15*%
X247570051Y-78610051D03*
D17*
X250110051Y-78610051D03*
%TD*%
D16*
%TO.C,J30*%
X149510051Y-72410051D03*
D17*
X152050051Y-72410051D03*
%TD*%
D16*
%TO.C,J71*%
X116910051Y-112950052D03*
D17*
X119450051Y-112950052D03*
X116910051Y-110410052D03*
X119450051Y-110410052D03*
X116910051Y-107870052D03*
X119450051Y-107870052D03*
%TD*%
D16*
%TO.C,J72*%
X120090152Y-50430152D03*
D17*
X122630152Y-50430152D03*
X120090152Y-52970152D03*
X122630152Y-52970152D03*
X120090152Y-55510152D03*
X122630152Y-55510152D03*
X120090152Y-58050152D03*
X122630152Y-58050152D03*
%TD*%
D16*
%TO.C,J50*%
X149510051Y-100010051D03*
D17*
X152050051Y-100010051D03*
%TD*%
D16*
%TO.C,J77*%
X128210051Y-129010051D03*
D17*
X128210051Y-131550051D03*
X128210051Y-134090051D03*
X128210051Y-136630051D03*
%TD*%
D16*
%TO.C,J107*%
X128207110Y-78910050D03*
D17*
X128207110Y-81450050D03*
X128207110Y-83990050D03*
%TD*%
D16*
%TO.C,J52*%
X194110051Y-100010051D03*
D17*
X196650051Y-100010051D03*
%TD*%
D16*
%TO.C,J26*%
X149510051Y-64810051D03*
D17*
X152050051Y-64810051D03*
%TD*%
D16*
%TO.C,J58*%
X149510051Y-127610051D03*
D17*
X152050051Y-127610051D03*
%TD*%
D16*
%TO.C,J39*%
X203310051Y-72410051D03*
D17*
X205850051Y-72410051D03*
%TD*%
D16*
%TO.C,J49*%
X149510051Y-92410051D03*
D17*
X152050051Y-92410051D03*
%TD*%
D16*
%TO.C,J17*%
X247570051Y-113810051D03*
D17*
X250110051Y-113810051D03*
%TD*%
D16*
%TO.C,J106*%
X143310052Y-67610050D03*
D17*
X143310052Y-70150050D03*
X143310052Y-72690050D03*
%TD*%
D16*
%TO.C,J33*%
X194110051Y-64810051D03*
D17*
X196650051Y-64810051D03*
%TD*%
D16*
%TO.C,J61*%
X47910051Y-100230049D03*
D17*
X47910051Y-102770049D03*
X47910051Y-105310049D03*
%TD*%
D16*
%TO.C,J18*%
X247570051Y-86210051D03*
D17*
X250110051Y-86210051D03*
%TD*%
M02*
