M48
; DRILL file {KiCad 8.0.0} date 2024-05-08T13:14:45+0200
; FORMAT={-:-/ absolute / inch / decimal}
; #@! TF.CreationDate,2024-05-08T13:14:45+02:00
; #@! TF.GenerationSoftware,Kicad,Pcbnew,8.0.0
; #@! TF.FileFunction,NonPlated,1,2,NPTH
FMAT,2
INCH
; #@! TA.AperFunction,NonPlated,NPTH,ComponentDrill
T1C0.0197
; #@! TA.AperFunction,NonPlated,NPTH,ComponentDrill
T2C0.1575
%
G90
G05
T1
X1.7244Y-4.0157
X1.7244Y-4.0472
X1.7244Y-4.0787
X1.7953Y-4.0157
X1.7953Y-4.0472
X1.7953Y-4.0787
X1.9646Y-3.0354
X1.9646Y-3.0669
X1.9646Y-3.0984
X2.0354Y-3.0354
X2.0354Y-3.0669
X2.0354Y-3.0984
X2.0709Y-4.8701
X2.0709Y-4.9016
X2.0709Y-4.9331
X2.1417Y-4.8701
X2.1417Y-4.9016
X2.1417Y-4.9331
X2.2717Y-2.0787
X2.2717Y-2.1102
X2.2717Y-2.1417
X2.3425Y-2.0787
X2.3425Y-2.1102
X2.3425Y-2.1417
X2.3902Y-4.0122
X2.3902Y-4.0437
X2.3902Y-4.0752
X2.461Y-4.0122
X2.461Y-4.0437
X2.461Y-4.0752
X2.7366Y-4.898
X2.7366Y-4.9295
X2.7366Y-4.961
X2.8075Y-4.898
X2.8075Y-4.9295
X2.8075Y-4.961
X2.8705Y-3.402
X2.8705Y-3.4728
X2.902Y-3.402
X2.902Y-3.4728
X2.9059Y-2.6028
X2.9059Y-2.6736
X2.9335Y-3.402
X2.9335Y-3.4728
X2.9374Y-2.6028
X2.9374Y-2.6736
X2.9689Y-2.6028
X2.9689Y-2.6736
X2.9846Y-4.4846
X2.9846Y-4.5555
X2.9846Y-4.6146
X2.9846Y-4.6854
X3.0161Y-4.4846
X3.0161Y-4.5555
X3.0161Y-4.6146
X3.0161Y-4.6854
X3.0476Y-4.4846
X3.0476Y-4.5555
X3.0476Y-4.6146
X3.0476Y-4.6854
X3.1457Y-5.4606
X3.1457Y-5.5315
X3.1772Y-5.4606
X3.1772Y-5.5315
X3.2087Y-5.4606
X3.2087Y-5.5315
X3.2287Y-3.7091
X3.2287Y-3.7406
X3.2287Y-3.772
X3.2287Y-4.2563
X3.2287Y-4.2878
X3.2287Y-4.3193
X3.2638Y-1.7756
X3.2638Y-1.8465
X3.2839Y-3.028
X3.2839Y-3.0595
X3.2839Y-3.0909
X3.2953Y-1.7756
X3.2953Y-1.8465
X3.2996Y-3.7091
X3.2996Y-3.7406
X3.2996Y-3.772
X3.2996Y-4.2563
X3.2996Y-4.2878
X3.2996Y-4.3193
X3.3268Y-1.7756
X3.3268Y-1.8465
X3.3547Y-3.028
X3.3547Y-3.0595
X3.3547Y-3.0909
X3.5909Y-2.1067
X3.5909Y-2.1382
X3.5909Y-2.1697
X3.6618Y-2.1067
X3.6618Y-2.1382
X3.6618Y-2.1697
X3.6618Y-3.402
X3.6618Y-3.4728
X3.6933Y-3.402
X3.6933Y-3.4728
X3.7248Y-3.402
X3.7248Y-3.4728
X3.772Y-4.0083
X3.772Y-4.0791
X3.8035Y-4.0083
X3.8035Y-4.0791
X3.835Y-4.0083
X3.835Y-4.0791
X3.9016Y-1.815
X3.9016Y-1.8858
X3.9331Y-1.815
X3.9331Y-1.8858
X3.9646Y-1.815
X3.9646Y-1.8858
X4.0595Y-3.7602
X4.0595Y-3.7917
X4.0595Y-3.8232
X4.0595Y-4.3193
X4.0595Y-4.3508
X4.0595Y-4.3823
X4.087Y-3.0713
X4.087Y-3.1028
X4.087Y-3.1343
X4.1303Y-3.7602
X4.1303Y-3.7917
X4.1303Y-3.8232
X4.1303Y-4.3193
X4.1303Y-4.3508
X4.1303Y-4.3823
X4.1579Y-3.0713
X4.1579Y-3.1028
X4.1579Y-3.1343
X4.4768Y-4.6146
X4.4768Y-4.6854
X4.4925Y-3.402
X4.4925Y-3.4728
X4.5083Y-4.6146
X4.5083Y-4.6854
X4.524Y-3.402
X4.524Y-3.4728
X4.5398Y-4.6146
X4.5398Y-4.6854
X4.5555Y-3.402
X4.5555Y-3.4728
X4.587Y-2.6461
X4.587Y-2.7169
X4.5906Y-5.4606
X4.5906Y-5.5315
X4.5988Y-4.0083
X4.5988Y-4.0791
X4.6185Y-2.6461
X4.6185Y-2.7169
X4.622Y-5.4606
X4.622Y-5.5315
X4.6303Y-4.0083
X4.6303Y-4.0791
X4.65Y-2.6461
X4.65Y-2.7169
X4.6535Y-5.4606
X4.6535Y-5.5315
X4.6618Y-4.0083
X4.6618Y-4.0791
X4.8902Y-3.1658
X4.8902Y-3.1972
X4.8902Y-3.2287
X4.8902Y-3.7602
X4.8902Y-3.7917
X4.8902Y-3.8232
X4.8902Y-4.3193
X4.8902Y-4.3508
X4.8902Y-4.3823
X4.8902Y-5.1539
X4.8902Y-5.1854
X4.8902Y-5.2169
X4.961Y-3.1658
X4.961Y-3.1972
X4.961Y-3.2287
X4.961Y-3.7602
X4.961Y-3.7917
X4.961Y-3.8232
X4.961Y-4.3193
X4.961Y-4.3508
X4.961Y-4.3823
X4.961Y-5.1539
X4.961Y-5.1854
X4.961Y-5.2169
X5.1894Y-4.0083
X5.1894Y-4.0791
X5.2209Y-4.0083
X5.2209Y-4.0791
X5.2524Y-4.0083
X5.2524Y-4.0791
X5.3075Y-2.9492
X5.3075Y-3.0201
X5.3075Y-3.3902
X5.3075Y-3.461
X5.339Y-2.9492
X5.339Y-3.0201
X5.339Y-3.3902
X5.339Y-3.461
X5.3665Y-4.6264
X5.3665Y-4.6972
X5.3705Y-2.9492
X5.3705Y-3.0201
X5.3705Y-3.3902
X5.3705Y-3.461
X5.3941Y-2.5083
X5.3941Y-2.5791
X5.398Y-4.6264
X5.398Y-4.6972
X5.4256Y-2.5083
X5.4256Y-2.5791
X5.4295Y-4.6264
X5.4295Y-4.6972
X5.4571Y-2.5083
X5.4571Y-2.5791
X5.7287Y-3.7563
X5.7287Y-3.7878
X5.7287Y-3.8193
X5.7287Y-4.3075
X5.7287Y-4.339
X5.7287Y-4.3705
X5.7445Y-2.1303
X5.7445Y-2.1618
X5.7445Y-2.1933
X5.7996Y-3.7563
X5.7996Y-3.7878
X5.7996Y-3.8193
X5.7996Y-4.3075
X5.7996Y-4.339
X5.7996Y-4.3705
X5.8154Y-2.1303
X5.8154Y-2.1618
X5.8154Y-2.1933
X6.1063Y-1.8504
X6.1063Y-1.9213
X6.1378Y-1.8504
X6.1378Y-1.9213
X6.1693Y-1.8504
X6.1693Y-1.9213
X6.3031Y-5.8031
X6.3031Y-5.874
X6.3346Y-5.8031
X6.3346Y-5.874
X6.3661Y-5.8031
X6.3661Y-5.874
X6.4059Y-2.3941
X6.4059Y-2.465
X6.4374Y-2.3941
X6.4374Y-2.465
X6.4689Y-2.3941
X6.4689Y-2.465
X6.7957Y-2.9374
X6.7957Y-3.0083
X6.7957Y-3.4807
X6.7957Y-3.5516
X6.7957Y-4.024
X6.7957Y-4.0949
X6.7957Y-4.5673
X6.7957Y-4.6382
X6.7957Y-5.1106
X6.7957Y-5.1815
X6.8272Y-2.9374
X6.8272Y-3.0083
X6.8272Y-3.4807
X6.8272Y-3.5516
X6.8272Y-4.024
X6.8272Y-4.0949
X6.8272Y-4.5673
X6.8272Y-4.6382
X6.8272Y-5.1106
X6.8272Y-5.1815
X6.8587Y-2.9374
X6.8587Y-3.0083
X6.8587Y-3.4807
X6.8587Y-3.5516
X6.8587Y-4.024
X6.8587Y-4.0949
X6.8587Y-4.5673
X6.8587Y-4.6382
X6.8587Y-5.1106
X6.8587Y-5.1815
X7.3819Y-5.8031
X7.3819Y-5.874
X7.4134Y-5.8031
X7.4134Y-5.874
X7.4449Y-5.8031
X7.4449Y-5.874
X7.8311Y-3.2091
X7.8311Y-3.2406
X7.8311Y-3.272
X7.8311Y-3.7524
X7.8311Y-3.7839
X7.8311Y-3.8154
X7.8311Y-4.2957
X7.8311Y-4.3272
X7.8311Y-4.3587
X7.8311Y-4.839
X7.8311Y-4.8705
X7.8311Y-4.902
X7.8311Y-5.3154
X7.8311Y-5.3469
X7.8311Y-5.3783
X7.8862Y-2.3941
X7.8862Y-2.465
X7.902Y-3.2091
X7.902Y-3.2406
X7.902Y-3.272
X7.902Y-3.7524
X7.902Y-3.7839
X7.902Y-3.8154
X7.902Y-4.2957
X7.902Y-4.3272
X7.902Y-4.3587
X7.902Y-4.839
X7.902Y-4.8705
X7.902Y-4.902
X7.902Y-5.3154
X7.902Y-5.3469
X7.902Y-5.3783
X7.9177Y-2.3941
X7.9177Y-2.465
X7.9492Y-2.3941
X7.9492Y-2.465
X8.2126Y-5.5
X8.2126Y-5.5709
X8.2441Y-5.5
X8.2441Y-5.5709
X8.2756Y-5.5
X8.2756Y-5.5709
X8.9453Y-2.9374
X8.9453Y-3.0083
X8.9453Y-3.4807
X8.9453Y-3.5516
X8.9453Y-4.024
X8.9453Y-4.0949
X8.9453Y-4.5673
X8.9453Y-4.6382
X8.9768Y-2.9374
X8.9768Y-3.0083
X8.9768Y-3.4807
X8.9768Y-3.5516
X8.9768Y-4.024
X8.9768Y-4.0949
X8.9768Y-4.5673
X8.9768Y-4.6382
X9.0083Y-2.9374
X9.0083Y-3.0083
X9.0083Y-3.4807
X9.0083Y-3.5516
X9.0083Y-4.024
X9.0083Y-4.0949
X9.0083Y-4.5673
X9.0083Y-4.6382
X9.2327Y-2.3941
X9.2327Y-2.465
X9.2642Y-2.3941
X9.2642Y-2.465
X9.2957Y-2.3941
X9.2957Y-2.465
X9.4567Y-5.5
X9.4567Y-5.5709
X9.4882Y-5.5
X9.4882Y-5.5709
X9.4961Y-1.8504
X9.4961Y-1.9213
X9.5197Y-5.5
X9.5197Y-5.5709
X9.5276Y-1.8504
X9.5276Y-1.9213
X9.5591Y-1.8504
X9.5591Y-1.9213
X9.8937Y-5.0394
X9.8937Y-5.0709
X9.8937Y-5.1024
X9.9331Y-3.2205
X9.9331Y-3.252
X9.9331Y-3.2835
X9.9331Y-4.2992
X9.9331Y-4.3307
X9.9331Y-4.3622
X9.9646Y-2.1181
X9.9646Y-2.1496
X9.9646Y-2.1811
X9.9646Y-5.0394
X9.9646Y-5.0709
X9.9646Y-5.1024
X10.0039Y-3.2205
X10.0039Y-3.252
X10.0039Y-3.2835
X10.0039Y-4.2992
X10.0039Y-4.3307
X10.0039Y-4.3622
X10.0354Y-2.1181
X10.0354Y-2.1496
X10.0354Y-2.1811
T2
X2.9658Y-2.2035
X4.285Y-2.2429
M30
