M48
; DRILL file {KiCad 8.0.0} date 2024-05-08T13:14:45+0200
; FORMAT={-:-/ absolute / inch / decimal}
; #@! TF.CreationDate,2024-05-08T13:14:45+02:00
; #@! TF.GenerationSoftware,Kicad,Pcbnew,8.0.0
; #@! TF.FileFunction,Plated,1,2,PTH
FMAT,2
INCH
; #@! TA.AperFunction,Plated,PTH,ViaDrill
T1C0.0118
; #@! TA.AperFunction,Plated,PTH,ComponentDrill
T2C0.0276
; #@! TA.AperFunction,Plated,PTH,ComponentDrill
T3C0.0315
; #@! TA.AperFunction,Plated,PTH,ComponentDrill
T4C0.0354
; #@! TA.AperFunction,Plated,PTH,ComponentDrill
T5C0.0390
; #@! TA.AperFunction,Plated,PTH,ComponentDrill
T6C0.0394
; #@! TA.AperFunction,Plated,PTH,ComponentDrill
T7C0.0433
; #@! TA.AperFunction,Plated,PTH,ComponentDrill
T8C0.0472
; #@! TA.AperFunction,Plated,PTH,ComponentDrill
T9C0.0512
; #@! TA.AperFunction,Plated,PTH,ComponentDrill
T10C0.0591
; #@! TA.AperFunction,Plated,PTH,ComponentDrill
T11C0.0630
%
G90
G05
T1
X2.6929Y-3.1811
X8.1811Y-5.3386
X8.2283Y-5.2835
X8.3858Y-5.1181
X8.5512Y-5.2047
X8.7244Y-4.9291
T2
X3.5556Y-2.7722
X3.5556Y-2.847
X3.5556Y-2.9375
X3.5556Y-3.0123
X3.5556Y-3.1029
X3.5556Y-3.1777
X3.5556Y-3.2682
X3.5556Y-3.343
X4.3588Y-2.7722
X4.3588Y-2.847
X4.3588Y-2.9375
X4.3588Y-3.0123
X4.3588Y-3.1029
X4.3588Y-3.1777
X4.3588Y-3.2682
X4.3588Y-3.343
X7.1067Y-5.5358
X7.1815Y-5.5358
X7.4254Y-5.5358
X7.5002Y-5.5358
X9.0949Y-5.024
X9.1697Y-5.024
X9.2917Y-5.024
X9.3665Y-5.024
X9.5081Y-5.024
X9.5829Y-5.024
T3
X2.7437Y-3.6958
X2.7437Y-3.7958
X2.7437Y-3.8958
X2.7437Y-3.9958
X2.7437Y-4.0958
X2.7437Y-4.1958
X2.7437Y-4.2958
X2.7437Y-4.3958
X3.0437Y-3.6958
X3.0437Y-3.7958
X3.0437Y-3.8958
X3.0437Y-3.9958
X3.0437Y-4.0958
X3.0437Y-4.1958
X3.0437Y-4.2958
X3.0437Y-4.3958
X5.331Y-3.1264
X5.331Y-3.2051
X5.331Y-3.2839
X5.3311Y-2.6815
X5.3311Y-2.7602
X5.3311Y-2.839
X5.4123Y-1.7785
X5.4123Y-1.8785
X5.4123Y-1.9785
X5.4123Y-2.1785
X5.4123Y-2.2785
X5.5123Y-1.7785
X5.5123Y-1.8785
X5.5123Y-1.9785
X5.5123Y-2.1785
X5.5123Y-2.2785
X5.5278Y-3.1264
X5.5278Y-3.2051
X5.5278Y-3.2839
X5.528Y-2.6815
X5.528Y-2.7602
X5.528Y-2.839
X6.7226Y-5.6815
X6.8014Y-5.6815
X6.9728Y-5.6854
X7.0516Y-5.6854
X7.1854Y-5.7327
X7.2996Y-5.6303
X7.3823Y-5.7327
X7.4965Y-5.6303
X8.6697Y-5.073
X8.6697Y-5.1518
X8.6736Y-5.3272
X8.6736Y-5.4059
X8.8386Y-5.0
X8.8386Y-5.1969
X8.9374Y-5.1969
X8.9374Y-5.3937
X9.4256Y-5.2388
X9.4256Y-5.3175
X9.5909Y-5.1815
X9.5909Y-5.3783
T4
X2.6232Y-3.039
X2.6232Y-3.239
X2.7232Y-2.839
X2.8232Y-2.839
X2.9232Y-3.039
X2.9232Y-3.239
X3.6434Y-2.8194
X3.6434Y-3.1422
X3.7025Y-2.9808
X3.7025Y-3.3037
X3.7434Y-2.8194
X3.7434Y-3.1422
X3.8025Y-2.9808
X3.8025Y-3.3037
X4.4426Y-2.8194
X4.4426Y-3.1422
X4.5056Y-2.9808
X4.5056Y-3.3037
X4.5426Y-2.8194
X4.5426Y-3.1422
X4.6056Y-2.9808
X4.6056Y-3.3037
X7.0961Y-5.3744
X7.1961Y-5.3744
X7.3913Y-5.3705
X7.4913Y-5.3705
X9.1681Y-4.8272
X9.2681Y-4.8272
X9.4543Y-4.8272
X9.5543Y-4.8272
X9.7299Y-4.8272
X9.8299Y-4.8272
T5
X2.9158Y-2.4035
X3.0158Y-2.4035
X4.235Y-2.4429
X4.335Y-2.4429
T6
X1.8862Y-3.9461
X1.8862Y-4.0461
X1.8862Y-4.1461
X2.1224Y-3.0083
X2.1224Y-3.1083
X2.1224Y-3.2083
X2.1224Y-3.3083
X2.2327Y-4.8154
X2.2327Y-4.9154
X2.2327Y-5.0154
X2.4382Y-2.0453
X2.4382Y-2.1453
X2.4382Y-2.2453
X2.5476Y-3.6974
X2.5476Y-3.7974
X2.5476Y-3.8974
X2.5476Y-3.9974
X2.5476Y-4.0974
X2.5476Y-4.1974
X2.5476Y-4.2974
X2.5476Y-4.3974
X2.9217Y-5.0437
X2.9217Y-5.1437
X2.9217Y-5.2437
X2.9217Y-5.3437
X3.0217Y-5.0437
X3.0217Y-5.1437
X3.0217Y-5.2437
X3.0217Y-5.3437
X3.0949Y-3.0083
X3.0949Y-3.1083
X3.0949Y-3.2083
X3.0949Y-3.3083
X3.1421Y-3.6974
X3.1421Y-3.7974
X3.1421Y-3.8974
X3.1421Y-3.9974
X3.1421Y-4.0974
X3.1421Y-4.1974
X3.1421Y-4.2974
X3.1421Y-4.3974
X3.1949Y-3.0083
X3.1949Y-3.1083
X3.1949Y-3.2083
X3.1949Y-3.3083
X3.2642Y-4.8098
X3.2642Y-4.9098
X3.2949Y-5.213
X3.3588Y-3.6422
X3.3588Y-3.7407
X3.3588Y-3.8391
X3.3588Y-4.2485
X3.3588Y-4.347
X3.3588Y-4.4454
X3.3642Y-4.8098
X3.3642Y-4.9098
X3.3949Y-5.213
X3.4106Y-1.9453
X3.4106Y-2.0453
X3.4106Y-2.1453
X3.4106Y-2.2453
X3.4375Y-2.9997
X3.4375Y-3.0997
X3.4375Y-3.1997
X3.4375Y-3.2997
X3.4642Y-4.8098
X3.4642Y-4.9098
X3.4949Y-5.213
X3.5106Y-1.9453
X3.5106Y-2.0453
X3.5106Y-2.1453
X3.5106Y-2.2453
X3.5642Y-4.8098
X3.5642Y-4.9098
X3.5949Y-5.213
X3.6642Y-4.8098
X3.6642Y-4.9098
X3.7571Y-2.0847
X3.7571Y-2.1847
X3.7571Y-2.2847
X3.7642Y-4.8098
X3.7642Y-4.9098
X3.7706Y-3.6407
X3.7706Y-3.7407
X3.7706Y-3.8407
X3.7706Y-4.247
X3.7706Y-4.347
X3.7706Y-4.447
X3.8642Y-4.8098
X3.8642Y-4.9098
X3.8706Y-3.6407
X3.8706Y-3.7407
X3.8706Y-3.8407
X3.8706Y-4.247
X3.8706Y-4.347
X3.8706Y-4.447
X3.8894Y-5.213
X3.9122Y-2.9996
X3.9122Y-3.0996
X3.9122Y-3.1996
X3.9122Y-3.2996
X3.9642Y-4.8098
X3.9642Y-4.9098
X3.9894Y-5.213
X4.0122Y-2.9996
X4.0122Y-3.0996
X4.0122Y-3.1996
X4.0122Y-3.2996
X4.0894Y-5.213
X4.1894Y-3.6421
X4.1894Y-3.7406
X4.1894Y-3.839
X4.1894Y-4.2484
X4.1894Y-4.3469
X4.1894Y-4.4453
X4.1894Y-5.213
X4.2209Y-4.8045
X4.2209Y-4.9045
X4.2406Y-2.9996
X4.2406Y-3.0996
X4.2406Y-3.1996
X4.2406Y-3.2996
X4.2894Y-5.213
X4.3862Y-4.8045
X4.3862Y-4.9045
X4.5516Y-4.8045
X4.5516Y-4.9045
X4.6012Y-3.6421
X4.6012Y-3.7421
X4.6012Y-3.8421
X4.6028Y-4.2469
X4.6028Y-4.3469
X4.6028Y-4.4469
X4.6776Y-5.0437
X4.6776Y-5.1437
X4.6776Y-5.2437
X4.6776Y-5.3437
X4.6916Y-2.9719
X4.6916Y-3.0719
X4.6916Y-3.1719
X4.6916Y-3.2719
X4.7012Y-3.6421
X4.7012Y-3.7421
X4.7012Y-3.8421
X4.7028Y-4.2469
X4.7028Y-4.3469
X4.7028Y-4.4469
X4.728Y-1.9854
X4.728Y-2.0854
X4.728Y-2.1854
X4.728Y-2.2854
X4.7776Y-5.0437
X4.7776Y-5.1437
X4.7776Y-5.2437
X4.7776Y-5.3437
X4.7916Y-2.9719
X4.7916Y-3.0719
X4.7916Y-3.1719
X4.7916Y-3.2719
X4.828Y-1.9854
X4.828Y-2.0854
X4.828Y-2.1854
X4.828Y-2.2854
X5.0475Y-3.1067
X5.0475Y-3.2067
X5.0475Y-3.3067
X5.0476Y-5.0791
X5.0476Y-5.1791
X5.0476Y-5.2791
X5.0476Y-5.3791
X5.0476Y-2.6618
X5.0476Y-2.7618
X5.0476Y-2.8618
X5.0673Y-3.9256
X5.0674Y-4.5436
X5.1619Y-1.8981
X5.1619Y-1.9981
X5.1619Y-2.0981
X5.1619Y-2.1981
X5.1619Y-2.2981
X5.1673Y-3.9256
X5.1674Y-4.5436
X5.2673Y-3.9256
X5.2674Y-4.5436
X5.642Y-3.1067
X5.642Y-3.2067
X5.642Y-3.3067
X5.6421Y-5.0791
X5.6421Y-5.1791
X5.6421Y-5.2791
X5.6421Y-5.3791
X5.6421Y-2.6618
X5.6421Y-2.7618
X5.6421Y-2.8618
X5.658Y-1.8981
X5.658Y-1.9981
X5.658Y-2.0981
X5.658Y-2.1981
X5.658Y-2.2981
X5.8862Y-2.5516
X5.8862Y-2.8508
X5.8862Y-3.6382
X5.8862Y-3.9374
X5.8862Y-4.7248
X5.8862Y-5.024
X5.8866Y-3.0949
X5.8866Y-3.3941
X5.8866Y-4.1815
X5.8866Y-4.4807
X5.9024Y-2.0083
X5.9024Y-2.3075
X5.9059Y-5.335
X5.9059Y-5.435
X5.9059Y-5.535
X5.9059Y-5.635
X5.9059Y-5.735
X5.9862Y-2.5516
X5.9862Y-2.8508
X5.9862Y-3.6382
X5.9862Y-3.9374
X5.9862Y-4.7248
X5.9862Y-5.024
X5.9866Y-3.0949
X5.9866Y-3.3941
X5.9866Y-4.1815
X5.9866Y-4.4807
X6.0024Y-2.0083
X6.0024Y-2.3075
X6.0059Y-5.335
X6.0059Y-5.435
X6.0059Y-5.535
X6.0059Y-5.635
X6.0059Y-5.735
X6.3429Y-5.2996
X6.3429Y-5.3996
X6.4429Y-5.2996
X6.4429Y-5.3996
X6.5429Y-5.2996
X6.5429Y-5.3996
X6.6429Y-5.2996
X6.6429Y-5.3996
X6.7429Y-5.2996
X6.7429Y-5.3996
X7.6421Y-2.5516
X7.6421Y-2.8508
X7.6421Y-3.6382
X7.6421Y-3.9374
X7.6421Y-4.7248
X7.6421Y-5.024
X7.6425Y-3.0949
X7.6425Y-3.3941
X7.6425Y-4.1815
X7.6425Y-4.4807
X7.6583Y-2.0083
X7.6583Y-2.3075
X7.6642Y-5.335
X7.6642Y-5.435
X7.6642Y-5.535
X7.6642Y-5.635
X7.6642Y-5.735
X7.7421Y-2.5516
X7.7421Y-2.8508
X7.7421Y-3.6382
X7.7421Y-3.9374
X7.7421Y-4.7248
X7.7421Y-5.024
X7.7425Y-3.0949
X7.7425Y-3.3941
X7.7425Y-4.1815
X7.7425Y-4.4807
X7.7583Y-2.0083
X7.7583Y-2.3075
X7.7642Y-5.335
X7.7642Y-5.435
X7.7642Y-5.535
X7.7642Y-5.635
X7.7642Y-5.735
X7.9689Y-5.0319
X7.9689Y-5.1319
X7.9689Y-5.2319
X7.9689Y-5.3319
X7.9689Y-5.4319
X7.9909Y-3.0949
X7.9909Y-3.3941
X7.9909Y-3.6382
X7.9909Y-3.9374
X7.9909Y-4.1815
X7.9909Y-4.4807
X8.0043Y-2.5516
X8.0043Y-2.8508
X8.0205Y-2.0083
X8.0205Y-2.3075
X8.0689Y-5.0319
X8.0689Y-5.1319
X8.0689Y-5.2319
X8.0689Y-5.3319
X8.0689Y-5.4319
X8.0909Y-3.0949
X8.0909Y-3.3941
X8.0909Y-3.6382
X8.0909Y-3.9374
X8.0909Y-4.1815
X8.0909Y-4.4807
X8.1043Y-2.5516
X8.1043Y-2.8508
X8.1205Y-2.0083
X8.1205Y-2.3075
X8.1681Y-4.7547
X8.1681Y-4.8547
X8.2681Y-4.7547
X8.2681Y-4.8547
X8.3681Y-4.7547
X8.3681Y-4.8547
X8.4222Y-3.1977
X8.4222Y-3.2977
X8.4222Y-4.2783
X8.4222Y-4.3783
X8.424Y-3.7232
X8.424Y-3.8232
X8.4681Y-4.7547
X8.4681Y-4.8547
X8.5222Y-3.1977
X8.5222Y-3.2977
X8.5222Y-4.2783
X8.5222Y-4.3783
X8.524Y-3.7232
X8.524Y-3.8232
X8.5681Y-4.7547
X8.5681Y-4.8547
X8.6222Y-3.1977
X8.6222Y-3.2977
X8.6222Y-4.2783
X8.6222Y-4.3783
X8.624Y-3.7232
X8.624Y-3.8232
X8.6681Y-4.7547
X8.6681Y-4.8547
X8.7681Y-4.7547
X8.7681Y-4.8547
X8.8681Y-4.7547
X8.8681Y-4.8547
X9.0748Y-5.3543
X9.1748Y-5.3543
X9.2096Y-3.1977
X9.2096Y-3.2977
X9.2114Y-3.7232
X9.2114Y-3.8232
X9.2114Y-4.2684
X9.2114Y-4.3684
X9.3096Y-3.1977
X9.3096Y-3.2977
X9.3114Y-3.7232
X9.3114Y-3.8232
X9.3114Y-4.2684
X9.3114Y-4.3684
X9.4096Y-3.1977
X9.4096Y-3.2977
X9.4114Y-3.7232
X9.4114Y-3.8232
X9.4114Y-4.2684
X9.4114Y-4.3684
X9.7248Y-5.0319
X9.7248Y-5.1319
X9.7248Y-5.2319
X9.7248Y-5.3319
X9.7248Y-5.4319
X9.7469Y-3.0949
X9.7469Y-3.3941
X9.7469Y-3.6382
X9.7469Y-3.9374
X9.7469Y-4.1815
X9.7469Y-4.4807
X9.7602Y-2.5516
X9.7602Y-2.8508
X9.776Y-2.3075
X9.7764Y-2.0083
X9.8248Y-5.0319
X9.8248Y-5.1319
X9.8248Y-5.2319
X9.8248Y-5.3319
X9.8248Y-5.4319
X9.8469Y-3.0949
X9.8469Y-3.3941
X9.8469Y-3.6382
X9.8469Y-3.9374
X9.8469Y-4.1815
X9.8469Y-4.4807
X9.8602Y-2.5516
X9.8602Y-2.8508
X9.876Y-2.3075
X9.8764Y-2.0083
T7
X2.6232Y-3.3394
X2.9232Y-2.739
X6.1413Y-5.7406
X6.1421Y-5.6028
X6.5413Y-5.7406
X6.5421Y-5.6028
X8.2043Y-5.0287
X8.2043Y-5.4287
X8.3311Y-5.0287
X8.3311Y-5.4287
X8.4571Y-5.0287
X8.4571Y-5.4287
T8
X5.3532Y-5.0437
X5.3532Y-5.2799
X5.3532Y-5.398
X5.3532Y-5.5161
X5.4532Y-4.9256
X5.4532Y-5.0437
X5.4532Y-5.1618
X5.4532Y-5.398
T9
X5.1972Y-3.6894
X5.1974Y-4.3074
X5.3429Y-3.5949
X5.343Y-4.2129
X5.4886Y-3.6894
X5.4887Y-4.3074
T10
X2.8158Y-2.1035
X3.0658Y-2.0035
X4.135Y-2.1429
X4.385Y-2.0429
T11
X2.2406Y-3.8705
X2.2406Y-4.0476
X2.2406Y-4.2248
X2.587Y-4.7366
X2.587Y-4.9138
X2.587Y-5.0909
T7
G00X3.6403Y-3.5517
M15
G01X3.6678Y-3.5517
M16
G05
G00X3.6403Y-3.9296
M15
G01X3.6678Y-3.9296
M16
G05
G00X3.6403Y-4.158
M15
G01X3.6678Y-4.158
M16
G05
G00X3.6403Y-4.5359
M15
G01X3.6678Y-4.5359
M16
G05
G00X4.4709Y-3.5516
M15
G01X4.4984Y-3.5516
M16
G05
G00X4.4709Y-3.9295
M15
G01X4.4984Y-3.9295
M16
G05
G00X4.4709Y-4.1579
M15
G01X4.4984Y-4.1579
M16
G05
G00X4.4709Y-4.5358
M15
G01X4.4984Y-4.5358
M16
G05
T8
G00X5.024Y-3.5516
M15
G01X5.0476Y-3.5516
M16
G05
G00X5.024Y-3.7327
M15
G01X5.0476Y-3.7327
M16
G05
G00X5.0241Y-4.1696
M15
G01X5.0478Y-4.1696
M16
G05
G00X5.0241Y-4.3507
M15
G01X5.0478Y-4.3507
M16
G05
G00X5.6382Y-3.5516
M15
G01X5.6618Y-3.5516
M16
G05
G00X5.6382Y-3.7327
M15
G01X5.6618Y-3.7327
M16
G05
G00X5.6383Y-4.1696
M15
G01X5.6619Y-4.1696
M16
G05
G00X5.6383Y-4.3507
M15
G01X5.6619Y-4.3507
M16
G05
M30
