%TF.GenerationSoftware,KiCad,Pcbnew,10.0.4*%
%TF.CreationDate,2026-06-29T18:40:26+02:00*%
%TF.ProjectId,Vollkornbrot,566f6c6c-6b6f-4726-9e62-726f742e6b69,rev?*%
%TF.SameCoordinates,Original*%
%TF.FileFunction,Legend,Bot*%
%TF.FilePolarity,Positive*%
%FSLAX46Y46*%
G04 Gerber Fmt 4.6, Leading zero omitted, Abs format (unit mm)*
G04 Created by KiCad (PCBNEW 10.0.4) date 2026-06-29 18:40:26*
%MOMM*%
%LPD*%
G01*
G04 APERTURE LIST*
%ADD10C,1.000000*%
%ADD11C,0.150000*%
%ADD12C,2.775000*%
%ADD13C,0.500000*%
%ADD14C,2.000000*%
G04 APERTURE END LIST*
D10*
X31500004Y-52000000D02*
X31500000Y-240000000D01*
X31500004Y-52000000D02*
G75*
G02*
X36000004Y-47500004I4499996J0D01*
G01*
D11*
X33300000Y-52000000D02*
X38450000Y-52000000D01*
X38450000Y-59800000D01*
X33300000Y-59800000D01*
X33300000Y-52000000D01*
G36*
X33300000Y-52000000D02*
G01*
X38450000Y-52000000D01*
X38450000Y-59800000D01*
X33300000Y-59800000D01*
X33300000Y-52000000D01*
G37*
X34000000Y-64000000D02*
X246000000Y-64000000D01*
X246000000Y-87000000D01*
X34000000Y-87000000D01*
X34000000Y-64000000D01*
G36*
X34000000Y-64000000D02*
G01*
X246000000Y-64000000D01*
X246000000Y-87000000D01*
X34000000Y-87000000D01*
X34000000Y-64000000D01*
G37*
X34000000Y-92000000D02*
X139500000Y-92000000D01*
X139500000Y-227000002D01*
X34000000Y-227000002D01*
X34000000Y-92000000D01*
G36*
X34000000Y-92000000D02*
G01*
X139500000Y-92000000D01*
X139500000Y-227000002D01*
X34000000Y-227000002D01*
X34000000Y-92000000D01*
G37*
X34500000Y-232000002D02*
X139499998Y-232000002D01*
X139499998Y-241500000D01*
X34500000Y-241500000D01*
X34500000Y-232000002D01*
G36*
X34500000Y-232000002D02*
G01*
X139499998Y-232000002D01*
X139499998Y-241500000D01*
X34500000Y-241500000D01*
X34500000Y-232000002D01*
G37*
D12*
X37387500Y-52000000D02*
G75*
G02*
X34612500Y-52000000I-1387500J0D01*
G01*
X34612500Y-52000000D02*
G75*
G02*
X37387500Y-52000000I1387500J0D01*
G01*
D10*
X36000000Y-244500000D02*
G75*
G02*
X31500000Y-240000000I0J4500000D01*
G01*
D11*
X36200000Y-49300000D02*
X125200000Y-49300000D01*
X125200000Y-59800000D01*
X36200000Y-59800000D01*
X36200000Y-49300000D01*
G36*
X36200000Y-49300000D02*
G01*
X125200000Y-49300000D01*
X125200000Y-59800000D01*
X36200000Y-59800000D01*
X36200000Y-49300000D01*
G37*
D13*
X144500000Y-123800000D02*
X146500000Y-123800000D01*
X144500000Y-137300000D02*
X146500000Y-137300000D01*
X144500000Y-150800000D02*
X146500000Y-150800000D01*
X144500000Y-164300000D02*
X146500000Y-164300000D01*
X144500000Y-177800000D02*
X146500000Y-177800000D01*
X144500000Y-191300000D02*
X146500000Y-191300000D01*
X144500000Y-204800000D02*
X146500000Y-204800000D01*
X144500000Y-218300000D02*
X146500000Y-218300000D01*
D11*
X146500000Y-92000000D02*
X238000000Y-92000000D01*
X238000000Y-99000000D01*
X146500000Y-99000000D01*
X146500000Y-92000000D01*
G36*
X146500000Y-92000000D02*
G01*
X238000000Y-92000000D01*
X238000000Y-99000000D01*
X146500000Y-99000000D01*
X146500000Y-92000000D01*
G37*
D13*
X146500000Y-105500000D02*
X146500000Y-103500000D01*
X146500000Y-105500000D02*
X238000000Y-105500000D01*
X146500000Y-234000000D02*
X146500000Y-105500000D01*
X146500000Y-236000000D02*
X146500000Y-234000000D01*
D11*
X148600000Y-114800000D02*
X236000000Y-114800000D01*
X236000000Y-224700000D01*
X148600000Y-224700000D01*
X148600000Y-114800000D01*
G36*
X148600000Y-114800000D02*
G01*
X236000000Y-114800000D01*
X236000000Y-224700000D01*
X148600000Y-224700000D01*
X148600000Y-114800000D01*
G37*
D13*
X155600000Y-108500000D02*
G75*
G02*
X152400000Y-108500000I-1600000J0D01*
G01*
X152400000Y-108500000D02*
G75*
G02*
X155600000Y-108500000I1600000J0D01*
G01*
X155600000Y-231000000D02*
G75*
G02*
X152400000Y-231000000I-1600000J0D01*
G01*
X152400000Y-231000000D02*
G75*
G02*
X155600000Y-231000000I1600000J0D01*
G01*
X157100000Y-105500000D02*
X157100000Y-103500000D01*
X157100000Y-236000000D02*
X157100000Y-234000000D01*
X167200000Y-105500000D02*
X167200000Y-103500000D01*
X167200000Y-236000000D02*
X167200000Y-234000000D01*
X177400000Y-105500000D02*
X177400000Y-103500000D01*
X177400000Y-236000000D02*
X177400000Y-234000000D01*
X187500000Y-105500000D02*
X187500000Y-103500000D01*
X187500000Y-236000000D02*
X187500000Y-234000000D01*
X197700000Y-105500000D02*
X197700000Y-103500000D01*
X197700000Y-236000000D02*
X197700000Y-234000000D01*
X208000000Y-105500000D02*
X208000000Y-103500000D01*
X208000000Y-236000000D02*
X208000000Y-234000000D01*
X218000000Y-105500000D02*
X218000000Y-103500000D01*
X218000000Y-236000000D02*
X218000000Y-234000000D01*
X228200000Y-105500000D02*
X228200000Y-103500000D01*
X228200000Y-236000000D02*
X228200000Y-234000000D01*
X232100000Y-108500000D02*
G75*
G02*
X228900000Y-108500000I-1600000J0D01*
G01*
X228900000Y-108500000D02*
G75*
G02*
X232100000Y-108500000I1600000J0D01*
G01*
X232100000Y-231000000D02*
G75*
G02*
X228900000Y-231000000I-1600000J0D01*
G01*
X228900000Y-231000000D02*
G75*
G02*
X232100000Y-231000000I1600000J0D01*
G01*
X238000000Y-105500000D02*
X238000000Y-234000000D01*
X238000000Y-123800000D02*
X240000000Y-123800000D01*
X238000000Y-137300000D02*
X240000000Y-137300000D01*
X238000000Y-150800000D02*
X240000000Y-150800000D01*
X238000000Y-164300000D02*
X240000000Y-164300000D01*
X238000000Y-177800000D02*
X240000000Y-177800000D01*
X238000000Y-191300000D02*
X240000000Y-191300000D01*
X238000000Y-204800000D02*
X240000000Y-204800000D01*
X238000000Y-218300000D02*
X240000000Y-218300000D01*
X238000000Y-234000000D02*
X146500000Y-234000000D01*
D10*
X244000000Y-47500000D02*
X36000000Y-47500000D01*
X244000000Y-47500000D02*
G75*
G02*
X248500000Y-52000000I0J-4500000D01*
G01*
X244000000Y-244500000D02*
X36000000Y-244500000D01*
X248500000Y-52000000D02*
X248500000Y-240000000D01*
X248500000Y-61500000D02*
X31500000Y-61500000D01*
X248500000Y-89500000D02*
X31500000Y-89500000D01*
X248500000Y-240000000D02*
G75*
G02*
X244000000Y-244500000I-4500000J0D01*
G01*
D13*
X152924185Y-238069238D02*
X152543233Y-238069238D01*
X152543233Y-238069238D02*
X152352756Y-237974000D01*
X152352756Y-237974000D02*
X152257518Y-237878761D01*
X152257518Y-237878761D02*
X152067042Y-237593047D01*
X152067042Y-237593047D02*
X151971804Y-237212095D01*
X151971804Y-237212095D02*
X151971804Y-236450190D01*
X151971804Y-236450190D02*
X152067042Y-236259714D01*
X152067042Y-236259714D02*
X152162280Y-236164476D01*
X152162280Y-236164476D02*
X152352756Y-236069238D01*
X152352756Y-236069238D02*
X152733709Y-236069238D01*
X152733709Y-236069238D02*
X152924185Y-236164476D01*
X152924185Y-236164476D02*
X153019423Y-236259714D01*
X153019423Y-236259714D02*
X153114661Y-236450190D01*
X153114661Y-236450190D02*
X153114661Y-236926380D01*
X153114661Y-236926380D02*
X153019423Y-237116857D01*
X153019423Y-237116857D02*
X152924185Y-237212095D01*
X152924185Y-237212095D02*
X152733709Y-237307333D01*
X152733709Y-237307333D02*
X152352756Y-237307333D01*
X152352756Y-237307333D02*
X152162280Y-237212095D01*
X152162280Y-237212095D02*
X152067042Y-237116857D01*
X152067042Y-237116857D02*
X151971804Y-236926380D01*
X150067042Y-238069238D02*
X151209899Y-238069238D01*
X150638471Y-238069238D02*
X150638471Y-236069238D01*
X150638471Y-236069238D02*
X150828947Y-236354952D01*
X150828947Y-236354952D02*
X151019423Y-236545428D01*
X151019423Y-236545428D02*
X151209899Y-236640666D01*
X149209899Y-237878761D02*
X149114661Y-237974000D01*
X149114661Y-237974000D02*
X149209899Y-238069238D01*
X149209899Y-238069238D02*
X149305137Y-237974000D01*
X149305137Y-237974000D02*
X149209899Y-237878761D01*
X149209899Y-237878761D02*
X149209899Y-238069238D01*
X148447994Y-236069238D02*
X147209899Y-236069238D01*
X147209899Y-236069238D02*
X147876566Y-236831142D01*
X147876566Y-236831142D02*
X147590851Y-236831142D01*
X147590851Y-236831142D02*
X147400375Y-236926380D01*
X147400375Y-236926380D02*
X147305137Y-237021619D01*
X147305137Y-237021619D02*
X147209899Y-237212095D01*
X147209899Y-237212095D02*
X147209899Y-237688285D01*
X147209899Y-237688285D02*
X147305137Y-237878761D01*
X147305137Y-237878761D02*
X147400375Y-237974000D01*
X147400375Y-237974000D02*
X147590851Y-238069238D01*
X147590851Y-238069238D02*
X148162280Y-238069238D01*
X148162280Y-238069238D02*
X148352756Y-237974000D01*
X148352756Y-237974000D02*
X148447994Y-237878761D01*
X163333709Y-236926380D02*
X163524185Y-236831142D01*
X163524185Y-236831142D02*
X163619423Y-236735904D01*
X163619423Y-236735904D02*
X163714661Y-236545428D01*
X163714661Y-236545428D02*
X163714661Y-236450190D01*
X163714661Y-236450190D02*
X163619423Y-236259714D01*
X163619423Y-236259714D02*
X163524185Y-236164476D01*
X163524185Y-236164476D02*
X163333709Y-236069238D01*
X163333709Y-236069238D02*
X162952756Y-236069238D01*
X162952756Y-236069238D02*
X162762280Y-236164476D01*
X162762280Y-236164476D02*
X162667042Y-236259714D01*
X162667042Y-236259714D02*
X162571804Y-236450190D01*
X162571804Y-236450190D02*
X162571804Y-236545428D01*
X162571804Y-236545428D02*
X162667042Y-236735904D01*
X162667042Y-236735904D02*
X162762280Y-236831142D01*
X162762280Y-236831142D02*
X162952756Y-236926380D01*
X162952756Y-236926380D02*
X163333709Y-236926380D01*
X163333709Y-236926380D02*
X163524185Y-237021619D01*
X163524185Y-237021619D02*
X163619423Y-237116857D01*
X163619423Y-237116857D02*
X163714661Y-237307333D01*
X163714661Y-237307333D02*
X163714661Y-237688285D01*
X163714661Y-237688285D02*
X163619423Y-237878761D01*
X163619423Y-237878761D02*
X163524185Y-237974000D01*
X163524185Y-237974000D02*
X163333709Y-238069238D01*
X163333709Y-238069238D02*
X162952756Y-238069238D01*
X162952756Y-238069238D02*
X162762280Y-237974000D01*
X162762280Y-237974000D02*
X162667042Y-237878761D01*
X162667042Y-237878761D02*
X162571804Y-237688285D01*
X162571804Y-237688285D02*
X162571804Y-237307333D01*
X162571804Y-237307333D02*
X162667042Y-237116857D01*
X162667042Y-237116857D02*
X162762280Y-237021619D01*
X162762280Y-237021619D02*
X162952756Y-236926380D01*
X161333709Y-236069238D02*
X161143232Y-236069238D01*
X161143232Y-236069238D02*
X160952756Y-236164476D01*
X160952756Y-236164476D02*
X160857518Y-236259714D01*
X160857518Y-236259714D02*
X160762280Y-236450190D01*
X160762280Y-236450190D02*
X160667042Y-236831142D01*
X160667042Y-236831142D02*
X160667042Y-237307333D01*
X160667042Y-237307333D02*
X160762280Y-237688285D01*
X160762280Y-237688285D02*
X160857518Y-237878761D01*
X160857518Y-237878761D02*
X160952756Y-237974000D01*
X160952756Y-237974000D02*
X161143232Y-238069238D01*
X161143232Y-238069238D02*
X161333709Y-238069238D01*
X161333709Y-238069238D02*
X161524185Y-237974000D01*
X161524185Y-237974000D02*
X161619423Y-237878761D01*
X161619423Y-237878761D02*
X161714661Y-237688285D01*
X161714661Y-237688285D02*
X161809899Y-237307333D01*
X161809899Y-237307333D02*
X161809899Y-236831142D01*
X161809899Y-236831142D02*
X161714661Y-236450190D01*
X161714661Y-236450190D02*
X161619423Y-236259714D01*
X161619423Y-236259714D02*
X161524185Y-236164476D01*
X161524185Y-236164476D02*
X161333709Y-236069238D01*
X159809899Y-237878761D02*
X159714661Y-237974000D01*
X159714661Y-237974000D02*
X159809899Y-238069238D01*
X159809899Y-238069238D02*
X159905137Y-237974000D01*
X159905137Y-237974000D02*
X159809899Y-237878761D01*
X159809899Y-237878761D02*
X159809899Y-238069238D01*
X158762280Y-238069238D02*
X158381328Y-238069238D01*
X158381328Y-238069238D02*
X158190851Y-237974000D01*
X158190851Y-237974000D02*
X158095613Y-237878761D01*
X158095613Y-237878761D02*
X157905137Y-237593047D01*
X157905137Y-237593047D02*
X157809899Y-237212095D01*
X157809899Y-237212095D02*
X157809899Y-236450190D01*
X157809899Y-236450190D02*
X157905137Y-236259714D01*
X157905137Y-236259714D02*
X158000375Y-236164476D01*
X158000375Y-236164476D02*
X158190851Y-236069238D01*
X158190851Y-236069238D02*
X158571804Y-236069238D01*
X158571804Y-236069238D02*
X158762280Y-236164476D01*
X158762280Y-236164476D02*
X158857518Y-236259714D01*
X158857518Y-236259714D02*
X158952756Y-236450190D01*
X158952756Y-236450190D02*
X158952756Y-236926380D01*
X158952756Y-236926380D02*
X158857518Y-237116857D01*
X158857518Y-237116857D02*
X158762280Y-237212095D01*
X158762280Y-237212095D02*
X158571804Y-237307333D01*
X158571804Y-237307333D02*
X158190851Y-237307333D01*
X158190851Y-237307333D02*
X158000375Y-237212095D01*
X158000375Y-237212095D02*
X157905137Y-237116857D01*
X157905137Y-237116857D02*
X157809899Y-236926380D01*
X173909899Y-236069238D02*
X172576566Y-236069238D01*
X172576566Y-236069238D02*
X173433709Y-238069238D01*
X171433709Y-236069238D02*
X171243232Y-236069238D01*
X171243232Y-236069238D02*
X171052756Y-236164476D01*
X171052756Y-236164476D02*
X170957518Y-236259714D01*
X170957518Y-236259714D02*
X170862280Y-236450190D01*
X170862280Y-236450190D02*
X170767042Y-236831142D01*
X170767042Y-236831142D02*
X170767042Y-237307333D01*
X170767042Y-237307333D02*
X170862280Y-237688285D01*
X170862280Y-237688285D02*
X170957518Y-237878761D01*
X170957518Y-237878761D02*
X171052756Y-237974000D01*
X171052756Y-237974000D02*
X171243232Y-238069238D01*
X171243232Y-238069238D02*
X171433709Y-238069238D01*
X171433709Y-238069238D02*
X171624185Y-237974000D01*
X171624185Y-237974000D02*
X171719423Y-237878761D01*
X171719423Y-237878761D02*
X171814661Y-237688285D01*
X171814661Y-237688285D02*
X171909899Y-237307333D01*
X171909899Y-237307333D02*
X171909899Y-236831142D01*
X171909899Y-236831142D02*
X171814661Y-236450190D01*
X171814661Y-236450190D02*
X171719423Y-236259714D01*
X171719423Y-236259714D02*
X171624185Y-236164476D01*
X171624185Y-236164476D02*
X171433709Y-236069238D01*
X169909899Y-237878761D02*
X169814661Y-237974000D01*
X169814661Y-237974000D02*
X169909899Y-238069238D01*
X169909899Y-238069238D02*
X170005137Y-237974000D01*
X170005137Y-237974000D02*
X169909899Y-237878761D01*
X169909899Y-237878761D02*
X169909899Y-238069238D01*
X168671804Y-236926380D02*
X168862280Y-236831142D01*
X168862280Y-236831142D02*
X168957518Y-236735904D01*
X168957518Y-236735904D02*
X169052756Y-236545428D01*
X169052756Y-236545428D02*
X169052756Y-236450190D01*
X169052756Y-236450190D02*
X168957518Y-236259714D01*
X168957518Y-236259714D02*
X168862280Y-236164476D01*
X168862280Y-236164476D02*
X168671804Y-236069238D01*
X168671804Y-236069238D02*
X168290851Y-236069238D01*
X168290851Y-236069238D02*
X168100375Y-236164476D01*
X168100375Y-236164476D02*
X168005137Y-236259714D01*
X168005137Y-236259714D02*
X167909899Y-236450190D01*
X167909899Y-236450190D02*
X167909899Y-236545428D01*
X167909899Y-236545428D02*
X168005137Y-236735904D01*
X168005137Y-236735904D02*
X168100375Y-236831142D01*
X168100375Y-236831142D02*
X168290851Y-236926380D01*
X168290851Y-236926380D02*
X168671804Y-236926380D01*
X168671804Y-236926380D02*
X168862280Y-237021619D01*
X168862280Y-237021619D02*
X168957518Y-237116857D01*
X168957518Y-237116857D02*
X169052756Y-237307333D01*
X169052756Y-237307333D02*
X169052756Y-237688285D01*
X169052756Y-237688285D02*
X168957518Y-237878761D01*
X168957518Y-237878761D02*
X168862280Y-237974000D01*
X168862280Y-237974000D02*
X168671804Y-238069238D01*
X168671804Y-238069238D02*
X168290851Y-238069238D01*
X168290851Y-238069238D02*
X168100375Y-237974000D01*
X168100375Y-237974000D02*
X168005137Y-237878761D01*
X168005137Y-237878761D02*
X167909899Y-237688285D01*
X167909899Y-237688285D02*
X167909899Y-237307333D01*
X167909899Y-237307333D02*
X168005137Y-237116857D01*
X168005137Y-237116857D02*
X168100375Y-237021619D01*
X168100375Y-237021619D02*
X168290851Y-236926380D01*
X183062280Y-236069238D02*
X183443233Y-236069238D01*
X183443233Y-236069238D02*
X183633709Y-236164476D01*
X183633709Y-236164476D02*
X183728947Y-236259714D01*
X183728947Y-236259714D02*
X183919423Y-236545428D01*
X183919423Y-236545428D02*
X184014661Y-236926380D01*
X184014661Y-236926380D02*
X184014661Y-237688285D01*
X184014661Y-237688285D02*
X183919423Y-237878761D01*
X183919423Y-237878761D02*
X183824185Y-237974000D01*
X183824185Y-237974000D02*
X183633709Y-238069238D01*
X183633709Y-238069238D02*
X183252756Y-238069238D01*
X183252756Y-238069238D02*
X183062280Y-237974000D01*
X183062280Y-237974000D02*
X182967042Y-237878761D01*
X182967042Y-237878761D02*
X182871804Y-237688285D01*
X182871804Y-237688285D02*
X182871804Y-237212095D01*
X182871804Y-237212095D02*
X182967042Y-237021619D01*
X182967042Y-237021619D02*
X183062280Y-236926380D01*
X183062280Y-236926380D02*
X183252756Y-236831142D01*
X183252756Y-236831142D02*
X183633709Y-236831142D01*
X183633709Y-236831142D02*
X183824185Y-236926380D01*
X183824185Y-236926380D02*
X183919423Y-237021619D01*
X183919423Y-237021619D02*
X184014661Y-237212095D01*
X181633709Y-236069238D02*
X181443232Y-236069238D01*
X181443232Y-236069238D02*
X181252756Y-236164476D01*
X181252756Y-236164476D02*
X181157518Y-236259714D01*
X181157518Y-236259714D02*
X181062280Y-236450190D01*
X181062280Y-236450190D02*
X180967042Y-236831142D01*
X180967042Y-236831142D02*
X180967042Y-237307333D01*
X180967042Y-237307333D02*
X181062280Y-237688285D01*
X181062280Y-237688285D02*
X181157518Y-237878761D01*
X181157518Y-237878761D02*
X181252756Y-237974000D01*
X181252756Y-237974000D02*
X181443232Y-238069238D01*
X181443232Y-238069238D02*
X181633709Y-238069238D01*
X181633709Y-238069238D02*
X181824185Y-237974000D01*
X181824185Y-237974000D02*
X181919423Y-237878761D01*
X181919423Y-237878761D02*
X182014661Y-237688285D01*
X182014661Y-237688285D02*
X182109899Y-237307333D01*
X182109899Y-237307333D02*
X182109899Y-236831142D01*
X182109899Y-236831142D02*
X182014661Y-236450190D01*
X182014661Y-236450190D02*
X181919423Y-236259714D01*
X181919423Y-236259714D02*
X181824185Y-236164476D01*
X181824185Y-236164476D02*
X181633709Y-236069238D01*
X180109899Y-237878761D02*
X180014661Y-237974000D01*
X180014661Y-237974000D02*
X180109899Y-238069238D01*
X180109899Y-238069238D02*
X180205137Y-237974000D01*
X180205137Y-237974000D02*
X180109899Y-237878761D01*
X180109899Y-237878761D02*
X180109899Y-238069238D01*
X178300375Y-236069238D02*
X178681328Y-236069238D01*
X178681328Y-236069238D02*
X178871804Y-236164476D01*
X178871804Y-236164476D02*
X178967042Y-236259714D01*
X178967042Y-236259714D02*
X179157518Y-236545428D01*
X179157518Y-236545428D02*
X179252756Y-236926380D01*
X179252756Y-236926380D02*
X179252756Y-237688285D01*
X179252756Y-237688285D02*
X179157518Y-237878761D01*
X179157518Y-237878761D02*
X179062280Y-237974000D01*
X179062280Y-237974000D02*
X178871804Y-238069238D01*
X178871804Y-238069238D02*
X178490851Y-238069238D01*
X178490851Y-238069238D02*
X178300375Y-237974000D01*
X178300375Y-237974000D02*
X178205137Y-237878761D01*
X178205137Y-237878761D02*
X178109899Y-237688285D01*
X178109899Y-237688285D02*
X178109899Y-237212095D01*
X178109899Y-237212095D02*
X178205137Y-237021619D01*
X178205137Y-237021619D02*
X178300375Y-236926380D01*
X178300375Y-236926380D02*
X178490851Y-236831142D01*
X178490851Y-236831142D02*
X178871804Y-236831142D01*
X178871804Y-236831142D02*
X179062280Y-236926380D01*
X179062280Y-236926380D02*
X179157518Y-237021619D01*
X179157518Y-237021619D02*
X179252756Y-237212095D01*
X193067042Y-236069238D02*
X194019423Y-236069238D01*
X194019423Y-236069238D02*
X194114661Y-237021619D01*
X194114661Y-237021619D02*
X194019423Y-236926380D01*
X194019423Y-236926380D02*
X193828947Y-236831142D01*
X193828947Y-236831142D02*
X193352756Y-236831142D01*
X193352756Y-236831142D02*
X193162280Y-236926380D01*
X193162280Y-236926380D02*
X193067042Y-237021619D01*
X193067042Y-237021619D02*
X192971804Y-237212095D01*
X192971804Y-237212095D02*
X192971804Y-237688285D01*
X192971804Y-237688285D02*
X193067042Y-237878761D01*
X193067042Y-237878761D02*
X193162280Y-237974000D01*
X193162280Y-237974000D02*
X193352756Y-238069238D01*
X193352756Y-238069238D02*
X193828947Y-238069238D01*
X193828947Y-238069238D02*
X194019423Y-237974000D01*
X194019423Y-237974000D02*
X194114661Y-237878761D01*
X191733709Y-236069238D02*
X191543232Y-236069238D01*
X191543232Y-236069238D02*
X191352756Y-236164476D01*
X191352756Y-236164476D02*
X191257518Y-236259714D01*
X191257518Y-236259714D02*
X191162280Y-236450190D01*
X191162280Y-236450190D02*
X191067042Y-236831142D01*
X191067042Y-236831142D02*
X191067042Y-237307333D01*
X191067042Y-237307333D02*
X191162280Y-237688285D01*
X191162280Y-237688285D02*
X191257518Y-237878761D01*
X191257518Y-237878761D02*
X191352756Y-237974000D01*
X191352756Y-237974000D02*
X191543232Y-238069238D01*
X191543232Y-238069238D02*
X191733709Y-238069238D01*
X191733709Y-238069238D02*
X191924185Y-237974000D01*
X191924185Y-237974000D02*
X192019423Y-237878761D01*
X192019423Y-237878761D02*
X192114661Y-237688285D01*
X192114661Y-237688285D02*
X192209899Y-237307333D01*
X192209899Y-237307333D02*
X192209899Y-236831142D01*
X192209899Y-236831142D02*
X192114661Y-236450190D01*
X192114661Y-236450190D02*
X192019423Y-236259714D01*
X192019423Y-236259714D02*
X191924185Y-236164476D01*
X191924185Y-236164476D02*
X191733709Y-236069238D01*
X190209899Y-237878761D02*
X190114661Y-237974000D01*
X190114661Y-237974000D02*
X190209899Y-238069238D01*
X190209899Y-238069238D02*
X190305137Y-237974000D01*
X190305137Y-237974000D02*
X190209899Y-237878761D01*
X190209899Y-237878761D02*
X190209899Y-238069238D01*
X188305137Y-236069238D02*
X189257518Y-236069238D01*
X189257518Y-236069238D02*
X189352756Y-237021619D01*
X189352756Y-237021619D02*
X189257518Y-236926380D01*
X189257518Y-236926380D02*
X189067042Y-236831142D01*
X189067042Y-236831142D02*
X188590851Y-236831142D01*
X188590851Y-236831142D02*
X188400375Y-236926380D01*
X188400375Y-236926380D02*
X188305137Y-237021619D01*
X188305137Y-237021619D02*
X188209899Y-237212095D01*
X188209899Y-237212095D02*
X188209899Y-237688285D01*
X188209899Y-237688285D02*
X188305137Y-237878761D01*
X188305137Y-237878761D02*
X188400375Y-237974000D01*
X188400375Y-237974000D02*
X188590851Y-238069238D01*
X188590851Y-238069238D02*
X189067042Y-238069238D01*
X189067042Y-238069238D02*
X189257518Y-237974000D01*
X189257518Y-237974000D02*
X189352756Y-237878761D01*
X203362280Y-236735904D02*
X203362280Y-238069238D01*
X203838471Y-235974000D02*
X204314661Y-237402571D01*
X204314661Y-237402571D02*
X203076566Y-237402571D01*
X201933709Y-236069238D02*
X201743232Y-236069238D01*
X201743232Y-236069238D02*
X201552756Y-236164476D01*
X201552756Y-236164476D02*
X201457518Y-236259714D01*
X201457518Y-236259714D02*
X201362280Y-236450190D01*
X201362280Y-236450190D02*
X201267042Y-236831142D01*
X201267042Y-236831142D02*
X201267042Y-237307333D01*
X201267042Y-237307333D02*
X201362280Y-237688285D01*
X201362280Y-237688285D02*
X201457518Y-237878761D01*
X201457518Y-237878761D02*
X201552756Y-237974000D01*
X201552756Y-237974000D02*
X201743232Y-238069238D01*
X201743232Y-238069238D02*
X201933709Y-238069238D01*
X201933709Y-238069238D02*
X202124185Y-237974000D01*
X202124185Y-237974000D02*
X202219423Y-237878761D01*
X202219423Y-237878761D02*
X202314661Y-237688285D01*
X202314661Y-237688285D02*
X202409899Y-237307333D01*
X202409899Y-237307333D02*
X202409899Y-236831142D01*
X202409899Y-236831142D02*
X202314661Y-236450190D01*
X202314661Y-236450190D02*
X202219423Y-236259714D01*
X202219423Y-236259714D02*
X202124185Y-236164476D01*
X202124185Y-236164476D02*
X201933709Y-236069238D01*
X200409899Y-237878761D02*
X200314661Y-237974000D01*
X200314661Y-237974000D02*
X200409899Y-238069238D01*
X200409899Y-238069238D02*
X200505137Y-237974000D01*
X200505137Y-237974000D02*
X200409899Y-237878761D01*
X200409899Y-237878761D02*
X200409899Y-238069238D01*
X199647994Y-236069238D02*
X198409899Y-236069238D01*
X198409899Y-236069238D02*
X199076566Y-236831142D01*
X199076566Y-236831142D02*
X198790851Y-236831142D01*
X198790851Y-236831142D02*
X198600375Y-236926380D01*
X198600375Y-236926380D02*
X198505137Y-237021619D01*
X198505137Y-237021619D02*
X198409899Y-237212095D01*
X198409899Y-237212095D02*
X198409899Y-237688285D01*
X198409899Y-237688285D02*
X198505137Y-237878761D01*
X198505137Y-237878761D02*
X198600375Y-237974000D01*
X198600375Y-237974000D02*
X198790851Y-238069238D01*
X198790851Y-238069238D02*
X199362280Y-238069238D01*
X199362280Y-238069238D02*
X199552756Y-237974000D01*
X199552756Y-237974000D02*
X199647994Y-237878761D01*
X211852756Y-236069238D02*
X210614661Y-236069238D01*
X210614661Y-236069238D02*
X211281328Y-236831142D01*
X211281328Y-236831142D02*
X210995613Y-236831142D01*
X210995613Y-236831142D02*
X210805137Y-236926380D01*
X210805137Y-236926380D02*
X210709899Y-237021619D01*
X210709899Y-237021619D02*
X210614661Y-237212095D01*
X210614661Y-237212095D02*
X210614661Y-237688285D01*
X210614661Y-237688285D02*
X210709899Y-237878761D01*
X210709899Y-237878761D02*
X210805137Y-237974000D01*
X210805137Y-237974000D02*
X210995613Y-238069238D01*
X210995613Y-238069238D02*
X211567042Y-238069238D01*
X211567042Y-238069238D02*
X211757518Y-237974000D01*
X211757518Y-237974000D02*
X211852756Y-237878761D01*
X209376566Y-236069238D02*
X209186089Y-236069238D01*
X209186089Y-236069238D02*
X208995613Y-236164476D01*
X208995613Y-236164476D02*
X208900375Y-236259714D01*
X208900375Y-236259714D02*
X208805137Y-236450190D01*
X208805137Y-236450190D02*
X208709899Y-236831142D01*
X208709899Y-236831142D02*
X208709899Y-237307333D01*
X208709899Y-237307333D02*
X208805137Y-237688285D01*
X208805137Y-237688285D02*
X208900375Y-237878761D01*
X208900375Y-237878761D02*
X208995613Y-237974000D01*
X208995613Y-237974000D02*
X209186089Y-238069238D01*
X209186089Y-238069238D02*
X209376566Y-238069238D01*
X209376566Y-238069238D02*
X209567042Y-237974000D01*
X209567042Y-237974000D02*
X209662280Y-237878761D01*
X209662280Y-237878761D02*
X209757518Y-237688285D01*
X209757518Y-237688285D02*
X209852756Y-237307333D01*
X209852756Y-237307333D02*
X209852756Y-236831142D01*
X209852756Y-236831142D02*
X209757518Y-236450190D01*
X209757518Y-236450190D02*
X209662280Y-236259714D01*
X209662280Y-236259714D02*
X209567042Y-236164476D01*
X209567042Y-236164476D02*
X209376566Y-236069238D01*
X221757518Y-236259714D02*
X221662280Y-236164476D01*
X221662280Y-236164476D02*
X221471804Y-236069238D01*
X221471804Y-236069238D02*
X220995613Y-236069238D01*
X220995613Y-236069238D02*
X220805137Y-236164476D01*
X220805137Y-236164476D02*
X220709899Y-236259714D01*
X220709899Y-236259714D02*
X220614661Y-236450190D01*
X220614661Y-236450190D02*
X220614661Y-236640666D01*
X220614661Y-236640666D02*
X220709899Y-236926380D01*
X220709899Y-236926380D02*
X221852756Y-238069238D01*
X221852756Y-238069238D02*
X220614661Y-238069238D01*
X219376566Y-236069238D02*
X219186089Y-236069238D01*
X219186089Y-236069238D02*
X218995613Y-236164476D01*
X218995613Y-236164476D02*
X218900375Y-236259714D01*
X218900375Y-236259714D02*
X218805137Y-236450190D01*
X218805137Y-236450190D02*
X218709899Y-236831142D01*
X218709899Y-236831142D02*
X218709899Y-237307333D01*
X218709899Y-237307333D02*
X218805137Y-237688285D01*
X218805137Y-237688285D02*
X218900375Y-237878761D01*
X218900375Y-237878761D02*
X218995613Y-237974000D01*
X218995613Y-237974000D02*
X219186089Y-238069238D01*
X219186089Y-238069238D02*
X219376566Y-238069238D01*
X219376566Y-238069238D02*
X219567042Y-237974000D01*
X219567042Y-237974000D02*
X219662280Y-237878761D01*
X219662280Y-237878761D02*
X219757518Y-237688285D01*
X219757518Y-237688285D02*
X219852756Y-237307333D01*
X219852756Y-237307333D02*
X219852756Y-236831142D01*
X219852756Y-236831142D02*
X219757518Y-236450190D01*
X219757518Y-236450190D02*
X219662280Y-236259714D01*
X219662280Y-236259714D02*
X219567042Y-236164476D01*
X219567042Y-236164476D02*
X219376566Y-236069238D01*
X238052757Y-238069238D02*
X237671805Y-238069238D01*
X237671805Y-238069238D02*
X237481328Y-237974000D01*
X237481328Y-237974000D02*
X237386090Y-237878761D01*
X237386090Y-237878761D02*
X237195614Y-237593047D01*
X237195614Y-237593047D02*
X237100376Y-237212095D01*
X237100376Y-237212095D02*
X237100376Y-236450190D01*
X237100376Y-236450190D02*
X237195614Y-236259714D01*
X237195614Y-236259714D02*
X237290852Y-236164476D01*
X237290852Y-236164476D02*
X237481328Y-236069238D01*
X237481328Y-236069238D02*
X237862281Y-236069238D01*
X237862281Y-236069238D02*
X238052757Y-236164476D01*
X238052757Y-236164476D02*
X238147995Y-236259714D01*
X238147995Y-236259714D02*
X238243233Y-236450190D01*
X238243233Y-236450190D02*
X238243233Y-236926380D01*
X238243233Y-236926380D02*
X238147995Y-237116857D01*
X238147995Y-237116857D02*
X238052757Y-237212095D01*
X238052757Y-237212095D02*
X237862281Y-237307333D01*
X237862281Y-237307333D02*
X237481328Y-237307333D01*
X237481328Y-237307333D02*
X237290852Y-237212095D01*
X237290852Y-237212095D02*
X237195614Y-237116857D01*
X237195614Y-237116857D02*
X237100376Y-236926380D01*
X236243233Y-237878761D02*
X236147995Y-237974000D01*
X236147995Y-237974000D02*
X236243233Y-238069238D01*
X236243233Y-238069238D02*
X236338471Y-237974000D01*
X236338471Y-237974000D02*
X236243233Y-237878761D01*
X236243233Y-237878761D02*
X236243233Y-238069238D01*
X235005138Y-236926380D02*
X235195614Y-236831142D01*
X235195614Y-236831142D02*
X235290852Y-236735904D01*
X235290852Y-236735904D02*
X235386090Y-236545428D01*
X235386090Y-236545428D02*
X235386090Y-236450190D01*
X235386090Y-236450190D02*
X235290852Y-236259714D01*
X235290852Y-236259714D02*
X235195614Y-236164476D01*
X235195614Y-236164476D02*
X235005138Y-236069238D01*
X235005138Y-236069238D02*
X234624185Y-236069238D01*
X234624185Y-236069238D02*
X234433709Y-236164476D01*
X234433709Y-236164476D02*
X234338471Y-236259714D01*
X234338471Y-236259714D02*
X234243233Y-236450190D01*
X234243233Y-236450190D02*
X234243233Y-236545428D01*
X234243233Y-236545428D02*
X234338471Y-236735904D01*
X234338471Y-236735904D02*
X234433709Y-236831142D01*
X234433709Y-236831142D02*
X234624185Y-236926380D01*
X234624185Y-236926380D02*
X235005138Y-236926380D01*
X235005138Y-236926380D02*
X235195614Y-237021619D01*
X235195614Y-237021619D02*
X235290852Y-237116857D01*
X235290852Y-237116857D02*
X235386090Y-237307333D01*
X235386090Y-237307333D02*
X235386090Y-237688285D01*
X235386090Y-237688285D02*
X235290852Y-237878761D01*
X235290852Y-237878761D02*
X235195614Y-237974000D01*
X235195614Y-237974000D02*
X235005138Y-238069238D01*
X235005138Y-238069238D02*
X234624185Y-238069238D01*
X234624185Y-238069238D02*
X234433709Y-237974000D01*
X234433709Y-237974000D02*
X234338471Y-237878761D01*
X234338471Y-237878761D02*
X234243233Y-237688285D01*
X234243233Y-237688285D02*
X234243233Y-237307333D01*
X234243233Y-237307333D02*
X234338471Y-237116857D01*
X234338471Y-237116857D02*
X234433709Y-237021619D01*
X234433709Y-237021619D02*
X234624185Y-236926380D01*
X233386090Y-238069238D02*
X233386090Y-236735904D01*
X233386090Y-236926380D02*
X233290852Y-236831142D01*
X233290852Y-236831142D02*
X233100376Y-236735904D01*
X233100376Y-236735904D02*
X232814661Y-236735904D01*
X232814661Y-236735904D02*
X232624185Y-236831142D01*
X232624185Y-236831142D02*
X232528947Y-237021619D01*
X232528947Y-237021619D02*
X232528947Y-238069238D01*
X232528947Y-237021619D02*
X232433709Y-236831142D01*
X232433709Y-236831142D02*
X232243233Y-236735904D01*
X232243233Y-236735904D02*
X231957519Y-236735904D01*
X231957519Y-236735904D02*
X231767042Y-236831142D01*
X231767042Y-236831142D02*
X231671804Y-237021619D01*
X231671804Y-237021619D02*
X231671804Y-238069238D01*
X230719423Y-238069238D02*
X230719423Y-236735904D01*
X230719423Y-236926380D02*
X230624185Y-236831142D01*
X230624185Y-236831142D02*
X230433709Y-236735904D01*
X230433709Y-236735904D02*
X230147994Y-236735904D01*
X230147994Y-236735904D02*
X229957518Y-236831142D01*
X229957518Y-236831142D02*
X229862280Y-237021619D01*
X229862280Y-237021619D02*
X229862280Y-238069238D01*
X229862280Y-237021619D02*
X229767042Y-236831142D01*
X229767042Y-236831142D02*
X229576566Y-236735904D01*
X229576566Y-236735904D02*
X229290852Y-236735904D01*
X229290852Y-236735904D02*
X229100375Y-236831142D01*
X229100375Y-236831142D02*
X229005137Y-237021619D01*
X229005137Y-237021619D02*
X229005137Y-238069238D01*
X150257518Y-101419714D02*
X150162280Y-101324476D01*
X150162280Y-101324476D02*
X149971804Y-101229238D01*
X149971804Y-101229238D02*
X149495613Y-101229238D01*
X149495613Y-101229238D02*
X149305137Y-101324476D01*
X149305137Y-101324476D02*
X149209899Y-101419714D01*
X149209899Y-101419714D02*
X149114661Y-101610190D01*
X149114661Y-101610190D02*
X149114661Y-101800666D01*
X149114661Y-101800666D02*
X149209899Y-102086380D01*
X149209899Y-102086380D02*
X150352756Y-103229238D01*
X150352756Y-103229238D02*
X149114661Y-103229238D01*
X147876566Y-101229238D02*
X147686089Y-101229238D01*
X147686089Y-101229238D02*
X147495613Y-101324476D01*
X147495613Y-101324476D02*
X147400375Y-101419714D01*
X147400375Y-101419714D02*
X147305137Y-101610190D01*
X147305137Y-101610190D02*
X147209899Y-101991142D01*
X147209899Y-101991142D02*
X147209899Y-102467333D01*
X147209899Y-102467333D02*
X147305137Y-102848285D01*
X147305137Y-102848285D02*
X147400375Y-103038761D01*
X147400375Y-103038761D02*
X147495613Y-103134000D01*
X147495613Y-103134000D02*
X147686089Y-103229238D01*
X147686089Y-103229238D02*
X147876566Y-103229238D01*
X147876566Y-103229238D02*
X148067042Y-103134000D01*
X148067042Y-103134000D02*
X148162280Y-103038761D01*
X148162280Y-103038761D02*
X148257518Y-102848285D01*
X148257518Y-102848285D02*
X148352756Y-102467333D01*
X148352756Y-102467333D02*
X148352756Y-101991142D01*
X148352756Y-101991142D02*
X148257518Y-101610190D01*
X148257518Y-101610190D02*
X148162280Y-101419714D01*
X148162280Y-101419714D02*
X148067042Y-101324476D01*
X148067042Y-101324476D02*
X147876566Y-101229238D01*
X159714661Y-103229238D02*
X160857518Y-103229238D01*
X160286090Y-103229238D02*
X160286090Y-101229238D01*
X160286090Y-101229238D02*
X160476566Y-101514952D01*
X160476566Y-101514952D02*
X160667042Y-101705428D01*
X160667042Y-101705428D02*
X160857518Y-101800666D01*
X158571804Y-102086380D02*
X158762280Y-101991142D01*
X158762280Y-101991142D02*
X158857518Y-101895904D01*
X158857518Y-101895904D02*
X158952756Y-101705428D01*
X158952756Y-101705428D02*
X158952756Y-101610190D01*
X158952756Y-101610190D02*
X158857518Y-101419714D01*
X158857518Y-101419714D02*
X158762280Y-101324476D01*
X158762280Y-101324476D02*
X158571804Y-101229238D01*
X158571804Y-101229238D02*
X158190851Y-101229238D01*
X158190851Y-101229238D02*
X158000375Y-101324476D01*
X158000375Y-101324476D02*
X157905137Y-101419714D01*
X157905137Y-101419714D02*
X157809899Y-101610190D01*
X157809899Y-101610190D02*
X157809899Y-101705428D01*
X157809899Y-101705428D02*
X157905137Y-101895904D01*
X157905137Y-101895904D02*
X158000375Y-101991142D01*
X158000375Y-101991142D02*
X158190851Y-102086380D01*
X158190851Y-102086380D02*
X158571804Y-102086380D01*
X158571804Y-102086380D02*
X158762280Y-102181619D01*
X158762280Y-102181619D02*
X158857518Y-102276857D01*
X158857518Y-102276857D02*
X158952756Y-102467333D01*
X158952756Y-102467333D02*
X158952756Y-102848285D01*
X158952756Y-102848285D02*
X158857518Y-103038761D01*
X158857518Y-103038761D02*
X158762280Y-103134000D01*
X158762280Y-103134000D02*
X158571804Y-103229238D01*
X158571804Y-103229238D02*
X158190851Y-103229238D01*
X158190851Y-103229238D02*
X158000375Y-103134000D01*
X158000375Y-103134000D02*
X157905137Y-103038761D01*
X157905137Y-103038761D02*
X157809899Y-102848285D01*
X157809899Y-102848285D02*
X157809899Y-102467333D01*
X157809899Y-102467333D02*
X157905137Y-102276857D01*
X157905137Y-102276857D02*
X158000375Y-102181619D01*
X158000375Y-102181619D02*
X158190851Y-102086380D01*
X169814661Y-103229238D02*
X170957518Y-103229238D01*
X170386090Y-103229238D02*
X170386090Y-101229238D01*
X170386090Y-101229238D02*
X170576566Y-101514952D01*
X170576566Y-101514952D02*
X170767042Y-101705428D01*
X170767042Y-101705428D02*
X170957518Y-101800666D01*
X168100375Y-101229238D02*
X168481328Y-101229238D01*
X168481328Y-101229238D02*
X168671804Y-101324476D01*
X168671804Y-101324476D02*
X168767042Y-101419714D01*
X168767042Y-101419714D02*
X168957518Y-101705428D01*
X168957518Y-101705428D02*
X169052756Y-102086380D01*
X169052756Y-102086380D02*
X169052756Y-102848285D01*
X169052756Y-102848285D02*
X168957518Y-103038761D01*
X168957518Y-103038761D02*
X168862280Y-103134000D01*
X168862280Y-103134000D02*
X168671804Y-103229238D01*
X168671804Y-103229238D02*
X168290851Y-103229238D01*
X168290851Y-103229238D02*
X168100375Y-103134000D01*
X168100375Y-103134000D02*
X168005137Y-103038761D01*
X168005137Y-103038761D02*
X167909899Y-102848285D01*
X167909899Y-102848285D02*
X167909899Y-102372095D01*
X167909899Y-102372095D02*
X168005137Y-102181619D01*
X168005137Y-102181619D02*
X168100375Y-102086380D01*
X168100375Y-102086380D02*
X168290851Y-101991142D01*
X168290851Y-101991142D02*
X168671804Y-101991142D01*
X168671804Y-101991142D02*
X168862280Y-102086380D01*
X168862280Y-102086380D02*
X168957518Y-102181619D01*
X168957518Y-102181619D02*
X169052756Y-102372095D01*
X180014661Y-103229238D02*
X181157518Y-103229238D01*
X180586090Y-103229238D02*
X180586090Y-101229238D01*
X180586090Y-101229238D02*
X180776566Y-101514952D01*
X180776566Y-101514952D02*
X180967042Y-101705428D01*
X180967042Y-101705428D02*
X181157518Y-101800666D01*
X178300375Y-101895904D02*
X178300375Y-103229238D01*
X178776566Y-101134000D02*
X179252756Y-102562571D01*
X179252756Y-102562571D02*
X178014661Y-102562571D01*
X190114661Y-103229238D02*
X191257518Y-103229238D01*
X190686090Y-103229238D02*
X190686090Y-101229238D01*
X190686090Y-101229238D02*
X190876566Y-101514952D01*
X190876566Y-101514952D02*
X191067042Y-101705428D01*
X191067042Y-101705428D02*
X191257518Y-101800666D01*
X189352756Y-101419714D02*
X189257518Y-101324476D01*
X189257518Y-101324476D02*
X189067042Y-101229238D01*
X189067042Y-101229238D02*
X188590851Y-101229238D01*
X188590851Y-101229238D02*
X188400375Y-101324476D01*
X188400375Y-101324476D02*
X188305137Y-101419714D01*
X188305137Y-101419714D02*
X188209899Y-101610190D01*
X188209899Y-101610190D02*
X188209899Y-101800666D01*
X188209899Y-101800666D02*
X188305137Y-102086380D01*
X188305137Y-102086380D02*
X189447994Y-103229238D01*
X189447994Y-103229238D02*
X188209899Y-103229238D01*
X200314661Y-103229238D02*
X201457518Y-103229238D01*
X200886090Y-103229238D02*
X200886090Y-101229238D01*
X200886090Y-101229238D02*
X201076566Y-101514952D01*
X201076566Y-101514952D02*
X201267042Y-101705428D01*
X201267042Y-101705428D02*
X201457518Y-101800666D01*
X199076566Y-101229238D02*
X198886089Y-101229238D01*
X198886089Y-101229238D02*
X198695613Y-101324476D01*
X198695613Y-101324476D02*
X198600375Y-101419714D01*
X198600375Y-101419714D02*
X198505137Y-101610190D01*
X198505137Y-101610190D02*
X198409899Y-101991142D01*
X198409899Y-101991142D02*
X198409899Y-102467333D01*
X198409899Y-102467333D02*
X198505137Y-102848285D01*
X198505137Y-102848285D02*
X198600375Y-103038761D01*
X198600375Y-103038761D02*
X198695613Y-103134000D01*
X198695613Y-103134000D02*
X198886089Y-103229238D01*
X198886089Y-103229238D02*
X199076566Y-103229238D01*
X199076566Y-103229238D02*
X199267042Y-103134000D01*
X199267042Y-103134000D02*
X199362280Y-103038761D01*
X199362280Y-103038761D02*
X199457518Y-102848285D01*
X199457518Y-102848285D02*
X199552756Y-102467333D01*
X199552756Y-102467333D02*
X199552756Y-101991142D01*
X199552756Y-101991142D02*
X199457518Y-101610190D01*
X199457518Y-101610190D02*
X199362280Y-101419714D01*
X199362280Y-101419714D02*
X199267042Y-101324476D01*
X199267042Y-101324476D02*
X199076566Y-101229238D01*
X209471804Y-102086380D02*
X209662280Y-101991142D01*
X209662280Y-101991142D02*
X209757518Y-101895904D01*
X209757518Y-101895904D02*
X209852756Y-101705428D01*
X209852756Y-101705428D02*
X209852756Y-101610190D01*
X209852756Y-101610190D02*
X209757518Y-101419714D01*
X209757518Y-101419714D02*
X209662280Y-101324476D01*
X209662280Y-101324476D02*
X209471804Y-101229238D01*
X209471804Y-101229238D02*
X209090851Y-101229238D01*
X209090851Y-101229238D02*
X208900375Y-101324476D01*
X208900375Y-101324476D02*
X208805137Y-101419714D01*
X208805137Y-101419714D02*
X208709899Y-101610190D01*
X208709899Y-101610190D02*
X208709899Y-101705428D01*
X208709899Y-101705428D02*
X208805137Y-101895904D01*
X208805137Y-101895904D02*
X208900375Y-101991142D01*
X208900375Y-101991142D02*
X209090851Y-102086380D01*
X209090851Y-102086380D02*
X209471804Y-102086380D01*
X209471804Y-102086380D02*
X209662280Y-102181619D01*
X209662280Y-102181619D02*
X209757518Y-102276857D01*
X209757518Y-102276857D02*
X209852756Y-102467333D01*
X209852756Y-102467333D02*
X209852756Y-102848285D01*
X209852756Y-102848285D02*
X209757518Y-103038761D01*
X209757518Y-103038761D02*
X209662280Y-103134000D01*
X209662280Y-103134000D02*
X209471804Y-103229238D01*
X209471804Y-103229238D02*
X209090851Y-103229238D01*
X209090851Y-103229238D02*
X208900375Y-103134000D01*
X208900375Y-103134000D02*
X208805137Y-103038761D01*
X208805137Y-103038761D02*
X208709899Y-102848285D01*
X208709899Y-102848285D02*
X208709899Y-102467333D01*
X208709899Y-102467333D02*
X208805137Y-102276857D01*
X208805137Y-102276857D02*
X208900375Y-102181619D01*
X208900375Y-102181619D02*
X209090851Y-102086380D01*
X218900375Y-101895904D02*
X218900375Y-103229238D01*
X219376566Y-101134000D02*
X219852756Y-102562571D01*
X219852756Y-102562571D02*
X218614661Y-102562571D01*
X234147994Y-101419714D02*
X234052756Y-101324476D01*
X234052756Y-101324476D02*
X233862280Y-101229238D01*
X233862280Y-101229238D02*
X233386089Y-101229238D01*
X233386089Y-101229238D02*
X233195613Y-101324476D01*
X233195613Y-101324476D02*
X233100375Y-101419714D01*
X233100375Y-101419714D02*
X233005137Y-101610190D01*
X233005137Y-101610190D02*
X233005137Y-101800666D01*
X233005137Y-101800666D02*
X233100375Y-102086380D01*
X233100375Y-102086380D02*
X234243232Y-103229238D01*
X234243232Y-103229238D02*
X233005137Y-103229238D01*
X232147994Y-103229238D02*
X232147994Y-101229238D01*
X232147994Y-102181619D02*
X231005137Y-102181619D01*
X231005137Y-103229238D02*
X231005137Y-101229238D01*
X230052756Y-103229238D02*
X230052756Y-101229238D01*
X230052756Y-101229238D02*
X229290851Y-101229238D01*
X229290851Y-101229238D02*
X229100375Y-101324476D01*
X229100375Y-101324476D02*
X229005137Y-101419714D01*
X229005137Y-101419714D02*
X228909899Y-101610190D01*
X228909899Y-101610190D02*
X228909899Y-101895904D01*
X228909899Y-101895904D02*
X229005137Y-102086380D01*
X229005137Y-102086380D02*
X229100375Y-102181619D01*
X229100375Y-102181619D02*
X229290851Y-102276857D01*
X229290851Y-102276857D02*
X230052756Y-102276857D01*
D14*
G36*
X241578168Y-49250572D02*
G01*
X241867637Y-49291416D01*
X242141232Y-49360996D01*
X242397506Y-49457940D01*
X242634656Y-49580645D01*
X242851723Y-49727892D01*
X243046670Y-49897700D01*
X243218876Y-50089178D01*
X243366352Y-50300008D01*
X243488526Y-50529650D01*
X243583675Y-50775687D01*
X243651013Y-51037742D01*
X243689110Y-51313622D01*
X243696870Y-51602813D01*
X243693684Y-51681277D01*
X243604921Y-52218330D01*
X243394559Y-52737578D01*
X243062816Y-53225827D01*
X242612853Y-53665026D01*
X242053598Y-54034127D01*
X241737602Y-54185794D01*
X241400274Y-54312459D01*
X240871214Y-54449036D01*
X240959702Y-55010876D01*
X241078215Y-55545072D01*
X241210039Y-55990633D01*
X241367002Y-56399360D01*
X241524839Y-56720258D01*
X241702604Y-57003210D01*
X241873788Y-57214935D01*
X242060594Y-57391376D01*
X242239475Y-57515841D01*
X242431004Y-57608050D01*
X242619170Y-57662698D01*
X242818396Y-57686381D01*
X242853489Y-57687208D01*
X243080553Y-57678263D01*
X243292449Y-57639380D01*
X243674366Y-57477861D01*
X244015250Y-57202069D01*
X244322806Y-56795981D01*
X244595309Y-56234207D01*
X244822514Y-55490137D01*
X244987374Y-54548429D01*
X245068696Y-53430973D01*
X245059979Y-52465785D01*
X245073580Y-52260918D01*
X245115611Y-52076454D01*
X245275769Y-51765150D01*
X245528187Y-51529441D01*
X245862596Y-51379227D01*
X246253191Y-51335388D01*
X246453155Y-51359198D01*
X246646111Y-51414267D01*
X246820056Y-51496856D01*
X246977321Y-51608475D01*
X247104196Y-51738315D01*
X247208320Y-51893290D01*
X247281727Y-52061492D01*
X247328280Y-52251835D01*
X247344626Y-52454549D01*
X247370537Y-53093409D01*
X247363395Y-53768711D01*
X247323521Y-54408247D01*
X247247784Y-55056725D01*
X247147157Y-55632611D01*
X247012378Y-56200075D01*
X246861999Y-56690657D01*
X246680686Y-57163769D01*
X246490694Y-57568083D01*
X246273057Y-57950686D01*
X246050734Y-58275707D01*
X245803559Y-58577168D01*
X245552872Y-58831798D01*
X245279420Y-59061980D01*
X245001059Y-59254061D01*
X244701245Y-59420919D01*
X244392961Y-59555606D01*
X244063761Y-59663916D01*
X243720959Y-59742846D01*
X243357045Y-59793592D01*
X242853489Y-59815052D01*
X242502247Y-59798257D01*
X242166491Y-59751604D01*
X241537057Y-59572555D01*
X240957539Y-59281679D01*
X240423336Y-58877115D01*
X239934096Y-58353006D01*
X239494504Y-57702260D01*
X239114503Y-56920455D01*
X238808766Y-56010927D01*
X238595054Y-54990782D01*
X238519155Y-54348408D01*
X237687490Y-54083030D01*
X237533391Y-54023077D01*
X237335028Y-53933969D01*
X237168367Y-53826627D01*
X237031155Y-53702826D01*
X236923995Y-53566595D01*
X236792925Y-53259116D01*
X236777157Y-52923047D01*
X236881552Y-52591667D01*
X236940738Y-52499490D01*
X240781332Y-52499490D01*
X240781332Y-52645059D01*
X240961437Y-52573460D01*
X241112279Y-52481179D01*
X241332984Y-52243884D01*
X241459835Y-51935080D01*
X241487194Y-51759923D01*
X241478141Y-51616915D01*
X241441908Y-51500211D01*
X241383826Y-51410876D01*
X241308909Y-51349354D01*
X241184822Y-51311493D01*
X241100669Y-51320379D01*
X241027531Y-51360384D01*
X240910196Y-51534317D01*
X240819509Y-51910144D01*
X240781332Y-52499490D01*
X236940738Y-52499490D01*
X236976705Y-52443475D01*
X237098158Y-52313819D01*
X237238600Y-52210635D01*
X237400427Y-52133037D01*
X237572361Y-52086796D01*
X237760903Y-52070780D01*
X237956986Y-52087195D01*
X238166133Y-52138022D01*
X238239253Y-52163412D01*
X238541625Y-52297745D01*
X238709665Y-51356434D01*
X238795359Y-51058320D01*
X238908147Y-50777161D01*
X239047055Y-50513785D01*
X239210375Y-50270602D01*
X239396077Y-50049830D01*
X239603219Y-49852245D01*
X239828290Y-49680827D01*
X240071667Y-49535233D01*
X240328554Y-49418310D01*
X240600626Y-49329492D01*
X240882572Y-49270841D01*
X241176742Y-49242352D01*
X241274214Y-49239825D01*
X241578168Y-49250572D01*
G37*
G36*
X234465701Y-53577090D02*
G01*
X234810013Y-53634352D01*
X235149183Y-53722928D01*
X235472680Y-53840045D01*
X235783738Y-53987158D01*
X236066712Y-54156254D01*
X236331584Y-54352844D01*
X236562998Y-54564571D01*
X236772422Y-54800961D01*
X236948271Y-55048042D01*
X237099437Y-55317288D01*
X237218909Y-55596010D01*
X237311451Y-55895042D01*
X237373586Y-56205014D01*
X237406408Y-56534128D01*
X237411270Y-56723914D01*
X237350228Y-57354078D01*
X237170713Y-57945223D01*
X236879581Y-58481353D01*
X236695021Y-58723540D01*
X236486183Y-58945909D01*
X236255122Y-59146119D01*
X236002292Y-59323371D01*
X235731199Y-59474868D01*
X235440975Y-59600576D01*
X235136242Y-59697969D01*
X234815006Y-59767028D01*
X234219504Y-59815052D01*
X233834674Y-59799717D01*
X233472194Y-59754901D01*
X233130849Y-59682056D01*
X232812114Y-59583100D01*
X232512838Y-59458320D01*
X232236773Y-59310547D01*
X231746017Y-58945804D01*
X231343136Y-58496510D01*
X231035341Y-57971907D01*
X230832946Y-57386028D01*
X230746740Y-56760242D01*
X230747786Y-56649457D01*
X232605950Y-56649457D01*
X232630053Y-56844679D01*
X232685370Y-57033667D01*
X232769724Y-57209141D01*
X232884022Y-57372002D01*
X233023555Y-57514833D01*
X233191337Y-57639697D01*
X233382330Y-57741353D01*
X233600286Y-57820252D01*
X233842188Y-57873135D01*
X234110481Y-57898379D01*
X234208269Y-57900188D01*
X234442795Y-57884921D01*
X234658814Y-57840582D01*
X234854707Y-57769413D01*
X235029122Y-57673581D01*
X235180246Y-57555566D01*
X235307015Y-57417349D01*
X235407653Y-57261646D01*
X235481152Y-57090180D01*
X235540858Y-56713168D01*
X235525693Y-56517049D01*
X235482065Y-56338061D01*
X235315333Y-56023897D01*
X235044703Y-55765411D01*
X234670179Y-55571559D01*
X234241486Y-55469972D01*
X233959916Y-55455179D01*
X233668786Y-55475969D01*
X233425074Y-55527012D01*
X233195903Y-55613289D01*
X233025315Y-55713678D01*
X232876743Y-55843211D01*
X232770063Y-55980864D01*
X232687613Y-56143759D01*
X232651465Y-56253503D01*
X232613071Y-56451079D01*
X232605950Y-56649457D01*
X230747786Y-56649457D01*
X230749754Y-56440988D01*
X230784071Y-56123183D01*
X230892916Y-55659993D01*
X231002123Y-55367296D01*
X231134085Y-55099195D01*
X231467173Y-54623782D01*
X231888831Y-54228768D01*
X232397395Y-53915257D01*
X232987442Y-53690995D01*
X233641332Y-53568963D01*
X234318615Y-53562282D01*
X234465701Y-53577090D01*
G37*
G36*
X225584542Y-57828869D02*
G01*
X225882190Y-57794328D01*
X226148944Y-57730600D01*
X226368683Y-57645920D01*
X226563628Y-57536537D01*
X226728392Y-57408148D01*
X226871585Y-57257086D01*
X227098257Y-56881984D01*
X227251416Y-56382047D01*
X227323032Y-55710603D01*
X227291651Y-54799459D01*
X227121799Y-53543109D01*
X226928855Y-52542477D01*
X226905277Y-52352550D01*
X226913290Y-52176551D01*
X227014388Y-51864209D01*
X227220538Y-51606050D01*
X227523383Y-51416659D01*
X227895995Y-51325319D01*
X228089326Y-51325290D01*
X228278667Y-51357697D01*
X228448576Y-51419189D01*
X228604817Y-51511730D01*
X228732403Y-51625320D01*
X228840392Y-51766924D01*
X228920865Y-51926944D01*
X228977254Y-52113295D01*
X228978053Y-52117006D01*
X229144365Y-52939481D01*
X229272594Y-53748865D01*
X229350574Y-54449583D01*
X229391494Y-55128973D01*
X229394045Y-55710969D01*
X229362296Y-56268355D01*
X229302909Y-56743110D01*
X229212510Y-57192645D01*
X229102872Y-57574626D01*
X228965350Y-57932009D01*
X228814044Y-58235812D01*
X228637410Y-58515945D01*
X228449098Y-58754484D01*
X228237182Y-58969981D01*
X228012220Y-59153060D01*
X227764392Y-59313033D01*
X227499032Y-59446242D01*
X227210497Y-59555351D01*
X226560248Y-59697534D01*
X225793639Y-59730820D01*
X225595778Y-59721263D01*
X225373618Y-59681867D01*
X225178476Y-59617271D01*
X225008345Y-59529655D01*
X224865346Y-59423002D01*
X224655416Y-59158149D01*
X224555410Y-58844289D01*
X224575803Y-58514697D01*
X224631854Y-58359119D01*
X224717982Y-58215283D01*
X224829333Y-58091776D01*
X224968097Y-57987405D01*
X225126832Y-57908943D01*
X225310291Y-57855390D01*
X225584542Y-57828869D01*
G37*
G36*
X220426133Y-57828869D02*
G01*
X220723781Y-57794328D01*
X220990535Y-57730600D01*
X221210274Y-57645920D01*
X221405219Y-57536537D01*
X221569983Y-57408148D01*
X221713176Y-57257086D01*
X221939848Y-56881984D01*
X222093007Y-56382047D01*
X222164623Y-55710603D01*
X222133242Y-54799459D01*
X221963391Y-53543109D01*
X221770446Y-52542477D01*
X221746868Y-52352550D01*
X221754882Y-52176551D01*
X221855980Y-51864209D01*
X222062129Y-51606050D01*
X222364974Y-51416659D01*
X222737586Y-51325319D01*
X222930917Y-51325290D01*
X223120258Y-51357697D01*
X223290167Y-51419189D01*
X223446409Y-51511730D01*
X223573994Y-51625320D01*
X223681983Y-51766924D01*
X223762457Y-51926944D01*
X223818845Y-52113295D01*
X223819644Y-52117006D01*
X223985956Y-52939481D01*
X224114185Y-53748865D01*
X224192165Y-54449583D01*
X224233085Y-55128973D01*
X224235636Y-55710969D01*
X224203887Y-56268355D01*
X224144500Y-56743110D01*
X224054101Y-57192645D01*
X223944463Y-57574626D01*
X223806941Y-57932009D01*
X223655635Y-58235812D01*
X223479002Y-58515945D01*
X223290690Y-58754484D01*
X223078773Y-58969981D01*
X222853811Y-59153060D01*
X222605983Y-59313033D01*
X222340623Y-59446242D01*
X222052088Y-59555351D01*
X221401839Y-59697534D01*
X220635230Y-59730820D01*
X220437369Y-59721263D01*
X220215209Y-59681867D01*
X220020067Y-59617271D01*
X219849936Y-59529655D01*
X219706937Y-59423002D01*
X219497007Y-59158149D01*
X219397001Y-58844289D01*
X219417394Y-58514697D01*
X219473445Y-58359119D01*
X219559573Y-58215283D01*
X219670924Y-58091776D01*
X219809688Y-57987405D01*
X219968423Y-57908943D01*
X220151882Y-57855390D01*
X220426133Y-57828869D01*
G37*
G36*
X216885871Y-51339119D02*
G01*
X217067533Y-51407809D01*
X217224155Y-51501145D01*
X217361020Y-51622120D01*
X217465002Y-51757661D01*
X217544042Y-51916542D01*
X217592089Y-52087306D01*
X217611272Y-52278724D01*
X217611479Y-52301653D01*
X217611479Y-55101653D01*
X218020866Y-55444052D01*
X218325241Y-55853910D01*
X218434226Y-56077316D01*
X218512370Y-56307930D01*
X218558947Y-56541989D01*
X218573711Y-56777531D01*
X218556668Y-57007528D01*
X218507800Y-57233547D01*
X218429079Y-57447272D01*
X218319110Y-57652209D01*
X218181308Y-57841186D01*
X218012815Y-58017164D01*
X217611479Y-58304654D01*
X217611479Y-58909399D01*
X217596364Y-59099479D01*
X217553089Y-59269714D01*
X217391021Y-59554768D01*
X217136299Y-59766575D01*
X216799339Y-59892594D01*
X216411881Y-59909272D01*
X216219809Y-59871533D01*
X216038130Y-59802824D01*
X215881514Y-59709477D01*
X215744666Y-59588497D01*
X215640716Y-59452966D01*
X215561716Y-59294101D01*
X215513715Y-59123367D01*
X215494583Y-58931986D01*
X215494382Y-58909399D01*
X215494382Y-58663203D01*
X214842801Y-58546596D01*
X214247101Y-58320124D01*
X213700027Y-57985853D01*
X213590753Y-57901653D01*
X213241555Y-58559446D01*
X212952302Y-59334870D01*
X212886047Y-59524325D01*
X212798467Y-59685163D01*
X212568696Y-59926779D01*
X212277938Y-60065030D01*
X211944439Y-60093358D01*
X211605931Y-60001706D01*
X211453946Y-59912689D01*
X211320375Y-59796736D01*
X211215364Y-59663046D01*
X211136061Y-59507544D01*
X211089019Y-59343058D01*
X211072117Y-59161440D01*
X211115596Y-58842477D01*
X211281344Y-58349723D01*
X211480714Y-57862370D01*
X211697772Y-57417487D01*
X211945730Y-56986186D01*
X212222147Y-56591046D01*
X214889637Y-56591046D01*
X215093244Y-56772570D01*
X215314397Y-56927567D01*
X215494382Y-57027752D01*
X215494382Y-56344849D01*
X215003682Y-56530798D01*
X214889637Y-56591046D01*
X212222147Y-56591046D01*
X212347557Y-56411772D01*
X212000246Y-55685692D01*
X211755568Y-54941414D01*
X211686636Y-54608771D01*
X211663532Y-54411554D01*
X211672086Y-54230214D01*
X211773491Y-53913843D01*
X211976065Y-53660989D01*
X212267588Y-53485578D01*
X212619281Y-53414012D01*
X212799428Y-53424442D01*
X212974965Y-53467168D01*
X213132191Y-53538438D01*
X213275782Y-53640560D01*
X213393376Y-53764430D01*
X213491333Y-53916647D01*
X213601500Y-54238988D01*
X213827785Y-54930693D01*
X213904361Y-55112889D01*
X214242205Y-54953829D01*
X214599287Y-54823800D01*
X214945503Y-54732735D01*
X215309271Y-54671793D01*
X215494382Y-54653712D01*
X215494382Y-52301653D01*
X215509496Y-52111505D01*
X215552772Y-51941207D01*
X215714836Y-51656055D01*
X215969535Y-51444182D01*
X216306439Y-51318118D01*
X216693825Y-51301400D01*
X216885871Y-51339119D01*
G37*
G36*
X207235554Y-53577090D02*
G01*
X207579866Y-53634352D01*
X207919036Y-53722928D01*
X208242534Y-53840045D01*
X208553591Y-53987158D01*
X208836566Y-54156254D01*
X209101437Y-54352844D01*
X209332851Y-54564571D01*
X209542276Y-54800961D01*
X209718125Y-55048042D01*
X209869291Y-55317288D01*
X209988763Y-55596010D01*
X210081305Y-55895042D01*
X210143440Y-56205014D01*
X210176261Y-56534128D01*
X210181123Y-56723914D01*
X210120081Y-57354078D01*
X209940567Y-57945223D01*
X209649434Y-58481353D01*
X209464874Y-58723540D01*
X209256037Y-58945909D01*
X209024976Y-59146119D01*
X208772145Y-59323371D01*
X208501052Y-59474868D01*
X208210829Y-59600576D01*
X207906095Y-59697969D01*
X207584859Y-59767028D01*
X206989357Y-59815052D01*
X206604527Y-59799717D01*
X206242048Y-59754901D01*
X205900703Y-59682056D01*
X205581968Y-59583100D01*
X205282692Y-59458320D01*
X205006626Y-59310547D01*
X204515871Y-58945804D01*
X204112989Y-58496510D01*
X203805195Y-57971907D01*
X203602799Y-57386028D01*
X203516594Y-56760242D01*
X203517640Y-56649457D01*
X205375804Y-56649457D01*
X205399907Y-56844679D01*
X205455224Y-57033667D01*
X205539577Y-57209141D01*
X205653875Y-57372002D01*
X205793408Y-57514833D01*
X205961190Y-57639697D01*
X206152184Y-57741353D01*
X206370140Y-57820252D01*
X206612042Y-57873135D01*
X206880334Y-57898379D01*
X206978122Y-57900188D01*
X207212649Y-57884921D01*
X207428667Y-57840582D01*
X207624560Y-57769413D01*
X207798976Y-57673581D01*
X207950099Y-57555566D01*
X208076868Y-57417349D01*
X208177506Y-57261646D01*
X208251005Y-57090180D01*
X208310711Y-56713168D01*
X208295546Y-56517049D01*
X208251918Y-56338061D01*
X208085186Y-56023897D01*
X207814556Y-55765411D01*
X207440032Y-55571559D01*
X207011339Y-55469972D01*
X206729770Y-55455179D01*
X206438639Y-55475969D01*
X206194928Y-55527012D01*
X205965757Y-55613289D01*
X205795169Y-55713678D01*
X205646596Y-55843211D01*
X205539916Y-55980864D01*
X205457466Y-56143759D01*
X205421318Y-56253503D01*
X205382925Y-56451079D01*
X205375804Y-56649457D01*
X203517640Y-56649457D01*
X203519608Y-56440988D01*
X203553924Y-56123183D01*
X203662770Y-55659993D01*
X203771976Y-55367296D01*
X203903939Y-55099195D01*
X204237026Y-54623782D01*
X204658685Y-54228768D01*
X205167248Y-53915257D01*
X205757295Y-53690995D01*
X206411185Y-53568963D01*
X207088469Y-53562282D01*
X207235554Y-53577090D01*
G37*
G36*
X202543161Y-56522170D02*
G01*
X202465003Y-58780439D01*
X202441999Y-58966953D01*
X202391643Y-59133523D01*
X202216582Y-59412200D01*
X201949448Y-59617582D01*
X201601227Y-59735804D01*
X201206953Y-59743030D01*
X201014822Y-59700663D01*
X200834901Y-59627681D01*
X200682734Y-59531499D01*
X200551842Y-59408573D01*
X200455112Y-59272841D01*
X200384331Y-59114896D01*
X200344922Y-58946103D01*
X200335171Y-58757774D01*
X200336671Y-58724263D01*
X200426552Y-56857759D01*
X200423506Y-56630406D01*
X200389970Y-56426498D01*
X200330444Y-56252018D01*
X200246168Y-56100420D01*
X200014339Y-55870089D01*
X199700926Y-55732604D01*
X199306181Y-55698076D01*
X199172121Y-55710795D01*
X198785066Y-55778849D01*
X198306582Y-55862018D01*
X197883984Y-55907166D01*
X197322856Y-55868650D01*
X196741100Y-55718565D01*
X196157022Y-55493020D01*
X196047278Y-55447990D01*
X195858339Y-55356949D01*
X195700819Y-55248357D01*
X195571908Y-55123421D01*
X195473168Y-54987051D01*
X195359708Y-54682380D01*
X195363869Y-54358636D01*
X195411375Y-54201193D01*
X195487650Y-54056156D01*
X195589562Y-53929800D01*
X195716442Y-53824585D01*
X195859339Y-53748065D01*
X196022272Y-53698779D01*
X196195582Y-53680725D01*
X196384872Y-53694552D01*
X196618318Y-53753433D01*
X196805412Y-53820986D01*
X197298311Y-53985434D01*
X197562229Y-54039303D01*
X197817062Y-54047990D01*
X198178329Y-53977206D01*
X198440774Y-53880002D01*
X198776797Y-53756887D01*
X199194591Y-53656224D01*
X199568143Y-53604126D01*
X199921693Y-53585992D01*
X200248603Y-53599879D01*
X200555491Y-53643836D01*
X200837957Y-53715322D01*
X201100233Y-53813532D01*
X201340621Y-53936458D01*
X201560317Y-54083379D01*
X201938240Y-54446877D01*
X202232448Y-54901825D01*
X202436142Y-55447743D01*
X202537773Y-56082424D01*
X202543161Y-56522170D01*
G37*
G36*
X192631511Y-53445702D02*
G01*
X193295244Y-53689847D01*
X193523272Y-53805212D01*
X194131060Y-53582800D01*
X194799626Y-53472458D01*
X195520998Y-53482288D01*
X195899393Y-53535089D01*
X196285515Y-53620790D01*
X196423900Y-53659155D01*
X196617223Y-53728442D01*
X196782148Y-53818805D01*
X197033953Y-54054824D01*
X197182408Y-54351326D01*
X197219917Y-54686626D01*
X197137505Y-55018223D01*
X197054373Y-55162249D01*
X196944957Y-55286280D01*
X196819415Y-55379951D01*
X196672943Y-55447108D01*
X196517466Y-55482182D01*
X196345435Y-55486587D01*
X195998429Y-55406468D01*
X195695836Y-55308310D01*
X195411731Y-55249341D01*
X195113293Y-55227194D01*
X195318512Y-55555829D01*
X195496624Y-55901927D01*
X195641732Y-56253414D01*
X195757804Y-56619376D01*
X195841010Y-56987257D01*
X195893686Y-57366962D01*
X195908548Y-57569972D01*
X195912354Y-57906024D01*
X195885560Y-58213565D01*
X195831146Y-58490925D01*
X195751314Y-58741651D01*
X195647718Y-58967648D01*
X195523094Y-59168092D01*
X195211189Y-59502546D01*
X194821140Y-59747498D01*
X194360183Y-59896628D01*
X193847782Y-59937069D01*
X193780704Y-59933754D01*
X193465669Y-59894574D01*
X193167685Y-59822673D01*
X192918426Y-59729016D01*
X192686379Y-59605690D01*
X192488887Y-59463966D01*
X192308902Y-59294106D01*
X192153770Y-59103196D01*
X192017249Y-58883863D01*
X191805602Y-58357702D01*
X191680379Y-57688750D01*
X191662104Y-57312051D01*
X193500802Y-57312051D01*
X193503339Y-57693072D01*
X193540163Y-57998323D01*
X193593252Y-58178609D01*
X193668026Y-58303300D01*
X193735455Y-58356349D01*
X193814410Y-58376950D01*
X193878394Y-58365217D01*
X193930016Y-58324747D01*
X194004068Y-58148561D01*
X194026832Y-57769594D01*
X194004919Y-57502561D01*
X193947357Y-57157162D01*
X193864589Y-56841503D01*
X193657606Y-56337034D01*
X193576415Y-56654384D01*
X193522843Y-56996485D01*
X193500802Y-57312051D01*
X191662104Y-57312051D01*
X191652861Y-57121542D01*
X191668220Y-56725581D01*
X191713209Y-56350702D01*
X191786593Y-55995071D01*
X191886576Y-55660212D01*
X192078332Y-55205212D01*
X191854361Y-55199595D01*
X191630390Y-55227683D01*
X191400041Y-55288966D01*
X191199575Y-55374768D01*
X191034115Y-55479052D01*
X190893841Y-55603779D01*
X190683040Y-55912996D01*
X190555338Y-56319907D01*
X190517560Y-56856204D01*
X190591639Y-57564174D01*
X190811159Y-58498684D01*
X190857606Y-58657341D01*
X190907623Y-58843944D01*
X190924309Y-59020634D01*
X190867849Y-59344741D01*
X190700480Y-59627298D01*
X190429373Y-59852855D01*
X190077577Y-59989356D01*
X189888980Y-60013169D01*
X189700026Y-60004323D01*
X189526079Y-59964177D01*
X189361425Y-59891463D01*
X189221661Y-59793960D01*
X189097483Y-59665981D01*
X188998700Y-59517541D01*
X188919783Y-59340244D01*
X188755124Y-58834753D01*
X188618894Y-58310661D01*
X188520103Y-57802867D01*
X188455133Y-57291855D01*
X188428712Y-56827096D01*
X188437000Y-56370222D01*
X188476758Y-55969270D01*
X188549452Y-55582538D01*
X188645219Y-55248728D01*
X188771295Y-54932249D01*
X188914442Y-54660457D01*
X189085546Y-54407500D01*
X189271511Y-54190302D01*
X189483930Y-53993000D01*
X189712901Y-53824394D01*
X189967926Y-53677035D01*
X190244380Y-53554512D01*
X190547631Y-53455275D01*
X190577704Y-53447152D01*
X191263086Y-53323747D01*
X191950392Y-53323545D01*
X192631511Y-53445702D01*
G37*
G36*
X184671662Y-51343858D02*
G01*
X184840107Y-51403598D01*
X184995578Y-51494622D01*
X185123486Y-51607432D01*
X185232446Y-51748737D01*
X185313944Y-51907671D01*
X185372400Y-52093070D01*
X185586236Y-53009303D01*
X185748014Y-53993023D01*
X185798360Y-54534521D01*
X186089988Y-54780082D01*
X186367098Y-55056921D01*
X186616999Y-55352458D01*
X186850852Y-55679777D01*
X187062261Y-56031274D01*
X187255838Y-56415964D01*
X187377145Y-56698513D01*
X187432793Y-56885931D01*
X187454728Y-57063851D01*
X187407853Y-57391113D01*
X187249573Y-57677125D01*
X186987823Y-57906166D01*
X186645435Y-58046268D01*
X186461035Y-58071948D01*
X186275471Y-58065008D01*
X186103623Y-58026554D01*
X185940044Y-57955333D01*
X185799694Y-57858502D01*
X185673958Y-57730631D01*
X185495498Y-57416587D01*
X185451046Y-57304235D01*
X185311036Y-57651327D01*
X185150751Y-57968295D01*
X184770623Y-58523100D01*
X184316230Y-58977400D01*
X183790861Y-59335422D01*
X183198354Y-59596151D01*
X182547988Y-59753635D01*
X181861939Y-59799294D01*
X181575889Y-59783789D01*
X181207195Y-59737204D01*
X180865493Y-59663472D01*
X180549765Y-59564314D01*
X180260021Y-59441729D01*
X179750210Y-59129246D01*
X179330335Y-58732606D01*
X178999730Y-58256132D01*
X178763564Y-57705693D01*
X178631916Y-57094451D01*
X178607850Y-56687278D01*
X178608396Y-56676043D01*
X180724459Y-56676043D01*
X180754090Y-56859633D01*
X180816026Y-57042207D01*
X180907299Y-57211399D01*
X181029804Y-57366519D01*
X181170104Y-57490969D01*
X181337438Y-57593141D01*
X181516500Y-57663455D01*
X181719246Y-57706518D01*
X181732693Y-57708213D01*
X181947386Y-57709672D01*
X182179168Y-57671702D01*
X182376940Y-57603495D01*
X182575666Y-57495764D01*
X182748301Y-57362987D01*
X182914595Y-57190835D01*
X183062383Y-56989199D01*
X183198826Y-56745810D01*
X183390125Y-56249595D01*
X183514808Y-55674321D01*
X183535694Y-55520286D01*
X182935438Y-55410197D01*
X182289717Y-55416476D01*
X181956420Y-55464598D01*
X181686806Y-55517902D01*
X181454035Y-55594431D01*
X181258765Y-55689937D01*
X181096316Y-55802426D01*
X180964242Y-55930120D01*
X180862358Y-56069322D01*
X180740301Y-56382992D01*
X180724459Y-56676043D01*
X178608396Y-56676043D01*
X178623378Y-56368046D01*
X178669549Y-56056322D01*
X178745737Y-55753945D01*
X178851323Y-55462714D01*
X178984999Y-55185710D01*
X179146575Y-54923348D01*
X179333735Y-54679421D01*
X179547129Y-54453406D01*
X179783525Y-54249106D01*
X180044446Y-54065752D01*
X180326208Y-53906599D01*
X180630859Y-53771258D01*
X180954881Y-53662219D01*
X181300298Y-53579790D01*
X181956420Y-53504305D01*
X182483805Y-53497741D01*
X183018649Y-53526850D01*
X183535694Y-53593698D01*
X183458696Y-53022597D01*
X183356420Y-52552247D01*
X183329397Y-52361000D01*
X183334216Y-52183391D01*
X183429544Y-51867187D01*
X183630267Y-51604841D01*
X183927416Y-51411199D01*
X184294045Y-51315600D01*
X184484582Y-51313480D01*
X184671662Y-51343858D01*
G37*
G36*
X177634298Y-56522170D02*
G01*
X177556140Y-58780439D01*
X177533137Y-58966953D01*
X177482780Y-59133523D01*
X177307719Y-59412200D01*
X177040585Y-59617582D01*
X176692364Y-59735804D01*
X176298090Y-59743030D01*
X176105960Y-59700663D01*
X175926039Y-59627681D01*
X175773872Y-59531499D01*
X175642980Y-59408573D01*
X175546249Y-59272841D01*
X175475468Y-59114896D01*
X175436059Y-58946103D01*
X175426309Y-58757774D01*
X175427808Y-58724263D01*
X175517690Y-56857759D01*
X175514643Y-56630406D01*
X175481108Y-56426498D01*
X175421582Y-56252018D01*
X175337305Y-56100420D01*
X175105477Y-55870089D01*
X174792063Y-55732604D01*
X174397319Y-55698076D01*
X174263258Y-55710795D01*
X173876203Y-55778849D01*
X173397720Y-55862018D01*
X172975122Y-55907166D01*
X172413993Y-55868650D01*
X171832238Y-55718565D01*
X171248160Y-55493020D01*
X171138415Y-55447990D01*
X170949476Y-55356949D01*
X170791956Y-55248357D01*
X170663046Y-55123421D01*
X170564306Y-54987051D01*
X170450845Y-54682380D01*
X170455006Y-54358636D01*
X170502512Y-54201193D01*
X170578787Y-54056156D01*
X170680699Y-53929800D01*
X170807580Y-53824585D01*
X170950476Y-53748065D01*
X171113410Y-53698779D01*
X171286720Y-53680725D01*
X171476009Y-53694552D01*
X171709455Y-53753433D01*
X171896549Y-53820986D01*
X172389448Y-53985434D01*
X172653367Y-54039303D01*
X172908199Y-54047990D01*
X173269466Y-53977206D01*
X173531911Y-53880002D01*
X173867935Y-53756887D01*
X174285729Y-53656224D01*
X174659280Y-53604126D01*
X175012831Y-53585992D01*
X175339740Y-53599879D01*
X175646628Y-53643836D01*
X175929095Y-53715322D01*
X176191370Y-53813532D01*
X176431759Y-53936458D01*
X176651455Y-54083379D01*
X177029378Y-54446877D01*
X177323586Y-54901825D01*
X177527279Y-55447743D01*
X177628910Y-56082424D01*
X177634298Y-56522170D01*
G37*
G36*
X167930041Y-53577090D02*
G01*
X168274353Y-53634352D01*
X168613523Y-53722928D01*
X168937021Y-53840045D01*
X169248079Y-53987158D01*
X169531053Y-54156254D01*
X169795924Y-54352844D01*
X170027339Y-54564571D01*
X170236763Y-54800961D01*
X170412612Y-55048042D01*
X170563778Y-55317288D01*
X170683250Y-55596010D01*
X170775792Y-55895042D01*
X170837927Y-56205014D01*
X170870748Y-56534128D01*
X170875610Y-56723914D01*
X170814568Y-57354078D01*
X170635054Y-57945223D01*
X170343921Y-58481353D01*
X170159361Y-58723540D01*
X169950524Y-58945909D01*
X169719463Y-59146119D01*
X169466632Y-59323371D01*
X169195539Y-59474868D01*
X168905316Y-59600576D01*
X168600582Y-59697969D01*
X168279346Y-59767028D01*
X167683845Y-59815052D01*
X167299014Y-59799717D01*
X166936535Y-59754901D01*
X166595190Y-59682056D01*
X166276455Y-59583100D01*
X165977179Y-59458320D01*
X165701113Y-59310547D01*
X165210358Y-58945804D01*
X164807476Y-58496510D01*
X164499682Y-57971907D01*
X164297286Y-57386028D01*
X164211081Y-56760242D01*
X164212127Y-56649457D01*
X166070291Y-56649457D01*
X166094394Y-56844679D01*
X166149711Y-57033667D01*
X166234065Y-57209141D01*
X166348362Y-57372002D01*
X166487896Y-57514833D01*
X166655678Y-57639697D01*
X166846671Y-57741353D01*
X167064627Y-57820252D01*
X167306529Y-57873135D01*
X167574821Y-57898379D01*
X167672609Y-57900188D01*
X167907136Y-57884921D01*
X168123154Y-57840582D01*
X168319047Y-57769413D01*
X168493463Y-57673581D01*
X168644586Y-57555566D01*
X168771355Y-57417349D01*
X168871993Y-57261646D01*
X168945492Y-57090180D01*
X169005198Y-56713168D01*
X168990033Y-56517049D01*
X168946405Y-56338061D01*
X168779673Y-56023897D01*
X168509044Y-55765411D01*
X168134519Y-55571559D01*
X167705826Y-55469972D01*
X167424257Y-55455179D01*
X167133126Y-55475969D01*
X166889415Y-55527012D01*
X166660244Y-55613289D01*
X166489656Y-55713678D01*
X166341083Y-55843211D01*
X166234403Y-55980864D01*
X166151953Y-56143759D01*
X166115806Y-56253503D01*
X166077412Y-56451079D01*
X166070291Y-56649457D01*
X164212127Y-56649457D01*
X164214095Y-56440988D01*
X164248411Y-56123183D01*
X164357257Y-55659993D01*
X164466463Y-55367296D01*
X164598426Y-55099195D01*
X164931513Y-54623782D01*
X165353172Y-54228768D01*
X165861735Y-53915257D01*
X166451783Y-53690995D01*
X167105672Y-53568963D01*
X167782956Y-53562282D01*
X167930041Y-53577090D01*
G37*
G36*
X158691311Y-59815052D02*
G01*
X158063488Y-59755567D01*
X157390062Y-59570605D01*
X157085187Y-59439746D01*
X156812631Y-59286617D01*
X156540997Y-59075973D01*
X156389895Y-58905378D01*
X156272129Y-58728115D01*
X156129450Y-58356387D01*
X156105117Y-58168633D01*
X156111907Y-57987499D01*
X156148829Y-57814993D01*
X156214437Y-57656587D01*
X156305449Y-57518149D01*
X156421276Y-57400431D01*
X156555221Y-57309765D01*
X156709619Y-57244824D01*
X156877597Y-57209408D01*
X157062384Y-57204012D01*
X157260409Y-57231002D01*
X157472549Y-57292917D01*
X157683565Y-57385324D01*
X157903538Y-57493881D01*
X158187817Y-57598696D01*
X158443329Y-57662343D01*
X158691311Y-57687208D01*
X158916212Y-57671826D01*
X159121295Y-57626673D01*
X159303589Y-57555059D01*
X159468265Y-57457741D01*
X159754221Y-57183065D01*
X159989391Y-56785588D01*
X160171277Y-56234354D01*
X160203175Y-56087906D01*
X158568213Y-55706887D01*
X158394451Y-55646615D01*
X158244026Y-55563387D01*
X158005820Y-55332421D01*
X157858203Y-55026676D01*
X157817680Y-54670207D01*
X157842868Y-54487920D01*
X157898756Y-54314062D01*
X157981650Y-54159229D01*
X158092447Y-54022892D01*
X158220046Y-53917346D01*
X158371036Y-53836457D01*
X158533807Y-53786680D01*
X158716622Y-53765795D01*
X159004919Y-53791535D01*
X160337997Y-54049455D01*
X160265016Y-52714032D01*
X160236880Y-52358318D01*
X160242277Y-52159457D01*
X160276726Y-51977915D01*
X160424935Y-51663070D01*
X160668153Y-51420201D01*
X160989404Y-51267191D01*
X161169696Y-51232056D01*
X161353579Y-51228053D01*
X161533622Y-51255578D01*
X161707797Y-51315340D01*
X161863657Y-51402910D01*
X162006035Y-51521335D01*
X162124962Y-51662886D01*
X162224786Y-51833658D01*
X162300130Y-52027848D01*
X162351214Y-52250853D01*
X162365212Y-52358318D01*
X162439693Y-53162133D01*
X162481041Y-53966904D01*
X162488311Y-54452456D01*
X162656350Y-54486161D01*
X162882626Y-54546219D01*
X163078193Y-54628921D01*
X163244252Y-54731511D01*
X163381268Y-54850838D01*
X163575121Y-55135051D01*
X163659830Y-55466687D01*
X163627502Y-55821285D01*
X163565607Y-55994524D01*
X163474826Y-56155326D01*
X163358842Y-56296643D01*
X163217676Y-56416865D01*
X163061507Y-56507419D01*
X162884987Y-56571027D01*
X162699563Y-56602976D01*
X162497812Y-56603841D01*
X162275331Y-56569064D01*
X162155585Y-57035147D01*
X162006848Y-57476587D01*
X161846904Y-57849863D01*
X161660893Y-58198159D01*
X161467140Y-58492461D01*
X161249656Y-58762102D01*
X161024947Y-58989435D01*
X160778076Y-59192329D01*
X160521622Y-59361515D01*
X160243709Y-59505921D01*
X159951404Y-59621663D01*
X159637454Y-59711453D01*
X159302585Y-59773925D01*
X158945026Y-59808309D01*
X158691311Y-59815052D01*
G37*
M02*
