M48
; DRILL file KiCad 10.0.4 date 2026-06-29T18:40:02
; FORMAT={-:-/ absolute / metric / decimal}
; #@! TF.CreationDate,2026-06-29T18:40:02+02:00
; #@! TF.GenerationSoftware,Kicad,Pcbnew,10.0.4
; #@! TF.FileFunction,Plated,1,2,PTH
FMAT,2
METRIC
; #@! TA.AperFunction,Plated,PTH,ViaDrill
T1C0.400
%
G90
G05
T1
X38.5Y-51.0
X38.5Y-58.6
X41.04Y-51.0
X41.04Y-58.6
X43.58Y-51.0
X43.58Y-58.6
X55.5Y-51.0
X55.5Y-52.0
X55.5Y-57.5
X55.5Y-58.6
X57.73Y-68.15
X58.04Y-51.0
X60.27Y-64.85
X60.58Y-51.0
X60.58Y-58.6
X63.12Y-51.0
X63.12Y-58.6
X65.66Y-51.0
X65.66Y-52.0
X65.66Y-57.5
X65.66Y-58.6
X68.2Y-51.0
X68.2Y-58.6
X70.74Y-51.0
X70.74Y-52.0
X70.74Y-57.5
X70.74Y-58.6
X73.28Y-51.0
X73.28Y-52.0
X73.28Y-57.5
X73.28Y-58.6
X102.212Y-60.8
X104.562Y-57.85
X111.587Y-49.525
X111.6Y-60.675
X111.73Y-68.15
X114.087Y-53.525
X114.1Y-60.15
X114.27Y-64.85
X165.73Y-68.15
X168.27Y-64.85
X219.73Y-68.15
X222.27Y-64.85
M30
