%TF.GenerationSoftware,KiCad,Pcbnew,10.0.4*%
%TF.CreationDate,2026-06-29T18:40:26+02:00*%
%TF.ProjectId,Vollkornbrot,566f6c6c-6b6f-4726-9e62-726f742e6b69,rev?*%
%TF.SameCoordinates,Original*%
%TF.FileFunction,Paste,Top*%
%TF.FilePolarity,Positive*%
%FSLAX46Y46*%
G04 Gerber Fmt 4.6, Leading zero omitted, Abs format (unit mm)*
G04 Created by KiCad (PCBNEW 10.0.4) date 2026-06-29 18:40:26*
%MOMM*%
%LPD*%
G01*
G04 APERTURE LIST*
G04 Aperture macros list*
%AMRoundRect*
0 Rectangle with rounded corners*
0 $1 Rounding radius*
0 $2 $3 $4 $5 $6 $7 $8 $9 X,Y pos of 4 corners*
0 Add a 4 corners polygon primitive as box body*
4,1,4,$2,$3,$4,$5,$6,$7,$8,$9,$2,$3,0*
0 Add four circle primitives for the rounded corners*
1,1,$1+$1,$2,$3*
1,1,$1+$1,$4,$5*
1,1,$1+$1,$6,$7*
1,1,$1+$1,$8,$9*
0 Add four rect primitives between the rounded corners*
20,1,$1+$1,$2,$3,$4,$5,0*
20,1,$1+$1,$4,$5,$6,$7,0*
20,1,$1+$1,$6,$7,$8,$9,0*
20,1,$1+$1,$8,$9,$2,$3,0*%
%AMFreePoly0*
4,1,9,3.862500,-0.866500,0.737500,-0.866500,0.737500,-0.450000,-0.737500,-0.450000,-0.737500,0.450000,0.737500,0.450000,0.737500,0.866500,3.862500,0.866500,3.862500,-0.866500,3.862500,-0.866500,$1*%
G04 Aperture macros list end*
%ADD10RoundRect,0.250000X0.650000X-0.325000X0.650000X0.325000X-0.650000X0.325000X-0.650000X-0.325000X0*%
%ADD11RoundRect,0.250000X-0.650000X0.325000X-0.650000X-0.325000X0.650000X-0.325000X0.650000X0.325000X0*%
%ADD12R,1.000000X1.900000*%
%ADD13RoundRect,0.243750X-0.456250X0.243750X-0.456250X-0.243750X0.456250X-0.243750X0.456250X0.243750X0*%
%ADD14RoundRect,0.243750X-0.243750X-0.456250X0.243750X-0.456250X0.243750X0.456250X-0.243750X0.456250X0*%
%ADD15RoundRect,0.250000X0.260000X-2.250000X0.260000X2.250000X-0.260000X2.250000X-0.260000X-2.250000X0*%
%ADD16RoundRect,0.225000X-0.375000X0.225000X-0.375000X-0.225000X0.375000X-0.225000X0.375000X0.225000X0*%
%ADD17RoundRect,0.225000X-0.225000X-0.375000X0.225000X-0.375000X0.225000X0.375000X-0.225000X0.375000X0*%
%ADD18RoundRect,0.250000X-0.262500X-0.450000X0.262500X-0.450000X0.262500X0.450000X-0.262500X0.450000X0*%
%ADD19RoundRect,0.250000X0.475000X-0.250000X0.475000X0.250000X-0.475000X0.250000X-0.475000X-0.250000X0*%
%ADD20RoundRect,0.250000X-0.375000X-0.625000X0.375000X-0.625000X0.375000X0.625000X-0.375000X0.625000X0*%
%ADD21RoundRect,0.225000X0.225000X0.375000X-0.225000X0.375000X-0.225000X-0.375000X0.225000X-0.375000X0*%
%ADD22RoundRect,0.210000X0.490000X0.540000X-0.490000X0.540000X-0.490000X-0.540000X0.490000X-0.540000X0*%
%ADD23RoundRect,0.250000X-0.475000X0.250000X-0.475000X-0.250000X0.475000X-0.250000X0.475000X0.250000X0*%
%ADD24RoundRect,0.250000X0.375000X0.625000X-0.375000X0.625000X-0.375000X-0.625000X0.375000X-0.625000X0*%
%ADD25RoundRect,0.225000X0.425000X0.225000X-0.425000X0.225000X-0.425000X-0.225000X0.425000X-0.225000X0*%
%ADD26FreePoly0,180.000000*%
G04 APERTURE END LIST*
D10*
%TO.C,C1*%
X111600000Y-60675000D03*
X111600000Y-57725000D03*
%TD*%
D11*
%TO.C,C2*%
X114087500Y-53525000D03*
X114087500Y-56475000D03*
%TD*%
D12*
%TO.C,J3*%
X165730000Y-68150000D03*
X168270000Y-64850000D03*
%TD*%
D13*
%TO.C,FB1*%
X109312500Y-58387500D03*
X109312500Y-60262500D03*
%TD*%
D10*
%TO.C,C3*%
X111587500Y-52475000D03*
X111587500Y-49525000D03*
%TD*%
D14*
%TO.C,FB2*%
X107662500Y-53600000D03*
X109537500Y-53600000D03*
%TD*%
D15*
%TO.C,J5*%
X38500000Y-58600000D03*
X38500000Y-51000000D03*
X41040000Y-58600000D03*
X41040000Y-51000000D03*
X43580000Y-58600000D03*
X43580000Y-51000000D03*
%TD*%
D16*
%TO.C,D1*%
X107012500Y-57675000D03*
X107012500Y-60975000D03*
%TD*%
D17*
%TO.C,D3*%
X102750000Y-51000000D03*
X106050000Y-51000000D03*
%TD*%
D18*
%TO.C,R2*%
X116175000Y-55000000D03*
X118000000Y-55000000D03*
%TD*%
D14*
%TO.C,FB3*%
X107650000Y-51000000D03*
X109525000Y-51000000D03*
%TD*%
D19*
%TO.C,C4*%
X114100000Y-60150000D03*
X114100000Y-58250000D03*
%TD*%
D18*
%TO.C,R1*%
X116187500Y-59200000D03*
X118012500Y-59200000D03*
%TD*%
D20*
%TO.C,D5*%
X121700000Y-56600000D03*
X124500000Y-56600000D03*
%TD*%
%TO.C,D6*%
X121700000Y-51800000D03*
X124500000Y-51800000D03*
%TD*%
D12*
%TO.C,J4*%
X57730000Y-68150000D03*
X60270000Y-64850000D03*
%TD*%
D21*
%TO.C,D2*%
X105950000Y-53600000D03*
X102650000Y-53600000D03*
%TD*%
D10*
%TO.C,C7*%
X102212500Y-60800000D03*
X102212500Y-57850000D03*
%TD*%
D12*
%TO.C,J1*%
X111730000Y-68150000D03*
X114270000Y-64850000D03*
%TD*%
D22*
%TO.C,SW1*%
X88000000Y-53600000D03*
X90500000Y-53600000D03*
X93000000Y-53600000D03*
X88000000Y-49200000D03*
X90500000Y-49200000D03*
X93000000Y-49200000D03*
%TD*%
D18*
%TO.C,R3*%
X116175000Y-51000000D03*
X118000000Y-51000000D03*
%TD*%
D23*
%TO.C,C5*%
X111587500Y-54050000D03*
X111587500Y-55950000D03*
%TD*%
D19*
%TO.C,C6*%
X114087500Y-51950000D03*
X114087500Y-50050000D03*
%TD*%
D12*
%TO.C,J2*%
X219730000Y-68150000D03*
X222270000Y-64850000D03*
%TD*%
D24*
%TO.C,D4*%
X124500000Y-61400000D03*
X121700000Y-61400000D03*
%TD*%
D11*
%TO.C,C8*%
X104562500Y-57850000D03*
X104562500Y-60800000D03*
%TD*%
D15*
%TO.C,JP5*%
X55500000Y-58600000D03*
X55500000Y-51000000D03*
X58040000Y-58600000D03*
X58040000Y-51000000D03*
X60580000Y-58600000D03*
X60580000Y-51000000D03*
X63120000Y-58600000D03*
X63120000Y-51000000D03*
X65660000Y-58600000D03*
X65660000Y-51000000D03*
X68200000Y-58600000D03*
X68200000Y-51000000D03*
X70740000Y-58600000D03*
X70740000Y-51000000D03*
X73280000Y-58600000D03*
X73280000Y-51000000D03*
%TD*%
D25*
%TO.C,U1*%
X100100000Y-60825000D03*
D26*
X100012500Y-59325000D03*
D25*
X100100000Y-57825000D03*
%TD*%
M02*
