M48
; DRILL file {KiCad 9.0.0} date 2025-07-31T17:24:41+0200
; FORMAT={-:-/ absolute / inch / decimal}
; #@! TF.CreationDate,2025-07-31T17:24:41+02:00
; #@! TF.GenerationSoftware,Kicad,Pcbnew,9.0.0
; #@! TF.FileFunction,NonPlated,1,2,NPTH
FMAT,2
INCH
; #@! TA.AperFunction,NonPlated,NPTH,ComponentDrill
T1C0.0197
%
G90
G05
T1
X3.7874Y-1.9567
X3.7874Y-2.0276
X3.7874Y-2.5
X3.7874Y-2.5709
X3.7874Y-3.0433
X3.7874Y-3.1142
X3.7874Y-3.5866
X3.7874Y-3.6575
X3.7874Y-4.1299
X3.7874Y-4.2008
X3.7874Y-4.6732
X3.7874Y-4.7441
X3.7874Y-5.2165
X3.7874Y-5.2874
X3.7874Y-5.7598
X3.7874Y-5.8307
X3.7874Y-6.3031
X3.7874Y-6.374
X3.8189Y-1.9567
X3.8189Y-2.0276
X3.8189Y-2.5
X3.8189Y-2.5709
X3.8189Y-3.0433
X3.8189Y-3.1142
X3.8189Y-3.5866
X3.8189Y-3.6575
X3.8189Y-4.1299
X3.8189Y-4.2008
X3.8189Y-4.6732
X3.8189Y-4.7441
X3.8189Y-5.2165
X3.8189Y-5.2874
X3.8189Y-5.7598
X3.8189Y-5.8307
X3.8189Y-6.3031
X3.8189Y-6.374
X3.8504Y-1.9567
X3.8504Y-2.0276
X3.8504Y-2.5
X3.8504Y-2.5709
X3.8504Y-3.0433
X3.8504Y-3.1142
X3.8504Y-3.5866
X3.8504Y-3.6575
X3.8504Y-4.1299
X3.8504Y-4.2008
X3.8504Y-4.6732
X3.8504Y-4.7441
X3.8504Y-5.2165
X3.8504Y-5.2874
X3.8504Y-5.7598
X3.8504Y-5.8307
X3.8504Y-6.3031
X3.8504Y-6.374
X4.7756Y-1.685
X4.7756Y-1.7165
X4.7756Y-1.748
X4.7756Y-2.2283
X4.7756Y-2.2598
X4.7756Y-2.2913
X4.7756Y-2.7717
X4.7756Y-2.8031
X4.7756Y-2.8346
X4.7756Y-3.315
X4.7756Y-3.3465
X4.7756Y-3.378
X4.7756Y-3.8583
X4.7756Y-3.8898
X4.7756Y-3.9213
X4.7756Y-4.4016
X4.7756Y-4.4331
X4.7756Y-4.4646
X4.7756Y-4.9449
X4.7756Y-4.9764
X4.7756Y-5.0079
X4.7756Y-5.4882
X4.7756Y-5.5197
X4.7756Y-5.5512
X4.7756Y-6.0315
X4.7756Y-6.063
X4.7756Y-6.0945
X4.7756Y-6.5748
X4.7756Y-6.6063
X4.7756Y-6.6378
X4.8465Y-1.685
X4.8465Y-1.7165
X4.8465Y-1.748
X4.8465Y-2.2283
X4.8465Y-2.2598
X4.8465Y-2.2913
X4.8465Y-2.7717
X4.8465Y-2.8031
X4.8465Y-2.8346
X4.8465Y-3.315
X4.8465Y-3.3465
X4.8465Y-3.378
X4.8465Y-3.8583
X4.8465Y-3.8898
X4.8465Y-3.9213
X4.8465Y-4.4016
X4.8465Y-4.4331
X4.8465Y-4.4646
X4.8465Y-4.9449
X4.8465Y-4.9764
X4.8465Y-5.0079
X4.8465Y-5.4882
X4.8465Y-5.5197
X4.8465Y-5.5512
X4.8465Y-6.0315
X4.8465Y-6.063
X4.8465Y-6.0945
X4.8465Y-6.5748
X4.8465Y-6.6063
X4.8465Y-6.6378
X5.8898Y-1.9567
X5.8898Y-2.0276
X5.8898Y-2.5
X5.8898Y-2.5709
X5.8898Y-3.0433
X5.8898Y-3.1142
X5.8898Y-3.5866
X5.8898Y-3.6575
X5.8898Y-4.1299
X5.8898Y-4.2008
X5.8898Y-4.6732
X5.8898Y-4.7441
X5.8898Y-5.2165
X5.8898Y-5.2874
X5.8898Y-5.7598
X5.8898Y-5.8307
X5.8898Y-6.3031
X5.8898Y-6.374
X5.9213Y-1.9567
X5.9213Y-2.0276
X5.9213Y-2.5
X5.9213Y-2.5709
X5.9213Y-3.0433
X5.9213Y-3.1142
X5.9213Y-3.5866
X5.9213Y-3.6575
X5.9213Y-4.1299
X5.9213Y-4.2008
X5.9213Y-4.6732
X5.9213Y-4.7441
X5.9213Y-5.2165
X5.9213Y-5.2874
X5.9213Y-5.7598
X5.9213Y-5.8307
X5.9213Y-6.3031
X5.9213Y-6.374
X5.9528Y-1.9567
X5.9528Y-2.0276
X5.9528Y-2.5
X5.9528Y-2.5709
X5.9528Y-3.0433
X5.9528Y-3.1142
X5.9528Y-3.5866
X5.9528Y-3.6575
X5.9528Y-4.1299
X5.9528Y-4.2008
X5.9528Y-4.6732
X5.9528Y-4.7441
X5.9528Y-5.2165
X5.9528Y-5.2874
X5.9528Y-5.7598
X5.9528Y-5.8307
X5.9528Y-6.3031
X5.9528Y-6.374
X6.878Y-1.685
X6.878Y-1.7165
X6.878Y-1.748
X6.878Y-2.2283
X6.878Y-2.2598
X6.878Y-2.2913
X6.878Y-2.7717
X6.878Y-2.8031
X6.878Y-2.8346
X6.878Y-3.315
X6.878Y-3.3465
X6.878Y-3.378
X6.878Y-3.8583
X6.878Y-3.8898
X6.878Y-3.9213
X6.878Y-4.4016
X6.878Y-4.4331
X6.878Y-4.4646
X6.878Y-4.9449
X6.878Y-4.9764
X6.878Y-5.0079
X6.878Y-5.4882
X6.878Y-5.5197
X6.878Y-5.5512
X6.878Y-6.0315
X6.878Y-6.063
X6.878Y-6.0945
X6.878Y-6.5748
X6.878Y-6.6063
X6.878Y-6.6378
X6.9488Y-1.685
X6.9488Y-1.7165
X6.9488Y-1.748
X6.9488Y-2.2283
X6.9488Y-2.2598
X6.9488Y-2.2913
X6.9488Y-2.7717
X6.9488Y-2.8031
X6.9488Y-2.8346
X6.9488Y-3.315
X6.9488Y-3.3465
X6.9488Y-3.378
X6.9488Y-3.8583
X6.9488Y-3.8898
X6.9488Y-3.9213
X6.9488Y-4.4016
X6.9488Y-4.4331
X6.9488Y-4.4646
X6.9488Y-4.9449
X6.9488Y-4.9764
X6.9488Y-5.0079
X6.9488Y-5.4882
X6.9488Y-5.5197
X6.9488Y-5.5512
X6.9488Y-6.0315
X6.9488Y-6.063
X6.9488Y-6.0945
X6.9488Y-6.5748
X6.9488Y-6.6063
X6.9488Y-6.6378
X7.9921Y-1.9567
X7.9921Y-2.0276
X7.9921Y-2.5
X7.9921Y-2.5709
X7.9921Y-3.0433
X7.9921Y-3.1142
X7.9921Y-3.5866
X7.9921Y-3.6575
X7.9921Y-4.1299
X7.9921Y-4.2008
X7.9921Y-4.6732
X7.9921Y-4.7441
X7.9921Y-5.2165
X7.9921Y-5.2874
X7.9921Y-5.7598
X7.9921Y-5.8307
X7.9921Y-6.3031
X7.9921Y-6.374
X8.0236Y-1.9567
X8.0236Y-2.0276
X8.0236Y-2.5
X8.0236Y-2.5709
X8.0236Y-3.0433
X8.0236Y-3.1142
X8.0236Y-3.5866
X8.0236Y-3.6575
X8.0236Y-4.1299
X8.0236Y-4.2008
X8.0236Y-4.6732
X8.0236Y-4.7441
X8.0236Y-5.2165
X8.0236Y-5.2874
X8.0236Y-5.7598
X8.0236Y-5.8307
X8.0236Y-6.3031
X8.0236Y-6.374
X8.0551Y-1.9567
X8.0551Y-2.0276
X8.0551Y-2.5
X8.0551Y-2.5709
X8.0551Y-3.0433
X8.0551Y-3.1142
X8.0551Y-3.5866
X8.0551Y-3.6575
X8.0551Y-4.1299
X8.0551Y-4.2008
X8.0551Y-4.6732
X8.0551Y-4.7441
X8.0551Y-5.2165
X8.0551Y-5.2874
X8.0551Y-5.7598
X8.0551Y-5.8307
X8.0551Y-6.3031
X8.0551Y-6.374
M30
