%TF.GenerationSoftware,KiCad,Pcbnew,9.0.0*%
%TF.CreationDate,2025-07-31T17:24:47+02:00*%
%TF.ProjectId,Bridge,42726964-6765-42e6-9b69-6361645f7063,rev?*%
%TF.SameCoordinates,Original*%
%TF.FileFunction,Copper,L2,Bot*%
%TF.FilePolarity,Positive*%
%FSLAX46Y46*%
G04 Gerber Fmt 4.6, Leading zero omitted, Abs format (unit mm)*
G04 Created by KiCad (PCBNEW 9.0.0) date 2025-07-31 17:24:47*
%MOMM*%
%LPD*%
G01*
G04 APERTURE LIST*
G04 Aperture macros list*
%AMRoundRect*
0 Rectangle with rounded corners*
0 $1 Rounding radius*
0 $2 $3 $4 $5 $6 $7 $8 $9 X,Y pos of 4 corners*
0 Add a 4 corners polygon primitive as box body*
4,1,4,$2,$3,$4,$5,$6,$7,$8,$9,$2,$3,0*
0 Add four circle primitives for the rounded corners*
1,1,$1+$1,$2,$3*
1,1,$1+$1,$4,$5*
1,1,$1+$1,$6,$7*
1,1,$1+$1,$8,$9*
0 Add four rect primitives between the rounded corners*
20,1,$1+$1,$2,$3,$4,$5,0*
20,1,$1+$1,$4,$5,$6,$7,0*
20,1,$1+$1,$6,$7,$8,$9,0*
20,1,$1+$1,$8,$9,$2,$3,0*%
G04 Aperture macros list end*
%TA.AperFunction,ComponentPad*%
%ADD10C,1.700000*%
%TD*%
%TA.AperFunction,ComponentPad*%
%ADD11RoundRect,0.250000X0.600000X-0.600000X0.600000X0.600000X-0.600000X0.600000X-0.600000X-0.600000X0*%
%TD*%
%TA.AperFunction,ComponentPad*%
%ADD12R,1.700000X1.700000*%
%TD*%
%TA.AperFunction,ComponentPad*%
%ADD13O,1.700000X1.700000*%
%TD*%
%TA.AperFunction,Conductor*%
%ADD14C,2.000000*%
%TD*%
G04 APERTURE END LIST*
D10*
%TO.P,J4,6,Pin_6*%
%TO.N,DISTGND*%
X141440000Y-55860000D03*
%TO.P,J4,5,Pin_5*%
X141440000Y-58400000D03*
%TO.P,J4,4,Pin_4*%
%TO.N,DIST+12*%
X138900000Y-55860000D03*
%TO.P,J4,3,Pin_3*%
X138900000Y-58400000D03*
%TO.P,J4,2,Pin_2*%
%TO.N,DIST+5*%
X136360000Y-55860000D03*
D11*
%TO.P,J4,1,Pin_1*%
%TO.N,DIST-12*%
X136360000Y-58400000D03*
%TD*%
D10*
%TO.P,J1,6,Pin_6*%
%TO.N,DISTGND*%
X161440000Y-55860000D03*
%TO.P,J1,5,Pin_5*%
X161440000Y-58400000D03*
%TO.P,J1,4,Pin_4*%
%TO.N,DIST+12*%
X158900000Y-55860000D03*
%TO.P,J1,3,Pin_3*%
X158900000Y-58400000D03*
%TO.P,J1,2,Pin_2*%
%TO.N,DIST+5*%
X156360000Y-55860000D03*
D11*
%TO.P,J1,1,Pin_1*%
%TO.N,DIST-12*%
X156360000Y-58400000D03*
%TD*%
D10*
%TO.P,J1,6,Pin_6*%
%TO.N,DISTGND*%
X108040000Y-55860000D03*
%TO.P,J1,5,Pin_5*%
X108040000Y-58400000D03*
%TO.P,J1,4,Pin_4*%
%TO.N,DIST+12*%
X105500000Y-55860000D03*
%TO.P,J1,3,Pin_3*%
X105500000Y-58400000D03*
%TO.P,J1,2,Pin_2*%
%TO.N,DIST+5*%
X102960000Y-55860000D03*
D11*
%TO.P,J1,1,Pin_1*%
%TO.N,DIST-12*%
X102960000Y-58400000D03*
%TD*%
D10*
%TO.P,J4,6,Pin_6*%
%TO.N,DISTGND*%
X88040000Y-55860000D03*
%TO.P,J4,5,Pin_5*%
X88040000Y-58400000D03*
%TO.P,J4,4,Pin_4*%
%TO.N,DIST+12*%
X85500000Y-55860000D03*
%TO.P,J4,3,Pin_3*%
X85500000Y-58400000D03*
%TO.P,J4,2,Pin_2*%
%TO.N,DIST+5*%
X82960000Y-55860000D03*
D11*
%TO.P,J4,1,Pin_1*%
%TO.N,DIST-12*%
X82960000Y-58400000D03*
%TD*%
D10*
%TO.P,J1,6,Pin_6*%
%TO.N,DISTGND*%
X214840000Y-42060000D03*
%TO.P,J1,5,Pin_5*%
X214840000Y-44600000D03*
%TO.P,J1,4,Pin_4*%
%TO.N,DIST+12*%
X212300000Y-42060000D03*
%TO.P,J1,3,Pin_3*%
X212300000Y-44600000D03*
%TO.P,J1,2,Pin_2*%
%TO.N,DIST+5*%
X209760000Y-42060000D03*
D11*
%TO.P,J1,1,Pin_1*%
%TO.N,DIST-12*%
X209760000Y-44600000D03*
%TD*%
D10*
%TO.P,J1,6,Pin_6*%
%TO.N,DISTGND*%
X214840000Y-55860000D03*
%TO.P,J1,5,Pin_5*%
X214840000Y-58400000D03*
%TO.P,J1,4,Pin_4*%
%TO.N,DIST+12*%
X212300000Y-55860000D03*
%TO.P,J1,3,Pin_3*%
X212300000Y-58400000D03*
%TO.P,J1,2,Pin_2*%
%TO.N,DIST+5*%
X209760000Y-55860000D03*
D11*
%TO.P,J1,1,Pin_1*%
%TO.N,DIST-12*%
X209760000Y-58400000D03*
%TD*%
D10*
%TO.P,J4,6,Pin_6*%
%TO.N,DISTGND*%
X194840000Y-55860000D03*
%TO.P,J4,5,Pin_5*%
X194840000Y-58400000D03*
%TO.P,J4,4,Pin_4*%
%TO.N,DIST+12*%
X192300000Y-55860000D03*
%TO.P,J4,3,Pin_3*%
X192300000Y-58400000D03*
%TO.P,J4,2,Pin_2*%
%TO.N,DIST+5*%
X189760000Y-55860000D03*
D11*
%TO.P,J4,1,Pin_1*%
%TO.N,DIST-12*%
X189760000Y-58400000D03*
%TD*%
D10*
%TO.P,J4,6,Pin_6*%
%TO.N,DISTGND*%
X194840000Y-42060000D03*
%TO.P,J4,5,Pin_5*%
X194840000Y-44600000D03*
%TO.P,J4,4,Pin_4*%
%TO.N,DIST+12*%
X192300000Y-42060000D03*
%TO.P,J4,3,Pin_3*%
X192300000Y-44600000D03*
%TO.P,J4,2,Pin_2*%
%TO.N,DIST+5*%
X189760000Y-42060000D03*
D11*
%TO.P,J4,1,Pin_1*%
%TO.N,DIST-12*%
X189760000Y-44600000D03*
%TD*%
D10*
%TO.P,J4,6,Pin_6*%
%TO.N,DISTGND*%
X194840000Y-69660000D03*
%TO.P,J4,5,Pin_5*%
X194840000Y-72200000D03*
%TO.P,J4,4,Pin_4*%
%TO.N,DIST+12*%
X192300000Y-69660000D03*
%TO.P,J4,3,Pin_3*%
X192300000Y-72200000D03*
%TO.P,J4,2,Pin_2*%
%TO.N,DIST+5*%
X189760000Y-69660000D03*
D11*
%TO.P,J4,1,Pin_1*%
%TO.N,DIST-12*%
X189760000Y-72200000D03*
%TD*%
D10*
%TO.P,J1,6,Pin_6*%
%TO.N,DISTGND*%
X214840000Y-69660000D03*
%TO.P,J1,5,Pin_5*%
X214840000Y-72200000D03*
%TO.P,J1,4,Pin_4*%
%TO.N,DIST+12*%
X212300000Y-69660000D03*
%TO.P,J1,3,Pin_3*%
X212300000Y-72200000D03*
%TO.P,J1,2,Pin_2*%
%TO.N,DIST+5*%
X209760000Y-69660000D03*
D11*
%TO.P,J1,1,Pin_1*%
%TO.N,DIST-12*%
X209760000Y-72200000D03*
%TD*%
D10*
%TO.P,J1,6,Pin_6*%
%TO.N,DISTGND*%
X214840000Y-83460000D03*
%TO.P,J1,5,Pin_5*%
X214840000Y-86000000D03*
%TO.P,J1,4,Pin_4*%
%TO.N,DIST+12*%
X212300000Y-83460000D03*
%TO.P,J1,3,Pin_3*%
X212300000Y-86000000D03*
%TO.P,J1,2,Pin_2*%
%TO.N,DIST+5*%
X209760000Y-83460000D03*
D11*
%TO.P,J1,1,Pin_1*%
%TO.N,DIST-12*%
X209760000Y-86000000D03*
%TD*%
D10*
%TO.P,J4,6,Pin_6*%
%TO.N,DISTGND*%
X194840000Y-83460000D03*
%TO.P,J4,5,Pin_5*%
X194840000Y-86000000D03*
%TO.P,J4,4,Pin_4*%
%TO.N,DIST+12*%
X192300000Y-83460000D03*
%TO.P,J4,3,Pin_3*%
X192300000Y-86000000D03*
%TO.P,J4,2,Pin_2*%
%TO.N,DIST+5*%
X189760000Y-83460000D03*
D11*
%TO.P,J4,1,Pin_1*%
%TO.N,DIST-12*%
X189760000Y-86000000D03*
%TD*%
D10*
%TO.P,J4,6,Pin_6*%
%TO.N,DISTGND*%
X194840000Y-97260000D03*
%TO.P,J4,5,Pin_5*%
X194840000Y-99800000D03*
%TO.P,J4,4,Pin_4*%
%TO.N,DIST+12*%
X192300000Y-97260000D03*
%TO.P,J4,3,Pin_3*%
X192300000Y-99800000D03*
%TO.P,J4,2,Pin_2*%
%TO.N,DIST+5*%
X189760000Y-97260000D03*
D11*
%TO.P,J4,1,Pin_1*%
%TO.N,DIST-12*%
X189760000Y-99800000D03*
%TD*%
D10*
%TO.P,J1,6,Pin_6*%
%TO.N,DISTGND*%
X214840000Y-97260000D03*
%TO.P,J1,5,Pin_5*%
X214840000Y-99800000D03*
%TO.P,J1,4,Pin_4*%
%TO.N,DIST+12*%
X212300000Y-97260000D03*
%TO.P,J1,3,Pin_3*%
X212300000Y-99800000D03*
%TO.P,J1,2,Pin_2*%
%TO.N,DIST+5*%
X209760000Y-97260000D03*
D11*
%TO.P,J1,1,Pin_1*%
%TO.N,DIST-12*%
X209760000Y-99800000D03*
%TD*%
D10*
%TO.P,J1,6,Pin_6*%
%TO.N,DISTGND*%
X214840000Y-111060000D03*
%TO.P,J1,5,Pin_5*%
X214840000Y-113600000D03*
%TO.P,J1,4,Pin_4*%
%TO.N,DIST+12*%
X212300000Y-111060000D03*
%TO.P,J1,3,Pin_3*%
X212300000Y-113600000D03*
%TO.P,J1,2,Pin_2*%
%TO.N,DIST+5*%
X209760000Y-111060000D03*
D11*
%TO.P,J1,1,Pin_1*%
%TO.N,DIST-12*%
X209760000Y-113600000D03*
%TD*%
D10*
%TO.P,J4,6,Pin_6*%
%TO.N,DISTGND*%
X194840000Y-111060000D03*
%TO.P,J4,5,Pin_5*%
X194840000Y-113600000D03*
%TO.P,J4,4,Pin_4*%
%TO.N,DIST+12*%
X192300000Y-111060000D03*
%TO.P,J4,3,Pin_3*%
X192300000Y-113600000D03*
%TO.P,J4,2,Pin_2*%
%TO.N,DIST+5*%
X189760000Y-111060000D03*
D11*
%TO.P,J4,1,Pin_1*%
%TO.N,DIST-12*%
X189760000Y-113600000D03*
%TD*%
D10*
%TO.P,J1,6,Pin_6*%
%TO.N,DISTGND*%
X214840000Y-124860000D03*
%TO.P,J1,5,Pin_5*%
X214840000Y-127400000D03*
%TO.P,J1,4,Pin_4*%
%TO.N,DIST+12*%
X212300000Y-124860000D03*
%TO.P,J1,3,Pin_3*%
X212300000Y-127400000D03*
%TO.P,J1,2,Pin_2*%
%TO.N,DIST+5*%
X209760000Y-124860000D03*
D11*
%TO.P,J1,1,Pin_1*%
%TO.N,DIST-12*%
X209760000Y-127400000D03*
%TD*%
D10*
%TO.P,J4,6,Pin_6*%
%TO.N,DISTGND*%
X194840000Y-124860000D03*
%TO.P,J4,5,Pin_5*%
X194840000Y-127400000D03*
%TO.P,J4,4,Pin_4*%
%TO.N,DIST+12*%
X192300000Y-124860000D03*
%TO.P,J4,3,Pin_3*%
X192300000Y-127400000D03*
%TO.P,J4,2,Pin_2*%
%TO.N,DIST+5*%
X189760000Y-124860000D03*
D11*
%TO.P,J4,1,Pin_1*%
%TO.N,DIST-12*%
X189760000Y-127400000D03*
%TD*%
D10*
%TO.P,J4,6,Pin_6*%
%TO.N,DISTGND*%
X194840000Y-138660000D03*
%TO.P,J4,5,Pin_5*%
X194840000Y-141200000D03*
%TO.P,J4,4,Pin_4*%
%TO.N,DIST+12*%
X192300000Y-138660000D03*
%TO.P,J4,3,Pin_3*%
X192300000Y-141200000D03*
%TO.P,J4,2,Pin_2*%
%TO.N,DIST+5*%
X189760000Y-138660000D03*
D11*
%TO.P,J4,1,Pin_1*%
%TO.N,DIST-12*%
X189760000Y-141200000D03*
%TD*%
D10*
%TO.P,J1,6,Pin_6*%
%TO.N,DISTGND*%
X214840000Y-138660000D03*
%TO.P,J1,5,Pin_5*%
X214840000Y-141200000D03*
%TO.P,J1,4,Pin_4*%
%TO.N,DIST+12*%
X212300000Y-138660000D03*
%TO.P,J1,3,Pin_3*%
X212300000Y-141200000D03*
%TO.P,J1,2,Pin_2*%
%TO.N,DIST+5*%
X209760000Y-138660000D03*
D11*
%TO.P,J1,1,Pin_1*%
%TO.N,DIST-12*%
X209760000Y-141200000D03*
%TD*%
D10*
%TO.P,J1,6,Pin_6*%
%TO.N,DISTGND*%
X214840000Y-152460000D03*
%TO.P,J1,5,Pin_5*%
X214840000Y-155000000D03*
%TO.P,J1,4,Pin_4*%
%TO.N,DIST+12*%
X212300000Y-152460000D03*
%TO.P,J1,3,Pin_3*%
X212300000Y-155000000D03*
%TO.P,J1,2,Pin_2*%
%TO.N,DIST+5*%
X209760000Y-152460000D03*
D11*
%TO.P,J1,1,Pin_1*%
%TO.N,DIST-12*%
X209760000Y-155000000D03*
%TD*%
D10*
%TO.P,J4,6,Pin_6*%
%TO.N,DISTGND*%
X194840000Y-152460000D03*
%TO.P,J4,5,Pin_5*%
X194840000Y-155000000D03*
%TO.P,J4,4,Pin_4*%
%TO.N,DIST+12*%
X192300000Y-152460000D03*
%TO.P,J4,3,Pin_3*%
X192300000Y-155000000D03*
%TO.P,J4,2,Pin_2*%
%TO.N,DIST+5*%
X189760000Y-152460000D03*
D11*
%TO.P,J4,1,Pin_1*%
%TO.N,DIST-12*%
X189760000Y-155000000D03*
%TD*%
D10*
%TO.P,J4,6,Pin_6*%
%TO.N,DISTGND*%
X194840000Y-166260000D03*
%TO.P,J4,5,Pin_5*%
X194840000Y-168800000D03*
%TO.P,J4,4,Pin_4*%
%TO.N,DIST+12*%
X192300000Y-166260000D03*
%TO.P,J4,3,Pin_3*%
X192300000Y-168800000D03*
%TO.P,J4,2,Pin_2*%
%TO.N,DIST+5*%
X189760000Y-166260000D03*
D11*
%TO.P,J4,1,Pin_1*%
%TO.N,DIST-12*%
X189760000Y-168800000D03*
%TD*%
D10*
%TO.P,J1,6,Pin_6*%
%TO.N,DISTGND*%
X214840000Y-166260000D03*
%TO.P,J1,5,Pin_5*%
X214840000Y-168800000D03*
%TO.P,J1,4,Pin_4*%
%TO.N,DIST+12*%
X212300000Y-166260000D03*
%TO.P,J1,3,Pin_3*%
X212300000Y-168800000D03*
%TO.P,J1,2,Pin_2*%
%TO.N,DIST+5*%
X209760000Y-166260000D03*
D11*
%TO.P,J1,1,Pin_1*%
%TO.N,DIST-12*%
X209760000Y-168800000D03*
%TD*%
D10*
%TO.P,J1,6,Pin_6*%
%TO.N,DISTGND*%
X161440000Y-166260000D03*
%TO.P,J1,5,Pin_5*%
X161440000Y-168800000D03*
%TO.P,J1,4,Pin_4*%
%TO.N,DIST+12*%
X158900000Y-166260000D03*
%TO.P,J1,3,Pin_3*%
X158900000Y-168800000D03*
%TO.P,J1,2,Pin_2*%
%TO.N,DIST+5*%
X156360000Y-166260000D03*
D11*
%TO.P,J1,1,Pin_1*%
%TO.N,DIST-12*%
X156360000Y-168800000D03*
%TD*%
D10*
%TO.P,J4,6,Pin_6*%
%TO.N,DISTGND*%
X141440000Y-166260000D03*
%TO.P,J4,5,Pin_5*%
X141440000Y-168800000D03*
%TO.P,J4,4,Pin_4*%
%TO.N,DIST+12*%
X138900000Y-166260000D03*
%TO.P,J4,3,Pin_3*%
X138900000Y-168800000D03*
%TO.P,J4,2,Pin_2*%
%TO.N,DIST+5*%
X136360000Y-166260000D03*
D11*
%TO.P,J4,1,Pin_1*%
%TO.N,DIST-12*%
X136360000Y-168800000D03*
%TD*%
D10*
%TO.P,J4,6,Pin_6*%
%TO.N,DISTGND*%
X141440000Y-152460000D03*
%TO.P,J4,5,Pin_5*%
X141440000Y-155000000D03*
%TO.P,J4,4,Pin_4*%
%TO.N,DIST+12*%
X138900000Y-152460000D03*
%TO.P,J4,3,Pin_3*%
X138900000Y-155000000D03*
%TO.P,J4,2,Pin_2*%
%TO.N,DIST+5*%
X136360000Y-152460000D03*
D11*
%TO.P,J4,1,Pin_1*%
%TO.N,DIST-12*%
X136360000Y-155000000D03*
%TD*%
D10*
%TO.P,J1,6,Pin_6*%
%TO.N,DISTGND*%
X161440000Y-152460000D03*
%TO.P,J1,5,Pin_5*%
X161440000Y-155000000D03*
%TO.P,J1,4,Pin_4*%
%TO.N,DIST+12*%
X158900000Y-152460000D03*
%TO.P,J1,3,Pin_3*%
X158900000Y-155000000D03*
%TO.P,J1,2,Pin_2*%
%TO.N,DIST+5*%
X156360000Y-152460000D03*
D11*
%TO.P,J1,1,Pin_1*%
%TO.N,DIST-12*%
X156360000Y-155000000D03*
%TD*%
D10*
%TO.P,J1,6,Pin_6*%
%TO.N,DISTGND*%
X161440000Y-138660000D03*
%TO.P,J1,5,Pin_5*%
X161440000Y-141200000D03*
%TO.P,J1,4,Pin_4*%
%TO.N,DIST+12*%
X158900000Y-138660000D03*
%TO.P,J1,3,Pin_3*%
X158900000Y-141200000D03*
%TO.P,J1,2,Pin_2*%
%TO.N,DIST+5*%
X156360000Y-138660000D03*
D11*
%TO.P,J1,1,Pin_1*%
%TO.N,DIST-12*%
X156360000Y-141200000D03*
%TD*%
D10*
%TO.P,J4,6,Pin_6*%
%TO.N,DISTGND*%
X141440000Y-138660000D03*
%TO.P,J4,5,Pin_5*%
X141440000Y-141200000D03*
%TO.P,J4,4,Pin_4*%
%TO.N,DIST+12*%
X138900000Y-138660000D03*
%TO.P,J4,3,Pin_3*%
X138900000Y-141200000D03*
%TO.P,J4,2,Pin_2*%
%TO.N,DIST+5*%
X136360000Y-138660000D03*
D11*
%TO.P,J4,1,Pin_1*%
%TO.N,DIST-12*%
X136360000Y-141200000D03*
%TD*%
D10*
%TO.P,J4,6,Pin_6*%
%TO.N,DISTGND*%
X141440000Y-124860000D03*
%TO.P,J4,5,Pin_5*%
X141440000Y-127400000D03*
%TO.P,J4,4,Pin_4*%
%TO.N,DIST+12*%
X138900000Y-124860000D03*
%TO.P,J4,3,Pin_3*%
X138900000Y-127400000D03*
%TO.P,J4,2,Pin_2*%
%TO.N,DIST+5*%
X136360000Y-124860000D03*
D11*
%TO.P,J4,1,Pin_1*%
%TO.N,DIST-12*%
X136360000Y-127400000D03*
%TD*%
D10*
%TO.P,J1,6,Pin_6*%
%TO.N,DISTGND*%
X161440000Y-124860000D03*
%TO.P,J1,5,Pin_5*%
X161440000Y-127400000D03*
%TO.P,J1,4,Pin_4*%
%TO.N,DIST+12*%
X158900000Y-124860000D03*
%TO.P,J1,3,Pin_3*%
X158900000Y-127400000D03*
%TO.P,J1,2,Pin_2*%
%TO.N,DIST+5*%
X156360000Y-124860000D03*
D11*
%TO.P,J1,1,Pin_1*%
%TO.N,DIST-12*%
X156360000Y-127400000D03*
%TD*%
D10*
%TO.P,J1,6,Pin_6*%
%TO.N,DISTGND*%
X161440000Y-111060000D03*
%TO.P,J1,5,Pin_5*%
X161440000Y-113600000D03*
%TO.P,J1,4,Pin_4*%
%TO.N,DIST+12*%
X158900000Y-111060000D03*
%TO.P,J1,3,Pin_3*%
X158900000Y-113600000D03*
%TO.P,J1,2,Pin_2*%
%TO.N,DIST+5*%
X156360000Y-111060000D03*
D11*
%TO.P,J1,1,Pin_1*%
%TO.N,DIST-12*%
X156360000Y-113600000D03*
%TD*%
D10*
%TO.P,J4,6,Pin_6*%
%TO.N,DISTGND*%
X141440000Y-111060000D03*
%TO.P,J4,5,Pin_5*%
X141440000Y-113600000D03*
%TO.P,J4,4,Pin_4*%
%TO.N,DIST+12*%
X138900000Y-111060000D03*
%TO.P,J4,3,Pin_3*%
X138900000Y-113600000D03*
%TO.P,J4,2,Pin_2*%
%TO.N,DIST+5*%
X136360000Y-111060000D03*
D11*
%TO.P,J4,1,Pin_1*%
%TO.N,DIST-12*%
X136360000Y-113600000D03*
%TD*%
D10*
%TO.P,J1,6,Pin_6*%
%TO.N,DISTGND*%
X108040000Y-166260000D03*
%TO.P,J1,5,Pin_5*%
X108040000Y-168800000D03*
%TO.P,J1,4,Pin_4*%
%TO.N,DIST+12*%
X105500000Y-166260000D03*
%TO.P,J1,3,Pin_3*%
X105500000Y-168800000D03*
%TO.P,J1,2,Pin_2*%
%TO.N,DIST+5*%
X102960000Y-166260000D03*
D11*
%TO.P,J1,1,Pin_1*%
%TO.N,DIST-12*%
X102960000Y-168800000D03*
%TD*%
D10*
%TO.P,J4,6,Pin_6*%
%TO.N,DISTGND*%
X88040000Y-166260000D03*
%TO.P,J4,5,Pin_5*%
X88040000Y-168800000D03*
%TO.P,J4,4,Pin_4*%
%TO.N,DIST+12*%
X85500000Y-166260000D03*
%TO.P,J4,3,Pin_3*%
X85500000Y-168800000D03*
%TO.P,J4,2,Pin_2*%
%TO.N,DIST+5*%
X82960000Y-166260000D03*
D11*
%TO.P,J4,1,Pin_1*%
%TO.N,DIST-12*%
X82960000Y-168800000D03*
%TD*%
D10*
%TO.P,J4,6,Pin_6*%
%TO.N,DISTGND*%
X88040000Y-152460000D03*
%TO.P,J4,5,Pin_5*%
X88040000Y-155000000D03*
%TO.P,J4,4,Pin_4*%
%TO.N,DIST+12*%
X85500000Y-152460000D03*
%TO.P,J4,3,Pin_3*%
X85500000Y-155000000D03*
%TO.P,J4,2,Pin_2*%
%TO.N,DIST+5*%
X82960000Y-152460000D03*
D11*
%TO.P,J4,1,Pin_1*%
%TO.N,DIST-12*%
X82960000Y-155000000D03*
%TD*%
D10*
%TO.P,J1,6,Pin_6*%
%TO.N,DISTGND*%
X108040000Y-152460000D03*
%TO.P,J1,5,Pin_5*%
X108040000Y-155000000D03*
%TO.P,J1,4,Pin_4*%
%TO.N,DIST+12*%
X105500000Y-152460000D03*
%TO.P,J1,3,Pin_3*%
X105500000Y-155000000D03*
%TO.P,J1,2,Pin_2*%
%TO.N,DIST+5*%
X102960000Y-152460000D03*
D11*
%TO.P,J1,1,Pin_1*%
%TO.N,DIST-12*%
X102960000Y-155000000D03*
%TD*%
D10*
%TO.P,J1,6,Pin_6*%
%TO.N,DISTGND*%
X108040000Y-138660000D03*
%TO.P,J1,5,Pin_5*%
X108040000Y-141200000D03*
%TO.P,J1,4,Pin_4*%
%TO.N,DIST+12*%
X105500000Y-138660000D03*
%TO.P,J1,3,Pin_3*%
X105500000Y-141200000D03*
%TO.P,J1,2,Pin_2*%
%TO.N,DIST+5*%
X102960000Y-138660000D03*
D11*
%TO.P,J1,1,Pin_1*%
%TO.N,DIST-12*%
X102960000Y-141200000D03*
%TD*%
D10*
%TO.P,J4,6,Pin_6*%
%TO.N,DISTGND*%
X88040000Y-138660000D03*
%TO.P,J4,5,Pin_5*%
X88040000Y-141200000D03*
%TO.P,J4,4,Pin_4*%
%TO.N,DIST+12*%
X85500000Y-138660000D03*
%TO.P,J4,3,Pin_3*%
X85500000Y-141200000D03*
%TO.P,J4,2,Pin_2*%
%TO.N,DIST+5*%
X82960000Y-138660000D03*
D11*
%TO.P,J4,1,Pin_1*%
%TO.N,DIST-12*%
X82960000Y-141200000D03*
%TD*%
D10*
%TO.P,J4,6,Pin_6*%
%TO.N,DISTGND*%
X88040000Y-124860000D03*
%TO.P,J4,5,Pin_5*%
X88040000Y-127400000D03*
%TO.P,J4,4,Pin_4*%
%TO.N,DIST+12*%
X85500000Y-124860000D03*
%TO.P,J4,3,Pin_3*%
X85500000Y-127400000D03*
%TO.P,J4,2,Pin_2*%
%TO.N,DIST+5*%
X82960000Y-124860000D03*
D11*
%TO.P,J4,1,Pin_1*%
%TO.N,DIST-12*%
X82960000Y-127400000D03*
%TD*%
D10*
%TO.P,J1,6,Pin_6*%
%TO.N,DISTGND*%
X108040000Y-124860000D03*
%TO.P,J1,5,Pin_5*%
X108040000Y-127400000D03*
%TO.P,J1,4,Pin_4*%
%TO.N,DIST+12*%
X105500000Y-124860000D03*
%TO.P,J1,3,Pin_3*%
X105500000Y-127400000D03*
%TO.P,J1,2,Pin_2*%
%TO.N,DIST+5*%
X102960000Y-124860000D03*
D11*
%TO.P,J1,1,Pin_1*%
%TO.N,DIST-12*%
X102960000Y-127400000D03*
%TD*%
D10*
%TO.P,J1,6,Pin_6*%
%TO.N,DISTGND*%
X108040000Y-69660000D03*
%TO.P,J1,5,Pin_5*%
X108040000Y-72200000D03*
%TO.P,J1,4,Pin_4*%
%TO.N,DIST+12*%
X105500000Y-69660000D03*
%TO.P,J1,3,Pin_3*%
X105500000Y-72200000D03*
%TO.P,J1,2,Pin_2*%
%TO.N,DIST+5*%
X102960000Y-69660000D03*
D11*
%TO.P,J1,1,Pin_1*%
%TO.N,DIST-12*%
X102960000Y-72200000D03*
%TD*%
D10*
%TO.P,J1,6,Pin_6*%
%TO.N,DISTGND*%
X108040000Y-83460000D03*
%TO.P,J1,5,Pin_5*%
X108040000Y-86000000D03*
%TO.P,J1,4,Pin_4*%
%TO.N,DIST+12*%
X105500000Y-83460000D03*
%TO.P,J1,3,Pin_3*%
X105500000Y-86000000D03*
%TO.P,J1,2,Pin_2*%
%TO.N,DIST+5*%
X102960000Y-83460000D03*
D11*
%TO.P,J1,1,Pin_1*%
%TO.N,DIST-12*%
X102960000Y-86000000D03*
%TD*%
D10*
%TO.P,J1,6,Pin_6*%
%TO.N,DISTGND*%
X108040000Y-97260000D03*
%TO.P,J1,5,Pin_5*%
X108040000Y-99800000D03*
%TO.P,J1,4,Pin_4*%
%TO.N,DIST+12*%
X105500000Y-97260000D03*
%TO.P,J1,3,Pin_3*%
X105500000Y-99800000D03*
%TO.P,J1,2,Pin_2*%
%TO.N,DIST+5*%
X102960000Y-97260000D03*
D11*
%TO.P,J1,1,Pin_1*%
%TO.N,DIST-12*%
X102960000Y-99800000D03*
%TD*%
D10*
%TO.P,J1,6,Pin_6*%
%TO.N,DISTGND*%
X108040000Y-111060000D03*
%TO.P,J1,5,Pin_5*%
X108040000Y-113600000D03*
%TO.P,J1,4,Pin_4*%
%TO.N,DIST+12*%
X105500000Y-111060000D03*
%TO.P,J1,3,Pin_3*%
X105500000Y-113600000D03*
%TO.P,J1,2,Pin_2*%
%TO.N,DIST+5*%
X102960000Y-111060000D03*
D11*
%TO.P,J1,1,Pin_1*%
%TO.N,DIST-12*%
X102960000Y-113600000D03*
%TD*%
D10*
%TO.P,J4,6,Pin_6*%
%TO.N,DISTGND*%
X88040000Y-111060000D03*
%TO.P,J4,5,Pin_5*%
X88040000Y-113600000D03*
%TO.P,J4,4,Pin_4*%
%TO.N,DIST+12*%
X85500000Y-111060000D03*
%TO.P,J4,3,Pin_3*%
X85500000Y-113600000D03*
%TO.P,J4,2,Pin_2*%
%TO.N,DIST+5*%
X82960000Y-111060000D03*
D11*
%TO.P,J4,1,Pin_1*%
%TO.N,DIST-12*%
X82960000Y-113600000D03*
%TD*%
D10*
%TO.P,J4,6,Pin_6*%
%TO.N,DISTGND*%
X88040000Y-97260000D03*
%TO.P,J4,5,Pin_5*%
X88040000Y-99800000D03*
%TO.P,J4,4,Pin_4*%
%TO.N,DIST+12*%
X85500000Y-97260000D03*
%TO.P,J4,3,Pin_3*%
X85500000Y-99800000D03*
%TO.P,J4,2,Pin_2*%
%TO.N,DIST+5*%
X82960000Y-97260000D03*
D11*
%TO.P,J4,1,Pin_1*%
%TO.N,DIST-12*%
X82960000Y-99800000D03*
%TD*%
D10*
%TO.P,J4,6,Pin_6*%
%TO.N,DISTGND*%
X88040000Y-83460000D03*
%TO.P,J4,5,Pin_5*%
X88040000Y-86000000D03*
%TO.P,J4,4,Pin_4*%
%TO.N,DIST+12*%
X85500000Y-83460000D03*
%TO.P,J4,3,Pin_3*%
X85500000Y-86000000D03*
%TO.P,J4,2,Pin_2*%
%TO.N,DIST+5*%
X82960000Y-83460000D03*
D11*
%TO.P,J4,1,Pin_1*%
%TO.N,DIST-12*%
X82960000Y-86000000D03*
%TD*%
D10*
%TO.P,J4,6,Pin_6*%
%TO.N,DISTGND*%
X88040000Y-69660000D03*
%TO.P,J4,5,Pin_5*%
X88040000Y-72200000D03*
%TO.P,J4,4,Pin_4*%
%TO.N,DIST+12*%
X85500000Y-69660000D03*
%TO.P,J4,3,Pin_3*%
X85500000Y-72200000D03*
%TO.P,J4,2,Pin_2*%
%TO.N,DIST+5*%
X82960000Y-69660000D03*
D11*
%TO.P,J4,1,Pin_1*%
%TO.N,DIST-12*%
X82960000Y-72200000D03*
%TD*%
D10*
%TO.P,J4,6,Pin_6*%
%TO.N,DISTGND*%
X88040000Y-42060000D03*
%TO.P,J4,5,Pin_5*%
X88040000Y-44600000D03*
%TO.P,J4,4,Pin_4*%
%TO.N,DIST+12*%
X85500000Y-42060000D03*
%TO.P,J4,3,Pin_3*%
X85500000Y-44600000D03*
%TO.P,J4,2,Pin_2*%
%TO.N,DIST+5*%
X82960000Y-42060000D03*
D11*
%TO.P,J4,1,Pin_1*%
%TO.N,DIST-12*%
X82960000Y-44600000D03*
%TD*%
D10*
%TO.P,J1,6,Pin_6*%
%TO.N,DISTGND*%
X108040000Y-42060000D03*
%TO.P,J1,5,Pin_5*%
X108040000Y-44600000D03*
%TO.P,J1,4,Pin_4*%
%TO.N,DIST+12*%
X105500000Y-42060000D03*
%TO.P,J1,3,Pin_3*%
X105500000Y-44600000D03*
%TO.P,J1,2,Pin_2*%
%TO.N,DIST+5*%
X102960000Y-42060000D03*
D11*
%TO.P,J1,1,Pin_1*%
%TO.N,DIST-12*%
X102960000Y-44600000D03*
%TD*%
D10*
%TO.P,J4,6,Pin_6*%
%TO.N,DISTGND*%
X141440000Y-42060000D03*
%TO.P,J4,5,Pin_5*%
X141440000Y-44600000D03*
%TO.P,J4,4,Pin_4*%
%TO.N,DIST+12*%
X138900000Y-42060000D03*
%TO.P,J4,3,Pin_3*%
X138900000Y-44600000D03*
%TO.P,J4,2,Pin_2*%
%TO.N,DIST+5*%
X136360000Y-42060000D03*
D11*
%TO.P,J4,1,Pin_1*%
%TO.N,DIST-12*%
X136360000Y-44600000D03*
%TD*%
D10*
%TO.P,J1,6,Pin_6*%
%TO.N,DISTGND*%
X161440000Y-42060000D03*
%TO.P,J1,5,Pin_5*%
X161440000Y-44600000D03*
%TO.P,J1,4,Pin_4*%
%TO.N,DIST+12*%
X158900000Y-42060000D03*
%TO.P,J1,3,Pin_3*%
X158900000Y-44600000D03*
%TO.P,J1,2,Pin_2*%
%TO.N,DIST+5*%
X156360000Y-42060000D03*
D11*
%TO.P,J1,1,Pin_1*%
%TO.N,DIST-12*%
X156360000Y-44600000D03*
%TD*%
D10*
%TO.P,J1,6,Pin_6*%
%TO.N,DISTGND*%
X161440000Y-69660000D03*
%TO.P,J1,5,Pin_5*%
X161440000Y-72200000D03*
%TO.P,J1,4,Pin_4*%
%TO.N,DIST+12*%
X158900000Y-69660000D03*
%TO.P,J1,3,Pin_3*%
X158900000Y-72200000D03*
%TO.P,J1,2,Pin_2*%
%TO.N,DIST+5*%
X156360000Y-69660000D03*
D11*
%TO.P,J1,1,Pin_1*%
%TO.N,DIST-12*%
X156360000Y-72200000D03*
%TD*%
D10*
%TO.P,J4,6,Pin_6*%
%TO.N,DISTGND*%
X141440000Y-69660000D03*
%TO.P,J4,5,Pin_5*%
X141440000Y-72200000D03*
%TO.P,J4,4,Pin_4*%
%TO.N,DIST+12*%
X138900000Y-69660000D03*
%TO.P,J4,3,Pin_3*%
X138900000Y-72200000D03*
%TO.P,J4,2,Pin_2*%
%TO.N,DIST+5*%
X136360000Y-69660000D03*
D11*
%TO.P,J4,1,Pin_1*%
%TO.N,DIST-12*%
X136360000Y-72200000D03*
%TD*%
D10*
%TO.P,J4,6,Pin_6*%
%TO.N,DISTGND*%
X141440000Y-83460000D03*
%TO.P,J4,5,Pin_5*%
X141440000Y-86000000D03*
%TO.P,J4,4,Pin_4*%
%TO.N,DIST+12*%
X138900000Y-83460000D03*
%TO.P,J4,3,Pin_3*%
X138900000Y-86000000D03*
%TO.P,J4,2,Pin_2*%
%TO.N,DIST+5*%
X136360000Y-83460000D03*
D11*
%TO.P,J4,1,Pin_1*%
%TO.N,DIST-12*%
X136360000Y-86000000D03*
%TD*%
D10*
%TO.P,J1,6,Pin_6*%
%TO.N,DISTGND*%
X161440000Y-83460000D03*
%TO.P,J1,5,Pin_5*%
X161440000Y-86000000D03*
%TO.P,J1,4,Pin_4*%
%TO.N,DIST+12*%
X158900000Y-83460000D03*
%TO.P,J1,3,Pin_3*%
X158900000Y-86000000D03*
%TO.P,J1,2,Pin_2*%
%TO.N,DIST+5*%
X156360000Y-83460000D03*
D11*
%TO.P,J1,1,Pin_1*%
%TO.N,DIST-12*%
X156360000Y-86000000D03*
%TD*%
D10*
%TO.P,J1,6,Pin_6*%
%TO.N,DISTGND*%
X161440000Y-97260000D03*
%TO.P,J1,5,Pin_5*%
X161440000Y-99800000D03*
%TO.P,J1,4,Pin_4*%
%TO.N,DIST+12*%
X158900000Y-97260000D03*
%TO.P,J1,3,Pin_3*%
X158900000Y-99800000D03*
%TO.P,J1,2,Pin_2*%
%TO.N,DIST+5*%
X156360000Y-97260000D03*
D11*
%TO.P,J1,1,Pin_1*%
%TO.N,DIST-12*%
X156360000Y-99800000D03*
%TD*%
D10*
%TO.P,J4,6,Pin_6*%
%TO.N,DISTGND*%
X141440000Y-97260000D03*
%TO.P,J4,5,Pin_5*%
X141440000Y-99800000D03*
%TO.P,J4,4,Pin_4*%
%TO.N,DIST+12*%
X138900000Y-97260000D03*
%TO.P,J4,3,Pin_3*%
X138900000Y-99800000D03*
%TO.P,J4,2,Pin_2*%
%TO.N,DIST+5*%
X136360000Y-97260000D03*
D11*
%TO.P,J4,1,Pin_1*%
%TO.N,DIST-12*%
X136360000Y-99800000D03*
%TD*%
D12*
%TO.P,J7,1,Pin_1*%
%TO.N,DIST+5*%
X71960000Y-164100000D03*
D13*
%TO.P,J7,2,Pin_2*%
%TO.N,DIST-12*%
X74500000Y-164100000D03*
%TD*%
D12*
%TO.P,J13,1,Pin_1*%
%TO.N,DIST+12*%
X169960000Y-164100000D03*
D13*
%TO.P,J13,2,Pin_2*%
%TO.N,DISTGND*%
X172500000Y-164100000D03*
%TD*%
D12*
%TO.P,J13,1,Pin_1*%
%TO.N,DIST+12*%
X223360000Y-164100000D03*
D13*
%TO.P,J13,2,Pin_2*%
%TO.N,DISTGND*%
X225900000Y-164100000D03*
%TD*%
D12*
%TO.P,J7,1,Pin_1*%
%TO.N,DIST+5*%
X125360000Y-164100000D03*
D13*
%TO.P,J7,2,Pin_2*%
%TO.N,DIST-12*%
X127900000Y-164100000D03*
%TD*%
D12*
%TO.P,J16,1,Pin_1*%
%TO.N,DIST+12*%
X223360000Y-171700000D03*
D13*
%TO.P,J16,2,Pin_2*%
%TO.N,DISTGND*%
X225900000Y-171700000D03*
%TD*%
D12*
%TO.P,J10,1,Pin_1*%
%TO.N,DIST+5*%
X71960000Y-171700000D03*
D13*
%TO.P,J10,2,Pin_2*%
%TO.N,DIST-12*%
X74500000Y-171700000D03*
%TD*%
D12*
%TO.P,J16,1,Pin_1*%
%TO.N,DIST+12*%
X116560000Y-171700000D03*
D13*
%TO.P,J16,2,Pin_2*%
%TO.N,DISTGND*%
X119100000Y-171700000D03*
%TD*%
D12*
%TO.P,J16,1,Pin_1*%
%TO.N,DIST+12*%
X169960000Y-171700000D03*
D13*
%TO.P,J16,2,Pin_2*%
%TO.N,DISTGND*%
X172500000Y-171700000D03*
%TD*%
D12*
%TO.P,J13,1,Pin_1*%
%TO.N,DIST+12*%
X116560000Y-164100000D03*
D13*
%TO.P,J13,2,Pin_2*%
%TO.N,DISTGND*%
X119100000Y-164100000D03*
%TD*%
D12*
%TO.P,J10,1,Pin_1*%
%TO.N,DIST+5*%
X125360000Y-171700000D03*
D13*
%TO.P,J10,2,Pin_2*%
%TO.N,DIST-12*%
X127900000Y-171700000D03*
%TD*%
D12*
%TO.P,J7,1,Pin_1*%
%TO.N,DIST+5*%
X178760000Y-164100000D03*
D13*
%TO.P,J7,2,Pin_2*%
%TO.N,DIST-12*%
X181300000Y-164100000D03*
%TD*%
D12*
%TO.P,J10,1,Pin_1*%
%TO.N,DIST+5*%
X178760000Y-171700000D03*
D13*
%TO.P,J10,2,Pin_2*%
%TO.N,DIST-12*%
X181300000Y-171700000D03*
%TD*%
D12*
%TO.P,J7,1,Pin_1*%
%TO.N,DIST+5*%
X71960000Y-150300000D03*
D13*
%TO.P,J7,2,Pin_2*%
%TO.N,DIST-12*%
X74500000Y-150300000D03*
%TD*%
D12*
%TO.P,J13,1,Pin_1*%
%TO.N,DIST+12*%
X169960000Y-150300000D03*
D13*
%TO.P,J13,2,Pin_2*%
%TO.N,DISTGND*%
X172500000Y-150300000D03*
%TD*%
D12*
%TO.P,J13,1,Pin_1*%
%TO.N,DIST+12*%
X223360000Y-150300000D03*
D13*
%TO.P,J13,2,Pin_2*%
%TO.N,DISTGND*%
X225900000Y-150300000D03*
%TD*%
D12*
%TO.P,J7,1,Pin_1*%
%TO.N,DIST+5*%
X125360000Y-150300000D03*
D13*
%TO.P,J7,2,Pin_2*%
%TO.N,DIST-12*%
X127900000Y-150300000D03*
%TD*%
D12*
%TO.P,J16,1,Pin_1*%
%TO.N,DIST+12*%
X223360000Y-157900000D03*
D13*
%TO.P,J16,2,Pin_2*%
%TO.N,DISTGND*%
X225900000Y-157900000D03*
%TD*%
D12*
%TO.P,J10,1,Pin_1*%
%TO.N,DIST+5*%
X71960000Y-157900000D03*
D13*
%TO.P,J10,2,Pin_2*%
%TO.N,DIST-12*%
X74500000Y-157900000D03*
%TD*%
D12*
%TO.P,J16,1,Pin_1*%
%TO.N,DIST+12*%
X116560000Y-157900000D03*
D13*
%TO.P,J16,2,Pin_2*%
%TO.N,DISTGND*%
X119100000Y-157900000D03*
%TD*%
D12*
%TO.P,J16,1,Pin_1*%
%TO.N,DIST+12*%
X169960000Y-157900000D03*
D13*
%TO.P,J16,2,Pin_2*%
%TO.N,DISTGND*%
X172500000Y-157900000D03*
%TD*%
D12*
%TO.P,J13,1,Pin_1*%
%TO.N,DIST+12*%
X116560000Y-150300000D03*
D13*
%TO.P,J13,2,Pin_2*%
%TO.N,DISTGND*%
X119100000Y-150300000D03*
%TD*%
D12*
%TO.P,J10,1,Pin_1*%
%TO.N,DIST+5*%
X125360000Y-157900000D03*
D13*
%TO.P,J10,2,Pin_2*%
%TO.N,DIST-12*%
X127900000Y-157900000D03*
%TD*%
D12*
%TO.P,J7,1,Pin_1*%
%TO.N,DIST+5*%
X178760000Y-150300000D03*
D13*
%TO.P,J7,2,Pin_2*%
%TO.N,DIST-12*%
X181300000Y-150300000D03*
%TD*%
D12*
%TO.P,J10,1,Pin_1*%
%TO.N,DIST+5*%
X178760000Y-157900000D03*
D13*
%TO.P,J10,2,Pin_2*%
%TO.N,DIST-12*%
X181300000Y-157900000D03*
%TD*%
D12*
%TO.P,J7,1,Pin_1*%
%TO.N,DIST+5*%
X71960000Y-136500000D03*
D13*
%TO.P,J7,2,Pin_2*%
%TO.N,DIST-12*%
X74500000Y-136500000D03*
%TD*%
D12*
%TO.P,J13,1,Pin_1*%
%TO.N,DIST+12*%
X169960000Y-136500000D03*
D13*
%TO.P,J13,2,Pin_2*%
%TO.N,DISTGND*%
X172500000Y-136500000D03*
%TD*%
D12*
%TO.P,J13,1,Pin_1*%
%TO.N,DIST+12*%
X223360000Y-136500000D03*
D13*
%TO.P,J13,2,Pin_2*%
%TO.N,DISTGND*%
X225900000Y-136500000D03*
%TD*%
D12*
%TO.P,J7,1,Pin_1*%
%TO.N,DIST+5*%
X125360000Y-136500000D03*
D13*
%TO.P,J7,2,Pin_2*%
%TO.N,DIST-12*%
X127900000Y-136500000D03*
%TD*%
D12*
%TO.P,J16,1,Pin_1*%
%TO.N,DIST+12*%
X223360000Y-144100000D03*
D13*
%TO.P,J16,2,Pin_2*%
%TO.N,DISTGND*%
X225900000Y-144100000D03*
%TD*%
D12*
%TO.P,J10,1,Pin_1*%
%TO.N,DIST+5*%
X71960000Y-144100000D03*
D13*
%TO.P,J10,2,Pin_2*%
%TO.N,DIST-12*%
X74500000Y-144100000D03*
%TD*%
D12*
%TO.P,J16,1,Pin_1*%
%TO.N,DIST+12*%
X116560000Y-144100000D03*
D13*
%TO.P,J16,2,Pin_2*%
%TO.N,DISTGND*%
X119100000Y-144100000D03*
%TD*%
D12*
%TO.P,J16,1,Pin_1*%
%TO.N,DIST+12*%
X169960000Y-144100000D03*
D13*
%TO.P,J16,2,Pin_2*%
%TO.N,DISTGND*%
X172500000Y-144100000D03*
%TD*%
D12*
%TO.P,J13,1,Pin_1*%
%TO.N,DIST+12*%
X116560000Y-136500000D03*
D13*
%TO.P,J13,2,Pin_2*%
%TO.N,DISTGND*%
X119100000Y-136500000D03*
%TD*%
D12*
%TO.P,J10,1,Pin_1*%
%TO.N,DIST+5*%
X125360000Y-144100000D03*
D13*
%TO.P,J10,2,Pin_2*%
%TO.N,DIST-12*%
X127900000Y-144100000D03*
%TD*%
D12*
%TO.P,J7,1,Pin_1*%
%TO.N,DIST+5*%
X178760000Y-136500000D03*
D13*
%TO.P,J7,2,Pin_2*%
%TO.N,DIST-12*%
X181300000Y-136500000D03*
%TD*%
D12*
%TO.P,J10,1,Pin_1*%
%TO.N,DIST+5*%
X178760000Y-144100000D03*
D13*
%TO.P,J10,2,Pin_2*%
%TO.N,DIST-12*%
X181300000Y-144100000D03*
%TD*%
D12*
%TO.P,J7,1,Pin_1*%
%TO.N,DIST+5*%
X71960000Y-122700000D03*
D13*
%TO.P,J7,2,Pin_2*%
%TO.N,DIST-12*%
X74500000Y-122700000D03*
%TD*%
D12*
%TO.P,J13,1,Pin_1*%
%TO.N,DIST+12*%
X169960000Y-122700000D03*
D13*
%TO.P,J13,2,Pin_2*%
%TO.N,DISTGND*%
X172500000Y-122700000D03*
%TD*%
D12*
%TO.P,J13,1,Pin_1*%
%TO.N,DIST+12*%
X223360000Y-122700000D03*
D13*
%TO.P,J13,2,Pin_2*%
%TO.N,DISTGND*%
X225900000Y-122700000D03*
%TD*%
D12*
%TO.P,J7,1,Pin_1*%
%TO.N,DIST+5*%
X125360000Y-122700000D03*
D13*
%TO.P,J7,2,Pin_2*%
%TO.N,DIST-12*%
X127900000Y-122700000D03*
%TD*%
D12*
%TO.P,J16,1,Pin_1*%
%TO.N,DIST+12*%
X223360000Y-130300000D03*
D13*
%TO.P,J16,2,Pin_2*%
%TO.N,DISTGND*%
X225900000Y-130300000D03*
%TD*%
D12*
%TO.P,J10,1,Pin_1*%
%TO.N,DIST+5*%
X71960000Y-130300000D03*
D13*
%TO.P,J10,2,Pin_2*%
%TO.N,DIST-12*%
X74500000Y-130300000D03*
%TD*%
D12*
%TO.P,J16,1,Pin_1*%
%TO.N,DIST+12*%
X116560000Y-130300000D03*
D13*
%TO.P,J16,2,Pin_2*%
%TO.N,DISTGND*%
X119100000Y-130300000D03*
%TD*%
D12*
%TO.P,J16,1,Pin_1*%
%TO.N,DIST+12*%
X169960000Y-130300000D03*
D13*
%TO.P,J16,2,Pin_2*%
%TO.N,DISTGND*%
X172500000Y-130300000D03*
%TD*%
D12*
%TO.P,J13,1,Pin_1*%
%TO.N,DIST+12*%
X116560000Y-122700000D03*
D13*
%TO.P,J13,2,Pin_2*%
%TO.N,DISTGND*%
X119100000Y-122700000D03*
%TD*%
D12*
%TO.P,J10,1,Pin_1*%
%TO.N,DIST+5*%
X125360000Y-130300000D03*
D13*
%TO.P,J10,2,Pin_2*%
%TO.N,DIST-12*%
X127900000Y-130300000D03*
%TD*%
D12*
%TO.P,J7,1,Pin_1*%
%TO.N,DIST+5*%
X178760000Y-122700000D03*
D13*
%TO.P,J7,2,Pin_2*%
%TO.N,DIST-12*%
X181300000Y-122700000D03*
%TD*%
D12*
%TO.P,J10,1,Pin_1*%
%TO.N,DIST+5*%
X178760000Y-130300000D03*
D13*
%TO.P,J10,2,Pin_2*%
%TO.N,DIST-12*%
X181300000Y-130300000D03*
%TD*%
D12*
%TO.P,J7,1,Pin_1*%
%TO.N,DIST+5*%
X71960000Y-108900000D03*
D13*
%TO.P,J7,2,Pin_2*%
%TO.N,DIST-12*%
X74500000Y-108900000D03*
%TD*%
D12*
%TO.P,J13,1,Pin_1*%
%TO.N,DIST+12*%
X169960000Y-108900000D03*
D13*
%TO.P,J13,2,Pin_2*%
%TO.N,DISTGND*%
X172500000Y-108900000D03*
%TD*%
D12*
%TO.P,J13,1,Pin_1*%
%TO.N,DIST+12*%
X223360000Y-108900000D03*
D13*
%TO.P,J13,2,Pin_2*%
%TO.N,DISTGND*%
X225900000Y-108900000D03*
%TD*%
D12*
%TO.P,J7,1,Pin_1*%
%TO.N,DIST+5*%
X125360000Y-108900000D03*
D13*
%TO.P,J7,2,Pin_2*%
%TO.N,DIST-12*%
X127900000Y-108900000D03*
%TD*%
D12*
%TO.P,J16,1,Pin_1*%
%TO.N,DIST+12*%
X223360000Y-116500000D03*
D13*
%TO.P,J16,2,Pin_2*%
%TO.N,DISTGND*%
X225900000Y-116500000D03*
%TD*%
D12*
%TO.P,J10,1,Pin_1*%
%TO.N,DIST+5*%
X71960000Y-116500000D03*
D13*
%TO.P,J10,2,Pin_2*%
%TO.N,DIST-12*%
X74500000Y-116500000D03*
%TD*%
D12*
%TO.P,J16,1,Pin_1*%
%TO.N,DIST+12*%
X116560000Y-116500000D03*
D13*
%TO.P,J16,2,Pin_2*%
%TO.N,DISTGND*%
X119100000Y-116500000D03*
%TD*%
D12*
%TO.P,J16,1,Pin_1*%
%TO.N,DIST+12*%
X169960000Y-116500000D03*
D13*
%TO.P,J16,2,Pin_2*%
%TO.N,DISTGND*%
X172500000Y-116500000D03*
%TD*%
D12*
%TO.P,J13,1,Pin_1*%
%TO.N,DIST+12*%
X116560000Y-108900000D03*
D13*
%TO.P,J13,2,Pin_2*%
%TO.N,DISTGND*%
X119100000Y-108900000D03*
%TD*%
D12*
%TO.P,J10,1,Pin_1*%
%TO.N,DIST+5*%
X125360000Y-116500000D03*
D13*
%TO.P,J10,2,Pin_2*%
%TO.N,DIST-12*%
X127900000Y-116500000D03*
%TD*%
D12*
%TO.P,J7,1,Pin_1*%
%TO.N,DIST+5*%
X178760000Y-108900000D03*
D13*
%TO.P,J7,2,Pin_2*%
%TO.N,DIST-12*%
X181300000Y-108900000D03*
%TD*%
D12*
%TO.P,J10,1,Pin_1*%
%TO.N,DIST+5*%
X178760000Y-116500000D03*
D13*
%TO.P,J10,2,Pin_2*%
%TO.N,DIST-12*%
X181300000Y-116500000D03*
%TD*%
D12*
%TO.P,J7,1,Pin_1*%
%TO.N,DIST+5*%
X71960000Y-95100000D03*
D13*
%TO.P,J7,2,Pin_2*%
%TO.N,DIST-12*%
X74500000Y-95100000D03*
%TD*%
D12*
%TO.P,J13,1,Pin_1*%
%TO.N,DIST+12*%
X169960000Y-95100000D03*
D13*
%TO.P,J13,2,Pin_2*%
%TO.N,DISTGND*%
X172500000Y-95100000D03*
%TD*%
D12*
%TO.P,J13,1,Pin_1*%
%TO.N,DIST+12*%
X223360000Y-95100000D03*
D13*
%TO.P,J13,2,Pin_2*%
%TO.N,DISTGND*%
X225900000Y-95100000D03*
%TD*%
D12*
%TO.P,J7,1,Pin_1*%
%TO.N,DIST+5*%
X125360000Y-95100000D03*
D13*
%TO.P,J7,2,Pin_2*%
%TO.N,DIST-12*%
X127900000Y-95100000D03*
%TD*%
D12*
%TO.P,J16,1,Pin_1*%
%TO.N,DIST+12*%
X223360000Y-102700000D03*
D13*
%TO.P,J16,2,Pin_2*%
%TO.N,DISTGND*%
X225900000Y-102700000D03*
%TD*%
D12*
%TO.P,J10,1,Pin_1*%
%TO.N,DIST+5*%
X71960000Y-102700000D03*
D13*
%TO.P,J10,2,Pin_2*%
%TO.N,DIST-12*%
X74500000Y-102700000D03*
%TD*%
D12*
%TO.P,J16,1,Pin_1*%
%TO.N,DIST+12*%
X116560000Y-102700000D03*
D13*
%TO.P,J16,2,Pin_2*%
%TO.N,DISTGND*%
X119100000Y-102700000D03*
%TD*%
D12*
%TO.P,J16,1,Pin_1*%
%TO.N,DIST+12*%
X169960000Y-102700000D03*
D13*
%TO.P,J16,2,Pin_2*%
%TO.N,DISTGND*%
X172500000Y-102700000D03*
%TD*%
D12*
%TO.P,J13,1,Pin_1*%
%TO.N,DIST+12*%
X116560000Y-95100000D03*
D13*
%TO.P,J13,2,Pin_2*%
%TO.N,DISTGND*%
X119100000Y-95100000D03*
%TD*%
D12*
%TO.P,J10,1,Pin_1*%
%TO.N,DIST+5*%
X125360000Y-102700000D03*
D13*
%TO.P,J10,2,Pin_2*%
%TO.N,DIST-12*%
X127900000Y-102700000D03*
%TD*%
D12*
%TO.P,J7,1,Pin_1*%
%TO.N,DIST+5*%
X178760000Y-95100000D03*
D13*
%TO.P,J7,2,Pin_2*%
%TO.N,DIST-12*%
X181300000Y-95100000D03*
%TD*%
D12*
%TO.P,J10,1,Pin_1*%
%TO.N,DIST+5*%
X178760000Y-102700000D03*
D13*
%TO.P,J10,2,Pin_2*%
%TO.N,DIST-12*%
X181300000Y-102700000D03*
%TD*%
D12*
%TO.P,J7,1,Pin_1*%
%TO.N,DIST+5*%
X71960000Y-81300000D03*
D13*
%TO.P,J7,2,Pin_2*%
%TO.N,DIST-12*%
X74500000Y-81300000D03*
%TD*%
D12*
%TO.P,J13,1,Pin_1*%
%TO.N,DIST+12*%
X169960000Y-81300000D03*
D13*
%TO.P,J13,2,Pin_2*%
%TO.N,DISTGND*%
X172500000Y-81300000D03*
%TD*%
D12*
%TO.P,J13,1,Pin_1*%
%TO.N,DIST+12*%
X223360000Y-81300000D03*
D13*
%TO.P,J13,2,Pin_2*%
%TO.N,DISTGND*%
X225900000Y-81300000D03*
%TD*%
D12*
%TO.P,J7,1,Pin_1*%
%TO.N,DIST+5*%
X125360000Y-81300000D03*
D13*
%TO.P,J7,2,Pin_2*%
%TO.N,DIST-12*%
X127900000Y-81300000D03*
%TD*%
D12*
%TO.P,J16,1,Pin_1*%
%TO.N,DIST+12*%
X223360000Y-88900000D03*
D13*
%TO.P,J16,2,Pin_2*%
%TO.N,DISTGND*%
X225900000Y-88900000D03*
%TD*%
D12*
%TO.P,J10,1,Pin_1*%
%TO.N,DIST+5*%
X71960000Y-88900000D03*
D13*
%TO.P,J10,2,Pin_2*%
%TO.N,DIST-12*%
X74500000Y-88900000D03*
%TD*%
D12*
%TO.P,J16,1,Pin_1*%
%TO.N,DIST+12*%
X116560000Y-88900000D03*
D13*
%TO.P,J16,2,Pin_2*%
%TO.N,DISTGND*%
X119100000Y-88900000D03*
%TD*%
D12*
%TO.P,J16,1,Pin_1*%
%TO.N,DIST+12*%
X169960000Y-88900000D03*
D13*
%TO.P,J16,2,Pin_2*%
%TO.N,DISTGND*%
X172500000Y-88900000D03*
%TD*%
D12*
%TO.P,J13,1,Pin_1*%
%TO.N,DIST+12*%
X116560000Y-81300000D03*
D13*
%TO.P,J13,2,Pin_2*%
%TO.N,DISTGND*%
X119100000Y-81300000D03*
%TD*%
D12*
%TO.P,J10,1,Pin_1*%
%TO.N,DIST+5*%
X125360000Y-88900000D03*
D13*
%TO.P,J10,2,Pin_2*%
%TO.N,DIST-12*%
X127900000Y-88900000D03*
%TD*%
D12*
%TO.P,J7,1,Pin_1*%
%TO.N,DIST+5*%
X178760000Y-81300000D03*
D13*
%TO.P,J7,2,Pin_2*%
%TO.N,DIST-12*%
X181300000Y-81300000D03*
%TD*%
D12*
%TO.P,J10,1,Pin_1*%
%TO.N,DIST+5*%
X178760000Y-88900000D03*
D13*
%TO.P,J10,2,Pin_2*%
%TO.N,DIST-12*%
X181300000Y-88900000D03*
%TD*%
D12*
%TO.P,J7,1,Pin_1*%
%TO.N,DIST+5*%
X71960000Y-67500000D03*
D13*
%TO.P,J7,2,Pin_2*%
%TO.N,DIST-12*%
X74500000Y-67500000D03*
%TD*%
D12*
%TO.P,J13,1,Pin_1*%
%TO.N,DIST+12*%
X169960000Y-67500000D03*
D13*
%TO.P,J13,2,Pin_2*%
%TO.N,DISTGND*%
X172500000Y-67500000D03*
%TD*%
D12*
%TO.P,J13,1,Pin_1*%
%TO.N,DIST+12*%
X223360000Y-67500000D03*
D13*
%TO.P,J13,2,Pin_2*%
%TO.N,DISTGND*%
X225900000Y-67500000D03*
%TD*%
D12*
%TO.P,J7,1,Pin_1*%
%TO.N,DIST+5*%
X125360000Y-67500000D03*
D13*
%TO.P,J7,2,Pin_2*%
%TO.N,DIST-12*%
X127900000Y-67500000D03*
%TD*%
D12*
%TO.P,J16,1,Pin_1*%
%TO.N,DIST+12*%
X223360000Y-75100000D03*
D13*
%TO.P,J16,2,Pin_2*%
%TO.N,DISTGND*%
X225900000Y-75100000D03*
%TD*%
D12*
%TO.P,J10,1,Pin_1*%
%TO.N,DIST+5*%
X71960000Y-75100000D03*
D13*
%TO.P,J10,2,Pin_2*%
%TO.N,DIST-12*%
X74500000Y-75100000D03*
%TD*%
D12*
%TO.P,J16,1,Pin_1*%
%TO.N,DIST+12*%
X116560000Y-75100000D03*
D13*
%TO.P,J16,2,Pin_2*%
%TO.N,DISTGND*%
X119100000Y-75100000D03*
%TD*%
D12*
%TO.P,J16,1,Pin_1*%
%TO.N,DIST+12*%
X169960000Y-75100000D03*
D13*
%TO.P,J16,2,Pin_2*%
%TO.N,DISTGND*%
X172500000Y-75100000D03*
%TD*%
D12*
%TO.P,J13,1,Pin_1*%
%TO.N,DIST+12*%
X116560000Y-67500000D03*
D13*
%TO.P,J13,2,Pin_2*%
%TO.N,DISTGND*%
X119100000Y-67500000D03*
%TD*%
D12*
%TO.P,J10,1,Pin_1*%
%TO.N,DIST+5*%
X125360000Y-75100000D03*
D13*
%TO.P,J10,2,Pin_2*%
%TO.N,DIST-12*%
X127900000Y-75100000D03*
%TD*%
D12*
%TO.P,J7,1,Pin_1*%
%TO.N,DIST+5*%
X178760000Y-67500000D03*
D13*
%TO.P,J7,2,Pin_2*%
%TO.N,DIST-12*%
X181300000Y-67500000D03*
%TD*%
D12*
%TO.P,J10,1,Pin_1*%
%TO.N,DIST+5*%
X178760000Y-75100000D03*
D13*
%TO.P,J10,2,Pin_2*%
%TO.N,DIST-12*%
X181300000Y-75100000D03*
%TD*%
D12*
%TO.P,J7,1,Pin_1*%
%TO.N,DIST+5*%
X71960000Y-53700000D03*
D13*
%TO.P,J7,2,Pin_2*%
%TO.N,DIST-12*%
X74500000Y-53700000D03*
%TD*%
D12*
%TO.P,J10,1,Pin_1*%
%TO.N,DIST+5*%
X71960000Y-61300000D03*
D13*
%TO.P,J10,2,Pin_2*%
%TO.N,DIST-12*%
X74500000Y-61300000D03*
%TD*%
D12*
%TO.P,J16,1,Pin_1*%
%TO.N,DIST+12*%
X116560000Y-61300000D03*
D13*
%TO.P,J16,2,Pin_2*%
%TO.N,DISTGND*%
X119100000Y-61300000D03*
%TD*%
D12*
%TO.P,J13,1,Pin_1*%
%TO.N,DIST+12*%
X116560000Y-53700000D03*
D13*
%TO.P,J13,2,Pin_2*%
%TO.N,DISTGND*%
X119100000Y-53700000D03*
%TD*%
D12*
%TO.P,J16,1,Pin_1*%
%TO.N,DIST+12*%
X169960000Y-61300000D03*
D13*
%TO.P,J16,2,Pin_2*%
%TO.N,DISTGND*%
X172500000Y-61300000D03*
%TD*%
D12*
%TO.P,J10,1,Pin_1*%
%TO.N,DIST+5*%
X125360000Y-61300000D03*
D13*
%TO.P,J10,2,Pin_2*%
%TO.N,DIST-12*%
X127900000Y-61300000D03*
%TD*%
D12*
%TO.P,J7,1,Pin_1*%
%TO.N,DIST+5*%
X125360000Y-53700000D03*
D13*
%TO.P,J7,2,Pin_2*%
%TO.N,DIST-12*%
X127900000Y-53700000D03*
%TD*%
D12*
%TO.P,J16,1,Pin_1*%
%TO.N,DIST+12*%
X223360000Y-61300000D03*
D13*
%TO.P,J16,2,Pin_2*%
%TO.N,DISTGND*%
X225900000Y-61300000D03*
%TD*%
D12*
%TO.P,J13,1,Pin_1*%
%TO.N,DIST+12*%
X169960000Y-53700000D03*
D13*
%TO.P,J13,2,Pin_2*%
%TO.N,DISTGND*%
X172500000Y-53700000D03*
%TD*%
D12*
%TO.P,J13,1,Pin_1*%
%TO.N,DIST+12*%
X223360000Y-53700000D03*
D13*
%TO.P,J13,2,Pin_2*%
%TO.N,DISTGND*%
X225900000Y-53700000D03*
%TD*%
D12*
%TO.P,J10,1,Pin_1*%
%TO.N,DIST+5*%
X178760000Y-61300000D03*
D13*
%TO.P,J10,2,Pin_2*%
%TO.N,DIST-12*%
X181300000Y-61300000D03*
%TD*%
D12*
%TO.P,J7,1,Pin_1*%
%TO.N,DIST+5*%
X178760000Y-53700000D03*
D13*
%TO.P,J7,2,Pin_2*%
%TO.N,DIST-12*%
X181300000Y-53700000D03*
%TD*%
D12*
%TO.P,J16,1,Pin_1*%
%TO.N,DIST+12*%
X116560000Y-47500000D03*
D13*
%TO.P,J16,2,Pin_2*%
%TO.N,DISTGND*%
X119100000Y-47500000D03*
%TD*%
D12*
%TO.P,J10,1,Pin_1*%
%TO.N,DIST+5*%
X71960000Y-47500000D03*
D13*
%TO.P,J10,2,Pin_2*%
%TO.N,DIST-12*%
X74500000Y-47500000D03*
%TD*%
D12*
%TO.P,J7,1,Pin_1*%
%TO.N,DIST+5*%
X71960000Y-39900000D03*
D13*
%TO.P,J7,2,Pin_2*%
%TO.N,DIST-12*%
X74500000Y-39900000D03*
%TD*%
D12*
%TO.P,J13,1,Pin_1*%
%TO.N,DIST+12*%
X116560000Y-39900000D03*
D13*
%TO.P,J13,2,Pin_2*%
%TO.N,DISTGND*%
X119100000Y-39900000D03*
%TD*%
D12*
%TO.P,J16,1,Pin_1*%
%TO.N,DIST+12*%
X169960000Y-47500000D03*
D13*
%TO.P,J16,2,Pin_2*%
%TO.N,DISTGND*%
X172500000Y-47500000D03*
%TD*%
D12*
%TO.P,J13,1,Pin_1*%
%TO.N,DIST+12*%
X169960000Y-39900000D03*
D13*
%TO.P,J13,2,Pin_2*%
%TO.N,DISTGND*%
X172500000Y-39900000D03*
%TD*%
D12*
%TO.P,J10,1,Pin_1*%
%TO.N,DIST+5*%
X125360000Y-47500000D03*
D13*
%TO.P,J10,2,Pin_2*%
%TO.N,DIST-12*%
X127900000Y-47500000D03*
%TD*%
D12*
%TO.P,J7,1,Pin_1*%
%TO.N,DIST+5*%
X125360000Y-39900000D03*
D13*
%TO.P,J7,2,Pin_2*%
%TO.N,DIST-12*%
X127900000Y-39900000D03*
%TD*%
D12*
%TO.P,J16,1,Pin_1*%
%TO.N,DIST+12*%
X223360000Y-47500000D03*
D13*
%TO.P,J16,2,Pin_2*%
%TO.N,DISTGND*%
X225900000Y-47500000D03*
%TD*%
D12*
%TO.P,J10,1,Pin_1*%
%TO.N,DIST+5*%
X178760000Y-47500000D03*
D13*
%TO.P,J10,2,Pin_2*%
%TO.N,DIST-12*%
X181300000Y-47500000D03*
%TD*%
D12*
%TO.P,J7,1,Pin_1*%
%TO.N,DIST+5*%
X178760000Y-39900000D03*
D13*
%TO.P,J7,2,Pin_2*%
%TO.N,DIST-12*%
X181300000Y-39900000D03*
%TD*%
D12*
%TO.P,J13,1,Pin_1*%
%TO.N,DIST+12*%
X223360000Y-39900000D03*
D13*
%TO.P,J13,2,Pin_2*%
%TO.N,DISTGND*%
X225900000Y-39900000D03*
%TD*%
D14*
%TO.N,DISTGND*%
X172500000Y-170140000D02*
X172500000Y-171700000D01*
%TO.N,DIST+12*%
X157532030Y-163689949D02*
X158900000Y-165057919D01*
%TO.N,DISTGND*%
X88040000Y-168800000D02*
X90090000Y-170850000D01*
%TO.N,DIST+12*%
X116149949Y-163689949D02*
X116560000Y-164100000D01*
X158900000Y-165057919D02*
X160267970Y-163689949D01*
%TO.N,DISTGND*%
X108040000Y-166260000D02*
X108040000Y-168800000D01*
%TO.N,DIST+12*%
X158900000Y-166260000D02*
X158900000Y-165057919D01*
%TO.N,DIST-12*%
X127900000Y-164100000D02*
X127900000Y-171700000D01*
%TO.N,DIST+12*%
X138900000Y-166260000D02*
X138900000Y-165057919D01*
%TO.N,DISTGND*%
X225900000Y-164100000D02*
X225900000Y-171700000D01*
%TO.N,DIST+12*%
X192300000Y-166260000D02*
X192300000Y-168800000D01*
%TO.N,DISTGND*%
X159749138Y-170850000D02*
X161440000Y-169159138D01*
%TO.N,DIST+12*%
X160267970Y-163689949D02*
X169549949Y-163689949D01*
%TO.N,DISTGND*%
X141440000Y-166260000D02*
X141440000Y-168800000D01*
X141440000Y-168800000D02*
X143490000Y-170850000D01*
%TO.N,DIST+12*%
X106867970Y-163689949D02*
X116149949Y-163689949D01*
%TO.N,DISTGND*%
X90090000Y-170850000D02*
X106349138Y-170850000D01*
X161440000Y-169159138D02*
X161440000Y-168800000D01*
%TO.N,DIST+12*%
X105500000Y-166260000D02*
X105500000Y-165057919D01*
%TO.N,DISTGND*%
X106349138Y-170850000D02*
X108040000Y-169159138D01*
%TO.N,DIST+12*%
X138900000Y-166260000D02*
X138900000Y-168800000D01*
%TO.N,DISTGND*%
X161440000Y-166260000D02*
X161440000Y-168800000D01*
%TO.N,DIST+12*%
X138900000Y-165057919D02*
X140267970Y-163689949D01*
%TO.N,DISTGND*%
X172500000Y-164100000D02*
X172500000Y-171700000D01*
X171160000Y-168800000D02*
X172500000Y-170140000D01*
%TO.N,DIST+12*%
X192300000Y-165057919D02*
X193667970Y-163689949D01*
X140267970Y-163689949D02*
X157532030Y-163689949D01*
%TO.N,DISTGND*%
X161440000Y-168800000D02*
X171160000Y-168800000D01*
X143490000Y-170850000D02*
X159749138Y-170850000D01*
%TO.N,DIST+12*%
X169549949Y-163689949D02*
X169960000Y-164100000D01*
%TO.N,DISTGND*%
X119100000Y-164100000D02*
X119100000Y-171700000D01*
X194840000Y-166260000D02*
X194840000Y-168800000D01*
%TO.N,DIST-12*%
X74500000Y-164100000D02*
X74500000Y-171700000D01*
%TO.N,DIST+12*%
X193667970Y-163689949D02*
X210932030Y-163689949D01*
%TO.N,DISTGND*%
X214840000Y-166260000D02*
X214840000Y-168800000D01*
%TO.N,DIST+12*%
X85500000Y-166260000D02*
X85500000Y-168800000D01*
X222949949Y-163689949D02*
X223360000Y-164100000D01*
X105500000Y-165057919D02*
X106867970Y-163689949D01*
%TO.N,DISTGND*%
X108040000Y-168800000D02*
X117760000Y-168800000D01*
X214840000Y-169159138D02*
X214840000Y-168800000D01*
%TO.N,DIST+12*%
X212300000Y-166260000D02*
X212300000Y-165057919D01*
X192300000Y-166260000D02*
X192300000Y-165057919D01*
X210932030Y-163689949D02*
X212300000Y-165057919D01*
%TO.N,DIST-12*%
X181300000Y-164100000D02*
X181300000Y-171700000D01*
%TO.N,DISTGND*%
X214840000Y-168800000D02*
X224560000Y-168800000D01*
X225900000Y-170140000D02*
X225900000Y-171700000D01*
%TO.N,DIST+12*%
X213667970Y-163689949D02*
X222949949Y-163689949D01*
X212300000Y-165057919D02*
X213667970Y-163689949D01*
%TO.N,DISTGND*%
X196890000Y-170850000D02*
X213149138Y-170850000D01*
%TO.N,DIST+12*%
X85500000Y-166260000D02*
X85500000Y-165057919D01*
%TO.N,DISTGND*%
X108040000Y-169159138D02*
X108040000Y-168800000D01*
X194840000Y-168800000D02*
X196890000Y-170850000D01*
X224560000Y-168800000D02*
X225900000Y-170140000D01*
X213149138Y-170850000D02*
X214840000Y-169159138D01*
%TO.N,DIST+12*%
X104132030Y-163689949D02*
X105500000Y-165057919D01*
%TO.N,DISTGND*%
X88040000Y-166260000D02*
X88040000Y-168800000D01*
X117760000Y-168800000D02*
X119100000Y-170140000D01*
X119100000Y-170140000D02*
X119100000Y-171700000D01*
%TO.N,DIST+12*%
X85500000Y-165057919D02*
X86867970Y-163689949D01*
X86867970Y-163689949D02*
X104132030Y-163689949D01*
%TO.N,DISTGND*%
X172500000Y-156340000D02*
X172500000Y-157900000D01*
%TO.N,DIST+12*%
X157532030Y-149889949D02*
X158900000Y-151257919D01*
%TO.N,DISTGND*%
X88040000Y-155000000D02*
X90090000Y-157050000D01*
%TO.N,DIST+12*%
X116149949Y-149889949D02*
X116560000Y-150300000D01*
X158900000Y-151257919D02*
X160267970Y-149889949D01*
%TO.N,DISTGND*%
X108040000Y-152460000D02*
X108040000Y-155000000D01*
%TO.N,DIST+12*%
X158900000Y-152460000D02*
X158900000Y-151257919D01*
%TO.N,DIST-12*%
X127900000Y-150300000D02*
X127900000Y-157900000D01*
%TO.N,DIST+12*%
X138900000Y-152460000D02*
X138900000Y-151257919D01*
%TO.N,DISTGND*%
X225900000Y-150300000D02*
X225900000Y-157900000D01*
%TO.N,DIST+12*%
X192300000Y-152460000D02*
X192300000Y-155000000D01*
%TO.N,DISTGND*%
X159749138Y-157050000D02*
X161440000Y-155359138D01*
%TO.N,DIST+12*%
X160267970Y-149889949D02*
X169549949Y-149889949D01*
%TO.N,DISTGND*%
X141440000Y-152460000D02*
X141440000Y-155000000D01*
X141440000Y-155000000D02*
X143490000Y-157050000D01*
%TO.N,DIST+12*%
X106867970Y-149889949D02*
X116149949Y-149889949D01*
%TO.N,DISTGND*%
X90090000Y-157050000D02*
X106349138Y-157050000D01*
X161440000Y-155359138D02*
X161440000Y-155000000D01*
%TO.N,DIST+12*%
X105500000Y-152460000D02*
X105500000Y-151257919D01*
%TO.N,DISTGND*%
X106349138Y-157050000D02*
X108040000Y-155359138D01*
%TO.N,DIST+12*%
X138900000Y-152460000D02*
X138900000Y-155000000D01*
%TO.N,DISTGND*%
X161440000Y-152460000D02*
X161440000Y-155000000D01*
%TO.N,DIST+12*%
X138900000Y-151257919D02*
X140267970Y-149889949D01*
%TO.N,DISTGND*%
X172500000Y-150300000D02*
X172500000Y-157900000D01*
X171160000Y-155000000D02*
X172500000Y-156340000D01*
%TO.N,DIST+12*%
X192300000Y-151257919D02*
X193667970Y-149889949D01*
X140267970Y-149889949D02*
X157532030Y-149889949D01*
%TO.N,DISTGND*%
X161440000Y-155000000D02*
X171160000Y-155000000D01*
X143490000Y-157050000D02*
X159749138Y-157050000D01*
%TO.N,DIST+12*%
X169549949Y-149889949D02*
X169960000Y-150300000D01*
%TO.N,DISTGND*%
X119100000Y-150300000D02*
X119100000Y-157900000D01*
X194840000Y-152460000D02*
X194840000Y-155000000D01*
%TO.N,DIST-12*%
X74500000Y-150300000D02*
X74500000Y-157900000D01*
%TO.N,DIST+12*%
X193667970Y-149889949D02*
X210932030Y-149889949D01*
%TO.N,DISTGND*%
X214840000Y-152460000D02*
X214840000Y-155000000D01*
%TO.N,DIST+12*%
X85500000Y-152460000D02*
X85500000Y-155000000D01*
X222949949Y-149889949D02*
X223360000Y-150300000D01*
X105500000Y-151257919D02*
X106867970Y-149889949D01*
%TO.N,DISTGND*%
X108040000Y-155000000D02*
X117760000Y-155000000D01*
X214840000Y-155359138D02*
X214840000Y-155000000D01*
%TO.N,DIST+12*%
X212300000Y-152460000D02*
X212300000Y-151257919D01*
X192300000Y-152460000D02*
X192300000Y-151257919D01*
X210932030Y-149889949D02*
X212300000Y-151257919D01*
%TO.N,DIST-12*%
X181300000Y-150300000D02*
X181300000Y-157900000D01*
%TO.N,DISTGND*%
X214840000Y-155000000D02*
X224560000Y-155000000D01*
X225900000Y-156340000D02*
X225900000Y-157900000D01*
%TO.N,DIST+12*%
X213667970Y-149889949D02*
X222949949Y-149889949D01*
X212300000Y-151257919D02*
X213667970Y-149889949D01*
%TO.N,DISTGND*%
X196890000Y-157050000D02*
X213149138Y-157050000D01*
%TO.N,DIST+12*%
X85500000Y-152460000D02*
X85500000Y-151257919D01*
%TO.N,DISTGND*%
X108040000Y-155359138D02*
X108040000Y-155000000D01*
X194840000Y-155000000D02*
X196890000Y-157050000D01*
X224560000Y-155000000D02*
X225900000Y-156340000D01*
X213149138Y-157050000D02*
X214840000Y-155359138D01*
%TO.N,DIST+12*%
X104132030Y-149889949D02*
X105500000Y-151257919D01*
%TO.N,DISTGND*%
X88040000Y-152460000D02*
X88040000Y-155000000D01*
X117760000Y-155000000D02*
X119100000Y-156340000D01*
X119100000Y-156340000D02*
X119100000Y-157900000D01*
%TO.N,DIST+12*%
X85500000Y-151257919D02*
X86867970Y-149889949D01*
X86867970Y-149889949D02*
X104132030Y-149889949D01*
%TO.N,DISTGND*%
X172500000Y-142540000D02*
X172500000Y-144100000D01*
%TO.N,DIST+12*%
X157532030Y-136089949D02*
X158900000Y-137457919D01*
%TO.N,DISTGND*%
X88040000Y-141200000D02*
X90090000Y-143250000D01*
%TO.N,DIST+12*%
X116149949Y-136089949D02*
X116560000Y-136500000D01*
X158900000Y-137457919D02*
X160267970Y-136089949D01*
%TO.N,DISTGND*%
X108040000Y-138660000D02*
X108040000Y-141200000D01*
%TO.N,DIST+12*%
X158900000Y-138660000D02*
X158900000Y-137457919D01*
%TO.N,DIST-12*%
X127900000Y-136500000D02*
X127900000Y-144100000D01*
%TO.N,DIST+12*%
X138900000Y-138660000D02*
X138900000Y-137457919D01*
%TO.N,DISTGND*%
X225900000Y-136500000D02*
X225900000Y-144100000D01*
%TO.N,DIST+12*%
X192300000Y-138660000D02*
X192300000Y-141200000D01*
%TO.N,DISTGND*%
X159749138Y-143250000D02*
X161440000Y-141559138D01*
%TO.N,DIST+12*%
X160267970Y-136089949D02*
X169549949Y-136089949D01*
%TO.N,DISTGND*%
X141440000Y-138660000D02*
X141440000Y-141200000D01*
X141440000Y-141200000D02*
X143490000Y-143250000D01*
%TO.N,DIST+12*%
X106867970Y-136089949D02*
X116149949Y-136089949D01*
%TO.N,DISTGND*%
X90090000Y-143250000D02*
X106349138Y-143250000D01*
X161440000Y-141559138D02*
X161440000Y-141200000D01*
%TO.N,DIST+12*%
X105500000Y-138660000D02*
X105500000Y-137457919D01*
%TO.N,DISTGND*%
X106349138Y-143250000D02*
X108040000Y-141559138D01*
%TO.N,DIST+12*%
X138900000Y-138660000D02*
X138900000Y-141200000D01*
%TO.N,DISTGND*%
X161440000Y-138660000D02*
X161440000Y-141200000D01*
%TO.N,DIST+12*%
X138900000Y-137457919D02*
X140267970Y-136089949D01*
%TO.N,DISTGND*%
X172500000Y-136500000D02*
X172500000Y-144100000D01*
X171160000Y-141200000D02*
X172500000Y-142540000D01*
%TO.N,DIST+12*%
X192300000Y-137457919D02*
X193667970Y-136089949D01*
X140267970Y-136089949D02*
X157532030Y-136089949D01*
%TO.N,DISTGND*%
X161440000Y-141200000D02*
X171160000Y-141200000D01*
X143490000Y-143250000D02*
X159749138Y-143250000D01*
%TO.N,DIST+12*%
X169549949Y-136089949D02*
X169960000Y-136500000D01*
%TO.N,DISTGND*%
X119100000Y-136500000D02*
X119100000Y-144100000D01*
X194840000Y-138660000D02*
X194840000Y-141200000D01*
%TO.N,DIST-12*%
X74500000Y-136500000D02*
X74500000Y-144100000D01*
%TO.N,DIST+12*%
X193667970Y-136089949D02*
X210932030Y-136089949D01*
%TO.N,DISTGND*%
X214840000Y-138660000D02*
X214840000Y-141200000D01*
%TO.N,DIST+12*%
X85500000Y-138660000D02*
X85500000Y-141200000D01*
X222949949Y-136089949D02*
X223360000Y-136500000D01*
X105500000Y-137457919D02*
X106867970Y-136089949D01*
%TO.N,DISTGND*%
X108040000Y-141200000D02*
X117760000Y-141200000D01*
X214840000Y-141559138D02*
X214840000Y-141200000D01*
%TO.N,DIST+12*%
X212300000Y-138660000D02*
X212300000Y-137457919D01*
X192300000Y-138660000D02*
X192300000Y-137457919D01*
X210932030Y-136089949D02*
X212300000Y-137457919D01*
%TO.N,DIST-12*%
X181300000Y-136500000D02*
X181300000Y-144100000D01*
%TO.N,DISTGND*%
X214840000Y-141200000D02*
X224560000Y-141200000D01*
X225900000Y-142540000D02*
X225900000Y-144100000D01*
%TO.N,DIST+12*%
X213667970Y-136089949D02*
X222949949Y-136089949D01*
X212300000Y-137457919D02*
X213667970Y-136089949D01*
%TO.N,DISTGND*%
X196890000Y-143250000D02*
X213149138Y-143250000D01*
%TO.N,DIST+12*%
X85500000Y-138660000D02*
X85500000Y-137457919D01*
%TO.N,DISTGND*%
X108040000Y-141559138D02*
X108040000Y-141200000D01*
X194840000Y-141200000D02*
X196890000Y-143250000D01*
X224560000Y-141200000D02*
X225900000Y-142540000D01*
X213149138Y-143250000D02*
X214840000Y-141559138D01*
%TO.N,DIST+12*%
X104132030Y-136089949D02*
X105500000Y-137457919D01*
%TO.N,DISTGND*%
X88040000Y-138660000D02*
X88040000Y-141200000D01*
X117760000Y-141200000D02*
X119100000Y-142540000D01*
X119100000Y-142540000D02*
X119100000Y-144100000D01*
%TO.N,DIST+12*%
X85500000Y-137457919D02*
X86867970Y-136089949D01*
X86867970Y-136089949D02*
X104132030Y-136089949D01*
%TO.N,DISTGND*%
X172500000Y-128740000D02*
X172500000Y-130300000D01*
%TO.N,DIST+12*%
X157532030Y-122289949D02*
X158900000Y-123657919D01*
%TO.N,DISTGND*%
X88040000Y-127400000D02*
X90090000Y-129450000D01*
%TO.N,DIST+12*%
X116149949Y-122289949D02*
X116560000Y-122700000D01*
X158900000Y-123657919D02*
X160267970Y-122289949D01*
%TO.N,DISTGND*%
X108040000Y-124860000D02*
X108040000Y-127400000D01*
%TO.N,DIST+12*%
X158900000Y-124860000D02*
X158900000Y-123657919D01*
%TO.N,DIST-12*%
X127900000Y-122700000D02*
X127900000Y-130300000D01*
%TO.N,DIST+12*%
X138900000Y-124860000D02*
X138900000Y-123657919D01*
%TO.N,DISTGND*%
X225900000Y-122700000D02*
X225900000Y-130300000D01*
%TO.N,DIST+12*%
X192300000Y-124860000D02*
X192300000Y-127400000D01*
%TO.N,DISTGND*%
X159749138Y-129450000D02*
X161440000Y-127759138D01*
%TO.N,DIST+12*%
X160267970Y-122289949D02*
X169549949Y-122289949D01*
%TO.N,DISTGND*%
X141440000Y-124860000D02*
X141440000Y-127400000D01*
X141440000Y-127400000D02*
X143490000Y-129450000D01*
%TO.N,DIST+12*%
X106867970Y-122289949D02*
X116149949Y-122289949D01*
%TO.N,DISTGND*%
X90090000Y-129450000D02*
X106349138Y-129450000D01*
X161440000Y-127759138D02*
X161440000Y-127400000D01*
%TO.N,DIST+12*%
X105500000Y-124860000D02*
X105500000Y-123657919D01*
%TO.N,DISTGND*%
X106349138Y-129450000D02*
X108040000Y-127759138D01*
%TO.N,DIST+12*%
X138900000Y-124860000D02*
X138900000Y-127400000D01*
%TO.N,DISTGND*%
X161440000Y-124860000D02*
X161440000Y-127400000D01*
%TO.N,DIST+12*%
X138900000Y-123657919D02*
X140267970Y-122289949D01*
%TO.N,DISTGND*%
X172500000Y-122700000D02*
X172500000Y-130300000D01*
X171160000Y-127400000D02*
X172500000Y-128740000D01*
%TO.N,DIST+12*%
X192300000Y-123657919D02*
X193667970Y-122289949D01*
X140267970Y-122289949D02*
X157532030Y-122289949D01*
%TO.N,DISTGND*%
X161440000Y-127400000D02*
X171160000Y-127400000D01*
X143490000Y-129450000D02*
X159749138Y-129450000D01*
%TO.N,DIST+12*%
X169549949Y-122289949D02*
X169960000Y-122700000D01*
%TO.N,DISTGND*%
X119100000Y-122700000D02*
X119100000Y-130300000D01*
X194840000Y-124860000D02*
X194840000Y-127400000D01*
%TO.N,DIST-12*%
X74500000Y-122700000D02*
X74500000Y-130300000D01*
%TO.N,DIST+12*%
X193667970Y-122289949D02*
X210932030Y-122289949D01*
%TO.N,DISTGND*%
X214840000Y-124860000D02*
X214840000Y-127400000D01*
%TO.N,DIST+12*%
X85500000Y-124860000D02*
X85500000Y-127400000D01*
X222949949Y-122289949D02*
X223360000Y-122700000D01*
X105500000Y-123657919D02*
X106867970Y-122289949D01*
%TO.N,DISTGND*%
X108040000Y-127400000D02*
X117760000Y-127400000D01*
X214840000Y-127759138D02*
X214840000Y-127400000D01*
%TO.N,DIST+12*%
X212300000Y-124860000D02*
X212300000Y-123657919D01*
X192300000Y-124860000D02*
X192300000Y-123657919D01*
X210932030Y-122289949D02*
X212300000Y-123657919D01*
%TO.N,DIST-12*%
X181300000Y-122700000D02*
X181300000Y-130300000D01*
%TO.N,DISTGND*%
X214840000Y-127400000D02*
X224560000Y-127400000D01*
X225900000Y-128740000D02*
X225900000Y-130300000D01*
%TO.N,DIST+12*%
X213667970Y-122289949D02*
X222949949Y-122289949D01*
X212300000Y-123657919D02*
X213667970Y-122289949D01*
%TO.N,DISTGND*%
X196890000Y-129450000D02*
X213149138Y-129450000D01*
%TO.N,DIST+12*%
X85500000Y-124860000D02*
X85500000Y-123657919D01*
%TO.N,DISTGND*%
X108040000Y-127759138D02*
X108040000Y-127400000D01*
X194840000Y-127400000D02*
X196890000Y-129450000D01*
X224560000Y-127400000D02*
X225900000Y-128740000D01*
X213149138Y-129450000D02*
X214840000Y-127759138D01*
%TO.N,DIST+12*%
X104132030Y-122289949D02*
X105500000Y-123657919D01*
%TO.N,DISTGND*%
X88040000Y-124860000D02*
X88040000Y-127400000D01*
X117760000Y-127400000D02*
X119100000Y-128740000D01*
X119100000Y-128740000D02*
X119100000Y-130300000D01*
%TO.N,DIST+12*%
X85500000Y-123657919D02*
X86867970Y-122289949D01*
X86867970Y-122289949D02*
X104132030Y-122289949D01*
%TO.N,DISTGND*%
X172500000Y-114940000D02*
X172500000Y-116500000D01*
%TO.N,DIST+12*%
X157532030Y-108489949D02*
X158900000Y-109857919D01*
%TO.N,DISTGND*%
X88040000Y-113600000D02*
X90090000Y-115650000D01*
%TO.N,DIST+12*%
X116149949Y-108489949D02*
X116560000Y-108900000D01*
X158900000Y-109857919D02*
X160267970Y-108489949D01*
%TO.N,DISTGND*%
X108040000Y-111060000D02*
X108040000Y-113600000D01*
%TO.N,DIST+12*%
X158900000Y-111060000D02*
X158900000Y-109857919D01*
%TO.N,DIST-12*%
X127900000Y-108900000D02*
X127900000Y-116500000D01*
%TO.N,DIST+12*%
X138900000Y-111060000D02*
X138900000Y-109857919D01*
%TO.N,DISTGND*%
X225900000Y-108900000D02*
X225900000Y-116500000D01*
%TO.N,DIST+12*%
X192300000Y-111060000D02*
X192300000Y-113600000D01*
%TO.N,DISTGND*%
X159749138Y-115650000D02*
X161440000Y-113959138D01*
%TO.N,DIST+12*%
X160267970Y-108489949D02*
X169549949Y-108489949D01*
%TO.N,DISTGND*%
X141440000Y-111060000D02*
X141440000Y-113600000D01*
X141440000Y-113600000D02*
X143490000Y-115650000D01*
%TO.N,DIST+12*%
X106867970Y-108489949D02*
X116149949Y-108489949D01*
%TO.N,DISTGND*%
X90090000Y-115650000D02*
X106349138Y-115650000D01*
X161440000Y-113959138D02*
X161440000Y-113600000D01*
%TO.N,DIST+12*%
X105500000Y-111060000D02*
X105500000Y-109857919D01*
%TO.N,DISTGND*%
X106349138Y-115650000D02*
X108040000Y-113959138D01*
%TO.N,DIST+12*%
X138900000Y-111060000D02*
X138900000Y-113600000D01*
%TO.N,DISTGND*%
X161440000Y-111060000D02*
X161440000Y-113600000D01*
%TO.N,DIST+12*%
X138900000Y-109857919D02*
X140267970Y-108489949D01*
%TO.N,DISTGND*%
X172500000Y-108900000D02*
X172500000Y-116500000D01*
X171160000Y-113600000D02*
X172500000Y-114940000D01*
%TO.N,DIST+12*%
X192300000Y-109857919D02*
X193667970Y-108489949D01*
X140267970Y-108489949D02*
X157532030Y-108489949D01*
%TO.N,DISTGND*%
X161440000Y-113600000D02*
X171160000Y-113600000D01*
X143490000Y-115650000D02*
X159749138Y-115650000D01*
%TO.N,DIST+12*%
X169549949Y-108489949D02*
X169960000Y-108900000D01*
%TO.N,DISTGND*%
X119100000Y-108900000D02*
X119100000Y-116500000D01*
X194840000Y-111060000D02*
X194840000Y-113600000D01*
%TO.N,DIST-12*%
X74500000Y-108900000D02*
X74500000Y-116500000D01*
%TO.N,DIST+12*%
X193667970Y-108489949D02*
X210932030Y-108489949D01*
%TO.N,DISTGND*%
X214840000Y-111060000D02*
X214840000Y-113600000D01*
%TO.N,DIST+12*%
X85500000Y-111060000D02*
X85500000Y-113600000D01*
X222949949Y-108489949D02*
X223360000Y-108900000D01*
X105500000Y-109857919D02*
X106867970Y-108489949D01*
%TO.N,DISTGND*%
X108040000Y-113600000D02*
X117760000Y-113600000D01*
X214840000Y-113959138D02*
X214840000Y-113600000D01*
%TO.N,DIST+12*%
X212300000Y-111060000D02*
X212300000Y-109857919D01*
X192300000Y-111060000D02*
X192300000Y-109857919D01*
X210932030Y-108489949D02*
X212300000Y-109857919D01*
%TO.N,DIST-12*%
X181300000Y-108900000D02*
X181300000Y-116500000D01*
%TO.N,DISTGND*%
X214840000Y-113600000D02*
X224560000Y-113600000D01*
X225900000Y-114940000D02*
X225900000Y-116500000D01*
%TO.N,DIST+12*%
X213667970Y-108489949D02*
X222949949Y-108489949D01*
X212300000Y-109857919D02*
X213667970Y-108489949D01*
%TO.N,DISTGND*%
X196890000Y-115650000D02*
X213149138Y-115650000D01*
%TO.N,DIST+12*%
X85500000Y-111060000D02*
X85500000Y-109857919D01*
%TO.N,DISTGND*%
X108040000Y-113959138D02*
X108040000Y-113600000D01*
X194840000Y-113600000D02*
X196890000Y-115650000D01*
X224560000Y-113600000D02*
X225900000Y-114940000D01*
X213149138Y-115650000D02*
X214840000Y-113959138D01*
%TO.N,DIST+12*%
X104132030Y-108489949D02*
X105500000Y-109857919D01*
%TO.N,DISTGND*%
X88040000Y-111060000D02*
X88040000Y-113600000D01*
X117760000Y-113600000D02*
X119100000Y-114940000D01*
X119100000Y-114940000D02*
X119100000Y-116500000D01*
%TO.N,DIST+12*%
X85500000Y-109857919D02*
X86867970Y-108489949D01*
X86867970Y-108489949D02*
X104132030Y-108489949D01*
%TO.N,DISTGND*%
X172500000Y-101140000D02*
X172500000Y-102700000D01*
%TO.N,DIST+12*%
X157532030Y-94689949D02*
X158900000Y-96057919D01*
%TO.N,DISTGND*%
X88040000Y-99800000D02*
X90090000Y-101850000D01*
%TO.N,DIST+12*%
X116149949Y-94689949D02*
X116560000Y-95100000D01*
X158900000Y-96057919D02*
X160267970Y-94689949D01*
%TO.N,DISTGND*%
X108040000Y-97260000D02*
X108040000Y-99800000D01*
%TO.N,DIST+12*%
X158900000Y-97260000D02*
X158900000Y-96057919D01*
%TO.N,DIST-12*%
X127900000Y-95100000D02*
X127900000Y-102700000D01*
%TO.N,DIST+12*%
X138900000Y-97260000D02*
X138900000Y-96057919D01*
%TO.N,DISTGND*%
X225900000Y-95100000D02*
X225900000Y-102700000D01*
%TO.N,DIST+12*%
X192300000Y-97260000D02*
X192300000Y-99800000D01*
%TO.N,DISTGND*%
X159749138Y-101850000D02*
X161440000Y-100159138D01*
%TO.N,DIST+12*%
X160267970Y-94689949D02*
X169549949Y-94689949D01*
%TO.N,DISTGND*%
X141440000Y-97260000D02*
X141440000Y-99800000D01*
X141440000Y-99800000D02*
X143490000Y-101850000D01*
%TO.N,DIST+12*%
X106867970Y-94689949D02*
X116149949Y-94689949D01*
%TO.N,DISTGND*%
X90090000Y-101850000D02*
X106349138Y-101850000D01*
X161440000Y-100159138D02*
X161440000Y-99800000D01*
%TO.N,DIST+12*%
X105500000Y-97260000D02*
X105500000Y-96057919D01*
%TO.N,DISTGND*%
X106349138Y-101850000D02*
X108040000Y-100159138D01*
%TO.N,DIST+12*%
X138900000Y-97260000D02*
X138900000Y-99800000D01*
%TO.N,DISTGND*%
X161440000Y-97260000D02*
X161440000Y-99800000D01*
%TO.N,DIST+12*%
X138900000Y-96057919D02*
X140267970Y-94689949D01*
%TO.N,DISTGND*%
X172500000Y-95100000D02*
X172500000Y-102700000D01*
X171160000Y-99800000D02*
X172500000Y-101140000D01*
%TO.N,DIST+12*%
X192300000Y-96057919D02*
X193667970Y-94689949D01*
X140267970Y-94689949D02*
X157532030Y-94689949D01*
%TO.N,DISTGND*%
X161440000Y-99800000D02*
X171160000Y-99800000D01*
X143490000Y-101850000D02*
X159749138Y-101850000D01*
%TO.N,DIST+12*%
X169549949Y-94689949D02*
X169960000Y-95100000D01*
%TO.N,DISTGND*%
X119100000Y-95100000D02*
X119100000Y-102700000D01*
X194840000Y-97260000D02*
X194840000Y-99800000D01*
%TO.N,DIST-12*%
X74500000Y-95100000D02*
X74500000Y-102700000D01*
%TO.N,DIST+12*%
X193667970Y-94689949D02*
X210932030Y-94689949D01*
%TO.N,DISTGND*%
X214840000Y-97260000D02*
X214840000Y-99800000D01*
%TO.N,DIST+12*%
X85500000Y-97260000D02*
X85500000Y-99800000D01*
X222949949Y-94689949D02*
X223360000Y-95100000D01*
X105500000Y-96057919D02*
X106867970Y-94689949D01*
%TO.N,DISTGND*%
X108040000Y-99800000D02*
X117760000Y-99800000D01*
X214840000Y-100159138D02*
X214840000Y-99800000D01*
%TO.N,DIST+12*%
X212300000Y-97260000D02*
X212300000Y-96057919D01*
X192300000Y-97260000D02*
X192300000Y-96057919D01*
X210932030Y-94689949D02*
X212300000Y-96057919D01*
%TO.N,DIST-12*%
X181300000Y-95100000D02*
X181300000Y-102700000D01*
%TO.N,DISTGND*%
X214840000Y-99800000D02*
X224560000Y-99800000D01*
X225900000Y-101140000D02*
X225900000Y-102700000D01*
%TO.N,DIST+12*%
X213667970Y-94689949D02*
X222949949Y-94689949D01*
X212300000Y-96057919D02*
X213667970Y-94689949D01*
%TO.N,DISTGND*%
X196890000Y-101850000D02*
X213149138Y-101850000D01*
%TO.N,DIST+12*%
X85500000Y-97260000D02*
X85500000Y-96057919D01*
%TO.N,DISTGND*%
X108040000Y-100159138D02*
X108040000Y-99800000D01*
X194840000Y-99800000D02*
X196890000Y-101850000D01*
X224560000Y-99800000D02*
X225900000Y-101140000D01*
X213149138Y-101850000D02*
X214840000Y-100159138D01*
%TO.N,DIST+12*%
X104132030Y-94689949D02*
X105500000Y-96057919D01*
%TO.N,DISTGND*%
X88040000Y-97260000D02*
X88040000Y-99800000D01*
X117760000Y-99800000D02*
X119100000Y-101140000D01*
X119100000Y-101140000D02*
X119100000Y-102700000D01*
%TO.N,DIST+12*%
X85500000Y-96057919D02*
X86867970Y-94689949D01*
X86867970Y-94689949D02*
X104132030Y-94689949D01*
%TO.N,DISTGND*%
X172500000Y-87340000D02*
X172500000Y-88900000D01*
%TO.N,DIST+12*%
X157532030Y-80889949D02*
X158900000Y-82257919D01*
%TO.N,DISTGND*%
X88040000Y-86000000D02*
X90090000Y-88050000D01*
%TO.N,DIST+12*%
X116149949Y-80889949D02*
X116560000Y-81300000D01*
X158900000Y-82257919D02*
X160267970Y-80889949D01*
%TO.N,DISTGND*%
X108040000Y-83460000D02*
X108040000Y-86000000D01*
%TO.N,DIST+12*%
X158900000Y-83460000D02*
X158900000Y-82257919D01*
%TO.N,DIST-12*%
X127900000Y-81300000D02*
X127900000Y-88900000D01*
%TO.N,DIST+12*%
X138900000Y-83460000D02*
X138900000Y-82257919D01*
%TO.N,DISTGND*%
X225900000Y-81300000D02*
X225900000Y-88900000D01*
%TO.N,DIST+12*%
X192300000Y-83460000D02*
X192300000Y-86000000D01*
%TO.N,DISTGND*%
X159749138Y-88050000D02*
X161440000Y-86359138D01*
%TO.N,DIST+12*%
X160267970Y-80889949D02*
X169549949Y-80889949D01*
%TO.N,DISTGND*%
X141440000Y-83460000D02*
X141440000Y-86000000D01*
X141440000Y-86000000D02*
X143490000Y-88050000D01*
%TO.N,DIST+12*%
X106867970Y-80889949D02*
X116149949Y-80889949D01*
%TO.N,DISTGND*%
X90090000Y-88050000D02*
X106349138Y-88050000D01*
X161440000Y-86359138D02*
X161440000Y-86000000D01*
%TO.N,DIST+12*%
X105500000Y-83460000D02*
X105500000Y-82257919D01*
%TO.N,DISTGND*%
X106349138Y-88050000D02*
X108040000Y-86359138D01*
%TO.N,DIST+12*%
X138900000Y-83460000D02*
X138900000Y-86000000D01*
%TO.N,DISTGND*%
X161440000Y-83460000D02*
X161440000Y-86000000D01*
%TO.N,DIST+12*%
X138900000Y-82257919D02*
X140267970Y-80889949D01*
%TO.N,DISTGND*%
X172500000Y-81300000D02*
X172500000Y-88900000D01*
X171160000Y-86000000D02*
X172500000Y-87340000D01*
%TO.N,DIST+12*%
X192300000Y-82257919D02*
X193667970Y-80889949D01*
X140267970Y-80889949D02*
X157532030Y-80889949D01*
%TO.N,DISTGND*%
X161440000Y-86000000D02*
X171160000Y-86000000D01*
X143490000Y-88050000D02*
X159749138Y-88050000D01*
%TO.N,DIST+12*%
X169549949Y-80889949D02*
X169960000Y-81300000D01*
%TO.N,DISTGND*%
X119100000Y-81300000D02*
X119100000Y-88900000D01*
X194840000Y-83460000D02*
X194840000Y-86000000D01*
%TO.N,DIST-12*%
X74500000Y-81300000D02*
X74500000Y-88900000D01*
%TO.N,DIST+12*%
X193667970Y-80889949D02*
X210932030Y-80889949D01*
%TO.N,DISTGND*%
X214840000Y-83460000D02*
X214840000Y-86000000D01*
%TO.N,DIST+12*%
X85500000Y-83460000D02*
X85500000Y-86000000D01*
X222949949Y-80889949D02*
X223360000Y-81300000D01*
X105500000Y-82257919D02*
X106867970Y-80889949D01*
%TO.N,DISTGND*%
X108040000Y-86000000D02*
X117760000Y-86000000D01*
X214840000Y-86359138D02*
X214840000Y-86000000D01*
%TO.N,DIST+12*%
X212300000Y-83460000D02*
X212300000Y-82257919D01*
X192300000Y-83460000D02*
X192300000Y-82257919D01*
X210932030Y-80889949D02*
X212300000Y-82257919D01*
%TO.N,DIST-12*%
X181300000Y-81300000D02*
X181300000Y-88900000D01*
%TO.N,DISTGND*%
X214840000Y-86000000D02*
X224560000Y-86000000D01*
X225900000Y-87340000D02*
X225900000Y-88900000D01*
%TO.N,DIST+12*%
X213667970Y-80889949D02*
X222949949Y-80889949D01*
X212300000Y-82257919D02*
X213667970Y-80889949D01*
%TO.N,DISTGND*%
X196890000Y-88050000D02*
X213149138Y-88050000D01*
%TO.N,DIST+12*%
X85500000Y-83460000D02*
X85500000Y-82257919D01*
%TO.N,DISTGND*%
X108040000Y-86359138D02*
X108040000Y-86000000D01*
X194840000Y-86000000D02*
X196890000Y-88050000D01*
X224560000Y-86000000D02*
X225900000Y-87340000D01*
X213149138Y-88050000D02*
X214840000Y-86359138D01*
%TO.N,DIST+12*%
X104132030Y-80889949D02*
X105500000Y-82257919D01*
%TO.N,DISTGND*%
X88040000Y-83460000D02*
X88040000Y-86000000D01*
X117760000Y-86000000D02*
X119100000Y-87340000D01*
X119100000Y-87340000D02*
X119100000Y-88900000D01*
%TO.N,DIST+12*%
X85500000Y-82257919D02*
X86867970Y-80889949D01*
X86867970Y-80889949D02*
X104132030Y-80889949D01*
%TO.N,DISTGND*%
X172500000Y-73540000D02*
X172500000Y-75100000D01*
%TO.N,DIST+12*%
X157532030Y-67089949D02*
X158900000Y-68457919D01*
%TO.N,DISTGND*%
X88040000Y-72200000D02*
X90090000Y-74250000D01*
%TO.N,DIST+12*%
X116149949Y-67089949D02*
X116560000Y-67500000D01*
X158900000Y-68457919D02*
X160267970Y-67089949D01*
%TO.N,DISTGND*%
X108040000Y-69660000D02*
X108040000Y-72200000D01*
%TO.N,DIST+12*%
X158900000Y-69660000D02*
X158900000Y-68457919D01*
%TO.N,DIST-12*%
X127900000Y-67500000D02*
X127900000Y-75100000D01*
%TO.N,DIST+12*%
X138900000Y-69660000D02*
X138900000Y-68457919D01*
%TO.N,DISTGND*%
X225900000Y-67500000D02*
X225900000Y-75100000D01*
%TO.N,DIST+12*%
X192300000Y-69660000D02*
X192300000Y-72200000D01*
%TO.N,DISTGND*%
X159749138Y-74250000D02*
X161440000Y-72559138D01*
%TO.N,DIST+12*%
X160267970Y-67089949D02*
X169549949Y-67089949D01*
%TO.N,DISTGND*%
X141440000Y-69660000D02*
X141440000Y-72200000D01*
X141440000Y-72200000D02*
X143490000Y-74250000D01*
%TO.N,DIST+12*%
X106867970Y-67089949D02*
X116149949Y-67089949D01*
%TO.N,DISTGND*%
X90090000Y-74250000D02*
X106349138Y-74250000D01*
X161440000Y-72559138D02*
X161440000Y-72200000D01*
%TO.N,DIST+12*%
X105500000Y-69660000D02*
X105500000Y-68457919D01*
%TO.N,DISTGND*%
X106349138Y-74250000D02*
X108040000Y-72559138D01*
%TO.N,DIST+12*%
X138900000Y-69660000D02*
X138900000Y-72200000D01*
%TO.N,DISTGND*%
X161440000Y-69660000D02*
X161440000Y-72200000D01*
%TO.N,DIST+12*%
X138900000Y-68457919D02*
X140267970Y-67089949D01*
%TO.N,DISTGND*%
X172500000Y-67500000D02*
X172500000Y-75100000D01*
X171160000Y-72200000D02*
X172500000Y-73540000D01*
%TO.N,DIST+12*%
X192300000Y-68457919D02*
X193667970Y-67089949D01*
X140267970Y-67089949D02*
X157532030Y-67089949D01*
%TO.N,DISTGND*%
X161440000Y-72200000D02*
X171160000Y-72200000D01*
X143490000Y-74250000D02*
X159749138Y-74250000D01*
%TO.N,DIST+12*%
X169549949Y-67089949D02*
X169960000Y-67500000D01*
%TO.N,DISTGND*%
X119100000Y-67500000D02*
X119100000Y-75100000D01*
X194840000Y-69660000D02*
X194840000Y-72200000D01*
%TO.N,DIST-12*%
X74500000Y-67500000D02*
X74500000Y-75100000D01*
%TO.N,DIST+12*%
X193667970Y-67089949D02*
X210932030Y-67089949D01*
%TO.N,DISTGND*%
X214840000Y-69660000D02*
X214840000Y-72200000D01*
%TO.N,DIST+12*%
X85500000Y-69660000D02*
X85500000Y-72200000D01*
X222949949Y-67089949D02*
X223360000Y-67500000D01*
X105500000Y-68457919D02*
X106867970Y-67089949D01*
%TO.N,DISTGND*%
X108040000Y-72200000D02*
X117760000Y-72200000D01*
X214840000Y-72559138D02*
X214840000Y-72200000D01*
%TO.N,DIST+12*%
X212300000Y-69660000D02*
X212300000Y-68457919D01*
X192300000Y-69660000D02*
X192300000Y-68457919D01*
X210932030Y-67089949D02*
X212300000Y-68457919D01*
%TO.N,DIST-12*%
X181300000Y-67500000D02*
X181300000Y-75100000D01*
%TO.N,DISTGND*%
X214840000Y-72200000D02*
X224560000Y-72200000D01*
X225900000Y-73540000D02*
X225900000Y-75100000D01*
%TO.N,DIST+12*%
X213667970Y-67089949D02*
X222949949Y-67089949D01*
X212300000Y-68457919D02*
X213667970Y-67089949D01*
%TO.N,DISTGND*%
X196890000Y-74250000D02*
X213149138Y-74250000D01*
%TO.N,DIST+12*%
X85500000Y-69660000D02*
X85500000Y-68457919D01*
%TO.N,DISTGND*%
X108040000Y-72559138D02*
X108040000Y-72200000D01*
X194840000Y-72200000D02*
X196890000Y-74250000D01*
X224560000Y-72200000D02*
X225900000Y-73540000D01*
X213149138Y-74250000D02*
X214840000Y-72559138D01*
%TO.N,DIST+12*%
X104132030Y-67089949D02*
X105500000Y-68457919D01*
%TO.N,DISTGND*%
X88040000Y-69660000D02*
X88040000Y-72200000D01*
X117760000Y-72200000D02*
X119100000Y-73540000D01*
X119100000Y-73540000D02*
X119100000Y-75100000D01*
%TO.N,DIST+12*%
X85500000Y-68457919D02*
X86867970Y-67089949D01*
X86867970Y-67089949D02*
X104132030Y-67089949D01*
X105500000Y-55860000D02*
X105500000Y-54657919D01*
%TO.N,DISTGND*%
X141440000Y-55860000D02*
X141440000Y-58400000D01*
%TO.N,DIST+12*%
X106867970Y-53289949D02*
X116149949Y-53289949D01*
X138900000Y-55860000D02*
X138900000Y-58400000D01*
X138900000Y-54657919D02*
X140267970Y-53289949D01*
%TO.N,DISTGND*%
X172500000Y-53700000D02*
X172500000Y-61300000D01*
%TO.N,DIST+12*%
X140267970Y-53289949D02*
X157532030Y-53289949D01*
%TO.N,DISTGND*%
X90090000Y-60450000D02*
X106349138Y-60450000D01*
X108040000Y-55860000D02*
X108040000Y-58400000D01*
%TO.N,DIST+12*%
X116149949Y-53289949D02*
X116560000Y-53700000D01*
%TO.N,DISTGND*%
X88040000Y-58400000D02*
X90090000Y-60450000D01*
X106349138Y-60450000D02*
X108040000Y-58759138D01*
%TO.N,DIST-12*%
X127900000Y-53700000D02*
X127900000Y-61300000D01*
%TO.N,DISTGND*%
X172500000Y-59740000D02*
X172500000Y-61300000D01*
%TO.N,DIST+12*%
X138900000Y-55860000D02*
X138900000Y-54657919D01*
%TO.N,DISTGND*%
X161440000Y-58400000D02*
X171160000Y-58400000D01*
X171160000Y-58400000D02*
X172500000Y-59740000D01*
X161440000Y-58759138D02*
X161440000Y-58400000D01*
%TO.N,DIST+12*%
X158900000Y-54657919D02*
X160267970Y-53289949D01*
X157532030Y-53289949D02*
X158900000Y-54657919D01*
%TO.N,DISTGND*%
X143490000Y-60450000D02*
X159749138Y-60450000D01*
X161440000Y-55860000D02*
X161440000Y-58400000D01*
X141440000Y-58400000D02*
X143490000Y-60450000D01*
X159749138Y-60450000D02*
X161440000Y-58759138D01*
%TO.N,DIST+12*%
X158900000Y-55860000D02*
X158900000Y-54657919D01*
X160267970Y-53289949D02*
X169549949Y-53289949D01*
X169549949Y-53289949D02*
X169960000Y-53700000D01*
X192300000Y-54657919D02*
X193667970Y-53289949D01*
%TO.N,DISTGND*%
X225900000Y-53700000D02*
X225900000Y-61300000D01*
%TO.N,DIST+12*%
X192300000Y-55860000D02*
X192300000Y-58400000D01*
%TO.N,DISTGND*%
X194840000Y-55860000D02*
X194840000Y-58400000D01*
%TO.N,DIST+12*%
X193667970Y-53289949D02*
X210932030Y-53289949D01*
X210932030Y-53289949D02*
X212300000Y-54657919D01*
%TO.N,DISTGND*%
X214840000Y-55860000D02*
X214840000Y-58400000D01*
%TO.N,DIST+12*%
X222949949Y-53289949D02*
X223360000Y-53700000D01*
%TO.N,DISTGND*%
X214840000Y-58400000D02*
X224560000Y-58400000D01*
X194840000Y-58400000D02*
X196890000Y-60450000D01*
X224560000Y-58400000D02*
X225900000Y-59740000D01*
%TO.N,DIST-12*%
X181300000Y-53700000D02*
X181300000Y-61300000D01*
%TO.N,DIST+12*%
X212300000Y-54657919D02*
X213667970Y-53289949D01*
%TO.N,DISTGND*%
X196890000Y-60450000D02*
X213149138Y-60450000D01*
X225900000Y-59740000D02*
X225900000Y-61300000D01*
X213149138Y-60450000D02*
X214840000Y-58759138D01*
%TO.N,DIST+12*%
X192300000Y-55860000D02*
X192300000Y-54657919D01*
X213667970Y-53289949D02*
X222949949Y-53289949D01*
%TO.N,DISTGND*%
X214840000Y-58759138D02*
X214840000Y-58400000D01*
%TO.N,DIST+12*%
X212300000Y-55860000D02*
X212300000Y-54657919D01*
X85500000Y-54657919D02*
X86867970Y-53289949D01*
%TO.N,DISTGND*%
X119100000Y-53700000D02*
X119100000Y-61300000D01*
%TO.N,DIST+12*%
X86867970Y-53289949D02*
X104132030Y-53289949D01*
X105500000Y-54657919D02*
X106867970Y-53289949D01*
X85500000Y-55860000D02*
X85500000Y-54657919D01*
%TO.N,DIST-12*%
X74500000Y-53700000D02*
X74500000Y-61300000D01*
%TO.N,DISTGND*%
X117760000Y-58400000D02*
X119100000Y-59740000D01*
%TO.N,DIST+12*%
X85500000Y-55860000D02*
X85500000Y-58400000D01*
X104132030Y-53289949D02*
X105500000Y-54657919D01*
%TO.N,DISTGND*%
X108040000Y-58400000D02*
X117760000Y-58400000D01*
X108040000Y-58759138D02*
X108040000Y-58400000D01*
X88040000Y-55860000D02*
X88040000Y-58400000D01*
X119100000Y-59740000D02*
X119100000Y-61300000D01*
X88040000Y-42060000D02*
X88040000Y-44600000D01*
%TO.N,DIST+12*%
X85500000Y-42060000D02*
X85500000Y-44600000D01*
X85500000Y-40857919D02*
X86867970Y-39489949D01*
%TO.N,DISTGND*%
X119100000Y-39900000D02*
X119100000Y-47500000D01*
%TO.N,DIST+12*%
X86867970Y-39489949D02*
X104132030Y-39489949D01*
%TO.N,DIST-12*%
X74500000Y-39900000D02*
X74500000Y-47500000D01*
%TO.N,DISTGND*%
X119100000Y-45940000D02*
X119100000Y-47500000D01*
%TO.N,DIST+12*%
X85500000Y-42060000D02*
X85500000Y-40857919D01*
%TO.N,DISTGND*%
X108040000Y-44600000D02*
X117760000Y-44600000D01*
X117760000Y-44600000D02*
X119100000Y-45940000D01*
X108040000Y-44959138D02*
X108040000Y-44600000D01*
%TO.N,DIST+12*%
X105500000Y-40857919D02*
X106867970Y-39489949D01*
X104132030Y-39489949D02*
X105500000Y-40857919D01*
%TO.N,DISTGND*%
X90090000Y-46650000D02*
X106349138Y-46650000D01*
X108040000Y-42060000D02*
X108040000Y-44600000D01*
X88040000Y-44600000D02*
X90090000Y-46650000D01*
X106349138Y-46650000D02*
X108040000Y-44959138D01*
%TO.N,DIST+12*%
X105500000Y-42060000D02*
X105500000Y-40857919D01*
X106867970Y-39489949D02*
X116149949Y-39489949D01*
X116149949Y-39489949D02*
X116560000Y-39900000D01*
X138900000Y-40857919D02*
X140267970Y-39489949D01*
%TO.N,DISTGND*%
X172500000Y-39900000D02*
X172500000Y-47500000D01*
%TO.N,DIST+12*%
X138900000Y-42060000D02*
X138900000Y-44600000D01*
%TO.N,DISTGND*%
X141440000Y-42060000D02*
X141440000Y-44600000D01*
%TO.N,DIST+12*%
X140267970Y-39489949D02*
X157532030Y-39489949D01*
X157532030Y-39489949D02*
X158900000Y-40857919D01*
%TO.N,DISTGND*%
X161440000Y-42060000D02*
X161440000Y-44600000D01*
%TO.N,DIST+12*%
X169549949Y-39489949D02*
X169960000Y-39900000D01*
%TO.N,DISTGND*%
X161440000Y-44600000D02*
X171160000Y-44600000D01*
X141440000Y-44600000D02*
X143490000Y-46650000D01*
X171160000Y-44600000D02*
X172500000Y-45940000D01*
%TO.N,DIST-12*%
X127900000Y-39900000D02*
X127900000Y-47500000D01*
%TO.N,DIST+12*%
X158900000Y-40857919D02*
X160267970Y-39489949D01*
%TO.N,DISTGND*%
X143490000Y-46650000D02*
X159749138Y-46650000D01*
X172500000Y-45940000D02*
X172500000Y-47500000D01*
X159749138Y-46650000D02*
X161440000Y-44959138D01*
%TO.N,DIST+12*%
X138900000Y-42060000D02*
X138900000Y-40857919D01*
X160267970Y-39489949D02*
X169549949Y-39489949D01*
%TO.N,DISTGND*%
X161440000Y-44959138D02*
X161440000Y-44600000D01*
%TO.N,DIST+12*%
X158900000Y-42060000D02*
X158900000Y-40857919D01*
X192300000Y-42060000D02*
X192300000Y-40857919D01*
X213667970Y-39489949D02*
X222949949Y-39489949D01*
X212300000Y-42060000D02*
X212300000Y-40857919D01*
X192300000Y-42060000D02*
X192300000Y-44600000D01*
X222949949Y-39489949D02*
X223360000Y-39900000D01*
X193667970Y-39489949D02*
X210932030Y-39489949D01*
X212300000Y-40857919D02*
X213667970Y-39489949D01*
X192300000Y-40857919D02*
X193667970Y-39489949D01*
X210932030Y-39489949D02*
X212300000Y-40857919D01*
%TO.N,DISTGND*%
X214840000Y-44959138D02*
X214840000Y-44600000D01*
X214840000Y-44600000D02*
X224560000Y-44600000D01*
X224560000Y-44600000D02*
X225900000Y-45940000D01*
%TO.N,DIST-12*%
X181300000Y-39900000D02*
X181300000Y-47500000D01*
%TO.N,DISTGND*%
X225900000Y-45940000D02*
X225900000Y-47500000D01*
X194840000Y-44600000D02*
X196890000Y-46650000D01*
X194840000Y-42060000D02*
X194840000Y-44600000D01*
X214840000Y-42060000D02*
X214840000Y-44600000D01*
X225900000Y-39900000D02*
X225900000Y-47500000D01*
X213149138Y-46650000D02*
X214840000Y-44959138D01*
X196890000Y-46650000D02*
X213149138Y-46650000D01*
%TD*%
M02*
