%TF.GenerationSoftware,KiCad,Pcbnew,9.0.0*%
%TF.CreationDate,2025-07-31T17:24:48+02:00*%
%TF.ProjectId,Bridge,42726964-6765-42e6-9b69-6361645f7063,rev?*%
%TF.SameCoordinates,Original*%
%TF.FileFunction,Soldermask,Top*%
%TF.FilePolarity,Negative*%
%FSLAX46Y46*%
G04 Gerber Fmt 4.6, Leading zero omitted, Abs format (unit mm)*
G04 Created by KiCad (PCBNEW 9.0.0) date 2025-07-31 17:24:48*
%MOMM*%
%LPD*%
G01*
G04 APERTURE LIST*
G04 Aperture macros list*
%AMRoundRect*
0 Rectangle with rounded corners*
0 $1 Rounding radius*
0 $2 $3 $4 $5 $6 $7 $8 $9 X,Y pos of 4 corners*
0 Add a 4 corners polygon primitive as box body*
4,1,4,$2,$3,$4,$5,$6,$7,$8,$9,$2,$3,0*
0 Add four circle primitives for the rounded corners*
1,1,$1+$1,$2,$3*
1,1,$1+$1,$4,$5*
1,1,$1+$1,$6,$7*
1,1,$1+$1,$8,$9*
0 Add four rect primitives between the rounded corners*
20,1,$1+$1,$2,$3,$4,$5,0*
20,1,$1+$1,$4,$5,$6,$7,0*
20,1,$1+$1,$6,$7,$8,$9,0*
20,1,$1+$1,$8,$9,$2,$3,0*%
G04 Aperture macros list end*
%ADD10C,1.700000*%
%ADD11RoundRect,0.250000X0.600000X-0.600000X0.600000X0.600000X-0.600000X0.600000X-0.600000X-0.600000X0*%
%ADD12R,1.700000X1.700000*%
%ADD13O,1.700000X1.700000*%
%ADD14C,0.500000*%
G04 APERTURE END LIST*
D10*
%TO.C,J4*%
X141440000Y-55860000D03*
X141440000Y-58400000D03*
X138900000Y-55860000D03*
X138900000Y-58400000D03*
X136360000Y-55860000D03*
D11*
X136360000Y-58400000D03*
%TD*%
D10*
%TO.C,J1*%
X161440000Y-55860000D03*
X161440000Y-58400000D03*
X158900000Y-55860000D03*
X158900000Y-58400000D03*
X156360000Y-55860000D03*
D11*
X156360000Y-58400000D03*
%TD*%
D10*
%TO.C,J1*%
X108040000Y-55860000D03*
X108040000Y-58400000D03*
X105500000Y-55860000D03*
X105500000Y-58400000D03*
X102960000Y-55860000D03*
D11*
X102960000Y-58400000D03*
%TD*%
D10*
%TO.C,J4*%
X88040000Y-55860000D03*
X88040000Y-58400000D03*
X85500000Y-55860000D03*
X85500000Y-58400000D03*
X82960000Y-55860000D03*
D11*
X82960000Y-58400000D03*
%TD*%
D10*
%TO.C,J1*%
X214840000Y-42060000D03*
X214840000Y-44600000D03*
X212300000Y-42060000D03*
X212300000Y-44600000D03*
X209760000Y-42060000D03*
D11*
X209760000Y-44600000D03*
%TD*%
D10*
%TO.C,J1*%
X214840000Y-55860000D03*
X214840000Y-58400000D03*
X212300000Y-55860000D03*
X212300000Y-58400000D03*
X209760000Y-55860000D03*
D11*
X209760000Y-58400000D03*
%TD*%
D10*
%TO.C,J4*%
X194840000Y-55860000D03*
X194840000Y-58400000D03*
X192300000Y-55860000D03*
X192300000Y-58400000D03*
X189760000Y-55860000D03*
D11*
X189760000Y-58400000D03*
%TD*%
D10*
%TO.C,J4*%
X194840000Y-42060000D03*
X194840000Y-44600000D03*
X192300000Y-42060000D03*
X192300000Y-44600000D03*
X189760000Y-42060000D03*
D11*
X189760000Y-44600000D03*
%TD*%
D10*
%TO.C,J4*%
X194840000Y-69660000D03*
X194840000Y-72200000D03*
X192300000Y-69660000D03*
X192300000Y-72200000D03*
X189760000Y-69660000D03*
D11*
X189760000Y-72200000D03*
%TD*%
D10*
%TO.C,J1*%
X214840000Y-69660000D03*
X214840000Y-72200000D03*
X212300000Y-69660000D03*
X212300000Y-72200000D03*
X209760000Y-69660000D03*
D11*
X209760000Y-72200000D03*
%TD*%
D10*
%TO.C,J1*%
X214840000Y-83460000D03*
X214840000Y-86000000D03*
X212300000Y-83460000D03*
X212300000Y-86000000D03*
X209760000Y-83460000D03*
D11*
X209760000Y-86000000D03*
%TD*%
D10*
%TO.C,J4*%
X194840000Y-83460000D03*
X194840000Y-86000000D03*
X192300000Y-83460000D03*
X192300000Y-86000000D03*
X189760000Y-83460000D03*
D11*
X189760000Y-86000000D03*
%TD*%
D10*
%TO.C,J4*%
X194840000Y-97260000D03*
X194840000Y-99800000D03*
X192300000Y-97260000D03*
X192300000Y-99800000D03*
X189760000Y-97260000D03*
D11*
X189760000Y-99800000D03*
%TD*%
D10*
%TO.C,J1*%
X214840000Y-97260000D03*
X214840000Y-99800000D03*
X212300000Y-97260000D03*
X212300000Y-99800000D03*
X209760000Y-97260000D03*
D11*
X209760000Y-99800000D03*
%TD*%
D10*
%TO.C,J1*%
X214840000Y-111060000D03*
X214840000Y-113600000D03*
X212300000Y-111060000D03*
X212300000Y-113600000D03*
X209760000Y-111060000D03*
D11*
X209760000Y-113600000D03*
%TD*%
D10*
%TO.C,J4*%
X194840000Y-111060000D03*
X194840000Y-113600000D03*
X192300000Y-111060000D03*
X192300000Y-113600000D03*
X189760000Y-111060000D03*
D11*
X189760000Y-113600000D03*
%TD*%
D10*
%TO.C,J1*%
X214840000Y-124860000D03*
X214840000Y-127400000D03*
X212300000Y-124860000D03*
X212300000Y-127400000D03*
X209760000Y-124860000D03*
D11*
X209760000Y-127400000D03*
%TD*%
D10*
%TO.C,J4*%
X194840000Y-124860000D03*
X194840000Y-127400000D03*
X192300000Y-124860000D03*
X192300000Y-127400000D03*
X189760000Y-124860000D03*
D11*
X189760000Y-127400000D03*
%TD*%
D10*
%TO.C,J4*%
X194840000Y-138660000D03*
X194840000Y-141200000D03*
X192300000Y-138660000D03*
X192300000Y-141200000D03*
X189760000Y-138660000D03*
D11*
X189760000Y-141200000D03*
%TD*%
D10*
%TO.C,J1*%
X214840000Y-138660000D03*
X214840000Y-141200000D03*
X212300000Y-138660000D03*
X212300000Y-141200000D03*
X209760000Y-138660000D03*
D11*
X209760000Y-141200000D03*
%TD*%
D10*
%TO.C,J1*%
X214840000Y-152460000D03*
X214840000Y-155000000D03*
X212300000Y-152460000D03*
X212300000Y-155000000D03*
X209760000Y-152460000D03*
D11*
X209760000Y-155000000D03*
%TD*%
D10*
%TO.C,J4*%
X194840000Y-152460000D03*
X194840000Y-155000000D03*
X192300000Y-152460000D03*
X192300000Y-155000000D03*
X189760000Y-152460000D03*
D11*
X189760000Y-155000000D03*
%TD*%
D10*
%TO.C,J4*%
X194840000Y-166260000D03*
X194840000Y-168800000D03*
X192300000Y-166260000D03*
X192300000Y-168800000D03*
X189760000Y-166260000D03*
D11*
X189760000Y-168800000D03*
%TD*%
D10*
%TO.C,J1*%
X214840000Y-166260000D03*
X214840000Y-168800000D03*
X212300000Y-166260000D03*
X212300000Y-168800000D03*
X209760000Y-166260000D03*
D11*
X209760000Y-168800000D03*
%TD*%
D10*
%TO.C,J1*%
X161440000Y-166260000D03*
X161440000Y-168800000D03*
X158900000Y-166260000D03*
X158900000Y-168800000D03*
X156360000Y-166260000D03*
D11*
X156360000Y-168800000D03*
%TD*%
D10*
%TO.C,J4*%
X141440000Y-166260000D03*
X141440000Y-168800000D03*
X138900000Y-166260000D03*
X138900000Y-168800000D03*
X136360000Y-166260000D03*
D11*
X136360000Y-168800000D03*
%TD*%
D10*
%TO.C,J4*%
X141440000Y-152460000D03*
X141440000Y-155000000D03*
X138900000Y-152460000D03*
X138900000Y-155000000D03*
X136360000Y-152460000D03*
D11*
X136360000Y-155000000D03*
%TD*%
D10*
%TO.C,J1*%
X161440000Y-152460000D03*
X161440000Y-155000000D03*
X158900000Y-152460000D03*
X158900000Y-155000000D03*
X156360000Y-152460000D03*
D11*
X156360000Y-155000000D03*
%TD*%
D10*
%TO.C,J1*%
X161440000Y-138660000D03*
X161440000Y-141200000D03*
X158900000Y-138660000D03*
X158900000Y-141200000D03*
X156360000Y-138660000D03*
D11*
X156360000Y-141200000D03*
%TD*%
D10*
%TO.C,J4*%
X141440000Y-138660000D03*
X141440000Y-141200000D03*
X138900000Y-138660000D03*
X138900000Y-141200000D03*
X136360000Y-138660000D03*
D11*
X136360000Y-141200000D03*
%TD*%
D10*
%TO.C,J4*%
X141440000Y-124860000D03*
X141440000Y-127400000D03*
X138900000Y-124860000D03*
X138900000Y-127400000D03*
X136360000Y-124860000D03*
D11*
X136360000Y-127400000D03*
%TD*%
D10*
%TO.C,J1*%
X161440000Y-124860000D03*
X161440000Y-127400000D03*
X158900000Y-124860000D03*
X158900000Y-127400000D03*
X156360000Y-124860000D03*
D11*
X156360000Y-127400000D03*
%TD*%
D10*
%TO.C,J1*%
X161440000Y-111060000D03*
X161440000Y-113600000D03*
X158900000Y-111060000D03*
X158900000Y-113600000D03*
X156360000Y-111060000D03*
D11*
X156360000Y-113600000D03*
%TD*%
D10*
%TO.C,J4*%
X141440000Y-111060000D03*
X141440000Y-113600000D03*
X138900000Y-111060000D03*
X138900000Y-113600000D03*
X136360000Y-111060000D03*
D11*
X136360000Y-113600000D03*
%TD*%
D10*
%TO.C,J1*%
X108040000Y-166260000D03*
X108040000Y-168800000D03*
X105500000Y-166260000D03*
X105500000Y-168800000D03*
X102960000Y-166260000D03*
D11*
X102960000Y-168800000D03*
%TD*%
D10*
%TO.C,J4*%
X88040000Y-166260000D03*
X88040000Y-168800000D03*
X85500000Y-166260000D03*
X85500000Y-168800000D03*
X82960000Y-166260000D03*
D11*
X82960000Y-168800000D03*
%TD*%
D10*
%TO.C,J4*%
X88040000Y-152460000D03*
X88040000Y-155000000D03*
X85500000Y-152460000D03*
X85500000Y-155000000D03*
X82960000Y-152460000D03*
D11*
X82960000Y-155000000D03*
%TD*%
D10*
%TO.C,J1*%
X108040000Y-152460000D03*
X108040000Y-155000000D03*
X105500000Y-152460000D03*
X105500000Y-155000000D03*
X102960000Y-152460000D03*
D11*
X102960000Y-155000000D03*
%TD*%
D10*
%TO.C,J1*%
X108040000Y-138660000D03*
X108040000Y-141200000D03*
X105500000Y-138660000D03*
X105500000Y-141200000D03*
X102960000Y-138660000D03*
D11*
X102960000Y-141200000D03*
%TD*%
D10*
%TO.C,J4*%
X88040000Y-138660000D03*
X88040000Y-141200000D03*
X85500000Y-138660000D03*
X85500000Y-141200000D03*
X82960000Y-138660000D03*
D11*
X82960000Y-141200000D03*
%TD*%
D10*
%TO.C,J4*%
X88040000Y-124860000D03*
X88040000Y-127400000D03*
X85500000Y-124860000D03*
X85500000Y-127400000D03*
X82960000Y-124860000D03*
D11*
X82960000Y-127400000D03*
%TD*%
D10*
%TO.C,J1*%
X108040000Y-124860000D03*
X108040000Y-127400000D03*
X105500000Y-124860000D03*
X105500000Y-127400000D03*
X102960000Y-124860000D03*
D11*
X102960000Y-127400000D03*
%TD*%
D10*
%TO.C,J1*%
X108040000Y-69660000D03*
X108040000Y-72200000D03*
X105500000Y-69660000D03*
X105500000Y-72200000D03*
X102960000Y-69660000D03*
D11*
X102960000Y-72200000D03*
%TD*%
D10*
%TO.C,J1*%
X108040000Y-83460000D03*
X108040000Y-86000000D03*
X105500000Y-83460000D03*
X105500000Y-86000000D03*
X102960000Y-83460000D03*
D11*
X102960000Y-86000000D03*
%TD*%
D10*
%TO.C,J1*%
X108040000Y-97260000D03*
X108040000Y-99800000D03*
X105500000Y-97260000D03*
X105500000Y-99800000D03*
X102960000Y-97260000D03*
D11*
X102960000Y-99800000D03*
%TD*%
D10*
%TO.C,J1*%
X108040000Y-111060000D03*
X108040000Y-113600000D03*
X105500000Y-111060000D03*
X105500000Y-113600000D03*
X102960000Y-111060000D03*
D11*
X102960000Y-113600000D03*
%TD*%
D10*
%TO.C,J4*%
X88040000Y-111060000D03*
X88040000Y-113600000D03*
X85500000Y-111060000D03*
X85500000Y-113600000D03*
X82960000Y-111060000D03*
D11*
X82960000Y-113600000D03*
%TD*%
D10*
%TO.C,J4*%
X88040000Y-97260000D03*
X88040000Y-99800000D03*
X85500000Y-97260000D03*
X85500000Y-99800000D03*
X82960000Y-97260000D03*
D11*
X82960000Y-99800000D03*
%TD*%
D10*
%TO.C,J4*%
X88040000Y-83460000D03*
X88040000Y-86000000D03*
X85500000Y-83460000D03*
X85500000Y-86000000D03*
X82960000Y-83460000D03*
D11*
X82960000Y-86000000D03*
%TD*%
D10*
%TO.C,J4*%
X88040000Y-69660000D03*
X88040000Y-72200000D03*
X85500000Y-69660000D03*
X85500000Y-72200000D03*
X82960000Y-69660000D03*
D11*
X82960000Y-72200000D03*
%TD*%
D10*
%TO.C,J4*%
X88040000Y-42060000D03*
X88040000Y-44600000D03*
X85500000Y-42060000D03*
X85500000Y-44600000D03*
X82960000Y-42060000D03*
D11*
X82960000Y-44600000D03*
%TD*%
D10*
%TO.C,J1*%
X108040000Y-42060000D03*
X108040000Y-44600000D03*
X105500000Y-42060000D03*
X105500000Y-44600000D03*
X102960000Y-42060000D03*
D11*
X102960000Y-44600000D03*
%TD*%
D10*
%TO.C,J4*%
X141440000Y-42060000D03*
X141440000Y-44600000D03*
X138900000Y-42060000D03*
X138900000Y-44600000D03*
X136360000Y-42060000D03*
D11*
X136360000Y-44600000D03*
%TD*%
D10*
%TO.C,J1*%
X161440000Y-42060000D03*
X161440000Y-44600000D03*
X158900000Y-42060000D03*
X158900000Y-44600000D03*
X156360000Y-42060000D03*
D11*
X156360000Y-44600000D03*
%TD*%
D10*
%TO.C,J1*%
X161440000Y-69660000D03*
X161440000Y-72200000D03*
X158900000Y-69660000D03*
X158900000Y-72200000D03*
X156360000Y-69660000D03*
D11*
X156360000Y-72200000D03*
%TD*%
D10*
%TO.C,J4*%
X141440000Y-69660000D03*
X141440000Y-72200000D03*
X138900000Y-69660000D03*
X138900000Y-72200000D03*
X136360000Y-69660000D03*
D11*
X136360000Y-72200000D03*
%TD*%
D10*
%TO.C,J4*%
X141440000Y-83460000D03*
X141440000Y-86000000D03*
X138900000Y-83460000D03*
X138900000Y-86000000D03*
X136360000Y-83460000D03*
D11*
X136360000Y-86000000D03*
%TD*%
D10*
%TO.C,J1*%
X161440000Y-83460000D03*
X161440000Y-86000000D03*
X158900000Y-83460000D03*
X158900000Y-86000000D03*
X156360000Y-83460000D03*
D11*
X156360000Y-86000000D03*
%TD*%
D10*
%TO.C,J1*%
X161440000Y-97260000D03*
X161440000Y-99800000D03*
X158900000Y-97260000D03*
X158900000Y-99800000D03*
X156360000Y-97260000D03*
D11*
X156360000Y-99800000D03*
%TD*%
D10*
%TO.C,J4*%
X141440000Y-97260000D03*
X141440000Y-99800000D03*
X138900000Y-97260000D03*
X138900000Y-99800000D03*
X136360000Y-97260000D03*
D11*
X136360000Y-99800000D03*
%TD*%
D12*
%TO.C,J7*%
X71960000Y-164100000D03*
D13*
X74500000Y-164100000D03*
%TD*%
D12*
%TO.C,J13*%
X169960000Y-164100000D03*
D13*
X172500000Y-164100000D03*
%TD*%
D12*
%TO.C,J13*%
X223360000Y-164100000D03*
D13*
X225900000Y-164100000D03*
%TD*%
D12*
%TO.C,J7*%
X125360000Y-164100000D03*
D13*
X127900000Y-164100000D03*
%TD*%
D12*
%TO.C,J16*%
X223360000Y-171700000D03*
D13*
X225900000Y-171700000D03*
%TD*%
D12*
%TO.C,J10*%
X71960000Y-171700000D03*
D13*
X74500000Y-171700000D03*
%TD*%
D12*
%TO.C,J16*%
X116560000Y-171700000D03*
D13*
X119100000Y-171700000D03*
%TD*%
D12*
%TO.C,J16*%
X169960000Y-171700000D03*
D13*
X172500000Y-171700000D03*
%TD*%
D12*
%TO.C,J13*%
X116560000Y-164100000D03*
D13*
X119100000Y-164100000D03*
%TD*%
D12*
%TO.C,J10*%
X125360000Y-171700000D03*
D13*
X127900000Y-171700000D03*
%TD*%
D12*
%TO.C,J7*%
X178760000Y-164100000D03*
D13*
X181300000Y-164100000D03*
%TD*%
D14*
%TO.C,REF\u002A\u002A*%
X174700000Y-168600000D03*
X176500000Y-168600000D03*
X174700000Y-167800000D03*
X176500000Y-167800000D03*
X174700000Y-167000000D03*
X176500000Y-167000000D03*
%TD*%
D12*
%TO.C,J10*%
X178760000Y-171700000D03*
D13*
X181300000Y-171700000D03*
%TD*%
D12*
%TO.C,J7*%
X71960000Y-150300000D03*
D13*
X74500000Y-150300000D03*
%TD*%
D12*
%TO.C,J13*%
X169960000Y-150300000D03*
D13*
X172500000Y-150300000D03*
%TD*%
D12*
%TO.C,J13*%
X223360000Y-150300000D03*
D13*
X225900000Y-150300000D03*
%TD*%
D14*
%TO.C,REF\u002A\u002A*%
X203000000Y-160100000D03*
X203000000Y-161900000D03*
X203800000Y-160100000D03*
X203800000Y-161900000D03*
X204600000Y-160100000D03*
X204600000Y-161900000D03*
%TD*%
D12*
%TO.C,J7*%
X125360000Y-150300000D03*
D13*
X127900000Y-150300000D03*
%TD*%
D12*
%TO.C,J16*%
X223360000Y-157900000D03*
D13*
X225900000Y-157900000D03*
%TD*%
D12*
%TO.C,J10*%
X71960000Y-157900000D03*
D13*
X74500000Y-157900000D03*
%TD*%
D12*
%TO.C,J16*%
X116560000Y-157900000D03*
D13*
X119100000Y-157900000D03*
%TD*%
D12*
%TO.C,J16*%
X169960000Y-157900000D03*
D13*
X172500000Y-157900000D03*
%TD*%
D12*
%TO.C,J13*%
X116560000Y-150300000D03*
D13*
X119100000Y-150300000D03*
%TD*%
D12*
%TO.C,J10*%
X125360000Y-157900000D03*
D13*
X127900000Y-157900000D03*
%TD*%
D12*
%TO.C,J7*%
X178760000Y-150300000D03*
D13*
X181300000Y-150300000D03*
%TD*%
D14*
%TO.C,REF\u002A\u002A*%
X174700000Y-154800000D03*
X176500000Y-154800000D03*
X174700000Y-154000000D03*
X176500000Y-154000000D03*
X174700000Y-153200000D03*
X176500000Y-153200000D03*
%TD*%
D12*
%TO.C,J10*%
X178760000Y-157900000D03*
D13*
X181300000Y-157900000D03*
%TD*%
D12*
%TO.C,J7*%
X71960000Y-136500000D03*
D13*
X74500000Y-136500000D03*
%TD*%
D12*
%TO.C,J13*%
X169960000Y-136500000D03*
D13*
X172500000Y-136500000D03*
%TD*%
D12*
%TO.C,J13*%
X223360000Y-136500000D03*
D13*
X225900000Y-136500000D03*
%TD*%
D14*
%TO.C,REF\u002A\u002A*%
X203000000Y-146300000D03*
X203000000Y-148100000D03*
X203800000Y-146300000D03*
X203800000Y-148100000D03*
X204600000Y-146300000D03*
X204600000Y-148100000D03*
%TD*%
D12*
%TO.C,J7*%
X125360000Y-136500000D03*
D13*
X127900000Y-136500000D03*
%TD*%
D12*
%TO.C,J16*%
X223360000Y-144100000D03*
D13*
X225900000Y-144100000D03*
%TD*%
D12*
%TO.C,J10*%
X71960000Y-144100000D03*
D13*
X74500000Y-144100000D03*
%TD*%
D12*
%TO.C,J16*%
X116560000Y-144100000D03*
D13*
X119100000Y-144100000D03*
%TD*%
D12*
%TO.C,J16*%
X169960000Y-144100000D03*
D13*
X172500000Y-144100000D03*
%TD*%
D12*
%TO.C,J13*%
X116560000Y-136500000D03*
D13*
X119100000Y-136500000D03*
%TD*%
D12*
%TO.C,J10*%
X125360000Y-144100000D03*
D13*
X127900000Y-144100000D03*
%TD*%
D12*
%TO.C,J7*%
X178760000Y-136500000D03*
D13*
X181300000Y-136500000D03*
%TD*%
D14*
%TO.C,REF\u002A\u002A*%
X174700000Y-141000000D03*
X176500000Y-141000000D03*
X174700000Y-140200000D03*
X176500000Y-140200000D03*
X174700000Y-139400000D03*
X176500000Y-139400000D03*
%TD*%
D12*
%TO.C,J10*%
X178760000Y-144100000D03*
D13*
X181300000Y-144100000D03*
%TD*%
D12*
%TO.C,J7*%
X71960000Y-122700000D03*
D13*
X74500000Y-122700000D03*
%TD*%
D12*
%TO.C,J13*%
X169960000Y-122700000D03*
D13*
X172500000Y-122700000D03*
%TD*%
D12*
%TO.C,J13*%
X223360000Y-122700000D03*
D13*
X225900000Y-122700000D03*
%TD*%
D14*
%TO.C,REF\u002A\u002A*%
X203000000Y-132500000D03*
X203000000Y-134300000D03*
X203800000Y-132500000D03*
X203800000Y-134300000D03*
X204600000Y-132500000D03*
X204600000Y-134300000D03*
%TD*%
D12*
%TO.C,J7*%
X125360000Y-122700000D03*
D13*
X127900000Y-122700000D03*
%TD*%
D12*
%TO.C,J16*%
X223360000Y-130300000D03*
D13*
X225900000Y-130300000D03*
%TD*%
D12*
%TO.C,J10*%
X71960000Y-130300000D03*
D13*
X74500000Y-130300000D03*
%TD*%
D12*
%TO.C,J16*%
X116560000Y-130300000D03*
D13*
X119100000Y-130300000D03*
%TD*%
D12*
%TO.C,J16*%
X169960000Y-130300000D03*
D13*
X172500000Y-130300000D03*
%TD*%
D12*
%TO.C,J13*%
X116560000Y-122700000D03*
D13*
X119100000Y-122700000D03*
%TD*%
D12*
%TO.C,J10*%
X125360000Y-130300000D03*
D13*
X127900000Y-130300000D03*
%TD*%
D12*
%TO.C,J7*%
X178760000Y-122700000D03*
D13*
X181300000Y-122700000D03*
%TD*%
D14*
%TO.C,REF\u002A\u002A*%
X174700000Y-127200000D03*
X176500000Y-127200000D03*
X174700000Y-126400000D03*
X176500000Y-126400000D03*
X174700000Y-125600000D03*
X176500000Y-125600000D03*
%TD*%
D12*
%TO.C,J10*%
X178760000Y-130300000D03*
D13*
X181300000Y-130300000D03*
%TD*%
D12*
%TO.C,J7*%
X71960000Y-108900000D03*
D13*
X74500000Y-108900000D03*
%TD*%
D12*
%TO.C,J13*%
X169960000Y-108900000D03*
D13*
X172500000Y-108900000D03*
%TD*%
D12*
%TO.C,J13*%
X223360000Y-108900000D03*
D13*
X225900000Y-108900000D03*
%TD*%
D14*
%TO.C,REF\u002A\u002A*%
X203000000Y-118700000D03*
X203000000Y-120500000D03*
X203800000Y-118700000D03*
X203800000Y-120500000D03*
X204600000Y-118700000D03*
X204600000Y-120500000D03*
%TD*%
D12*
%TO.C,J7*%
X125360000Y-108900000D03*
D13*
X127900000Y-108900000D03*
%TD*%
D12*
%TO.C,J16*%
X223360000Y-116500000D03*
D13*
X225900000Y-116500000D03*
%TD*%
D12*
%TO.C,J10*%
X71960000Y-116500000D03*
D13*
X74500000Y-116500000D03*
%TD*%
D12*
%TO.C,J16*%
X116560000Y-116500000D03*
D13*
X119100000Y-116500000D03*
%TD*%
D12*
%TO.C,J16*%
X169960000Y-116500000D03*
D13*
X172500000Y-116500000D03*
%TD*%
D12*
%TO.C,J13*%
X116560000Y-108900000D03*
D13*
X119100000Y-108900000D03*
%TD*%
D12*
%TO.C,J10*%
X125360000Y-116500000D03*
D13*
X127900000Y-116500000D03*
%TD*%
D12*
%TO.C,J7*%
X178760000Y-108900000D03*
D13*
X181300000Y-108900000D03*
%TD*%
D14*
%TO.C,REF\u002A\u002A*%
X174700000Y-113400000D03*
X176500000Y-113400000D03*
X174700000Y-112600000D03*
X176500000Y-112600000D03*
X174700000Y-111800000D03*
X176500000Y-111800000D03*
%TD*%
D12*
%TO.C,J10*%
X178760000Y-116500000D03*
D13*
X181300000Y-116500000D03*
%TD*%
D12*
%TO.C,J7*%
X71960000Y-95100000D03*
D13*
X74500000Y-95100000D03*
%TD*%
D12*
%TO.C,J13*%
X169960000Y-95100000D03*
D13*
X172500000Y-95100000D03*
%TD*%
D12*
%TO.C,J13*%
X223360000Y-95100000D03*
D13*
X225900000Y-95100000D03*
%TD*%
D14*
%TO.C,REF\u002A\u002A*%
X203000000Y-104900000D03*
X203000000Y-106700000D03*
X203800000Y-104900000D03*
X203800000Y-106700000D03*
X204600000Y-104900000D03*
X204600000Y-106700000D03*
%TD*%
D12*
%TO.C,J7*%
X125360000Y-95100000D03*
D13*
X127900000Y-95100000D03*
%TD*%
D12*
%TO.C,J16*%
X223360000Y-102700000D03*
D13*
X225900000Y-102700000D03*
%TD*%
D12*
%TO.C,J10*%
X71960000Y-102700000D03*
D13*
X74500000Y-102700000D03*
%TD*%
D12*
%TO.C,J16*%
X116560000Y-102700000D03*
D13*
X119100000Y-102700000D03*
%TD*%
D12*
%TO.C,J16*%
X169960000Y-102700000D03*
D13*
X172500000Y-102700000D03*
%TD*%
D12*
%TO.C,J13*%
X116560000Y-95100000D03*
D13*
X119100000Y-95100000D03*
%TD*%
D12*
%TO.C,J10*%
X125360000Y-102700000D03*
D13*
X127900000Y-102700000D03*
%TD*%
D12*
%TO.C,J7*%
X178760000Y-95100000D03*
D13*
X181300000Y-95100000D03*
%TD*%
D14*
%TO.C,REF\u002A\u002A*%
X174700000Y-99600000D03*
X176500000Y-99600000D03*
X174700000Y-98800000D03*
X176500000Y-98800000D03*
X174700000Y-98000000D03*
X176500000Y-98000000D03*
%TD*%
D12*
%TO.C,J10*%
X178760000Y-102700000D03*
D13*
X181300000Y-102700000D03*
%TD*%
D12*
%TO.C,J7*%
X71960000Y-81300000D03*
D13*
X74500000Y-81300000D03*
%TD*%
D12*
%TO.C,J13*%
X169960000Y-81300000D03*
D13*
X172500000Y-81300000D03*
%TD*%
D12*
%TO.C,J13*%
X223360000Y-81300000D03*
D13*
X225900000Y-81300000D03*
%TD*%
D14*
%TO.C,REF\u002A\u002A*%
X203000000Y-91100000D03*
X203000000Y-92900000D03*
X203800000Y-91100000D03*
X203800000Y-92900000D03*
X204600000Y-91100000D03*
X204600000Y-92900000D03*
%TD*%
D12*
%TO.C,J7*%
X125360000Y-81300000D03*
D13*
X127900000Y-81300000D03*
%TD*%
D12*
%TO.C,J16*%
X223360000Y-88900000D03*
D13*
X225900000Y-88900000D03*
%TD*%
D12*
%TO.C,J10*%
X71960000Y-88900000D03*
D13*
X74500000Y-88900000D03*
%TD*%
D12*
%TO.C,J16*%
X116560000Y-88900000D03*
D13*
X119100000Y-88900000D03*
%TD*%
D12*
%TO.C,J16*%
X169960000Y-88900000D03*
D13*
X172500000Y-88900000D03*
%TD*%
D12*
%TO.C,J13*%
X116560000Y-81300000D03*
D13*
X119100000Y-81300000D03*
%TD*%
D12*
%TO.C,J10*%
X125360000Y-88900000D03*
D13*
X127900000Y-88900000D03*
%TD*%
D12*
%TO.C,J7*%
X178760000Y-81300000D03*
D13*
X181300000Y-81300000D03*
%TD*%
D14*
%TO.C,REF\u002A\u002A*%
X174700000Y-85800000D03*
X176500000Y-85800000D03*
X174700000Y-85000000D03*
X176500000Y-85000000D03*
X174700000Y-84200000D03*
X176500000Y-84200000D03*
%TD*%
D12*
%TO.C,J10*%
X178760000Y-88900000D03*
D13*
X181300000Y-88900000D03*
%TD*%
D12*
%TO.C,J7*%
X71960000Y-67500000D03*
D13*
X74500000Y-67500000D03*
%TD*%
D12*
%TO.C,J13*%
X169960000Y-67500000D03*
D13*
X172500000Y-67500000D03*
%TD*%
D12*
%TO.C,J13*%
X223360000Y-67500000D03*
D13*
X225900000Y-67500000D03*
%TD*%
D14*
%TO.C,REF\u002A\u002A*%
X203000000Y-77300000D03*
X203000000Y-79100000D03*
X203800000Y-77300000D03*
X203800000Y-79100000D03*
X204600000Y-77300000D03*
X204600000Y-79100000D03*
%TD*%
D12*
%TO.C,J7*%
X125360000Y-67500000D03*
D13*
X127900000Y-67500000D03*
%TD*%
D12*
%TO.C,J16*%
X223360000Y-75100000D03*
D13*
X225900000Y-75100000D03*
%TD*%
D12*
%TO.C,J10*%
X71960000Y-75100000D03*
D13*
X74500000Y-75100000D03*
%TD*%
D12*
%TO.C,J16*%
X116560000Y-75100000D03*
D13*
X119100000Y-75100000D03*
%TD*%
D12*
%TO.C,J16*%
X169960000Y-75100000D03*
D13*
X172500000Y-75100000D03*
%TD*%
D12*
%TO.C,J13*%
X116560000Y-67500000D03*
D13*
X119100000Y-67500000D03*
%TD*%
D12*
%TO.C,J10*%
X125360000Y-75100000D03*
D13*
X127900000Y-75100000D03*
%TD*%
D12*
%TO.C,J7*%
X178760000Y-67500000D03*
D13*
X181300000Y-67500000D03*
%TD*%
D14*
%TO.C,REF\u002A\u002A*%
X174700000Y-72000000D03*
X176500000Y-72000000D03*
X174700000Y-71200000D03*
X176500000Y-71200000D03*
X174700000Y-70400000D03*
X176500000Y-70400000D03*
%TD*%
D12*
%TO.C,J10*%
X178760000Y-75100000D03*
D13*
X181300000Y-75100000D03*
%TD*%
D12*
%TO.C,J7*%
X71960000Y-53700000D03*
D13*
X74500000Y-53700000D03*
%TD*%
D12*
%TO.C,J10*%
X71960000Y-61300000D03*
D13*
X74500000Y-61300000D03*
%TD*%
D12*
%TO.C,J16*%
X116560000Y-61300000D03*
D13*
X119100000Y-61300000D03*
%TD*%
D12*
%TO.C,J13*%
X116560000Y-53700000D03*
D13*
X119100000Y-53700000D03*
%TD*%
D12*
%TO.C,J16*%
X169960000Y-61300000D03*
D13*
X172500000Y-61300000D03*
%TD*%
D12*
%TO.C,J10*%
X125360000Y-61300000D03*
D13*
X127900000Y-61300000D03*
%TD*%
D14*
%TO.C,REF\u002A\u002A*%
X121300000Y-58200000D03*
X123100000Y-58200000D03*
X121300000Y-57400000D03*
X123100000Y-57400000D03*
X121300000Y-56600000D03*
X123100000Y-56600000D03*
%TD*%
D12*
%TO.C,J7*%
X125360000Y-53700000D03*
D13*
X127900000Y-53700000D03*
%TD*%
D12*
%TO.C,J16*%
X223360000Y-61300000D03*
D13*
X225900000Y-61300000D03*
%TD*%
D12*
%TO.C,J13*%
X169960000Y-53700000D03*
D13*
X172500000Y-53700000D03*
%TD*%
D12*
%TO.C,J13*%
X223360000Y-53700000D03*
D13*
X225900000Y-53700000D03*
%TD*%
D14*
%TO.C,REF\u002A\u002A*%
X203000000Y-63500000D03*
X203000000Y-65300000D03*
X203800000Y-63500000D03*
X203800000Y-65300000D03*
X204600000Y-63500000D03*
X204600000Y-65300000D03*
%TD*%
%TO.C,REF\u002A\u002A*%
X174700000Y-58200000D03*
X176500000Y-58200000D03*
X174700000Y-57400000D03*
X176500000Y-57400000D03*
X174700000Y-56600000D03*
X176500000Y-56600000D03*
%TD*%
D12*
%TO.C,J10*%
X178760000Y-61300000D03*
D13*
X181300000Y-61300000D03*
%TD*%
D12*
%TO.C,J7*%
X178760000Y-53700000D03*
D13*
X181300000Y-53700000D03*
%TD*%
D12*
%TO.C,J16*%
X116560000Y-47500000D03*
D13*
X119100000Y-47500000D03*
%TD*%
D14*
%TO.C,REF\u002A\u002A*%
X96200000Y-49700000D03*
X96200000Y-51500000D03*
X97000000Y-49700000D03*
X97000000Y-51500000D03*
X97800000Y-49700000D03*
X97800000Y-51500000D03*
%TD*%
D12*
%TO.C,J10*%
X71960000Y-47500000D03*
D13*
X74500000Y-47500000D03*
%TD*%
D12*
%TO.C,J7*%
X71960000Y-39900000D03*
D13*
X74500000Y-39900000D03*
%TD*%
D12*
%TO.C,J13*%
X116560000Y-39900000D03*
D13*
X119100000Y-39900000D03*
%TD*%
D12*
%TO.C,J16*%
X169960000Y-47500000D03*
D13*
X172500000Y-47500000D03*
%TD*%
D12*
%TO.C,J13*%
X169960000Y-39900000D03*
D13*
X172500000Y-39900000D03*
%TD*%
D14*
%TO.C,REF\u002A\u002A*%
X149600000Y-49700000D03*
X149600000Y-51500000D03*
X150400000Y-49700000D03*
X150400000Y-51500000D03*
X151200000Y-49700000D03*
X151200000Y-51500000D03*
%TD*%
%TO.C,REF\u002A\u002A*%
X121300000Y-44400000D03*
X123100000Y-44400000D03*
X121300000Y-43600000D03*
X123100000Y-43600000D03*
X121300000Y-42800000D03*
X123100000Y-42800000D03*
%TD*%
D12*
%TO.C,J10*%
X125360000Y-47500000D03*
D13*
X127900000Y-47500000D03*
%TD*%
D12*
%TO.C,J7*%
X125360000Y-39900000D03*
D13*
X127900000Y-39900000D03*
%TD*%
D12*
%TO.C,J16*%
X223360000Y-47500000D03*
D13*
X225900000Y-47500000D03*
%TD*%
D12*
%TO.C,J10*%
X178760000Y-47500000D03*
D13*
X181300000Y-47500000D03*
%TD*%
D12*
%TO.C,J7*%
X178760000Y-39900000D03*
D13*
X181300000Y-39900000D03*
%TD*%
D12*
%TO.C,J13*%
X223360000Y-39900000D03*
D13*
X225900000Y-39900000D03*
%TD*%
D14*
%TO.C,REF\u002A\u002A*%
X203000000Y-49700000D03*
X203000000Y-51500000D03*
X203800000Y-49700000D03*
X203800000Y-51500000D03*
X204600000Y-49700000D03*
X204600000Y-51500000D03*
%TD*%
%TO.C,REF\u002A\u002A*%
X174700000Y-44400000D03*
X176500000Y-44400000D03*
X174700000Y-43600000D03*
X176500000Y-43600000D03*
X174700000Y-42800000D03*
X176500000Y-42800000D03*
%TD*%
%TO.C,REF\u002A\u002A*%
X121300000Y-127200000D03*
X123100000Y-127200000D03*
X121300000Y-126400000D03*
X123100000Y-126400000D03*
X121300000Y-125600000D03*
X123100000Y-125600000D03*
%TD*%
%TO.C,REF\u002A\u002A*%
X149600000Y-132500000D03*
X149600000Y-134300000D03*
X150400000Y-132500000D03*
X150400000Y-134300000D03*
X151200000Y-132500000D03*
X151200000Y-134300000D03*
%TD*%
%TO.C,REF\u002A\u002A*%
X121300000Y-141000000D03*
X123100000Y-141000000D03*
X121300000Y-140200000D03*
X123100000Y-140200000D03*
X121300000Y-139400000D03*
X123100000Y-139400000D03*
%TD*%
%TO.C,REF\u002A\u002A*%
X96200000Y-146300000D03*
X96200000Y-148100000D03*
X97000000Y-146300000D03*
X97000000Y-148100000D03*
X97800000Y-146300000D03*
X97800000Y-148100000D03*
%TD*%
%TO.C,REF\u002A\u002A*%
X121300000Y-168600000D03*
X123100000Y-168600000D03*
X121300000Y-167800000D03*
X123100000Y-167800000D03*
X121300000Y-167000000D03*
X123100000Y-167000000D03*
%TD*%
%TO.C,REF\u002A\u002A*%
X121300000Y-99600000D03*
X123100000Y-99600000D03*
X121300000Y-98800000D03*
X123100000Y-98800000D03*
X121300000Y-98000000D03*
X123100000Y-98000000D03*
%TD*%
%TO.C,REF\u002A\u002A*%
X149600000Y-104900000D03*
X149600000Y-106700000D03*
X150400000Y-104900000D03*
X150400000Y-106700000D03*
X151200000Y-104900000D03*
X151200000Y-106700000D03*
%TD*%
%TO.C,REF\u002A\u002A*%
X96200000Y-104900000D03*
X96200000Y-106700000D03*
X97000000Y-104900000D03*
X97000000Y-106700000D03*
X97800000Y-104900000D03*
X97800000Y-106700000D03*
%TD*%
%TO.C,REF\u002A\u002A*%
X96200000Y-132500000D03*
X96200000Y-134300000D03*
X97000000Y-132500000D03*
X97000000Y-134300000D03*
X97800000Y-132500000D03*
X97800000Y-134300000D03*
%TD*%
%TO.C,REF\u002A\u002A*%
X96200000Y-91100000D03*
X96200000Y-92900000D03*
X97000000Y-91100000D03*
X97000000Y-92900000D03*
X97800000Y-91100000D03*
X97800000Y-92900000D03*
%TD*%
%TO.C,REF\u002A\u002A*%
X149600000Y-146300000D03*
X149600000Y-148100000D03*
X150400000Y-146300000D03*
X150400000Y-148100000D03*
X151200000Y-146300000D03*
X151200000Y-148100000D03*
%TD*%
%TO.C,REF\u002A\u002A*%
X149600000Y-91100000D03*
X149600000Y-92900000D03*
X150400000Y-91100000D03*
X150400000Y-92900000D03*
X151200000Y-91100000D03*
X151200000Y-92900000D03*
%TD*%
%TO.C,REF\u002A\u002A*%
X149600000Y-63500000D03*
X149600000Y-65300000D03*
X150400000Y-63500000D03*
X150400000Y-65300000D03*
X151200000Y-63500000D03*
X151200000Y-65300000D03*
%TD*%
%TO.C,REF\u002A\u002A*%
X96200000Y-63500000D03*
X96200000Y-65300000D03*
X97000000Y-63500000D03*
X97000000Y-65300000D03*
X97800000Y-63500000D03*
X97800000Y-65300000D03*
%TD*%
%TO.C,REF\u002A\u002A*%
X121300000Y-72000000D03*
X123100000Y-72000000D03*
X121300000Y-71200000D03*
X123100000Y-71200000D03*
X121300000Y-70400000D03*
X123100000Y-70400000D03*
%TD*%
%TO.C,REF\u002A\u002A*%
X149600000Y-77300000D03*
X149600000Y-79100000D03*
X150400000Y-77300000D03*
X150400000Y-79100000D03*
X151200000Y-77300000D03*
X151200000Y-79100000D03*
%TD*%
%TO.C,REF\u002A\u002A*%
X96200000Y-77300000D03*
X96200000Y-79100000D03*
X97000000Y-77300000D03*
X97000000Y-79100000D03*
X97800000Y-77300000D03*
X97800000Y-79100000D03*
%TD*%
%TO.C,REF\u002A\u002A*%
X121300000Y-113400000D03*
X123100000Y-113400000D03*
X121300000Y-112600000D03*
X123100000Y-112600000D03*
X121300000Y-111800000D03*
X123100000Y-111800000D03*
%TD*%
%TO.C,REF\u002A\u002A*%
X96200000Y-118700000D03*
X96200000Y-120500000D03*
X97000000Y-118700000D03*
X97000000Y-120500000D03*
X97800000Y-118700000D03*
X97800000Y-120500000D03*
%TD*%
%TO.C,REF\u002A\u002A*%
X121300000Y-85800000D03*
X123100000Y-85800000D03*
X121300000Y-85000000D03*
X123100000Y-85000000D03*
X121300000Y-84200000D03*
X123100000Y-84200000D03*
%TD*%
%TO.C,REF\u002A\u002A*%
X149600000Y-118700000D03*
X149600000Y-120500000D03*
X150400000Y-118700000D03*
X150400000Y-120500000D03*
X151200000Y-118700000D03*
X151200000Y-120500000D03*
%TD*%
%TO.C,REF\u002A\u002A*%
X149600000Y-160100000D03*
X149600000Y-161900000D03*
X150400000Y-160100000D03*
X150400000Y-161900000D03*
X151200000Y-160100000D03*
X151200000Y-161900000D03*
%TD*%
%TO.C,REF\u002A\u002A*%
X121300000Y-154800000D03*
X123100000Y-154800000D03*
X121300000Y-154000000D03*
X123100000Y-154000000D03*
X121300000Y-153200000D03*
X123100000Y-153200000D03*
%TD*%
%TO.C,REF\u002A\u002A*%
X96200000Y-160100000D03*
X96200000Y-161900000D03*
X97000000Y-160100000D03*
X97000000Y-161900000D03*
X97800000Y-160100000D03*
X97800000Y-161900000D03*
%TD*%
M02*
