%TF.GenerationSoftware,KiCad,Pcbnew,9.0.0*%
%TF.CreationDate,2025-07-31T17:24:48+02:00*%
%TF.ProjectId,Bridge,42726964-6765-42e6-9b69-6361645f7063,rev?*%
%TF.SameCoordinates,Original*%
%TF.FileFunction,Profile,NP*%
%FSLAX46Y46*%
G04 Gerber Fmt 4.6, Leading zero omitted, Abs format (unit mm)*
G04 Created by KiCad (PCBNEW 9.0.0) date 2025-07-31 17:24:48*
%MOMM*%
%LPD*%
G01*
G04 APERTURE LIST*
%TA.AperFunction,Profile*%
%ADD10C,0.100000*%
%TD*%
%TA.AperFunction,Profile*%
%ADD11C,0.050000*%
%TD*%
G04 APERTURE END LIST*
D10*
X126200000Y-162200000D02*
X148200000Y-162200000D01*
X174400000Y-60400000D02*
X174400000Y-59600000D01*
X176800000Y-69000000D02*
X176800000Y-68400000D01*
D11*
X70000000Y-165600000D02*
X70000000Y-170000000D01*
D10*
X174400000Y-165600000D02*
X174400000Y-165000000D01*
X227800000Y-170800000D02*
X227800000Y-165000000D01*
X123400000Y-165000000D02*
G75*
G02*
X126200000Y-162200000I2800000J0D01*
G01*
X179600000Y-173600000D02*
G75*
G02*
X176800000Y-170800000I0J2800000D01*
G01*
X121000000Y-165600000D02*
X121000000Y-165000000D01*
X72800000Y-162200000D02*
X94800000Y-162200000D01*
X179600000Y-162200000D02*
X201600000Y-162200000D01*
X123400000Y-170800000D02*
X123400000Y-170000000D01*
X176800000Y-170800000D02*
X176800000Y-170000000D01*
X171600000Y-162200000D02*
G75*
G02*
X174400000Y-165000000I0J-2800000D01*
G01*
X176800000Y-165000000D02*
G75*
G02*
X179600000Y-162200000I2800000J0D01*
G01*
X94800000Y-173600000D02*
X72800000Y-173600000D01*
X174400000Y-170800000D02*
G75*
G02*
X171600000Y-173600000I-2800000J0D01*
G01*
X206000000Y-162200000D02*
X225000000Y-162200000D01*
X123400000Y-165600000D02*
X123400000Y-165000000D01*
X152600000Y-162200000D02*
X171600000Y-162200000D01*
X171600000Y-173600000D02*
X148200000Y-173600000D01*
X72800000Y-173600000D02*
G75*
G02*
X70000000Y-170800000I0J2800000D01*
G01*
X176800000Y-165600000D02*
X176800000Y-165000000D01*
X225000000Y-173600000D02*
X201600000Y-173600000D01*
X118200000Y-162200000D02*
G75*
G02*
X121000000Y-165000000I0J-2800000D01*
G01*
X148200000Y-173600000D02*
X126200000Y-173600000D01*
X70000000Y-170800000D02*
X70000000Y-170000000D01*
X70000000Y-165000000D02*
G75*
G02*
X72800000Y-162200000I2800000J0D01*
G01*
X225000000Y-162200000D02*
G75*
G02*
X227800000Y-165000000I0J-2800000D01*
G01*
X99200000Y-162200000D02*
X118200000Y-162200000D01*
X126200000Y-173600000D02*
G75*
G02*
X123400000Y-170800000I0J2800000D01*
G01*
X201600000Y-173600000D02*
X179600000Y-173600000D01*
X174400000Y-170800000D02*
X174400000Y-170000000D01*
X121000000Y-170800000D02*
X121000000Y-170000000D01*
X70000000Y-165600000D02*
X70000000Y-165000000D01*
X118200000Y-173600000D02*
X94800000Y-173600000D01*
X121000000Y-170800000D02*
G75*
G02*
X118200000Y-173600000I-2800000J0D01*
G01*
X227800000Y-170800000D02*
G75*
G02*
X225000000Y-173600000I-2800000J0D01*
G01*
D11*
X70000000Y-151800000D02*
X70000000Y-156200000D01*
D10*
X174400000Y-151800000D02*
X174400000Y-151200000D01*
X227800000Y-157000000D02*
X227800000Y-151200000D01*
X123400000Y-151200000D02*
G75*
G02*
X126200000Y-148400000I2800000J0D01*
G01*
X179600000Y-159800000D02*
G75*
G02*
X176800000Y-157000000I0J2800000D01*
G01*
X121000000Y-151800000D02*
X121000000Y-151200000D01*
X72800000Y-148400000D02*
X94800000Y-148400000D01*
X179600000Y-148400000D02*
X201600000Y-148400000D01*
X123400000Y-157000000D02*
X123400000Y-156200000D01*
X176800000Y-157000000D02*
X176800000Y-156200000D01*
X171600000Y-148400000D02*
G75*
G02*
X174400000Y-151200000I0J-2800000D01*
G01*
X176800000Y-151200000D02*
G75*
G02*
X179600000Y-148400000I2800000J0D01*
G01*
X94800000Y-159800000D02*
X72800000Y-159800000D01*
X174400000Y-157000000D02*
G75*
G02*
X171600000Y-159800000I-2800000J0D01*
G01*
X206000000Y-148400000D02*
X225000000Y-148400000D01*
X123400000Y-151800000D02*
X123400000Y-151200000D01*
X152600000Y-148400000D02*
X171600000Y-148400000D01*
X171600000Y-159800000D02*
X152600000Y-159800000D01*
X126200000Y-148400000D02*
X148200000Y-148400000D01*
X72800000Y-159800000D02*
G75*
G02*
X70000000Y-157000000I0J2800000D01*
G01*
X176800000Y-151800000D02*
X176800000Y-151200000D01*
X225000000Y-159800000D02*
X206000000Y-159800000D01*
X118200000Y-148400000D02*
G75*
G02*
X121000000Y-151200000I0J-2800000D01*
G01*
X148200000Y-159800000D02*
X126200000Y-159800000D01*
X70000000Y-157000000D02*
X70000000Y-156200000D01*
X70000000Y-151200000D02*
G75*
G02*
X72800000Y-148400000I2800000J0D01*
G01*
X225000000Y-148400000D02*
G75*
G02*
X227800000Y-151200000I0J-2800000D01*
G01*
X99200000Y-148400000D02*
X118200000Y-148400000D01*
X126200000Y-159800000D02*
G75*
G02*
X123400000Y-157000000I0J2800000D01*
G01*
X201600000Y-159800000D02*
X179600000Y-159800000D01*
X174400000Y-157000000D02*
X174400000Y-156200000D01*
X121000000Y-157000000D02*
X121000000Y-156200000D01*
X70000000Y-151800000D02*
X70000000Y-151200000D01*
X118200000Y-159800000D02*
X99200000Y-159800000D01*
X121000000Y-157000000D02*
G75*
G02*
X118200000Y-159800000I-2800000J0D01*
G01*
X227800000Y-157000000D02*
G75*
G02*
X225000000Y-159800000I-2800000J0D01*
G01*
D11*
X70000000Y-138000000D02*
X70000000Y-142400000D01*
D10*
X174400000Y-138000000D02*
X174400000Y-137400000D01*
X227800000Y-143200000D02*
X227800000Y-137400000D01*
X123400000Y-137400000D02*
G75*
G02*
X126200000Y-134600000I2800000J0D01*
G01*
X179600000Y-146000000D02*
G75*
G02*
X176800000Y-143200000I0J2800000D01*
G01*
X121000000Y-138000000D02*
X121000000Y-137400000D01*
X72800000Y-134600000D02*
X94800000Y-134600000D01*
X179600000Y-134600000D02*
X201600000Y-134600000D01*
X123400000Y-143200000D02*
X123400000Y-142400000D01*
X176800000Y-143200000D02*
X176800000Y-142400000D01*
X171600000Y-134600000D02*
G75*
G02*
X174400000Y-137400000I0J-2800000D01*
G01*
X176800000Y-137400000D02*
G75*
G02*
X179600000Y-134600000I2800000J0D01*
G01*
X94800000Y-146000000D02*
X72800000Y-146000000D01*
X174400000Y-143200000D02*
G75*
G02*
X171600000Y-146000000I-2800000J0D01*
G01*
X206000000Y-134600000D02*
X225000000Y-134600000D01*
X123400000Y-138000000D02*
X123400000Y-137400000D01*
X152600000Y-134600000D02*
X171600000Y-134600000D01*
X171600000Y-146000000D02*
X152600000Y-146000000D01*
X126200000Y-134600000D02*
X148200000Y-134600000D01*
X72800000Y-146000000D02*
G75*
G02*
X70000000Y-143200000I0J2800000D01*
G01*
X176800000Y-138000000D02*
X176800000Y-137400000D01*
X225000000Y-146000000D02*
X206000000Y-146000000D01*
X118200000Y-134600000D02*
G75*
G02*
X121000000Y-137400000I0J-2800000D01*
G01*
X148200000Y-146000000D02*
X126200000Y-146000000D01*
X70000000Y-143200000D02*
X70000000Y-142400000D01*
X70000000Y-137400000D02*
G75*
G02*
X72800000Y-134600000I2800000J0D01*
G01*
X225000000Y-134600000D02*
G75*
G02*
X227800000Y-137400000I0J-2800000D01*
G01*
X99200000Y-134600000D02*
X118200000Y-134600000D01*
X126200000Y-146000000D02*
G75*
G02*
X123400000Y-143200000I0J2800000D01*
G01*
X201600000Y-146000000D02*
X179600000Y-146000000D01*
X174400000Y-143200000D02*
X174400000Y-142400000D01*
X121000000Y-143200000D02*
X121000000Y-142400000D01*
X70000000Y-138000000D02*
X70000000Y-137400000D01*
X118200000Y-146000000D02*
X99200000Y-146000000D01*
X121000000Y-143200000D02*
G75*
G02*
X118200000Y-146000000I-2800000J0D01*
G01*
X227800000Y-143200000D02*
G75*
G02*
X225000000Y-146000000I-2800000J0D01*
G01*
D11*
X70000000Y-124200000D02*
X70000000Y-128600000D01*
D10*
X174400000Y-124200000D02*
X174400000Y-123600000D01*
X227800000Y-129400000D02*
X227800000Y-123600000D01*
X123400000Y-123600000D02*
G75*
G02*
X126200000Y-120800000I2800000J0D01*
G01*
X179600000Y-132200000D02*
G75*
G02*
X176800000Y-129400000I0J2800000D01*
G01*
X121000000Y-124200000D02*
X121000000Y-123600000D01*
X72800000Y-120800000D02*
X94800000Y-120800000D01*
X179600000Y-120800000D02*
X201600000Y-120800000D01*
X123400000Y-129400000D02*
X123400000Y-128600000D01*
X176800000Y-129400000D02*
X176800000Y-128600000D01*
X171600000Y-120800000D02*
G75*
G02*
X174400000Y-123600000I0J-2800000D01*
G01*
X176800000Y-123600000D02*
G75*
G02*
X179600000Y-120800000I2800000J0D01*
G01*
X94800000Y-132200000D02*
X72800000Y-132200000D01*
X174400000Y-129400000D02*
G75*
G02*
X171600000Y-132200000I-2800000J0D01*
G01*
X206000000Y-120800000D02*
X225000000Y-120800000D01*
X123400000Y-124200000D02*
X123400000Y-123600000D01*
X152600000Y-120800000D02*
X171600000Y-120800000D01*
X171600000Y-132200000D02*
X152600000Y-132200000D01*
X126200000Y-120800000D02*
X148200000Y-120800000D01*
X72800000Y-132200000D02*
G75*
G02*
X70000000Y-129400000I0J2800000D01*
G01*
X176800000Y-124200000D02*
X176800000Y-123600000D01*
X225000000Y-132200000D02*
X206000000Y-132200000D01*
X118200000Y-120800000D02*
G75*
G02*
X121000000Y-123600000I0J-2800000D01*
G01*
X148200000Y-132200000D02*
X126200000Y-132200000D01*
X70000000Y-129400000D02*
X70000000Y-128600000D01*
X70000000Y-123600000D02*
G75*
G02*
X72800000Y-120800000I2800000J0D01*
G01*
X225000000Y-120800000D02*
G75*
G02*
X227800000Y-123600000I0J-2800000D01*
G01*
X99200000Y-120800000D02*
X118200000Y-120800000D01*
X126200000Y-132200000D02*
G75*
G02*
X123400000Y-129400000I0J2800000D01*
G01*
X201600000Y-132200000D02*
X179600000Y-132200000D01*
X174400000Y-129400000D02*
X174400000Y-128600000D01*
X121000000Y-129400000D02*
X121000000Y-128600000D01*
X70000000Y-124200000D02*
X70000000Y-123600000D01*
X118200000Y-132200000D02*
X99200000Y-132200000D01*
X121000000Y-129400000D02*
G75*
G02*
X118200000Y-132200000I-2800000J0D01*
G01*
X227800000Y-129400000D02*
G75*
G02*
X225000000Y-132200000I-2800000J0D01*
G01*
D11*
X70000000Y-110400000D02*
X70000000Y-114800000D01*
D10*
X174400000Y-110400000D02*
X174400000Y-109800000D01*
X227800000Y-115600000D02*
X227800000Y-109800000D01*
X123400000Y-109800000D02*
G75*
G02*
X126200000Y-107000000I2800000J0D01*
G01*
X179600000Y-118400000D02*
G75*
G02*
X176800000Y-115600000I0J2800000D01*
G01*
X121000000Y-110400000D02*
X121000000Y-109800000D01*
X72800000Y-107000000D02*
X94800000Y-107000000D01*
X179600000Y-107000000D02*
X201600000Y-107000000D01*
X123400000Y-115600000D02*
X123400000Y-114800000D01*
X176800000Y-115600000D02*
X176800000Y-114800000D01*
X171600000Y-107000000D02*
G75*
G02*
X174400000Y-109800000I0J-2800000D01*
G01*
X176800000Y-109800000D02*
G75*
G02*
X179600000Y-107000000I2800000J0D01*
G01*
X94800000Y-118400000D02*
X72800000Y-118400000D01*
X174400000Y-115600000D02*
G75*
G02*
X171600000Y-118400000I-2800000J0D01*
G01*
X206000000Y-107000000D02*
X225000000Y-107000000D01*
X123400000Y-110400000D02*
X123400000Y-109800000D01*
X152600000Y-107000000D02*
X171600000Y-107000000D01*
X171600000Y-118400000D02*
X152600000Y-118400000D01*
X126200000Y-107000000D02*
X148200000Y-107000000D01*
X72800000Y-118400000D02*
G75*
G02*
X70000000Y-115600000I0J2800000D01*
G01*
X176800000Y-110400000D02*
X176800000Y-109800000D01*
X225000000Y-118400000D02*
X206000000Y-118400000D01*
X118200000Y-107000000D02*
G75*
G02*
X121000000Y-109800000I0J-2800000D01*
G01*
X148200000Y-118400000D02*
X126200000Y-118400000D01*
X70000000Y-115600000D02*
X70000000Y-114800000D01*
X70000000Y-109800000D02*
G75*
G02*
X72800000Y-107000000I2800000J0D01*
G01*
X225000000Y-107000000D02*
G75*
G02*
X227800000Y-109800000I0J-2800000D01*
G01*
X99200000Y-107000000D02*
X118200000Y-107000000D01*
X126200000Y-118400000D02*
G75*
G02*
X123400000Y-115600000I0J2800000D01*
G01*
X201600000Y-118400000D02*
X179600000Y-118400000D01*
X174400000Y-115600000D02*
X174400000Y-114800000D01*
X121000000Y-115600000D02*
X121000000Y-114800000D01*
X70000000Y-110400000D02*
X70000000Y-109800000D01*
X118200000Y-118400000D02*
X99200000Y-118400000D01*
X121000000Y-115600000D02*
G75*
G02*
X118200000Y-118400000I-2800000J0D01*
G01*
X227800000Y-115600000D02*
G75*
G02*
X225000000Y-118400000I-2800000J0D01*
G01*
D11*
X70000000Y-96600000D02*
X70000000Y-101000000D01*
D10*
X174400000Y-96600000D02*
X174400000Y-96000000D01*
X227800000Y-101800000D02*
X227800000Y-96000000D01*
X123400000Y-96000000D02*
G75*
G02*
X126200000Y-93200000I2800000J0D01*
G01*
X179600000Y-104600000D02*
G75*
G02*
X176800000Y-101800000I0J2800000D01*
G01*
X121000000Y-96600000D02*
X121000000Y-96000000D01*
X72800000Y-93200000D02*
X94800000Y-93200000D01*
X179600000Y-93200000D02*
X201600000Y-93200000D01*
X123400000Y-101800000D02*
X123400000Y-101000000D01*
X176800000Y-101800000D02*
X176800000Y-101000000D01*
X171600000Y-93200000D02*
G75*
G02*
X174400000Y-96000000I0J-2800000D01*
G01*
X176800000Y-96000000D02*
G75*
G02*
X179600000Y-93200000I2800000J0D01*
G01*
X94800000Y-104600000D02*
X72800000Y-104600000D01*
X174400000Y-101800000D02*
G75*
G02*
X171600000Y-104600000I-2800000J0D01*
G01*
X206000000Y-93200000D02*
X225000000Y-93200000D01*
X123400000Y-96600000D02*
X123400000Y-96000000D01*
X152600000Y-93200000D02*
X171600000Y-93200000D01*
X171600000Y-104600000D02*
X152600000Y-104600000D01*
X126200000Y-93200000D02*
X148200000Y-93200000D01*
X72800000Y-104600000D02*
G75*
G02*
X70000000Y-101800000I0J2800000D01*
G01*
X176800000Y-96600000D02*
X176800000Y-96000000D01*
X225000000Y-104600000D02*
X206000000Y-104600000D01*
X118200000Y-93200000D02*
G75*
G02*
X121000000Y-96000000I0J-2800000D01*
G01*
X148200000Y-104600000D02*
X126200000Y-104600000D01*
X70000000Y-101800000D02*
X70000000Y-101000000D01*
X70000000Y-96000000D02*
G75*
G02*
X72800000Y-93200000I2800000J0D01*
G01*
X225000000Y-93200000D02*
G75*
G02*
X227800000Y-96000000I0J-2800000D01*
G01*
X99200000Y-93200000D02*
X118200000Y-93200000D01*
X126200000Y-104600000D02*
G75*
G02*
X123400000Y-101800000I0J2800000D01*
G01*
X201600000Y-104600000D02*
X179600000Y-104600000D01*
X174400000Y-101800000D02*
X174400000Y-101000000D01*
X121000000Y-101800000D02*
X121000000Y-101000000D01*
X70000000Y-96600000D02*
X70000000Y-96000000D01*
X118200000Y-104600000D02*
X99200000Y-104600000D01*
X121000000Y-101800000D02*
G75*
G02*
X118200000Y-104600000I-2800000J0D01*
G01*
X227800000Y-101800000D02*
G75*
G02*
X225000000Y-104600000I-2800000J0D01*
G01*
D11*
X70000000Y-82800000D02*
X70000000Y-87200000D01*
D10*
X174400000Y-82800000D02*
X174400000Y-82200000D01*
X227800000Y-88000000D02*
X227800000Y-82200000D01*
X123400000Y-82200000D02*
G75*
G02*
X126200000Y-79400000I2800000J0D01*
G01*
X179600000Y-90800000D02*
G75*
G02*
X176800000Y-88000000I0J2800000D01*
G01*
X121000000Y-82800000D02*
X121000000Y-82200000D01*
X72800000Y-79400000D02*
X94800000Y-79400000D01*
X179600000Y-79400000D02*
X201600000Y-79400000D01*
X123400000Y-88000000D02*
X123400000Y-87200000D01*
X176800000Y-88000000D02*
X176800000Y-87200000D01*
X171600000Y-79400000D02*
G75*
G02*
X174400000Y-82200000I0J-2800000D01*
G01*
X176800000Y-82200000D02*
G75*
G02*
X179600000Y-79400000I2800000J0D01*
G01*
X94800000Y-90800000D02*
X72800000Y-90800000D01*
X174400000Y-88000000D02*
G75*
G02*
X171600000Y-90800000I-2800000J0D01*
G01*
X206000000Y-79400000D02*
X225000000Y-79400000D01*
X123400000Y-82800000D02*
X123400000Y-82200000D01*
X152600000Y-79400000D02*
X171600000Y-79400000D01*
X171600000Y-90800000D02*
X152600000Y-90800000D01*
X126200000Y-79400000D02*
X148200000Y-79400000D01*
X72800000Y-90800000D02*
G75*
G02*
X70000000Y-88000000I0J2800000D01*
G01*
X176800000Y-82800000D02*
X176800000Y-82200000D01*
X225000000Y-90800000D02*
X206000000Y-90800000D01*
X118200000Y-79400000D02*
G75*
G02*
X121000000Y-82200000I0J-2800000D01*
G01*
X148200000Y-90800000D02*
X126200000Y-90800000D01*
X70000000Y-88000000D02*
X70000000Y-87200000D01*
X70000000Y-82200000D02*
G75*
G02*
X72800000Y-79400000I2800000J0D01*
G01*
X225000000Y-79400000D02*
G75*
G02*
X227800000Y-82200000I0J-2800000D01*
G01*
X99200000Y-79400000D02*
X118200000Y-79400000D01*
X126200000Y-90800000D02*
G75*
G02*
X123400000Y-88000000I0J2800000D01*
G01*
X201600000Y-90800000D02*
X179600000Y-90800000D01*
X174400000Y-88000000D02*
X174400000Y-87200000D01*
X121000000Y-88000000D02*
X121000000Y-87200000D01*
X70000000Y-82800000D02*
X70000000Y-82200000D01*
X118200000Y-90800000D02*
X99200000Y-90800000D01*
X121000000Y-88000000D02*
G75*
G02*
X118200000Y-90800000I-2800000J0D01*
G01*
X227800000Y-88000000D02*
G75*
G02*
X225000000Y-90800000I-2800000J0D01*
G01*
D11*
X70000000Y-69000000D02*
X70000000Y-73400000D01*
D10*
X174400000Y-69000000D02*
X174400000Y-68400000D01*
X227800000Y-74200000D02*
X227800000Y-68400000D01*
X123400000Y-68400000D02*
G75*
G02*
X126200000Y-65600000I2800000J0D01*
G01*
X179600000Y-77000000D02*
G75*
G02*
X176800000Y-74200000I0J2800000D01*
G01*
X121000000Y-69000000D02*
X121000000Y-68400000D01*
X72800000Y-65600000D02*
X94800000Y-65600000D01*
X179600000Y-65600000D02*
X201600000Y-65600000D01*
X123400000Y-74200000D02*
X123400000Y-73400000D01*
X176800000Y-74200000D02*
X176800000Y-73400000D01*
X171600000Y-65600000D02*
G75*
G02*
X174400000Y-68400000I0J-2800000D01*
G01*
X176800000Y-68400000D02*
G75*
G02*
X179600000Y-65600000I2800000J0D01*
G01*
X94800000Y-77000000D02*
X72800000Y-77000000D01*
X174400000Y-74200000D02*
G75*
G02*
X171600000Y-77000000I-2800000J0D01*
G01*
X206000000Y-65600000D02*
X225000000Y-65600000D01*
X123400000Y-69000000D02*
X123400000Y-68400000D01*
X152600000Y-65600000D02*
X171600000Y-65600000D01*
X171600000Y-77000000D02*
X152600000Y-77000000D01*
X126200000Y-65600000D02*
X148200000Y-65600000D01*
X72800000Y-77000000D02*
G75*
G02*
X70000000Y-74200000I0J2800000D01*
G01*
X225000000Y-77000000D02*
X206000000Y-77000000D01*
X118200000Y-65600000D02*
G75*
G02*
X121000000Y-68400000I0J-2800000D01*
G01*
X148200000Y-77000000D02*
X126200000Y-77000000D01*
X70000000Y-74200000D02*
X70000000Y-73400000D01*
X70000000Y-68400000D02*
G75*
G02*
X72800000Y-65600000I2800000J0D01*
G01*
X225000000Y-65600000D02*
G75*
G02*
X227800000Y-68400000I0J-2800000D01*
G01*
X99200000Y-65600000D02*
X118200000Y-65600000D01*
X126200000Y-77000000D02*
G75*
G02*
X123400000Y-74200000I0J2800000D01*
G01*
X201600000Y-77000000D02*
X179600000Y-77000000D01*
X174400000Y-74200000D02*
X174400000Y-73400000D01*
X121000000Y-74200000D02*
X121000000Y-73400000D01*
X70000000Y-69000000D02*
X70000000Y-68400000D01*
X118200000Y-77000000D02*
X99200000Y-77000000D01*
X121000000Y-74200000D02*
G75*
G02*
X118200000Y-77000000I-2800000J0D01*
G01*
X227800000Y-74200000D02*
G75*
G02*
X225000000Y-77000000I-2800000J0D01*
G01*
D11*
X70000000Y-55200000D02*
X70000000Y-59600000D01*
X70000000Y-41400000D02*
X70000000Y-45800000D01*
D10*
X174400000Y-55200000D02*
X174400000Y-54600000D01*
X123400000Y-55200000D02*
X123400000Y-54600000D01*
X123400000Y-60400000D02*
X123400000Y-59600000D01*
X171600000Y-51800000D02*
G75*
G02*
X174400000Y-54600000I0J-2800000D01*
G01*
X174400000Y-60400000D02*
G75*
G02*
X171600000Y-63200000I-2800000J0D01*
G01*
X152600000Y-51800000D02*
X171600000Y-51800000D01*
X171600000Y-63200000D02*
X152600000Y-63200000D01*
X126200000Y-63200000D02*
G75*
G02*
X123400000Y-60400000I0J2800000D01*
G01*
X126200000Y-51800000D02*
X148200000Y-51800000D01*
X148200000Y-63200000D02*
X126200000Y-63200000D01*
X123400000Y-54600000D02*
G75*
G02*
X126200000Y-51800000I2800000J0D01*
G01*
X121000000Y-60400000D02*
X121000000Y-59600000D01*
X94800000Y-63200000D02*
X72800000Y-63200000D01*
X70000000Y-55200000D02*
X70000000Y-54600000D01*
X118200000Y-51800000D02*
G75*
G02*
X121000000Y-54600000I0J-2800000D01*
G01*
X121000000Y-55200000D02*
X121000000Y-54600000D01*
X121000000Y-60400000D02*
G75*
G02*
X118200000Y-63200000I-2800000J0D01*
G01*
X72800000Y-51800000D02*
X94800000Y-51800000D01*
X72800000Y-63200000D02*
G75*
G02*
X70000000Y-60400000I0J2800000D01*
G01*
X70000000Y-60400000D02*
X70000000Y-59600000D01*
X99200000Y-51800000D02*
X118200000Y-51800000D01*
X118200000Y-63200000D02*
X99200000Y-63200000D01*
X70000000Y-54600000D02*
G75*
G02*
X72800000Y-51800000I2800000J0D01*
G01*
X176800000Y-60400000D02*
X176800000Y-59600000D01*
X225000000Y-63200000D02*
X206000000Y-63200000D01*
X225000000Y-51800000D02*
G75*
G02*
X227800000Y-54600000I0J-2800000D01*
G01*
X179600000Y-63200000D02*
G75*
G02*
X176800000Y-60400000I0J2800000D01*
G01*
X227800000Y-60400000D02*
X227800000Y-54600000D01*
X227800000Y-60400000D02*
G75*
G02*
X225000000Y-63200000I-2800000J0D01*
G01*
X206000000Y-51800000D02*
X225000000Y-51800000D01*
X176800000Y-54600000D02*
G75*
G02*
X179600000Y-51800000I2800000J0D01*
G01*
X201600000Y-63200000D02*
X179600000Y-63200000D01*
X179600000Y-51800000D02*
X201600000Y-51800000D01*
X176800000Y-55200000D02*
X176800000Y-54600000D01*
X121000000Y-41400000D02*
X121000000Y-40800000D01*
X70000000Y-41400000D02*
X70000000Y-40800000D01*
X70000000Y-46600000D02*
X70000000Y-45800000D01*
X118200000Y-38000000D02*
G75*
G02*
X121000000Y-40800000I0J-2800000D01*
G01*
X121000000Y-46600000D02*
G75*
G02*
X118200000Y-49400000I-2800000J0D01*
G01*
X94800000Y-38000000D02*
X118200000Y-38000000D01*
X118200000Y-49400000D02*
X99200000Y-49400000D01*
X121000000Y-46600000D02*
X121000000Y-45800000D01*
X72800000Y-49400000D02*
G75*
G02*
X70000000Y-46600000I0J2800000D01*
G01*
X72800000Y-38000000D02*
X94800000Y-38000000D01*
X94800000Y-49400000D02*
X72800000Y-49400000D01*
X70000000Y-40800000D02*
G75*
G02*
X72800000Y-38000000I2800000J0D01*
G01*
X174400000Y-41400000D02*
X174400000Y-40800000D01*
X123400000Y-46600000D02*
X123400000Y-45800000D01*
X171600000Y-49400000D02*
X152600000Y-49400000D01*
X171600000Y-38000000D02*
G75*
G02*
X174400000Y-40800000I0J-2800000D01*
G01*
X126200000Y-49400000D02*
G75*
G02*
X123400000Y-46600000I0J2800000D01*
G01*
X174400000Y-46600000D02*
X174400000Y-45800000D01*
X174400000Y-46600000D02*
G75*
G02*
X171600000Y-49400000I-2800000J0D01*
G01*
X148200000Y-38000000D02*
X171600000Y-38000000D01*
X123400000Y-40800000D02*
G75*
G02*
X126200000Y-38000000I2800000J0D01*
G01*
X148200000Y-49400000D02*
X126200000Y-49400000D01*
X126200000Y-38000000D02*
X148200000Y-38000000D01*
X123400000Y-41400000D02*
X123400000Y-40800000D01*
X176800000Y-40800000D02*
G75*
G02*
X179600000Y-38000000I2800000J0D01*
G01*
X176800000Y-46600000D02*
X176800000Y-45800000D01*
X227800000Y-46600000D02*
G75*
G02*
X225000000Y-49400000I-2800000J0D01*
G01*
X225000000Y-49400000D02*
X206000000Y-49400000D01*
X201600000Y-38000000D02*
X225000000Y-38000000D01*
X225000000Y-38000000D02*
G75*
G02*
X227800000Y-40800000I0J-2800000D01*
G01*
X179600000Y-49400000D02*
G75*
G02*
X176800000Y-46600000I0J2800000D01*
G01*
X227800000Y-46600000D02*
X227800000Y-40800000D01*
X201600000Y-49400000D02*
X179600000Y-49400000D01*
X179600000Y-38000000D02*
X201600000Y-38000000D01*
X176800000Y-41400000D02*
X176800000Y-40800000D01*
D11*
%TO.C,REF\u002A\u002A*%
X174400000Y-170000000D02*
G75*
G02*
X176800000Y-170000000I1200000J0D01*
G01*
X176800000Y-165600000D02*
G75*
G02*
X174400000Y-165600000I-1200000J0D01*
G01*
X201600000Y-159800000D02*
G75*
G02*
X201600000Y-162200000I0J-1200000D01*
G01*
X206000000Y-162200000D02*
G75*
G02*
X206000000Y-159800000I0J1200000D01*
G01*
X174400000Y-156200000D02*
G75*
G02*
X176800000Y-156200000I1200000J0D01*
G01*
X176800000Y-151800000D02*
G75*
G02*
X174400000Y-151800000I-1200000J0D01*
G01*
X201600000Y-146000000D02*
G75*
G02*
X201600000Y-148400000I0J-1200000D01*
G01*
X206000000Y-148400000D02*
G75*
G02*
X206000000Y-146000000I0J1200000D01*
G01*
X174400000Y-142400000D02*
G75*
G02*
X176800000Y-142400000I1200000J0D01*
G01*
X176800000Y-138000000D02*
G75*
G02*
X174400000Y-138000000I-1200000J0D01*
G01*
X201600000Y-132200000D02*
G75*
G02*
X201600000Y-134600000I0J-1200000D01*
G01*
X206000000Y-134600000D02*
G75*
G02*
X206000000Y-132200000I0J1200000D01*
G01*
X174400000Y-128600000D02*
G75*
G02*
X176800000Y-128600000I1200000J0D01*
G01*
X176800000Y-124200000D02*
G75*
G02*
X174400000Y-124200000I-1200000J0D01*
G01*
X201600000Y-118400000D02*
G75*
G02*
X201600000Y-120800000I0J-1200000D01*
G01*
X206000000Y-120800000D02*
G75*
G02*
X206000000Y-118400000I0J1200000D01*
G01*
X174400000Y-114800000D02*
G75*
G02*
X176800000Y-114800000I1200000J0D01*
G01*
X176800000Y-110400000D02*
G75*
G02*
X174400000Y-110400000I-1200000J0D01*
G01*
X201600000Y-104600000D02*
G75*
G02*
X201600000Y-107000000I0J-1200000D01*
G01*
X206000000Y-107000000D02*
G75*
G02*
X206000000Y-104600000I0J1200000D01*
G01*
X174400000Y-101000000D02*
G75*
G02*
X176800000Y-101000000I1200000J0D01*
G01*
X176800000Y-96600000D02*
G75*
G02*
X174400000Y-96600000I-1200000J0D01*
G01*
X201600000Y-90800000D02*
G75*
G02*
X201600000Y-93200000I0J-1200000D01*
G01*
X206000000Y-93200000D02*
G75*
G02*
X206000000Y-90800000I0J1200000D01*
G01*
X174400000Y-87200000D02*
G75*
G02*
X176800000Y-87200000I1200000J0D01*
G01*
X176800000Y-82800000D02*
G75*
G02*
X174400000Y-82800000I-1200000J0D01*
G01*
X201600000Y-77000000D02*
G75*
G02*
X201600000Y-79400000I0J-1200000D01*
G01*
X206000000Y-79400000D02*
G75*
G02*
X206000000Y-77000000I0J1200000D01*
G01*
X174400000Y-73400000D02*
G75*
G02*
X176800000Y-73400000I1200000J0D01*
G01*
X176800000Y-69000000D02*
G75*
G02*
X174400000Y-69000000I-1200000J0D01*
G01*
X121000000Y-59600000D02*
G75*
G02*
X123400000Y-59600000I1200000J0D01*
G01*
X123400000Y-55200000D02*
G75*
G02*
X121000000Y-55200000I-1200000J0D01*
G01*
X201600000Y-63200000D02*
G75*
G02*
X201600000Y-65600000I0J-1200000D01*
G01*
X206000000Y-65600000D02*
G75*
G02*
X206000000Y-63200000I0J1200000D01*
G01*
X174400000Y-59600000D02*
G75*
G02*
X176800000Y-59600000I1200000J0D01*
G01*
X176800000Y-55200000D02*
G75*
G02*
X174400000Y-55200000I-1200000J0D01*
G01*
X94800000Y-49400000D02*
G75*
G02*
X94800000Y-51800000I0J-1200000D01*
G01*
X99200000Y-51800000D02*
G75*
G02*
X99200000Y-49400000I0J1200000D01*
G01*
X148200000Y-49400000D02*
G75*
G02*
X148200000Y-51800000I0J-1200000D01*
G01*
X152600000Y-51800000D02*
G75*
G02*
X152600000Y-49400000I0J1200000D01*
G01*
X121000000Y-45800000D02*
G75*
G02*
X123400000Y-45800000I1200000J0D01*
G01*
X123400000Y-41400000D02*
G75*
G02*
X121000000Y-41400000I-1200000J0D01*
G01*
X201600000Y-49400000D02*
G75*
G02*
X201600000Y-51800000I0J-1200000D01*
G01*
X206000000Y-51800000D02*
G75*
G02*
X206000000Y-49400000I0J1200000D01*
G01*
X174400000Y-45800000D02*
G75*
G02*
X176800000Y-45800000I1200000J0D01*
G01*
X176800000Y-41400000D02*
G75*
G02*
X174400000Y-41400000I-1200000J0D01*
G01*
X121000000Y-128600000D02*
G75*
G02*
X123400000Y-128600000I1200000J0D01*
G01*
X123400000Y-124200000D02*
G75*
G02*
X121000000Y-124200000I-1200000J0D01*
G01*
X148200000Y-132200000D02*
G75*
G02*
X148200000Y-134600000I0J-1200000D01*
G01*
X152600000Y-134600000D02*
G75*
G02*
X152600000Y-132200000I0J1200000D01*
G01*
X121000000Y-142400000D02*
G75*
G02*
X123400000Y-142400000I1200000J0D01*
G01*
X123400000Y-138000000D02*
G75*
G02*
X121000000Y-138000000I-1200000J0D01*
G01*
X94800000Y-146000000D02*
G75*
G02*
X94800000Y-148400000I0J-1200000D01*
G01*
X99200000Y-148400000D02*
G75*
G02*
X99200000Y-146000000I0J1200000D01*
G01*
X121000000Y-170000000D02*
G75*
G02*
X123400000Y-170000000I1200000J0D01*
G01*
X123400000Y-165600000D02*
G75*
G02*
X121000000Y-165600000I-1200000J0D01*
G01*
X121000000Y-101000000D02*
G75*
G02*
X123400000Y-101000000I1200000J0D01*
G01*
X123400000Y-96600000D02*
G75*
G02*
X121000000Y-96600000I-1200000J0D01*
G01*
X148200000Y-104600000D02*
G75*
G02*
X148200000Y-107000000I0J-1200000D01*
G01*
X152600000Y-107000000D02*
G75*
G02*
X152600000Y-104600000I0J1200000D01*
G01*
X94800000Y-104600000D02*
G75*
G02*
X94800000Y-107000000I0J-1200000D01*
G01*
X99200000Y-107000000D02*
G75*
G02*
X99200000Y-104600000I0J1200000D01*
G01*
X94800000Y-132200000D02*
G75*
G02*
X94800000Y-134600000I0J-1200000D01*
G01*
X99200000Y-134600000D02*
G75*
G02*
X99200000Y-132200000I0J1200000D01*
G01*
X94800000Y-90800000D02*
G75*
G02*
X94800000Y-93200000I0J-1200000D01*
G01*
X99200000Y-93200000D02*
G75*
G02*
X99200000Y-90800000I0J1200000D01*
G01*
X148200000Y-146000000D02*
G75*
G02*
X148200000Y-148400000I0J-1200000D01*
G01*
X152600000Y-148400000D02*
G75*
G02*
X152600000Y-146000000I0J1200000D01*
G01*
X148200000Y-90800000D02*
G75*
G02*
X148200000Y-93200000I0J-1200000D01*
G01*
X152600000Y-93200000D02*
G75*
G02*
X152600000Y-90800000I0J1200000D01*
G01*
X148200000Y-63200000D02*
G75*
G02*
X148200000Y-65600000I0J-1200000D01*
G01*
X152600000Y-65600000D02*
G75*
G02*
X152600000Y-63200000I0J1200000D01*
G01*
X94800000Y-63200000D02*
G75*
G02*
X94800000Y-65600000I0J-1200000D01*
G01*
X99200000Y-65600000D02*
G75*
G02*
X99200000Y-63200000I0J1200000D01*
G01*
X121000000Y-73400000D02*
G75*
G02*
X123400000Y-73400000I1200000J0D01*
G01*
X123400000Y-69000000D02*
G75*
G02*
X121000000Y-69000000I-1200000J0D01*
G01*
X148200000Y-77000000D02*
G75*
G02*
X148200000Y-79400000I0J-1200000D01*
G01*
X152600000Y-79400000D02*
G75*
G02*
X152600000Y-77000000I0J1200000D01*
G01*
X94800000Y-77000000D02*
G75*
G02*
X94800000Y-79400000I0J-1200000D01*
G01*
X99200000Y-79400000D02*
G75*
G02*
X99200000Y-77000000I0J1200000D01*
G01*
X121000000Y-114800000D02*
G75*
G02*
X123400000Y-114800000I1200000J0D01*
G01*
X123400000Y-110400000D02*
G75*
G02*
X121000000Y-110400000I-1200000J0D01*
G01*
X94800000Y-118400000D02*
G75*
G02*
X94800000Y-120800000I0J-1200000D01*
G01*
X99200000Y-120800000D02*
G75*
G02*
X99200000Y-118400000I0J1200000D01*
G01*
X121000000Y-87200000D02*
G75*
G02*
X123400000Y-87200000I1200000J0D01*
G01*
X123400000Y-82800000D02*
G75*
G02*
X121000000Y-82800000I-1200000J0D01*
G01*
X148200000Y-118400000D02*
G75*
G02*
X148200000Y-120800000I0J-1200000D01*
G01*
X152600000Y-120800000D02*
G75*
G02*
X152600000Y-118400000I0J1200000D01*
G01*
X148200000Y-159800000D02*
G75*
G02*
X148200000Y-162200000I0J-1200000D01*
G01*
X152600000Y-162200000D02*
G75*
G02*
X152600000Y-159800000I0J1200000D01*
G01*
X121000000Y-156200000D02*
G75*
G02*
X123400000Y-156200000I1200000J0D01*
G01*
X123400000Y-151800000D02*
G75*
G02*
X121000000Y-151800000I-1200000J0D01*
G01*
X94800000Y-159800000D02*
G75*
G02*
X94800000Y-162200000I0J-1200000D01*
G01*
X99200000Y-162200000D02*
G75*
G02*
X99200000Y-159800000I0J1200000D01*
G01*
%TD*%
M02*
