M48
; DRILL file {KiCad 9.0.0} date 2025-07-31T17:24:41+0200
; FORMAT={-:-/ absolute / inch / decimal}
; #@! TF.CreationDate,2025-07-31T17:24:41+02:00
; #@! TF.GenerationSoftware,Kicad,Pcbnew,9.0.0
; #@! TF.FileFunction,Plated,1,2,PTH
FMAT,2
INCH
; #@! TA.AperFunction,Plated,PTH,ComponentDrill
T1C0.0394
%
G90
G05
T1
X2.8331Y-1.5709
X2.8331Y-1.8701
X2.8331Y-2.1142
X2.8331Y-2.4134
X2.8331Y-2.6575
X2.8331Y-2.9567
X2.8331Y-3.2008
X2.8331Y-3.5
X2.8331Y-3.7441
X2.8331Y-4.0433
X2.8331Y-4.2874
X2.8331Y-4.5866
X2.8331Y-4.8307
X2.8331Y-5.1299
X2.8331Y-5.374
X2.8331Y-5.6732
X2.8331Y-5.9173
X2.8331Y-6.2165
X2.8331Y-6.4606
X2.8331Y-6.7598
X2.9331Y-1.5709
X2.9331Y-1.8701
X2.9331Y-2.1142
X2.9331Y-2.4134
X2.9331Y-2.6575
X2.9331Y-2.9567
X2.9331Y-3.2008
X2.9331Y-3.5
X2.9331Y-3.7441
X2.9331Y-4.0433
X2.9331Y-4.2874
X2.9331Y-4.5866
X2.9331Y-4.8307
X2.9331Y-5.1299
X2.9331Y-5.374
X2.9331Y-5.6732
X2.9331Y-5.9173
X2.9331Y-6.2165
X2.9331Y-6.4606
X2.9331Y-6.7598
X3.2661Y-1.6559
X3.2661Y-1.7559
X3.2661Y-2.1992
X3.2661Y-2.2992
X3.2661Y-2.7425
X3.2661Y-2.8425
X3.2661Y-3.2858
X3.2661Y-3.3858
X3.2661Y-3.8291
X3.2661Y-3.9291
X3.2661Y-4.3724
X3.2661Y-4.4724
X3.2661Y-4.9157
X3.2661Y-5.0157
X3.2661Y-5.4591
X3.2661Y-5.5591
X3.2661Y-6.0024
X3.2661Y-6.1024
X3.2661Y-6.5457
X3.2661Y-6.6457
X3.3661Y-1.6559
X3.3661Y-1.7559
X3.3661Y-2.1992
X3.3661Y-2.2992
X3.3661Y-2.7425
X3.3661Y-2.8425
X3.3661Y-3.2858
X3.3661Y-3.3858
X3.3661Y-3.8291
X3.3661Y-3.9291
X3.3661Y-4.3724
X3.3661Y-4.4724
X3.3661Y-4.9157
X3.3661Y-5.0157
X3.3661Y-5.4591
X3.3661Y-5.5591
X3.3661Y-6.0024
X3.3661Y-6.1024
X3.3661Y-6.5457
X3.3661Y-6.6457
X3.4661Y-1.6559
X3.4661Y-1.7559
X3.4661Y-2.1992
X3.4661Y-2.2992
X3.4661Y-2.7425
X3.4661Y-2.8425
X3.4661Y-3.2858
X3.4661Y-3.3858
X3.4661Y-3.8291
X3.4661Y-3.9291
X3.4661Y-4.3724
X3.4661Y-4.4724
X3.4661Y-4.9157
X3.4661Y-5.0157
X3.4661Y-5.4591
X3.4661Y-5.5591
X3.4661Y-6.0024
X3.4661Y-6.1024
X3.4661Y-6.5457
X3.4661Y-6.6457
X4.0535Y-1.6559
X4.0535Y-1.7559
X4.0535Y-2.1992
X4.0535Y-2.2992
X4.0535Y-2.7425
X4.0535Y-2.8425
X4.0535Y-3.2858
X4.0535Y-3.3858
X4.0535Y-3.8291
X4.0535Y-3.9291
X4.0535Y-4.3724
X4.0535Y-4.4724
X4.0535Y-4.9157
X4.0535Y-5.0157
X4.0535Y-5.4591
X4.0535Y-5.5591
X4.0535Y-6.0024
X4.0535Y-6.1024
X4.0535Y-6.5457
X4.0535Y-6.6457
X4.1535Y-1.6559
X4.1535Y-1.7559
X4.1535Y-2.1992
X4.1535Y-2.2992
X4.1535Y-2.7425
X4.1535Y-2.8425
X4.1535Y-3.2858
X4.1535Y-3.3858
X4.1535Y-3.8291
X4.1535Y-3.9291
X4.1535Y-4.3724
X4.1535Y-4.4724
X4.1535Y-4.9157
X4.1535Y-5.0157
X4.1535Y-5.4591
X4.1535Y-5.5591
X4.1535Y-6.0024
X4.1535Y-6.1024
X4.1535Y-6.5457
X4.1535Y-6.6457
X4.2535Y-1.6559
X4.2535Y-1.7559
X4.2535Y-2.1992
X4.2535Y-2.2992
X4.2535Y-2.7425
X4.2535Y-2.8425
X4.2535Y-3.2858
X4.2535Y-3.3858
X4.2535Y-3.8291
X4.2535Y-3.9291
X4.2535Y-4.3724
X4.2535Y-4.4724
X4.2535Y-4.9157
X4.2535Y-5.0157
X4.2535Y-5.4591
X4.2535Y-5.5591
X4.2535Y-6.0024
X4.2535Y-6.1024
X4.2535Y-6.5457
X4.2535Y-6.6457
X4.589Y-1.5709
X4.589Y-1.8701
X4.589Y-2.1142
X4.589Y-2.4134
X4.589Y-2.6575
X4.589Y-2.9567
X4.589Y-3.2008
X4.589Y-3.5
X4.589Y-3.7441
X4.589Y-4.0433
X4.589Y-4.2874
X4.589Y-4.5866
X4.589Y-4.8307
X4.589Y-5.1299
X4.589Y-5.374
X4.589Y-5.6732
X4.589Y-5.9173
X4.589Y-6.2165
X4.589Y-6.4606
X4.589Y-6.7598
X4.689Y-1.5709
X4.689Y-1.8701
X4.689Y-2.1142
X4.689Y-2.4134
X4.689Y-2.6575
X4.689Y-2.9567
X4.689Y-3.2008
X4.689Y-3.5
X4.689Y-3.7441
X4.689Y-4.0433
X4.689Y-4.2874
X4.689Y-4.5866
X4.689Y-4.8307
X4.689Y-5.1299
X4.689Y-5.374
X4.689Y-5.6732
X4.689Y-5.9173
X4.689Y-6.2165
X4.689Y-6.4606
X4.689Y-6.7598
X4.9354Y-1.5709
X4.9354Y-1.8701
X4.9354Y-2.1142
X4.9354Y-2.4134
X4.9354Y-2.6575
X4.9354Y-2.9567
X4.9354Y-3.2008
X4.9354Y-3.5
X4.9354Y-3.7441
X4.9354Y-4.0433
X4.9354Y-4.2874
X4.9354Y-4.5866
X4.9354Y-4.8307
X4.9354Y-5.1299
X4.9354Y-5.374
X4.9354Y-5.6732
X4.9354Y-5.9173
X4.9354Y-6.2165
X4.9354Y-6.4606
X4.9354Y-6.7598
X5.0354Y-1.5709
X5.0354Y-1.8701
X5.0354Y-2.1142
X5.0354Y-2.4134
X5.0354Y-2.6575
X5.0354Y-2.9567
X5.0354Y-3.2008
X5.0354Y-3.5
X5.0354Y-3.7441
X5.0354Y-4.0433
X5.0354Y-4.2874
X5.0354Y-4.5866
X5.0354Y-4.8307
X5.0354Y-5.1299
X5.0354Y-5.374
X5.0354Y-5.6732
X5.0354Y-5.9173
X5.0354Y-6.2165
X5.0354Y-6.4606
X5.0354Y-6.7598
X5.3685Y-1.6559
X5.3685Y-1.7559
X5.3685Y-2.1992
X5.3685Y-2.2992
X5.3685Y-2.7425
X5.3685Y-2.8425
X5.3685Y-3.2858
X5.3685Y-3.3858
X5.3685Y-3.8291
X5.3685Y-3.9291
X5.3685Y-4.3724
X5.3685Y-4.4724
X5.3685Y-4.9157
X5.3685Y-5.0157
X5.3685Y-5.4591
X5.3685Y-5.5591
X5.3685Y-6.0024
X5.3685Y-6.1024
X5.3685Y-6.5457
X5.3685Y-6.6457
X5.4685Y-1.6559
X5.4685Y-1.7559
X5.4685Y-2.1992
X5.4685Y-2.2992
X5.4685Y-2.7425
X5.4685Y-2.8425
X5.4685Y-3.2858
X5.4685Y-3.3858
X5.4685Y-3.8291
X5.4685Y-3.9291
X5.4685Y-4.3724
X5.4685Y-4.4724
X5.4685Y-4.9157
X5.4685Y-5.0157
X5.4685Y-5.4591
X5.4685Y-5.5591
X5.4685Y-6.0024
X5.4685Y-6.1024
X5.4685Y-6.5457
X5.4685Y-6.6457
X5.5685Y-1.6559
X5.5685Y-1.7559
X5.5685Y-2.1992
X5.5685Y-2.2992
X5.5685Y-2.7425
X5.5685Y-2.8425
X5.5685Y-3.2858
X5.5685Y-3.3858
X5.5685Y-3.8291
X5.5685Y-3.9291
X5.5685Y-4.3724
X5.5685Y-4.4724
X5.5685Y-4.9157
X5.5685Y-5.0157
X5.5685Y-5.4591
X5.5685Y-5.5591
X5.5685Y-6.0024
X5.5685Y-6.1024
X5.5685Y-6.5457
X5.5685Y-6.6457
X6.1559Y-1.6559
X6.1559Y-1.7559
X6.1559Y-2.1992
X6.1559Y-2.2992
X6.1559Y-2.7425
X6.1559Y-2.8425
X6.1559Y-3.2858
X6.1559Y-3.3858
X6.1559Y-3.8291
X6.1559Y-3.9291
X6.1559Y-4.3724
X6.1559Y-4.4724
X6.1559Y-4.9157
X6.1559Y-5.0157
X6.1559Y-5.4591
X6.1559Y-5.5591
X6.1559Y-6.0024
X6.1559Y-6.1024
X6.1559Y-6.5457
X6.1559Y-6.6457
X6.2559Y-1.6559
X6.2559Y-1.7559
X6.2559Y-2.1992
X6.2559Y-2.2992
X6.2559Y-2.7425
X6.2559Y-2.8425
X6.2559Y-3.2858
X6.2559Y-3.3858
X6.2559Y-3.8291
X6.2559Y-3.9291
X6.2559Y-4.3724
X6.2559Y-4.4724
X6.2559Y-4.9157
X6.2559Y-5.0157
X6.2559Y-5.4591
X6.2559Y-5.5591
X6.2559Y-6.0024
X6.2559Y-6.1024
X6.2559Y-6.5457
X6.2559Y-6.6457
X6.3559Y-1.6559
X6.3559Y-1.7559
X6.3559Y-2.1992
X6.3559Y-2.2992
X6.3559Y-2.7425
X6.3559Y-2.8425
X6.3559Y-3.2858
X6.3559Y-3.3858
X6.3559Y-3.8291
X6.3559Y-3.9291
X6.3559Y-4.3724
X6.3559Y-4.4724
X6.3559Y-4.9157
X6.3559Y-5.0157
X6.3559Y-5.4591
X6.3559Y-5.5591
X6.3559Y-6.0024
X6.3559Y-6.1024
X6.3559Y-6.5457
X6.3559Y-6.6457
X6.6913Y-1.5709
X6.6913Y-1.8701
X6.6913Y-2.1142
X6.6913Y-2.4134
X6.6913Y-2.6575
X6.6913Y-2.9567
X6.6913Y-3.2008
X6.6913Y-3.5
X6.6913Y-3.7441
X6.6913Y-4.0433
X6.6913Y-4.2874
X6.6913Y-4.5866
X6.6913Y-4.8307
X6.6913Y-5.1299
X6.6913Y-5.374
X6.6913Y-5.6732
X6.6913Y-5.9173
X6.6913Y-6.2165
X6.6913Y-6.4606
X6.6913Y-6.7598
X6.7913Y-1.5709
X6.7913Y-1.8701
X6.7913Y-2.1142
X6.7913Y-2.4134
X6.7913Y-2.6575
X6.7913Y-2.9567
X6.7913Y-3.2008
X6.7913Y-3.5
X6.7913Y-3.7441
X6.7913Y-4.0433
X6.7913Y-4.2874
X6.7913Y-4.5866
X6.7913Y-4.8307
X6.7913Y-5.1299
X6.7913Y-5.374
X6.7913Y-5.6732
X6.7913Y-5.9173
X6.7913Y-6.2165
X6.7913Y-6.4606
X6.7913Y-6.7598
X7.0378Y-1.5709
X7.0378Y-1.8701
X7.0378Y-2.1142
X7.0378Y-2.4134
X7.0378Y-2.6575
X7.0378Y-2.9567
X7.0378Y-3.2008
X7.0378Y-3.5
X7.0378Y-3.7441
X7.0378Y-4.0433
X7.0378Y-4.2874
X7.0378Y-4.5866
X7.0378Y-4.8307
X7.0378Y-5.1299
X7.0378Y-5.374
X7.0378Y-5.6732
X7.0378Y-5.9173
X7.0378Y-6.2165
X7.0378Y-6.4606
X7.0378Y-6.7598
X7.1378Y-1.5709
X7.1378Y-1.8701
X7.1378Y-2.1142
X7.1378Y-2.4134
X7.1378Y-2.6575
X7.1378Y-2.9567
X7.1378Y-3.2008
X7.1378Y-3.5
X7.1378Y-3.7441
X7.1378Y-4.0433
X7.1378Y-4.2874
X7.1378Y-4.5866
X7.1378Y-4.8307
X7.1378Y-5.1299
X7.1378Y-5.374
X7.1378Y-5.6732
X7.1378Y-5.9173
X7.1378Y-6.2165
X7.1378Y-6.4606
X7.1378Y-6.7598
X7.4709Y-1.6559
X7.4709Y-1.7559
X7.4709Y-2.1992
X7.4709Y-2.2992
X7.4709Y-2.7425
X7.4709Y-2.8425
X7.4709Y-3.2858
X7.4709Y-3.3858
X7.4709Y-3.8291
X7.4709Y-3.9291
X7.4709Y-4.3724
X7.4709Y-4.4724
X7.4709Y-4.9157
X7.4709Y-5.0157
X7.4709Y-5.4591
X7.4709Y-5.5591
X7.4709Y-6.0024
X7.4709Y-6.1024
X7.4709Y-6.5457
X7.4709Y-6.6457
X7.5709Y-1.6559
X7.5709Y-1.7559
X7.5709Y-2.1992
X7.5709Y-2.2992
X7.5709Y-2.7425
X7.5709Y-2.8425
X7.5709Y-3.2858
X7.5709Y-3.3858
X7.5709Y-3.8291
X7.5709Y-3.9291
X7.5709Y-4.3724
X7.5709Y-4.4724
X7.5709Y-4.9157
X7.5709Y-5.0157
X7.5709Y-5.4591
X7.5709Y-5.5591
X7.5709Y-6.0024
X7.5709Y-6.1024
X7.5709Y-6.5457
X7.5709Y-6.6457
X7.6709Y-1.6559
X7.6709Y-1.7559
X7.6709Y-2.1992
X7.6709Y-2.2992
X7.6709Y-2.7425
X7.6709Y-2.8425
X7.6709Y-3.2858
X7.6709Y-3.3858
X7.6709Y-3.8291
X7.6709Y-3.9291
X7.6709Y-4.3724
X7.6709Y-4.4724
X7.6709Y-4.9157
X7.6709Y-5.0157
X7.6709Y-5.4591
X7.6709Y-5.5591
X7.6709Y-6.0024
X7.6709Y-6.1024
X7.6709Y-6.5457
X7.6709Y-6.6457
X8.2583Y-1.6559
X8.2583Y-1.7559
X8.2583Y-2.1992
X8.2583Y-2.2992
X8.2583Y-2.7425
X8.2583Y-2.8425
X8.2583Y-3.2858
X8.2583Y-3.3858
X8.2583Y-3.8291
X8.2583Y-3.9291
X8.2583Y-4.3724
X8.2583Y-4.4724
X8.2583Y-4.9157
X8.2583Y-5.0157
X8.2583Y-5.4591
X8.2583Y-5.5591
X8.2583Y-6.0024
X8.2583Y-6.1024
X8.2583Y-6.5457
X8.2583Y-6.6457
X8.3583Y-1.6559
X8.3583Y-1.7559
X8.3583Y-2.1992
X8.3583Y-2.2992
X8.3583Y-2.7425
X8.3583Y-2.8425
X8.3583Y-3.2858
X8.3583Y-3.3858
X8.3583Y-3.8291
X8.3583Y-3.9291
X8.3583Y-4.3724
X8.3583Y-4.4724
X8.3583Y-4.9157
X8.3583Y-5.0157
X8.3583Y-5.4591
X8.3583Y-5.5591
X8.3583Y-6.0024
X8.3583Y-6.1024
X8.3583Y-6.5457
X8.3583Y-6.6457
X8.4583Y-1.6559
X8.4583Y-1.7559
X8.4583Y-2.1992
X8.4583Y-2.2992
X8.4583Y-2.7425
X8.4583Y-2.8425
X8.4583Y-3.2858
X8.4583Y-3.3858
X8.4583Y-3.8291
X8.4583Y-3.9291
X8.4583Y-4.3724
X8.4583Y-4.4724
X8.4583Y-4.9157
X8.4583Y-5.0157
X8.4583Y-5.4591
X8.4583Y-5.5591
X8.4583Y-6.0024
X8.4583Y-6.1024
X8.4583Y-6.5457
X8.4583Y-6.6457
X8.7937Y-1.5709
X8.7937Y-1.8701
X8.7937Y-2.1142
X8.7937Y-2.4134
X8.7937Y-2.6575
X8.7937Y-2.9567
X8.7937Y-3.2008
X8.7937Y-3.5
X8.7937Y-3.7441
X8.7937Y-4.0433
X8.7937Y-4.2874
X8.7937Y-4.5866
X8.7937Y-4.8307
X8.7937Y-5.1299
X8.7937Y-5.374
X8.7937Y-5.6732
X8.7937Y-5.9173
X8.7937Y-6.2165
X8.7937Y-6.4606
X8.7937Y-6.7598
X8.8937Y-1.5709
X8.8937Y-1.8701
X8.8937Y-2.1142
X8.8937Y-2.4134
X8.8937Y-2.6575
X8.8937Y-2.9567
X8.8937Y-3.2008
X8.8937Y-3.5
X8.8937Y-3.7441
X8.8937Y-4.0433
X8.8937Y-4.2874
X8.8937Y-4.5866
X8.8937Y-4.8307
X8.8937Y-5.1299
X8.8937Y-5.374
X8.8937Y-5.6732
X8.8937Y-5.9173
X8.8937Y-6.2165
X8.8937Y-6.4606
X8.8937Y-6.7598
M30
